<svg width="121" height="121" viewBox="0 0 121 121" fill="none" xmlns="http://www.w3.org/2000/svg">
<g clip-path="url(#clip0_5618_10479)">
<path d="M120.66 0.813965H0.6604V120.814H120.66V0.813965Z" fill="white"/>
<path d="M10.9982 8.31396H8.1604V11.1518H10.9982V8.31396Z" fill="black"/>
<path d="M13.8361 8.31396H10.9982V11.1518H13.8361V8.31396Z" fill="black"/>
<path d="M16.6739 8.31396H13.8361V11.1518H16.6739V8.31396Z" fill="black"/>
<path d="M19.5118 8.31396H16.6739V11.1518H19.5118V8.31396Z" fill="black"/>
<path d="M22.3496 8.31396H19.5118V11.1518H22.3496V8.31396Z" fill="black"/>
<path d="M25.1874 8.31396H22.3496V11.1518H25.1874V8.31396Z" fill="black"/>
<path d="M28.0253 8.31396H25.1874V11.1518H28.0253V8.31396Z" fill="black"/>
<path d="M33.7009 8.31396H30.8631V11.1518H33.7009V8.31396Z" fill="black"/>
<path d="M36.5388 8.31396H33.7009V11.1518H36.5388V8.31396Z" fill="black"/>
<path d="M39.3766 8.31396H36.5388V11.1518H39.3766V8.31396Z" fill="black"/>
<path d="M45.0523 8.31396H42.2145V11.1518H45.0523V8.31396Z" fill="black"/>
<path d="M53.5658 8.31396H50.728V11.1518H53.5658V8.31396Z" fill="black"/>
<path d="M64.9172 8.31396H62.0793V11.1518H64.9172V8.31396Z" fill="black"/>
<path d="M67.755 8.31396H64.9172V11.1518H67.755V8.31396Z" fill="black"/>
<path d="M73.4307 8.31396H70.5928V11.1518H73.4307V8.31396Z" fill="black"/>
<path d="M79.1064 8.31396H76.2685V11.1518H79.1064V8.31396Z" fill="black"/>
<path d="M87.6199 8.31396H84.782V11.1518H87.6199V8.31396Z" fill="black"/>
<path d="M96.1334 8.31396H93.2955V11.1518H96.1334V8.31396Z" fill="black"/>
<path d="M98.9712 8.31396H96.1334V11.1518H98.9712V8.31396Z" fill="black"/>
<path d="M101.809 8.31396H98.9712V11.1518H101.809V8.31396Z" fill="black"/>
<path d="M104.647 8.31396H101.809V11.1518H104.647V8.31396Z" fill="black"/>
<path d="M107.485 8.31396H104.647V11.1518H107.485V8.31396Z" fill="black"/>
<path d="M110.323 8.31396H107.485V11.1518H110.323V8.31396Z" fill="black"/>
<path d="M113.16 8.31396H110.323V11.1518H113.16V8.31396Z" fill="black"/>
<path d="M10.9982 11.1518H8.1604V13.9896H10.9982V11.1518Z" fill="black"/>
<path d="M28.0253 11.1518H25.1874V13.9896H28.0253V11.1518Z" fill="black"/>
<path d="M36.5388 11.1518H33.7009V13.9896H36.5388V11.1518Z" fill="black"/>
<path d="M39.3766 11.1518H36.5388V13.9896H39.3766V11.1518Z" fill="black"/>
<path d="M50.728 11.1518H47.8901V13.9896H50.728L50.728 11.1518Z" fill="black"/>
<path d="M53.5658 11.1518H50.728L50.728 13.9896H53.5658V11.1518Z" fill="black"/>
<path d="M62.0793 11.1518H59.2415V13.9896H62.0793V11.1518Z" fill="black"/>
<path d="M64.9172 11.1518H62.0793V13.9896H64.9172V11.1518Z" fill="black"/>
<path d="M67.755 11.1518H64.9172V13.9896H67.755V11.1518Z" fill="black"/>
<path d="M73.4307 11.1518H70.5928V13.9896H73.4307V11.1518Z" fill="black"/>
<path d="M84.782 11.1518H81.9442V13.9896H84.782V11.1518Z" fill="black"/>
<path d="M96.1334 11.1518H93.2955V13.9896H96.1334V11.1518Z" fill="black"/>
<path d="M113.16 11.1518H110.323V13.9896H113.16V11.1518Z" fill="black"/>
<path d="M10.9982 13.9896H8.1604V16.8275H10.9982V13.9896Z" fill="black"/>
<path d="M16.6739 13.9896H13.8361V16.8275H16.6739V13.9896Z" fill="black"/>
<path d="M19.5118 13.9896H16.6739V16.8275H19.5118V13.9896Z" fill="black"/>
<path d="M22.3496 13.9896H19.5118V16.8275H22.3496V13.9896Z" fill="black"/>
<path d="M28.0253 13.9896H25.1874V16.8275H28.0253V13.9896Z" fill="black"/>
<path d="M33.7009 13.9896H30.8631V16.8275H33.7009V13.9896Z" fill="black"/>
<path d="M36.5388 13.9896H33.7009V16.8275H36.5388V13.9896Z" fill="black"/>
<path d="M39.3766 13.9896H36.5388V16.8275H39.3766V13.9896Z" fill="black"/>
<path d="M45.0523 13.9896H42.2145V16.8275H45.0523V13.9896Z" fill="black"/>
<path d="M50.728 13.9896H47.8901V16.8275H50.728V13.9896Z" fill="black"/>
<path d="M53.5658 13.9896H50.728V16.8275H53.5658V13.9896Z" fill="black"/>
<path d="M59.2415 13.9896H56.4036V16.8275H59.2415L59.2415 13.9896Z" fill="black"/>
<path d="M62.0793 13.9896H59.2415L59.2415 16.8275H62.0793V13.9896Z" fill="black"/>
<path d="M64.9172 13.9896H62.0793V16.8275H64.9172V13.9896Z" fill="black"/>
<path d="M76.2685 13.9896H73.4307V16.8275H76.2685V13.9896Z" fill="black"/>
<path d="M79.1064 13.9896H76.2685V16.8275H79.1064V13.9896Z" fill="black"/>
<path d="M84.782 13.9896H81.9442V16.8275H84.782V13.9896Z" fill="black"/>
<path d="M90.4577 13.9896H87.6199V16.8275H90.4577V13.9896Z" fill="black"/>
<path d="M96.1334 13.9896H93.2955V16.8275H96.1334V13.9896Z" fill="black"/>
<path d="M101.809 13.9896H98.9712V16.8275H101.809V13.9896Z" fill="black"/>
<path d="M104.647 13.9896H101.809V16.8275H104.647V13.9896Z" fill="black"/>
<path d="M107.485 13.9896H104.647V16.8275H107.485V13.9896Z" fill="black"/>
<path d="M113.16 13.9896H110.323V16.8275H113.16V13.9896Z" fill="black"/>
<path d="M10.9982 16.8275H8.1604V19.6653H10.9982V16.8275Z" fill="black"/>
<path d="M16.6739 16.8275H13.8361V19.6653H16.6739V16.8275Z" fill="black"/>
<path d="M19.5118 16.8275H16.6739V19.6653H19.5118V16.8275Z" fill="black"/>
<path d="M22.3496 16.8275H19.5118V19.6653H22.3496V16.8275Z" fill="black"/>
<path d="M28.0253 16.8275H25.1874V19.6653H28.0253V16.8275Z" fill="black"/>
<path d="M33.7009 16.8275H30.8631V19.6653H33.7009V16.8275Z" fill="black"/>
<path d="M36.5388 16.8275H33.7009V19.6653H36.5388V16.8275Z" fill="black"/>
<path d="M45.0523 16.8275H42.2145V19.6653H45.0523V16.8275Z" fill="black"/>
<path d="M50.728 16.8275H47.8901V19.6653H50.728V16.8275Z" fill="black"/>
<path d="M56.4036 16.8275H53.5658L53.5658 19.6653H56.4036L56.4036 16.8275Z" fill="black"/>
<path d="M62.0793 16.8275H59.2415L59.2415 19.6653H62.0793V16.8275Z" fill="black"/>
<path d="M64.9172 16.8275H62.0793V19.6653H64.9172V16.8275Z" fill="black"/>
<path d="M70.5928 16.8275H67.755V19.6653H70.5928V16.8275Z" fill="black"/>
<path d="M90.4577 16.8275H87.6199V19.6653H90.4577V16.8275Z" fill="black"/>
<path d="M96.1334 16.8275H93.2955V19.6653H96.1334V16.8275Z" fill="black"/>
<path d="M101.809 16.8275H98.9712V19.6653H101.809V16.8275Z" fill="black"/>
<path d="M104.647 16.8275H101.809V19.6653H104.647V16.8275Z" fill="black"/>
<path d="M107.485 16.8275H104.647V19.6653H107.485V16.8275Z" fill="black"/>
<path d="M113.16 16.8275H110.323V19.6653H113.16V16.8275Z" fill="black"/>
<path d="M10.9982 19.6653H8.1604V22.5032H10.9982V19.6653Z" fill="black"/>
<path d="M16.6739 19.6653H13.8361V22.5032H16.6739V19.6653Z" fill="black"/>
<path d="M19.5118 19.6653H16.6739V22.5032H19.5118V19.6653Z" fill="black"/>
<path d="M22.3496 19.6653H19.5118V22.5032H22.3496V19.6653Z" fill="black"/>
<path d="M28.0253 19.6653H25.1874V22.5032H28.0253V19.6653Z" fill="black"/>
<path d="M36.5388 19.6653H33.7009V22.5032H36.5388V19.6653Z" fill="black"/>
<path d="M45.0523 19.6653H42.2145V22.5032H45.0523V19.6653Z" fill="black"/>
<path d="M53.5658 19.6653H50.728L50.728 22.5032H53.5658L53.5658 19.6653Z" fill="black"/>
<path d="M59.2415 19.6653H56.4036L56.4036 22.5032H59.2415L59.2415 19.6653Z" fill="black"/>
<path d="M62.0793 19.6653H59.2415L59.2415 22.5032H62.0793V19.6653Z" fill="black"/>
<path d="M67.755 19.6653H64.9172V22.5032H67.755V19.6653Z" fill="black"/>
<path d="M73.4307 19.6653H70.5928V22.5032H73.4307V19.6653Z" fill="black"/>
<path d="M76.2685 19.6653H73.4307V22.5032H76.2685V19.6653Z" fill="black"/>
<path d="M79.1064 19.6653H76.2685V22.5032H79.1064V19.6653Z" fill="black"/>
<path d="M81.9442 19.6653H79.1064V22.5032H81.9442V19.6653Z" fill="black"/>
<path d="M84.782 19.6653H81.9442V22.5032H84.782V19.6653Z" fill="black"/>
<path d="M87.6199 19.6653H84.782V22.5032H87.6199V19.6653Z" fill="black"/>
<path d="M90.4577 19.6653H87.6199V22.5032H90.4577V19.6653Z" fill="black"/>
<path d="M96.1334 19.6653H93.2955V22.5032H96.1334V19.6653Z" fill="black"/>
<path d="M101.809 19.6653H98.9712V22.5032H101.809V19.6653Z" fill="black"/>
<path d="M104.647 19.6653H101.809V22.5032H104.647V19.6653Z" fill="black"/>
<path d="M107.485 19.6653H104.647V22.5032H107.485V19.6653Z" fill="black"/>
<path d="M113.16 19.6653H110.323V22.5032H113.16V19.6653Z" fill="black"/>
<path d="M10.9982 22.5032H8.1604V25.341H10.9982V22.5032Z" fill="black"/>
<path d="M28.0253 22.5032H25.1874V25.341H28.0253V22.5032Z" fill="black"/>
<path d="M33.7009 22.5032H30.8631V25.341H33.7009V22.5032Z" fill="black"/>
<path d="M36.5388 22.5032H33.7009V25.341H36.5388V22.5032Z" fill="black"/>
<path d="M42.2145 22.5032H39.3766V25.341H42.2145L42.2145 22.5032Z" fill="black"/>
<path d="M45.0523 22.5032H42.2145L42.2145 25.341H45.0523V22.5032Z" fill="black"/>
<path d="M47.8901 22.5032H45.0523V25.341H47.8901V22.5032Z" fill="black"/>
<path d="M50.728 22.5032H47.8901V25.341H50.728L50.728 22.5032Z" fill="black"/>
<path d="M59.2415 22.5032H56.4036V25.341H59.2415V22.5032Z" fill="black"/>
<path d="M62.0793 22.5032H59.2415V25.341H62.0793V22.5032Z" fill="black"/>
<path d="M64.9172 22.5032H62.0793V25.341H64.9172V22.5032Z" fill="black"/>
<path d="M84.782 22.5032H81.9442V25.341H84.782V22.5032Z" fill="black"/>
<path d="M90.4577 22.5032H87.6199V25.341H90.4577V22.5032Z" fill="black"/>
<path d="M96.1334 22.5032H93.2955V25.341H96.1334V22.5032Z" fill="black"/>
<path d="M113.16 22.5032H110.323V25.341H113.16V22.5032Z" fill="black"/>
<path d="M10.9982 25.341H8.1604V28.1788H10.9982V25.341Z" fill="black"/>
<path d="M13.8361 25.341H10.9982V28.1788H13.8361V25.341Z" fill="black"/>
<path d="M16.6739 25.341H13.8361V28.1788H16.6739V25.341Z" fill="black"/>
<path d="M19.5118 25.341H16.6739V28.1788H19.5118V25.341Z" fill="black"/>
<path d="M22.3496 25.341H19.5118V28.1788H22.3496V25.341Z" fill="black"/>
<path d="M25.1874 25.341H22.3496V28.1788H25.1874V25.341Z" fill="black"/>
<path d="M28.0253 25.341H25.1874V28.1788H28.0253V25.341Z" fill="black"/>
<path d="M33.7009 25.341H30.8631V28.1788H33.7009V25.341Z" fill="black"/>
<path d="M39.3766 25.341H36.5388V28.1788H39.3766V25.341Z" fill="black"/>
<path d="M45.0523 25.341H42.2145L42.2145 28.1788H45.0523V25.341Z" fill="black"/>
<path d="M50.728 25.341H47.8901V28.1788H50.728V25.341Z" fill="black"/>
<path d="M56.4036 25.341H53.5658V28.1788H56.4036L56.4036 25.341Z" fill="black"/>
<path d="M62.0793 25.341H59.2415L59.2415 28.1788H62.0793V25.341Z" fill="black"/>
<path d="M67.755 25.341H64.9172V28.1788H67.755V25.341Z" fill="black"/>
<path d="M73.4307 25.341H70.5928V28.1788H73.4307V25.341Z" fill="black"/>
<path d="M79.1064 25.341H76.2685V28.1788H79.1064V25.341Z" fill="black"/>
<path d="M84.782 25.341H81.9442V28.1788H84.782V25.341Z" fill="black"/>
<path d="M90.4577 25.341H87.6199V28.1788H90.4577V25.341Z" fill="black"/>
<path d="M96.1334 25.341H93.2955V28.1788H96.1334V25.341Z" fill="black"/>
<path d="M98.9712 25.341H96.1334V28.1788H98.9712V25.341Z" fill="black"/>
<path d="M101.809 25.341H98.9712V28.1788H101.809V25.341Z" fill="black"/>
<path d="M104.647 25.341H101.809V28.1788H104.647V25.341Z" fill="black"/>
<path d="M107.485 25.341H104.647V28.1788H107.485V25.341Z" fill="black"/>
<path d="M110.323 25.341H107.485V28.1788H110.323V25.341Z" fill="black"/>
<path d="M113.16 25.341H110.323V28.1788H113.16V25.341Z" fill="black"/>
<path d="M33.7009 28.1788H30.8631V31.0167H33.7009V28.1788Z" fill="black"/>
<path d="M36.5388 28.1788H33.7009V31.0167H36.5388V28.1788Z" fill="black"/>
<path d="M42.2145 28.1788H39.3766V31.0167H42.2145L42.2145 28.1788Z" fill="black"/>
<path d="M47.8901 28.1788H45.0523L45.0523 31.0167H47.8901V28.1788Z" fill="black"/>
<path d="M53.5658 28.1788H50.728L50.728 31.0167H53.5658L53.5658 28.1788Z" fill="black"/>
<path d="M62.0793 28.1788H59.2415V31.0167H62.0793V28.1788Z" fill="black"/>
<path d="M73.4307 28.1788H70.5928V31.0167H73.4307V28.1788Z" fill="black"/>
<path d="M76.2685 28.1788H73.4307V31.0167H76.2685V28.1788Z" fill="black"/>
<path d="M79.1064 28.1788H76.2685V31.0167H79.1064V28.1788Z" fill="black"/>
<path d="M84.782 28.1788H81.9442V31.0167H84.782V28.1788Z" fill="black"/>
<path d="M87.6199 28.1788H84.782V31.0167H87.6199V28.1788Z" fill="black"/>
<path d="M10.9982 31.0167H8.1604V33.8545H10.9982V31.0167Z" fill="black"/>
<path d="M13.8361 31.0167H10.9982V33.8545H13.8361V31.0167Z" fill="black"/>
<path d="M19.5118 31.0167H16.6739V33.8545H19.5118V31.0167Z" fill="black"/>
<path d="M28.0253 31.0167H25.1874V33.8545H28.0253V31.0167Z" fill="black"/>
<path d="M30.8631 31.0167H28.0253V33.8545H30.8631V31.0167Z" fill="black"/>
<path d="M36.5388 31.0167H33.7009V33.8545H36.5388V31.0167Z" fill="black"/>
<path d="M39.3766 31.0167H36.5388V33.8545H39.3766V31.0167Z" fill="black"/>
<path d="M42.2145 31.0167H39.3766V33.8545H42.2145V31.0167Z" fill="black"/>
<path d="M47.8901 31.0167H45.0523V33.8545H47.8901V31.0167Z" fill="black"/>
<path d="M50.728 31.0167H47.8901V33.8545H50.728L50.728 31.0167Z" fill="black"/>
<path d="M56.4036 31.0167H53.5658L53.5658 33.8545H56.4036V31.0167Z" fill="black"/>
<path d="M62.0793 31.0167H59.2415V33.8545H62.0793V31.0167Z" fill="black"/>
<path d="M67.755 31.0167H64.9172V33.8545H67.755V31.0167Z" fill="black"/>
<path d="M79.1064 31.0167H76.2685V33.8545H79.1064V31.0167Z" fill="black"/>
<path d="M81.9442 31.0167H79.1064V33.8545H81.9442V31.0167Z" fill="black"/>
<path d="M87.6199 31.0167H84.782V33.8545H87.6199V31.0167Z" fill="black"/>
<path d="M93.2955 31.0167H90.4577V33.8545H93.2955V31.0167Z" fill="black"/>
<path d="M96.1334 31.0167H93.2955V33.8545H96.1334V31.0167Z" fill="black"/>
<path d="M98.9712 31.0167H96.1334V33.8545H98.9712V31.0167Z" fill="black"/>
<path d="M104.647 31.0167H101.809V33.8545H104.647V31.0167Z" fill="black"/>
<path d="M107.485 31.0167H104.647V33.8545H107.485V31.0167Z" fill="black"/>
<path d="M113.16 31.0167H110.323V33.8545H113.16V31.0167Z" fill="black"/>
<path d="M10.9982 33.8545H8.1604V36.6923H10.9982V33.8545Z" fill="black"/>
<path d="M22.3496 33.8545H19.5118V36.6923H22.3496V33.8545Z" fill="black"/>
<path d="M25.1874 33.8545H22.3496V36.6923H25.1874V33.8545Z" fill="black"/>
<path d="M30.8631 33.8545H28.0253V36.6923H30.8631V33.8545Z" fill="black"/>
<path d="M39.3766 33.8545H36.5388V36.6923H39.3766V33.8545Z" fill="black"/>
<path d="M47.8901 33.8545H45.0523V36.6923H47.8901V33.8545Z" fill="black"/>
<path d="M50.728 33.8545H47.8901V36.6923H50.728V33.8545Z" fill="black"/>
<path d="M56.4036 33.8545H53.5658V36.6923H56.4036V33.8545Z" fill="black"/>
<path d="M70.5928 33.8545H67.755V36.6923H70.5928V33.8545Z" fill="black"/>
<path d="M73.4307 33.8545H70.5928V36.6923H73.4307V33.8545Z" fill="black"/>
<path d="M79.1064 33.8545H76.2685V36.6923H79.1064V33.8545Z" fill="black"/>
<path d="M81.9442 33.8545H79.1064V36.6923H81.9442V33.8545Z" fill="black"/>
<path d="M101.809 33.8545H98.9712V36.6923H101.809V33.8545Z" fill="black"/>
<path d="M107.485 33.8545H104.647V36.6923H107.485V33.8545Z" fill="black"/>
<path d="M113.16 33.8545H110.323V36.6923H113.16V33.8545Z" fill="black"/>
<path d="M10.9982 36.6923H8.1604V39.5302H10.9982V36.6923Z" fill="black"/>
<path d="M13.8361 36.6923H10.9982V39.5302H13.8361V36.6923Z" fill="black"/>
<path d="M16.6739 36.6923H13.8361V39.5302H16.6739V36.6923Z" fill="black"/>
<path d="M25.1874 36.6923H22.3496V39.5302H25.1874V36.6923Z" fill="black"/>
<path d="M28.0253 36.6923H25.1874V39.5302H28.0253V36.6923Z" fill="black"/>
<path d="M30.8631 36.6923H28.0253V39.5302H30.8631V36.6923Z" fill="black"/>
<path d="M47.8901 36.6923H45.0523V39.5302H47.8901V36.6923Z" fill="black"/>
<path d="M50.728 36.6923H47.8901V39.5302H50.728V36.6923Z" fill="black"/>
<path d="M59.2415 36.6923H56.4036L56.4036 39.5302H59.2415V36.6923Z" fill="black"/>
<path d="M70.5928 36.6923H67.755V39.5302H70.5928V36.6923Z" fill="black"/>
<path d="M76.2685 36.6923H73.4307V39.5302H76.2685V36.6923Z" fill="black"/>
<path d="M79.1064 36.6923H76.2685V39.5302H79.1064V36.6923Z" fill="black"/>
<path d="M84.782 36.6923H81.9442V39.5302H84.782V36.6923Z" fill="black"/>
<path d="M87.6199 36.6923H84.782V39.5302H87.6199V36.6923Z" fill="black"/>
<path d="M98.9712 36.6923H96.1334V39.5302H98.9712V36.6923Z" fill="black"/>
<path d="M101.809 36.6923H98.9712V39.5302H101.809V36.6923Z" fill="black"/>
<path d="M104.647 36.6923H101.809V39.5302H104.647V36.6923Z" fill="black"/>
<path d="M107.485 36.6923H104.647V39.5302H107.485V36.6923Z" fill="black"/>
<path d="M110.323 36.6923H107.485V39.5302H110.323V36.6923Z" fill="black"/>
<path d="M113.16 36.6923H110.323V39.5302H113.16V36.6923Z" fill="black"/>
<path d="M10.9982 39.5302H8.1604V42.368H10.9982V39.5302Z" fill="black"/>
<path d="M13.8361 39.5302H10.9982V42.368H13.8361V39.5302Z" fill="black"/>
<path d="M16.6739 39.5302H13.8361V42.368H16.6739V39.5302Z" fill="black"/>
<path d="M19.5118 39.5302H16.6739V42.368H19.5118V39.5302Z" fill="black"/>
<path d="M33.7009 39.5302H30.8631V42.368H33.7009V39.5302Z" fill="black"/>
<path d="M45.0523 39.5302H42.2145V42.368H45.0523L45.0523 39.5302Z" fill="black"/>
<path d="M50.728 39.5302H47.8901V42.368H50.728V39.5302Z" fill="black"/>
<path d="M62.0793 39.5302H59.2415L59.2415 42.368H62.0793V39.5302Z" fill="black"/>
<path d="M64.9172 39.5302H62.0793V42.368H64.9172V39.5302Z" fill="black"/>
<path d="M67.755 39.5302H64.9172V42.368H67.755V39.5302Z" fill="black"/>
<path d="M70.5928 39.5302H67.755V42.368H70.5928V39.5302Z" fill="black"/>
<path d="M79.1064 39.5302H76.2685V42.368H79.1064V39.5302Z" fill="black"/>
<path d="M81.9442 39.5302H79.1064V42.368H81.9442V39.5302Z" fill="black"/>
<path d="M84.782 39.5302H81.9442V42.368H84.782V39.5302Z" fill="black"/>
<path d="M90.4577 39.5302H87.6199V42.368H90.4577V39.5302Z" fill="black"/>
<path d="M96.1334 39.5302H93.2955V42.368H96.1334V39.5302Z" fill="black"/>
<path d="M13.8361 42.368H10.9982V45.2059H13.8361V42.368Z" fill="black"/>
<path d="M16.6739 42.368H13.8361V45.2059H16.6739V42.368Z" fill="black"/>
<path d="M19.5118 42.368H16.6739V45.2059H19.5118V42.368Z" fill="black"/>
<path d="M22.3496 42.368L19.5118 42.368V45.2059H22.3496V42.368Z" fill="black"/>
<path d="M28.0253 42.368H25.1874V45.2059H28.0253V42.368Z" fill="black"/>
<path d="M39.3766 42.368H36.5388V45.2059H39.3766V42.368Z" fill="black"/>
<path d="M42.2145 42.368L39.3766 42.368V45.2059H42.2145L42.2145 42.368Z" fill="black"/>
<path d="M47.8901 42.368H45.0523L45.0523 45.2059H47.8901V42.368Z" fill="black"/>
<path d="M59.2415 42.368L56.4036 42.368V45.2059H59.2415L59.2415 42.368Z" fill="black"/>
<path d="M62.0793 42.368H59.2415L59.2415 45.2059H62.0793V42.368Z" fill="black"/>
<path d="M76.2685 42.368L73.4307 42.368V45.2059H76.2685V42.368Z" fill="black"/>
<path d="M81.9442 42.368H79.1064V45.2059H81.9442V42.368Z" fill="black"/>
<path d="M84.782 42.368H81.9442V45.2059H84.782V42.368Z" fill="black"/>
<path d="M90.4577 42.368H87.6199V45.2059H90.4577V42.368Z" fill="black"/>
<path d="M93.2955 42.368H90.4577V45.2059H93.2955V42.368Z" fill="black"/>
<path d="M101.809 42.368H98.9712V45.2059H101.809V42.368Z" fill="black"/>
<path d="M110.323 42.368H107.485V45.2059H110.323V42.368Z" fill="black"/>
<path d="M113.16 42.368H110.323V45.2059H113.16V42.368Z" fill="black"/>
<path d="M10.9982 45.2059L8.1604 45.2059V48.0437H10.9982V45.2059Z" fill="black"/>
<path d="M16.6739 45.2059H13.8361V48.0437H16.6739V45.2059Z" fill="black"/>
<path d="M22.3496 45.2059H19.5118V48.0437H22.3496V45.2059Z" fill="black"/>
<path d="M25.1874 45.2059H22.3496V48.0437H25.1874V45.2059Z" fill="black"/>
<path d="M30.8631 45.2059L28.0253 45.2059V48.0437H30.8631V45.2059Z" fill="black"/>
<path d="M56.4036 45.2059L53.5658 45.2059V48.0437H56.4036L56.4036 45.2059Z" fill="black"/>
<path d="M59.2415 45.2059H56.4036L56.4036 48.0437H59.2415V45.2059Z" fill="black"/>
<path d="M62.0793 45.2059H59.2415V48.0437H62.0793V45.2059Z" fill="black"/>
<path d="M64.9172 45.2059L62.0793 45.2059V48.0437H64.9172V45.2059Z" fill="black"/>
<path d="M67.755 45.2059H64.9172V48.0437H67.755V45.2059Z" fill="black"/>
<path d="M73.4307 45.2059L70.5928 45.2059V48.0437H73.4307V45.2059Z" fill="black"/>
<path d="M84.782 45.2059H81.9442V48.0437H84.782V45.2059Z" fill="black"/>
<path d="M87.6199 45.2059H84.782V48.0437H87.6199V45.2059Z" fill="black"/>
<path d="M93.2955 45.2059H90.4577V48.0437H93.2955V45.2059Z" fill="black"/>
<path d="M96.1334 45.2059L93.2955 45.2059V48.0437H96.1334V45.2059Z" fill="black"/>
<path d="M101.809 45.2059H98.9712V48.0437H101.809V45.2059Z" fill="black"/>
<path d="M110.323 45.2059H107.485V48.0437H110.323V45.2059Z" fill="black"/>
<path d="M19.5118 48.0437H16.6739V50.8815H19.5118V48.0437Z" fill="black"/>
<path d="M25.1874 48.0437H22.3496V50.8815H25.1874V48.0437Z" fill="black"/>
<path d="M28.0253 48.0437H25.1874V50.8815H28.0253V48.0437Z" fill="black"/>
<path d="M30.8631 48.0437H28.0253V50.8815H30.8631V48.0437Z" fill="black"/>
<path d="M39.3766 48.0437H36.5388V50.8815H39.3766V48.0437Z" fill="black"/>
<path d="M42.2145 48.0437H39.3766V50.8815H42.2145V48.0437Z" fill="black"/>
<path d="M47.8901 48.0437H45.0523V50.8815H47.8901V48.0437Z" fill="black"/>
<path d="M50.728 48.0437H47.8901V50.8815H50.728V48.0437Z" fill="black"/>
<path d="M53.5658 48.0437H50.728V50.8815H53.5658L53.5658 48.0437Z" fill="black"/>
<path d="M56.4036 48.0437H53.5658L53.5658 50.8815H56.4036V48.0437Z" fill="black"/>
<path d="M59.2415 48.0437H56.4036V50.8815H59.2415V48.0437Z" fill="black"/>
<path d="M64.9172 48.0437H62.0793V50.8815H64.9172V48.0437Z" fill="black"/>
<path d="M67.755 48.0437H64.9172V50.8815H67.755V48.0437Z" fill="black"/>
<path d="M73.4307 48.0437H70.5928V50.8815H73.4307V48.0437Z" fill="black"/>
<path d="M76.2685 48.0437H73.4307V50.8815H76.2685V48.0437Z" fill="black"/>
<path d="M79.1064 48.0437H76.2685V50.8815H79.1064V48.0437Z" fill="black"/>
<path d="M87.6199 48.0437H84.782V50.8815H87.6199V48.0437Z" fill="black"/>
<path d="M90.4577 48.0437H87.6199V50.8815H90.4577V48.0437Z" fill="black"/>
<path d="M93.2955 48.0437H90.4577V50.8815H93.2955V48.0437Z" fill="black"/>
<path d="M96.1334 48.0437H93.2955V50.8815H96.1334V48.0437Z" fill="black"/>
<path d="M98.9712 48.0437H96.1334V50.8815H98.9712V48.0437Z" fill="black"/>
<path d="M104.647 48.0437H101.809V50.8815H104.647V48.0437Z" fill="black"/>
<path d="M110.323 48.0437H107.485V50.8815H110.323V48.0437Z" fill="black"/>
<path d="M13.8361 50.8815H10.9982V53.7194H13.8361V50.8815Z" fill="black"/>
<path d="M19.5118 50.8815H16.6739V53.7194H19.5118V50.8815Z" fill="black"/>
<path d="M22.3496 50.8815H19.5118V53.7194H22.3496V50.8815Z" fill="black"/>
<path d="M30.8631 50.8815H28.0253V53.7194H30.8631V50.8815Z" fill="black"/>
<path d="M36.5388 50.8815L33.7009 50.8815V53.7194H36.5388V50.8815Z" fill="black"/>
<path d="M45.0523 50.8815H42.2145L42.2145 53.7194H45.0523L45.0523 50.8815Z" fill="black"/>
<path d="M47.8901 50.8815H45.0523L45.0523 53.7194H47.8901V50.8815Z" fill="black"/>
<path d="M56.4036 50.8815H53.5658L53.5658 53.7194H56.4036V50.8815Z" fill="black"/>
<path d="M64.9172 50.8815H62.0793V53.7194H64.9172V50.8815Z" fill="black"/>
<path d="M67.755 50.8815H64.9172V53.7194H67.755V50.8815Z" fill="black"/>
<path d="M79.1064 50.8815H76.2685V53.7194H79.1064V50.8815Z" fill="black"/>
<path d="M87.6199 50.8815H84.782V53.7194H87.6199V50.8815Z" fill="black"/>
<path d="M93.2955 50.8815H90.4577V53.7194H93.2955V50.8815Z" fill="black"/>
<path d="M96.1334 50.8815H93.2955V53.7194H96.1334V50.8815Z" fill="black"/>
<path d="M101.809 50.8815H98.9712V53.7194H101.809V50.8815Z" fill="black"/>
<path d="M104.647 50.8815H101.809V53.7194H104.647V50.8815Z" fill="black"/>
<path d="M107.485 50.8815H104.647V53.7194H107.485V50.8815Z" fill="black"/>
<path d="M110.323 50.8815H107.485V53.7194H110.323V50.8815Z" fill="black"/>
<path d="M16.6739 53.7194H13.8361V56.5572H16.6739V53.7194Z" fill="black"/>
<path d="M19.5118 53.7194H16.6739V56.5572H19.5118V53.7194Z" fill="black"/>
<path d="M22.3496 53.7194H19.5118V56.5572H22.3496V53.7194Z" fill="black"/>
<path d="M28.0253 53.7194L25.1874 53.7194V56.5572H28.0253V53.7194Z" fill="black"/>
<path d="M39.3766 53.7194L36.5388 53.7194V56.5572H39.3766V53.7194Z" fill="black"/>
<path d="M42.2145 53.7194L39.3766 53.7194V56.5572H42.2145L42.2145 53.7194Z" fill="black"/>
<path d="M45.0523 53.7194H42.2145L42.2145 56.5572H45.0523V53.7194Z" fill="black"/>
<path d="M47.8901 53.7194H45.0523V56.5572H47.8901V53.7194Z" fill="black"/>
<path d="M50.728 53.7194L47.8901 53.7194V56.5572H50.728V53.7194Z" fill="black"/>
<path d="M53.5658 53.7194L50.728 53.7194V56.5572H53.5658L53.5658 53.7194Z" fill="black"/>
<path d="M64.9172 53.7194H62.0793V56.5572H64.9172V53.7194Z" fill="black"/>
<path d="M67.755 53.7194H64.9172V56.5572H67.755V53.7194Z" fill="black"/>
<path d="M70.5928 53.7194L67.755 53.7194V56.5572H70.5928V53.7194Z" fill="black"/>
<path d="M73.4307 53.7194H70.5928V56.5572H73.4307V53.7194Z" fill="black"/>
<path d="M79.1064 53.7194H76.2685V56.5572H79.1064V53.7194Z" fill="black"/>
<path d="M96.1334 53.7194H93.2955V56.5572H96.1334V53.7194Z" fill="black"/>
<path d="M98.9712 53.7194H96.1334V56.5572H98.9712V53.7194Z" fill="black"/>
<path d="M101.809 53.7194H98.9712V56.5572H101.809V53.7194Z" fill="black"/>
<path d="M104.647 53.7194H101.809V56.5572H104.647V53.7194Z" fill="black"/>
<path d="M10.9982 56.5572H8.1604V59.3951H10.9982V56.5572Z" fill="black"/>
<path d="M19.5118 56.5572H16.6739V59.3951H19.5118V56.5572Z" fill="black"/>
<path d="M25.1874 56.5572H22.3496V59.3951H25.1874V56.5572Z" fill="black"/>
<path d="M45.0523 56.5572H42.2145L42.2145 59.3951H45.0523V56.5572Z" fill="black"/>
<path d="M47.8901 56.5572H45.0523V59.3951H47.8901V56.5572Z" fill="black"/>
<path d="M56.4036 56.5572L53.5658 56.5572L53.5658 59.3951H56.4036V56.5572Z" fill="black"/>
<path d="M64.9172 56.5572H62.0793V59.3951H64.9172V56.5572Z" fill="black"/>
<path d="M67.755 56.5572H64.9172V59.3951H67.755V56.5572Z" fill="black"/>
<path d="M70.5928 56.5572H67.755V59.3951H70.5928V56.5572Z" fill="black"/>
<path d="M76.2685 56.5572H73.4307V59.3951H76.2685V56.5572Z" fill="black"/>
<path d="M81.9442 56.5572L79.1064 56.5572V59.3951H81.9442V56.5572Z" fill="black"/>
<path d="M84.782 56.5572H81.9442V59.3951H84.782V56.5572Z" fill="black"/>
<path d="M98.9712 56.5572H96.1334V59.3951H98.9712V56.5572Z" fill="black"/>
<path d="M107.485 56.5572L104.647 56.5572V59.3951H107.485V56.5572Z" fill="black"/>
<path d="M113.16 56.5572H110.323V59.3951H113.16V56.5572Z" fill="black"/>
<path d="M13.8361 59.395L10.9982 59.3951V62.2329H13.8361V59.395Z" fill="black"/>
<path d="M25.1874 59.3951H22.3496V62.2329H25.1874V59.3951Z" fill="black"/>
<path d="M28.0253 59.395L25.1874 59.3951V62.2329H28.0253V59.395Z" fill="black"/>
<path d="M33.7009 59.395H30.8631V62.2329H33.7009V59.395Z" fill="black"/>
<path d="M36.5388 59.395H33.7009V62.2329H36.5388V59.395Z" fill="black"/>
<path d="M39.3766 59.395H36.5388V62.2329H39.3766V59.395Z" fill="black"/>
<path d="M42.2145 59.3951L39.3766 59.395V62.2329H42.2145L42.2145 59.3951Z" fill="black"/>
<path d="M59.2415 59.395L56.4036 59.3951L56.4036 62.2329H59.2415V59.395Z" fill="black"/>
<path d="M62.0793 59.3951L59.2415 59.395V62.2329H62.0793V59.3951Z" fill="black"/>
<path d="M64.9172 59.3951H62.0793V62.2329H64.9172V59.3951Z" fill="black"/>
<path d="M67.755 59.3951H64.9172V62.2329H67.755V59.3951Z" fill="black"/>
<path d="M70.5928 59.3951H67.755V62.2329H70.5928V59.3951Z" fill="black"/>
<path d="M73.4307 59.3951H70.5928V62.2329H73.4307V59.3951Z" fill="black"/>
<path d="M84.782 59.3951H81.9442V62.2329H84.782V59.3951Z" fill="black"/>
<path d="M90.4577 59.395H87.6199V62.2329H90.4577V59.395Z" fill="black"/>
<path d="M96.1334 59.3951L93.2955 59.395V62.2329H96.1334V59.3951Z" fill="black"/>
<path d="M98.9712 59.3951H96.1334V62.2329H98.9712V59.3951Z" fill="black"/>
<path d="M107.485 59.3951H104.647V62.2329H107.485V59.3951Z" fill="black"/>
<path d="M110.323 59.3951H107.485V62.2329H110.323V59.3951Z" fill="black"/>
<path d="M16.6739 62.2329H13.8361V65.0707H16.6739V62.2329Z" fill="black"/>
<path d="M22.3496 62.2329H19.5118V65.0707H22.3496V62.2329Z" fill="black"/>
<path d="M25.1874 62.2329H22.3496V65.0707H25.1874V62.2329Z" fill="black"/>
<path d="M33.7009 62.2329H30.8631V65.0707H33.7009V62.2329Z" fill="black"/>
<path d="M39.3766 62.2329H36.5388V65.0707H39.3766V62.2329Z" fill="black"/>
<path d="M45.0523 62.2329H42.2145L42.2145 65.0707H45.0523V62.2329Z" fill="black"/>
<path d="M47.8901 62.2329H45.0523V65.0707H47.8901V62.2329Z" fill="black"/>
<path d="M50.728 62.2329H47.8901V65.0707H50.728V62.2329Z" fill="black"/>
<path d="M53.5658 62.2329H50.728V65.0707H53.5658V62.2329Z" fill="black"/>
<path d="M56.4036 62.2329H53.5658V65.0707H56.4036L56.4036 62.2329Z" fill="black"/>
<path d="M59.2415 62.2329H56.4036L56.4036 65.0707H59.2415V62.2329Z" fill="black"/>
<path d="M67.755 62.2329H64.9172V65.0707H67.755V62.2329Z" fill="black"/>
<path d="M70.5928 62.2329H67.755V65.0707H70.5928V62.2329Z" fill="black"/>
<path d="M76.2685 62.2329H73.4307V65.0707H76.2685V62.2329Z" fill="black"/>
<path d="M79.1064 62.2329H76.2685V65.0707H79.1064V62.2329Z" fill="black"/>
<path d="M87.6199 62.2329H84.782V65.0707H87.6199V62.2329Z" fill="black"/>
<path d="M90.4577 62.2329H87.6199V65.0707H90.4577V62.2329Z" fill="black"/>
<path d="M110.323 62.2329H107.485V65.0707H110.323V62.2329Z" fill="black"/>
<path d="M25.1874 65.0707H22.3496V67.9086H25.1874V65.0707Z" fill="black"/>
<path d="M28.0253 65.0707H25.1874V67.9086H28.0253V65.0707Z" fill="black"/>
<path d="M36.5388 65.0707H33.7009V67.9086H36.5388V65.0707Z" fill="black"/>
<path d="M39.3766 65.0707H36.5388V67.9086H39.3766V65.0707Z" fill="black"/>
<path d="M42.2145 65.0707H39.3766V67.9086H42.2145L42.2145 65.0707Z" fill="black"/>
<path d="M50.728 65.0707H47.8901V67.9086H50.728V65.0707Z" fill="black"/>
<path d="M53.5658 65.0707H50.728V67.9086H53.5658V65.0707Z" fill="black"/>
<path d="M62.0793 65.0707H59.2415L59.2415 67.9086H62.0793V65.0707Z" fill="black"/>
<path d="M64.9172 65.0707H62.0793V67.9086H64.9172V65.0707Z" fill="black"/>
<path d="M67.755 65.0707H64.9172V67.9086H67.755V65.0707Z" fill="black"/>
<path d="M87.6199 65.0707H84.782V67.9086H87.6199V65.0707Z" fill="black"/>
<path d="M93.2955 65.0707H90.4577V67.9086H93.2955V65.0707Z" fill="black"/>
<path d="M96.1334 65.0707H93.2955V67.9086H96.1334V65.0707Z" fill="black"/>
<path d="M98.9712 65.0707H96.1334V67.9086H98.9712V65.0707Z" fill="black"/>
<path d="M101.809 65.0707H98.9712V67.9086H101.809V65.0707Z" fill="black"/>
<path d="M36.5388 67.9086H33.7009V70.7464H36.5388V67.9086Z" fill="black"/>
<path d="M39.3766 67.9086H36.5388V70.7464H39.3766V67.9086Z" fill="black"/>
<path d="M47.8901 67.9086H45.0523V70.7464H47.8901V67.9086Z" fill="black"/>
<path d="M50.728 67.9086H47.8901V70.7464H50.728V67.9086Z" fill="black"/>
<path d="M62.0793 67.9086H59.2415V70.7464H62.0793V67.9086Z" fill="black"/>
<path d="M67.755 67.9086H64.9172V70.7464H67.755V67.9086Z" fill="black"/>
<path d="M70.5928 67.9086H67.755V70.7464H70.5928V67.9086Z" fill="black"/>
<path d="M79.1064 67.9086H76.2685V70.7464H79.1064V67.9086Z" fill="black"/>
<path d="M87.6199 67.9086H84.782V70.7464H87.6199V67.9086Z" fill="black"/>
<path d="M90.4577 67.9086H87.6199V70.7464H90.4577V67.9086Z" fill="black"/>
<path d="M93.2955 67.9086H90.4577V70.7464H93.2955V67.9086Z" fill="black"/>
<path d="M98.9712 67.9086H96.1334V70.7464H98.9712V67.9086Z" fill="black"/>
<path d="M104.647 67.9086H101.809V70.7464H104.647V67.9086Z" fill="black"/>
<path d="M107.485 67.9086H104.647V70.7464H107.485V67.9086Z" fill="black"/>
<path d="M19.5118 70.7464H16.6739V73.5842H19.5118V70.7464Z" fill="black"/>
<path d="M25.1874 70.7464H22.3496V73.5842H25.1874V70.7464Z" fill="black"/>
<path d="M28.0253 70.7464H25.1874V73.5842H28.0253V70.7464Z" fill="black"/>
<path d="M30.8631 70.7464H28.0253V73.5842H30.8631V70.7464Z" fill="black"/>
<path d="M33.7009 70.7464H30.8631V73.5842H33.7009V70.7464Z" fill="black"/>
<path d="M36.5388 70.7464H33.7009V73.5842H36.5388V70.7464Z" fill="black"/>
<path d="M45.0523 70.7464H42.2145V73.5842H45.0523L45.0523 70.7464Z" fill="black"/>
<path d="M56.4036 70.7464H53.5658V73.5842H56.4036V70.7464Z" fill="black"/>
<path d="M59.2415 70.7464H56.4036V73.5842H59.2415L59.2415 70.7464Z" fill="black"/>
<path d="M64.9172 70.7464H62.0793V73.5842H64.9172V70.7464Z" fill="black"/>
<path d="M81.9442 70.7464H79.1064V73.5842H81.9442V70.7464Z" fill="black"/>
<path d="M90.4577 70.7464H87.6199V73.5842H90.4577V70.7464Z" fill="black"/>
<path d="M93.2955 70.7464H90.4577V73.5842H93.2955V70.7464Z" fill="black"/>
<path d="M96.1334 70.7464H93.2955V73.5842H96.1334V70.7464Z" fill="black"/>
<path d="M110.323 70.7464H107.485V73.5842H110.323V70.7464Z" fill="black"/>
<path d="M113.16 70.7464H110.323V73.5842H113.16V70.7464Z" fill="black"/>
<path d="M16.6739 73.5842H13.8361V76.4221H16.6739V73.5842Z" fill="black"/>
<path d="M19.5118 73.5842H16.6739V76.4221H19.5118V73.5842Z" fill="black"/>
<path d="M30.8631 73.5842H28.0253V76.4221H30.8631V73.5842Z" fill="black"/>
<path d="M39.3766 73.5842H36.5388V76.4221H39.3766V73.5842Z" fill="black"/>
<path d="M53.5658 73.5842H50.728V76.4221H53.5658L53.5658 73.5842Z" fill="black"/>
<path d="M62.0793 73.5842H59.2415L59.2415 76.4221H62.0793V73.5842Z" fill="black"/>
<path d="M67.755 73.5842H64.9172V76.4221H67.755V73.5842Z" fill="black"/>
<path d="M70.5928 73.5842H67.755V76.4221H70.5928V73.5842Z" fill="black"/>
<path d="M73.4307 73.5842H70.5928V76.4221H73.4307V73.5842Z" fill="black"/>
<path d="M79.1064 73.5842H76.2685V76.4221H79.1064V73.5842Z" fill="black"/>
<path d="M81.9442 73.5842H79.1064V76.4221H81.9442V73.5842Z" fill="black"/>
<path d="M90.4577 73.5842H87.6199V76.4221H90.4577V73.5842Z" fill="black"/>
<path d="M93.2955 73.5842H90.4577V76.4221H93.2955V73.5842Z" fill="black"/>
<path d="M101.809 73.5842H98.9712V76.4221H101.809V73.5842Z" fill="black"/>
<path d="M110.323 73.5842H107.485V76.4221H110.323V73.5842Z" fill="black"/>
<path d="M113.16 73.5842H110.323V76.4221H113.16V73.5842Z" fill="black"/>
<path d="M16.6739 76.4221H13.8361V79.2599H16.6739V76.4221Z" fill="black"/>
<path d="M19.5118 76.4221H16.6739V79.2599H19.5118V76.4221Z" fill="black"/>
<path d="M22.3496 76.4221H19.5118V79.2599H22.3496V76.4221Z" fill="black"/>
<path d="M25.1874 76.4221H22.3496V79.2599H25.1874V76.4221Z" fill="black"/>
<path d="M28.0253 76.4221H25.1874V79.2599H28.0253V76.4221Z" fill="black"/>
<path d="M33.7009 76.4221H30.8631V79.2599H33.7009V76.4221Z" fill="black"/>
<path d="M36.5388 76.4221H33.7009V79.2599H36.5388V76.4221Z" fill="black"/>
<path d="M39.3766 76.4221H36.5388V79.2599H39.3766V76.4221Z" fill="black"/>
<path d="M50.728 76.4221H47.8901V79.2599H50.728L50.728 76.4221Z" fill="black"/>
<path d="M59.2415 76.4221H56.4036V79.2599H59.2415L59.2415 76.4221Z" fill="black"/>
<path d="M62.0793 76.4221H59.2415L59.2415 79.2599H62.0793V76.4221Z" fill="black"/>
<path d="M64.9172 76.4221H62.0793V79.2599H64.9172V76.4221Z" fill="black"/>
<path d="M70.5928 76.4221H67.755V79.2599H70.5928V76.4221Z" fill="black"/>
<path d="M73.4307 76.4221H70.5928V79.2599H73.4307V76.4221Z" fill="black"/>
<path d="M76.2685 76.4221H73.4307V79.2599H76.2685V76.4221Z" fill="black"/>
<path d="M84.782 76.4221H81.9442V79.2599H84.782V76.4221Z" fill="black"/>
<path d="M87.6199 76.4221H84.782V79.2599H87.6199V76.4221Z" fill="black"/>
<path d="M93.2955 76.4221H90.4577V79.2599H93.2955V76.4221Z" fill="black"/>
<path d="M98.9712 76.4221H96.1334V79.2599H98.9712V76.4221Z" fill="black"/>
<path d="M110.323 76.4221H107.485V79.2599H110.323V76.4221Z" fill="black"/>
<path d="M113.16 76.4221H110.323V79.2599H113.16V76.4221Z" fill="black"/>
<path d="M16.6739 79.2599H13.8361V82.0977H16.6739V79.2599Z" fill="black"/>
<path d="M19.5118 79.2599H16.6739V82.0977H19.5118V79.2599Z" fill="black"/>
<path d="M22.3496 79.2599H19.5118V82.0977H22.3496V79.2599Z" fill="black"/>
<path d="M25.1874 79.2599H22.3496V82.0977H25.1874V79.2599Z" fill="black"/>
<path d="M39.3766 79.2599H36.5388V82.0977H39.3766V79.2599Z" fill="black"/>
<path d="M42.2145 79.2599H39.3766V82.0977H42.2145V79.2599Z" fill="black"/>
<path d="M45.0523 79.2599H42.2145V82.0977H45.0523V79.2599Z" fill="black"/>
<path d="M47.8901 79.2599H45.0523V82.0977H47.8901V79.2599Z" fill="black"/>
<path d="M50.728 79.2599H47.8901V82.0977H50.728V79.2599Z" fill="black"/>
<path d="M56.4036 79.2599H53.5658V82.0977H56.4036L56.4036 79.2599Z" fill="black"/>
<path d="M59.2415 79.2599H56.4036L56.4036 82.0977H59.2415V79.2599Z" fill="black"/>
<path d="M73.4307 79.2599H70.5928V82.0977H73.4307V79.2599Z" fill="black"/>
<path d="M76.2685 79.2599H73.4307V82.0977H76.2685V79.2599Z" fill="black"/>
<path d="M79.1064 79.2599H76.2685V82.0977H79.1064V79.2599Z" fill="black"/>
<path d="M81.9442 79.2599H79.1064V82.0977H81.9442V79.2599Z" fill="black"/>
<path d="M90.4577 79.2599H87.6199V82.0977H90.4577V79.2599Z" fill="black"/>
<path d="M96.1334 79.2599H93.2955V82.0977H96.1334V79.2599Z" fill="black"/>
<path d="M101.809 79.2599H98.9712V82.0977H101.809V79.2599Z" fill="black"/>
<path d="M107.485 79.2599H104.647V82.0977H107.485V79.2599Z" fill="black"/>
<path d="M110.323 79.2599H107.485V82.0977H110.323V79.2599Z" fill="black"/>
<path d="M113.16 79.2599H110.323V82.0977H113.16V79.2599Z" fill="black"/>
<path d="M16.6739 82.0977H13.8361V84.9356H16.6739V82.0977Z" fill="black"/>
<path d="M19.5118 82.0977H16.6739V84.9356H19.5118V82.0977Z" fill="black"/>
<path d="M25.1874 82.0977H22.3496V84.9356H25.1874V82.0977Z" fill="black"/>
<path d="M28.0253 82.0977H25.1874V84.9356H28.0253V82.0977Z" fill="black"/>
<path d="M30.8631 82.0977H28.0253V84.9356H30.8631V82.0977Z" fill="black"/>
<path d="M33.7009 82.0977H30.8631V84.9356H33.7009V82.0977Z" fill="black"/>
<path d="M39.3766 82.0977H36.5388V84.9356H39.3766V82.0977Z" fill="black"/>
<path d="M42.2145 82.0977H39.3766V84.9356H42.2145V82.0977Z" fill="black"/>
<path d="M45.0523 82.0977H42.2145V84.9356H45.0523V82.0977Z" fill="black"/>
<path d="M53.5658 82.0977H50.728L50.728 84.9356H53.5658L53.5658 82.0977Z" fill="black"/>
<path d="M62.0793 82.0977H59.2415L59.2415 84.9356H62.0793V82.0977Z" fill="black"/>
<path d="M64.9172 82.0977H62.0793V84.9356H64.9172V82.0977Z" fill="black"/>
<path d="M73.4307 82.0977H70.5928V84.9356H73.4307V82.0977Z" fill="black"/>
<path d="M76.2685 82.0977H73.4307V84.9356H76.2685V82.0977Z" fill="black"/>
<path d="M79.1064 82.0977H76.2685V84.9356H79.1064V82.0977Z" fill="black"/>
<path d="M81.9442 82.0977H79.1064V84.9356H81.9442V82.0977Z" fill="black"/>
<path d="M84.782 82.0977H81.9442V84.9356H84.782V82.0977Z" fill="black"/>
<path d="M107.485 82.0977H104.647V84.9356H107.485V82.0977Z" fill="black"/>
<path d="M110.323 82.0977H107.485V84.9356H110.323V82.0977Z" fill="black"/>
<path d="M113.16 82.0977H110.323V84.9356H113.16V82.0977Z" fill="black"/>
<path d="M16.6739 84.9356H13.8361V87.7734H16.6739V84.9356Z" fill="black"/>
<path d="M19.5118 84.9356H16.6739V87.7734H19.5118V84.9356Z" fill="black"/>
<path d="M22.3496 84.9356H19.5118V87.7734H22.3496V84.9356Z" fill="black"/>
<path d="M30.8631 84.9356H28.0253V87.7734H30.8631V84.9356Z" fill="black"/>
<path d="M33.7009 84.9356H30.8631V87.7734H33.7009V84.9356Z" fill="black"/>
<path d="M42.2145 84.9356H39.3766V87.7734H42.2145V84.9356Z" fill="black"/>
<path d="M47.8901 84.9356H45.0523L45.0523 87.7734H47.8901V84.9356Z" fill="black"/>
<path d="M53.5658 84.9356H50.728V87.7734H53.5658V84.9356Z" fill="black"/>
<path d="M62.0793 84.9356H59.2415V87.7734H62.0793V84.9356Z" fill="black"/>
<path d="M64.9172 84.9356H62.0793V87.7734H64.9172V84.9356Z" fill="black"/>
<path d="M67.755 84.9356H64.9172V87.7734H67.755V84.9356Z" fill="black"/>
<path d="M79.1064 84.9356H76.2685V87.7734H79.1064V84.9356Z" fill="black"/>
<path d="M81.9442 84.9356H79.1064V87.7734H81.9442V84.9356Z" fill="black"/>
<path d="M98.9712 84.9356H96.1334V87.7734H98.9712V84.9356Z" fill="black"/>
<path d="M104.647 84.9356H101.809V87.7734H104.647V84.9356Z" fill="black"/>
<path d="M107.485 84.9356H104.647V87.7734H107.485V84.9356Z" fill="black"/>
<path d="M10.9982 87.7734H8.1604V90.6113H10.9982V87.7734Z" fill="black"/>
<path d="M13.8361 87.7734H10.9982V90.6113H13.8361V87.7734Z" fill="black"/>
<path d="M16.6739 87.7734H13.8361V90.6113H16.6739V87.7734Z" fill="black"/>
<path d="M19.5118 87.7734H16.6739V90.6113H19.5118V87.7734Z" fill="black"/>
<path d="M22.3496 87.7734H19.5118V90.6113H22.3496V87.7734Z" fill="black"/>
<path d="M25.1874 87.7734H22.3496V90.6113H25.1874V87.7734Z" fill="black"/>
<path d="M28.0253 87.7734H25.1874V90.6113H28.0253V87.7734Z" fill="black"/>
<path d="M33.7009 87.7734H30.8631V90.6113H33.7009V87.7734Z" fill="black"/>
<path d="M36.5388 87.7734H33.7009V90.6113H36.5388V87.7734Z" fill="black"/>
<path d="M39.3766 87.7734H36.5388V90.6113H39.3766V87.7734Z" fill="black"/>
<path d="M47.8901 87.7734H45.0523V90.6113H47.8901V87.7734Z" fill="black"/>
<path d="M50.728 87.7734H47.8901V90.6113H50.728L50.728 87.7734Z" fill="black"/>
<path d="M53.5658 87.7734H50.728L50.728 90.6113H53.5658V87.7734Z" fill="black"/>
<path d="M56.4036 87.7734H53.5658V90.6113H56.4036V87.7734Z" fill="black"/>
<path d="M62.0793 87.7734H59.2415V90.6113H62.0793V87.7734Z" fill="black"/>
<path d="M67.755 87.7734H64.9172V90.6113H67.755V87.7734Z" fill="black"/>
<path d="M70.5928 87.7734H67.755V90.6113H70.5928V87.7734Z" fill="black"/>
<path d="M73.4307 87.7734H70.5928V90.6113H73.4307V87.7734Z" fill="black"/>
<path d="M76.2685 87.7734H73.4307V90.6113H76.2685V87.7734Z" fill="black"/>
<path d="M81.9442 87.7734H79.1064V90.6113H81.9442V87.7734Z" fill="black"/>
<path d="M90.4577 87.7734H87.6199V90.6113H90.4577V87.7734Z" fill="black"/>
<path d="M93.2955 87.7734H90.4577V90.6113H93.2955V87.7734Z" fill="black"/>
<path d="M96.1334 87.7734H93.2955V90.6113H96.1334V87.7734Z" fill="black"/>
<path d="M98.9712 87.7734H96.1334V90.6113H98.9712V87.7734Z" fill="black"/>
<path d="M101.809 87.7734H98.9712V90.6113H101.809V87.7734Z" fill="black"/>
<path d="M104.647 87.7734H101.809V90.6113H104.647V87.7734Z" fill="black"/>
<path d="M107.485 87.7734H104.647V90.6113H107.485V87.7734Z" fill="black"/>
<path d="M39.3766 90.6113H36.5388V93.4491H39.3766V90.6113Z" fill="black"/>
<path d="M42.2145 90.6113H39.3766V93.4491H42.2145V90.6113Z" fill="black"/>
<path d="M45.0523 90.6113H42.2145V93.4491H45.0523L45.0523 90.6113Z" fill="black"/>
<path d="M50.728 90.6113H47.8901V93.4491H50.728V90.6113Z" fill="black"/>
<path d="M64.9172 90.6113H62.0793V93.4491H64.9172V90.6113Z" fill="black"/>
<path d="M67.755 90.6113H64.9172V93.4491H67.755V90.6113Z" fill="black"/>
<path d="M70.5928 90.6113H67.755V93.4491H70.5928V90.6113Z" fill="black"/>
<path d="M73.4307 90.6113H70.5928V93.4491H73.4307V90.6113Z" fill="black"/>
<path d="M79.1064 90.6113H76.2685V93.4491H79.1064V90.6113Z" fill="black"/>
<path d="M81.9442 90.6113H79.1064V93.4491H81.9442V90.6113Z" fill="black"/>
<path d="M90.4577 90.6113H87.6199V93.4491H90.4577V90.6113Z" fill="black"/>
<path d="M101.809 90.6113H98.9712V93.4491H101.809V90.6113Z" fill="black"/>
<path d="M107.485 90.6113H104.647V93.4491H107.485V90.6113Z" fill="black"/>
<path d="M113.16 90.6113H110.323V93.4491H113.16V90.6113Z" fill="black"/>
<path d="M10.9982 93.4491H8.1604V96.2869H10.9982V93.4491Z" fill="black"/>
<path d="M13.8361 93.4491H10.9982V96.2869H13.8361V93.4491Z" fill="black"/>
<path d="M16.6739 93.4491H13.8361V96.2869H16.6739V93.4491Z" fill="black"/>
<path d="M19.5118 93.4491H16.6739V96.2869H19.5118V93.4491Z" fill="black"/>
<path d="M22.3496 93.4491H19.5118V96.2869H22.3496V93.4491Z" fill="black"/>
<path d="M25.1874 93.4491H22.3496V96.2869H25.1874V93.4491Z" fill="black"/>
<path d="M28.0253 93.4491H25.1874V96.2869H28.0253V93.4491Z" fill="black"/>
<path d="M33.7009 93.4491H30.8631V96.2869H33.7009V93.4491Z" fill="black"/>
<path d="M45.0523 93.4491H42.2145L42.2145 96.2869H45.0523V93.4491Z" fill="black"/>
<path d="M47.8901 93.4491H45.0523V96.2869H47.8901V93.4491Z" fill="black"/>
<path d="M50.728 93.4491H47.8901V96.2869H50.728V93.4491Z" fill="black"/>
<path d="M53.5658 93.4491H50.728V96.2869H53.5658V93.4491Z" fill="black"/>
<path d="M59.2415 93.4491H56.4036V96.2869H59.2415V93.4491Z" fill="black"/>
<path d="M62.0793 93.4491H59.2415V96.2869H62.0793V93.4491Z" fill="black"/>
<path d="M76.2685 93.4491H73.4307V96.2869H76.2685V93.4491Z" fill="black"/>
<path d="M79.1064 93.4491H76.2685V96.2869H79.1064V93.4491Z" fill="black"/>
<path d="M81.9442 93.4491H79.1064V96.2869H81.9442V93.4491Z" fill="black"/>
<path d="M87.6199 93.4491H84.782V96.2869H87.6199V93.4491Z" fill="black"/>
<path d="M90.4577 93.4491H87.6199V96.2869H90.4577V93.4491Z" fill="black"/>
<path d="M96.1334 93.4491H93.2955V96.2869H96.1334V93.4491Z" fill="black"/>
<path d="M101.809 93.4491H98.9712V96.2869H101.809V93.4491Z" fill="black"/>
<path d="M104.647 93.4491H101.809V96.2869H104.647V93.4491Z" fill="black"/>
<path d="M107.485 93.4491H104.647V96.2869H107.485V93.4491Z" fill="black"/>
<path d="M113.16 93.4491H110.323V96.2869H113.16V93.4491Z" fill="black"/>
<path d="M10.9982 96.2869H8.1604V99.1248H10.9982V96.2869Z" fill="black"/>
<path d="M28.0253 96.2869H25.1874V99.1248H28.0253V96.2869Z" fill="black"/>
<path d="M36.5388 96.2869H33.7009V99.1248H36.5388V96.2869Z" fill="black"/>
<path d="M47.8901 96.2869H45.0523L45.0523 99.1248H47.8901V96.2869Z" fill="black"/>
<path d="M53.5658 96.2869H50.728L50.728 99.1248H53.5658V96.2869Z" fill="black"/>
<path d="M62.0793 96.2869H59.2415L59.2415 99.1248H62.0793V96.2869Z" fill="black"/>
<path d="M67.755 96.2869H64.9172V99.1248H67.755V96.2869Z" fill="black"/>
<path d="M73.4307 96.2869H70.5928V99.1248H73.4307V96.2869Z" fill="black"/>
<path d="M81.9442 96.2869H79.1064V99.1248H81.9442V96.2869Z" fill="black"/>
<path d="M84.782 96.2869H81.9442V99.1248H84.782V96.2869Z" fill="black"/>
<path d="M87.6199 96.2869H84.782V99.1248H87.6199V96.2869Z" fill="black"/>
<path d="M90.4577 96.2869H87.6199V99.1248H90.4577V96.2869Z" fill="black"/>
<path d="M101.809 96.2869H98.9712V99.1248H101.809V96.2869Z" fill="black"/>
<path d="M110.323 96.2869H107.485V99.1248H110.323V96.2869Z" fill="black"/>
<path d="M10.9982 99.1248H8.1604V101.963H10.9982V99.1248Z" fill="black"/>
<path d="M16.6739 99.1248H13.8361V101.963H16.6739V99.1248Z" fill="black"/>
<path d="M19.5118 99.1248H16.6739V101.963H19.5118V99.1248Z" fill="black"/>
<path d="M22.3496 99.1248H19.5118V101.963H22.3496V99.1248Z" fill="black"/>
<path d="M28.0253 99.1248H25.1874V101.963H28.0253V99.1248Z" fill="black"/>
<path d="M39.3766 99.1248H36.5388V101.963H39.3766V99.1248Z" fill="black"/>
<path d="M42.2145 99.1248H39.3766V101.963H42.2145V99.1248Z" fill="black"/>
<path d="M45.0523 99.1248H42.2145V101.963H45.0523L45.0523 99.1248Z" fill="black"/>
<path d="M47.8901 99.1248H45.0523L45.0523 101.963H47.8901V99.1248Z" fill="black"/>
<path d="M50.728 99.1248H47.8901V101.963H50.728L50.728 99.1248Z" fill="black"/>
<path d="M53.5658 99.1248H50.728L50.728 101.963H53.5658V99.1248Z" fill="black"/>
<path d="M64.9172 99.1248H62.0793V101.963H64.9172V99.1248Z" fill="black"/>
<path d="M67.755 99.1248H64.9172V101.963H67.755V99.1248Z" fill="black"/>
<path d="M76.2685 99.1248H73.4307V101.963H76.2685V99.1248Z" fill="black"/>
<path d="M79.1064 99.1248H76.2685V101.963H79.1064V99.1248Z" fill="black"/>
<path d="M81.9442 99.1248H79.1064V101.963H81.9442V99.1248Z" fill="black"/>
<path d="M84.782 99.1248H81.9442V101.963H84.782V99.1248Z" fill="black"/>
<path d="M90.4577 99.1248H87.6199V101.963H90.4577V99.1248Z" fill="black"/>
<path d="M93.2955 99.1248H90.4577V101.963H93.2955V99.1248Z" fill="black"/>
<path d="M96.1334 99.1248H93.2955V101.963H96.1334V99.1248Z" fill="black"/>
<path d="M98.9712 99.1248H96.1334V101.963H98.9712V99.1248Z" fill="black"/>
<path d="M101.809 99.1248H98.9712V101.963H101.809V99.1248Z" fill="black"/>
<path d="M104.647 99.1248H101.809V101.963H104.647V99.1248Z" fill="black"/>
<path d="M107.485 99.1248H104.647V101.963H107.485V99.1248Z" fill="black"/>
<path d="M110.323 99.1248H107.485V101.963H110.323V99.1248Z" fill="black"/>
<path d="M113.16 99.1248H110.323V101.963H113.16V99.1248Z" fill="black"/>
<path d="M10.9982 101.963H8.1604V104.8H10.9982V101.963Z" fill="black"/>
<path d="M16.6739 101.963H13.8361V104.8H16.6739V101.963Z" fill="black"/>
<path d="M19.5118 101.963H16.6739V104.8H19.5118V101.963Z" fill="black"/>
<path d="M22.3496 101.963H19.5118V104.8H22.3496V101.963Z" fill="black"/>
<path d="M28.0253 101.963H25.1874V104.8H28.0253V101.963Z" fill="black"/>
<path d="M33.7009 101.963H30.8631V104.8H33.7009V101.963Z" fill="black"/>
<path d="M36.5388 101.963H33.7009V104.8H36.5388V101.963Z" fill="black"/>
<path d="M39.3766 101.963H36.5388V104.8H39.3766V101.963Z" fill="black"/>
<path d="M42.2145 101.963H39.3766V104.8H42.2145V101.963Z" fill="black"/>
<path d="M47.8901 101.963H45.0523L45.0523 104.8H47.8901V101.963Z" fill="black"/>
<path d="M56.4036 101.963H53.5658L53.5658 104.8H56.4036V101.963Z" fill="black"/>
<path d="M62.0793 101.963H59.2415V104.8H62.0793V101.963Z" fill="black"/>
<path d="M64.9172 101.963H62.0793V104.8H64.9172V101.963Z" fill="black"/>
<path d="M70.5928 101.963H67.755V104.8H70.5928V101.963Z" fill="black"/>
<path d="M76.2685 101.963H73.4307V104.8H76.2685V101.963Z" fill="black"/>
<path d="M81.9442 101.963H79.1064V104.8H81.9442V101.963Z" fill="black"/>
<path d="M84.782 101.963H81.9442V104.8H84.782V101.963Z" fill="black"/>
<path d="M87.6199 101.963H84.782V104.8H87.6199V101.963Z" fill="black"/>
<path d="M90.4577 101.963H87.6199V104.8H90.4577V101.963Z" fill="black"/>
<path d="M101.809 101.963H98.9712V104.8H101.809V101.963Z" fill="black"/>
<path d="M107.485 101.963H104.647V104.8H107.485V101.963Z" fill="black"/>
<path d="M110.323 101.963H107.485V104.8H110.323V101.963Z" fill="black"/>
<path d="M113.16 101.963H110.323V104.8H113.16V101.963Z" fill="black"/>
<path d="M10.9982 104.8H8.1604V107.638H10.9982V104.8Z" fill="black"/>
<path d="M16.6739 104.8H13.8361V107.638H16.6739V104.8Z" fill="black"/>
<path d="M19.5118 104.8H16.6739V107.638H19.5118V104.8Z" fill="black"/>
<path d="M22.3496 104.8H19.5118V107.638H22.3496V104.8Z" fill="black"/>
<path d="M28.0253 104.8H25.1874V107.638H28.0253V104.8Z" fill="black"/>
<path d="M36.5388 104.8H33.7009V107.638H36.5388V104.8Z" fill="black"/>
<path d="M42.2145 104.8H39.3766V107.638H42.2145V104.8Z" fill="black"/>
<path d="M45.0523 104.8H42.2145V107.638H45.0523L45.0523 104.8Z" fill="black"/>
<path d="M50.728 104.8H47.8901V107.638H50.728V104.8Z" fill="black"/>
<path d="M56.4036 104.8H53.5658V107.638H56.4036V104.8Z" fill="black"/>
<path d="M59.2415 104.8H56.4036V107.638H59.2415L59.2415 104.8Z" fill="black"/>
<path d="M76.2685 104.8H73.4307V107.638H76.2685V104.8Z" fill="black"/>
<path d="M79.1064 104.8H76.2685V107.638H79.1064V104.8Z" fill="black"/>
<path d="M84.782 104.8H81.9442V107.638H84.782V104.8Z" fill="black"/>
<path d="M90.4577 104.8H87.6199V107.638H90.4577V104.8Z" fill="black"/>
<path d="M93.2955 104.8H90.4577V107.638H93.2955V104.8Z" fill="black"/>
<path d="M96.1334 104.8H93.2955V107.638H96.1334V104.8Z" fill="black"/>
<path d="M104.647 104.8H101.809V107.638H104.647V104.8Z" fill="black"/>
<path d="M110.323 104.8H107.485V107.638H110.323V104.8Z" fill="black"/>
<path d="M113.16 104.8H110.323V107.638H113.16V104.8Z" fill="black"/>
<path d="M10.9982 107.638H8.1604V110.476H10.9982V107.638Z" fill="black"/>
<path d="M28.0253 107.638H25.1874V110.476H28.0253V107.638Z" fill="black"/>
<path d="M33.7009 107.638H30.8631V110.476H33.7009V107.638Z" fill="black"/>
<path d="M36.5388 107.638H33.7009V110.476H36.5388V107.638Z" fill="black"/>
<path d="M45.0523 107.638H42.2145L42.2145 110.476H45.0523V107.638Z" fill="black"/>
<path d="M50.728 107.638H47.8901V110.476H50.728V107.638Z" fill="black"/>
<path d="M59.2415 107.638H56.4036L56.4036 110.476H59.2415V107.638Z" fill="black"/>
<path d="M62.0793 107.638H59.2415V110.476H62.0793V107.638Z" fill="black"/>
<path d="M64.9172 107.638H62.0793V110.476H64.9172V107.638Z" fill="black"/>
<path d="M70.5928 107.638H67.755V110.476H70.5928V107.638Z" fill="black"/>
<path d="M76.2685 107.638H73.4307V110.476H76.2685V107.638Z" fill="black"/>
<path d="M79.1064 107.638H76.2685V110.476H79.1064V107.638Z" fill="black"/>
<path d="M81.9442 107.638H79.1064V110.476H81.9442V107.638Z" fill="black"/>
<path d="M84.782 107.638H81.9442V110.476H84.782V107.638Z" fill="black"/>
<path d="M93.2955 107.638H90.4577V110.476H93.2955V107.638Z" fill="black"/>
<path d="M96.1334 107.638H93.2955V110.476H96.1334V107.638Z" fill="black"/>
<path d="M98.9712 107.638H96.1334V110.476H98.9712V107.638Z" fill="black"/>
<path d="M101.809 107.638H98.9712V110.476H101.809V107.638Z" fill="black"/>
<path d="M104.647 107.638H101.809V110.476H104.647V107.638Z" fill="black"/>
<path d="M107.485 107.638H104.647V110.476H107.485V107.638Z" fill="black"/>
<path d="M113.16 107.638H110.323V110.476H113.16V107.638Z" fill="black"/>
<path d="M10.9982 110.476H8.1604V113.314H10.9982V110.476Z" fill="black"/>
<path d="M13.8361 110.476H10.9982V113.314H13.8361V110.476Z" fill="black"/>
<path d="M16.6739 110.476H13.8361V113.314H16.6739V110.476Z" fill="black"/>
<path d="M19.5118 110.476H16.6739V113.314H19.5118V110.476Z" fill="black"/>
<path d="M22.3496 110.476H19.5118V113.314H22.3496V110.476Z" fill="black"/>
<path d="M25.1874 110.476H22.3496V113.314H25.1874V110.476Z" fill="black"/>
<path d="M28.0253 110.476H25.1874V113.314H28.0253V110.476Z" fill="black"/>
<path d="M33.7009 110.476H30.8631V113.314H33.7009V110.476Z" fill="black"/>
<path d="M45.0523 110.476H42.2145V113.314H45.0523V110.476Z" fill="black"/>
<path d="M47.8901 110.476H45.0523V113.314H47.8901V110.476Z" fill="black"/>
<path d="M53.5658 110.476H50.728L50.728 113.314H53.5658V110.476Z" fill="black"/>
<path d="M59.2415 110.476H56.4036V113.314H59.2415V110.476Z" fill="black"/>
<path d="M62.0793 110.476H59.2415V113.314H62.0793V110.476Z" fill="black"/>
<path d="M67.755 110.476H64.9172V113.314H67.755V110.476Z" fill="black"/>
<path d="M76.2685 110.476H73.4307V113.314H76.2685V110.476Z" fill="black"/>
<path d="M81.9442 110.476H79.1064V113.314H81.9442V110.476Z" fill="black"/>
<path d="M90.4577 110.476H87.6199V113.314H90.4577V110.476Z" fill="black"/>
<path d="M96.1334 110.476H93.2955V113.314H96.1334V110.476Z" fill="black"/>
<path d="M113.16 110.476H110.323V113.314H113.16V110.476Z" fill="black"/>
</g>
<defs>
<clipPath id="clip0_5618_10479">
<rect width="120" height="120" fill="white" transform="translate(0.6604 0.813965)"/>
</clipPath>
</defs>
</svg>
