<svg width="25" height="25" viewBox="0 0 25 25" fill="none" xmlns="http://www.w3.org/2000/svg">
<path fill-rule="evenodd" clip-rule="evenodd" d="M10.25 16.5908C6.52775 16.5908 3.5 13.5623 3.5 9.84082C3.5 6.11857 6.52775 3.09082 10.25 3.09082C13.9715 3.09082 17 6.11857 17 9.84082C17 13.5623 13.9715 16.5908 10.25 16.5908ZM10.25 1.59082C5.69375 1.59082 2 5.28457 2 9.84082C2 14.3971 5.69375 18.0908 10.25 18.0908C14.8062 18.0908 18.5 14.3971 18.5 9.84082C18.5 5.28457 14.8062 1.59082 10.25 1.59082Z" fill="white"/>
<path fill-rule="evenodd" clip-rule="evenodd" d="M17.6459 16.1763C17.3197 16.5565 16.9657 16.9105 16.5854 17.2368L21.9397 22.591L23.0002 21.5298L17.6459 16.1763Z" fill="white"/>
</svg>
