<svg width="46" height="46" viewBox="0 0 46 46" fill="none" xmlns="http://www.w3.org/2000/svg">
<g clip-path="url(#clip0_325_9392)">
<path d="M38.375 45.7773H7.625C3.68975 45.7773 0.5 42.5876 0.5 38.6523V7.90234C0.5 3.96709 3.68975 0.777344 7.625 0.777344H38.375C42.3102 0.777344 45.5 3.96709 45.5 7.90234V38.6523C45.5 42.5876 42.3102 45.7773 38.375 45.7773Z" fill="#FF41BE"/>
<path d="M33.5475 9.21533H26.2815V11.5591H33.5475C34.452 11.5591 35.1885 12.2948 35.1885 13.2001V14.0596H26.2815V16.4033H35.1877V18.9031H26.2815V21.2468H35.1877V23.7466H26.2815V26.0903H35.1877V36.4028H37.5315V13.2001C37.5315 11.0026 35.7442 9.21533 33.5475 9.21533Z" fill="white"/>
<path d="M6.44399 14.8397L5.18774 13.7852H13.998L6.44399 14.8397Z" fill="white"/>
<path d="M7.87494 12.9939V10.6584H8.88669L10.6387 12.9939H12.4297L10.3124 10.1761C10.9724 9.70287 11.4052 8.93262 11.4052 8.06037C11.4052 6.62787 10.2404 5.46387 8.80794 5.46387H6.44394V12.9939H7.87494ZM7.87494 6.89337H8.80869C9.45144 6.89337 9.97644 7.41612 9.97644 8.05962C9.97644 8.70537 9.45069 9.22737 8.80869 9.22737H7.87494V6.89337Z" fill="white"/>
<path d="M23.2342 28.4346C22.1542 28.4346 21.1642 28.8193 20.3932 29.4591L18.7777 10.0753C18.7372 9.58932 18.3307 9.21582 17.8432 9.21582C17.3557 9.21582 16.9492 9.58932 16.9087 10.0753L15.2932 29.4591C14.5222 28.8193 13.5322 28.4346 12.4522 28.4346C9.99294 28.4346 7.99869 30.4281 7.99869 32.8881C7.99869 34.4773 8.83344 35.8678 10.0859 36.6561C9.91044 36.9913 9.66444 37.2853 9.34344 37.5051L8.56944 38.0346L9.62769 39.5818L10.4017 39.0523C11.0519 38.6076 11.5424 37.9978 11.8567 37.2966C12.0517 37.3228 12.2497 37.3408 12.4514 37.3408C14.9107 37.3408 16.9049 35.3473 16.9049 32.8873C16.9049 32.8393 16.8989 32.7928 16.8974 32.7448C16.8982 32.7396 16.9012 32.7358 16.9012 32.7306L17.8417 21.4416L18.7822 32.7306C18.7829 32.7358 18.7859 32.7396 18.7859 32.7448C18.7844 32.7928 18.7784 32.8393 18.7784 32.8873C18.7784 35.3466 20.7719 37.3408 23.2319 37.3408C25.6919 37.3408 27.6854 35.3473 27.6854 32.8873C27.6877 30.4281 25.6942 28.4346 23.2342 28.4346ZM12.4537 34.9971C11.2889 34.9971 10.3447 34.0528 10.3447 32.8881C10.3447 31.7233 11.2889 30.7791 12.4537 30.7791C13.6184 30.7791 14.5627 31.7233 14.5627 32.8881C14.5627 34.0528 13.6184 34.9971 12.4537 34.9971ZM23.2342 34.9971C22.0694 34.9971 21.1252 34.0528 21.1252 32.8881C21.1252 31.7233 22.0694 30.7791 23.2342 30.7791C24.3989 30.7791 25.3432 31.7233 25.3432 32.8881C25.3439 34.0528 24.3997 34.9971 23.2342 34.9971Z" fill="white"/>
</g>
<defs>
<clipPath id="clip0_325_9392">
<rect width="45" height="45" fill="white" transform="translate(0.5 0.777344)"/>
</clipPath>
</defs>
</svg>
