<svg fill="none" height="53" viewBox="0 0 52 53" width="52" xmlns="http://www.w3.org/2000/svg" xmlns:xlink="http://www.w3.org/1999/xlink"><clipPath id="a"><path d="m0 .951172h52v52h-52z"/></clipPath><g clip-path="url(#a)"><path d="m26 52.9512c14.3594 0 26-11.6406 26-26s-11.6406-26.000028-26-26.000028-26 11.640628-26 26.000028 11.6406 26 26 26z" fill="#ffcf31"/><path d="m26 49.3113c12.3491 0 22.36-10.0109 22.36-22.36s-10.0109-22.35999-22.36-22.35999-22.35999 10.01089-22.35999 22.35999 10.01089 22.36 22.35999 22.36z" fill="#ffb92f"/><path d="m26 47.7514c11.4875 0 20.8-9.3125 20.8-20.8 0-11.4876-9.3125-20.80003-20.8-20.80003s-20.79999 9.31243-20.79999 20.80003c0 11.4875 9.31249 20.8 20.79999 20.8z" fill="#ffe569"/><path d="m3.64 26.9512c0-12.35 10.01-22.36003 22.36-22.36003 3.4892 0 6.7912.8008 9.7344 2.2256l2.704-2.704c-3.692-2.0176-7.93-3.161598-12.4384-3.161598-14.3572 0-26 11.642828-26 26.000028 0 4.5032 1.144 8.7412 3.1616 12.4384l2.704-2.704c-1.4248-2.9432-2.2256-6.2452-2.2256-9.7344z" fill="#ffde55"/><path d="m26 6.15137c-11.4868 0-20.79999 9.31323-20.79999 20.80003 0 3.0524.6552 5.9488 1.8408 8.5592l27.51839-27.51843c-2.6104-1.1804-5.512-1.8408-8.5592-1.8408z" fill="#fff7d2"/><path d="m18.07 40.4087v-26h8.6736c2.0436 0 3.8584.3432 5.3872 1.0192 1.5392.6812 2.7508 1.69 3.5984 2.9952.8476 1.3 1.2792 2.8964 1.2792 4.7372s-.4316 3.432-1.2792 4.7216-2.0592 2.2984-3.5984 2.99c-1.5288.6864-3.3384 1.04-5.3872 1.04h-3.3436v8.502h-5.33zm8.4188-13.2444c1.4976 0 2.7456-.3172 3.7128-.9412.9464-.6136 1.404-1.612 1.404-3.068s-.4576-2.4544-1.404-3.068c-.9672-.624-2.2152-.9412-3.7128-.9412h-3.0836v8.0132h3.0836z" fill="#ffaa28"/><path d="m28.0852 14.4661c-.4368-.0364-.884-.052-1.3416-.052h-8.6736v10.0724l10.0204-10.0204z" fill="#ffc832"/></g></svg>