<svg width="20" height="21" viewBox="0 0 20 21" fill="none" xmlns="http://www.w3.org/2000/svg">
<path d="M13.125 17.2969H3.125V7.29688H8.125V6.04688H3.125C2.79348 6.04688 2.47554 6.17857 2.24112 6.41299C2.0067 6.64741 1.875 6.96535 1.875 7.29688V17.2969C1.875 17.6284 2.0067 17.9463 2.24112 18.1808C2.47554 18.4152 2.79348 18.5469 3.125 18.5469H13.125C13.4565 18.5469 13.7745 18.4152 14.0089 18.1808C14.2433 17.9463 14.375 17.6284 14.375 17.2969V12.2969H13.125V17.2969Z" fill="#BF0000"/>
<path d="M16.875 2.29688H10.625V3.54688H15.9913L8.125 11.4131L9.00937 12.2969L16.875 4.43062V9.79688H18.125V3.54688V2.29688H16.875Z" fill="#BF0000"/>
</svg>
