<svg width="188" height="189" viewBox="0 0 188 189" fill="none" xmlns="http://www.w3.org/2000/svg">
<g clip-path="url(#clip0_6385_26134)">
<rect x="16" y="16.3662" width="156" height="156" fill="white"/>
<g clip-path="url(#clip1_6385_26134)">
<path d="M172 16.3662H16V172.366H172V16.3662Z" fill="white"/>
<mask id="mask0_6385_26134" style="mask-type:luminance" maskUnits="userSpaceOnUse" x="23" y="23" width="142" height="142">
<path d="M26.92 51.3101H23.488V54.7421H26.92V51.3101Z" fill="white"/>
<path d="M26.92 58.1743H23.488V61.6063H26.92V58.1743Z" fill="white"/>
<path d="M26.92 75.334H23.488V78.766H26.92V75.334Z" fill="white"/>
<path d="M26.92 82.1982H23.488V85.6302H26.92V82.1982Z" fill="white"/>
<path d="M26.92 92.4941H23.488V95.9261H26.92V92.4941Z" fill="white"/>
<path d="M26.92 102.79H23.488V106.222H26.92V102.79Z" fill="white"/>
<path d="M26.92 119.95H23.488V123.382H26.92V119.95Z" fill="white"/>
<path d="M26.92 123.382H23.488V126.814H26.92V123.382Z" fill="white"/>
<path d="M26.92 126.814H23.488V130.246H26.92V126.814Z" fill="white"/>
<path d="M26.92 130.246H23.488V133.678H26.92V130.246Z" fill="white"/>
<path d="M26.92 133.678H23.488V137.11H26.92V133.678Z" fill="white"/>
<path d="M30.3519 54.7422H26.9199V58.1742H30.3519V54.7422Z" fill="white"/>
<path d="M30.3519 58.1743H26.9199V61.6063H30.3519V58.1743Z" fill="white"/>
<path d="M30.3519 68.4702H26.9199V71.9022H30.3519V68.4702Z" fill="white"/>
<path d="M30.3519 78.7661H26.9199V82.1981H30.3519V78.7661Z" fill="white"/>
<path d="M30.3519 82.1982H26.9199V85.6302H30.3519V82.1982Z" fill="white"/>
<path d="M30.3519 92.4941H26.9199V95.9261H30.3519V92.4941Z" fill="white"/>
<path d="M30.3519 95.9263H26.9199V99.3583H30.3519V95.9263Z" fill="white"/>
<path d="M30.3519 116.518H26.9199V119.95H30.3519V116.518Z" fill="white"/>
<path d="M30.3519 123.382H26.9199V126.814H30.3519V123.382Z" fill="white"/>
<path d="M33.7841 54.7422H30.3521V58.1742H33.7841V54.7422Z" fill="white"/>
<path d="M33.7841 58.1743H30.3521V61.6063H33.7841V58.1743Z" fill="white"/>
<path d="M33.7841 82.1982H30.3521V85.6302H33.7841V82.1982Z" fill="white"/>
<path d="M33.7841 85.6304H30.3521V89.0624H33.7841V85.6304Z" fill="white"/>
<path d="M33.7841 89.062H30.3521V92.494H33.7841V89.062Z" fill="white"/>
<path d="M33.7841 92.4941H30.3521V95.9261H33.7841V92.4941Z" fill="white"/>
<path d="M33.7841 99.3584H30.3521V102.79H33.7841V99.3584Z" fill="white"/>
<path d="M33.7841 113.086H30.3521V116.518H33.7841V113.086Z" fill="white"/>
<path d="M33.7841 116.518H30.3521V119.95H33.7841V116.518Z" fill="white"/>
<path d="M33.7841 119.95H30.3521V123.382H33.7841V119.95Z" fill="white"/>
<path d="M33.7841 123.382H30.3521V126.814H33.7841V123.382Z" fill="white"/>
<path d="M33.7841 126.814H30.3521V130.246H33.7841V126.814Z" fill="white"/>
<path d="M37.2159 54.7422H33.7839V58.1742H37.2159V54.7422Z" fill="white"/>
<path d="M37.2159 61.6064H33.7839V65.0384H37.2159V61.6064Z" fill="white"/>
<path d="M37.2159 65.0381H33.7839V68.4701H37.2159V65.0381Z" fill="white"/>
<path d="M37.2159 78.7661H33.7839V82.1981H37.2159V78.7661Z" fill="white"/>
<path d="M37.2159 85.6304H33.7839V89.0624H37.2159V85.6304Z" fill="white"/>
<path d="M37.2159 89.062H33.7839V92.494H37.2159V89.062Z" fill="white"/>
<path d="M37.2159 95.9263H33.7839V99.3583H37.2159V95.9263Z" fill="white"/>
<path d="M37.2159 106.222H33.7839V109.654H37.2159V106.222Z" fill="white"/>
<path d="M37.2159 133.678H33.7839V137.11H37.2159V133.678Z" fill="white"/>
<path d="M40.6481 51.3101H37.2161V54.7421H40.6481V51.3101Z" fill="white"/>
<path d="M40.6481 61.6064H37.2161V65.0384H40.6481V61.6064Z" fill="white"/>
<path d="M40.6481 68.4702H37.2161V71.9022H40.6481V68.4702Z" fill="white"/>
<path d="M40.6481 71.9023H37.2161V75.3343H40.6481V71.9023Z" fill="white"/>
<path d="M40.6481 82.1982H37.2161V85.6302H40.6481V82.1982Z" fill="white"/>
<path d="M40.6481 92.4941H37.2161V95.9261H40.6481V92.4941Z" fill="white"/>
<path d="M40.6481 102.79H37.2161V106.222H40.6481V102.79Z" fill="white"/>
<path d="M40.6481 113.086H37.2161V116.518H40.6481V113.086Z" fill="white"/>
<path d="M40.6481 119.95H37.2161V123.382H40.6481V119.95Z" fill="white"/>
<path d="M40.6481 126.814H37.2161V130.246H40.6481V126.814Z" fill="white"/>
<path d="M40.6481 130.246H37.2161V133.678H40.6481V130.246Z" fill="white"/>
<path d="M40.6481 133.678H37.2161V137.11H40.6481V133.678Z" fill="white"/>
<path d="M44.0799 51.3101H40.6479V54.7421H44.0799V51.3101Z" fill="white"/>
<path d="M44.0799 54.7422H40.6479V58.1742H44.0799V54.7422Z" fill="white"/>
<path d="M44.0799 61.6064H40.6479V65.0384H44.0799V61.6064Z" fill="white"/>
<path d="M44.0799 65.0381H40.6479V68.4701H44.0799V65.0381Z" fill="white"/>
<path d="M44.0799 68.4702H40.6479V71.9022H44.0799V68.4702Z" fill="white"/>
<path d="M44.0799 85.6304H40.6479V89.0624H44.0799V85.6304Z" fill="white"/>
<path d="M44.0799 92.4941H40.6479V95.9261H44.0799V92.4941Z" fill="white"/>
<path d="M44.0799 102.79H40.6479V106.222H44.0799V102.79Z" fill="white"/>
<path d="M44.0799 113.086H40.6479V116.518H44.0799V113.086Z" fill="white"/>
<path d="M44.0799 116.518H40.6479V119.95H44.0799V116.518Z" fill="white"/>
<path d="M44.0799 119.95H40.6479V123.382H44.0799V119.95Z" fill="white"/>
<path d="M44.0799 126.814H40.6479V130.246H44.0799V126.814Z" fill="white"/>
<path d="M44.0799 133.678H40.6479V137.11H44.0799V133.678Z" fill="white"/>
<path d="M47.5121 51.3101H44.0801V54.7421H47.5121V51.3101Z" fill="white"/>
<path d="M47.5121 58.1743H44.0801V61.6063H47.5121V58.1743Z" fill="white"/>
<path d="M47.5121 65.0381H44.0801V68.4701H47.5121V65.0381Z" fill="white"/>
<path d="M47.5121 71.9023H44.0801V75.3343H47.5121V71.9023Z" fill="white"/>
<path d="M47.5121 78.7661H44.0801V82.1981H47.5121V78.7661Z" fill="white"/>
<path d="M47.5121 85.6304H44.0801V89.0624H47.5121V85.6304Z" fill="white"/>
<path d="M47.5121 92.4941H44.0801V95.9261H47.5121V92.4941Z" fill="white"/>
<path d="M47.5121 99.3584H44.0801V102.79H47.5121V99.3584Z" fill="white"/>
<path d="M47.5121 106.222H44.0801V109.654H47.5121V106.222Z" fill="white"/>
<path d="M47.5121 113.086H44.0801V116.518H47.5121V113.086Z" fill="white"/>
<path d="M47.5121 119.95H44.0801V123.382H47.5121V119.95Z" fill="white"/>
<path d="M47.5121 126.814H44.0801V130.246H47.5121V126.814Z" fill="white"/>
<path d="M47.5121 133.678H44.0801V137.11H47.5121V133.678Z" fill="white"/>
<path d="M50.944 54.7422H47.512V58.1742H50.944V54.7422Z" fill="white"/>
<path d="M50.944 78.7661H47.512V82.1981H50.944V78.7661Z" fill="white"/>
<path d="M50.944 85.6304H47.512V89.0624H50.944V85.6304Z" fill="white"/>
<path d="M50.944 95.9263H47.512V99.3583H50.944V95.9263Z" fill="white"/>
<path d="M50.944 99.3584H47.512V102.79H50.944V99.3584Z" fill="white"/>
<path d="M50.944 102.79H47.512V106.222H50.944V102.79Z" fill="white"/>
<path d="M50.944 119.95H47.512V123.382H50.944V119.95Z" fill="white"/>
<path d="M54.3761 27.2861H50.9441V30.7181H54.3761V27.2861Z" fill="white"/>
<path d="M54.3761 30.7183H50.9441V34.1503H54.3761V30.7183Z" fill="white"/>
<path d="M54.3761 34.1504H50.9441V37.5824H54.3761V34.1504Z" fill="white"/>
<path d="M54.3761 37.582H50.9441V41.014H54.3761V37.582Z" fill="white"/>
<path d="M54.3761 41.0142H50.9441V44.4462H54.3761V41.0142Z" fill="white"/>
<path d="M54.3761 44.4463H50.9441V47.8783H54.3761V44.4463Z" fill="white"/>
<path d="M54.3761 47.8784H50.9441V51.3104H54.3761V47.8784Z" fill="white"/>
<path d="M54.3761 54.7422H50.9441V58.1742H54.3761V54.7422Z" fill="white"/>
<path d="M54.3761 65.0381H50.9441V68.4701H54.3761V65.0381Z" fill="white"/>
<path d="M54.3761 68.4702H50.9441V71.9022H54.3761V68.4702Z" fill="white"/>
<path d="M54.3761 71.9023H50.9441V75.3343H54.3761V71.9023Z" fill="white"/>
<path d="M54.3761 78.7661H50.9441V82.1981H54.3761V78.7661Z" fill="white"/>
<path d="M54.3761 82.1982H50.9441V85.6302H54.3761V82.1982Z" fill="white"/>
<path d="M54.3761 85.6304H50.9441V89.0624H54.3761V85.6304Z" fill="white"/>
<path d="M54.3761 99.3584H50.9441V102.79H54.3761V99.3584Z" fill="white"/>
<path d="M54.3761 106.222H50.9441V109.654H54.3761V106.222Z" fill="white"/>
<path d="M54.3761 109.654H50.9441V113.086H54.3761V109.654Z" fill="white"/>
<path d="M54.3761 113.086H50.9441V116.518H54.3761V113.086Z" fill="white"/>
<path d="M54.3761 123.382H50.9441V126.814H54.3761V123.382Z" fill="white"/>
<path d="M54.3761 130.246H50.9441V133.678H54.3761V130.246Z" fill="white"/>
<path d="M54.3761 143.974H50.9441V147.406H54.3761V143.974Z" fill="white"/>
<path d="M54.3761 147.406H50.9441V150.838H54.3761V147.406Z" fill="white"/>
<path d="M54.3761 161.134H50.9441V164.566H54.3761V161.134Z" fill="white"/>
<path d="M57.808 30.7183H54.376V34.1503H57.808V30.7183Z" fill="white"/>
<path d="M57.808 37.582H54.376V41.014H57.808V37.582Z" fill="white"/>
<path d="M57.808 47.8784H54.376V51.3104H57.808V47.8784Z" fill="white"/>
<path d="M57.808 58.1743H54.376V61.6063H57.808V58.1743Z" fill="white"/>
<path d="M57.808 68.4702H54.376V71.9022H57.808V68.4702Z" fill="white"/>
<path d="M57.808 75.334H54.376V78.766H57.808V75.334Z" fill="white"/>
<path d="M57.808 78.7661H54.376V82.1981H57.808V78.7661Z" fill="white"/>
<path d="M57.808 82.1982H54.376V85.6302H57.808V82.1982Z" fill="white"/>
<path d="M57.808 85.6304H54.376V89.0624H57.808V85.6304Z" fill="white"/>
<path d="M57.808 92.4941H54.376V95.9261H57.808V92.4941Z" fill="white"/>
<path d="M57.808 95.9263H54.376V99.3583H57.808V95.9263Z" fill="white"/>
<path d="M57.808 99.3584H54.376V102.79H57.808V99.3584Z" fill="white"/>
<path d="M57.808 102.79H54.376V106.222H57.808V102.79Z" fill="white"/>
<path d="M57.808 119.95H54.376V123.382H57.808V119.95Z" fill="white"/>
<path d="M57.808 130.246H54.376V133.678H57.808V130.246Z" fill="white"/>
<path d="M57.808 133.678H54.376V137.11H57.808V133.678Z" fill="white"/>
<path d="M57.808 143.974H54.376V147.406H57.808V143.974Z" fill="white"/>
<path d="M57.808 147.406H54.376V150.838H57.808V147.406Z" fill="white"/>
<path d="M57.808 154.27H54.376V157.702H57.808V154.27Z" fill="white"/>
<path d="M57.808 157.702H54.376V161.134H57.808V157.702Z" fill="white"/>
<path d="M57.808 161.134H54.376V164.566H57.808V161.134Z" fill="white"/>
<path d="M61.2401 23.854H57.8081V27.286H61.2401V23.854Z" fill="white"/>
<path d="M61.2401 30.7183H57.8081V34.1503H61.2401V30.7183Z" fill="white"/>
<path d="M61.2401 44.4463H57.8081V47.8783H61.2401V44.4463Z" fill="white"/>
<path d="M61.2401 51.3101H57.8081V54.7421H61.2401V51.3101Z" fill="white"/>
<path d="M61.2401 58.1743H57.8081V61.6063H61.2401V58.1743Z" fill="white"/>
<path d="M61.2401 68.4702H57.8081V71.9022H61.2401V68.4702Z" fill="white"/>
<path d="M61.2401 75.334H57.8081V78.766H61.2401V75.334Z" fill="white"/>
<path d="M61.2401 78.7661H57.8081V82.1981H61.2401V78.7661Z" fill="white"/>
<path d="M61.2401 82.1982H57.8081V85.6302H61.2401V82.1982Z" fill="white"/>
<path d="M61.2401 85.6304H57.8081V89.0624H61.2401V85.6304Z" fill="white"/>
<path d="M61.2401 89.062H57.8081V92.494H61.2401V89.062Z" fill="white"/>
<path d="M61.2401 95.9263H57.8081V99.3583H61.2401V95.9263Z" fill="white"/>
<path d="M61.2401 99.3584H57.8081V102.79H61.2401V99.3584Z" fill="white"/>
<path d="M61.2401 113.086H57.8081V116.518H61.2401V113.086Z" fill="white"/>
<path d="M61.2401 116.518H57.8081V119.95H61.2401V116.518Z" fill="white"/>
<path d="M61.2401 119.95H57.8081V123.382H61.2401V119.95Z" fill="white"/>
<path d="M61.2401 126.814H57.8081V130.246H61.2401V126.814Z" fill="white"/>
<path d="M61.2401 133.678H57.8081V137.11H61.2401V133.678Z" fill="white"/>
<path d="M61.2401 137.11H57.8081V140.542H61.2401V137.11Z" fill="white"/>
<path d="M61.2401 147.406H57.8081V150.838H61.2401V147.406Z" fill="white"/>
<path d="M64.672 23.854H61.24V27.286H64.672V23.854Z" fill="white"/>
<path d="M64.672 27.2861H61.24V30.7181H64.672V27.2861Z" fill="white"/>
<path d="M64.672 34.1504H61.24V37.5824H64.672V34.1504Z" fill="white"/>
<path d="M64.672 41.0142H61.24V44.4462H64.672V41.0142Z" fill="white"/>
<path d="M64.672 54.7422H61.24V58.1742H64.672V54.7422Z" fill="white"/>
<path d="M64.672 58.1743H61.24V61.6063H64.672V58.1743Z" fill="white"/>
<path d="M64.672 65.0381H61.24V68.4701H64.672V65.0381Z" fill="white"/>
<path d="M64.672 75.334H61.24V78.766H64.672V75.334Z" fill="white"/>
<path d="M64.672 82.1982H61.24V85.6302H64.672V82.1982Z" fill="white"/>
<path d="M64.672 85.6304H61.24V89.0624H64.672V85.6304Z" fill="white"/>
<path d="M64.672 89.062H61.24V92.494H64.672V89.062Z" fill="white"/>
<path d="M64.672 113.086H61.24V116.518H64.672V113.086Z" fill="white"/>
<path d="M64.672 116.518H61.24V119.95H64.672V116.518Z" fill="white"/>
<path d="M64.672 126.814H61.24V130.246H64.672V126.814Z" fill="white"/>
<path d="M64.672 130.246H61.24V133.678H64.672V130.246Z" fill="white"/>
<path d="M64.672 133.678H61.24V137.11H64.672V133.678Z" fill="white"/>
<path d="M64.672 140.542H61.24V143.974H64.672V140.542Z" fill="white"/>
<path d="M64.672 143.974H61.24V147.406H64.672V143.974Z" fill="white"/>
<path d="M64.672 147.406H61.24V150.838H64.672V147.406Z" fill="white"/>
<path d="M64.672 150.838H61.24V154.27H64.672V150.838Z" fill="white"/>
<path d="M64.672 161.134H61.24V164.566H64.672V161.134Z" fill="white"/>
<path d="M68.1041 30.7183H64.6721V34.1503H68.1041V30.7183Z" fill="white"/>
<path d="M68.1041 44.4463H64.6721V47.8783H68.1041V44.4463Z" fill="white"/>
<path d="M68.1041 54.7422H64.6721V58.1742H68.1041V54.7422Z" fill="white"/>
<path d="M68.1041 58.1743H64.6721V61.6063H68.1041V58.1743Z" fill="white"/>
<path d="M68.1041 65.0381H64.6721V68.4701H68.1041V65.0381Z" fill="white"/>
<path d="M68.1041 78.7661H64.6721V82.1981H68.1041V78.7661Z" fill="white"/>
<path d="M68.1041 82.1982H64.6721V85.6302H68.1041V82.1982Z" fill="white"/>
<path d="M68.1041 95.9263H64.6721V99.3583H68.1041V95.9263Z" fill="white"/>
<path d="M68.1041 102.79H64.6721V106.222H68.1041V102.79Z" fill="white"/>
<path d="M68.1041 109.654H64.6721V113.086H68.1041V109.654Z" fill="white"/>
<path d="M68.1041 113.086H64.6721V116.518H68.1041V113.086Z" fill="white"/>
<path d="M68.1041 116.518H64.6721V119.95H68.1041V116.518Z" fill="white"/>
<path d="M68.1041 123.382H64.6721V126.814H68.1041V123.382Z" fill="white"/>
<path d="M68.1041 126.814H64.6721V130.246H68.1041V126.814Z" fill="white"/>
<path d="M68.1041 130.246H64.6721V133.678H68.1041V130.246Z" fill="white"/>
<path d="M68.1041 133.678H64.6721V137.11H68.1041V133.678Z" fill="white"/>
<path d="M68.1041 143.974H64.6721V147.406H68.1041V143.974Z" fill="white"/>
<path d="M68.1041 150.838H64.6721V154.27H68.1041V150.838Z" fill="white"/>
<path d="M68.1041 154.27H64.6721V157.702H68.1041V154.27Z" fill="white"/>
<path d="M68.1041 161.134H64.6721V164.566H68.1041V161.134Z" fill="white"/>
<path d="M71.536 23.854H68.104V27.286H71.536V23.854Z" fill="white"/>
<path d="M71.536 27.2861H68.104V30.7181H71.536V27.2861Z" fill="white"/>
<path d="M71.536 30.7183H68.104V34.1503H71.536V30.7183Z" fill="white"/>
<path d="M71.536 41.0142H68.104V44.4462H71.536V41.0142Z" fill="white"/>
<path d="M71.536 51.3101H68.104V54.7421H71.536V51.3101Z" fill="white"/>
<path d="M71.536 75.334H68.104V78.766H71.536V75.334Z" fill="white"/>
<path d="M71.536 82.1982H68.104V85.6302H71.536V82.1982Z" fill="white"/>
<path d="M71.536 85.6304H68.104V89.0624H71.536V85.6304Z" fill="white"/>
<path d="M71.536 89.062H68.104V92.494H71.536V89.062Z" fill="white"/>
<path d="M71.536 92.4941H68.104V95.9261H71.536V92.4941Z" fill="white"/>
<path d="M71.536 99.3584H68.104V102.79H71.536V99.3584Z" fill="white"/>
<path d="M71.536 106.222H68.104V109.654H71.536V106.222Z" fill="white"/>
<path d="M71.536 109.654H68.104V113.086H71.536V109.654Z" fill="white"/>
<path d="M71.536 116.518H68.104V119.95H71.536V116.518Z" fill="white"/>
<path d="M71.536 119.95H68.104V123.382H71.536V119.95Z" fill="white"/>
<path d="M71.536 137.11H68.104V140.542H71.536V137.11Z" fill="white"/>
<path d="M71.536 140.542H68.104V143.974H71.536V140.542Z" fill="white"/>
<path d="M71.536 147.406H68.104V150.838H71.536V147.406Z" fill="white"/>
<path d="M71.536 157.702H68.104V161.134H71.536V157.702Z" fill="white"/>
<path d="M71.536 161.134H68.104V164.566H71.536V161.134Z" fill="white"/>
<path d="M74.9679 23.854H71.5359V27.286H74.9679V23.854Z" fill="white"/>
<path d="M74.9679 27.2861H71.5359V30.7181H74.9679V27.2861Z" fill="white"/>
<path d="M74.9679 44.4463H71.5359V47.8783H74.9679V44.4463Z" fill="white"/>
<path d="M74.9679 51.3101H71.5359V54.7421H74.9679V51.3101Z" fill="white"/>
<path d="M74.9679 58.1743H71.5359V61.6063H74.9679V58.1743Z" fill="white"/>
<path d="M74.9679 61.6064H71.5359V65.0384H74.9679V61.6064Z" fill="white"/>
<path d="M74.9679 65.0381H71.5359V68.4701H74.9679V65.0381Z" fill="white"/>
<path d="M74.9679 68.4702H71.5359V71.9022H74.9679V68.4702Z" fill="white"/>
<path d="M74.9679 75.334H71.5359V78.766H74.9679V75.334Z" fill="white"/>
<path d="M74.9679 78.7661H71.5359V82.1981H74.9679V78.7661Z" fill="white"/>
<path d="M74.9679 82.1982H71.5359V85.6302H74.9679V82.1982Z" fill="white"/>
<path d="M74.9679 95.9263H71.5359V99.3583H74.9679V95.9263Z" fill="white"/>
<path d="M74.9679 99.3584H71.5359V102.79H74.9679V99.3584Z" fill="white"/>
<path d="M74.9679 113.086H71.5359V116.518H74.9679V113.086Z" fill="white"/>
<path d="M74.9679 133.678H71.5359V137.11H74.9679V133.678Z" fill="white"/>
<path d="M74.9679 137.11H71.5359V140.542H74.9679V137.11Z" fill="white"/>
<path d="M74.9679 143.974H71.5359V147.406H74.9679V143.974Z" fill="white"/>
<path d="M74.9679 150.838H71.5359V154.27H74.9679V150.838Z" fill="white"/>
<path d="M74.9679 154.27H71.5359V157.702H74.9679V154.27Z" fill="white"/>
<path d="M78.4 23.854H74.968V27.286H78.4V23.854Z" fill="white"/>
<path d="M78.4 30.7183H74.968V34.1503H78.4V30.7183Z" fill="white"/>
<path d="M78.4 47.8784H74.968V51.3104H78.4V47.8784Z" fill="white"/>
<path d="M78.4 61.6064H74.968V65.0384H78.4V61.6064Z" fill="white"/>
<path d="M78.4 65.0381H74.968V68.4701H78.4V65.0381Z" fill="white"/>
<path d="M78.4 71.9023H74.968V75.3343H78.4V71.9023Z" fill="white"/>
<path d="M78.4 82.1982H74.968V85.6302H78.4V82.1982Z" fill="white"/>
<path d="M78.4 85.6304H74.968V89.0624H78.4V85.6304Z" fill="white"/>
<path d="M78.4 99.3584H74.968V102.79H78.4V99.3584Z" fill="white"/>
<path d="M78.4 106.222H74.968V109.654H78.4V106.222Z" fill="white"/>
<path d="M78.4 119.95H74.968V123.382H78.4V119.95Z" fill="white"/>
<path d="M78.4 140.542H74.968V143.974H78.4V140.542Z" fill="white"/>
<path d="M78.4 143.974H74.968V147.406H78.4V143.974Z" fill="white"/>
<path d="M78.4 150.838H74.968V154.27H78.4V150.838Z" fill="white"/>
<path d="M81.8319 27.2861H78.3999V30.7181H81.8319V27.2861Z" fill="white"/>
<path d="M81.8319 30.7183H78.3999V34.1503H81.8319V30.7183Z" fill="white"/>
<path d="M81.8319 37.582H78.3999V41.014H81.8319V37.582Z" fill="white"/>
<path d="M81.8319 41.0142H78.3999V44.4462H81.8319V41.0142Z" fill="white"/>
<path d="M81.8319 44.4463H78.3999V47.8783H81.8319V44.4463Z" fill="white"/>
<path d="M81.8319 51.3101H78.3999V54.7421H81.8319V51.3101Z" fill="white"/>
<path d="M81.8319 58.1743H78.3999V61.6063H81.8319V58.1743Z" fill="white"/>
<path d="M81.8319 65.0381H78.3999V68.4701H81.8319V65.0381Z" fill="white"/>
<path d="M81.8319 68.4702H78.3999V71.9022H81.8319V68.4702Z" fill="white"/>
<path d="M81.8319 85.6304H78.3999V89.0624H81.8319V85.6304Z" fill="white"/>
<path d="M81.8319 89.062H78.3999V92.494H81.8319V89.062Z" fill="white"/>
<path d="M81.8319 95.9263H78.3999V99.3583H81.8319V95.9263Z" fill="white"/>
<path d="M81.8319 106.222H78.3999V109.654H81.8319V106.222Z" fill="white"/>
<path d="M81.8319 109.654H78.3999V113.086H81.8319V109.654Z" fill="white"/>
<path d="M81.8319 113.086H78.3999V116.518H81.8319V113.086Z" fill="white"/>
<path d="M81.8319 123.382H78.3999V126.814H81.8319V123.382Z" fill="white"/>
<path d="M81.8319 126.814H78.3999V130.246H81.8319V126.814Z" fill="white"/>
<path d="M81.8319 133.678H78.3999V137.11H81.8319V133.678Z" fill="white"/>
<path d="M81.8319 137.11H78.3999V140.542H81.8319V137.11Z" fill="white"/>
<path d="M81.8319 143.974H78.3999V147.406H81.8319V143.974Z" fill="white"/>
<path d="M81.8319 154.27H78.3999V157.702H81.8319V154.27Z" fill="white"/>
<path d="M85.264 23.854H81.832V27.286H85.264V23.854Z" fill="white"/>
<path d="M85.264 27.2861H81.832V30.7181H85.264V27.2861Z" fill="white"/>
<path d="M85.264 58.1743H81.832V61.6063H85.264V58.1743Z" fill="white"/>
<path d="M85.264 61.6064H81.832V65.0384H85.264V61.6064Z" fill="white"/>
<path d="M85.264 65.0381H81.832V68.4701H85.264V65.0381Z" fill="white"/>
<path d="M85.264 78.7661H81.832V82.1981H85.264V78.7661Z" fill="white"/>
<path d="M85.264 85.6304H81.832V89.0624H85.264V85.6304Z" fill="white"/>
<path d="M85.264 92.4941H81.832V95.9261H85.264V92.4941Z" fill="white"/>
<path d="M85.264 95.9263H81.832V99.3583H85.264V95.9263Z" fill="white"/>
<path d="M85.264 99.3584H81.832V102.79H85.264V99.3584Z" fill="white"/>
<path d="M85.264 102.79H81.832V106.222H85.264V102.79Z" fill="white"/>
<path d="M85.264 109.654H81.832V113.086H85.264V109.654Z" fill="white"/>
<path d="M85.264 119.95H81.832V123.382H85.264V119.95Z" fill="white"/>
<path d="M85.264 130.246H81.832V133.678H85.264V130.246Z" fill="white"/>
<path d="M85.264 133.678H81.832V137.11H85.264V133.678Z" fill="white"/>
<path d="M85.264 140.542H81.832V143.974H85.264V140.542Z" fill="white"/>
<path d="M85.264 143.974H81.832V147.406H85.264V143.974Z" fill="white"/>
<path d="M85.264 147.406H81.832V150.838H85.264V147.406Z" fill="white"/>
<path d="M85.264 150.838H81.832V154.27H85.264V150.838Z" fill="white"/>
<path d="M85.264 154.27H81.832V157.702H85.264V154.27Z" fill="white"/>
<path d="M85.264 157.702H81.832V161.134H85.264V157.702Z" fill="white"/>
<path d="M85.264 161.134H81.832V164.566H85.264V161.134Z" fill="white"/>
<path d="M88.6959 23.854H85.2639V27.286H88.6959V23.854Z" fill="white"/>
<path d="M88.6959 27.2861H85.2639V30.7181H88.6959V27.2861Z" fill="white"/>
<path d="M88.6959 30.7183H85.2639V34.1503H88.6959V30.7183Z" fill="white"/>
<path d="M88.6959 34.1504H85.2639V37.5824H88.6959V34.1504Z" fill="white"/>
<path d="M88.6959 37.582H85.2639V41.014H88.6959V37.582Z" fill="white"/>
<path d="M88.6959 41.0142H85.2639V44.4462H88.6959V41.0142Z" fill="white"/>
<path d="M88.6959 44.4463H85.2639V47.8783H88.6959V44.4463Z" fill="white"/>
<path d="M88.6959 51.3101H85.2639V54.7421H88.6959V51.3101Z" fill="white"/>
<path d="M88.6959 68.4702H85.2639V71.9022H88.6959V68.4702Z" fill="white"/>
<path d="M88.6959 75.334H85.2639V78.766H88.6959V75.334Z" fill="white"/>
<path d="M88.6959 78.7661H85.2639V82.1981H88.6959V78.7661Z" fill="white"/>
<path d="M88.6959 89.062H85.2639V92.494H88.6959V89.062Z" fill="white"/>
<path d="M88.6959 95.9263H85.2639V99.3583H88.6959V95.9263Z" fill="white"/>
<path d="M88.6959 99.3584H85.2639V102.79H88.6959V99.3584Z" fill="white"/>
<path d="M88.6959 109.654H85.2639V113.086H88.6959V109.654Z" fill="white"/>
<path d="M88.6959 113.086H85.2639V116.518H88.6959V113.086Z" fill="white"/>
<path d="M88.6959 116.518H85.2639V119.95H88.6959V116.518Z" fill="white"/>
<path d="M88.6959 119.95H85.2639V123.382H88.6959V119.95Z" fill="white"/>
<path d="M88.6959 126.814H85.2639V130.246H88.6959V126.814Z" fill="white"/>
<path d="M88.6959 133.678H85.2639V137.11H88.6959V133.678Z" fill="white"/>
<path d="M88.6959 137.11H85.2639V140.542H88.6959V137.11Z" fill="white"/>
<path d="M88.6959 147.406H85.2639V150.838H88.6959V147.406Z" fill="white"/>
<path d="M88.6959 150.838H85.2639V154.27H88.6959V150.838Z" fill="white"/>
<path d="M92.128 27.2861H88.696V30.7181H92.128V27.2861Z" fill="white"/>
<path d="M92.128 30.7183H88.696V34.1503H92.128V30.7183Z" fill="white"/>
<path d="M92.128 34.1504H88.696V37.5824H92.128V34.1504Z" fill="white"/>
<path d="M92.128 41.0142H88.696V44.4462H92.128V41.0142Z" fill="white"/>
<path d="M92.128 58.1743H88.696V61.6063H92.128V58.1743Z" fill="white"/>
<path d="M92.128 65.0381H88.696V68.4701H92.128V65.0381Z" fill="white"/>
<path d="M92.128 71.9023H88.696V75.3343H92.128V71.9023Z" fill="white"/>
<path d="M92.128 85.6304H88.696V89.0624H92.128V85.6304Z" fill="white"/>
<path d="M92.128 89.062H88.696V92.494H92.128V89.062Z" fill="white"/>
<path d="M92.128 95.9263H88.696V99.3583H92.128V95.9263Z" fill="white"/>
<path d="M92.128 99.3584H88.696V102.79H92.128V99.3584Z" fill="white"/>
<path d="M92.128 102.79H88.696V106.222H92.128V102.79Z" fill="white"/>
<path d="M92.128 106.222H88.696V109.654H92.128V106.222Z" fill="white"/>
<path d="M92.128 109.654H88.696V113.086H92.128V109.654Z" fill="white"/>
<path d="M92.128 116.518H88.696V119.95H92.128V116.518Z" fill="white"/>
<path d="M92.128 147.406H88.696V150.838H92.128V147.406Z" fill="white"/>
<path d="M92.128 150.838H88.696V154.27H92.128V150.838Z" fill="white"/>
<path d="M92.128 157.702H88.696V161.134H92.128V157.702Z" fill="white"/>
<path d="M92.128 161.134H88.696V164.566H92.128V161.134Z" fill="white"/>
<path d="M95.5599 23.854H92.1279V27.286H95.5599V23.854Z" fill="white"/>
<path d="M95.5599 27.2861H92.1279V30.7181H95.5599V27.2861Z" fill="white"/>
<path d="M95.5599 34.1504H92.1279V37.5824H95.5599V34.1504Z" fill="white"/>
<path d="M95.5599 44.4463H92.1279V47.8783H95.5599V44.4463Z" fill="white"/>
<path d="M95.5599 47.8784H92.1279V51.3104H95.5599V47.8784Z" fill="white"/>
<path d="M95.5599 54.7422H92.1279V58.1742H95.5599V54.7422Z" fill="white"/>
<path d="M95.5599 58.1743H92.1279V61.6063H95.5599V58.1743Z" fill="white"/>
<path d="M95.5599 68.4702H92.1279V71.9022H95.5599V68.4702Z" fill="white"/>
<path d="M95.5599 89.062H92.1279V92.494H95.5599V89.062Z" fill="white"/>
<path d="M95.5599 99.3584H92.1279V102.79H95.5599V99.3584Z" fill="white"/>
<path d="M95.5599 106.222H92.1279V109.654H95.5599V106.222Z" fill="white"/>
<path d="M95.5599 113.086H92.1279V116.518H95.5599V113.086Z" fill="white"/>
<path d="M95.5599 116.518H92.1279V119.95H95.5599V116.518Z" fill="white"/>
<path d="M95.5599 119.95H92.1279V123.382H95.5599V119.95Z" fill="white"/>
<path d="M95.5599 126.814H92.1279V130.246H95.5599V126.814Z" fill="white"/>
<path d="M95.5599 130.246H92.1279V133.678H95.5599V130.246Z" fill="white"/>
<path d="M95.5599 154.27H92.1279V157.702H95.5599V154.27Z" fill="white"/>
<path d="M95.5599 161.134H92.1279V164.566H95.5599V161.134Z" fill="white"/>
<path d="M98.9921 23.854H95.5601V27.286H98.9921V23.854Z" fill="white"/>
<path d="M98.9921 30.7183H95.5601V34.1503H98.9921V30.7183Z" fill="white"/>
<path d="M98.9921 54.7422H95.5601V58.1742H98.9921V54.7422Z" fill="white"/>
<path d="M98.9921 65.0381H95.5601V68.4701H98.9921V65.0381Z" fill="white"/>
<path d="M98.9921 68.4702H95.5601V71.9022H98.9921V68.4702Z" fill="white"/>
<path d="M98.9921 71.9023H95.5601V75.3343H98.9921V71.9023Z" fill="white"/>
<path d="M98.9921 78.7661H95.5601V82.1981H98.9921V78.7661Z" fill="white"/>
<path d="M98.9921 82.1982H95.5601V85.6302H98.9921V82.1982Z" fill="white"/>
<path d="M98.9921 89.062H95.5601V92.494H98.9921V89.062Z" fill="white"/>
<path d="M98.9921 92.4941H95.5601V95.9261H98.9921V92.4941Z" fill="white"/>
<path d="M98.9921 99.3584H95.5601V102.79H98.9921V99.3584Z" fill="white"/>
<path d="M98.9921 102.79H95.5601V106.222H98.9921V102.79Z" fill="white"/>
<path d="M98.9921 109.654H95.5601V113.086H98.9921V109.654Z" fill="white"/>
<path d="M98.9921 130.246H95.5601V133.678H98.9921V130.246Z" fill="white"/>
<path d="M98.9921 133.678H95.5601V137.11H98.9921V133.678Z" fill="white"/>
<path d="M98.9921 137.11H95.5601V140.542H98.9921V137.11Z" fill="white"/>
<path d="M98.9921 140.542H95.5601V143.974H98.9921V140.542Z" fill="white"/>
<path d="M98.9921 143.974H95.5601V147.406H98.9921V143.974Z" fill="white"/>
<path d="M98.9921 147.406H95.5601V150.838H98.9921V147.406Z" fill="white"/>
<path d="M98.9921 157.702H95.5601V161.134H98.9921V157.702Z" fill="white"/>
<path d="M98.9921 161.134H95.5601V164.566H98.9921V161.134Z" fill="white"/>
<path d="M102.424 41.0142H98.9919V44.4462H102.424V41.0142Z" fill="white"/>
<path d="M102.424 44.4463H98.9919V47.8783H102.424V44.4463Z" fill="white"/>
<path d="M102.424 61.6064H98.9919V65.0384H102.424V61.6064Z" fill="white"/>
<path d="M102.424 65.0381H98.9919V68.4701H102.424V65.0381Z" fill="white"/>
<path d="M102.424 71.9023H98.9919V75.3343H102.424V71.9023Z" fill="white"/>
<path d="M102.424 85.6304H98.9919V89.0624H102.424V85.6304Z" fill="white"/>
<path d="M102.424 109.654H98.9919V113.086H102.424V109.654Z" fill="white"/>
<path d="M102.424 116.518H98.9919V119.95H102.424V116.518Z" fill="white"/>
<path d="M102.424 119.95H98.9919V123.382H102.424V119.95Z" fill="white"/>
<path d="M102.424 126.814H98.9919V130.246H102.424V126.814Z" fill="white"/>
<path d="M102.424 140.542H98.9919V143.974H102.424V140.542Z" fill="white"/>
<path d="M102.424 143.974H98.9919V147.406H102.424V143.974Z" fill="white"/>
<path d="M102.424 147.406H98.9919V150.838H102.424V147.406Z" fill="white"/>
<path d="M102.424 150.838H98.9919V154.27H102.424V150.838Z" fill="white"/>
<path d="M102.424 154.27H98.9919V157.702H102.424V154.27Z" fill="white"/>
<path d="M105.856 23.854H102.424V27.286H105.856V23.854Z" fill="white"/>
<path d="M105.856 27.2861H102.424V30.7181H105.856V27.2861Z" fill="white"/>
<path d="M105.856 34.1504H102.424V37.5824H105.856V34.1504Z" fill="white"/>
<path d="M105.856 51.3101H102.424V54.7421H105.856V51.3101Z" fill="white"/>
<path d="M105.856 54.7422H102.424V58.1742H105.856V54.7422Z" fill="white"/>
<path d="M105.856 58.1743H102.424V61.6063H105.856V58.1743Z" fill="white"/>
<path d="M105.856 61.6064H102.424V65.0384H105.856V61.6064Z" fill="white"/>
<path d="M105.856 65.0381H102.424V68.4701H105.856V65.0381Z" fill="white"/>
<path d="M105.856 71.9023H102.424V75.3343H105.856V71.9023Z" fill="white"/>
<path d="M105.856 75.334H102.424V78.766H105.856V75.334Z" fill="white"/>
<path d="M105.856 78.7661H102.424V82.1981H105.856V78.7661Z" fill="white"/>
<path d="M105.856 82.1982H102.424V85.6302H105.856V82.1982Z" fill="white"/>
<path d="M105.856 95.9263H102.424V99.3583H105.856V95.9263Z" fill="white"/>
<path d="M105.856 99.3584H102.424V102.79H105.856V99.3584Z" fill="white"/>
<path d="M105.856 106.222H102.424V109.654H105.856V106.222Z" fill="white"/>
<path d="M105.856 116.518H102.424V119.95H105.856V116.518Z" fill="white"/>
<path d="M105.856 119.95H102.424V123.382H105.856V119.95Z" fill="white"/>
<path d="M105.856 126.814H102.424V130.246H105.856V126.814Z" fill="white"/>
<path d="M105.856 140.542H102.424V143.974H105.856V140.542Z" fill="white"/>
<path d="M105.856 150.838H102.424V154.27H105.856V150.838Z" fill="white"/>
<path d="M105.856 157.702H102.424V161.134H105.856V157.702Z" fill="white"/>
<path d="M105.856 161.134H102.424V164.566H105.856V161.134Z" fill="white"/>
<path d="M109.288 30.7183H105.856V34.1503H109.288V30.7183Z" fill="white"/>
<path d="M109.288 34.1504H105.856V37.5824H109.288V34.1504Z" fill="white"/>
<path d="M109.288 41.0142H105.856V44.4462H109.288V41.0142Z" fill="white"/>
<path d="M109.288 44.4463H105.856V47.8783H109.288V44.4463Z" fill="white"/>
<path d="M109.288 54.7422H105.856V58.1742H109.288V54.7422Z" fill="white"/>
<path d="M109.288 65.0381H105.856V68.4701H109.288V65.0381Z" fill="white"/>
<path d="M109.288 71.9023H105.856V75.3343H109.288V71.9023Z" fill="white"/>
<path d="M109.288 75.334H105.856V78.766H109.288V75.334Z" fill="white"/>
<path d="M109.288 82.1982H105.856V85.6302H109.288V82.1982Z" fill="white"/>
<path d="M109.288 85.6304H105.856V89.0624H109.288V85.6304Z" fill="white"/>
<path d="M109.288 95.9263H105.856V99.3583H109.288V95.9263Z" fill="white"/>
<path d="M109.288 99.3584H105.856V102.79H109.288V99.3584Z" fill="white"/>
<path d="M109.288 109.654H105.856V113.086H109.288V109.654Z" fill="white"/>
<path d="M109.288 113.086H105.856V116.518H109.288V113.086Z" fill="white"/>
<path d="M109.288 116.518H105.856V119.95H109.288V116.518Z" fill="white"/>
<path d="M109.288 123.382H105.856V126.814H109.288V123.382Z" fill="white"/>
<path d="M109.288 130.246H105.856V133.678H109.288V130.246Z" fill="white"/>
<path d="M109.288 143.974H105.856V147.406H109.288V143.974Z" fill="white"/>
<path d="M109.288 154.27H105.856V157.702H109.288V154.27Z" fill="white"/>
<path d="M109.288 161.134H105.856V164.566H109.288V161.134Z" fill="white"/>
<path d="M112.72 27.2861H109.288V30.7181H112.72V27.2861Z" fill="white"/>
<path d="M112.72 30.7183H109.288V34.1503H112.72V30.7183Z" fill="white"/>
<path d="M112.72 34.1504H109.288V37.5824H112.72V34.1504Z" fill="white"/>
<path d="M112.72 47.8784H109.288V51.3104H112.72V47.8784Z" fill="white"/>
<path d="M112.72 51.3101H109.288V54.7421H112.72V51.3101Z" fill="white"/>
<path d="M112.72 54.7422H109.288V58.1742H112.72V54.7422Z" fill="white"/>
<path d="M112.72 61.6064H109.288V65.0384H112.72V61.6064Z" fill="white"/>
<path d="M112.72 65.0381H109.288V68.4701H112.72V65.0381Z" fill="white"/>
<path d="M112.72 75.334H109.288V78.766H112.72V75.334Z" fill="white"/>
<path d="M112.72 95.9263H109.288V99.3583H112.72V95.9263Z" fill="white"/>
<path d="M112.72 99.3584H109.288V102.79H112.72V99.3584Z" fill="white"/>
<path d="M112.72 102.79H109.288V106.222H112.72V102.79Z" fill="white"/>
<path d="M112.72 109.654H109.288V113.086H112.72V109.654Z" fill="white"/>
<path d="M112.72 113.086H109.288V116.518H112.72V113.086Z" fill="white"/>
<path d="M112.72 119.95H109.288V123.382H112.72V119.95Z" fill="white"/>
<path d="M112.72 123.382H109.288V126.814H112.72V123.382Z" fill="white"/>
<path d="M112.72 130.246H109.288V133.678H112.72V130.246Z" fill="white"/>
<path d="M112.72 140.542H109.288V143.974H112.72V140.542Z" fill="white"/>
<path d="M112.72 143.974H109.288V147.406H112.72V143.974Z" fill="white"/>
<path d="M112.72 147.406H109.288V150.838H112.72V147.406Z" fill="white"/>
<path d="M112.72 150.838H109.288V154.27H112.72V150.838Z" fill="white"/>
<path d="M116.152 30.7183H112.72V34.1503H116.152V30.7183Z" fill="white"/>
<path d="M116.152 34.1504H112.72V37.5824H116.152V34.1504Z" fill="white"/>
<path d="M116.152 41.0142H112.72V44.4462H116.152V41.0142Z" fill="white"/>
<path d="M116.152 44.4463H112.72V47.8783H116.152V44.4463Z" fill="white"/>
<path d="M116.152 54.7422H112.72V58.1742H116.152V54.7422Z" fill="white"/>
<path d="M116.152 71.9023H112.72V75.3343H116.152V71.9023Z" fill="white"/>
<path d="M116.152 82.1982H112.72V85.6302H116.152V82.1982Z" fill="white"/>
<path d="M116.152 95.9263H112.72V99.3583H116.152V95.9263Z" fill="white"/>
<path d="M116.152 99.3584H112.72V102.79H116.152V99.3584Z" fill="white"/>
<path d="M116.152 109.654H112.72V113.086H116.152V109.654Z" fill="white"/>
<path d="M116.152 113.086H112.72V116.518H116.152V113.086Z" fill="white"/>
<path d="M116.152 116.518H112.72V119.95H116.152V116.518Z" fill="white"/>
<path d="M116.152 126.814H112.72V130.246H116.152V126.814Z" fill="white"/>
<path d="M116.152 133.678H112.72V137.11H116.152V133.678Z" fill="white"/>
<path d="M116.152 137.11H112.72V140.542H116.152V137.11Z" fill="white"/>
<path d="M116.152 140.542H112.72V143.974H116.152V140.542Z" fill="white"/>
<path d="M119.584 27.2861H116.152V30.7181H119.584V27.2861Z" fill="white"/>
<path d="M119.584 41.0142H116.152V44.4462H119.584V41.0142Z" fill="white"/>
<path d="M119.584 47.8784H116.152V51.3104H119.584V47.8784Z" fill="white"/>
<path d="M119.584 54.7422H116.152V58.1742H119.584V54.7422Z" fill="white"/>
<path d="M119.584 58.1743H116.152V61.6063H119.584V58.1743Z" fill="white"/>
<path d="M119.584 61.6064H116.152V65.0384H119.584V61.6064Z" fill="white"/>
<path d="M119.584 65.0381H116.152V68.4701H119.584V65.0381Z" fill="white"/>
<path d="M119.584 68.4702H116.152V71.9022H119.584V68.4702Z" fill="white"/>
<path d="M119.584 75.334H116.152V78.766H119.584V75.334Z" fill="white"/>
<path d="M119.584 85.6304H116.152V89.0624H119.584V85.6304Z" fill="white"/>
<path d="M119.584 95.9263H116.152V99.3583H119.584V95.9263Z" fill="white"/>
<path d="M119.584 99.3584H116.152V102.79H119.584V99.3584Z" fill="white"/>
<path d="M119.584 102.79H116.152V106.222H119.584V102.79Z" fill="white"/>
<path d="M119.584 106.222H116.152V109.654H119.584V106.222Z" fill="white"/>
<path d="M119.584 119.95H116.152V123.382H119.584V119.95Z" fill="white"/>
<path d="M119.584 130.246H116.152V133.678H119.584V130.246Z" fill="white"/>
<path d="M119.584 133.678H116.152V137.11H119.584V133.678Z" fill="white"/>
<path d="M119.584 140.542H116.152V143.974H119.584V140.542Z" fill="white"/>
<path d="M119.584 143.974H116.152V147.406H119.584V143.974Z" fill="white"/>
<path d="M119.584 150.838H116.152V154.27H119.584V150.838Z" fill="white"/>
<path d="M119.584 161.134H116.152V164.566H119.584V161.134Z" fill="white"/>
<path d="M123.016 23.854H119.584V27.286H123.016V23.854Z" fill="white"/>
<path d="M123.016 30.7183H119.584V34.1503H123.016V30.7183Z" fill="white"/>
<path d="M123.016 41.0142H119.584V44.4462H123.016V41.0142Z" fill="white"/>
<path d="M123.016 44.4463H119.584V47.8783H123.016V44.4463Z" fill="white"/>
<path d="M123.016 47.8784H119.584V51.3104H123.016V47.8784Z" fill="white"/>
<path d="M123.016 51.3101H119.584V54.7421H123.016V51.3101Z" fill="white"/>
<path d="M123.016 54.7422H119.584V58.1742H123.016V54.7422Z" fill="white"/>
<path d="M123.016 58.1743H119.584V61.6063H123.016V58.1743Z" fill="white"/>
<path d="M123.016 61.6064H119.584V65.0384H123.016V61.6064Z" fill="white"/>
<path d="M123.016 65.0381H119.584V68.4701H123.016V65.0381Z" fill="white"/>
<path d="M123.016 68.4702H119.584V71.9022H123.016V68.4702Z" fill="white"/>
<path d="M123.016 78.7661H119.584V82.1981H123.016V78.7661Z" fill="white"/>
<path d="M123.016 89.062H119.584V92.494H123.016V89.062Z" fill="white"/>
<path d="M123.016 92.4941H119.584V95.9261H123.016V92.4941Z" fill="white"/>
<path d="M123.016 95.9263H119.584V99.3583H123.016V95.9263Z" fill="white"/>
<path d="M123.016 106.222H119.584V109.654H123.016V106.222Z" fill="white"/>
<path d="M123.016 109.654H119.584V113.086H123.016V109.654Z" fill="white"/>
<path d="M123.016 113.086H119.584V116.518H123.016V113.086Z" fill="white"/>
<path d="M123.016 119.95H119.584V123.382H123.016V119.95Z" fill="white"/>
<path d="M123.016 123.382H119.584V126.814H123.016V123.382Z" fill="white"/>
<path d="M123.016 130.246H119.584V133.678H123.016V130.246Z" fill="white"/>
<path d="M123.016 137.11H119.584V140.542H123.016V137.11Z" fill="white"/>
<path d="M123.016 150.838H119.584V154.27H123.016V150.838Z" fill="white"/>
<path d="M123.016 154.27H119.584V157.702H123.016V154.27Z" fill="white"/>
<path d="M123.016 157.702H119.584V161.134H123.016V157.702Z" fill="white"/>
<path d="M123.016 161.134H119.584V164.566H123.016V161.134Z" fill="white"/>
<path d="M126.448 23.854H123.016V27.286H126.448V23.854Z" fill="white"/>
<path d="M126.448 27.2861H123.016V30.7181H126.448V27.2861Z" fill="white"/>
<path d="M126.448 30.7183H123.016V34.1503H126.448V30.7183Z" fill="white"/>
<path d="M126.448 34.1504H123.016V37.5824H126.448V34.1504Z" fill="white"/>
<path d="M126.448 51.3101H123.016V54.7421H126.448V51.3101Z" fill="white"/>
<path d="M126.448 58.1743H123.016V61.6063H126.448V58.1743Z" fill="white"/>
<path d="M126.448 61.6064H123.016V65.0384H126.448V61.6064Z" fill="white"/>
<path d="M126.448 68.4702H123.016V71.9022H126.448V68.4702Z" fill="white"/>
<path d="M126.448 82.1982H123.016V85.6302H126.448V82.1982Z" fill="white"/>
<path d="M126.448 116.518H123.016V119.95H126.448V116.518Z" fill="white"/>
<path d="M126.448 123.382H123.016V126.814H126.448V123.382Z" fill="white"/>
<path d="M126.448 126.814H123.016V130.246H126.448V126.814Z" fill="white"/>
<path d="M126.448 133.678H123.016V137.11H126.448V133.678Z" fill="white"/>
<path d="M126.448 137.11H123.016V140.542H126.448V137.11Z" fill="white"/>
<path d="M126.448 147.406H123.016V150.838H126.448V147.406Z" fill="white"/>
<path d="M126.448 150.838H123.016V154.27H126.448V150.838Z" fill="white"/>
<path d="M126.448 154.27H123.016V157.702H126.448V154.27Z" fill="white"/>
<path d="M126.448 157.702H123.016V161.134H126.448V157.702Z" fill="white"/>
<path d="M126.448 161.134H123.016V164.566H126.448V161.134Z" fill="white"/>
<path d="M129.88 23.854H126.448V27.286H129.88V23.854Z" fill="white"/>
<path d="M129.88 30.7183H126.448V34.1503H129.88V30.7183Z" fill="white"/>
<path d="M129.88 34.1504H126.448V37.5824H129.88V34.1504Z" fill="white"/>
<path d="M129.88 41.0142H126.448V44.4462H129.88V41.0142Z" fill="white"/>
<path d="M129.88 44.4463H126.448V47.8783H129.88V44.4463Z" fill="white"/>
<path d="M129.88 51.3101H126.448V54.7421H129.88V51.3101Z" fill="white"/>
<path d="M129.88 54.7422H126.448V58.1742H129.88V54.7422Z" fill="white"/>
<path d="M129.88 58.1743H126.448V61.6063H129.88V58.1743Z" fill="white"/>
<path d="M129.88 71.9023H126.448V75.3343H129.88V71.9023Z" fill="white"/>
<path d="M129.88 75.334H126.448V78.766H129.88V75.334Z" fill="white"/>
<path d="M129.88 85.6304H126.448V89.0624H129.88V85.6304Z" fill="white"/>
<path d="M129.88 102.79H126.448V106.222H129.88V102.79Z" fill="white"/>
<path d="M129.88 106.222H126.448V109.654H129.88V106.222Z" fill="white"/>
<path d="M129.88 109.654H126.448V113.086H129.88V109.654Z" fill="white"/>
<path d="M129.88 116.518H126.448V119.95H129.88V116.518Z" fill="white"/>
<path d="M129.88 119.95H126.448V123.382H129.88V119.95Z" fill="white"/>
<path d="M129.88 130.246H126.448V133.678H129.88V130.246Z" fill="white"/>
<path d="M129.88 137.11H126.448V140.542H129.88V137.11Z" fill="white"/>
<path d="M129.88 140.542H126.448V143.974H129.88V140.542Z" fill="white"/>
<path d="M129.88 143.974H126.448V147.406H129.88V143.974Z" fill="white"/>
<path d="M129.88 147.406H126.448V150.838H129.88V147.406Z" fill="white"/>
<path d="M129.88 150.838H126.448V154.27H129.88V150.838Z" fill="white"/>
<path d="M129.88 154.27H126.448V157.702H129.88V154.27Z" fill="white"/>
<path d="M133.312 23.854H129.88V27.286H133.312V23.854Z" fill="white"/>
<path d="M133.312 30.7183H129.88V34.1503H133.312V30.7183Z" fill="white"/>
<path d="M133.312 37.582H129.88V41.014H133.312V37.582Z" fill="white"/>
<path d="M133.312 51.3101H129.88V54.7421H133.312V51.3101Z" fill="white"/>
<path d="M133.312 54.7422H129.88V58.1742H133.312V54.7422Z" fill="white"/>
<path d="M133.312 58.1743H129.88V61.6063H133.312V58.1743Z" fill="white"/>
<path d="M133.312 71.9023H129.88V75.3343H133.312V71.9023Z" fill="white"/>
<path d="M133.312 75.334H129.88V78.766H133.312V75.334Z" fill="white"/>
<path d="M133.312 89.062H129.88V92.494H133.312V89.062Z" fill="white"/>
<path d="M133.312 92.4941H129.88V95.9261H133.312V92.4941Z" fill="white"/>
<path d="M133.312 102.79H129.88V106.222H133.312V102.79Z" fill="white"/>
<path d="M133.312 116.518H129.88V119.95H133.312V116.518Z" fill="white"/>
<path d="M133.312 130.246H129.88V133.678H133.312V130.246Z" fill="white"/>
<path d="M133.312 133.678H129.88V137.11H133.312V133.678Z" fill="white"/>
<path d="M133.312 137.11H129.88V140.542H133.312V137.11Z" fill="white"/>
<path d="M133.312 140.542H129.88V143.974H133.312V140.542Z" fill="white"/>
<path d="M133.312 143.974H129.88V147.406H133.312V143.974Z" fill="white"/>
<path d="M133.312 150.838H129.88V154.27H133.312V150.838Z" fill="white"/>
<path d="M133.312 161.134H129.88V164.566H133.312V161.134Z" fill="white"/>
<path d="M136.744 23.854H133.312V27.286H136.744V23.854Z" fill="white"/>
<path d="M136.744 30.7183H133.312V34.1503H136.744V30.7183Z" fill="white"/>
<path d="M136.744 41.0142H133.312V44.4462H136.744V41.0142Z" fill="white"/>
<path d="M136.744 44.4463H133.312V47.8783H136.744V44.4463Z" fill="white"/>
<path d="M136.744 47.8784H133.312V51.3104H136.744V47.8784Z" fill="white"/>
<path d="M136.744 51.3101H133.312V54.7421H136.744V51.3101Z" fill="white"/>
<path d="M136.744 58.1743H133.312V61.6063H136.744V58.1743Z" fill="white"/>
<path d="M136.744 82.1982H133.312V85.6302H136.744V82.1982Z" fill="white"/>
<path d="M136.744 99.3584H133.312V102.79H136.744V99.3584Z" fill="white"/>
<path d="M136.744 102.79H133.312V106.222H136.744V102.79Z" fill="white"/>
<path d="M136.744 106.222H133.312V109.654H136.744V106.222Z" fill="white"/>
<path d="M136.744 109.654H133.312V113.086H136.744V109.654Z" fill="white"/>
<path d="M136.744 113.086H133.312V116.518H136.744V113.086Z" fill="white"/>
<path d="M136.744 116.518H133.312V119.95H136.744V116.518Z" fill="white"/>
<path d="M136.744 123.382H133.312V126.814H136.744V123.382Z" fill="white"/>
<path d="M136.744 130.246H133.312V133.678H136.744V130.246Z" fill="white"/>
<path d="M136.744 133.678H133.312V137.11H136.744V133.678Z" fill="white"/>
<path d="M136.744 137.11H133.312V140.542H136.744V137.11Z" fill="white"/>
<path d="M136.744 140.542H133.312V143.974H136.744V140.542Z" fill="white"/>
<path d="M136.744 143.974H133.312V147.406H136.744V143.974Z" fill="white"/>
<path d="M136.744 147.406H133.312V150.838H136.744V147.406Z" fill="white"/>
<path d="M136.744 154.27H133.312V157.702H136.744V154.27Z" fill="white"/>
<path d="M140.176 51.3101H136.744V54.7421H140.176V51.3101Z" fill="white"/>
<path d="M140.176 54.7422H136.744V58.1742H140.176V54.7422Z" fill="white"/>
<path d="M140.176 61.6064H136.744V65.0384H140.176V61.6064Z" fill="white"/>
<path d="M140.176 65.0381H136.744V68.4701H140.176V65.0381Z" fill="white"/>
<path d="M140.176 68.4702H136.744V71.9022H140.176V68.4702Z" fill="white"/>
<path d="M140.176 75.334H136.744V78.766H140.176V75.334Z" fill="white"/>
<path d="M140.176 82.1982H136.744V85.6302H140.176V82.1982Z" fill="white"/>
<path d="M140.176 85.6304H136.744V89.0624H140.176V85.6304Z" fill="white"/>
<path d="M140.176 95.9263H136.744V99.3583H140.176V95.9263Z" fill="white"/>
<path d="M140.176 102.79H136.744V106.222H140.176V102.79Z" fill="white"/>
<path d="M140.176 119.95H136.744V123.382H140.176V119.95Z" fill="white"/>
<path d="M140.176 123.382H136.744V126.814H140.176V123.382Z" fill="white"/>
<path d="M140.176 126.814H136.744V130.246H140.176V126.814Z" fill="white"/>
<path d="M140.176 130.246H136.744V133.678H140.176V130.246Z" fill="white"/>
<path d="M140.176 133.678H136.744V137.11H140.176V133.678Z" fill="white"/>
<path d="M140.176 147.406H136.744V150.838H140.176V147.406Z" fill="white"/>
<path d="M140.176 150.838H136.744V154.27H140.176V150.838Z" fill="white"/>
<path d="M140.176 157.702H136.744V161.134H140.176V157.702Z" fill="white"/>
<path d="M140.176 161.134H136.744V164.566H140.176V161.134Z" fill="white"/>
<path d="M143.608 51.3101H140.176V54.7421H143.608V51.3101Z" fill="white"/>
<path d="M143.608 54.7422H140.176V58.1742H143.608V54.7422Z" fill="white"/>
<path d="M143.608 65.0381H140.176V68.4701H143.608V65.0381Z" fill="white"/>
<path d="M143.608 71.9023H140.176V75.3343H143.608V71.9023Z" fill="white"/>
<path d="M143.608 78.7661H140.176V82.1981H143.608V78.7661Z" fill="white"/>
<path d="M143.608 82.1982H140.176V85.6302H143.608V82.1982Z" fill="white"/>
<path d="M143.608 89.062H140.176V92.494H143.608V89.062Z" fill="white"/>
<path d="M143.608 95.9263H140.176V99.3583H143.608V95.9263Z" fill="white"/>
<path d="M143.608 116.518H140.176V119.95H143.608V116.518Z" fill="white"/>
<path d="M143.608 123.382H140.176V126.814H143.608V123.382Z" fill="white"/>
<path d="M143.608 130.246H140.176V133.678H143.608V130.246Z" fill="white"/>
<path d="M143.608 133.678H140.176V137.11H143.608V133.678Z" fill="white"/>
<path d="M143.608 140.542H140.176V143.974H143.608V140.542Z" fill="white"/>
<path d="M143.608 147.406H140.176V150.838H143.608V147.406Z" fill="white"/>
<path d="M143.608 150.838H140.176V154.27H143.608V150.838Z" fill="white"/>
<path d="M143.608 157.702H140.176V161.134H143.608V157.702Z" fill="white"/>
<path d="M147.04 51.3101H143.608V54.7421H147.04V51.3101Z" fill="white"/>
<path d="M147.04 54.7422H143.608V58.1742H147.04V54.7422Z" fill="white"/>
<path d="M147.04 68.4702H143.608V71.9022H147.04V68.4702Z" fill="white"/>
<path d="M147.04 71.9023H143.608V75.3343H147.04V71.9023Z" fill="white"/>
<path d="M147.04 75.334H143.608V78.766H147.04V75.334Z" fill="white"/>
<path d="M147.04 82.1982H143.608V85.6302H147.04V82.1982Z" fill="white"/>
<path d="M147.04 106.222H143.608V109.654H147.04V106.222Z" fill="white"/>
<path d="M147.04 113.086H143.608V116.518H147.04V113.086Z" fill="white"/>
<path d="M147.04 119.95H143.608V123.382H147.04V119.95Z" fill="white"/>
<path d="M147.04 123.382H143.608V126.814H147.04V123.382Z" fill="white"/>
<path d="M147.04 126.814H143.608V130.246H147.04V126.814Z" fill="white"/>
<path d="M147.04 130.246H143.608V133.678H147.04V130.246Z" fill="white"/>
<path d="M147.04 133.678H143.608V137.11H147.04V133.678Z" fill="white"/>
<path d="M147.04 147.406H143.608V150.838H147.04V147.406Z" fill="white"/>
<path d="M147.04 150.838H143.608V154.27H147.04V150.838Z" fill="white"/>
<path d="M147.04 157.702H143.608V161.134H147.04V157.702Z" fill="white"/>
<path d="M150.472 51.3101H147.04V54.7421H150.472V51.3101Z" fill="white"/>
<path d="M150.472 54.7422H147.04V58.1742H150.472V54.7422Z" fill="white"/>
<path d="M150.472 58.1743H147.04V61.6063H150.472V58.1743Z" fill="white"/>
<path d="M150.472 65.0381H147.04V68.4701H150.472V65.0381Z" fill="white"/>
<path d="M150.472 68.4702H147.04V71.9022H150.472V68.4702Z" fill="white"/>
<path d="M150.472 75.334H147.04V78.766H150.472V75.334Z" fill="white"/>
<path d="M150.472 78.7661H147.04V82.1981H150.472V78.7661Z" fill="white"/>
<path d="M150.472 82.1982H147.04V85.6302H150.472V82.1982Z" fill="white"/>
<path d="M150.472 85.6304H147.04V89.0624H150.472V85.6304Z" fill="white"/>
<path d="M150.472 95.9263H147.04V99.3583H150.472V95.9263Z" fill="white"/>
<path d="M150.472 99.3584H147.04V102.79H150.472V99.3584Z" fill="white"/>
<path d="M150.472 106.222H147.04V109.654H150.472V106.222Z" fill="white"/>
<path d="M150.472 116.518H147.04V119.95H150.472V116.518Z" fill="white"/>
<path d="M150.472 133.678H147.04V137.11H150.472V133.678Z" fill="white"/>
<path d="M150.472 137.11H147.04V140.542H150.472V137.11Z" fill="white"/>
<path d="M150.472 140.542H147.04V143.974H150.472V140.542Z" fill="white"/>
<path d="M150.472 143.974H147.04V147.406H150.472V143.974Z" fill="white"/>
<path d="M150.472 147.406H147.04V150.838H150.472V147.406Z" fill="white"/>
<path d="M150.472 154.27H147.04V157.702H150.472V154.27Z" fill="white"/>
<path d="M153.904 51.3101H150.472V54.7421H153.904V51.3101Z" fill="white"/>
<path d="M153.904 65.0381H150.472V68.4701H153.904V65.0381Z" fill="white"/>
<path d="M153.904 68.4702H150.472V71.9022H153.904V68.4702Z" fill="white"/>
<path d="M153.904 71.9023H150.472V75.3343H153.904V71.9023Z" fill="white"/>
<path d="M153.904 78.7661H150.472V82.1981H153.904V78.7661Z" fill="white"/>
<path d="M153.904 82.1982H150.472V85.6302H153.904V82.1982Z" fill="white"/>
<path d="M153.904 89.062H150.472V92.494H153.904V89.062Z" fill="white"/>
<path d="M153.904 102.79H150.472V106.222H153.904V102.79Z" fill="white"/>
<path d="M153.904 113.086H150.472V116.518H153.904V113.086Z" fill="white"/>
<path d="M153.904 119.95H150.472V123.382H153.904V119.95Z" fill="white"/>
<path d="M153.904 126.814H150.472V130.246H153.904V126.814Z" fill="white"/>
<path d="M153.904 137.11H150.472V140.542H153.904V137.11Z" fill="white"/>
<path d="M153.904 143.974H150.472V147.406H153.904V143.974Z" fill="white"/>
<path d="M153.904 150.838H150.472V154.27H153.904V150.838Z" fill="white"/>
<path d="M153.904 154.27H150.472V157.702H153.904V154.27Z" fill="white"/>
<path d="M153.904 161.134H150.472V164.566H153.904V161.134Z" fill="white"/>
<path d="M157.336 51.3101H153.904V54.7421H157.336V51.3101Z" fill="white"/>
<path d="M157.336 54.7422H153.904V58.1742H157.336V54.7422Z" fill="white"/>
<path d="M157.336 61.6064H153.904V65.0384H157.336V61.6064Z" fill="white"/>
<path d="M157.336 65.0381H153.904V68.4701H157.336V65.0381Z" fill="white"/>
<path d="M157.336 71.9023H153.904V75.3343H157.336V71.9023Z" fill="white"/>
<path d="M157.336 78.7661H153.904V82.1981H157.336V78.7661Z" fill="white"/>
<path d="M157.336 99.3584H153.904V102.79H157.336V99.3584Z" fill="white"/>
<path d="M157.336 113.086H153.904V116.518H157.336V113.086Z" fill="white"/>
<path d="M157.336 116.518H153.904V119.95H157.336V116.518Z" fill="white"/>
<path d="M157.336 119.95H153.904V123.382H157.336V119.95Z" fill="white"/>
<path d="M157.336 126.814H153.904V130.246H157.336V126.814Z" fill="white"/>
<path d="M157.336 130.246H153.904V133.678H157.336V130.246Z" fill="white"/>
<path d="M157.336 137.11H153.904V140.542H157.336V137.11Z" fill="white"/>
<path d="M157.336 140.542H153.904V143.974H157.336V140.542Z" fill="white"/>
<path d="M157.336 143.974H153.904V147.406H157.336V143.974Z" fill="white"/>
<path d="M157.336 147.406H153.904V150.838H157.336V147.406Z" fill="white"/>
<path d="M157.336 157.702H153.904V161.134H157.336V157.702Z" fill="white"/>
<path d="M160.768 51.3101H157.336V54.7421H160.768V51.3101Z" fill="white"/>
<path d="M160.768 78.7661H157.336V82.1981H160.768V78.7661Z" fill="white"/>
<path d="M160.768 89.062H157.336V92.494H160.768V89.062Z" fill="white"/>
<path d="M160.768 92.4941H157.336V95.9261H160.768V92.4941Z" fill="white"/>
<path d="M160.768 95.9263H157.336V99.3583H160.768V95.9263Z" fill="white"/>
<path d="M160.768 102.79H157.336V106.222H160.768V102.79Z" fill="white"/>
<path d="M160.768 113.086H157.336V116.518H160.768V113.086Z" fill="white"/>
<path d="M160.768 116.518H157.336V119.95H160.768V116.518Z" fill="white"/>
<path d="M160.768 126.814H157.336V130.246H160.768V126.814Z" fill="white"/>
<path d="M160.768 130.246H157.336V133.678H160.768V130.246Z" fill="white"/>
<path d="M160.768 133.678H157.336V137.11H160.768V133.678Z" fill="white"/>
<path d="M160.768 140.542H157.336V143.974H160.768V140.542Z" fill="white"/>
<path d="M160.768 147.406H157.336V150.838H160.768V147.406Z" fill="white"/>
<path d="M160.768 150.838H157.336V154.27H160.768V150.838Z" fill="white"/>
<path d="M160.768 157.702H157.336V161.134H160.768V157.702Z" fill="white"/>
<path d="M164.2 58.1743H160.768V61.6063H164.2V58.1743Z" fill="white"/>
<path d="M164.2 61.6064H160.768V65.0384H164.2V61.6064Z" fill="white"/>
<path d="M164.2 71.9023H160.768V75.3343H164.2V71.9023Z" fill="white"/>
<path d="M164.2 75.334H160.768V78.766H164.2V75.334Z" fill="white"/>
<path d="M164.2 82.1982H160.768V85.6302H164.2V82.1982Z" fill="white"/>
<path d="M164.2 89.062H160.768V92.494H164.2V89.062Z" fill="white"/>
<path d="M164.2 99.3584H160.768V102.79H164.2V99.3584Z" fill="white"/>
<path d="M164.2 109.654H160.768V113.086H164.2V109.654Z" fill="white"/>
<path d="M164.2 113.086H160.768V116.518H164.2V113.086Z" fill="white"/>
<path d="M164.2 123.382H160.768V126.814H164.2V123.382Z" fill="white"/>
<path d="M164.2 126.814H160.768V130.246H164.2V126.814Z" fill="white"/>
<path d="M164.2 130.246H160.768V133.678H164.2V130.246Z" fill="white"/>
<path d="M164.2 137.11H160.768V140.542H164.2V137.11Z" fill="white"/>
<path d="M164.2 143.974H160.768V147.406H164.2V143.974Z" fill="white"/>
<path d="M164.2 147.406H160.768V150.838H164.2V147.406Z" fill="white"/>
<path d="M164.2 154.27H160.768V157.702H164.2V154.27Z" fill="white"/>
<path fill-rule="evenodd" clip-rule="evenodd" d="M23.488 23.854V47.878H47.512V23.854H23.488ZM26.92 27.286H44.08V44.446H26.92V27.286Z" fill="white"/>
<path d="M40.6481 30.7183H30.3521V41.0143H40.6481V30.7183Z" fill="white"/>
<path fill-rule="evenodd" clip-rule="evenodd" d="M164.2 23.854H140.176V47.878H164.2V23.854ZM160.768 27.286V44.446H143.608V27.286H160.768Z" fill="white"/>
<path d="M157.336 41.0143V30.7183H147.04V41.0143H157.336Z" fill="white"/>
<path fill-rule="evenodd" clip-rule="evenodd" d="M23.488 164.566H47.512V140.542H23.488V164.566ZM26.92 161.134V143.974H44.08V161.134H26.92Z" fill="white"/>
<path d="M30.3521 147.406V157.702H40.6481V147.406H30.3521Z" fill="white"/>
</mask>
<g mask="url(#mask0_6385_26134)">
<path d="M172 16.3662H16V172.366H172V16.3662Z" fill="black"/>
</g>
</g>
</g>
<rect x="8" y="8.36621" width="172" height="172" stroke="#EBEBEB" stroke-width="16"/>
<defs>
<clipPath id="clip0_6385_26134">
<rect x="16" y="16.3662" width="156" height="156" fill="white"/>
</clipPath>
<clipPath id="clip1_6385_26134">
<rect width="156" height="156" fill="white" transform="translate(16 16.3662)"/>
</clipPath>
</defs>
</svg>
