<svg width="130" height="20" viewBox="0 0 130 20" fill="none" xmlns="http://www.w3.org/2000/svg">
<path d="M70.5762 10.1449C70.0726 9.65545 69.5119 8.79064 69.6687 7.4364C69.8302 5.97762 70.9754 5.18883 70.9754 5.18883L77.6848 0.071228C77.9557 0.365835 77.7038 0.603421 77.9604 0.879021C78.2455 1.18788 78.4974 0.921786 78.7635 1.21639C79.0391 1.511 78.7587 1.74383 79.0105 2.01943C79.2957 2.3283 79.5427 2.0622 79.8183 2.35681C80.0892 2.64666 79.8041 2.86999 80.0607 3.1551C80.3315 3.4497 80.5976 3.21687 80.8685 3.51147L75.3612 7.8593L81.0015 13.3618L77.452 16.8401L70.5762 10.1734" fill="black"/>
<path d="M84.152 1.93393C84.2233 1.02635 83.5485 0.237564 82.641 0.161537C81.7381 0.0902609 80.9446 0.765005 80.8733 1.67258C80.8021 2.58016 81.4768 3.3737 82.3844 3.44498C83.2872 3.51625 84.0807 2.84151 84.152 1.93393Z" fill="black"/>
<path d="M84.1518 6.25321C84.223 5.34563 83.5483 4.55685 82.6407 4.48557C81.7379 4.4143 80.9444 5.08904 80.8731 5.99662C80.8018 6.89945 81.4765 7.69298 82.3841 7.76426C83.287 7.83554 84.0805 7.16079 84.1518 6.25321Z" fill="black"/>
<path d="M111.712 3.76813C111.712 3.43551 112.011 3.43076 112.011 3.11714C112.011 2.77027 111.712 2.81303 111.712 2.48517C111.712 2.1573 111.978 2.11928 111.983 1.80092H106.143V5.42173V8.2395C105.967 8.2395 105.91 8.2395 105.844 8.2395C104.456 8.2395 103.225 8.90474 102.446 9.92636C102.265 10.1307 102.118 10.354 101.999 10.6059H101.885L102.959 5.69733H105.207C105.207 5.3457 104.936 5.38372 104.936 5.0511C104.936 4.71848 105.235 4.71372 105.235 4.40486C105.235 4.05799 104.936 4.10075 104.936 3.77288C104.936 3.44501 105.235 3.43551 105.235 3.1219C105.235 2.77502 104.936 2.81779 104.936 2.48992C104.936 2.16205 105.202 2.12404 105.207 1.80567H103.815L104.19 0.104553H100.151L99.7756 1.81042H97.376V5.70208H98.925L97.395 12.6539H101.591C101.672 14.9347 103.544 16.7593 105.844 16.7593C108.143 16.7593 110.101 14.8539 110.101 12.5018C110.101 12.3735 110.096 12.25 110.082 12.1217H111.983C111.983 11.7748 111.707 11.808 111.707 11.4802C111.707 11.1523 112.007 11.1381 112.007 10.8292C112.007 10.4823 111.707 10.5251 111.707 10.1972C111.707 9.86934 112.007 9.85509 112.007 9.54623C112.007 9.2041 111.707 9.24687 111.707 8.91425C111.707 8.58163 111.973 8.54836 111.978 8.23H109.959V5.70208H111.978C111.978 5.35045 111.702 5.38847 111.702 5.05585C111.702 4.72323 112.002 4.71848 112.002 4.40961C112.002 4.06274 111.702 4.1055 111.702 3.77763L111.712 3.76813ZM105.844 13.7705C105.14 13.7705 104.565 13.1955 104.565 12.4923C104.565 11.789 105.136 11.2141 105.844 11.2141C106.552 11.2141 107.122 11.789 107.122 12.4923C107.122 13.1955 106.547 13.7705 105.844 13.7705Z" fill="black"/>
<path d="M122.66 2.20476C122.66 1.33044 123.368 0.622437 124.242 0.622437C125.117 0.622437 125.825 1.33519 125.825 2.20476C125.825 3.07433 125.117 3.78708 124.242 3.78708C123.368 3.78708 122.66 3.07908 122.66 2.20476Z" fill="black"/>
<path d="M128.362 3.78708C129.236 3.78708 129.944 3.07908 129.944 2.20476C129.944 1.33044 129.236 0.622437 128.362 0.622437C127.488 0.622437 126.78 1.33519 126.78 2.20476C126.78 3.07433 127.488 3.78708 128.362 3.78708Z" fill="black"/>
<path d="M127.654 6.59064C127.654 6.25327 127.958 6.24852 127.958 5.9349C127.958 5.58327 127.654 5.63079 127.654 5.29342C127.654 4.95605 127.925 4.92754 127.929 4.60442H122.636L120.45 8.35353C121.301 8.74792 121.89 9.60323 121.89 10.6058C121.89 11.9743 120.783 13.0862 119.414 13.0862C118.046 13.0862 116.934 11.9743 116.934 10.6058C116.934 9.46068 117.709 8.50558 118.759 8.21573L120.849 4.59492H120.845L121.633 3.25493L115.599 0C115.423 0.30411 115.675 0.4134 115.509 0.698503C115.337 0.988358 115.071 0.841055 114.915 1.10715C114.739 1.41126 115.019 1.5253 114.853 1.81041C114.682 2.10026 114.416 1.95296 114.259 2.22381C114.083 2.52316 114.363 2.64196 114.197 2.92706C114.031 3.20741 113.779 3.10763 113.613 3.38323L116.996 5.07009C114.819 6.00143 113.294 8.15871 113.294 10.6771C113.294 14.0413 116.022 16.7641 119.386 16.7641C122.75 16.7641 125.473 14.0413 125.473 10.6771C125.473 9.91685 125.335 9.18983 125.078 8.51984L127.934 8.53409C127.934 8.18247 127.659 8.21573 127.659 7.88786C127.659 7.55999 127.963 7.54098 127.963 7.23212C127.963 6.88049 127.659 6.92801 127.659 6.59539L127.654 6.59064Z" fill="black"/>
<path d="M88.7043 9.01882C86.7561 9.01882 85.3971 10.2115 85.0265 11.8556C84.9029 12.3498 84.7129 13.5092 85.3116 14.5261C85.6347 15.2008 86.1764 15.7663 86.8559 16.1369C87.3928 16.4363 88.5332 16.9209 90.1678 16.7926C90.8711 16.7689 91.6504 16.5836 92.5104 16.2177C95.8461 14.7969 97.3097 11.1476 95.7796 8.05422C95.2284 6.94707 94.3684 6.068 93.3372 5.45027L94.5964 1.05493H93.3943H85.2165C85.2213 1.32103 85.5016 1.35904 85.5016 1.69166C85.5016 2.02428 85.188 1.98627 85.1833 2.3379C85.1833 2.65626 85.5016 2.66577 85.4969 3.00314C85.4969 3.34051 85.1833 3.29299 85.1833 3.64462C85.1833 3.96299 85.4969 3.96774 85.4969 4.30986C85.4969 4.65199 85.2118 4.60447 85.2118 4.96085H89.322L88.2576 8.10174C90.4007 7.94018 92.4534 8.87151 92.5104 10.853L92.4392 10.8862C92.1921 10.2543 91.1467 9.01407 88.6996 9.01407L88.7043 9.01882ZM88.8991 13.9939C88.1579 13.9939 87.5591 13.4047 87.5591 12.6871C87.5591 11.9649 88.1626 11.3852 88.9039 11.3852C89.6451 11.3852 90.2439 11.9696 90.2439 12.6919C90.2439 13.4142 89.6404 13.9986 88.8991 13.9986V13.9939Z" fill="black"/>
<path d="M52.9285 16.8353H13.1946L16.3592 20L52.9285 16.8353Z" fill="#BF0000"/>
<path d="M16.8723 4.03417V4.5141C16.1358 4.04368 15.4706 3.77283 14.5677 3.77283C11.7832 3.77283 9.6687 6.31025 9.6687 9.42738C9.6687 12.5445 11.7832 15.0819 14.5677 15.0819C15.4753 15.0819 16.1358 14.8111 16.8723 14.3407V14.8206H19.3194V4.03892H16.8723V4.03417ZM14.5677 12.4827C13.1945 12.4827 12.1919 11.1332 12.1919 9.42262C12.1919 7.712 13.1992 6.36252 14.5677 6.36252C15.9362 6.36252 16.9103 7.71676 16.9103 9.42262C16.9103 11.1285 15.941 12.4827 14.5677 12.4827Z" fill="#BF0000"/>
<path d="M36.4779 4.03412V10.3682C36.4779 11.5561 35.6606 12.5587 34.4726 12.5587C33.2847 12.5587 32.4674 11.5561 32.4674 10.3682V4.03412H30.0203V10.3682C30.0203 12.9674 31.7974 15.0819 34.3966 15.0819C35.5988 15.0819 36.4779 14.4166 36.4779 14.4166V14.8158H38.925V4.03412H36.4779Z" fill="#BF0000"/>
<path d="M59.2767 14.8159V8.48184C59.2767 7.29391 60.094 6.29129 61.282 6.29129C62.4699 6.29129 63.2872 7.29391 63.2872 8.48184V14.8159H65.7343V8.48184C65.7343 5.88264 63.9572 3.76813 61.358 3.76813C60.1558 3.76813 59.2767 4.43337 59.2767 4.43337V4.03422H56.8296V14.8159H59.2767Z" fill="#BF0000"/>
<path d="M2.61709 14.8159V10.6391H4.42749L7.56363 14.8159H10.7663L6.97917 9.77428C8.15759 8.92848 8.93212 7.55048 8.93212 5.98716C8.93212 3.42598 6.84612 1.34473 4.28494 1.34473H0.0559082V14.8159H2.61709ZM2.61709 3.9059H4.28494C5.43486 3.9059 6.3757 4.84199 6.3757 5.99191C6.3757 7.14183 5.43486 8.08267 4.28494 8.08267H2.61709V3.9059Z" fill="#BF0000"/>
<path d="M45.5202 12.2642C45.3016 12.4115 45.0212 12.5303 44.7029 12.5303C44.3037 12.5303 43.5482 12.2262 43.5482 11.2093V6.59539H45.639V4.03421H43.5482V1.34949H41.1011V4.03421H39.8086V6.59539H41.1011V11.2473C41.1011 13.6564 42.9162 15.0915 44.7409 15.0915C45.4204 15.0915 46.366 14.8681 47.1357 14.412L45.5249 12.2642H45.5202Z" fill="#BF0000"/>
<path d="M25.4065 9.0853L29.6023 4.03422H26.1715L23.235 7.78808V0.456177H20.7166V14.8159H23.235V10.3873L26.8463 14.8159H30.2723L25.4065 9.0853Z" fill="#BF0000"/>
<path d="M51.1702 3.7586C48.3382 3.7586 46.3044 6.2485 46.3044 9.42265C46.3044 12.7631 48.8561 15.0867 51.4125 15.0867C52.705 15.0867 54.3586 14.6448 55.7461 12.6728L53.5841 11.4231C51.9115 13.8893 49.127 12.6348 48.8039 10.1734H55.8507C56.4541 6.30077 53.95 3.75385 51.1655 3.75385L51.1702 3.7586ZM53.3085 8.0304H48.8989C49.4121 5.50723 52.8286 5.35993 53.3085 8.0304Z" fill="#BF0000"/>
</svg>
