<svg width="156" height="24" viewBox="0 0 156 24" fill="none" xmlns="http://www.w3.org/2000/svg">
<path d="M84.6913 12.1748C84.0869 11.5875 83.4141 10.5497 83.6022 8.92463C83.7961 7.17409 85.1703 6.22755 85.1703 6.22755L93.2216 0.0864258C93.5466 0.439954 93.2444 0.725057 93.5524 1.05578C93.8945 1.42641 94.1967 1.1071 94.516 1.46062C94.8467 1.81415 94.5103 2.09355 94.8125 2.42427C95.1546 2.79491 95.4511 2.47559 95.7819 2.82912C96.1069 3.17695 95.7648 3.44494 96.0727 3.78707C96.3977 4.14059 96.717 3.86119 97.042 4.21472L90.4333 9.43211L97.2017 16.0351L92.9422 20.209L84.6913 12.209" fill="black"/>
<path d="M100.982 2.32167C101.068 1.23257 100.258 0.286029 99.1691 0.194796C98.0857 0.109265 97.1335 0.918959 97.0479 2.00805C96.9624 3.09715 97.7721 4.04939 98.8612 4.13492C99.9446 4.22046 100.897 3.41076 100.982 2.32167Z" fill="black"/>
<path d="M100.982 7.50481C101.067 6.41571 100.258 5.46917 99.1686 5.38364C98.0852 5.29811 97.133 6.1078 97.0475 7.1969C96.9619 8.28029 97.7716 9.23253 98.8607 9.31807C99.9441 9.4036 100.896 8.5939 100.982 7.50481Z" fill="black"/>
<path d="M134.054 4.52276C134.054 4.12361 134.413 4.11791 134.413 3.74157C134.413 3.32532 134.054 3.37664 134.054 2.9832C134.054 2.58976 134.373 2.54414 134.379 2.1621H127.371V6.50708V9.8884C127.16 9.8884 127.092 9.8884 127.012 9.8884C125.347 9.8884 123.87 10.6867 122.935 11.9126C122.718 12.1578 122.541 12.4258 122.399 12.728H122.262L123.551 6.8378H126.248C126.248 6.41584 125.923 6.46146 125.923 6.06232C125.923 5.66317 126.282 5.65747 126.282 5.28684C126.282 4.87058 125.923 4.9219 125.923 4.52846C125.923 4.13502 126.282 4.12361 126.282 3.74728C126.282 3.33103 125.923 3.38234 125.923 2.9889C125.923 2.59546 126.242 2.54984 126.248 2.1678H124.577L125.028 0.126465H120.181L119.73 2.17351H116.851V6.8435H118.71L116.874 15.1856H121.909C122.006 17.9226 124.252 20.1122 127.012 20.1122C129.772 20.1122 132.121 17.8257 132.121 15.0032C132.121 14.8492 132.115 14.7009 132.098 14.547H134.379C134.379 14.1307 134.048 14.1707 134.048 13.7772C134.048 13.3838 134.407 13.3667 134.407 12.996C134.407 12.5798 134.048 12.6311 134.048 12.2377C134.048 11.8442 134.407 11.8271 134.407 11.4565C134.407 11.0459 134.048 11.0972 134.048 10.6981C134.048 10.299 134.368 10.259 134.373 9.877H131.95V6.8435H134.373C134.373 6.42155 134.043 6.46716 134.043 6.06802C134.043 5.66887 134.402 5.66317 134.402 5.29254C134.402 4.87629 134.043 4.92761 134.043 4.53416L134.054 4.52276ZM127.012 16.5256C126.168 16.5256 125.478 15.8357 125.478 14.9918C125.478 14.1478 126.162 13.4579 127.012 13.4579C127.862 13.4579 128.546 14.1478 128.546 14.9918C128.546 15.8357 127.856 16.5256 127.012 16.5256Z" fill="black"/>
<path d="M147.192 2.64671C147.192 1.59753 148.041 0.747925 149.09 0.747925C150.14 0.747925 150.989 1.60323 150.989 2.64671C150.989 3.69019 150.14 4.5455 149.09 4.5455C148.041 4.5455 147.192 3.69589 147.192 2.64671Z" fill="black"/>
<path d="M154.034 4.5455C155.083 4.5455 155.933 3.69589 155.933 2.64671C155.933 1.59753 155.083 0.747925 154.034 0.747925C152.985 0.747925 152.135 1.60323 152.135 2.64671C152.135 3.69019 152.985 4.5455 154.034 4.5455Z" fill="black"/>
<path d="M153.185 7.90974C153.185 7.5049 153.549 7.49919 153.549 7.12286C153.549 6.70091 153.185 6.75793 153.185 6.35308C153.185 5.94823 153.51 5.91402 153.515 5.52628H147.163L144.54 10.0252C145.561 10.4985 146.268 11.5249 146.268 12.728C146.268 14.3702 144.939 15.7045 143.297 15.7045C141.655 15.7045 140.321 14.3702 140.321 12.728C140.321 11.3538 141.25 10.2077 142.51 9.85985L145.019 5.51488H145.013L145.96 3.90689L138.718 0.000976562C138.507 0.365909 138.81 0.497057 138.61 0.839181C138.405 1.18701 138.085 1.01024 137.897 1.32956C137.686 1.69449 138.023 1.83134 137.823 2.17346C137.618 2.52129 137.299 2.34453 137.11 2.66954C136.899 3.02877 137.236 3.17133 137.036 3.51345C136.837 3.84987 136.534 3.73013 136.335 4.06085L140.395 6.08508C137.783 7.20269 135.953 9.79143 135.953 12.8135C135.953 16.8506 139.226 20.1179 143.263 20.1179C147.3 20.1179 150.567 16.8506 150.567 12.8135C150.567 11.9012 150.402 11.0288 150.094 10.2248L153.521 10.2419C153.521 9.81994 153.19 9.85985 153.19 9.46641C153.19 9.07297 153.555 9.05016 153.555 8.67952C153.555 8.25757 153.19 8.31459 153.19 7.91545L153.185 7.90974Z" fill="black"/>
<path d="M106.445 10.8236C104.107 10.8236 102.476 12.2548 102.032 14.2277C101.883 14.8207 101.655 16.212 102.374 17.4323C102.761 18.242 103.412 18.9205 104.227 19.3653C104.871 19.7245 106.24 20.3061 108.201 20.1522C109.045 20.1236 109.98 19.9013 111.012 19.4622C115.015 17.7573 116.771 13.3781 114.935 9.66605C114.274 8.33747 113.242 7.28259 112.005 6.54132L113.516 1.26691H112.073H102.26C102.265 1.58622 102.602 1.63184 102.602 2.03098C102.602 2.43013 102.225 2.38451 102.22 2.80646C102.22 3.1885 102.602 3.19991 102.596 3.60475C102.596 4.0096 102.22 3.95258 102.22 4.37453C102.22 4.75657 102.596 4.76227 102.596 5.17282C102.596 5.58337 102.254 5.52635 102.254 5.95401H107.186L105.909 9.72307C108.481 9.5292 110.944 10.6468 111.012 13.0246L110.927 13.0645C110.63 12.3061 109.376 10.8179 106.439 10.8179L106.445 10.8236ZM106.679 16.7936C105.789 16.7936 105.071 16.0866 105.071 15.2256C105.071 14.3589 105.795 13.6632 106.685 13.6632C107.574 13.6632 108.292 14.3646 108.292 15.2313C108.292 16.098 107.568 16.7993 106.679 16.7993V16.7936Z" fill="black"/>
<path d="M63.5139 20.2034H15.8333L19.6308 24.0009L63.5139 20.2034Z" fill="#BF0000"/>
<path d="M20.2466 4.84199V5.4179C19.3628 4.8534 18.5645 4.52838 17.4811 4.52838C14.1397 4.52838 11.6023 7.57328 11.6023 11.3138C11.6023 15.0544 14.1397 18.0993 17.4811 18.0993C18.5702 18.0993 19.3628 17.7743 20.2466 17.2098V17.7857H23.1832V4.8477H20.2466V4.84199ZM17.4811 14.9803C15.8332 14.9803 14.6301 13.3609 14.6301 11.3081C14.6301 9.25539 15.8389 7.63601 17.4811 7.63601C19.1233 7.63601 20.2922 9.2611 20.2922 11.3081C20.2922 13.3552 19.129 14.9803 17.4811 14.9803Z" fill="#BF0000"/>
<path d="M43.7733 4.84192V12.4428C43.7733 13.8683 42.7925 15.0714 41.367 15.0714C39.9415 15.0714 38.9607 13.8683 38.9607 12.4428V4.84192H36.0242V12.4428C36.0242 15.5618 38.1567 18.0992 41.2758 18.0992C42.7184 18.0992 43.7733 17.3009 43.7733 17.3009V17.7799H46.7098V4.84192H43.7733Z" fill="#BF0000"/>
<path d="M71.1319 17.78V10.1792C71.1319 8.75364 72.1126 7.5505 73.5382 7.5505C74.9637 7.5505 75.9444 8.75364 75.9444 10.1792V17.78H78.881V10.1792C78.881 7.06013 76.7484 4.52271 73.6294 4.52271C72.1868 4.52271 71.1319 5.32099 71.1319 5.32099V4.84202H68.1953V17.78H71.1319Z" fill="#BF0000"/>
<path d="M3.14031 17.78V12.7679H5.3128L9.07616 17.78H12.9194L8.37481 11.7301C9.78892 10.7151 10.7184 9.06152 10.7184 7.18554C10.7184 4.11213 8.21515 1.61462 5.14173 1.61462H0.0668945V17.78H3.14031ZM3.14031 4.68804H5.14173C6.52163 4.68804 7.65064 5.81135 7.65064 7.19125C7.65064 8.57115 6.52163 9.70016 5.14173 9.70016H3.14031V4.68804Z" fill="#BF0000"/>
<path d="M54.6239 14.718C54.3616 14.8948 54.0252 15.0373 53.6431 15.0373C53.1642 15.0373 52.2575 14.6724 52.2575 13.4522V7.91544H54.7665V4.84203H52.2575V1.62036H49.321V4.84203H47.77V7.91544H49.321V13.4978C49.321 16.3887 51.4992 18.1107 53.6888 18.1107C54.5042 18.1107 55.6389 17.8427 56.5626 17.2953L54.6296 14.718H54.6239Z" fill="#BF0000"/>
<path d="M30.4876 10.9034L35.5225 4.84206H31.4056L27.8817 9.34669V0.548401H24.8596V17.78H27.8817V12.4657L32.2153 17.78H36.3265L30.4876 10.9034Z" fill="#BF0000"/>
<path d="M61.4041 4.51132C58.0057 4.51132 55.5652 7.4992 55.5652 11.3082C55.5652 15.3167 58.6272 18.105 61.6949 18.105C63.2459 18.105 65.2302 17.5748 66.8952 15.2084L64.3008 13.7088C62.2936 16.6681 58.9522 15.1628 58.5645 12.2091H67.0206C67.7448 7.56192 64.7398 4.50562 61.3984 4.50562L61.4041 4.51132ZM63.97 9.63748H58.6785C59.2943 6.60968 63.3941 6.43291 63.97 9.63748Z" fill="#BF0000"/>
</svg>
