<svg width="129" height="20" viewBox="0 0 129 20" fill="none" xmlns="http://www.w3.org/2000/svg">
<path d="M74.7732 1.60583C77.7361 1.60583 79.4361 2.82238 79.4361 4.86618C79.4361 6.56934 78.4647 7.6399 76.7161 7.88321C78.8532 8.36983 79.8733 9.34306 79.8733 11.0949C79.8733 13.4307 78.2218 14.7445 75.3075 14.7445H71.5188V1.60583H74.7732ZM72.976 7.20194H74.5789C76.6675 7.20194 77.8332 6.42335 77.8332 5.06082C77.8332 3.60097 76.9589 3.01703 74.676 3.01703H72.976V7.20194ZM72.976 13.2847H75.0646C77.2018 13.2847 78.2704 12.5061 78.2704 10.9489C78.2704 9.48905 76.9103 8.56447 74.6274 8.56447H72.9274V13.2847H72.976Z" fill="#FF41BE"/>
<path d="M82.3505 3.01703V7.20194H87.4992V8.61313H82.3505V13.3333H88.1306V14.7445H80.8447V1.60583H87.9849V3.01703H82.3505V3.01703Z" fill="#FF41BE"/>
<path d="M96.3393 11.5815H91.5792L90.5592 14.6959H88.9077L93.1821 1.60583H94.6878L98.9622 14.6959H97.3108L96.3393 11.5815ZM95.9507 10.1703L93.9593 3.69829L91.9678 10.1703H95.9507Z" fill="#FF41BE"/>
<path d="M108.482 9.82968C108.482 13.1387 106.928 14.9878 104.062 14.9878C101.196 14.9878 99.6421 13.1873 99.6421 9.82968V1.60583H101.148V9.73236C101.148 12.1654 102.216 13.5766 104.111 13.5766C105.957 13.5766 107.074 12.1654 107.074 9.73236V1.60583H108.579V9.82968H108.482Z" fill="#FF41BE"/>
<path d="M114.603 2.9197V14.6959H113.097V2.9197H109.357V1.60583H118.343V2.9197H114.603Z" fill="#FF41BE"/>
<path d="M124.657 9.34306V14.7445H123.151V9.34306L119.071 1.60583H120.723L123.929 7.83455L127.134 1.60583H128.786L124.657 9.34306Z" fill="#FF41BE"/>
<path d="M54.2755 16.7883H13.6204L16.8747 20L54.2755 16.7883Z" fill="#FF41BE"/>
<path d="M17.4091 3.64958V4.13619C16.632 3.64958 16.0005 3.35761 15.0291 3.35761C12.1633 3.35761 10.0261 5.93668 10.0261 9.14836C10.0261 12.36 12.2119 14.9391 15.0291 14.9391C15.952 14.9391 16.632 14.6471 17.4091 14.1605V14.6471H19.8863V3.64958H17.4091ZM15.0291 12.3114C13.6205 12.3114 12.6005 10.9488 12.6005 9.19702C12.6005 7.4452 13.6205 6.08267 15.0291 6.08267C16.4377 6.08267 17.4091 7.4452 17.4091 9.19702C17.4577 10.9488 16.4377 12.3114 15.0291 12.3114Z" fill="#FF41BE"/>
<path d="M37.421 3.64966V10.1217C37.421 11.3382 36.5953 12.3601 35.381 12.3601C34.1667 12.3601 33.341 11.3382 33.341 10.1217V3.64966H30.8152V10.1217C30.8152 12.7981 32.6124 14.9392 35.2839 14.9392C36.4982 14.9392 37.421 14.2579 37.421 14.2579V14.6472H39.9468V3.64966H37.421Z" fill="#FF41BE"/>
<path d="M60.7357 14.6958V8.22383C60.7357 7.00728 61.5615 5.98539 62.7758 5.98539C63.9901 5.98539 64.8158 7.00728 64.8158 8.22383V14.6958H67.3416V8.22383C67.3416 5.54743 65.5444 3.40631 62.8729 3.40631C61.6586 3.40631 60.7357 4.08758 60.7357 4.08758V3.64962H58.21V14.6958H60.7357Z" fill="#FF41BE"/>
<path d="M2.83727 14.6472V10.4136H4.68303L7.88881 14.6959H11.1432L7.25737 9.53772C8.47168 8.6618 9.24884 7.25061 9.24884 5.64477C9.24884 3.01703 7.11165 0.875916 4.48874 0.875916H0.214355V14.6472H2.83727ZM2.83727 3.55231H4.53731C5.70305 3.55231 6.6745 4.52555 6.6745 5.69343C6.6745 6.86132 5.70305 7.83455 4.53731 7.83455H2.83727V3.55231Z" fill="#FF41BE"/>
<path d="M46.6983 12.1168C46.4555 12.2628 46.2126 12.4088 45.8726 12.4088C45.484 12.4088 44.7069 12.1168 44.7069 11.0462V6.32604H46.844V3.64964H44.7069V0.875916H42.1811V3.64964H40.8696V6.27737H42.1811V11.0462C42.1811 13.528 44.0268 14.9878 45.9212 14.9878C46.6012 14.9878 47.5726 14.7445 48.3498 14.3066L46.6983 12.1168Z" fill="#FF41BE"/>
<path d="M26.1034 8.85645L30.4263 3.64964H26.9291L23.9176 7.49392V0H21.3433V14.6959H23.9176V10.1703L27.6091 14.6959H31.1063L26.1034 8.85645Z" fill="#FF41BE"/>
<path d="M52.4783 3.40631C49.564 3.40631 47.5239 5.93672 47.5239 9.19706C47.5239 12.6034 50.1468 14.9878 52.7212 14.9878C54.0326 14.9878 55.7327 14.5499 57.1413 12.5061L54.9555 11.2409C53.2555 13.7713 50.3897 12.5061 50.0497 9.97565H57.2384C57.8699 5.98539 55.2955 3.40631 52.4783 3.40631ZM54.6641 7.73721H50.1468C50.6811 5.15814 54.1784 5.01215 54.6641 7.73721Z" fill="#FF41BE"/>
</svg>
