<svg width="155" height="24" viewBox="0 0 155 24" fill="none" xmlns="http://www.w3.org/2000/svg">
<path d="M89.8277 1.92798C93.3832 1.92798 95.4233 3.38783 95.4233 5.84039C95.4233 7.88418 94.2575 9.16886 92.1592 9.46083C94.7238 10.0448 95.9479 11.2127 95.9479 13.3148C95.9479 16.1178 93.9661 17.6944 90.4689 17.6944H85.9225V1.92798H89.8277ZM87.6711 8.64331H89.5946C92.1009 8.64331 93.4998 7.709 93.4998 6.07396C93.4998 4.32214 92.4506 3.62141 89.7111 3.62141H87.6711V8.64331ZM87.6711 15.9426H90.1774C92.7421 15.9426 94.0244 15.0083 94.0244 13.1397C94.0244 11.3878 92.3923 10.2783 89.6529 10.2783H87.6128V15.9426H87.6711Z" fill="#FF41BE"/>
<path d="M98.9205 3.62141V8.64331H105.099V10.3367H98.9205V16.001H105.857V17.6944H97.1136V1.92798H105.682V3.62141H98.9205V3.62141Z" fill="#FF41BE"/>
<path d="M115.707 13.8988H109.995L108.771 17.636H106.789L111.919 1.92798H113.725L118.855 17.636H116.873L115.707 13.8988ZM115.241 12.2054L112.851 4.43893L110.461 12.2054H115.241Z" fill="#FF41BE"/>
<path d="M130.279 11.7966C130.279 15.7674 128.414 17.9864 124.975 17.9864C121.536 17.9864 119.671 15.8258 119.671 11.7966V1.92798H121.478V11.6798C121.478 14.5995 122.76 16.2929 125.033 16.2929C127.248 16.2929 128.589 14.5995 128.589 11.6798V1.92798H130.395V11.7966H130.279Z" fill="#FF41BE"/>
<path d="M137.623 3.50462V17.636H135.816V3.50462H131.328V1.92798H142.111V3.50462H137.623Z" fill="#FF41BE"/>
<path d="M149.688 11.2127V17.6944H147.882V11.2127L142.985 1.92798H144.967L148.814 9.40243L152.661 1.92798H154.643L149.688 11.2127Z" fill="#FF41BE"/>
<path d="M65.2307 20.147H16.4445L20.3497 24.001L65.2307 20.147Z" fill="#FF41BE"/>
<path d="M20.9909 4.38052V4.96446C20.0583 4.38052 19.3005 4.03015 18.1348 4.03015C14.6959 4.03015 12.1312 7.12504 12.1312 10.9791C12.1312 14.8331 14.7541 17.928 18.1348 17.928C19.2422 17.928 20.0583 17.5776 20.9909 16.9937V17.5776H23.9635V4.38052H20.9909ZM18.1348 14.7747C16.4445 14.7747 15.2204 13.1396 15.2204 11.0375C15.2204 8.93526 16.4445 7.30022 18.1348 7.30022C19.8251 7.30022 20.9909 8.93526 20.9909 11.0375C21.0491 13.1396 19.8251 14.7747 18.1348 14.7747Z" fill="#FF41BE"/>
<path d="M45.005 4.38055V12.147C45.005 13.6068 44.0142 14.8331 42.557 14.8331C41.0998 14.8331 40.1089 13.6068 40.1089 12.147V4.38055H37.078V12.147C37.078 15.3587 39.2346 17.928 42.4404 17.928C43.8976 17.928 45.005 17.1105 45.005 17.1105V17.5776H48.036V4.38055H45.005Z" fill="#FF41BE"/>
<path d="M72.9827 17.636V9.86958C72.9827 8.40973 73.9736 7.18345 75.4308 7.18345C76.8879 7.18345 77.8788 8.40973 77.8788 9.86958V17.636H80.9097V9.86958C80.9097 6.6579 78.7531 4.08856 75.5473 4.08856C74.0902 4.08856 72.9827 4.90608 72.9827 4.90608V4.38053H69.9518V17.636H72.9827Z" fill="#FF41BE"/>
<path d="M3.50468 17.5776V12.4973H5.71958L9.56652 17.636H13.4718L8.80879 11.4462C10.266 10.3951 11.1986 8.7017 11.1986 6.77469C11.1986 3.62141 8.63393 1.05206 5.48643 1.05206H0.357178V17.5776H3.50468ZM3.50468 4.26374H5.54472C6.94361 4.26374 8.10935 5.43162 8.10935 6.83308C8.10935 8.23454 6.94361 9.40243 5.54472 9.40243H3.50468V4.26374Z" fill="#FF41BE"/>
<path d="M56.1379 14.5411C55.8464 14.7163 55.555 14.8915 55.147 14.8915C54.6807 14.8915 53.7481 14.5411 53.7481 13.2564V7.59221H56.3127V4.38053H53.7481V1.05206H50.7172V4.38053H49.1434V7.53381H50.7172V13.2564C50.7172 16.2345 52.9321 17.9864 55.2053 17.9864C56.0213 17.9864 57.187 17.6944 58.1196 17.1689L56.1379 14.5411Z" fill="#FF41BE"/>
<path d="M31.4242 10.6287L36.6117 4.38054H32.415L28.8012 8.99368V0.000976562H25.712V17.636H28.8012V12.2054L33.2311 17.636H37.4277L31.4242 10.6287Z" fill="#FF41BE"/>
<path d="M63.0741 4.08856C59.5768 4.08856 57.1288 7.12506 57.1288 11.0375C57.1288 15.1251 60.2763 17.9864 63.3655 17.9864C64.9392 17.9864 66.9793 17.4608 68.6696 15.0083L66.0467 13.49C64.0066 16.5265 60.5677 15.0083 60.1597 11.9718H68.7862C69.5439 7.18345 66.4547 4.08856 63.0741 4.08856ZM65.697 9.28564H60.2763C60.9174 6.19075 65.1141 6.01557 65.697 9.28564Z" fill="#FF41BE"/>
</svg>
