<svg width="181" height="181" viewBox="0 0 181 181" fill="none" xmlns="http://www.w3.org/2000/svg">
<g clip-path="url(#clip0_5784_15747)">
<path d="M180.5 0.223633H0.5V180.224H180.5V0.223633Z" fill="white"/>
<path d="M16.0068 11.4736H11.75V15.7304H16.0068V11.4736Z" fill="black"/>
<path d="M20.2635 11.4736H16.0068V15.7304H20.2635V11.4736Z" fill="black"/>
<path d="M24.5203 11.4736H20.2635V15.7304H24.5203V11.4736Z" fill="black"/>
<path d="M28.777 11.4736H24.5203V15.7304H28.777V11.4736Z" fill="black"/>
<path d="M33.0338 11.4736H28.777V15.7304H33.0338V11.4736Z" fill="black"/>
<path d="M37.2905 11.4736H33.0338V15.7304H37.2905V11.4736Z" fill="black"/>
<path d="M41.5473 11.4736H37.2905V15.7304H41.5473V11.4736Z" fill="black"/>
<path d="M50.0608 11.4736H45.8041V15.7304H50.0608V11.4736Z" fill="black"/>
<path d="M58.5743 11.4736H54.3176V15.7304H58.5743V11.4736Z" fill="black"/>
<path d="M62.8311 11.4736H58.5743V15.7304H62.8311V11.4736Z" fill="black"/>
<path d="M67.0878 11.4736H62.8311V15.7304H67.0878V11.4736Z" fill="black"/>
<path d="M75.6014 11.4736H71.3446V15.7304H75.6014V11.4736Z" fill="black"/>
<path d="M84.1149 11.4736H79.8581V15.7304H84.1149V11.4736Z" fill="black"/>
<path d="M92.6284 11.4736H88.3716V15.7304H92.6284V11.4736Z" fill="black"/>
<path d="M96.8851 11.4736H92.6284V15.7304H96.8851V11.4736Z" fill="black"/>
<path d="M105.399 11.4736H101.142V15.7304H105.399V11.4736Z" fill="black"/>
<path d="M118.169 11.4736H113.912V15.7304H118.169V11.4736Z" fill="black"/>
<path d="M126.682 11.4736H122.426V15.7304H126.682V11.4736Z" fill="black"/>
<path d="M135.196 11.4736H130.939V15.7304H135.196V11.4736Z" fill="black"/>
<path d="M143.709 11.4736H139.453V15.7304H143.709V11.4736Z" fill="black"/>
<path d="M147.966 11.4736H143.709V15.7304H147.966V11.4736Z" fill="black"/>
<path d="M152.223 11.4736H147.966V15.7304H152.223V11.4736Z" fill="black"/>
<path d="M156.48 11.4736H152.223V15.7304H156.48V11.4736Z" fill="black"/>
<path d="M160.736 11.4736H156.48V15.7304H160.736V11.4736Z" fill="black"/>
<path d="M164.993 11.4736H160.736V15.7304H164.993V11.4736Z" fill="black"/>
<path d="M169.25 11.4736H164.993V15.7304H169.25V11.4736Z" fill="black"/>
<path d="M16.0068 15.7304H11.75V19.9871H16.0068V15.7304Z" fill="black"/>
<path d="M41.5473 15.7304H37.2905V19.9871H41.5473V15.7304Z" fill="black"/>
<path d="M54.3176 15.7304H50.0608V19.9871H54.3176V15.7304Z" fill="black"/>
<path d="M58.5743 15.7304H54.3176V19.9871H58.5743V15.7304Z" fill="black"/>
<path d="M67.0878 15.7304H62.8311L62.8311 19.9871H67.0878V15.7304Z" fill="black"/>
<path d="M75.6014 15.7304H71.3446V19.9871H75.6014V15.7304Z" fill="black"/>
<path d="M79.8581 15.7304H75.6014V19.9871H79.8581L79.8581 15.7304Z" fill="black"/>
<path d="M84.1149 15.7304H79.8581L79.8581 19.9871H84.1149V15.7304Z" fill="black"/>
<path d="M88.3716 15.7304H84.1149V19.9871H88.3716L88.3716 15.7304Z" fill="black"/>
<path d="M96.8851 15.7304H92.6284V19.9871H96.8851V15.7304Z" fill="black"/>
<path d="M101.142 15.7304H96.8851V19.9871H101.142V15.7304Z" fill="black"/>
<path d="M105.399 15.7304H101.142V19.9871H105.399V15.7304Z" fill="black"/>
<path d="M113.912 15.7304H109.655V19.9871H113.912V15.7304Z" fill="black"/>
<path d="M118.169 15.7304H113.912V19.9871H118.169V15.7304Z" fill="black"/>
<path d="M126.682 15.7304H122.426V19.9871H126.682V15.7304Z" fill="black"/>
<path d="M135.196 15.7304H130.939V19.9871H135.196V15.7304Z" fill="black"/>
<path d="M143.709 15.7304H139.453V19.9871H143.709V15.7304Z" fill="black"/>
<path d="M169.25 15.7304H164.993V19.9871H169.25V15.7304Z" fill="black"/>
<path d="M16.0068 19.9871H11.75V24.2439H16.0068V19.9871Z" fill="black"/>
<path d="M24.5203 19.9871H20.2635V24.2439H24.5203V19.9871Z" fill="black"/>
<path d="M28.777 19.9871H24.5203V24.2439H28.777V19.9871Z" fill="black"/>
<path d="M33.0338 19.9871H28.777V24.2439H33.0338V19.9871Z" fill="black"/>
<path d="M41.5473 19.9871H37.2905V24.2439H41.5473V19.9871Z" fill="black"/>
<path d="M50.0608 19.9871H45.8041V24.2439H50.0608V19.9871Z" fill="black"/>
<path d="M54.3176 19.9871H50.0608V24.2439H54.3176V19.9871Z" fill="black"/>
<path d="M58.5743 19.9871H54.3176V24.2439H58.5743V19.9871Z" fill="black"/>
<path d="M79.8581 19.9871H75.6014L75.6014 24.2439H79.8581V19.9871Z" fill="black"/>
<path d="M88.3716 19.9871H84.1149L84.1149 24.2439H88.3716V19.9871Z" fill="black"/>
<path d="M101.142 19.9871H96.8851V24.2439H101.142V19.9871Z" fill="black"/>
<path d="M122.426 19.9871H118.169V24.2439H122.426V19.9871Z" fill="black"/>
<path d="M135.196 19.9871H130.939V24.2439H135.196V19.9871Z" fill="black"/>
<path d="M143.709 19.9871H139.453V24.2439H143.709V19.9871Z" fill="black"/>
<path d="M152.223 19.9871H147.966V24.2439H152.223V19.9871Z" fill="black"/>
<path d="M156.48 19.9871H152.223V24.2439H156.48V19.9871Z" fill="black"/>
<path d="M160.736 19.9871H156.48V24.2439H160.736V19.9871Z" fill="black"/>
<path d="M169.25 19.9871H164.993V24.2439H169.25V19.9871Z" fill="black"/>
<path d="M16.0068 24.2439H11.75V28.5007H16.0068V24.2439Z" fill="black"/>
<path d="M24.5203 24.2439H20.2635V28.5007H24.5203V24.2439Z" fill="black"/>
<path d="M28.777 24.2439H24.5203V28.5007H28.777V24.2439Z" fill="black"/>
<path d="M33.0338 24.2439H28.777V28.5007H33.0338V24.2439Z" fill="black"/>
<path d="M41.5473 24.2439H37.2905V28.5007H41.5473V24.2439Z" fill="black"/>
<path d="M58.5743 24.2439H54.3176V28.5007H58.5743V24.2439Z" fill="black"/>
<path d="M92.6284 24.2439H88.3716L88.3716 28.5007H92.6284V24.2439Z" fill="black"/>
<path d="M96.8851 24.2439H92.6284V28.5007H96.8851V24.2439Z" fill="black"/>
<path d="M105.399 24.2439H101.142V28.5007H105.399V24.2439Z" fill="black"/>
<path d="M109.655 24.2439H105.399V28.5007H109.655V24.2439Z" fill="black"/>
<path d="M126.682 24.2439H122.426V28.5007H126.682V24.2439Z" fill="black"/>
<path d="M130.939 24.2439H126.682V28.5007H130.939V24.2439Z" fill="black"/>
<path d="M135.196 24.2439H130.939V28.5007H135.196V24.2439Z" fill="black"/>
<path d="M143.709 24.2439H139.453V28.5007H143.709V24.2439Z" fill="black"/>
<path d="M152.223 24.2439H147.966V28.5007H152.223V24.2439Z" fill="black"/>
<path d="M156.48 24.2439H152.223V28.5007H156.48V24.2439Z" fill="black"/>
<path d="M160.736 24.2439H156.48V28.5007H160.736V24.2439Z" fill="black"/>
<path d="M169.25 24.2439H164.993V28.5007H169.25V24.2439Z" fill="black"/>
<path d="M16.0068 28.5007H11.75V32.7574H16.0068V28.5007Z" fill="black"/>
<path d="M24.5203 28.5007H20.2635V32.7574H24.5203V28.5007Z" fill="black"/>
<path d="M28.777 28.5007H24.5203V32.7574H28.777V28.5007Z" fill="black"/>
<path d="M33.0338 28.5007H28.777V32.7574H33.0338V28.5007Z" fill="black"/>
<path d="M41.5473 28.5007H37.2905V32.7574H41.5473V28.5007Z" fill="black"/>
<path d="M62.8311 28.5007H58.5743V32.7574H62.8311V28.5007Z" fill="black"/>
<path d="M79.8581 28.5007H75.6014V32.7574H79.8581V28.5007Z" fill="black"/>
<path d="M84.1149 28.5007H79.8581V32.7574H84.1149V28.5007Z" fill="black"/>
<path d="M92.6284 28.5007H88.3716V32.7574H92.6284V28.5007Z" fill="black"/>
<path d="M96.8851 28.5007H92.6284V32.7574H96.8851V28.5007Z" fill="black"/>
<path d="M101.142 28.5007H96.8851V32.7574H101.142V28.5007Z" fill="black"/>
<path d="M122.426 28.5007H118.169V32.7574H122.426V28.5007Z" fill="black"/>
<path d="M126.682 28.5007H122.426V32.7574H126.682V28.5007Z" fill="black"/>
<path d="M130.939 28.5007H126.682V32.7574H130.939V28.5007Z" fill="black"/>
<path d="M143.709 28.5007H139.453V32.7574H143.709V28.5007Z" fill="black"/>
<path d="M152.223 28.5007H147.966V32.7574H152.223V28.5007Z" fill="black"/>
<path d="M156.48 28.5007H152.223V32.7574H156.48V28.5007Z" fill="black"/>
<path d="M160.736 28.5007H156.48V32.7574H160.736V28.5007Z" fill="black"/>
<path d="M169.25 28.5007H164.993V32.7574H169.25V28.5007Z" fill="black"/>
<path d="M16.0068 32.7574H11.75V37.0142H16.0068V32.7574Z" fill="black"/>
<path d="M41.5473 32.7574H37.2905V37.0142H41.5473V32.7574Z" fill="black"/>
<path d="M54.3176 32.7574H50.0608V37.0142H54.3176V32.7574Z" fill="black"/>
<path d="M58.5743 32.7574H54.3176V37.0142H58.5743V32.7574Z" fill="black"/>
<path d="M62.8311 32.7574H58.5743V37.0142H62.8311V32.7574Z" fill="black"/>
<path d="M88.3716 32.7574H84.1149L84.1149 37.0142H88.3716L88.3716 32.7574Z" fill="black"/>
<path d="M105.399 32.7574H101.142V37.0142H105.399V32.7574Z" fill="black"/>
<path d="M118.169 32.7574H113.912V37.0142H118.169V32.7574Z" fill="black"/>
<path d="M122.426 32.7574H118.169V37.0142H122.426V32.7574Z" fill="black"/>
<path d="M135.196 32.7574H130.939V37.0142H135.196V32.7574Z" fill="black"/>
<path d="M143.709 32.7574H139.453V37.0142H143.709V32.7574Z" fill="black"/>
<path d="M169.25 32.7574H164.993V37.0142H169.25V32.7574Z" fill="black"/>
<path d="M16.0068 37.0142H11.75V41.2709H16.0068V37.0142Z" fill="black"/>
<path d="M20.2635 37.0142H16.0068V41.2709H20.2635V37.0142Z" fill="black"/>
<path d="M24.5203 37.0142H20.2635V41.2709H24.5203V37.0142Z" fill="black"/>
<path d="M28.777 37.0142H24.5203V41.2709H28.777V37.0142Z" fill="black"/>
<path d="M33.0338 37.0142H28.777V41.2709H33.0338V37.0142Z" fill="black"/>
<path d="M37.2905 37.0142H33.0338V41.2709H37.2905V37.0142Z" fill="black"/>
<path d="M41.5473 37.0142H37.2905V41.2709H41.5473V37.0142Z" fill="black"/>
<path d="M50.0608 37.0142H45.8041V41.2709H50.0608V37.0142Z" fill="black"/>
<path d="M58.5743 37.0142H54.3176V41.2709H58.5743V37.0142Z" fill="black"/>
<path d="M67.0878 37.0142H62.8311L62.8311 41.2709H67.0878V37.0142Z" fill="black"/>
<path d="M75.6014 37.0142H71.3446V41.2709H75.6014V37.0142Z" fill="black"/>
<path d="M84.1149 37.0142H79.8581V41.2709H84.1149L84.1149 37.0142Z" fill="black"/>
<path d="M92.6284 37.0142H88.3716L88.3716 41.2709H92.6284V37.0142Z" fill="black"/>
<path d="M101.142 37.0142H96.8851V41.2709H101.142V37.0142Z" fill="black"/>
<path d="M109.655 37.0142H105.399V41.2709H109.655V37.0142Z" fill="black"/>
<path d="M118.169 37.0142H113.912V41.2709H118.169V37.0142Z" fill="black"/>
<path d="M126.682 37.0142H122.426V41.2709H126.682V37.0142Z" fill="black"/>
<path d="M135.196 37.0142H130.939V41.2709H135.196V37.0142Z" fill="black"/>
<path d="M143.709 37.0142H139.453V41.2709H143.709V37.0142Z" fill="black"/>
<path d="M147.966 37.0142H143.709V41.2709H147.966V37.0142Z" fill="black"/>
<path d="M152.223 37.0142H147.966V41.2709H152.223V37.0142Z" fill="black"/>
<path d="M156.48 37.0142H152.223V41.2709H156.48V37.0142Z" fill="black"/>
<path d="M160.736 37.0142H156.48V41.2709H160.736V37.0142Z" fill="black"/>
<path d="M164.993 37.0142H160.736V41.2709H164.993V37.0142Z" fill="black"/>
<path d="M169.25 37.0142H164.993V41.2709H169.25V37.0142Z" fill="black"/>
<path d="M50.0608 41.2709H45.8041V45.5277H50.0608V41.2709Z" fill="black"/>
<path d="M54.3176 41.2709H50.0608V45.5277H54.3176V41.2709Z" fill="black"/>
<path d="M58.5743 41.2709H54.3176V45.5277H58.5743V41.2709Z" fill="black"/>
<path d="M67.0878 41.2709H62.8311V45.5277H67.0878V41.2709Z" fill="black"/>
<path d="M71.3446 41.2709H67.0878V45.5277H71.3446V41.2709Z" fill="black"/>
<path d="M75.6014 41.2709H71.3446V45.5277H75.6014V41.2709Z" fill="black"/>
<path d="M84.1149 41.2709H79.8581V45.5277H84.1149V41.2709Z" fill="black"/>
<path d="M88.3716 41.2709H84.1149V45.5277H88.3716L88.3716 41.2709Z" fill="black"/>
<path d="M105.399 41.2709H101.142V45.5277H105.399V41.2709Z" fill="black"/>
<path d="M118.169 41.2709H113.912V45.5277H118.169V41.2709Z" fill="black"/>
<path d="M126.682 41.2709H122.426V45.5277H126.682V41.2709Z" fill="black"/>
<path d="M130.939 41.2709H126.682V45.5277H130.939V41.2709Z" fill="black"/>
<path d="M135.196 41.2709H130.939V45.5277H135.196V41.2709Z" fill="black"/>
<path d="M16.0068 45.5277H11.75V49.7844H16.0068V45.5277Z" fill="black"/>
<path d="M24.5203 45.5277H20.2635V49.7844H24.5203V45.5277Z" fill="black"/>
<path d="M37.2905 45.5277H33.0338V49.7844H37.2905V45.5277Z" fill="black"/>
<path d="M41.5473 45.5277H37.2905V49.7844H41.5473V45.5277Z" fill="black"/>
<path d="M54.3176 45.5277H50.0608V49.7844H54.3176V45.5277Z" fill="black"/>
<path d="M58.5743 45.5277H54.3176V49.7844H58.5743V45.5277Z" fill="black"/>
<path d="M62.8311 45.5277H58.5743V49.7844H62.8311L62.8311 45.5277Z" fill="black"/>
<path d="M75.6014 45.5277H71.3446V49.7844H75.6014V45.5277Z" fill="black"/>
<path d="M84.1149 45.5277H79.8581V49.7844H84.1149V45.5277Z" fill="black"/>
<path d="M96.8851 45.5277H92.6284V49.7844H96.8851V45.5277Z" fill="black"/>
<path d="M101.142 45.5277H96.8851V49.7844H101.142V45.5277Z" fill="black"/>
<path d="M126.682 45.5277H122.426V49.7844H126.682V45.5277Z" fill="black"/>
<path d="M130.939 45.5277H126.682V49.7844H130.939V45.5277Z" fill="black"/>
<path d="M135.196 45.5277H130.939V49.7844H135.196V45.5277Z" fill="black"/>
<path d="M139.453 45.5277H135.196V49.7844H139.453V45.5277Z" fill="black"/>
<path d="M143.709 45.5277H139.453V49.7844H143.709V45.5277Z" fill="black"/>
<path d="M160.736 45.5277H156.48V49.7844H160.736V45.5277Z" fill="black"/>
<path d="M169.25 45.5277H164.993V49.7844H169.25V45.5277Z" fill="black"/>
<path d="M20.2635 49.7844H16.0068V54.0412H20.2635V49.7844Z" fill="black"/>
<path d="M24.5203 49.7844H20.2635V54.0412H24.5203V49.7844Z" fill="black"/>
<path d="M28.777 49.7844H24.5203V54.0412H28.777V49.7844Z" fill="black"/>
<path d="M37.2905 49.7844H33.0338V54.0412H37.2905V49.7844Z" fill="black"/>
<path d="M45.8041 49.7844H41.5473V54.0412H45.8041V49.7844Z" fill="black"/>
<path d="M50.0608 49.7844H45.8041V54.0412H50.0608V49.7844Z" fill="black"/>
<path d="M58.5743 49.7844H54.3176V54.0412H58.5743V49.7844Z" fill="black"/>
<path d="M62.8311 49.7844H58.5743V54.0412H62.8311V49.7844Z" fill="black"/>
<path d="M71.3446 49.7844H67.0878V54.0412H71.3446V49.7844Z" fill="black"/>
<path d="M79.8581 49.7844H75.6014L75.6014 54.0412H79.8581L79.8581 49.7844Z" fill="black"/>
<path d="M92.6284 49.7844H88.3716V54.0412H92.6284V49.7844Z" fill="black"/>
<path d="M118.169 49.7844H113.912V54.0412H118.169V49.7844Z" fill="black"/>
<path d="M122.426 49.7844H118.169V54.0412H122.426V49.7844Z" fill="black"/>
<path d="M135.196 49.7844H130.939V54.0412H135.196V49.7844Z" fill="black"/>
<path d="M160.736 49.7844H156.48V54.0412H160.736V49.7844Z" fill="black"/>
<path d="M169.25 49.7844H164.993V54.0412H169.25V49.7844Z" fill="black"/>
<path d="M20.2635 54.0412H16.0068V58.298H20.2635V54.0412Z" fill="black"/>
<path d="M24.5203 54.0412H20.2635V58.298H24.5203V54.0412Z" fill="black"/>
<path d="M28.777 54.0412H24.5203V58.298H28.777V54.0412Z" fill="black"/>
<path d="M41.5473 54.0412H37.2905V58.298H41.5473V54.0412Z" fill="black"/>
<path d="M45.8041 54.0412H41.5473V58.298H45.8041V54.0412Z" fill="black"/>
<path d="M58.5743 54.0412H54.3176V58.298H58.5743V54.0412Z" fill="black"/>
<path d="M75.6014 54.0412H71.3446V58.298H75.6014L75.6014 54.0412Z" fill="black"/>
<path d="M84.1149 54.0412H79.8581L79.8581 58.298H84.1149V54.0412Z" fill="black"/>
<path d="M101.142 54.0412H96.8851V58.298H101.142V54.0412Z" fill="black"/>
<path d="M109.655 54.0412H105.399V58.298H109.655V54.0412Z" fill="black"/>
<path d="M130.939 54.0412H126.682V58.298H130.939V54.0412Z" fill="black"/>
<path d="M143.709 54.0412H139.453V58.298H143.709V54.0412Z" fill="black"/>
<path d="M147.966 54.0412H143.709V58.298H147.966V54.0412Z" fill="black"/>
<path d="M152.223 54.0412H147.966V58.298H152.223V54.0412Z" fill="black"/>
<path d="M156.48 54.0412H152.223V58.298H156.48V54.0412Z" fill="black"/>
<path d="M164.993 54.0412H160.736V58.298H164.993V54.0412Z" fill="black"/>
<path d="M28.777 58.298H24.5203V62.5547H28.777V58.298Z" fill="black"/>
<path d="M37.2905 58.298H33.0338V62.5547H37.2905V58.298Z" fill="black"/>
<path d="M45.8041 58.298H41.5473V62.5547H45.8041V58.298Z" fill="black"/>
<path d="M71.3446 58.298H67.0878V62.5547H71.3446V58.298Z" fill="black"/>
<path d="M75.6014 58.298H71.3446V62.5547H75.6014V58.298Z" fill="black"/>
<path d="M79.8581 58.298H75.6014V62.5547H79.8581L79.8581 58.298Z" fill="black"/>
<path d="M109.655 58.298H105.399V62.5547H109.655V58.298Z" fill="black"/>
<path d="M113.912 58.298H109.655V62.5547H113.912V58.298Z" fill="black"/>
<path d="M118.169 58.298H113.912V62.5547H118.169V58.298Z" fill="black"/>
<path d="M135.196 58.298H130.939V62.5547H135.196V58.298Z" fill="black"/>
<path d="M139.453 58.298H135.196V62.5547H139.453V58.298Z" fill="black"/>
<path d="M143.709 58.298H139.453V62.5547H143.709V58.298Z" fill="black"/>
<path d="M152.223 58.298H147.966V62.5547H152.223V58.298Z" fill="black"/>
<path d="M169.25 58.298H164.993V62.5547H169.25V58.298Z" fill="black"/>
<path d="M20.2635 62.5547H16.0068V66.8115H20.2635V62.5547Z" fill="black"/>
<path d="M28.777 62.5547H24.5203V66.8115H28.777V62.5547Z" fill="black"/>
<path d="M33.0338 62.5547H28.777V66.8115H33.0338V62.5547Z" fill="black"/>
<path d="M37.2905 62.5547H33.0338V66.8115H37.2905V62.5547Z" fill="black"/>
<path d="M41.5473 62.5547H37.2905V66.8115H41.5473V62.5547Z" fill="black"/>
<path d="M50.0608 62.5547L45.8041 62.5547V66.8115H50.0608V62.5547Z" fill="black"/>
<path d="M54.3176 62.5547H50.0608V66.8115H54.3176V62.5547Z" fill="black"/>
<path d="M62.8311 62.5547H58.5743V66.8115H62.8311V62.5547Z" fill="black"/>
<path d="M67.0878 62.5547L62.8311 62.5547V66.8115H67.0878L67.0878 62.5547Z" fill="black"/>
<path d="M71.3446 62.5547H67.0878L67.0878 66.8115H71.3446V62.5547Z" fill="black"/>
<path d="M75.6014 62.5547H71.3446V66.8115H75.6014V62.5547Z" fill="black"/>
<path d="M84.1149 62.5547L79.8581 62.5547L79.8581 66.8115H84.1149V62.5547Z" fill="black"/>
<path d="M88.3716 62.5547H84.1149V66.8115H88.3716V62.5547Z" fill="black"/>
<path d="M92.6284 62.5547H88.3716V66.8115H92.6284V62.5547Z" fill="black"/>
<path d="M101.142 62.5547H96.8851V66.8115H101.142V62.5547Z" fill="black"/>
<path d="M122.426 62.5547L118.169 62.5547V66.8115H122.426V62.5547Z" fill="black"/>
<path d="M130.939 62.5547L126.682 62.5547V66.8115H130.939V62.5547Z" fill="black"/>
<path d="M135.196 62.5547H130.939V66.8115H135.196V62.5547Z" fill="black"/>
<path d="M143.709 62.5547H139.453V66.8115H143.709V62.5547Z" fill="black"/>
<path d="M156.48 62.5547L152.223 62.5547V66.8115H156.48V62.5547Z" fill="black"/>
<path d="M160.736 62.5547H156.48V66.8115H160.736V62.5547Z" fill="black"/>
<path d="M164.993 62.5547L160.736 62.5547V66.8115H164.993V62.5547Z" fill="black"/>
<path d="M169.25 62.5547H164.993V66.8115H169.25V62.5547Z" fill="black"/>
<path d="M16.0068 66.8115L11.75 66.8115V71.0682H16.0068V66.8115Z" fill="black"/>
<path d="M20.2635 66.8115H16.0068V71.0682H20.2635V66.8115Z" fill="black"/>
<path d="M28.777 66.8115H24.5203V71.0682H28.777V66.8115Z" fill="black"/>
<path d="M45.8041 66.8115H41.5473V71.0682H45.8041V66.8115Z" fill="black"/>
<path d="M58.5743 66.8115H54.3176V71.0682H58.5743V66.8115Z" fill="black"/>
<path d="M62.8311 66.8115H58.5743V71.0682H62.8311V66.8115Z" fill="black"/>
<path d="M67.0878 66.8115H62.8311V71.0682H67.0878V66.8115Z" fill="black"/>
<path d="M92.6284 66.8115H88.3716L88.3716 71.0682H92.6284V66.8115Z" fill="black"/>
<path d="M96.8851 66.8115H92.6284V71.0682H96.8851V66.8115Z" fill="black"/>
<path d="M113.912 66.8115H109.655V71.0682H113.912V66.8115Z" fill="black"/>
<path d="M118.169 66.8115L113.912 66.8115V71.0682H118.169V66.8115Z" fill="black"/>
<path d="M126.682 66.8115H122.426V71.0682H126.682V66.8115Z" fill="black"/>
<path d="M130.939 66.8115H126.682V71.0682H130.939V66.8115Z" fill="black"/>
<path d="M152.223 66.8115L147.966 66.8115V71.0682H152.223V66.8115Z" fill="black"/>
<path d="M156.48 66.8115H152.223V71.0682H156.48V66.8115Z" fill="black"/>
<path d="M164.993 66.8115H160.736V71.0682H164.993V66.8115Z" fill="black"/>
<path d="M169.25 66.8115H164.993V71.0682H169.25V66.8115Z" fill="black"/>
<path d="M16.0068 71.0682H11.75V75.325H16.0068V71.0682Z" fill="black"/>
<path d="M28.777 71.0682H24.5203V75.325H28.777V71.0682Z" fill="black"/>
<path d="M33.0338 71.0682H28.777V75.325H33.0338V71.0682Z" fill="black"/>
<path d="M37.2905 71.0682H33.0338V75.325H37.2905V71.0682Z" fill="black"/>
<path d="M41.5473 71.0682H37.2905V75.325H41.5473V71.0682Z" fill="black"/>
<path d="M50.0608 71.0682H45.8041V75.325H50.0608V71.0682Z" fill="black"/>
<path d="M62.8311 71.0682H58.5743V75.325H62.8311V71.0682Z" fill="black"/>
<path d="M71.3446 71.0682H67.0878L67.0878 75.325H71.3446V71.0682Z" fill="black"/>
<path d="M79.8581 71.0682H75.6014V75.325H79.8581V71.0682Z" fill="black"/>
<path d="M84.1149 71.0682H79.8581V75.325H84.1149V71.0682Z" fill="black"/>
<path d="M88.3716 71.0682H84.1149V75.325H88.3716L88.3716 71.0682Z" fill="black"/>
<path d="M92.6284 71.0682H88.3716L88.3716 75.325H92.6284V71.0682Z" fill="black"/>
<path d="M105.399 71.0682H101.142V75.325H105.399V71.0682Z" fill="black"/>
<path d="M109.655 71.0682H105.399V75.325H109.655V71.0682Z" fill="black"/>
<path d="M113.912 71.0682H109.655V75.325H113.912V71.0682Z" fill="black"/>
<path d="M122.426 71.0682H118.169V75.325H122.426V71.0682Z" fill="black"/>
<path d="M130.939 71.0682H126.682V75.325H130.939V71.0682Z" fill="black"/>
<path d="M135.196 71.0682H130.939V75.325H135.196V71.0682Z" fill="black"/>
<path d="M152.223 71.0682H147.966V75.325H152.223V71.0682Z" fill="black"/>
<path d="M156.48 71.0682H152.223V75.325H156.48V71.0682Z" fill="black"/>
<path d="M164.993 71.0682H160.736V75.325H164.993V71.0682Z" fill="black"/>
<path d="M169.25 71.0682H164.993V75.325H169.25V71.0682Z" fill="black"/>
<path d="M20.2635 75.325L16.0068 75.325V79.5817H20.2635V75.325Z" fill="black"/>
<path d="M24.5203 75.325L20.2635 75.325V79.5817H24.5203V75.325Z" fill="black"/>
<path d="M37.2905 75.325H33.0338V79.5817H37.2905V75.325Z" fill="black"/>
<path d="M45.8041 75.325H41.5473V79.5817H45.8041V75.325Z" fill="black"/>
<path d="M58.5743 75.325L54.3176 75.325V79.5817H58.5743V75.325Z" fill="black"/>
<path d="M67.0878 75.325H62.8311L62.8311 79.5817H67.0878L67.0878 75.325Z" fill="black"/>
<path d="M71.3446 75.325H67.0878L67.0878 79.5817H71.3446V75.325Z" fill="black"/>
<path d="M75.6014 75.325H71.3446V79.5817H75.6014L75.6014 75.325Z" fill="black"/>
<path d="M79.8581 75.325H75.6014L75.6014 79.5817H79.8581V75.325Z" fill="black"/>
<path d="M96.8851 75.325L92.6284 75.325V79.5817H96.8851V75.325Z" fill="black"/>
<path d="M105.399 75.325H101.142V79.5817H105.399V75.325Z" fill="black"/>
<path d="M109.655 75.325H105.399V79.5817H109.655V75.325Z" fill="black"/>
<path d="M118.169 75.325H113.912V79.5817H118.169V75.325Z" fill="black"/>
<path d="M126.682 75.325H122.426V79.5817H126.682V75.325Z" fill="black"/>
<path d="M135.196 75.325H130.939V79.5817H135.196V75.325Z" fill="black"/>
<path d="M139.453 75.325L135.196 75.325V79.5817H139.453V75.325Z" fill="black"/>
<path d="M143.709 75.325H139.453V79.5817H143.709V75.325Z" fill="black"/>
<path d="M164.993 75.325H160.736V79.5817H164.993V75.325Z" fill="black"/>
<path d="M16.0068 79.5817L11.75 79.5817V83.8385H16.0068V79.5817Z" fill="black"/>
<path d="M24.5203 79.5817H20.2635V83.8385H24.5203V79.5817Z" fill="black"/>
<path d="M28.777 79.5817L24.5203 79.5817V83.8385H28.777V79.5817Z" fill="black"/>
<path d="M37.2905 79.5817H33.0338V83.8385H37.2905V79.5817Z" fill="black"/>
<path d="M41.5473 79.5817H37.2905V83.8385H41.5473V79.5817Z" fill="black"/>
<path d="M45.8041 79.5817H41.5473V83.8385H45.8041V79.5817Z" fill="black"/>
<path d="M71.3446 79.5817H67.0878L67.0878 83.8385H71.3446V79.5817Z" fill="black"/>
<path d="M75.6014 79.5817H71.3446V83.8385H75.6014V79.5817Z" fill="black"/>
<path d="M79.8581 79.5817H75.6014V83.8385H79.8581V79.5817Z" fill="black"/>
<path d="M84.1149 79.5817L79.8581 79.5817V83.8385H84.1149V79.5817Z" fill="black"/>
<path d="M88.3716 79.5817H84.1149V83.8385H88.3716V79.5817Z" fill="black"/>
<path d="M92.6284 79.5817L88.3716 79.5817V83.8385H92.6284V79.5817Z" fill="black"/>
<path d="M96.8851 79.5817H92.6284V83.8385H96.8851V79.5817Z" fill="black"/>
<path d="M101.142 79.5817H96.8851V83.8385H101.142V79.5817Z" fill="black"/>
<path d="M105.399 79.5817H101.142V83.8385H105.399V79.5817Z" fill="black"/>
<path d="M113.912 79.5817H109.655V83.8385H113.912V79.5817Z" fill="black"/>
<path d="M135.196 79.5817H130.939V83.8385H135.196V79.5817Z" fill="black"/>
<path d="M139.453 79.5817H135.196V83.8385H139.453V79.5817Z" fill="black"/>
<path d="M147.966 79.5817L143.709 79.5817V83.8385H147.966V79.5817Z" fill="black"/>
<path d="M152.223 79.5817H147.966V83.8385H152.223V79.5817Z" fill="black"/>
<path d="M156.48 79.5817H152.223V83.8385H156.48V79.5817Z" fill="black"/>
<path d="M160.736 79.5817L156.48 79.5817V83.8385H160.736V79.5817Z" fill="black"/>
<path d="M164.993 79.5817H160.736V83.8385H164.993V79.5817Z" fill="black"/>
<path d="M169.25 79.5817L164.993 79.5817V83.8385H169.25V79.5817Z" fill="black"/>
<path d="M20.2635 83.8385H16.0068V88.0953H20.2635V83.8385Z" fill="black"/>
<path d="M24.5203 83.8385H20.2635V88.0953H24.5203V83.8385Z" fill="black"/>
<path d="M28.777 83.8385H24.5203V88.0953H28.777V83.8385Z" fill="black"/>
<path d="M37.2905 83.8385H33.0338V88.0953H37.2905V83.8385Z" fill="black"/>
<path d="M45.8041 83.8385H41.5473V88.0953H45.8041V83.8385Z" fill="black"/>
<path d="M50.0608 83.8385L45.8041 83.8385V88.0953H50.0608V83.8385Z" fill="black"/>
<path d="M75.6014 83.8385H71.3446V88.0953H75.6014V83.8385Z" fill="black"/>
<path d="M84.1149 83.8385H79.8581L79.8581 88.0953H84.1149V83.8385Z" fill="black"/>
<path d="M92.6284 83.8385H88.3716L88.3716 88.0953H92.6284V83.8385Z" fill="black"/>
<path d="M105.399 83.8385H101.142V88.0953H105.399V83.8385Z" fill="black"/>
<path d="M113.912 83.8385H109.655V88.0953H113.912V83.8385Z" fill="black"/>
<path d="M118.169 83.8385L113.912 83.8385V88.0953H118.169V83.8385Z" fill="black"/>
<path d="M143.709 83.8385H139.453V88.0953H143.709V83.8385Z" fill="black"/>
<path d="M152.223 83.8385H147.966V88.0953H152.223V83.8385Z" fill="black"/>
<path d="M160.736 83.8385H156.48V88.0953H160.736V83.8385Z" fill="black"/>
<path d="M20.2635 88.0953H16.0068V92.352H20.2635V88.0953Z" fill="black"/>
<path d="M24.5203 88.0953H20.2635V92.352H24.5203V88.0953Z" fill="black"/>
<path d="M28.777 88.0953H24.5203V92.352H28.777V88.0953Z" fill="black"/>
<path d="M33.0338 88.0953H28.777V92.352H33.0338V88.0953Z" fill="black"/>
<path d="M37.2905 88.0953H33.0338V92.352H37.2905V88.0953Z" fill="black"/>
<path d="M41.5473 88.0953H37.2905V92.352H41.5473V88.0953Z" fill="black"/>
<path d="M62.8311 88.0953H58.5743V92.352H62.8311V88.0953Z" fill="black"/>
<path d="M75.6014 88.0953H71.3446V92.352H75.6014V88.0953Z" fill="black"/>
<path d="M79.8581 88.0953H75.6014V92.352H79.8581L79.8581 88.0953Z" fill="black"/>
<path d="M84.1149 88.0953H79.8581L79.8581 92.352H84.1149V88.0953Z" fill="black"/>
<path d="M88.3716 88.0953H84.1149V92.352H88.3716L88.3716 88.0953Z" fill="black"/>
<path d="M92.6284 88.0953H88.3716L88.3716 92.352H92.6284V88.0953Z" fill="black"/>
<path d="M96.8851 88.0953L92.6284 88.0953V92.352H96.8851V88.0953Z" fill="black"/>
<path d="M130.939 88.0953H126.682V92.352H130.939V88.0953Z" fill="black"/>
<path d="M143.709 88.0953H139.453V92.352H143.709V88.0953Z" fill="black"/>
<path d="M147.966 88.0953H143.709V92.352H147.966V88.0953Z" fill="black"/>
<path d="M152.223 88.0953H147.966V92.352H152.223V88.0953Z" fill="black"/>
<path d="M156.48 88.0953H152.223V92.352H156.48V88.0953Z" fill="black"/>
<path d="M164.993 88.0953L160.736 88.0953V92.352H164.993V88.0953Z" fill="black"/>
<path d="M16.0068 92.352H11.75V96.6088H16.0068V92.352Z" fill="black"/>
<path d="M24.5203 92.352H20.2635V96.6088H24.5203V92.352Z" fill="black"/>
<path d="M50.0608 92.352H45.8041V96.6088H50.0608V92.352Z" fill="black"/>
<path d="M62.8311 92.352H58.5743V96.6088H62.8311V92.352Z" fill="black"/>
<path d="M71.3446 92.352H67.0878V96.6088H71.3446V92.352Z" fill="black"/>
<path d="M75.6014 92.352H71.3446V96.6088H75.6014V92.352Z" fill="black"/>
<path d="M79.8581 92.352H75.6014V96.6088H79.8581V92.352Z" fill="black"/>
<path d="M92.6284 92.352H88.3716L88.3716 96.6088H92.6284V92.352Z" fill="black"/>
<path d="M101.142 92.352H96.8851V96.6088H101.142V92.352Z" fill="black"/>
<path d="M105.399 92.352H101.142V96.6088H105.399V92.352Z" fill="black"/>
<path d="M109.655 92.352H105.399V96.6088H109.655V92.352Z" fill="black"/>
<path d="M118.169 92.352H113.912V96.6088H118.169V92.352Z" fill="black"/>
<path d="M130.939 92.352H126.682V96.6088H130.939V92.352Z" fill="black"/>
<path d="M139.453 92.352H135.196V96.6088H139.453V92.352Z" fill="black"/>
<path d="M143.709 92.352H139.453V96.6088H143.709V92.352Z" fill="black"/>
<path d="M160.736 92.352H156.48V96.6088H160.736V92.352Z" fill="black"/>
<path d="M169.25 92.352H164.993V96.6088H169.25V92.352Z" fill="black"/>
<path d="M16.0068 96.6088H11.75V100.866H16.0068V96.6088Z" fill="black"/>
<path d="M20.2635 96.6088H16.0068V100.866H20.2635V96.6088Z" fill="black"/>
<path d="M24.5203 96.6088H20.2635V100.866H24.5203V96.6088Z" fill="black"/>
<path d="M37.2905 96.6088H33.0338V100.866H37.2905V96.6088Z" fill="black"/>
<path d="M41.5473 96.6088H37.2905V100.866H41.5473V96.6088Z" fill="black"/>
<path d="M45.8041 96.6088H41.5473V100.866H45.8041V96.6088Z" fill="black"/>
<path d="M50.0608 96.6088H45.8041V100.866H50.0608V96.6088Z" fill="black"/>
<path d="M54.3176 96.6088H50.0608V100.866H54.3176V96.6088Z" fill="black"/>
<path d="M58.5743 96.6088H54.3176V100.866H58.5743V96.6088Z" fill="black"/>
<path d="M62.8311 96.6088H58.5743V100.866H62.8311V96.6088Z" fill="black"/>
<path d="M67.0878 96.6088H62.8311V100.866H67.0878L67.0878 96.6088Z" fill="black"/>
<path d="M71.3446 96.6088H67.0878L67.0878 100.866H71.3446V96.6088Z" fill="black"/>
<path d="M79.8581 96.6088H75.6014L75.6014 100.866H79.8581V96.6088Z" fill="black"/>
<path d="M113.912 96.6088H109.655V100.866H113.912V96.6088Z" fill="black"/>
<path d="M118.169 96.6088H113.912V100.866H118.169V96.6088Z" fill="black"/>
<path d="M122.426 96.6088H118.169V100.866H122.426V96.6088Z" fill="black"/>
<path d="M126.682 96.6088H122.426V100.866H126.682V96.6088Z" fill="black"/>
<path d="M130.939 96.6088H126.682V100.866H130.939V96.6088Z" fill="black"/>
<path d="M139.453 96.6088H135.196V100.866H139.453V96.6088Z" fill="black"/>
<path d="M143.709 96.6088H139.453V100.866H143.709V96.6088Z" fill="black"/>
<path d="M24.5203 100.866H20.2635V105.122H24.5203V100.866Z" fill="black"/>
<path d="M28.777 100.866H24.5203V105.122H28.777V100.866Z" fill="black"/>
<path d="M33.0338 100.866H28.777V105.122H33.0338V100.866Z" fill="black"/>
<path d="M50.0608 100.866H45.8041V105.122H50.0608V100.866Z" fill="black"/>
<path d="M58.5743 100.866H54.3176V105.122H58.5743V100.866Z" fill="black"/>
<path d="M71.3446 100.866H67.0878L67.0878 105.122H71.3446V100.866Z" fill="black"/>
<path d="M79.8581 100.866H75.6014V105.122H79.8581V100.866Z" fill="black"/>
<path d="M84.1149 100.866H79.8581V105.122H84.1149V100.866Z" fill="black"/>
<path d="M88.3716 100.866H84.1149V105.122H88.3716V100.866Z" fill="black"/>
<path d="M109.655 100.866H105.399V105.122H109.655V100.866Z" fill="black"/>
<path d="M118.169 100.866H113.912V105.122H118.169V100.866Z" fill="black"/>
<path d="M122.426 100.866H118.169V105.122H122.426V100.866Z" fill="black"/>
<path d="M126.682 100.866H122.426V105.122H126.682V100.866Z" fill="black"/>
<path d="M139.453 100.866H135.196V105.122H139.453V100.866Z" fill="black"/>
<path d="M147.966 100.866H143.709V105.122H147.966V100.866Z" fill="black"/>
<path d="M152.223 100.866H147.966V105.122H152.223V100.866Z" fill="black"/>
<path d="M160.736 100.866H156.48V105.122H160.736V100.866Z" fill="black"/>
<path d="M16.0068 105.122H11.75V109.379H16.0068V105.122Z" fill="black"/>
<path d="M24.5203 105.122H20.2635V109.379H24.5203V105.122Z" fill="black"/>
<path d="M28.777 105.122H24.5203V109.379H28.777V105.122Z" fill="black"/>
<path d="M41.5473 105.122H37.2905V109.379H41.5473V105.122Z" fill="black"/>
<path d="M45.8041 105.122H41.5473V109.379H45.8041V105.122Z" fill="black"/>
<path d="M50.0608 105.122H45.8041V109.379H50.0608V105.122Z" fill="black"/>
<path d="M54.3176 105.122H50.0608V109.379H54.3176V105.122Z" fill="black"/>
<path d="M105.399 105.122H101.142V109.379H105.399V105.122Z" fill="black"/>
<path d="M109.655 105.122H105.399V109.379H109.655V105.122Z" fill="black"/>
<path d="M113.912 105.122H109.655V109.379H113.912V105.122Z" fill="black"/>
<path d="M118.169 105.122H113.912V109.379H118.169V105.122Z" fill="black"/>
<path d="M122.426 105.122H118.169V109.379H122.426V105.122Z" fill="black"/>
<path d="M126.682 105.122H122.426V109.379H126.682V105.122Z" fill="black"/>
<path d="M130.939 105.122H126.682V109.379H130.939V105.122Z" fill="black"/>
<path d="M164.993 105.122H160.736V109.379H164.993V105.122Z" fill="black"/>
<path d="M16.0068 109.379H11.75V113.636H16.0068V109.379Z" fill="black"/>
<path d="M20.2635 109.379H16.0068V113.636H20.2635V109.379Z" fill="black"/>
<path d="M28.777 109.379H24.5203V113.636H28.777V109.379Z" fill="black"/>
<path d="M50.0608 109.379H45.8041V113.636H50.0608V109.379Z" fill="black"/>
<path d="M58.5743 109.379H54.3176V113.636H58.5743V109.379Z" fill="black"/>
<path d="M67.0878 109.379H62.8311V113.636H67.0878V109.379Z" fill="black"/>
<path d="M71.3446 109.379H67.0878V113.636H71.3446V109.379Z" fill="black"/>
<path d="M75.6014 109.379H71.3446V113.636H75.6014V109.379Z" fill="black"/>
<path d="M79.8581 109.379H75.6014V113.636H79.8581V109.379Z" fill="black"/>
<path d="M96.8851 109.379H92.6284V113.636H96.8851V109.379Z" fill="black"/>
<path d="M105.399 109.379H101.142V113.636H105.399V109.379Z" fill="black"/>
<path d="M109.655 109.379H105.399V113.636H109.655V109.379Z" fill="black"/>
<path d="M126.682 109.379H122.426V113.636H126.682V109.379Z" fill="black"/>
<path d="M135.196 109.379H130.939V113.636H135.196V109.379Z" fill="black"/>
<path d="M139.453 109.379H135.196V113.636H139.453V109.379Z" fill="black"/>
<path d="M143.709 109.379H139.453V113.636H143.709V109.379Z" fill="black"/>
<path d="M147.966 109.379H143.709V113.636H147.966V109.379Z" fill="black"/>
<path d="M164.993 109.379H160.736V113.636H164.993V109.379Z" fill="black"/>
<path d="M37.2905 113.636H33.0338V117.893H37.2905V113.636Z" fill="black"/>
<path d="M41.5473 113.636H37.2905V117.893H41.5473V113.636Z" fill="black"/>
<path d="M79.8581 113.636H75.6014L75.6014 117.893H79.8581V113.636Z" fill="black"/>
<path d="M84.1149 113.636H79.8581V117.893H84.1149V113.636Z" fill="black"/>
<path d="M88.3716 113.636H84.1149V117.893H88.3716V113.636Z" fill="black"/>
<path d="M92.6284 113.636H88.3716V117.893H92.6284V113.636Z" fill="black"/>
<path d="M96.8851 113.636H92.6284V117.893H96.8851V113.636Z" fill="black"/>
<path d="M101.142 113.636H96.8851V117.893H101.142V113.636Z" fill="black"/>
<path d="M113.912 113.636H109.655V117.893H113.912V113.636Z" fill="black"/>
<path d="M135.196 113.636H130.939V117.893H135.196V113.636Z" fill="black"/>
<path d="M139.453 113.636H135.196V117.893H139.453V113.636Z" fill="black"/>
<path d="M147.966 113.636H143.709V117.893H147.966V113.636Z" fill="black"/>
<path d="M152.223 113.636H147.966V117.893H152.223V113.636Z" fill="black"/>
<path d="M156.48 113.636H152.223V117.893H156.48V113.636Z" fill="black"/>
<path d="M160.736 113.636H156.48V117.893H160.736V113.636Z" fill="black"/>
<path d="M164.993 113.636H160.736V117.893H164.993V113.636Z" fill="black"/>
<path d="M169.25 113.636H164.993V117.893H169.25V113.636Z" fill="black"/>
<path d="M16.0068 117.893H11.75V122.149H16.0068V117.893Z" fill="black"/>
<path d="M24.5203 117.893H20.2635V122.149H24.5203V117.893Z" fill="black"/>
<path d="M28.777 117.893H24.5203V122.149H28.777V117.893Z" fill="black"/>
<path d="M71.3446 117.893H67.0878V122.149H71.3446V117.893Z" fill="black"/>
<path d="M75.6014 117.893H71.3446V122.149H75.6014L75.6014 117.893Z" fill="black"/>
<path d="M92.6284 117.893H88.3716L88.3716 122.149H92.6284V117.893Z" fill="black"/>
<path d="M122.426 117.893H118.169V122.149H122.426V117.893Z" fill="black"/>
<path d="M139.453 117.893H135.196V122.149H139.453V117.893Z" fill="black"/>
<path d="M152.223 117.893H147.966V122.149H152.223V117.893Z" fill="black"/>
<path d="M16.0068 122.149H11.75V126.406H16.0068V122.149Z" fill="black"/>
<path d="M20.2635 122.149H16.0068V126.406H20.2635V122.149Z" fill="black"/>
<path d="M28.777 122.149H24.5203V126.406H28.777V122.149Z" fill="black"/>
<path d="M37.2905 122.149H33.0338V126.406H37.2905V122.149Z" fill="black"/>
<path d="M41.5473 122.149H37.2905V126.406H41.5473V122.149Z" fill="black"/>
<path d="M58.5743 122.149H54.3176V126.406H58.5743V122.149Z" fill="black"/>
<path d="M62.8311 122.149H58.5743V126.406H62.8311V122.149Z" fill="black"/>
<path d="M71.3446 122.149H67.0878V126.406H71.3446V122.149Z" fill="black"/>
<path d="M75.6014 122.149H71.3446V126.406H75.6014V122.149Z" fill="black"/>
<path d="M79.8581 122.149H75.6014V126.406H79.8581V122.149Z" fill="black"/>
<path d="M101.142 122.149H96.8851V126.406H101.142V122.149Z" fill="black"/>
<path d="M109.655 122.149H105.399V126.406H109.655V122.149Z" fill="black"/>
<path d="M113.912 122.149H109.655V126.406H113.912V122.149Z" fill="black"/>
<path d="M143.709 122.149H139.453V126.406H143.709V122.149Z" fill="black"/>
<path d="M147.966 122.149H143.709V126.406H147.966V122.149Z" fill="black"/>
<path d="M152.223 122.149H147.966V126.406H152.223V122.149Z" fill="black"/>
<path d="M160.736 122.149H156.48V126.406H160.736V122.149Z" fill="black"/>
<path d="M164.993 122.149H160.736V126.406H164.993V122.149Z" fill="black"/>
<path d="M45.8041 126.406H41.5473V130.663H45.8041V126.406Z" fill="black"/>
<path d="M54.3176 126.406H50.0608V130.663H54.3176V126.406Z" fill="black"/>
<path d="M58.5743 126.406H54.3176V130.663H58.5743V126.406Z" fill="black"/>
<path d="M62.8311 126.406H58.5743V130.663H62.8311V126.406Z" fill="black"/>
<path d="M71.3446 126.406H67.0878V130.663H71.3446V126.406Z" fill="black"/>
<path d="M75.6014 126.406H71.3446V130.663H75.6014V126.406Z" fill="black"/>
<path d="M84.1149 126.406H79.8581L79.8581 130.663H84.1149V126.406Z" fill="black"/>
<path d="M92.6284 126.406H88.3716V130.663H92.6284V126.406Z" fill="black"/>
<path d="M96.8851 126.406H92.6284V130.663H96.8851V126.406Z" fill="black"/>
<path d="M105.399 126.406H101.142V130.663H105.399V126.406Z" fill="black"/>
<path d="M109.655 126.406H105.399V130.663H109.655V126.406Z" fill="black"/>
<path d="M118.169 126.406H113.912V130.663H118.169V126.406Z" fill="black"/>
<path d="M122.426 126.406H118.169V130.663H122.426V126.406Z" fill="black"/>
<path d="M126.682 126.406H122.426V130.663H126.682V126.406Z" fill="black"/>
<path d="M130.939 126.406H126.682V130.663H130.939V126.406Z" fill="black"/>
<path d="M135.196 126.406H130.939V130.663H135.196V126.406Z" fill="black"/>
<path d="M147.966 126.406H143.709V130.663H147.966V126.406Z" fill="black"/>
<path d="M152.223 126.406H147.966V130.663H152.223V126.406Z" fill="black"/>
<path d="M20.2635 130.663H16.0068V134.92H20.2635V130.663Z" fill="black"/>
<path d="M24.5203 130.663H20.2635V134.92H24.5203V130.663Z" fill="black"/>
<path d="M28.777 130.663H24.5203V134.92H28.777V130.663Z" fill="black"/>
<path d="M41.5473 130.663H37.2905V134.92H41.5473V130.663Z" fill="black"/>
<path d="M50.0608 130.663H45.8041V134.92H50.0608V130.663Z" fill="black"/>
<path d="M54.3176 130.663H50.0608V134.92H54.3176V130.663Z" fill="black"/>
<path d="M62.8311 130.663H58.5743V134.92H62.8311V130.663Z" fill="black"/>
<path d="M67.0878 130.663H62.8311V134.92H67.0878L67.0878 130.663Z" fill="black"/>
<path d="M71.3446 130.663H67.0878L67.0878 134.92H71.3446V130.663Z" fill="black"/>
<path d="M75.6014 130.663H71.3446V134.92H75.6014V130.663Z" fill="black"/>
<path d="M79.8581 130.663H75.6014V134.92H79.8581L79.8581 130.663Z" fill="black"/>
<path d="M88.3716 130.663H84.1149L84.1149 134.92H88.3716L88.3716 130.663Z" fill="black"/>
<path d="M101.142 130.663H96.8851V134.92H101.142V130.663Z" fill="black"/>
<path d="M105.399 130.663H101.142V134.92H105.399V130.663Z" fill="black"/>
<path d="M118.169 130.663H113.912V134.92H118.169V130.663Z" fill="black"/>
<path d="M122.426 130.663H118.169V134.92H122.426V130.663Z" fill="black"/>
<path d="M135.196 130.663H130.939V134.92H135.196V130.663Z" fill="black"/>
<path d="M139.453 130.663H135.196V134.92H139.453V130.663Z" fill="black"/>
<path d="M143.709 130.663H139.453V134.92H143.709V130.663Z" fill="black"/>
<path d="M147.966 130.663H143.709V134.92H147.966V130.663Z" fill="black"/>
<path d="M152.223 130.663H147.966V134.92H152.223V130.663Z" fill="black"/>
<path d="M156.48 130.663H152.223V134.92H156.48V130.663Z" fill="black"/>
<path d="M164.993 130.663H160.736V134.92H164.993V130.663Z" fill="black"/>
<path d="M169.25 130.663H164.993V134.92H169.25V130.663Z" fill="black"/>
<path d="M58.5743 134.92H54.3176V139.176H58.5743V134.92Z" fill="black"/>
<path d="M62.8311 134.92H58.5743V139.176H62.8311V134.92Z" fill="black"/>
<path d="M71.3446 134.92H67.0878L67.0878 139.176H71.3446V134.92Z" fill="black"/>
<path d="M92.6284 134.92H88.3716L88.3716 139.176H92.6284V134.92Z" fill="black"/>
<path d="M105.399 134.92H101.142V139.176H105.399V134.92Z" fill="black"/>
<path d="M109.655 134.92H105.399V139.176H109.655V134.92Z" fill="black"/>
<path d="M126.682 134.92H122.426V139.176H126.682V134.92Z" fill="black"/>
<path d="M135.196 134.92H130.939V139.176H135.196V134.92Z" fill="black"/>
<path d="M152.223 134.92H147.966V139.176H152.223V134.92Z" fill="black"/>
<path d="M160.736 134.92H156.48V139.176H160.736V134.92Z" fill="black"/>
<path d="M16.0068 139.176H11.75V143.433H16.0068V139.176Z" fill="black"/>
<path d="M20.2635 139.176H16.0068V143.433H20.2635V139.176Z" fill="black"/>
<path d="M24.5203 139.176H20.2635V143.433H24.5203V139.176Z" fill="black"/>
<path d="M28.777 139.176H24.5203V143.433H28.777V139.176Z" fill="black"/>
<path d="M33.0338 139.176H28.777V143.433H33.0338V139.176Z" fill="black"/>
<path d="M37.2905 139.176H33.0338V143.433H37.2905V139.176Z" fill="black"/>
<path d="M41.5473 139.176H37.2905V143.433H41.5473V139.176Z" fill="black"/>
<path d="M54.3176 139.176H50.0608V143.433H54.3176V139.176Z" fill="black"/>
<path d="M58.5743 139.176H54.3176V143.433H58.5743V139.176Z" fill="black"/>
<path d="M67.0878 139.176H62.8311L62.8311 143.433H67.0878L67.0878 139.176Z" fill="black"/>
<path d="M71.3446 139.176H67.0878L67.0878 143.433H71.3446V139.176Z" fill="black"/>
<path d="M84.1149 139.176H79.8581V143.433H84.1149V139.176Z" fill="black"/>
<path d="M88.3716 139.176H84.1149V143.433H88.3716L88.3716 139.176Z" fill="black"/>
<path d="M92.6284 139.176H88.3716L88.3716 143.433H92.6284V139.176Z" fill="black"/>
<path d="M101.142 139.176H96.8851V143.433H101.142V139.176Z" fill="black"/>
<path d="M105.399 139.176H101.142V143.433H105.399V139.176Z" fill="black"/>
<path d="M109.655 139.176H105.399V143.433H109.655V139.176Z" fill="black"/>
<path d="M113.912 139.176H109.655V143.433H113.912V139.176Z" fill="black"/>
<path d="M118.169 139.176H113.912V143.433H118.169V139.176Z" fill="black"/>
<path d="M122.426 139.176H118.169V143.433H122.426V139.176Z" fill="black"/>
<path d="M126.682 139.176H122.426V143.433H126.682V139.176Z" fill="black"/>
<path d="M135.196 139.176H130.939V143.433H135.196V139.176Z" fill="black"/>
<path d="M143.709 139.176H139.453V143.433H143.709V139.176Z" fill="black"/>
<path d="M152.223 139.176H147.966V143.433H152.223V139.176Z" fill="black"/>
<path d="M169.25 139.176H164.993V143.433H169.25V139.176Z" fill="black"/>
<path d="M16.0068 143.433H11.75V147.69H16.0068V143.433Z" fill="black"/>
<path d="M41.5473 143.433H37.2905V147.69H41.5473V143.433Z" fill="black"/>
<path d="M50.0608 143.433H45.8041V147.69H50.0608V143.433Z" fill="black"/>
<path d="M54.3176 143.433H50.0608V147.69H54.3176V143.433Z" fill="black"/>
<path d="M58.5743 143.433H54.3176V147.69H58.5743V143.433Z" fill="black"/>
<path d="M62.8311 143.433H58.5743V147.69H62.8311L62.8311 143.433Z" fill="black"/>
<path d="M67.0878 143.433H62.8311L62.8311 147.69H67.0878V143.433Z" fill="black"/>
<path d="M71.3446 143.433H67.0878V147.69H71.3446V143.433Z" fill="black"/>
<path d="M79.8581 143.433H75.6014V147.69H79.8581L79.8581 143.433Z" fill="black"/>
<path d="M84.1149 143.433H79.8581L79.8581 147.69H84.1149V143.433Z" fill="black"/>
<path d="M88.3716 143.433H84.1149V147.69H88.3716V143.433Z" fill="black"/>
<path d="M101.142 143.433H96.8851V147.69H101.142V143.433Z" fill="black"/>
<path d="M113.912 143.433H109.655V147.69H113.912V143.433Z" fill="black"/>
<path d="M118.169 143.433H113.912V147.69H118.169V143.433Z" fill="black"/>
<path d="M122.426 143.433H118.169V147.69H122.426V143.433Z" fill="black"/>
<path d="M126.682 143.433H122.426V147.69H126.682V143.433Z" fill="black"/>
<path d="M130.939 143.433H126.682V147.69H130.939V143.433Z" fill="black"/>
<path d="M135.196 143.433H130.939V147.69H135.196V143.433Z" fill="black"/>
<path d="M152.223 143.433H147.966V147.69H152.223V143.433Z" fill="black"/>
<path d="M160.736 143.433H156.48V147.69H160.736V143.433Z" fill="black"/>
<path d="M169.25 143.433H164.993V147.69H169.25V143.433Z" fill="black"/>
<path d="M16.0068 147.69H11.75V151.947H16.0068V147.69Z" fill="black"/>
<path d="M24.5203 147.69H20.2635V151.947H24.5203V147.69Z" fill="black"/>
<path d="M28.777 147.69H24.5203V151.947H28.777V147.69Z" fill="black"/>
<path d="M33.0338 147.69H28.777V151.947H33.0338V147.69Z" fill="black"/>
<path d="M41.5473 147.69H37.2905V151.947H41.5473V147.69Z" fill="black"/>
<path d="M58.5743 147.69H54.3176V151.947H58.5743V147.69Z" fill="black"/>
<path d="M62.8311 147.69H58.5743V151.947H62.8311V147.69Z" fill="black"/>
<path d="M79.8581 147.69H75.6014V151.947H79.8581V147.69Z" fill="black"/>
<path d="M92.6284 147.69H88.3716L88.3716 151.947H92.6284V147.69Z" fill="black"/>
<path d="M113.912 147.69H109.655V151.947H113.912V147.69Z" fill="black"/>
<path d="M135.196 147.69H130.939V151.947H135.196V147.69Z" fill="black"/>
<path d="M139.453 147.69H135.196V151.947H139.453V147.69Z" fill="black"/>
<path d="M143.709 147.69H139.453V151.947H143.709V147.69Z" fill="black"/>
<path d="M147.966 147.69H143.709V151.947H147.966V147.69Z" fill="black"/>
<path d="M152.223 147.69H147.966V151.947H152.223V147.69Z" fill="black"/>
<path d="M156.48 147.69H152.223V151.947H156.48V147.69Z" fill="black"/>
<path d="M160.736 147.69H156.48V151.947H160.736V147.69Z" fill="black"/>
<path d="M164.993 147.69H160.736V151.947H164.993V147.69Z" fill="black"/>
<path d="M16.0068 151.947H11.75V156.203H16.0068V151.947Z" fill="black"/>
<path d="M24.5203 151.947H20.2635V156.203H24.5203V151.947Z" fill="black"/>
<path d="M28.777 151.947H24.5203V156.203H28.777V151.947Z" fill="black"/>
<path d="M33.0338 151.947H28.777V156.203H33.0338V151.947Z" fill="black"/>
<path d="M41.5473 151.947H37.2905V156.203H41.5473V151.947Z" fill="black"/>
<path d="M62.8311 151.947H58.5743V156.203H62.8311V151.947Z" fill="black"/>
<path d="M71.3446 151.947H67.0878V156.203H71.3446V151.947Z" fill="black"/>
<path d="M75.6014 151.947H71.3446V156.203H75.6014L75.6014 151.947Z" fill="black"/>
<path d="M79.8581 151.947H75.6014L75.6014 156.203H79.8581V151.947Z" fill="black"/>
<path d="M92.6284 151.947H88.3716V156.203H92.6284V151.947Z" fill="black"/>
<path d="M96.8851 151.947H92.6284V156.203H96.8851V151.947Z" fill="black"/>
<path d="M101.142 151.947H96.8851V156.203H101.142V151.947Z" fill="black"/>
<path d="M109.655 151.947H105.399V156.203H109.655V151.947Z" fill="black"/>
<path d="M113.912 151.947H109.655V156.203H113.912V151.947Z" fill="black"/>
<path d="M122.426 151.947H118.169V156.203H122.426V151.947Z" fill="black"/>
<path d="M156.48 151.947H152.223V156.203H156.48V151.947Z" fill="black"/>
<path d="M164.993 151.947H160.736V156.203H164.993V151.947Z" fill="black"/>
<path d="M169.25 151.947H164.993V156.203H169.25V151.947Z" fill="black"/>
<path d="M16.0068 156.203H11.75V160.46H16.0068V156.203Z" fill="black"/>
<path d="M24.5203 156.203H20.2635V160.46H24.5203V156.203Z" fill="black"/>
<path d="M28.777 156.203H24.5203V160.46H28.777V156.203Z" fill="black"/>
<path d="M33.0338 156.203H28.777V160.46H33.0338V156.203Z" fill="black"/>
<path d="M41.5473 156.203H37.2905V160.46H41.5473V156.203Z" fill="black"/>
<path d="M50.0608 156.203H45.8041V160.46H50.0608V156.203Z" fill="black"/>
<path d="M54.3176 156.203H50.0608V160.46H54.3176V156.203Z" fill="black"/>
<path d="M58.5743 156.203H54.3176V160.46H58.5743V156.203Z" fill="black"/>
<path d="M75.6014 156.203H71.3446V160.46H75.6014V156.203Z" fill="black"/>
<path d="M92.6284 156.203H88.3716V160.46H92.6284V156.203Z" fill="black"/>
<path d="M109.655 156.203H105.399V160.46H109.655V156.203Z" fill="black"/>
<path d="M126.682 156.203H122.426V160.46H126.682V156.203Z" fill="black"/>
<path d="M156.48 156.203H152.223V160.46H156.48V156.203Z" fill="black"/>
<path d="M160.736 156.203H156.48V160.46H160.736V156.203Z" fill="black"/>
<path d="M16.0068 160.46H11.75V164.717H16.0068V160.46Z" fill="black"/>
<path d="M41.5473 160.46H37.2905V164.717H41.5473V160.46Z" fill="black"/>
<path d="M54.3176 160.46H50.0608V164.717H54.3176V160.46Z" fill="black"/>
<path d="M71.3446 160.46H67.0878V164.717H71.3446V160.46Z" fill="black"/>
<path d="M88.3716 160.46H84.1149V164.717H88.3716L88.3716 160.46Z" fill="black"/>
<path d="M101.142 160.46H96.8851V164.717H101.142V160.46Z" fill="black"/>
<path d="M105.399 160.46H101.142V164.717H105.399V160.46Z" fill="black"/>
<path d="M113.912 160.46H109.655V164.717H113.912V160.46Z" fill="black"/>
<path d="M139.453 160.46H135.196V164.717H139.453V160.46Z" fill="black"/>
<path d="M156.48 160.46H152.223V164.717H156.48V160.46Z" fill="black"/>
<path d="M160.736 160.46H156.48V164.717H160.736V160.46Z" fill="black"/>
<path d="M16.0068 164.717H11.75V168.974H16.0068V164.717Z" fill="black"/>
<path d="M20.2635 164.717H16.0068V168.974H20.2635V164.717Z" fill="black"/>
<path d="M24.5203 164.717H20.2635V168.974H24.5203V164.717Z" fill="black"/>
<path d="M28.777 164.717H24.5203V168.974H28.777V164.717Z" fill="black"/>
<path d="M33.0338 164.717H28.777V168.974H33.0338V164.717Z" fill="black"/>
<path d="M37.2905 164.717H33.0338V168.974H37.2905V164.717Z" fill="black"/>
<path d="M41.5473 164.717H37.2905V168.974H41.5473V164.717Z" fill="black"/>
<path d="M50.0608 164.717H45.8041V168.974H50.0608V164.717Z" fill="black"/>
<path d="M54.3176 164.717H50.0608V168.974H54.3176V164.717Z" fill="black"/>
<path d="M58.5743 164.717H54.3176V168.974H58.5743V164.717Z" fill="black"/>
<path d="M67.0878 164.717H62.8311V168.974H67.0878L67.0878 164.717Z" fill="black"/>
<path d="M71.3446 164.717H67.0878L67.0878 168.974H71.3446V164.717Z" fill="black"/>
<path d="M75.6014 164.717H71.3446V168.974H75.6014V164.717Z" fill="black"/>
<path d="M84.1149 164.717H79.8581V168.974H84.1149L84.1149 164.717Z" fill="black"/>
<path d="M88.3716 164.717H84.1149L84.1149 168.974H88.3716V164.717Z" fill="black"/>
<path d="M92.6284 164.717H88.3716V168.974H92.6284V164.717Z" fill="black"/>
<path d="M105.399 164.717H101.142V168.974H105.399V164.717Z" fill="black"/>
<path d="M109.655 164.717H105.399V168.974H109.655V164.717Z" fill="black"/>
<path d="M113.912 164.717H109.655V168.974H113.912V164.717Z" fill="black"/>
<path d="M122.426 164.717H118.169V168.974H122.426V164.717Z" fill="black"/>
<path d="M126.682 164.717H122.426V168.974H126.682V164.717Z" fill="black"/>
<path d="M130.939 164.717H126.682V168.974H130.939V164.717Z" fill="black"/>
<path d="M143.709 164.717H139.453V168.974H143.709V164.717Z" fill="black"/>
<path d="M152.223 164.717H147.966V168.974H152.223V164.717Z" fill="black"/>
<path d="M156.48 164.717H152.223V168.974H156.48V164.717Z" fill="black"/>
<path d="M160.736 164.717H156.48V168.974H160.736V164.717Z" fill="black"/>
<path d="M169.25 164.717H164.993V168.974H169.25V164.717Z" fill="black"/>
</g>
<defs>
<clipPath id="clip0_5784_15747">
<rect width="180" height="180" fill="white" transform="translate(0.5 0.223633)"/>
</clipPath>
</defs>
</svg>
