<svg width="188" height="189" viewBox="0 0 188 189" fill="none" xmlns="http://www.w3.org/2000/svg">
<rect width="188" height="188" transform="translate(0 0.0800781)" fill="#D1D1D1"/>
<g clip-path="url(#clip0_5813_9173)">
<path d="M172 16.0801H16V172.08H172V16.0801Z" fill="white"/>
<path d="M29.4392 25.8301H25.75V29.5193H29.4392V25.8301Z" fill="black"/>
<path d="M33.1284 25.8301H29.4392V29.5193H33.1284V25.8301Z" fill="black"/>
<path d="M36.8176 25.8301H33.1284V29.5193H36.8176V25.8301Z" fill="black"/>
<path d="M40.5068 25.8301H36.8176V29.5193H40.5068V25.8301Z" fill="black"/>
<path d="M44.1959 25.8301H40.5068V29.5193H44.1959V25.8301Z" fill="black"/>
<path d="M47.8851 25.8301H44.1959V29.5193H47.8851V25.8301Z" fill="black"/>
<path d="M51.5743 25.8301H47.8851V29.5193H51.5743V25.8301Z" fill="black"/>
<path d="M58.9527 25.8301H55.2635V29.5193H58.9527V25.8301Z" fill="black"/>
<path d="M66.3311 25.8301H62.6419V29.5193H66.3311V25.8301Z" fill="black"/>
<path d="M70.0203 25.8301H66.3311V29.5193H70.0203V25.8301Z" fill="black"/>
<path d="M73.7095 25.8301H70.0203V29.5193H73.7095V25.8301Z" fill="black"/>
<path d="M81.0878 25.8301H77.3986V29.5193H81.0878V25.8301Z" fill="black"/>
<path d="M88.4662 25.8301H84.777V29.5193H88.4662V25.8301Z" fill="black"/>
<path d="M95.8446 25.8301H92.1554V29.5193H95.8446V25.8301Z" fill="black"/>
<path d="M99.5338 25.8301H95.8446V29.5193H99.5338V25.8301Z" fill="black"/>
<path d="M106.912 25.8301H103.223V29.5193H106.912V25.8301Z" fill="black"/>
<path d="M117.98 25.8301H114.291V29.5193H117.98V25.8301Z" fill="black"/>
<path d="M125.358 25.8301H121.669V29.5193H125.358V25.8301Z" fill="black"/>
<path d="M132.736 25.8301H129.047V29.5193H132.736V25.8301Z" fill="black"/>
<path d="M140.115 25.8301H136.426V29.5193H140.115V25.8301Z" fill="black"/>
<path d="M143.804 25.8301H140.115V29.5193H143.804V25.8301Z" fill="black"/>
<path d="M147.493 25.8301H143.804V29.5193H147.493V25.8301Z" fill="black"/>
<path d="M151.182 25.8301H147.493V29.5193H151.182V25.8301Z" fill="black"/>
<path d="M154.872 25.8301H151.182V29.5193H154.872V25.8301Z" fill="black"/>
<path d="M158.561 25.8301H154.872V29.5193H158.561V25.8301Z" fill="black"/>
<path d="M162.25 25.8301H158.561V29.5193H162.25V25.8301Z" fill="black"/>
<path d="M29.4392 29.5193H25.75V33.2085H29.4392V29.5193Z" fill="black"/>
<path d="M51.5743 29.5193H47.8851V33.2085H51.5743V29.5193Z" fill="black"/>
<path d="M62.6419 29.5193H58.9527V33.2085H62.6419V29.5193Z" fill="black"/>
<path d="M66.3311 29.5193H62.6419V33.2085H66.3311V29.5193Z" fill="black"/>
<path d="M73.7095 29.5193H70.0203L70.0203 33.2085H73.7095V29.5193Z" fill="black"/>
<path d="M81.0878 29.5193H77.3986V33.2085H81.0878V29.5193Z" fill="black"/>
<path d="M84.777 29.5193H81.0878V33.2085H84.777L84.777 29.5193Z" fill="black"/>
<path d="M88.4662 29.5193H84.777L84.777 33.2085H88.4662V29.5193Z" fill="black"/>
<path d="M92.1554 29.5193H88.4662V33.2085H92.1554L92.1554 29.5193Z" fill="black"/>
<path d="M99.5338 29.5193H95.8446V33.2085H99.5338V29.5193Z" fill="black"/>
<path d="M103.223 29.5193H99.5338V33.2085H103.223V29.5193Z" fill="black"/>
<path d="M106.912 29.5193H103.223V33.2085H106.912V29.5193Z" fill="black"/>
<path d="M114.291 29.5193H110.601V33.2085H114.291V29.5193Z" fill="black"/>
<path d="M117.98 29.5193H114.291V33.2085H117.98V29.5193Z" fill="black"/>
<path d="M125.358 29.5193H121.669V33.2085H125.358V29.5193Z" fill="black"/>
<path d="M132.736 29.5193H129.047V33.2085H132.736V29.5193Z" fill="black"/>
<path d="M140.115 29.5193H136.426V33.2085H140.115V29.5193Z" fill="black"/>
<path d="M162.25 29.5193H158.561V33.2085H162.25V29.5193Z" fill="black"/>
<path d="M29.4392 33.2085H25.75V36.8976H29.4392V33.2085Z" fill="black"/>
<path d="M36.8176 33.2085H33.1284V36.8976H36.8176V33.2085Z" fill="black"/>
<path d="M40.5068 33.2085H36.8176V36.8976H40.5068V33.2085Z" fill="black"/>
<path d="M44.1959 33.2085H40.5068V36.8976H44.1959V33.2085Z" fill="black"/>
<path d="M51.5743 33.2085H47.8851V36.8976H51.5743V33.2085Z" fill="black"/>
<path d="M58.9527 33.2085H55.2635V36.8976H58.9527V33.2085Z" fill="black"/>
<path d="M62.6419 33.2085H58.9527V36.8976H62.6419V33.2085Z" fill="black"/>
<path d="M66.3311 33.2085H62.6419V36.8976H66.3311V33.2085Z" fill="black"/>
<path d="M84.777 33.2085H81.0878L81.0878 36.8976H84.777V33.2085Z" fill="black"/>
<path d="M92.1554 33.2085H88.4662L88.4662 36.8976H92.1554V33.2085Z" fill="black"/>
<path d="M103.223 33.2085H99.5338V36.8976H103.223V33.2085Z" fill="black"/>
<path d="M121.669 33.2085H117.98V36.8976H121.669V33.2085Z" fill="black"/>
<path d="M132.736 33.2085H129.047V36.8976H132.736V33.2085Z" fill="black"/>
<path d="M140.115 33.2085H136.426V36.8976H140.115V33.2085Z" fill="black"/>
<path d="M147.493 33.2085H143.804V36.8976H147.493V33.2085Z" fill="black"/>
<path d="M151.182 33.2085H147.493V36.8976H151.182V33.2085Z" fill="black"/>
<path d="M154.872 33.2085H151.182V36.8976H154.872V33.2085Z" fill="black"/>
<path d="M162.25 33.2085H158.561V36.8976H162.25V33.2085Z" fill="black"/>
<path d="M29.4392 36.8976H25.75V40.5868H29.4392V36.8976Z" fill="black"/>
<path d="M36.8176 36.8976H33.1284V40.5868H36.8176V36.8976Z" fill="black"/>
<path d="M40.5068 36.8976H36.8176V40.5868H40.5068V36.8976Z" fill="black"/>
<path d="M44.1959 36.8976H40.5068V40.5868H44.1959V36.8976Z" fill="black"/>
<path d="M51.5743 36.8976H47.8851V40.5868H51.5743V36.8976Z" fill="black"/>
<path d="M66.3311 36.8976H62.6419V40.5868H66.3311V36.8976Z" fill="black"/>
<path d="M95.8446 36.8976H92.1554L92.1554 40.5868H95.8446V36.8976Z" fill="black"/>
<path d="M99.5338 36.8976H95.8446V40.5868H99.5338V36.8976Z" fill="black"/>
<path d="M106.912 36.8976H103.223V40.5868H106.912V36.8976Z" fill="black"/>
<path d="M110.601 36.8976H106.912V40.5868H110.601V36.8976Z" fill="black"/>
<path d="M125.358 36.8976H121.669V40.5868H125.358V36.8976Z" fill="black"/>
<path d="M129.047 36.8976H125.358V40.5868H129.047V36.8976Z" fill="black"/>
<path d="M132.736 36.8976H129.047V40.5868H132.736V36.8976Z" fill="black"/>
<path d="M140.115 36.8976H136.426V40.5868H140.115V36.8976Z" fill="black"/>
<path d="M147.493 36.8976H143.804V40.5868H147.493V36.8976Z" fill="black"/>
<path d="M151.182 36.8976H147.493V40.5868H151.182V36.8976Z" fill="black"/>
<path d="M154.872 36.8976H151.182V40.5868H154.872V36.8976Z" fill="black"/>
<path d="M162.25 36.8976H158.561V40.5868H162.25V36.8976Z" fill="black"/>
<path d="M29.4392 40.5868H25.75V44.276H29.4392V40.5868Z" fill="black"/>
<path d="M36.8176 40.5868H33.1284V44.276H36.8176V40.5868Z" fill="black"/>
<path d="M40.5068 40.5868H36.8176V44.276H40.5068V40.5868Z" fill="black"/>
<path d="M44.1959 40.5868H40.5068V44.276H44.1959V40.5868Z" fill="black"/>
<path d="M51.5743 40.5868H47.8851V44.276H51.5743V40.5868Z" fill="black"/>
<path d="M70.0203 40.5868H66.3311V44.276H70.0203V40.5868Z" fill="black"/>
<path d="M84.777 40.5868H81.0878V44.276H84.777V40.5868Z" fill="black"/>
<path d="M88.4662 40.5868H84.777V44.276H88.4662V40.5868Z" fill="black"/>
<path d="M95.8446 40.5868H92.1554V44.276H95.8446V40.5868Z" fill="black"/>
<path d="M99.5338 40.5868H95.8446V44.276H99.5338V40.5868Z" fill="black"/>
<path d="M103.223 40.5868H99.5338V44.276H103.223V40.5868Z" fill="black"/>
<path d="M121.669 40.5868H117.98V44.276H121.669V40.5868Z" fill="black"/>
<path d="M125.358 40.5868H121.669V44.276H125.358V40.5868Z" fill="black"/>
<path d="M129.047 40.5868H125.358V44.276H129.047V40.5868Z" fill="black"/>
<path d="M140.115 40.5868H136.426V44.276H140.115V40.5868Z" fill="black"/>
<path d="M147.493 40.5868H143.804V44.276H147.493V40.5868Z" fill="black"/>
<path d="M151.182 40.5868H147.493V44.276H151.182V40.5868Z" fill="black"/>
<path d="M154.872 40.5868H151.182V44.276H154.872V40.5868Z" fill="black"/>
<path d="M162.25 40.5868H158.561V44.276H162.25V40.5868Z" fill="black"/>
<path d="M29.4392 44.276H25.75V47.9652H29.4392V44.276Z" fill="black"/>
<path d="M51.5743 44.276H47.8851V47.9652H51.5743V44.276Z" fill="black"/>
<path d="M62.6419 44.276H58.9527V47.9652H62.6419V44.276Z" fill="black"/>
<path d="M66.3311 44.276H62.6419V47.9652H66.3311V44.276Z" fill="black"/>
<path d="M70.0203 44.276H66.3311V47.9652H70.0203V44.276Z" fill="black"/>
<path d="M92.1554 44.276H88.4662L88.4662 47.9652H92.1554L92.1554 44.276Z" fill="black"/>
<path d="M106.912 44.276H103.223V47.9652H106.912V44.276Z" fill="black"/>
<path d="M117.98 44.276H114.291V47.9652H117.98V44.276Z" fill="black"/>
<path d="M121.669 44.276H117.98V47.9652H121.669V44.276Z" fill="black"/>
<path d="M132.736 44.276H129.047V47.9652H132.736V44.276Z" fill="black"/>
<path d="M140.115 44.276H136.426V47.9652H140.115V44.276Z" fill="black"/>
<path d="M162.25 44.276H158.561V47.9652H162.25V44.276Z" fill="black"/>
<path d="M29.4392 47.9652H25.75V51.6544H29.4392V47.9652Z" fill="black"/>
<path d="M33.1284 47.9652H29.4392V51.6544H33.1284V47.9652Z" fill="black"/>
<path d="M36.8176 47.9652H33.1284V51.6544H36.8176V47.9652Z" fill="black"/>
<path d="M40.5068 47.9652H36.8176V51.6544H40.5068V47.9652Z" fill="black"/>
<path d="M44.1959 47.9652H40.5068V51.6544H44.1959V47.9652Z" fill="black"/>
<path d="M47.8851 47.9652H44.1959V51.6544H47.8851V47.9652Z" fill="black"/>
<path d="M51.5743 47.9652H47.8851V51.6544H51.5743V47.9652Z" fill="black"/>
<path d="M58.9527 47.9652H55.2635V51.6544H58.9527V47.9652Z" fill="black"/>
<path d="M66.3311 47.9652H62.6419V51.6544H66.3311V47.9652Z" fill="black"/>
<path d="M73.7095 47.9652H70.0203L70.0203 51.6544H73.7095V47.9652Z" fill="black"/>
<path d="M81.0878 47.9652H77.3986V51.6544H81.0878V47.9652Z" fill="black"/>
<path d="M88.4662 47.9652H84.777V51.6544H88.4662L88.4662 47.9652Z" fill="black"/>
<path d="M95.8446 47.9652H92.1554L92.1554 51.6544H95.8446V47.9652Z" fill="black"/>
<path d="M103.223 47.9652H99.5338V51.6544H103.223V47.9652Z" fill="black"/>
<path d="M110.601 47.9652H106.912V51.6544H110.601V47.9652Z" fill="black"/>
<path d="M117.98 47.9652H114.291V51.6544H117.98V47.9652Z" fill="black"/>
<path d="M125.358 47.9652H121.669V51.6544H125.358V47.9652Z" fill="black"/>
<path d="M132.736 47.9652H129.047V51.6544H132.736V47.9652Z" fill="black"/>
<path d="M140.115 47.9652H136.426V51.6544H140.115V47.9652Z" fill="black"/>
<path d="M143.804 47.9652H140.115V51.6544H143.804V47.9652Z" fill="black"/>
<path d="M147.493 47.9652H143.804V51.6544H147.493V47.9652Z" fill="black"/>
<path d="M151.182 47.9652H147.493V51.6544H151.182V47.9652Z" fill="black"/>
<path d="M154.872 47.9652H151.182V51.6544H154.872V47.9652Z" fill="black"/>
<path d="M158.561 47.9652H154.872V51.6544H158.561V47.9652Z" fill="black"/>
<path d="M162.25 47.9652H158.561V51.6544H162.25V47.9652Z" fill="black"/>
<path d="M58.9527 51.6544H55.2635V55.3436H58.9527V51.6544Z" fill="black"/>
<path d="M62.6419 51.6544H58.9527V55.3436H62.6419V51.6544Z" fill="black"/>
<path d="M66.3311 51.6544H62.6419V55.3436H66.3311V51.6544Z" fill="black"/>
<path d="M73.7095 51.6544H70.0203V55.3436H73.7095V51.6544Z" fill="black"/>
<path d="M77.3986 51.6544H73.7095V55.3436H77.3986V51.6544Z" fill="black"/>
<path d="M81.0878 51.6544H77.3986V55.3436H81.0878V51.6544Z" fill="black"/>
<path d="M88.4662 51.6544H84.777V55.3436H88.4662V51.6544Z" fill="black"/>
<path d="M92.1554 51.6544H88.4662V55.3436H92.1554L92.1554 51.6544Z" fill="black"/>
<path d="M106.912 51.6544H103.223V55.3436H106.912V51.6544Z" fill="black"/>
<path d="M117.98 51.6544H114.291V55.3436H117.98V51.6544Z" fill="black"/>
<path d="M125.358 51.6544H121.669V55.3436H125.358V51.6544Z" fill="black"/>
<path d="M129.047 51.6544H125.358V55.3436H129.047V51.6544Z" fill="black"/>
<path d="M132.736 51.6544H129.047V55.3436H132.736V51.6544Z" fill="black"/>
<path d="M29.4392 55.3436H25.75V59.0328H29.4392V55.3436Z" fill="black"/>
<path d="M36.8176 55.3436H33.1284V59.0328H36.8176V55.3436Z" fill="black"/>
<path d="M47.8851 55.3436H44.1959V59.0328H47.8851V55.3436Z" fill="black"/>
<path d="M51.5743 55.3436H47.8851V59.0328H51.5743V55.3436Z" fill="black"/>
<path d="M62.6419 55.3436H58.9527V59.0328H62.6419V55.3436Z" fill="black"/>
<path d="M66.3311 55.3436H62.6419V59.0328H66.3311V55.3436Z" fill="black"/>
<path d="M70.0203 55.3436H66.3311V59.0328H70.0203L70.0203 55.3436Z" fill="black"/>
<path d="M81.0878 55.3436H77.3986V59.0328H81.0878V55.3436Z" fill="black"/>
<path d="M88.4662 55.3436H84.777V59.0328H88.4662V55.3436Z" fill="black"/>
<path d="M99.5338 55.3436H95.8446V59.0328H99.5338V55.3436Z" fill="black"/>
<path d="M103.223 55.3436H99.5338V59.0328H103.223V55.3436Z" fill="black"/>
<path d="M125.358 55.3436H121.669V59.0328H125.358V55.3436Z" fill="black"/>
<path d="M129.047 55.3436H125.358V59.0328H129.047V55.3436Z" fill="black"/>
<path d="M132.736 55.3436H129.047V59.0328H132.736V55.3436Z" fill="black"/>
<path d="M136.426 55.3436H132.736V59.0328H136.426V55.3436Z" fill="black"/>
<path d="M140.115 55.3436H136.426V59.0328H140.115V55.3436Z" fill="black"/>
<path d="M154.872 55.3436H151.182V59.0328H154.872V55.3436Z" fill="black"/>
<path d="M162.25 55.3436H158.561V59.0328H162.25V55.3436Z" fill="black"/>
<path d="M33.1284 59.0328H29.4392V62.722H33.1284V59.0328Z" fill="black"/>
<path d="M36.8176 59.0328H33.1284V62.722H36.8176V59.0328Z" fill="black"/>
<path d="M40.5068 59.0328H36.8176V62.722H40.5068V59.0328Z" fill="black"/>
<path d="M47.8851 59.0328H44.1959V62.722H47.8851V59.0328Z" fill="black"/>
<path d="M55.2635 59.0328H51.5743V62.722H55.2635V59.0328Z" fill="black"/>
<path d="M58.9527 59.0328H55.2635V62.722H58.9527V59.0328Z" fill="black"/>
<path d="M66.3311 59.0328H62.6419V62.722H66.3311V59.0328Z" fill="black"/>
<path d="M70.0203 59.0328H66.3311V62.722H70.0203V59.0328Z" fill="black"/>
<path d="M77.3986 59.0328H73.7095V62.722H77.3986V59.0328Z" fill="black"/>
<path d="M84.777 59.0328H81.0878L81.0878 62.722H84.777L84.777 59.0328Z" fill="black"/>
<path d="M95.8446 59.0328H92.1554V62.722H95.8446V59.0328Z" fill="black"/>
<path d="M117.98 59.0328H114.291V62.722H117.98V59.0328Z" fill="black"/>
<path d="M121.669 59.0328H117.98V62.722H121.669V59.0328Z" fill="black"/>
<path d="M132.736 59.0328H129.047V62.722H132.736V59.0328Z" fill="black"/>
<path d="M154.872 59.0328H151.182V62.722H154.872V59.0328Z" fill="black"/>
<path d="M162.25 59.0328H158.561V62.722H162.25V59.0328Z" fill="black"/>
<path d="M33.1284 62.722H29.4392V66.4112H33.1284V62.722Z" fill="black"/>
<path d="M36.8176 62.722H33.1284V66.4112H36.8176V62.722Z" fill="black"/>
<path d="M40.5068 62.722H36.8176V66.4112H40.5068V62.722Z" fill="black"/>
<path d="M51.5743 62.722H47.8851V66.4112H51.5743V62.722Z" fill="black"/>
<path d="M55.2635 62.722H51.5743V66.4112H55.2635V62.722Z" fill="black"/>
<path d="M66.3311 62.722H62.6419V66.4112H66.3311V62.722Z" fill="black"/>
<path d="M81.0878 62.722H77.3986V66.4112H81.0878L81.0878 62.722Z" fill="black"/>
<path d="M88.4662 62.722H84.777L84.777 66.4112H88.4662V62.722Z" fill="black"/>
<path d="M103.223 62.722H99.5338V66.4112H103.223V62.722Z" fill="black"/>
<path d="M110.601 62.722H106.912V66.4112H110.601V62.722Z" fill="black"/>
<path d="M129.047 62.722H125.358V66.4112H129.047V62.722Z" fill="black"/>
<path d="M140.115 62.722H136.426V66.4112H140.115V62.722Z" fill="black"/>
<path d="M143.804 62.722H140.115V66.4112H143.804V62.722Z" fill="black"/>
<path d="M147.493 62.722H143.804V66.4112H147.493V62.722Z" fill="black"/>
<path d="M151.182 62.722H147.493V66.4112H151.182V62.722Z" fill="black"/>
<path d="M158.561 62.722H154.872V66.4112H158.561V62.722Z" fill="black"/>
<path d="M40.5068 66.4112H36.8176V70.1003H40.5068V66.4112Z" fill="black"/>
<path d="M47.8851 66.4112H44.1959V70.1003H47.8851V66.4112Z" fill="black"/>
<path d="M55.2635 66.4112H51.5743V70.1003H55.2635V66.4112Z" fill="black"/>
<path d="M77.3986 66.4112H73.7095V70.1003H77.3986V66.4112Z" fill="black"/>
<path d="M81.0878 66.4112H77.3986V70.1003H81.0878V66.4112Z" fill="black"/>
<path d="M84.777 66.4112H81.0878V70.1003H84.777L84.777 66.4112Z" fill="black"/>
<path d="M110.601 66.4112H106.912V70.1003H110.601V66.4112Z" fill="black"/>
<path d="M114.291 66.4112H110.601V70.1003H114.291V66.4112Z" fill="black"/>
<path d="M117.98 66.4112H114.291V70.1003H117.98V66.4112Z" fill="black"/>
<path d="M132.736 66.4112H129.047V70.1003H132.736V66.4112Z" fill="black"/>
<path d="M136.426 66.4112H132.736V70.1003H136.426V66.4112Z" fill="black"/>
<path d="M140.115 66.4112H136.426V70.1003H140.115V66.4112Z" fill="black"/>
<path d="M147.493 66.4112H143.804V70.1003H147.493V66.4112Z" fill="black"/>
<path d="M162.25 66.4112H158.561V70.1003H162.25V66.4112Z" fill="black"/>
<path d="M33.1284 70.1004H29.4392V73.7895H33.1284V70.1004Z" fill="black"/>
<path d="M40.5068 70.1003H36.8176V73.7895H40.5068V70.1003Z" fill="black"/>
<path d="M44.1959 70.1003H40.5068V73.7895H44.1959V70.1003Z" fill="black"/>
<path d="M47.8851 70.1003H44.1959V73.7895H47.8851V70.1003Z" fill="black"/>
<path d="M51.5743 70.1003H47.8851V73.7895H51.5743V70.1003Z" fill="black"/>
<path d="M58.9527 70.1004L55.2635 70.1003V73.7895H58.9527V70.1004Z" fill="black"/>
<path d="M62.6419 70.1004H58.9527V73.7895H62.6419V70.1004Z" fill="black"/>
<path d="M70.0203 70.1004H66.3311V73.7895H70.0203V70.1004Z" fill="black"/>
<path d="M73.7095 70.1003L70.0203 70.1004V73.7895H73.7095L73.7095 70.1003Z" fill="black"/>
<path d="M77.3986 70.1003H73.7095L73.7095 73.7895H77.3986V70.1003Z" fill="black"/>
<path d="M81.0878 70.1003H77.3986V73.7895H81.0878V70.1003Z" fill="black"/>
<path d="M88.4662 70.1004L84.777 70.1003L84.777 73.7895H88.4662V70.1004Z" fill="black"/>
<path d="M92.1554 70.1004H88.4662V73.7895H92.1554V70.1004Z" fill="black"/>
<path d="M95.8446 70.1004H92.1554V73.7895H95.8446V70.1004Z" fill="black"/>
<path d="M103.223 70.1004H99.5338V73.7895H103.223V70.1004Z" fill="black"/>
<path d="M121.669 70.1004L117.98 70.1003V73.7895H121.669V70.1004Z" fill="black"/>
<path d="M129.047 70.1003L125.358 70.1004V73.7895H129.047V70.1003Z" fill="black"/>
<path d="M132.736 70.1003H129.047V73.7895H132.736V70.1003Z" fill="black"/>
<path d="M140.115 70.1003H136.426V73.7895H140.115V70.1003Z" fill="black"/>
<path d="M151.182 70.1004L147.493 70.1003V73.7895H151.182V70.1004Z" fill="black"/>
<path d="M154.872 70.1004H151.182V73.7895H154.872V70.1004Z" fill="black"/>
<path d="M158.561 70.1003L154.872 70.1004V73.7895H158.561V70.1003Z" fill="black"/>
<path d="M162.25 70.1003H158.561V73.7895H162.25V70.1003Z" fill="black"/>
<path d="M29.4392 73.7895L25.75 73.7895V77.4787H29.4392V73.7895Z" fill="black"/>
<path d="M33.1284 73.7895H29.4392V77.4787H33.1284V73.7895Z" fill="black"/>
<path d="M40.5068 73.7895H36.8176V77.4787H40.5068V73.7895Z" fill="black"/>
<path d="M55.2635 73.7895H51.5743V77.4787H55.2635V73.7895Z" fill="black"/>
<path d="M66.3311 73.7895H62.6419V77.4787H66.3311V73.7895Z" fill="black"/>
<path d="M70.0203 73.7895H66.3311V77.4787H70.0203V73.7895Z" fill="black"/>
<path d="M73.7095 73.7895H70.0203V77.4787H73.7095V73.7895Z" fill="black"/>
<path d="M95.8446 73.7895H92.1554L92.1554 77.4787H95.8446V73.7895Z" fill="black"/>
<path d="M99.5338 73.7895H95.8446V77.4787H99.5338V73.7895Z" fill="black"/>
<path d="M114.291 73.7895H110.601V77.4787H114.291V73.7895Z" fill="black"/>
<path d="M117.98 73.7895L114.291 73.7895V77.4787H117.98V73.7895Z" fill="black"/>
<path d="M125.358 73.7895H121.669V77.4787H125.358V73.7895Z" fill="black"/>
<path d="M129.047 73.7895H125.358V77.4787H129.047V73.7895Z" fill="black"/>
<path d="M147.493 73.7895L143.804 73.7895V77.4787H147.493V73.7895Z" fill="black"/>
<path d="M151.182 73.7895H147.493V77.4787H151.182V73.7895Z" fill="black"/>
<path d="M158.561 73.7895H154.872V77.4787H158.561V73.7895Z" fill="black"/>
<path d="M162.25 73.7895H158.561V77.4787H162.25V73.7895Z" fill="black"/>
<path d="M29.4392 77.4787H25.75V81.1679H29.4392V77.4787Z" fill="black"/>
<path d="M40.5068 77.4787H36.8176V81.1679H40.5068V77.4787Z" fill="black"/>
<path d="M44.1959 77.4787H40.5068V81.1679H44.1959V77.4787Z" fill="black"/>
<path d="M47.8851 77.4787H44.1959V81.1679H47.8851V77.4787Z" fill="black"/>
<path d="M51.5743 77.4787H47.8851V81.1679H51.5743V77.4787Z" fill="black"/>
<path d="M58.9527 77.4787H55.2635V81.1679H58.9527V77.4787Z" fill="black"/>
<path d="M70.0203 77.4787H66.3311V81.1679H70.0203V77.4787Z" fill="black"/>
<path d="M77.3986 77.4787H73.7095L73.7095 81.1679H77.3986V77.4787Z" fill="black"/>
<path d="M84.777 77.4787H81.0878V81.1679H84.777V77.4787Z" fill="black"/>
<path d="M88.4662 77.4787H84.777V81.1679H88.4662V77.4787Z" fill="black"/>
<path d="M92.1554 77.4787H88.4662V81.1679H92.1554L92.1554 77.4787Z" fill="black"/>
<path d="M95.8446 77.4787H92.1554L92.1554 81.1679H95.8446V77.4787Z" fill="black"/>
<path d="M106.912 77.4787H103.223V81.1679H106.912V77.4787Z" fill="black"/>
<path d="M110.601 77.4787H106.912V81.1679H110.601V77.4787Z" fill="black"/>
<path d="M114.291 77.4787H110.601V81.1679H114.291V77.4787Z" fill="black"/>
<path d="M121.669 77.4787H117.98V81.1679H121.669V77.4787Z" fill="black"/>
<path d="M129.047 77.4787H125.358V81.1679H129.047V77.4787Z" fill="black"/>
<path d="M132.736 77.4787H129.047V81.1679H132.736V77.4787Z" fill="black"/>
<path d="M147.493 77.4787H143.804V81.1679H147.493V77.4787Z" fill="black"/>
<path d="M151.182 77.4787H147.493V81.1679H151.182V77.4787Z" fill="black"/>
<path d="M158.561 77.4787H154.872V81.1679H158.561V77.4787Z" fill="black"/>
<path d="M162.25 77.4787H158.561V81.1679H162.25V77.4787Z" fill="black"/>
<path d="M33.1284 81.1679L29.4392 81.1679V84.8571H33.1284V81.1679Z" fill="black"/>
<path d="M36.8176 81.1679L33.1284 81.1679V84.8571H36.8176V81.1679Z" fill="black"/>
<path d="M47.8851 81.1679H44.1959V84.8571H47.8851V81.1679Z" fill="black"/>
<path d="M55.2635 81.1679H51.5743V84.8571H55.2635V81.1679Z" fill="black"/>
<path d="M66.3311 81.1679L62.6419 81.1679V84.8571H66.3311V81.1679Z" fill="black"/>
<path d="M73.7095 81.1679H70.0203L70.0203 84.8571H73.7095L73.7095 81.1679Z" fill="black"/>
<path d="M77.3986 81.1679H73.7095L73.7095 84.8571H77.3986V81.1679Z" fill="black"/>
<path d="M81.0878 81.1679H77.3986V84.8571H81.0878L81.0878 81.1679Z" fill="black"/>
<path d="M84.777 81.1679H81.0878L81.0878 84.8571H84.777V81.1679Z" fill="black"/>
<path d="M99.5338 81.1679L95.8446 81.1679V84.8571H99.5338V81.1679Z" fill="black"/>
<path d="M106.912 81.1679H103.223V84.8571H106.912V81.1679Z" fill="black"/>
<path d="M110.601 81.1679H106.912V84.8571H110.601V81.1679Z" fill="black"/>
<path d="M117.98 81.1679H114.291V84.8571H117.98V81.1679Z" fill="black"/>
<path d="M125.358 81.1679H121.669V84.8571H125.358V81.1679Z" fill="black"/>
<path d="M132.736 81.1679H129.047V84.8571H132.736V81.1679Z" fill="black"/>
<path d="M136.426 81.1679L132.736 81.1679V84.8571H136.426V81.1679Z" fill="black"/>
<path d="M140.115 81.1679H136.426V84.8571H140.115V81.1679Z" fill="black"/>
<path d="M158.561 81.1679H154.872V84.8571H158.561V81.1679Z" fill="black"/>
<path d="M29.4392 84.8571L25.75 84.8571V88.5463H29.4392V84.8571Z" fill="black"/>
<path d="M36.8176 84.8571H33.1284V88.5463H36.8176V84.8571Z" fill="black"/>
<path d="M40.5068 84.8571L36.8176 84.8571V88.5463H40.5068V84.8571Z" fill="black"/>
<path d="M47.8851 84.8571H44.1959V88.5463H47.8851V84.8571Z" fill="black"/>
<path d="M51.5743 84.8571H47.8851V88.5463H51.5743V84.8571Z" fill="black"/>
<path d="M55.2635 84.8571H51.5743V88.5463H55.2635V84.8571Z" fill="black"/>
<path d="M77.3986 84.8571H73.7095L73.7095 88.5463H77.3986V84.8571Z" fill="black"/>
<path d="M81.0878 84.8571H77.3986V88.5463H81.0878V84.8571Z" fill="black"/>
<path d="M84.777 84.8571H81.0878V88.5463H84.777V84.8571Z" fill="black"/>
<path d="M88.4662 84.8571L84.777 84.8571V88.5463H88.4662V84.8571Z" fill="black"/>
<path d="M92.1554 84.8571H88.4662V88.5463H92.1554V84.8571Z" fill="black"/>
<path d="M95.8446 84.8571L92.1554 84.8571V88.5463H95.8446V84.8571Z" fill="black"/>
<path d="M99.5338 84.8571H95.8446V88.5463H99.5338V84.8571Z" fill="black"/>
<path d="M103.223 84.8571H99.5338V88.5463H103.223V84.8571Z" fill="black"/>
<path d="M106.912 84.8571H103.223V88.5463H106.912V84.8571Z" fill="black"/>
<path d="M114.291 84.8571H110.601V88.5463H114.291V84.8571Z" fill="black"/>
<path d="M132.736 84.8571H129.047V88.5463H132.736V84.8571Z" fill="black"/>
<path d="M136.426 84.8571H132.736V88.5463H136.426V84.8571Z" fill="black"/>
<path d="M143.804 84.8571L140.115 84.8571V88.5463H143.804V84.8571Z" fill="black"/>
<path d="M147.493 84.8571H143.804V88.5463H147.493V84.8571Z" fill="black"/>
<path d="M151.182 84.8571H147.493V88.5463H151.182V84.8571Z" fill="black"/>
<path d="M154.872 84.8571L151.182 84.8571V88.5463H154.872V84.8571Z" fill="black"/>
<path d="M158.561 84.8571H154.872V88.5463H158.561V84.8571Z" fill="black"/>
<path d="M162.25 84.8571L158.561 84.8571V88.5463H162.25V84.8571Z" fill="black"/>
<path d="M33.1284 88.5463H29.4392V92.2355H33.1284V88.5463Z" fill="black"/>
<path d="M36.8176 88.5463H33.1284V92.2355H36.8176V88.5463Z" fill="black"/>
<path d="M40.5068 88.5463H36.8176V92.2355H40.5068V88.5463Z" fill="black"/>
<path d="M47.8851 88.5463H44.1959V92.2355H47.8851V88.5463Z" fill="black"/>
<path d="M55.2635 88.5463H51.5743V92.2355H55.2635V88.5463Z" fill="black"/>
<path d="M58.9527 88.5463L55.2635 88.5463V92.2355H58.9527V88.5463Z" fill="black"/>
<path d="M81.0878 88.5463H77.3986V92.2355H81.0878V88.5463Z" fill="black"/>
<path d="M88.4662 88.5463H84.777L84.777 92.2355H88.4662V88.5463Z" fill="black"/>
<path d="M95.8446 88.5463H92.1554L92.1554 92.2355H95.8446V88.5463Z" fill="black"/>
<path d="M106.912 88.5463H103.223V92.2355H106.912V88.5463Z" fill="black"/>
<path d="M114.291 88.5463H110.601V92.2355H114.291V88.5463Z" fill="black"/>
<path d="M117.98 88.5463L114.291 88.5463V92.2355H117.98V88.5463Z" fill="black"/>
<path d="M140.115 88.5463H136.426V92.2355H140.115V88.5463Z" fill="black"/>
<path d="M147.493 88.5463H143.804V92.2355H147.493V88.5463Z" fill="black"/>
<path d="M154.872 88.5463H151.182V92.2355H154.872V88.5463Z" fill="black"/>
<path d="M33.1284 92.2355H29.4392V95.9247H33.1284V92.2355Z" fill="black"/>
<path d="M36.8176 92.2355H33.1284V95.9247H36.8176V92.2355Z" fill="black"/>
<path d="M40.5068 92.2355H36.8176V95.9247H40.5068V92.2355Z" fill="black"/>
<path d="M44.1959 92.2355H40.5068V95.9247H44.1959V92.2355Z" fill="black"/>
<path d="M47.8851 92.2355H44.1959V95.9247H47.8851V92.2355Z" fill="black"/>
<path d="M51.5743 92.2355H47.8851V95.9247H51.5743V92.2355Z" fill="black"/>
<path d="M70.0203 92.2355H66.3311V95.9247H70.0203V92.2355Z" fill="black"/>
<path d="M81.0878 92.2355H77.3986V95.9247H81.0878V92.2355Z" fill="black"/>
<path d="M84.777 92.2355H81.0878V95.9247H84.777L84.777 92.2355Z" fill="black"/>
<path d="M88.4662 92.2355H84.777L84.777 95.9247H88.4662V92.2355Z" fill="black"/>
<path d="M92.1554 92.2355H88.4662V95.9247H92.1554L92.1554 92.2355Z" fill="black"/>
<path d="M95.8446 92.2355H92.1554L92.1554 95.9247H95.8446V92.2355Z" fill="black"/>
<path d="M99.5338 92.2355L95.8446 92.2355V95.9247H99.5338V92.2355Z" fill="black"/>
<path d="M129.047 92.2355H125.358V95.9247H129.047V92.2355Z" fill="black"/>
<path d="M140.115 92.2355H136.426V95.9247H140.115V92.2355Z" fill="black"/>
<path d="M143.804 92.2355H140.115V95.9247H143.804V92.2355Z" fill="black"/>
<path d="M147.493 92.2355H143.804V95.9247H147.493V92.2355Z" fill="black"/>
<path d="M151.182 92.2355H147.493V95.9247H151.182V92.2355Z" fill="black"/>
<path d="M158.561 92.2355L154.872 92.2355V95.9247H158.561V92.2355Z" fill="black"/>
<path d="M29.4392 95.9247H25.75V99.6139H29.4392V95.9247Z" fill="black"/>
<path d="M36.8176 95.9247H33.1284V99.6139H36.8176V95.9247Z" fill="black"/>
<path d="M58.9527 95.9247H55.2635V99.6139H58.9527V95.9247Z" fill="black"/>
<path d="M70.0203 95.9247H66.3311V99.6139H70.0203V95.9247Z" fill="black"/>
<path d="M77.3986 95.9247H73.7095V99.6139H77.3986V95.9247Z" fill="black"/>
<path d="M81.0878 95.9247H77.3986V99.6139H81.0878V95.9247Z" fill="black"/>
<path d="M84.777 95.9247H81.0878V99.6139H84.777V95.9247Z" fill="black"/>
<path d="M95.8446 95.9247H92.1554L92.1554 99.6139H95.8446V95.9247Z" fill="black"/>
<path d="M103.223 95.9247H99.5338V99.6139H103.223V95.9247Z" fill="black"/>
<path d="M106.912 95.9247H103.223V99.6139H106.912V95.9247Z" fill="black"/>
<path d="M110.601 95.9247H106.912V99.6139H110.601V95.9247Z" fill="black"/>
<path d="M117.98 95.9247H114.291V99.6139H117.98V95.9247Z" fill="black"/>
<path d="M129.047 95.9247H125.358V99.6139H129.047V95.9247Z" fill="black"/>
<path d="M136.426 95.9247H132.736V99.6139H136.426V95.9247Z" fill="black"/>
<path d="M140.115 95.9247H136.426V99.6139H140.115V95.9247Z" fill="black"/>
<path d="M154.872 95.9247H151.182V99.6139H154.872V95.9247Z" fill="black"/>
<path d="M162.25 95.9247H158.561V99.6139H162.25V95.9247Z" fill="black"/>
<path d="M29.4392 99.6139H25.75V103.303H29.4392V99.6139Z" fill="black"/>
<path d="M33.1284 99.6139H29.4392V103.303H33.1284V99.6139Z" fill="black"/>
<path d="M36.8176 99.6139H33.1284V103.303H36.8176V99.6139Z" fill="black"/>
<path d="M47.8851 99.6139H44.1959V103.303H47.8851V99.6139Z" fill="black"/>
<path d="M51.5743 99.6139H47.8851V103.303H51.5743V99.6139Z" fill="black"/>
<path d="M55.2635 99.6139H51.5743V103.303H55.2635V99.6139Z" fill="black"/>
<path d="M58.9527 99.6139H55.2635V103.303H58.9527V99.6139Z" fill="black"/>
<path d="M62.6419 99.6139H58.9527V103.303H62.6419V99.6139Z" fill="black"/>
<path d="M66.3311 99.6139H62.6419V103.303H66.3311V99.6139Z" fill="black"/>
<path d="M70.0203 99.6139H66.3311V103.303H70.0203V99.6139Z" fill="black"/>
<path d="M73.7095 99.6139H70.0203V103.303H73.7095L73.7095 99.6139Z" fill="black"/>
<path d="M77.3986 99.6139H73.7095L73.7095 103.303H77.3986V99.6139Z" fill="black"/>
<path d="M84.777 99.6139H81.0878L81.0878 103.303H84.777V99.6139Z" fill="black"/>
<path d="M114.291 99.6139H110.601V103.303H114.291V99.6139Z" fill="black"/>
<path d="M117.98 99.6139H114.291V103.303H117.98V99.6139Z" fill="black"/>
<path d="M121.669 99.6139H117.98V103.303H121.669V99.6139Z" fill="black"/>
<path d="M125.358 99.6139H121.669V103.303H125.358V99.6139Z" fill="black"/>
<path d="M129.047 99.6139H125.358V103.303H129.047V99.6139Z" fill="black"/>
<path d="M136.426 99.6139H132.736V103.303H136.426V99.6139Z" fill="black"/>
<path d="M140.115 99.6139H136.426V103.303H140.115V99.6139Z" fill="black"/>
<path d="M36.8176 103.303H33.1284V106.992H36.8176V103.303Z" fill="black"/>
<path d="M40.5068 103.303H36.8176V106.992H40.5068V103.303Z" fill="black"/>
<path d="M44.1959 103.303H40.5068V106.992H44.1959V103.303Z" fill="black"/>
<path d="M58.9527 103.303H55.2635V106.992H58.9527V103.303Z" fill="black"/>
<path d="M66.3311 103.303H62.6419V106.992H66.3311V103.303Z" fill="black"/>
<path d="M77.3986 103.303H73.7095L73.7095 106.992H77.3986V103.303Z" fill="black"/>
<path d="M84.777 103.303H81.0878V106.992H84.777V103.303Z" fill="black"/>
<path d="M88.4662 103.303H84.777V106.992H88.4662V103.303Z" fill="black"/>
<path d="M92.1554 103.303H88.4662V106.992H92.1554V103.303Z" fill="black"/>
<path d="M110.601 103.303H106.912V106.992H110.601V103.303Z" fill="black"/>
<path d="M117.98 103.303H114.291V106.992H117.98V103.303Z" fill="black"/>
<path d="M121.669 103.303H117.98V106.992H121.669V103.303Z" fill="black"/>
<path d="M125.358 103.303H121.669V106.992H125.358V103.303Z" fill="black"/>
<path d="M136.426 103.303H132.736V106.992H136.426V103.303Z" fill="black"/>
<path d="M143.804 103.303H140.115V106.992H143.804V103.303Z" fill="black"/>
<path d="M147.493 103.303H143.804V106.992H147.493V103.303Z" fill="black"/>
<path d="M154.872 103.303H151.182V106.992H154.872V103.303Z" fill="black"/>
<path d="M29.4392 106.992H25.75V110.681H29.4392V106.992Z" fill="black"/>
<path d="M36.8176 106.992H33.1284V110.681H36.8176V106.992Z" fill="black"/>
<path d="M40.5068 106.992H36.8176V110.681H40.5068V106.992Z" fill="black"/>
<path d="M51.5743 106.992H47.8851V110.681H51.5743V106.992Z" fill="black"/>
<path d="M55.2635 106.992H51.5743V110.681H55.2635V106.992Z" fill="black"/>
<path d="M58.9527 106.992H55.2635V110.681H58.9527V106.992Z" fill="black"/>
<path d="M62.6419 106.992H58.9527V110.681H62.6419V106.992Z" fill="black"/>
<path d="M106.912 106.992H103.223V110.681H106.912V106.992Z" fill="black"/>
<path d="M110.601 106.992H106.912V110.681H110.601V106.992Z" fill="black"/>
<path d="M114.291 106.992H110.601V110.681H114.291V106.992Z" fill="black"/>
<path d="M117.98 106.992H114.291V110.681H117.98V106.992Z" fill="black"/>
<path d="M121.669 106.992H117.98V110.681H121.669V106.992Z" fill="black"/>
<path d="M125.358 106.992H121.669V110.681H125.358V106.992Z" fill="black"/>
<path d="M129.047 106.992H125.358V110.681H129.047V106.992Z" fill="black"/>
<path d="M158.561 106.992H154.872V110.681H158.561V106.992Z" fill="black"/>
<path d="M29.4392 110.681H25.75V114.371H29.4392V110.681Z" fill="black"/>
<path d="M33.1284 110.681H29.4392V114.371H33.1284V110.681Z" fill="black"/>
<path d="M40.5068 110.681H36.8176V114.371H40.5068V110.681Z" fill="black"/>
<path d="M58.9527 110.681H55.2635V114.371H58.9527V110.681Z" fill="black"/>
<path d="M66.3311 110.681H62.6419V114.371H66.3311V110.681Z" fill="black"/>
<path d="M73.7095 110.681H70.0203V114.371H73.7095V110.681Z" fill="black"/>
<path d="M77.3986 110.681H73.7095V114.371H77.3986V110.681Z" fill="black"/>
<path d="M81.0878 110.681H77.3986V114.371H81.0878V110.681Z" fill="black"/>
<path d="M84.777 110.681H81.0878V114.371H84.777V110.681Z" fill="black"/>
<path d="M99.5338 110.681H95.8446V114.371H99.5338V110.681Z" fill="black"/>
<path d="M106.912 110.681H103.223V114.371H106.912V110.681Z" fill="black"/>
<path d="M110.601 110.681H106.912V114.371H110.601V110.681Z" fill="black"/>
<path d="M125.358 110.681H121.669V114.371H125.358V110.681Z" fill="black"/>
<path d="M132.736 110.681H129.047V114.371H132.736V110.681Z" fill="black"/>
<path d="M136.426 110.681H132.736V114.371H136.426V110.681Z" fill="black"/>
<path d="M140.115 110.681H136.426V114.371H140.115V110.681Z" fill="black"/>
<path d="M143.804 110.681H140.115V114.371H143.804V110.681Z" fill="black"/>
<path d="M158.561 110.681H154.872V114.371H158.561V110.681Z" fill="black"/>
<path d="M47.8851 114.371H44.1959V118.06H47.8851V114.371Z" fill="black"/>
<path d="M51.5743 114.371H47.8851V118.06H51.5743V114.371Z" fill="black"/>
<path d="M84.777 114.371H81.0878L81.0878 118.06H84.777V114.371Z" fill="black"/>
<path d="M88.4662 114.371H84.777V118.06H88.4662V114.371Z" fill="black"/>
<path d="M92.1554 114.371H88.4662V118.06H92.1554V114.371Z" fill="black"/>
<path d="M95.8446 114.371H92.1554V118.06H95.8446V114.371Z" fill="black"/>
<path d="M99.5338 114.371H95.8446V118.06H99.5338V114.371Z" fill="black"/>
<path d="M103.223 114.371H99.5338V118.06H103.223V114.371Z" fill="black"/>
<path d="M114.291 114.371H110.601V118.06H114.291V114.371Z" fill="black"/>
<path d="M132.736 114.371H129.047V118.06H132.736V114.371Z" fill="black"/>
<path d="M136.426 114.371H132.736V118.06H136.426V114.371Z" fill="black"/>
<path d="M143.804 114.371H140.115V118.06H143.804V114.371Z" fill="black"/>
<path d="M147.493 114.371H143.804V118.06H147.493V114.371Z" fill="black"/>
<path d="M151.182 114.371H147.493V118.06H151.182V114.371Z" fill="black"/>
<path d="M154.872 114.371H151.182V118.06H154.872V114.371Z" fill="black"/>
<path d="M158.561 114.371H154.872V118.06H158.561V114.371Z" fill="black"/>
<path d="M162.25 114.371H158.561V118.06H162.25V114.371Z" fill="black"/>
<path d="M29.4392 118.06H25.75V121.749H29.4392V118.06Z" fill="black"/>
<path d="M36.8176 118.06H33.1284V121.749H36.8176V118.06Z" fill="black"/>
<path d="M40.5068 118.06H36.8176V121.749H40.5068V118.06Z" fill="black"/>
<path d="M77.3986 118.06H73.7095V121.749H77.3986V118.06Z" fill="black"/>
<path d="M81.0878 118.06H77.3986V121.749H81.0878L81.0878 118.06Z" fill="black"/>
<path d="M95.8446 118.06H92.1554L92.1554 121.749H95.8446V118.06Z" fill="black"/>
<path d="M121.669 118.06H117.98V121.749H121.669V118.06Z" fill="black"/>
<path d="M136.426 118.06H132.736V121.749H136.426V118.06Z" fill="black"/>
<path d="M147.493 118.06H143.804V121.749H147.493V118.06Z" fill="black"/>
<path d="M29.4392 121.749H25.75V125.438H29.4392V121.749Z" fill="black"/>
<path d="M33.1284 121.749H29.4392V125.438H33.1284V121.749Z" fill="black"/>
<path d="M40.5068 121.749H36.8176V125.438H40.5068V121.749Z" fill="black"/>
<path d="M47.8851 121.749H44.1959V125.438H47.8851V121.749Z" fill="black"/>
<path d="M51.5743 121.749H47.8851V125.438H51.5743V121.749Z" fill="black"/>
<path d="M66.3311 121.749H62.6419V125.438H66.3311V121.749Z" fill="black"/>
<path d="M70.0203 121.749H66.3311V125.438H70.0203V121.749Z" fill="black"/>
<path d="M77.3986 121.749H73.7095V125.438H77.3986V121.749Z" fill="black"/>
<path d="M81.0878 121.749H77.3986V125.438H81.0878V121.749Z" fill="black"/>
<path d="M84.777 121.749H81.0878V125.438H84.777V121.749Z" fill="black"/>
<path d="M103.223 121.749H99.5338V125.438H103.223V121.749Z" fill="black"/>
<path d="M110.601 121.749H106.912V125.438H110.601V121.749Z" fill="black"/>
<path d="M114.291 121.749H110.601V125.438H114.291V121.749Z" fill="black"/>
<path d="M140.115 121.749H136.426V125.438H140.115V121.749Z" fill="black"/>
<path d="M143.804 121.749H140.115V125.438H143.804V121.749Z" fill="black"/>
<path d="M147.493 121.749H143.804V125.438H147.493V121.749Z" fill="black"/>
<path d="M154.872 121.749H151.182V125.438H154.872V121.749Z" fill="black"/>
<path d="M158.561 121.749H154.872V125.438H158.561V121.749Z" fill="black"/>
<path d="M55.2635 125.438H51.5743V129.127H55.2635V125.438Z" fill="black"/>
<path d="M62.6419 125.438H58.9527V129.127H62.6419V125.438Z" fill="black"/>
<path d="M66.3311 125.438H62.6419V129.127H66.3311V125.438Z" fill="black"/>
<path d="M70.0203 125.438H66.3311V129.127H70.0203V125.438Z" fill="black"/>
<path d="M77.3986 125.438H73.7095V129.127H77.3986V125.438Z" fill="black"/>
<path d="M81.0878 125.438H77.3986V129.127H81.0878V125.438Z" fill="black"/>
<path d="M88.4662 125.438H84.777L84.777 129.127H88.4662V125.438Z" fill="black"/>
<path d="M95.8446 125.438H92.1554V129.127H95.8446V125.438Z" fill="black"/>
<path d="M99.5338 125.438H95.8446V129.127H99.5338V125.438Z" fill="black"/>
<path d="M106.912 125.438H103.223V129.127H106.912V125.438Z" fill="black"/>
<path d="M110.601 125.438H106.912V129.127H110.601V125.438Z" fill="black"/>
<path d="M117.98 125.438H114.291V129.127H117.98V125.438Z" fill="black"/>
<path d="M121.669 125.438H117.98V129.127H121.669V125.438Z" fill="black"/>
<path d="M125.358 125.438H121.669V129.127H125.358V125.438Z" fill="black"/>
<path d="M129.047 125.438H125.358V129.127H129.047V125.438Z" fill="black"/>
<path d="M132.736 125.438H129.047V129.127H132.736V125.438Z" fill="black"/>
<path d="M143.804 125.438H140.115V129.127H143.804V125.438Z" fill="black"/>
<path d="M147.493 125.438H143.804V129.127H147.493V125.438Z" fill="black"/>
<path d="M33.1284 129.127H29.4392V132.817H33.1284V129.127Z" fill="black"/>
<path d="M36.8176 129.127H33.1284V132.817H36.8176V129.127Z" fill="black"/>
<path d="M40.5068 129.127H36.8176V132.817H40.5068V129.127Z" fill="black"/>
<path d="M51.5743 129.127H47.8851V132.817H51.5743V129.127Z" fill="black"/>
<path d="M58.9527 129.127H55.2635V132.817H58.9527V129.127Z" fill="black"/>
<path d="M62.6419 129.127H58.9527V132.817H62.6419V129.127Z" fill="black"/>
<path d="M70.0203 129.127H66.3311V132.817H70.0203V129.127Z" fill="black"/>
<path d="M73.7095 129.127H70.0203V132.817H73.7095L73.7095 129.127Z" fill="black"/>
<path d="M77.3986 129.127H73.7095L73.7095 132.817H77.3986V129.127Z" fill="black"/>
<path d="M81.0878 129.127H77.3986V132.817H81.0878V129.127Z" fill="black"/>
<path d="M84.777 129.127H81.0878V132.817H84.777L84.777 129.127Z" fill="black"/>
<path d="M92.1554 129.127H88.4662L88.4662 132.817H92.1554L92.1554 129.127Z" fill="black"/>
<path d="M103.223 129.127H99.5338V132.817H103.223V129.127Z" fill="black"/>
<path d="M106.912 129.127H103.223V132.817H106.912V129.127Z" fill="black"/>
<path d="M117.98 129.127H114.291V132.817H117.98V129.127Z" fill="black"/>
<path d="M121.669 129.127H117.98V132.817H121.669V129.127Z" fill="black"/>
<path d="M132.736 129.127H129.047V132.817H132.736V129.127Z" fill="black"/>
<path d="M136.426 129.127H132.736V132.817H136.426V129.127Z" fill="black"/>
<path d="M140.115 129.127H136.426V132.817H140.115V129.127Z" fill="black"/>
<path d="M143.804 129.127H140.115V132.817H143.804V129.127Z" fill="black"/>
<path d="M147.493 129.127H143.804V132.817H147.493V129.127Z" fill="black"/>
<path d="M151.182 129.127H147.493V132.817H151.182V129.127Z" fill="black"/>
<path d="M158.561 129.127H154.872V132.817H158.561V129.127Z" fill="black"/>
<path d="M162.25 129.127H158.561V132.817H162.25V129.127Z" fill="black"/>
<path d="M66.3311 132.817H62.6419V136.506H66.3311V132.817Z" fill="black"/>
<path d="M70.0203 132.817H66.3311V136.506H70.0203V132.817Z" fill="black"/>
<path d="M77.3986 132.817H73.7095L73.7095 136.506H77.3986V132.817Z" fill="black"/>
<path d="M95.8446 132.817H92.1554L92.1554 136.506H95.8446V132.817Z" fill="black"/>
<path d="M106.912 132.817H103.223V136.506H106.912V132.817Z" fill="black"/>
<path d="M110.601 132.817H106.912V136.506H110.601V132.817Z" fill="black"/>
<path d="M125.358 132.817H121.669V136.506H125.358V132.817Z" fill="black"/>
<path d="M132.736 132.817H129.047V136.506H132.736V132.817Z" fill="black"/>
<path d="M147.493 132.817H143.804V136.506H147.493V132.817Z" fill="black"/>
<path d="M154.872 132.817H151.182V136.506H154.872V132.817Z" fill="black"/>
<path d="M29.4392 136.506H25.75V140.195H29.4392V136.506Z" fill="black"/>
<path d="M33.1284 136.506H29.4392V140.195H33.1284V136.506Z" fill="black"/>
<path d="M36.8176 136.506H33.1284V140.195H36.8176V136.506Z" fill="black"/>
<path d="M40.5068 136.506H36.8176V140.195H40.5068V136.506Z" fill="black"/>
<path d="M44.1959 136.506H40.5068V140.195H44.1959V136.506Z" fill="black"/>
<path d="M47.8851 136.506H44.1959V140.195H47.8851V136.506Z" fill="black"/>
<path d="M51.5743 136.506H47.8851V140.195H51.5743V136.506Z" fill="black"/>
<path d="M62.6419 136.506H58.9527V140.195H62.6419V136.506Z" fill="black"/>
<path d="M66.3311 136.506H62.6419V140.195H66.3311V136.506Z" fill="black"/>
<path d="M73.7095 136.506H70.0203L70.0203 140.195H73.7095L73.7095 136.506Z" fill="black"/>
<path d="M77.3986 136.506H73.7095L73.7095 140.195H77.3986V136.506Z" fill="black"/>
<path d="M88.4662 136.506H84.777V140.195H88.4662V136.506Z" fill="black"/>
<path d="M92.1554 136.506H88.4662V140.195H92.1554L92.1554 136.506Z" fill="black"/>
<path d="M95.8446 136.506H92.1554L92.1554 140.195H95.8446V136.506Z" fill="black"/>
<path d="M103.223 136.506H99.5338V140.195H103.223V136.506Z" fill="black"/>
<path d="M106.912 136.506H103.223V140.195H106.912V136.506Z" fill="black"/>
<path d="M110.601 136.506H106.912V140.195H110.601V136.506Z" fill="black"/>
<path d="M114.291 136.506H110.601V140.195H114.291V136.506Z" fill="black"/>
<path d="M117.98 136.506H114.291V140.195H117.98V136.506Z" fill="black"/>
<path d="M121.669 136.506H117.98V140.195H121.669V136.506Z" fill="black"/>
<path d="M125.358 136.506H121.669V140.195H125.358V136.506Z" fill="black"/>
<path d="M132.736 136.506H129.047V140.195H132.736V136.506Z" fill="black"/>
<path d="M140.115 136.506H136.426V140.195H140.115V136.506Z" fill="black"/>
<path d="M147.493 136.506H143.804V140.195H147.493V136.506Z" fill="black"/>
<path d="M162.25 136.506H158.561V140.195H162.25V136.506Z" fill="black"/>
<path d="M29.4392 140.195H25.75V143.884H29.4392V140.195Z" fill="black"/>
<path d="M51.5743 140.195H47.8851V143.884H51.5743V140.195Z" fill="black"/>
<path d="M58.9527 140.195H55.2635V143.884H58.9527V140.195Z" fill="black"/>
<path d="M62.6419 140.195H58.9527V143.884H62.6419V140.195Z" fill="black"/>
<path d="M66.3311 140.195H62.6419V143.884H66.3311V140.195Z" fill="black"/>
<path d="M70.0203 140.195H66.3311V143.884H70.0203L70.0203 140.195Z" fill="black"/>
<path d="M73.7095 140.195H70.0203L70.0203 143.884H73.7095V140.195Z" fill="black"/>
<path d="M77.3986 140.195H73.7095V143.884H77.3986V140.195Z" fill="black"/>
<path d="M84.777 140.195H81.0878V143.884H84.777L84.777 140.195Z" fill="black"/>
<path d="M88.4662 140.195H84.777L84.777 143.884H88.4662V140.195Z" fill="black"/>
<path d="M92.1554 140.195H88.4662V143.884H92.1554V140.195Z" fill="black"/>
<path d="M103.223 140.195H99.5338V143.884H103.223V140.195Z" fill="black"/>
<path d="M114.291 140.195H110.601V143.884H114.291V140.195Z" fill="black"/>
<path d="M117.98 140.195H114.291V143.884H117.98V140.195Z" fill="black"/>
<path d="M121.669 140.195H117.98V143.884H121.669V140.195Z" fill="black"/>
<path d="M125.358 140.195H121.669V143.884H125.358V140.195Z" fill="black"/>
<path d="M129.047 140.195H125.358V143.884H129.047V140.195Z" fill="black"/>
<path d="M132.736 140.195H129.047V143.884H132.736V140.195Z" fill="black"/>
<path d="M147.493 140.195H143.804V143.884H147.493V140.195Z" fill="black"/>
<path d="M154.872 140.195H151.182V143.884H154.872V140.195Z" fill="black"/>
<path d="M162.25 140.195H158.561V143.884H162.25V140.195Z" fill="black"/>
<path d="M29.4392 143.884H25.75V147.573H29.4392V143.884Z" fill="black"/>
<path d="M36.8176 143.884H33.1284V147.573H36.8176V143.884Z" fill="black"/>
<path d="M40.5068 143.884H36.8176V147.573H40.5068V143.884Z" fill="black"/>
<path d="M44.1959 143.884H40.5068V147.573H44.1959V143.884Z" fill="black"/>
<path d="M51.5743 143.884H47.8851V147.573H51.5743V143.884Z" fill="black"/>
<path d="M66.3311 143.884H62.6419V147.573H66.3311V143.884Z" fill="black"/>
<path d="M70.0203 143.884H66.3311V147.573H70.0203V143.884Z" fill="black"/>
<path d="M84.777 143.884H81.0878V147.573H84.777V143.884Z" fill="black"/>
<path d="M95.8446 143.884H92.1554L92.1554 147.573H95.8446V143.884Z" fill="black"/>
<path d="M114.291 143.884H110.601V147.573H114.291V143.884Z" fill="black"/>
<path d="M132.736 143.884H129.047V147.573H132.736V143.884Z" fill="black"/>
<path d="M136.426 143.884H132.736V147.573H136.426V143.884Z" fill="black"/>
<path d="M140.115 143.884H136.426V147.573H140.115V143.884Z" fill="black"/>
<path d="M143.804 143.884H140.115V147.573H143.804V143.884Z" fill="black"/>
<path d="M147.493 143.884H143.804V147.573H147.493V143.884Z" fill="black"/>
<path d="M151.182 143.884H147.493V147.573H151.182V143.884Z" fill="black"/>
<path d="M154.872 143.884H151.182V147.573H154.872V143.884Z" fill="black"/>
<path d="M158.561 143.884H154.872V147.573H158.561V143.884Z" fill="black"/>
<path d="M29.4392 147.573H25.75V151.263H29.4392V147.573Z" fill="black"/>
<path d="M36.8176 147.573H33.1284V151.263H36.8176V147.573Z" fill="black"/>
<path d="M40.5068 147.573H36.8176V151.263H40.5068V147.573Z" fill="black"/>
<path d="M44.1959 147.573H40.5068V151.263H44.1959V147.573Z" fill="black"/>
<path d="M51.5743 147.573H47.8851V151.263H51.5743V147.573Z" fill="black"/>
<path d="M70.0203 147.573H66.3311V151.263H70.0203V147.573Z" fill="black"/>
<path d="M77.3986 147.573H73.7095V151.263H77.3986V147.573Z" fill="black"/>
<path d="M81.0878 147.573H77.3986V151.263H81.0878L81.0878 147.573Z" fill="black"/>
<path d="M84.777 147.573H81.0878L81.0878 151.263H84.777V147.573Z" fill="black"/>
<path d="M95.8446 147.573H92.1554V151.263H95.8446V147.573Z" fill="black"/>
<path d="M99.5338 147.573H95.8446V151.263H99.5338V147.573Z" fill="black"/>
<path d="M103.223 147.573H99.5338V151.263H103.223V147.573Z" fill="black"/>
<path d="M110.601 147.573H106.912V151.263H110.601V147.573Z" fill="black"/>
<path d="M114.291 147.573H110.601V151.263H114.291V147.573Z" fill="black"/>
<path d="M121.669 147.573H117.98V151.263H121.669V147.573Z" fill="black"/>
<path d="M151.182 147.573H147.493V151.263H151.182V147.573Z" fill="black"/>
<path d="M158.561 147.573H154.872V151.263H158.561V147.573Z" fill="black"/>
<path d="M162.25 147.573H158.561V151.263H162.25V147.573Z" fill="black"/>
<path d="M29.4392 151.263H25.75V154.952H29.4392V151.263Z" fill="black"/>
<path d="M36.8176 151.263H33.1284V154.952H36.8176V151.263Z" fill="black"/>
<path d="M40.5068 151.263H36.8176V154.952H40.5068V151.263Z" fill="black"/>
<path d="M44.1959 151.263H40.5068V154.952H44.1959V151.263Z" fill="black"/>
<path d="M51.5743 151.263H47.8851V154.952H51.5743V151.263Z" fill="black"/>
<path d="M58.9527 151.263H55.2635V154.952H58.9527V151.263Z" fill="black"/>
<path d="M62.6419 151.263H58.9527V154.952H62.6419V151.263Z" fill="black"/>
<path d="M66.3311 151.263H62.6419V154.952H66.3311V151.263Z" fill="black"/>
<path d="M81.0878 151.263H77.3986V154.952H81.0878V151.263Z" fill="black"/>
<path d="M95.8446 151.263H92.1554V154.952H95.8446V151.263Z" fill="black"/>
<path d="M110.601 151.263H106.912V154.952H110.601V151.263Z" fill="black"/>
<path d="M125.358 151.263H121.669V154.952H125.358V151.263Z" fill="black"/>
<path d="M151.182 151.263H147.493V154.952H151.182V151.263Z" fill="black"/>
<path d="M154.872 151.263H151.182V154.952H154.872V151.263Z" fill="black"/>
<path d="M29.4392 154.952H25.75V158.641H29.4392V154.952Z" fill="black"/>
<path d="M51.5743 154.952H47.8851V158.641H51.5743V154.952Z" fill="black"/>
<path d="M62.6419 154.952H58.9527V158.641H62.6419V154.952Z" fill="black"/>
<path d="M77.3986 154.952H73.7095V158.641H77.3986V154.952Z" fill="black"/>
<path d="M92.1554 154.952H88.4662V158.641H92.1554L92.1554 154.952Z" fill="black"/>
<path d="M103.223 154.952H99.5338V158.641H103.223V154.952Z" fill="black"/>
<path d="M106.912 154.952H103.223V158.641H106.912V154.952Z" fill="black"/>
<path d="M114.291 154.952H110.601V158.641H114.291V154.952Z" fill="black"/>
<path d="M136.426 154.952H132.736V158.641H136.426V154.952Z" fill="black"/>
<path d="M151.182 154.952H147.493V158.641H151.182V154.952Z" fill="black"/>
<path d="M154.872 154.952H151.182V158.641H154.872V154.952Z" fill="black"/>
<path d="M29.4392 158.641H25.75V162.33H29.4392V158.641Z" fill="black"/>
<path d="M33.1284 158.641H29.4392V162.33H33.1284V158.641Z" fill="black"/>
<path d="M36.8176 158.641H33.1284V162.33H36.8176V158.641Z" fill="black"/>
<path d="M40.5068 158.641H36.8176V162.33H40.5068V158.641Z" fill="black"/>
<path d="M44.1959 158.641H40.5068V162.33H44.1959V158.641Z" fill="black"/>
<path d="M47.8851 158.641H44.1959V162.33H47.8851V158.641Z" fill="black"/>
<path d="M51.5743 158.641H47.8851V162.33H51.5743V158.641Z" fill="black"/>
<path d="M58.9527 158.641H55.2635V162.33H58.9527V158.641Z" fill="black"/>
<path d="M62.6419 158.641H58.9527V162.33H62.6419V158.641Z" fill="black"/>
<path d="M66.3311 158.641H62.6419V162.33H66.3311V158.641Z" fill="black"/>
<path d="M73.7095 158.641H70.0203V162.33H73.7095L73.7095 158.641Z" fill="black"/>
<path d="M77.3986 158.641H73.7095L73.7095 162.33H77.3986V158.641Z" fill="black"/>
<path d="M81.0878 158.641H77.3986V162.33H81.0878V158.641Z" fill="black"/>
<path d="M88.4662 158.641H84.777V162.33H88.4662L88.4662 158.641Z" fill="black"/>
<path d="M92.1554 158.641H88.4662L88.4662 162.33H92.1554V158.641Z" fill="black"/>
<path d="M95.8446 158.641H92.1554V162.33H95.8446V158.641Z" fill="black"/>
<path d="M106.912 158.641H103.223V162.33H106.912V158.641Z" fill="black"/>
<path d="M110.601 158.641H106.912V162.33H110.601V158.641Z" fill="black"/>
<path d="M114.291 158.641H110.601V162.33H114.291V158.641Z" fill="black"/>
<path d="M121.669 158.641H117.98V162.33H121.669V158.641Z" fill="black"/>
<path d="M125.358 158.641H121.669V162.33H125.358V158.641Z" fill="black"/>
<path d="M129.047 158.641H125.358V162.33H129.047V158.641Z" fill="black"/>
<path d="M140.115 158.641H136.426V162.33H140.115V158.641Z" fill="black"/>
<path d="M147.493 158.641H143.804V162.33H147.493V158.641Z" fill="black"/>
<path d="M151.182 158.641H147.493V162.33H151.182V158.641Z" fill="black"/>
<path d="M154.872 158.641H151.182V162.33H154.872V158.641Z" fill="black"/>
<path d="M162.25 158.641H158.561V162.33H162.25V158.641Z" fill="black"/>
</g>
<defs>
<clipPath id="clip0_5813_9173">
<rect width="156" height="156" fill="white" transform="translate(16 16.0801)"/>
</clipPath>
</defs>
</svg>
