<svg xmlns="http://www.w3.org/2000/svg" viewBox="0 0 135 40" width="135" height="40"><defs><style>.cls-2{fill:#fff}</style></defs><g id="Layer_3" data-name="Layer 3"><path fill="#a6a6a6" d="M125.47 0H7.52a13.39 13.39 0 0 0-2 .18 6.34 6.34 0 0 0-1.9.63A6.07 6.07 0 0 0 2 2 6.07 6.07 0 0 0 .82 3.62a6.74 6.74 0 0 0-.63 1.9 12.18 12.18 0 0 0-.17 2V32.48a12.18 12.18 0 0 0 .17 2 6.7 6.7 0 0 0 .63 1.91A6.19 6.19 0 0 0 2 38a6.07 6.07 0 0 0 1.62 1.18 6.64 6.64 0 0 0 1.9.63 13.39 13.39 0 0 0 2 .18h120a13.39 13.39 0 0 0 2-.18 6.74 6.74 0 0 0 1.9-.63A6.07 6.07 0 0 0 133 38a6.19 6.19 0 0 0 1.18-1.61 6.48 6.48 0 0 0 .62-1.91 13.41 13.41 0 0 0 .19-2v-.92V9.54 7.52a13.41 13.41 0 0 0-.19-2 6.43 6.43 0 0 0-3.41-4.7 6.91 6.91 0 0 0-1.91-.63 13.39 13.39 0 0 0-2-.18h-2z"/><path d="M8.44 39.13h-.9A11.7 11.7 0 0 1 5.67 39 5.79 5.79 0 0 1 4 38.4a5.5 5.5 0 0 1-1.39-1 5.19 5.19 0 0 1-1-1.4 5.69 5.69 0 0 1-.55-1.66 13 13 0 0 1-.16-1.87V8.44v-.89a13 13 0 0 1 .16-1.87A5.69 5.69 0 0 1 1.6 4a5.38 5.38 0 0 1 1-1.4 5.59 5.59 0 0 1 1.4-1 5.69 5.69 0 0 1 1.66-.55A11.7 11.7 0 0 1 7.54.89h119.92a12.73 12.73 0 0 1 1.86.16 5.75 5.75 0 0 1 1.68.55 5.5 5.5 0 0 1 2.95 4.07 13.15 13.15 0 0 1 .18 1.88v24.92a12.74 12.74 0 0 1-.18 1.85 5.45 5.45 0 0 1-.55 1.68 5.33 5.33 0 0 1-1 1.39 5.41 5.41 0 0 1-1.4 1 5.85 5.85 0 0 1-1.67.55 11.7 11.7 0 0 1-1.87.16H8.44z"/><path d="M49 16.1h-4.19l-1 2.95H42l4-11h1.84l4 11H50zm-3.74-1.37h3.31l-1.63-4.8h-.05zM60.32 15.06c0 2.48-1.33 4.08-3.33 4.08a2.72 2.72 0 0 1-2.52-1.4v4H52.8V11.07h1.58v1.33A2.84 2.84 0 0 1 57 11c2 0 3.32 1.59 3.32 4.06zm-1.69 0c0-1.61-.83-2.68-2.11-2.68s-2.09 1.09-2.09 2.68.84 2.69 2.09 2.69 2.11-1.06 2.11-2.69zM69.11 15.06c0 2.48-1.33 4.08-3.34 4.08a2.72 2.72 0 0 1-2.51-1.4v4h-1.68V11.07h1.59v1.33a2.82 2.82 0 0 1 2.57-1.4c2.03 0 3.37 1.59 3.37 4.06zm-1.69 0c0-1.61-.83-2.68-2.11-2.68s-2.09 1.09-2.09 2.68.84 2.69 2.09 2.69 2.11-1.06 2.11-2.69zM74.91 16c.12 1.09 1.18 1.8 2.62 1.8s2.37-.71 2.37-1.69-.59-1.36-2-1.71l-1.42-.34c-2-.48-3-1.42-3-3 0-1.89 1.65-3.19 4-3.19s3.9 1.3 3.95 3.19h-1.62c-.1-1.09-1-1.75-2.33-1.75S75.26 10 75.26 11c0 .77.58 1.23 2 1.57l1.21.3c2.24.53 3.17 1.43 3.17 3 0 2-1.63 3.33-4.22 3.33-2.42.04-4.08-1.2-4.19-3.2zM85.17 9.18v1.89h1.52v1.3h-1.52v4.4c0 .68.31 1 1 1a3.27 3.27 0 0 0 .54 0V19a4 4 0 0 1-.91.08c-1.61 0-2.24-.61-2.24-2.15v-4.56h-1.19v-1.3h1.16V9.18zM87.57 15.06c0-2.51 1.48-4.09 3.79-4.09s3.78 1.58 3.78 4.09-1.46 4.09-3.78 4.09-3.79-1.57-3.79-4.09zm5.9 0c0-1.72-.79-2.74-2.11-2.74s-2.12 1-2.12 2.74.76 2.74 2.12 2.74 2.11-1.01 2.11-2.74zM96.49 11.07h1.57v1.36A1.9 1.9 0 0 1 100 11a2.74 2.74 0 0 1 .56.06v1.53a2.64 2.64 0 0 0-.74-.1 1.66 1.66 0 0 0-1.72 1.59 2.09 2.09 0 0 0 0 .25v4.73h-1.61zM108.13 16.71a3.2 3.2 0 0 1-3.43 2.44c-2.33 0-3.77-1.55-3.77-4s1.45-4.13 3.7-4.13 3.59 1.52 3.59 3.94v.56h-5.63v.1a2.08 2.08 0 0 0 1.88 2.26 2.25 2.25 0 0 0 .26 0 1.8 1.8 0 0 0 1.85-1.12zm-5.54-2.38h4a1.92 1.92 0 0 0-1.81-2h-.14a2 2 0 0 0-2 2zM44.15 31.16l.07-.86a3.08 3.08 0 0 0 1 .16c.3 0 .42 0 .57-.24a4.83 4.83 0 0 0 .46-2.43c0-.89-.28-1.15-1-1.15h-.54A14.39 14.39 0 0 1 42.87 31l-.82-.45a11.59 11.59 0 0 0 1.73-3.8 14.62 14.62 0 0 0-1.61.27l-.17-.87c.61-.11 1.33-.21 2-.27a19.14 19.14 0 0 0 .31-2l1 .11c-.09.61-.2 1.21-.34 1.8h.39c1.25 0 1.86.63 1.86 1.95a6.22 6.22 0 0 1-.58 2.94 1.2 1.2 0 0 1-1.18.63 4.91 4.91 0 0 1-1.31-.15zm3.18-5.33l.73-.48A5.57 5.57 0 0 1 49.75 29l-1 .15a4.61 4.61 0 0 0-1.42-3.32zM53 31.3l-.2-.89h.77c2 0 2.7-.55 2.7-1.37 0-.66-.42-1-1.37-1a4.24 4.24 0 0 0-2.71 1.32l-.73-.36a5.76 5.76 0 0 1 .84-3.71l.88.28a3.93 3.93 0 0 0-.76 2.58 5.09 5.09 0 0 1 2.71-.92c1.32 0 2.14.68 2.14 1.79 0 1.4-1.11 2.26-3.77 2.26zm-.92-6.57l.25-.87a27.25 27.25 0 0 1 3.88.89l-.23.86a22.68 22.68 0 0 0-3.9-.88zM60.14 30.62a6.35 6.35 0 0 0 2.66-1.72 11.55 11.55 0 0 0-1.8-1.25l.54-.68a11.91 11.91 0 0 1 1.88 1.19 6.37 6.37 0 0 0 1-2.29h-2.6a10 10 0 0 1-2.16 2.48l-.72-.62A9.39 9.39 0 0 0 61.69 24l1 .23c-.11.28-.22.56-.35.83h2.46l.7.33a7.51 7.51 0 0 1-4.74 6.05zm4.17-6.9l.56-.27a6.05 6.05 0 0 1 .7 1.21L65 25a5.14 5.14 0 0 0-.69-1.28zm1.24-.1l.56-.27a6.24 6.24 0 0 1 .72 1.25l-.62.26a5.27 5.27 0 0 0-.66-1.24zM69.88 31.35l-.51-.8a4.16 4.16 0 0 0 3.49-4.36H68.7v2h-1v-2.84h2.48v-1.46h1v1.46H73l.91.25c-.09 2.81-1.02 4.96-4.03 5.75zM75.87 25.42l.55-.81a12.36 12.36 0 0 1 2.44 1.47l-.64.85a11.2 11.2 0 0 0-2.35-1.51zm.19 4.87a7.68 7.68 0 0 0 5.7-4.11l.66.73a8.36 8.36 0 0 1-6 4.3zM90.53 30.77H84.3v-5.89h6.23zm-5.25-5v4.07h4.26v-4.05zM99.43 28.13h-7v-1h7zM101.81 23.92h1v2.54a29 29 0 0 1 3.78 1.89l-.55.87a24.48 24.48 0 0 0-3.23-1.74v3.82h-1zm2.33.54l.58-.28a6.68 6.68 0 0 1 .71 1.35l-.65.28a5.75 5.75 0 0 0-.64-1.35zm1.13-.43l.59-.28a6.33 6.33 0 0 1 .74 1.35l-.64.29a6.69 6.69 0 0 0-.69-1.36z" class="cls-2"/><g id="_Group_" data-name="Group"><g id="_Group_2" data-name="Group 2"><path id="_Path_" d="M29.5 19.36a6.07 6.07 0 0 1 2.9-5.1 6.23 6.23 0 0 0-4.91-2.65c-2.06-.22-4.06 1.23-5.11 1.23s-2.69-1.21-4.38-1.18A6.56 6.56 0 0 0 12.45 15c-2.37 4.12-.6 10.16 1.67 13.49 1.14 1.63 2.47 3.45 4.22 3.38s2.34-1.09 4.39-1.09 2.64 1.09 4.41 1.05 3-1.64 4.08-3.28a13.45 13.45 0 0 0 1.87-3.8 5.87 5.87 0 0 1-3.59-5.39z" class="cls-2" data-name="Path"/><path id="_Path_2" d="M26.15 9.42a6.07 6.07 0 0 0 1.37-4.29 6.08 6.08 0 0 0-3.94 2 5.69 5.69 0 0 0-1.41 4.13 5.08 5.08 0 0 0 3.98-1.84z" class="cls-2" data-name="Path 2"/></g></g></g></svg>