<svg width="260" height="57" viewBox="0 0 260 57" fill="none" xmlns="http://www.w3.org/2000/svg">
<rect y="0.948242" width="260" height="55.3236" rx="5.41667" fill="white"/>
<path d="M147.312 17.1923C152.305 17.1923 155.17 19.2396 155.17 22.6789C155.17 25.5451 153.533 27.3467 150.586 27.7562C154.188 28.5751 155.907 30.2129 155.907 33.1609C155.907 37.0917 153.124 39.3027 148.212 39.3027H141.828V17.1923H147.312ZM144.283 26.6097H146.985C150.504 26.6097 152.469 25.2994 152.469 23.0065C152.469 20.5498 150.995 19.5671 147.148 19.5671H144.283V26.6097ZM144.283 36.846H147.803C151.405 36.846 153.206 35.5357 153.206 32.9153C153.206 30.4585 150.914 28.9026 147.066 28.9026H144.202V36.846H144.283Z" fill="#FF41BE"/>
<path d="M160.081 19.5671V26.6097H168.758V28.9845H160.081V36.9279H169.822V39.3027H157.544V17.1923H169.576V19.5671H160.081Z" fill="#FF41BE"/>
<path d="M183.655 33.9798H175.633L173.915 39.2208H171.132L178.335 17.1923H180.872L188.075 39.2208H185.292L183.655 33.9798ZM183 31.605L179.644 20.7136L176.288 31.605H183Z" fill="#FF41BE"/>
<path d="M204.118 31.0318C204.118 36.6003 201.499 39.7122 196.67 39.7122C191.84 39.7122 189.221 36.6822 189.221 31.0318V17.1923H191.759V30.868C191.759 34.9625 193.559 37.3373 196.752 37.3373C199.862 37.3373 201.745 34.9625 201.745 30.868V17.1923H204.282V31.0318H204.118Z" fill="#FF41BE"/>
<path d="M214.432 19.4033V39.2208H211.895V19.4033H205.592V17.1923H220.735V19.4033H214.432Z" fill="#FF41BE"/>
<path d="M231.376 30.2129V39.3027H228.838V30.2129L221.963 17.1923H224.746L230.148 27.6743L235.55 17.1923H238.333L231.376 30.2129Z" fill="#FF41BE"/>
<path d="M112.77 42.7421H44.2583L49.7425 48.1469L112.77 42.7421Z" fill="#FF41BE"/>
<path d="M50.6429 20.6317V21.4506C49.3332 20.6317 48.2691 20.1404 46.6321 20.1404C41.8027 20.1404 38.2011 24.4805 38.2011 29.8853C38.2011 35.2901 41.8846 39.6303 46.6321 39.6303C48.1873 39.6303 49.3332 39.1389 50.6429 38.32V39.1389H54.8174V20.6317H50.6429ZM46.6321 35.2082C44.2583 35.2082 42.5394 32.9153 42.5394 29.9672C42.5394 27.0191 44.2583 24.7262 46.6321 24.7262C49.0058 24.7262 50.6429 27.0191 50.6429 29.9672C50.7248 32.9153 49.0058 35.2082 46.6321 35.2082Z" fill="#FF41BE"/>
<path d="M84.3665 20.6317V31.5231C84.3665 33.5704 82.975 35.2901 80.9287 35.2901C78.8823 35.2901 77.4908 33.5704 77.4908 31.5231V20.6317H73.2344V31.5231C73.2344 36.0271 76.263 39.6303 80.765 39.6303C82.8113 39.6303 84.3665 38.4838 84.3665 38.4838V39.1389H88.6229V20.6317H84.3665Z" fill="#FF41BE"/>
<path d="M123.656 39.2208V28.3294C123.656 26.2821 125.048 24.5624 127.094 24.5624C129.141 24.5624 130.532 26.2821 130.532 28.3294V39.2208H134.788V28.3294C134.788 23.8254 131.76 20.2222 127.258 20.2222C125.212 20.2222 123.656 21.3687 123.656 21.3687V20.6317H119.4V39.2208H123.656Z" fill="#FF41BE"/>
<path d="M26.0868 39.1389V32.0144H29.1972L34.5995 39.2208H40.0837L33.5354 30.5404C35.5818 29.0664 36.8914 26.6915 36.8914 23.9892C36.8914 19.5671 33.2899 15.9639 28.8698 15.9639H21.6667V39.1389H26.0868ZM26.0868 20.4679H28.9516C30.9161 20.4679 32.5532 22.1057 32.5532 24.071C32.5532 26.0364 30.9161 27.6742 28.9516 27.6742H26.0868V20.4679Z" fill="#FF41BE"/>
<path d="M100.001 34.8806C99.5913 35.1263 99.1821 35.3719 98.6091 35.3719C97.9543 35.3719 96.6446 34.8806 96.6446 33.079V25.1356H100.246V20.6317H96.6446V15.9639H92.3882V20.6317H90.1782V25.0537H92.3882V33.079C92.3882 37.2554 95.4986 39.7121 98.6909 39.7121C99.8369 39.7121 101.474 39.3027 102.784 38.5657L100.001 34.8806Z" fill="#FF41BE"/>
<path d="M65.2947 29.394L72.5797 20.6317H66.6862L61.6113 27.101V14.4899H57.2731V39.2208H61.6113V31.605L67.8322 39.2208H73.7257L65.2947 29.394Z" fill="#FF41BE"/>
<path d="M109.741 20.2222C104.83 20.2222 101.392 24.4805 101.392 29.9672C101.392 35.6995 105.812 39.7121 110.15 39.7121C112.361 39.7121 115.225 38.9751 117.599 35.5357L113.916 33.4066C111.051 37.6649 106.222 35.5357 105.649 31.2774H117.763C118.827 24.5624 114.489 20.2222 109.741 20.2222ZM113.425 27.5105H105.812C106.713 23.1703 112.606 22.9246 113.425 27.5105Z" fill="#FF41BE"/>
</svg>
