<svg width="189" height="190" viewBox="0 0 189 190" fill="none" xmlns="http://www.w3.org/2000/svg">
<g clip-path="url(#clip0_1160_5378)">
<path d="M18.6403 189.862C8.36013 189.862 0 181.515 0 171.208V19.5254C0 9.23193 8.36013 0.885132 18.6403 0.885132H170.336C180.643 0.885132 188.976 9.23193 188.976 19.5254V171.208C188.976 181.515 180.643 189.862 170.336 189.862H18.6403Z" fill="white"/>
<path d="M65.5344 123.18L51.6675 111.54H148.949L65.5344 123.18Z" fill="#BF0000"/>
<path d="M81.3346 102.82V77.033H92.5082L111.855 102.82H131.629L108.255 71.6996C115.535 66.4729 120.322 57.9661 120.322 48.3392C120.322 32.5257 107.455 19.6721 91.6415 19.6721H65.5344V102.82H81.3346ZM81.3346 35.459H91.6415C98.7349 35.459 104.535 41.2325 104.535 48.3392C104.535 55.446 98.7349 61.2328 91.6415 61.2328H81.3346V35.459Z" fill="#BF0000"/>
<path d="M69.1344 133.181C66.1611 130.727 62.1743 129.501 57.1743 129.501H43.294V171.075H51.6942V157.461H57.1743C62.1743 157.461 66.1611 156.234 69.1344 153.781C72.1078 151.328 73.6012 147.901 73.6012 143.514C73.6012 139.127 72.1078 135.634 69.1344 133.181ZM62.721 148.554C61.161 149.581 59.1343 150.088 56.6542 150.088H51.7075V136.861H56.6542C59.1343 136.861 61.1477 137.367 62.721 138.394C64.281 139.421 65.0677 141.127 65.0677 143.514C65.0677 145.901 64.281 147.541 62.721 148.568V148.554Z" fill="#BF0000"/>
<path d="M102.215 143.127C101.308 141.221 99.9083 139.687 98.0416 138.527C96.1749 137.381 94.0682 136.794 91.7215 136.794C88.9348 136.794 86.4281 137.527 84.2014 139.007C81.9613 140.487 80.188 142.541 78.8546 145.167C77.5346 147.794 76.8679 150.848 76.8679 154.328C76.8679 157.808 77.5346 160.794 78.8546 163.421C80.1746 166.048 81.9613 168.101 84.2014 169.581C86.4414 171.061 88.9481 171.795 91.7215 171.795C94.0682 171.795 96.1749 171.235 98.0416 170.101C99.9083 168.968 101.295 167.448 102.215 165.541L102.868 171.075H109.842V137.581H102.868L102.215 143.114V143.127ZM99.5083 161.541C97.9616 163.381 95.9749 164.314 93.5482 164.314C91.1215 164.314 89.1881 163.394 87.6147 161.541C86.0414 159.688 85.268 157.301 85.268 154.341C85.268 151.381 86.0547 148.981 87.6147 147.101C89.1748 145.234 91.1481 144.301 93.5482 144.301C95.9482 144.301 97.9616 145.234 99.5083 147.101C101.055 148.968 101.828 151.381 101.828 154.341C101.828 157.301 101.055 159.701 99.5083 161.541Z" fill="#BF0000"/>
<path d="M150.002 137.581H141.336L132.669 157.661L124.002 137.581H114.549L128.162 165.741L120.655 180.541H129.135L150.002 137.581Z" fill="#BF0000"/>
</g>
<defs>
<clipPath id="clip0_1160_5378">
<rect width="188.976" height="188.976" fill="white" transform="translate(0 0.885132)"/>
</clipPath>
</defs>
</svg>
