<svg width="38" height="38" viewBox="0 0 38 38" fill="none" xmlns="http://www.w3.org/2000/svg">
<path fill-rule="evenodd" clip-rule="evenodd" d="M9.76365 5.17682C12.4976 3.35004 15.7119 2.375 19 2.375C23.4092 2.375 27.6379 4.12656 30.7557 7.24435C33.8734 10.3621 35.625 14.5908 35.625 19C35.625 22.2881 34.65 25.5024 32.8232 28.2364C30.9964 30.9703 28.3999 33.1012 25.3621 34.3595C22.3243 35.6178 18.9816 35.947 15.7566 35.3056C12.5317 34.6641 9.5694 33.0807 7.24436 30.7556C4.91931 28.4306 3.33593 25.4683 2.69445 22.2434C2.05297 19.0184 2.3822 15.6757 3.64051 12.6379C4.89882 9.60007 7.02969 7.0036 9.76365 5.17682ZM11.0831 30.8484C13.4265 32.4143 16.1816 33.25 19 33.25C22.7793 33.25 26.4039 31.7487 29.0763 29.0763C31.7487 26.4039 33.25 22.7793 33.25 19C33.25 16.1816 32.4143 13.4265 30.8484 11.0831C29.2826 8.73972 27.0571 6.91327 24.4532 5.83472C21.8494 4.75617 18.9842 4.47397 16.22 5.02381C13.4557 5.57365 10.9166 6.93083 8.92374 8.92373C6.93084 10.9166 5.57366 13.4557 5.02382 16.22C4.47398 18.9842 4.75618 21.8494 5.83472 24.4532C6.91327 27.0571 8.73973 29.2826 11.0831 30.8484ZM15.1763 12.2075V26.2319H18.1451V21.7194H19.9263C20.9375 21.7431 21.942 21.5487 22.8713 21.1494C23.6696 20.8106 24.3509 20.245 24.8307 19.5225C25.3087 18.7588 25.5485 17.87 25.5194 16.9694C25.5482 16.0614 25.3087 15.1651 24.8307 14.3925C24.3547 13.6668 23.6722 13.1002 22.8713 12.7657C21.9393 12.3763 20.9362 12.1862 19.9263 12.2075H15.1763ZM18.1451 14.7844H19.7363C20.4311 14.7556 21.1183 14.9377 21.7076 15.3069C21.9633 15.4976 22.1662 15.7503 22.2971 16.0412C22.428 16.3321 22.4826 16.6516 22.4557 16.9694C22.483 17.2839 22.4285 17.6001 22.2974 17.8873C22.1663 18.1745 21.9631 18.4228 21.7076 18.6082C21.117 18.9732 20.4299 19.1512 19.7363 19.1188H18.1451V14.7844Z" fill="#FFFFAF"/>
</svg>
