<?xml version="1.0" encoding="UTF-8"?><svg id="_イヤー_2" xmlns="http://www.w3.org/2000/svg" viewBox="0 0 670 90"><defs><style>.cls-1{fill:none;}.cls-2{fill:#fff;}.cls-3{fill:#ff6478;}.cls-4{fill:#a04b00;}</style></defs><g id="_ザイン"><rect class="cls-1" width="670" height="90" rx="5" ry="5"/><g><g><path class="cls-4" d="M4.54,87.81c-.66,0-1.27-.23-1.72-.65-.41-.38-.63-.87-.63-1.38V4.22c0-.51,.22-1,.63-1.38,.45-.42,1.06-.65,1.72-.65H138.23l16.64,42.81-16.64,42.81H4.54Z"/><path class="cls-2" d="M136.73,4.38l15.79,40.62-15.79,40.62H4.54c-.07,0-.12-.01-.16-.03V4.4s.09-.03,.16-.03H136.73M139.73,0H4.54C3.28,0,2.15,.47,1.33,1.24,.51,2,0,3.06,0,4.22V85.78c0,1.17,.51,2.22,1.33,2.99,.82,.76,1.96,1.24,3.21,1.24H139.73l17.49-45L139.73,0h0Z"/></g><g><g><path class="cls-2" d="M31.41,64.29h-7.42V28.14l-6.34,4.35v-7.49l6.78-4.86h6.98v44.16Z"/><path class="cls-2" d="M50.8,64.87c-7.36,0-13.89-4.35-13.89-13.5v-18.24c0-9.41,6.53-13.57,13.89-13.57s13.89,4.16,13.89,13.5v18.3c0,9.15-6.53,13.5-13.89,13.5Zm0-38.84c-4.03,0-6.53,2.75-6.53,7.49v17.41c0,4.74,2.5,7.49,6.53,7.49s6.46-2.75,6.46-7.49v-17.41c0-4.74-2.5-7.49-6.46-7.49Z"/></g><g><path class="cls-2" d="M99.3,64.22h-4.46v-1.44h-12.2v1.4h-4.28v-10.22c-2.52,1.44-5.22,2.59-7.96,3.53-.5-1.19-1.58-2.95-2.48-3.82,4.5-1.3,8.85-3.46,12.6-6.23-1.44-1.58-3.6-3.46-5.51-4.97-1.22,.97-2.56,1.87-4,2.74-.65-1.04-2.05-2.63-3.02-3.35,5.9-3.13,9.86-7.52,11.95-11.45l4.82,.9c-.54,.94-1.15,1.87-1.8,2.81h8.17l.72-.22,2.95,1.55c-1.84,4.93-4.75,9.14-8.35,12.56h12.85v16.2Zm-19.29-26.35c-.58,.61-1.15,1.22-1.76,1.84,1.91,1.4,4.21,3.2,5.72,4.75,2.02-1.98,3.71-4.21,5-6.59h-8.96Zm14.83,21.06v-7.02h-12.2v7.02h12.2Z"/><path class="cls-2" d="M113.52,52.88c-.43-1.04-1.19-2.66-1.98-4.21v15.51h-3.89v-13.46c-.94,2.77-2.05,5.29-3.28,7.09-.4-1.19-1.26-2.81-1.87-3.78,2.02-2.81,3.92-7.81,4.82-12.06h-4v-3.96h4.32v-7.42h3.89v7.42h3.6v3.96h-3.6v1.58c.97,1.33,3.56,5.29,4.18,6.26l-2.2,3.06Zm9.83,4.86c-2.52,1.48-5.33,3.06-7.63,4.32l-1.84-3.6c2.12-.97,5.29-2.59,8.35-4.18l1.12,3.46Zm12.71-7.13c-1.51,1.58-3.35,3.28-4.75,4.43,1.55,1.76,3.42,3.17,5.62,4.07-.9,.79-2.09,2.38-2.7,3.46-2.63-1.44-4.75-3.63-6.37-6.33v3.74c0,1.94-.36,2.95-1.51,3.6-1.19,.61-2.88,.72-5.11,.72-.14-1.12-.61-2.77-1.15-3.82,1.22,.07,2.63,.07,3.06,.07s.58-.18,.58-.61v-12.27h-8.46v-3.49h8.46v-1.58h-6.8v-3.2h6.8v-1.44h-7.78v-3.35h3.67c-.36-.94-.9-1.94-1.4-2.81l3.38-1.15c.83,1.26,1.69,2.88,2.05,3.96h4.46c.54-1.22,1.26-2.88,1.62-4.03l4.25,.97c-.65,1.08-1.3,2.16-1.87,3.06h3.49v3.35h-7.74v1.44h6.98v3.2h-6.98v1.58h8.39v3.49h-8.39v1.4c.4,1.12,.9,2.16,1.48,3.17,1.26-1.19,2.66-2.7,3.49-3.89l3.24,2.27Zm-17.21-2.16c1.33,1.3,2.84,3.13,3.56,4.36l-3.06,2.16c-.65-1.26-2.12-3.2-3.42-4.61l2.92-1.91Z"/></g></g></g><g><path class="cls-3" d="M198.71,78.9c-.32,0-.63-.12-.87-.34-.29-.27-.45-.66-.42-1.06,.3-3.68,.49-7.44,.58-11.18,.09-3.75,.13-7.65,.13-11.58V24.91l-8.79,4.88c-.19,.11-.41,.16-.63,.16-.12,0-.24-.02-.36-.05-.33-.09-.61-.32-.77-.62-.56-1.02-1.3-1.8-2.26-2.41-.37-.24-.6-.65-.6-1.09v-.63c0-.53,.32-1,.81-1.2,3.39-1.37,6.9-2.89,10.43-4.52,3.57-1.65,6.93-3.26,10-4.8,.18-.09,.38-.14,.58-.14,.26,0,.53,.08,.75,.24l.63,.45c.36,.26,.57,.69,.54,1.13-.24,3.92-.42,7.86-.54,11.71-.12,3.82-.18,7.76-.18,11.71v15.03c0,3.95,.06,7.86,.18,11.61,.12,3.79,.3,7.54,.54,11.16,.03,.39-.13,.78-.42,1.04-.24,.22-.55,.33-.87,.33-.07,0-.14,0-.21-.02-.64-.11-1.28-.16-1.9-.16h-4.23c-.62,0-1.26,.05-1.9,.16-.07,.01-.14,.02-.21,.02Z"/><path class="cls-3" d="M223.47,77.12c-.16,0-.31-.03-.47-.09l-1.15-.45c-.64-.25-.97-.95-.76-1.6l4.93-15.36c.21-.69,.59-1.38,1.12-2.04,.47-.59,1.36-1.29,2.93-1.29,.76,0,1.52,.24,2.26,.71,.64,.41,1.4,1.22,1.4,2.75,0,.71-.15,1.38-.46,1.99l-.64,1.28-8.05,13.46c-.24,.4-.67,.63-1.11,.63Z"/><path class="cls-3" d="M263.21,79.9c-4.53,0-8.3-.84-11.21-2.51-2.92-1.67-5.25-4.03-6.92-7.02-1.63-2.91-2.75-6.36-3.34-10.25-.58-3.79-.87-7.9-.87-12.21s.37-8.44,1.1-12.26c.75-3.88,1.99-7.32,3.71-10.22,1.75-2.96,4.09-5.35,6.96-7.1,2.9-1.77,6.45-2.67,10.57-2.67,4.54,0,8.32,.9,11.24,2.66,2.91,1.76,5.23,4.16,6.89,7.13,1.63,2.91,2.75,6.36,3.34,10.25,.58,3.8,.87,7.9,.87,12.21s-.43,8.27-1.29,12.07c-.87,3.84-2.21,7.27-3.98,10.2-1.81,2.98-4.15,5.37-6.95,7.09-2.84,1.74-6.24,2.62-10.13,2.62Zm0-58.77c-2.31,0-4.17,.56-5.7,1.72-1.55,1.18-2.84,2.92-3.83,5.16-1.03,2.34-1.76,5.2-2.2,8.51-.44,3.38-.66,7.22-.66,11.4,0,3.88,.22,7.55,.66,10.9,.43,3.28,1.17,6.17,2.2,8.57,.99,2.32,2.29,4.15,3.87,5.45,1.51,1.25,3.36,1.86,5.66,1.86s4.14-.61,5.66-1.86c1.57-1.3,2.87-3.14,3.87-5.45,1.03-2.4,1.77-5.29,2.2-8.57,.44-3.35,.66-7.02,.66-10.9s-.22-7.55-.66-10.9c-.43-3.29-1.17-6.17-2.2-8.57-.99-2.32-2.29-4.15-3.87-5.45-1.52-1.25-3.37-1.86-5.66-1.86Z"/><path class="cls-3" d="M318.65,79.9c-4.53,0-8.3-.84-11.21-2.51-2.92-1.67-5.25-4.03-6.92-7.02-1.63-2.91-2.75-6.36-3.34-10.25-.58-3.79-.87-7.9-.87-12.21s.37-8.44,1.1-12.26c.75-3.88,1.99-7.32,3.71-10.22,1.75-2.96,4.09-5.35,6.96-7.1,2.9-1.77,6.45-2.67,10.57-2.67,4.54,0,8.32,.9,11.24,2.66,2.91,1.76,5.23,4.16,6.89,7.13,1.63,2.91,2.75,6.36,3.34,10.25,.58,3.8,.87,7.9,.87,12.21s-.43,8.27-1.29,12.07c-.87,3.84-2.21,7.27-3.98,10.2-1.81,2.98-4.15,5.37-6.95,7.09-2.84,1.74-6.24,2.62-10.13,2.62Zm0-58.77c-2.31,0-4.17,.56-5.7,1.72-1.55,1.18-2.84,2.92-3.83,5.16-1.03,2.34-1.76,5.2-2.2,8.51-.44,3.38-.66,7.22-.66,11.4,0,3.88,.22,7.55,.66,10.9,.43,3.28,1.17,6.17,2.2,8.57,.99,2.32,2.29,4.15,3.87,5.45,1.51,1.25,3.36,1.86,5.66,1.86s4.14-.61,5.66-1.86c1.57-1.3,2.87-3.14,3.87-5.45,1.03-2.4,1.77-5.29,2.2-8.57,.44-3.35,.66-7.02,.66-10.9s-.22-7.55-.66-10.9c-.43-3.29-1.17-6.17-2.2-8.57-.99-2.32-2.29-4.15-3.87-5.45-1.52-1.25-3.37-1.86-5.66-1.86Z"/><path class="cls-3" d="M374.09,79.9c-4.53,0-8.3-.84-11.21-2.51-2.92-1.67-5.25-4.03-6.92-7.02-1.63-2.91-2.75-6.36-3.34-10.25-.58-3.79-.87-7.9-.87-12.21s.37-8.44,1.1-12.26c.75-3.88,1.99-7.32,3.71-10.22,1.75-2.96,4.09-5.35,6.96-7.1,2.9-1.77,6.45-2.67,10.57-2.67,4.54,0,8.32,.9,11.24,2.66,2.91,1.76,5.23,4.16,6.89,7.13,1.63,2.91,2.75,6.36,3.34,10.25,.58,3.8,.87,7.9,.87,12.21s-.43,8.27-1.29,12.07c-.87,3.84-2.21,7.27-3.98,10.2-1.81,2.98-4.15,5.37-6.95,7.09-2.84,1.74-6.24,2.62-10.13,2.62Zm0-58.77c-2.31,0-4.17,.56-5.7,1.72-1.55,1.18-2.84,2.92-3.83,5.16-1.03,2.34-1.76,5.2-2.2,8.51-.44,3.38-.66,7.22-.66,11.4,0,3.88,.22,7.55,.66,10.9,.43,3.28,1.17,6.17,2.2,8.57,.99,2.32,2.29,4.15,3.87,5.45,1.51,1.25,3.36,1.86,5.66,1.86s4.14-.61,5.66-1.86c1.57-1.3,2.87-3.14,3.87-5.45,1.03-2.4,1.77-5.29,2.2-8.57,.44-3.35,.66-7.02,.66-10.9s-.22-7.55-.66-10.9c-.43-3.29-1.17-6.17-2.2-8.57-.99-2.32-2.29-4.15-3.87-5.45-1.52-1.25-3.37-1.86-5.66-1.86Z"/></g><g><path class="cls-3" d="M410.65,58c0-2.13-.04-4.21-.12-6.26-.08-2.05-.17-4.13-.27-6.26,.77,.07,1.55,.12,2.35,.17,.79,.05,1.57,.07,2.35,.07,.39,0,.85-.02,1.4-.05,.55-.03,1.1-.06,1.67-.07,.56-.02,1.1-.04,1.62-.07,.52-.03,.95-.05,1.31-.05,.48,0,1.08,.02,1.79,.05,.71,.03,1.46,.13,2.25,.29,.79,.16,1.57,.4,2.35,.73,.77,.32,1.48,.79,2.1,1.4,.63,.61,1.14,1.38,1.52,2.3,.39,.92,.58,2.06,.58,3.41,0,2.13-.46,3.85-1.38,5.17-.92,1.32-2.05,2.35-3.39,3.1-1.34,.74-2.76,1.24-4.26,1.5-1.5,.26-2.83,.39-3.99,.39-.74,0-1.42,0-2.03-.02-.61-.02-1.24-.06-1.89-.12v2.66c0,2.13,.04,4.22,.12,6.29,.08,2.06,.17,4.09,.27,6.09-.74-.06-1.53-.1-2.37-.1s-1.63,.03-2.37,.1c.1-2,.18-4.03,.27-6.09,.08-2.06,.12-4.16,.12-6.29v-8.32Zm3.97,3.63c1.1,.26,2.24,.39,3.43,.39,1,0,2.03-.11,3.09-.34,1.06-.22,2.04-.64,2.93-1.23,.89-.6,1.61-1.42,2.18-2.47,.56-1.05,.85-2.39,.85-4.04,0-1.39-.19-2.52-.58-3.39-.39-.87-.93-1.55-1.62-2.03-.69-.48-1.54-.81-2.54-.99-1-.18-2.13-.27-3.39-.27h-4.35v14.37Z"/><path class="cls-3" d="M433.86,62.16c0-2.74,.44-5.18,1.33-7.33,.89-2.14,2.13-3.96,3.72-5.44,1.6-1.48,3.51-2.61,5.73-3.39,2.22-.77,4.66-1.16,7.3-1.16s5.13,.39,7.35,1.16c2.22,.77,4.14,1.9,5.73,3.39,1.6,1.48,2.84,3.3,3.72,5.44,.89,2.14,1.33,4.59,1.33,7.33s-.44,5.18-1.33,7.33c-.89,2.14-2.13,3.96-3.72,5.44-1.6,1.48-3.51,2.59-5.73,3.31s-4.68,1.09-7.35,1.09-5.08-.36-7.3-1.09-4.14-1.83-5.73-3.31c-1.6-1.48-2.84-3.3-3.72-5.44-.89-2.14-1.33-4.59-1.33-7.33Zm31.49,0c0-2.68-.34-4.99-1.02-6.94-.68-1.95-1.62-3.56-2.83-4.84-1.21-1.27-2.63-2.22-4.26-2.83-1.63-.61-3.39-.92-5.3-.92s-3.62,.31-5.25,.92c-1.63,.61-3.05,1.56-4.26,2.83-1.21,1.27-2.15,2.89-2.83,4.84-.68,1.95-1.02,4.26-1.02,6.94s.34,4.99,1.02,6.94c.68,1.95,1.62,3.56,2.83,4.84,1.21,1.27,2.63,2.22,4.26,2.83,1.63,.61,3.38,.92,5.25,.92s3.67-.31,5.3-.92c1.63-.61,3.05-1.55,4.26-2.83,1.21-1.27,2.15-2.89,2.83-4.84,.68-1.95,1.02-4.26,1.02-6.94Z"/><path class="cls-3" d="M475.78,51.73c-.08-2.05-.17-4.13-.27-6.26,.42,.07,.82,.12,1.21,.17,.39,.05,.77,.07,1.16,.07s.77-.02,1.16-.07c.39-.05,.79-.1,1.21-.17-.1,2.13-.19,4.22-.27,6.26-.08,2.05-.12,4.14-.12,6.26v8.32c0,2.13,.04,4.22,.12,6.29,.08,2.06,.17,4.09,.27,6.09-.74-.06-1.53-.1-2.37-.1s-1.63,.03-2.37,.1c.1-2,.18-4.03,.27-6.09,.08-2.06,.12-4.16,.12-6.29v-8.32c0-2.13-.04-4.21-.12-6.26Z"/><path class="cls-3" d="M500.86,66.15c-4.19-4.5-8.38-8.97-12.58-13.42-.03,.9-.06,2.11-.1,3.63-.03,1.52-.05,3.58-.05,6.19,0,.68,0,1.52,.02,2.51,.02,1,.03,2.05,.05,3.14,.02,1.1,.04,2.21,.07,3.34,.03,1.13,.06,2.18,.1,3.14,.03,.97,.06,1.81,.1,2.54,.03,.73,.06,1.22,.1,1.47-.52-.06-1.08-.1-1.69-.1-.65,0-1.24,.03-1.79,.1,.06-.32,.14-.92,.22-1.79,.08-.87,.15-1.91,.22-3.12s.14-2.52,.22-3.94c.08-1.42,.15-2.84,.19-4.26,.05-1.42,.09-2.8,.12-4.16s.05-2.56,.05-3.63c0-3.1,0-5.76-.02-7.98-.02-2.22-.06-3.89-.12-4.98h.77c1.97,2.13,4.07,4.41,6.31,6.84,2.24,2.43,4.47,4.84,6.67,7.21,2.21,2.37,4.3,4.61,6.29,6.72,1.98,2.11,3.72,3.91,5.2,5.39v-6.58c0-3.38-.02-6.68-.07-9.89-.05-3.21-.15-6.23-.31-9.07,.64,.16,1.19,.24,1.64,.24,.39,0,.9-.08,1.55-.24-.06,.71-.14,1.77-.22,3.19-.08,1.42-.16,2.93-.24,4.55-.08,1.61-.15,3.19-.22,4.74-.07,1.55-.1,2.79-.1,3.72v2.9c0,1.1,0,2.24,.02,3.43,.02,1.19,.03,2.39,.05,3.6,.02,1.21,.03,2.34,.05,3.39,.02,1.05,.02,1.96,.02,2.73v1.6h-.68c-3.71-4.29-7.66-8.68-11.85-13.18Z"/><path class="cls-3" d="M528.71,47.98c-.84,0-1.72,0-2.64,.02s-1.84,.05-2.76,.1c-.92,.05-1.81,.1-2.66,.17-.85,.07-1.62,.15-2.3,.24,.16-.58,.24-1.1,.24-1.55,0-.35-.08-.85-.24-1.5,2.13,.07,4.21,.12,6.24,.17,2.03,.05,4.11,.07,6.24,.07s4.21-.02,6.24-.07c2.03-.05,4.11-.1,6.24-.17-.16,.65-.24,1.16-.24,1.55,0,.42,.08,.92,.24,1.5-.68-.1-1.44-.18-2.3-.24-.86-.06-1.74-.12-2.66-.17-.92-.05-1.84-.08-2.76-.1s-1.8-.02-2.64-.02c-.1,3.32-.15,6.66-.15,10.01v8.32c0,2.13,.04,4.22,.12,6.29,.08,2.06,.17,4.09,.27,6.09-.74-.06-1.53-.1-2.37-.1s-1.63,.03-2.37,.1c.1-2,.19-4.03,.27-6.09s.12-4.16,.12-6.29v-8.32c0-3.35-.05-6.69-.14-10.01Z"/></g></g></svg>