<?xml version="1.0" encoding="UTF-8"?><svg id="_イヤー_2" xmlns="http://www.w3.org/2000/svg" viewBox="0 0 343 50"><defs><style>.cls-1{fill:#fff;}.cls-2{fill:#ff6478;}.cls-3{fill:#787878;}</style></defs><g id="_ザイン"><rect class="cls-1" width="343" height="50" rx="5" ry="5"/><g><path class="cls-3" d="M2.51,48.79c-.36,0-.7-.13-.95-.36-.23-.21-.35-.49-.35-.77V2.35c0-.29,.12-.56,.35-.77,.25-.23,.58-.36,.95-.36H76.49l9.21,23.79-9.21,23.79H2.51Z"/><path class="cls-1" d="M75.66,2.43l8.74,22.57-8.74,22.57H2.51s-.06,0-.08-.01V2.44s.05-.01,.08-.01H75.66M77.32,0H2.51C1.82,0,1.19,.26,.74,.69c-.45,.42-.74,1.01-.74,1.66V47.65c0,.65,.28,1.23,.74,1.66,.45,.42,1.08,.69,1.78,.69H77.32l9.68-25L77.32,0h0Z"/></g><path class="cls-1" d="M20.25,22.21h1.92c2.88,0,4.44-1.52,4.44-4.12,0-2-1.56-3.64-3.92-3.64s-3.72,1.48-3.92,3.4h-4.24c.12-4.44,3.88-7.36,8.32-7.36,4.84,0,8.36,3.32,8.36,7.48,0,3-1.76,5.08-3.92,6.16,2.52,1.12,4.32,3.28,4.32,6.68,0,4.36-3.12,8-8.44,8-5.6,0-8.76-3.2-9-7.56h4.24c.32,2,1.72,3.52,4.56,3.52,2.4,0,4.04-1.76,4.04-4.08,0-2.8-1.64-4.48-4.84-4.48h-1.92v-4Z"/><g><path class="cls-1" d="M48.14,38.18h-1.98v-.64h-5.43v.62h-1.9v-4.55c-1.12,.64-2.32,1.15-3.54,1.57-.22-.53-.7-1.31-1.1-1.7,2-.58,3.94-1.54,5.6-2.77-.64-.7-1.6-1.54-2.45-2.21-.54,.43-1.14,.83-1.78,1.22-.29-.46-.91-1.17-1.34-1.49,2.62-1.39,4.39-3.35,5.31-5.09l2.14,.4c-.24,.42-.51,.83-.8,1.25h3.63l.32-.1,1.31,.69c-.82,2.19-2.11,4.07-3.71,5.59h5.71v7.2Zm-8.58-11.72c-.26,.27-.51,.54-.79,.82,.85,.62,1.87,1.42,2.55,2.11,.9-.88,1.65-1.87,2.22-2.93h-3.99Zm6.59,9.36v-3.12h-5.43v3.12h5.43Z"/><path class="cls-1" d="M54.45,33.13c-.19-.46-.53-1.18-.88-1.87v6.9h-1.73v-5.99c-.42,1.23-.91,2.35-1.46,3.15-.18-.53-.56-1.25-.83-1.68,.9-1.25,1.74-3.47,2.14-5.36h-1.78v-1.76h1.92v-3.3h1.73v3.3h1.6v1.76h-1.6v.7c.43,.59,1.58,2.35,1.86,2.78l-.98,1.36Zm4.37,2.16c-1.12,.66-2.37,1.36-3.39,1.92l-.82-1.6c.94-.43,2.35-1.15,3.71-1.86l.5,1.54Zm5.65-3.17c-.67,.7-1.49,1.46-2.11,1.97,.69,.78,1.52,1.41,2.5,1.81-.4,.35-.93,1.06-1.2,1.54-1.17-.64-2.11-1.62-2.83-2.82v1.66c0,.86-.16,1.31-.67,1.6-.53,.27-1.28,.32-2.27,.32-.06-.5-.27-1.23-.51-1.7,.54,.03,1.17,.03,1.36,.03s.26-.08,.26-.27v-5.46h-3.76v-1.55h3.76v-.7h-3.03v-1.42h3.03v-.64h-3.46v-1.49h1.63c-.16-.42-.4-.86-.62-1.25l1.5-.51c.37,.56,.75,1.28,.91,1.76h1.98c.24-.54,.56-1.28,.72-1.79l1.89,.43c-.29,.48-.58,.96-.83,1.36h1.55v1.49h-3.44v.64h3.11v1.42h-3.11v.7h3.73v1.55h-3.73v.62c.18,.5,.4,.96,.66,1.41,.56-.53,1.18-1.2,1.55-1.73l1.44,1.01Zm-7.65-.96c.59,.58,1.26,1.39,1.58,1.94l-1.36,.96c-.29-.56-.94-1.42-1.52-2.05l1.3-.85Z"/></g><g><path class="cls-2" d="M107.95,43.11c-1.53,0-3.02-.13-4.42-.38-1.46-.26-2.77-.79-3.89-1.56-.15-.1-.24-.28-.24-.46v-.4c0-.07,.01-.14,.04-.2,.16-.41,.3-.88,.43-1.41,.13-.53,.23-1,.29-1.39,.04-.27,.28-.47,.55-.47h.35c.21,0,.41,.12,.5,.31,.27,.53,.64,1.02,1.1,1.43,.47,.43,1.02,.79,1.62,1.09,.6,.3,1.25,.52,1.92,.66,.68,.14,1.33,.21,1.96,.21,.92,0,1.82-.17,2.67-.51,.83-.33,1.58-.86,2.22-1.56,.65-.71,1.18-1.62,1.59-2.72,.41-1.1,.62-2.41,.62-3.9,0-1.32-.19-2.46-.56-3.39-.37-.92-.86-1.68-1.45-2.26-.59-.57-1.26-.99-2.01-1.25-.77-.26-1.59-.39-2.42-.39-1.3,0-2.36,.21-3.14,.61-.84,.44-1.41,.75-1.7,.94-.09,.06-.2,.09-.31,.09s-.21-.03-.3-.09l-.55-.35c-.19-.12-.29-.35-.25-.57,.23-1.27,.37-2.63,.42-4.04,.05-1.42,.08-2.87,.08-4.31s-.03-2.85-.08-4.31c-.05-1.45-.16-2.75-.32-3.86-.03-.21,.06-.43,.24-.55l.45-.3c.09-.06,.2-.09,.31-.09,.03,0,.07,0,.1,0,.55,.1,1.47,.2,2.75,.29,1.45,.1,3.49,.15,6.06,.15,1.6,0,3.01,0,4.24-.02,1.22-.02,2.13-.04,2.73-.07h.03c.13,0,.25,.04,.35,.12l.25,.2c.18,.14,.25,.38,.19,.6-.12,.39-.21,.82-.25,1.27-.05,.46-.07,.92-.07,1.37,0,.54,.02,.67,.03,.69,.06,.19,.02,.38-.11,.54-.11,.12-.26,.18-.42,.18-.04,0-.07,0-.11-.01-.71-.13-1.68-.24-2.86-.32-1.21-.08-2.48-.15-3.81-.2-1.33-.05-2.61-.08-3.84-.1-.96-.01-1.79-.02-2.46-.02l-.61,9.85c.44-.2,.91-.37,1.39-.53,.84-.27,2.02-.4,3.59-.4s2.95,.27,4.19,.79,2.33,1.26,3.21,2.18c.88,.92,1.57,1.99,2.04,3.18,.47,1.19,.71,2.47,.71,3.81,0,1.64-.32,3.2-.95,4.65-.63,1.45-1.53,2.72-2.68,3.79-1.15,1.06-2.53,1.9-4.11,2.49-1.57,.59-3.35,.89-5.27,.89Z"/><path class="cls-2" d="M129.78,42.13c-.07,0-.14-.01-.2-.04l-.63-.25c-.28-.11-.42-.41-.33-.69l2.7-8.4c.11-.36,.31-.72,.59-1.07,.24-.3,.69-.65,1.49-.65,.39,0,.78,.12,1.16,.37,.32,.2,.7,.61,.7,1.38,0,.37-.08,.71-.23,1.02l-.35,.7-4.39,7.35c-.1,.17-.29,.27-.48,.27Z"/><path class="cls-2" d="M151.03,43.11c-2.49,0-4.56-.46-6.15-1.37-1.6-.91-2.87-2.2-3.79-3.84-.9-1.6-1.52-3.5-1.84-5.64-.32-2.09-.48-4.37-.48-6.76s.21-4.67,.61-6.78c.41-2.14,1.1-4.04,2.04-5.63,.96-1.62,2.24-2.93,3.81-3.89,1.58-.97,3.53-1.46,5.79-1.46,2.49,0,4.57,.49,6.17,1.46,1.59,.96,2.86,2.28,3.77,3.91,.89,1.6,1.51,3.5,1.84,5.64,.32,2.1,.48,4.38,.48,6.76s-.24,4.57-.71,6.67c-.48,2.12-1.22,4.01-2.19,5.62-.99,1.64-2.27,2.94-3.81,3.89-1.55,.95-3.42,1.43-5.54,1.43Zm0-32.65c-1.3,0-2.4,.33-3.26,.99-.88,.67-1.62,1.66-2.17,2.93-.58,1.31-.99,2.92-1.23,4.77-.25,1.88-.37,4.02-.37,6.35,0,2.17,.12,4.21,.37,6.08,.24,1.84,.66,3.46,1.24,4.8,.56,1.31,1.3,2.35,2.19,3.09,.87,.72,1.93,1.07,3.24,1.07s2.37-.35,3.24-1.07c.89-.74,1.63-1.78,2.19-3.09,.58-1.35,.99-2.96,1.24-4.8,.25-1.87,.37-3.91,.37-6.08s-.12-4.21-.37-6.08c-.24-1.84-.66-3.46-1.24-4.8-.56-1.31-1.3-2.35-2.19-3.09-.87-.72-1.93-1.07-3.24-1.07Z"/><path class="cls-2" d="M180.83,43.11c-2.49,0-4.56-.46-6.15-1.37-1.6-.91-2.87-2.2-3.79-3.84-.9-1.6-1.52-3.5-1.84-5.64-.32-2.09-.48-4.37-.48-6.76s.21-4.67,.61-6.78c.41-2.14,1.1-4.04,2.04-5.63,.96-1.62,2.24-2.93,3.81-3.89,1.58-.97,3.53-1.46,5.79-1.46,2.49,0,4.57,.49,6.17,1.46,1.59,.96,2.86,2.28,3.77,3.91,.89,1.6,1.51,3.5,1.84,5.64,.32,2.1,.48,4.38,.48,6.76s-.24,4.57-.71,6.67c-.48,2.12-1.22,4.01-2.19,5.62-.99,1.64-2.27,2.94-3.81,3.89-1.55,.95-3.42,1.43-5.54,1.43Zm0-32.65c-1.3,0-2.4,.33-3.26,.99-.88,.67-1.62,1.66-2.17,2.93-.58,1.31-.99,2.92-1.23,4.77-.25,1.88-.37,4.02-.37,6.35,0,2.17,.12,4.21,.37,6.08,.24,1.84,.66,3.46,1.24,4.8,.56,1.31,1.3,2.35,2.19,3.09,.87,.72,1.93,1.07,3.24,1.07s2.37-.35,3.24-1.07c.89-.74,1.63-1.78,2.19-3.09,.58-1.35,.99-2.96,1.24-4.8,.25-1.87,.37-3.91,.37-6.08s-.12-4.21-.37-6.08c-.24-1.84-.66-3.46-1.24-4.8-.56-1.31-1.3-2.35-2.19-3.09-.87-.72-1.93-1.07-3.24-1.07Z"/><path class="cls-2" d="M210.63,43.11c-2.49,0-4.56-.46-6.15-1.37-1.6-.91-2.87-2.2-3.79-3.84-.9-1.6-1.52-3.5-1.84-5.64-.32-2.09-.48-4.37-.48-6.76s.21-4.67,.61-6.78c.41-2.14,1.1-4.04,2.04-5.63,.96-1.62,2.24-2.93,3.81-3.89,1.58-.97,3.53-1.46,5.79-1.46,2.49,0,4.57,.49,6.17,1.46,1.59,.96,2.86,2.28,3.77,3.91,.89,1.6,1.51,3.5,1.84,5.64,.32,2.1,.48,4.38,.48,6.76s-.24,4.57-.71,6.67c-.48,2.12-1.22,4.01-2.19,5.62-.99,1.64-2.27,2.94-3.81,3.89-1.55,.95-3.42,1.43-5.54,1.43Zm0-32.65c-1.3,0-2.4,.33-3.26,.99-.88,.67-1.62,1.66-2.17,2.93-.58,1.31-.99,2.92-1.23,4.77-.25,1.88-.37,4.02-.37,6.35,0,2.17,.12,4.21,.37,6.08,.24,1.84,.66,3.46,1.24,4.8,.56,1.31,1.3,2.35,2.19,3.09,.87,.72,1.93,1.07,3.24,1.07s2.37-.35,3.24-1.07c.89-.74,1.63-1.78,2.19-3.09,.58-1.35,.99-2.96,1.24-4.8,.25-1.87,.37-3.91,.37-6.08s-.12-4.21-.37-6.08c-.24-1.84-.66-3.46-1.24-4.8-.56-1.31-1.3-2.35-2.19-3.09-.87-.72-1.93-1.07-3.24-1.07Z"/></g><g><path class="cls-2" d="M226.82,32.06c0-.92-.02-1.83-.05-2.72-.04-.89-.07-1.8-.12-2.72,.34,.03,.68,.05,1.02,.07s.68,.03,1.02,.03c.17,0,.37,0,.61-.02,.24-.01,.48-.02,.72-.03,.24,0,.48-.02,.7-.03,.22-.01,.41-.02,.57-.02,.21,0,.47,0,.78,.02,.31,.01,.63,.06,.98,.13,.34,.07,.68,.17,1.02,.31s.64,.34,.91,.61c.27,.27,.49,.6,.66,1s.25,.89,.25,1.48c0,.92-.2,1.67-.6,2.25-.4,.57-.89,1.02-1.47,1.34-.58,.32-1.2,.54-1.85,.65-.65,.11-1.23,.17-1.73,.17-.32,0-.62,0-.88-.01-.27,0-.54-.02-.82-.05v1.15c0,.92,.02,1.83,.05,2.73,.04,.9,.07,1.78,.12,2.65-.32-.03-.67-.04-1.03-.04s-.71,.01-1.03,.04c.04-.87,.08-1.75,.12-2.65,.03-.9,.05-1.81,.05-2.73v-3.61Zm1.72,1.57c.48,.11,.97,.17,1.49,.17,.43,0,.88-.05,1.34-.15,.46-.1,.88-.28,1.27-.54,.38-.26,.7-.62,.94-1.07,.25-.45,.37-1.04,.37-1.75,0-.6-.08-1.09-.25-1.47-.17-.38-.4-.67-.7-.88s-.67-.35-1.1-.43c-.43-.08-.92-.12-1.47-.12h-1.89v6.24Z"/><path class="cls-2" d="M236.9,33.86c0-1.19,.19-2.25,.58-3.18,.38-.93,.92-1.72,1.62-2.36,.69-.64,1.52-1.13,2.49-1.47,.97-.34,2.02-.5,3.17-.5s2.23,.17,3.19,.5c.97,.34,1.8,.83,2.49,1.47,.69,.64,1.23,1.43,1.62,2.36s.58,1.99,.58,3.18-.19,2.25-.58,3.18c-.38,.93-.92,1.72-1.62,2.36-.69,.64-1.52,1.12-2.49,1.44-.97,.32-2.03,.47-3.19,.47s-2.21-.16-3.17-.47c-.97-.31-1.8-.79-2.49-1.44-.69-.64-1.23-1.43-1.62-2.36-.39-.93-.58-1.99-.58-3.18Zm13.67,0c0-1.16-.15-2.17-.44-3.01s-.7-1.55-1.23-2.1c-.53-.55-1.14-.96-1.85-1.23-.71-.27-1.47-.4-2.3-.4s-1.57,.13-2.28,.4c-.71,.27-1.32,.68-1.85,1.23-.52,.55-.93,1.25-1.23,2.1s-.44,1.85-.44,3.01,.15,2.17,.44,3.01,.7,1.55,1.23,2.1c.53,.55,1.14,.96,1.85,1.23s1.47,.4,2.28,.4,1.59-.13,2.3-.4,1.32-.68,1.85-1.23c.52-.55,.93-1.25,1.23-2.1s.44-1.85,.44-3.01Z"/><path class="cls-2" d="M255.09,29.34c-.04-.89-.07-1.8-.12-2.72,.18,.03,.36,.05,.53,.07s.34,.03,.5,.03,.34-.01,.5-.03,.34-.05,.53-.07c-.04,.92-.08,1.83-.12,2.72-.03,.89-.05,1.8-.05,2.72v3.61c0,.92,.02,1.83,.05,2.73,.04,.9,.07,1.78,.12,2.65-.32-.03-.67-.04-1.03-.04s-.71,.01-1.03,.04c.04-.87,.08-1.75,.12-2.65,.03-.9,.05-1.81,.05-2.73v-3.61c0-.92-.02-1.83-.05-2.72Z"/><path class="cls-2" d="M265.98,35.6c-1.82-1.95-3.64-3.9-5.46-5.83-.01,.39-.03,.92-.04,1.57-.01,.66-.02,1.55-.02,2.69,0,.29,0,.66,.01,1.09,0,.43,.01,.89,.02,1.36,0,.48,.02,.96,.03,1.45,.01,.49,.03,.94,.04,1.36,.01,.42,.03,.79,.04,1.1,.01,.31,.03,.53,.04,.64-.22-.03-.47-.04-.74-.04-.28,0-.54,.01-.78,.04,.03-.14,.06-.4,.09-.78s.07-.83,.09-1.35c.03-.52,.06-1.1,.09-1.71,.03-.62,.06-1.23,.08-1.85,.02-.62,.04-1.22,.05-1.81,.01-.59,.02-1.11,.02-1.57,0-1.34,0-2.5-.01-3.47,0-.97-.02-1.69-.05-2.16h.34c.85,.92,1.77,1.92,2.74,2.97,.97,1.06,1.94,2.1,2.9,3.13,.96,1.03,1.87,2,2.73,2.92,.86,.92,1.61,1.7,2.26,2.34v-2.86c0-1.47-.01-2.9-.03-4.29-.02-1.39-.07-2.71-.14-3.94,.28,.07,.52,.1,.71,.1,.17,0,.39-.04,.67-.1-.03,.31-.06,.77-.09,1.39-.04,.62-.07,1.27-.11,1.97-.03,.7-.07,1.39-.09,2.06-.03,.67-.04,1.21-.04,1.62v1.26c0,.48,0,.97,0,1.49,0,.52,.01,1.04,.02,1.56,0,.53,.01,1.02,.02,1.47,0,.46,.01,.85,.01,1.19v.69h-.29c-1.61-1.86-3.33-3.77-5.14-5.72Z"/><path class="cls-2" d="M278.08,27.71c-.36,0-.75,0-1.14,.01-.4,0-.8,.02-1.2,.04-.4,.02-.78,.05-1.15,.07-.37,.03-.7,.06-1,.1,.07-.25,.11-.48,.11-.67,0-.15-.04-.37-.11-.65,.92,.03,1.83,.05,2.71,.07s1.79,.03,2.71,.03,1.83-.01,2.71-.03,1.79-.05,2.71-.07c-.07,.28-.1,.5-.1,.67,0,.18,.03,.4,.1,.65-.29-.04-.63-.08-1-.1-.37-.03-.76-.05-1.16-.07s-.8-.03-1.2-.04c-.4,0-.78-.01-1.14-.01-.04,1.44-.06,2.89-.06,4.35v3.61c0,.92,.02,1.83,.05,2.73,.03,.9,.07,1.78,.12,2.65-.32-.03-.67-.04-1.03-.04s-.71,.01-1.03,.04c.04-.87,.08-1.75,.12-2.65,.03-.9,.05-1.81,.05-2.73v-3.61c0-1.46-.02-2.91-.06-4.35Z"/></g></g></svg>