<svg id="logo" xmlns="http://www.w3.org/2000/svg" width="268.82mm" height="27.86mm" viewBox="0 0 762 78.98"><defs><style>.cls-1{fill:#333;fill-rule:evenodd;}.cls-2{fill:none;}.cls-3{fill:#ff41be;}.cls-4{fill:#bf0000;}</style></defs><path id="_" data-name=" " class="cls-1" d="M325.1,19l-1.86,1.86,16.62,16.62L323.24,54.05l1.86,1.86L341.72,39.3l16.62,16.61,1.86-1.86L343.58,37.44,360.2,20.82,358.34,19,341.72,35.58Z"/><rect class="cls-2" x="382.42" width="379.58" height="78.98" rx="3.67"/><rect class="cls-2" x="400.78" y="18.37" width="342.85" height="42.25"/><path class="cls-3" d="M599.72,20.2c7.85,0,12.42,3.2,12.42,8.7,0,4.52-2.58,7.36-7.28,8,5.77,1.24,8.47,3.95,8.47,8.52,0,6.21-4.39,9.66-12.24,9.66H590.94V20.2Zm-4.79,14.9h4.26c5.54,0,8.69-2,8.69-5.67,0-3.95-2.4-5.5-8.43-5.5h-4.52Zm0,16.28h5.54c5.72,0,8.61-2.09,8.61-6.25,0-4-3.6-6.3-9.67-6.3h-4.48Z"/><path class="cls-3" d="M620,23.93V35.1h13.7v3.73H620V51.38h15.47V55.1H616V20.2h19.06v3.73Z"/><path class="cls-3" d="M657.22,46.81H644.54l-2.66,8.29h-4.44l11.4-34.9h4.08l11.4,34.9h-4.44Zm-1.06-3.72-5.28-17.25L645.6,43.09Z"/><path class="cls-3" d="M689.65,42.11c0,8.87-4.16,13.7-11.84,13.7S666,51,666,42.11V20.2h4V41.89c0,6.47,2.88,10.2,7.84,10.2s7.85-3.73,7.85-10.2V20.2h4Z"/><path class="cls-3" d="M705.94,23.75V55.1h-4V23.75H692V20.2h23.94v3.55Z"/><path class="cls-3" d="M732.77,40.78V55.1h-4V40.78L717.91,20.2h4.35l8.51,16.54,8.52-16.54h4.34Z"/><polygon class="cls-3" points="544.99 60.61 436.61 60.61 445.24 69.25 544.99 60.61"/><path class="cls-3" d="M446.65,25.7V27a11,11,0,0,0-6.29-2C432.77,25,427,31.9,427,40.4s5.77,15.43,13.36,15.43a11,11,0,0,0,6.29-2v1.3h6.67V25.7Zm-6.29,23c-3.74,0-6.48-3.68-6.48-8.34s2.74-8.34,6.48-8.34,6.39,3.69,6.39,8.34S444.11,48.74,440.36,48.74Z"/><path class="cls-3" d="M500.12,25.7V43c0,3.24-2.23,6-5.47,6s-5.47-2.74-5.47-6V25.7H482.5V43c0,7.09,4.85,12.86,11.94,12.86A10.23,10.23,0,0,0,500.12,54V55.1h6.67V25.7Z"/><path class="cls-3" d="M562.31,55.1V37.83c0-3.24,2.22-6,5.47-6s5.46,2.74,5.46,6V55.1h6.68V37.83C579.92,30.74,575.07,25,568,25a10.22,10.22,0,0,0-5.67,1.82V25.7h-6.68V55.1Z"/><path class="cls-3" d="M407.77,55.1V43.71h4.93l8.55,11.39H430L419.66,41.36a12.67,12.67,0,0,0-7.34-23H400.78V55.1Zm0-29.76h4.55a5.7,5.7,0,1,1,0,11.39h-4.55Z"/><path class="cls-3" d="M524.78,48.15a4,4,0,0,1-2.23.72,3.29,3.29,0,0,1-3.15-3.61V32.68h5.71v-7H519.4V18.37h-6.67V25.7H509.2v7h3.53V45.36a10,10,0,0,0,9.92,10.49A13.81,13.81,0,0,0,529.18,54Z"/><polygon class="cls-3" points="469.92 39.48 481.37 25.7 472.01 25.7 464 35.94 464 15.94 457.13 15.94 457.13 55.1 464 55.1 464 43.02 473.85 55.1 483.2 55.1 469.92 39.48"/><path class="cls-3" d="M540.2,25c-7.73,0-13.27,6.79-13.27,15.45,0,9.11,7,15.45,13.93,15.45,3.52,0,8-1.2,11.82-6.58l-5.9-3.4c-4.56,6.72-12.15,3.3-13-3.42H553C554.62,31.9,547.79,25,540.2,25ZM546,36.6H534C535.41,29.72,544.72,29.32,546,36.6Z"/><rect class="cls-2" width="301.3" height="78.98" rx="3.67"/><rect class="cls-2" x="18.37" y="18.37" width="264.57" height="42.25"/><polygon class="cls-4" points="162.57 60.61 54.2 60.61 62.83 69.25 162.57 60.61"/><path class="cls-4" d="M64.23,25.7V27A10.94,10.94,0,0,0,58,25c-7.6,0-13.36,6.93-13.36,15.43S50.35,55.83,58,55.83a10.94,10.94,0,0,0,6.28-2v1.3h6.68V25.7ZM58,48.74c-3.75,0-6.49-3.68-6.49-8.34S54.2,32.06,58,32.06s6.39,3.69,6.39,8.34S61.69,48.74,58,48.74Z"/><path class="cls-4" d="M117.7,25.7V43c0,3.24-2.23,6-5.47,6s-5.47-2.74-5.47-6V25.7h-6.67V43c0,7.09,4.85,12.86,11.94,12.86A10.22,10.22,0,0,0,117.7,54V55.1h6.67V25.7Z"/><path class="cls-4" d="M179.89,55.1V37.83c0-3.24,2.23-6,5.47-6s5.47,2.74,5.47,6V55.1h6.67V37.83c0-7.09-4.85-12.86-11.94-12.86a10.22,10.22,0,0,0-5.67,1.82V25.7h-6.67V55.1Z"/><path class="cls-4" d="M25.35,55.1V43.71h4.94L38.83,55.1h8.74L37.24,41.36a12.66,12.66,0,0,0-7.34-23H18.37V55.1Zm0-29.76H29.9a5.7,5.7,0,1,1,0,11.39H25.35Z"/><path class="cls-4" d="M142.36,48.15a4,4,0,0,1-2.23.72A3.29,3.29,0,0,1,137,45.26V32.68h5.71v-7H137V18.37h-6.67V25.7h-3.53v7h3.53V45.36a10,10,0,0,0,9.92,10.49A13.78,13.78,0,0,0,146.76,54Z"/><polygon class="cls-4" points="87.5 39.48 98.95 25.7 89.59 25.7 81.59 35.94 81.59 15.94 74.71 15.94 74.71 55.1 81.59 55.1 81.59 43.02 91.43 55.1 100.78 55.1 87.5 39.48"/><path class="cls-4" d="M157.78,25c-7.73,0-13.27,6.79-13.27,15.45,0,9.11,7,15.45,13.93,15.45,3.52,0,8-1.2,11.82-6.58l-5.89-3.4c-4.56,6.72-12.16,3.3-13-3.42h19.23C172.2,31.9,165.37,25,157.78,25Zm5.83,11.65h-12C153,29.72,162.3,29.32,163.61,36.6Z"/><path class="cls-4" d="M208.52,18.37V56.94h74.41V18.37Zm20.32,5,1.07,2.89H226.3l0,0-1-2.85Zm-8,0,1.26,2.89h-3.76l-1.29-2.89ZM241.72,44.1H229.17v8.32h-5.73V49.48h2.83V44.1H213.89v-3h12.38V37.79h2.16l1.24-2h-9.49v-3H235l.18.09-5.16,8.28h11.66Zm0-10.29h-3v-3H216.9v3h-3V27.88h18.82l2.41-4.46h3.68l-.05.09-2.47,4.37h5.44Zm38.48,20.4H247.1V21.1h33.1Z"/><rect class="cls-4" x="267.96" y="25.73" width="3.12" height="18.72"/><rect class="cls-4" x="273.89" y="23.38" width="3.09" height="28.54"/><polygon class="cls-4" points="265.97 38.82 259.55 38.82 259.55 37.47 263.52 37.47 263.52 34.67 259.55 34.67 259.55 33.32 263.88 33.32 263.88 30.48 259.55 30.48 259.55 29.2 256.78 29.2 256.78 30.48 252.49 30.48 252.49 33.32 256.78 33.32 256.78 34.67 252.81 34.67 252.81 37.47 256.78 37.47 256.78 38.82 250.32 38.82 250.32 41.62 265.97 41.62 265.97 38.82"/><path class="cls-4" d="M252.06,51.74h12.21V43H252.06Zm2.77-6h6.67v3.16h-6.67Z"/><polygon class="cls-4" points="253.23 28.25 263.1 28.25 263.1 29.73 265.97 29.73 265.97 25.37 259.58 25.37 259.58 23.42 256.71 23.42 256.71 25.37 250.32 25.37 250.32 29.73 253.23 29.73 253.23 28.25"/></svg>