<svg xmlns="http://www.w3.org/2000/svg" width="41.01mm" height="10.75mm" viewBox="0 0 116.25 30.47"><defs><style>.cls-1{fill:none;}.cls-2{fill:#fff;}</style></defs><g id="Logos"><rect class="cls-1" width="116.25" height="30.47" rx="1.42"/><rect class="cls-1" x="7.09" y="7.09" width="102.07" height="16.3"/><polygon class="cls-2" points="62.72 23.39 20.91 23.39 24.24 26.72 62.72 23.39"/><path class="cls-2" d="M24.78,9.91v.51a4.16,4.16,0,0,0-2.42-.78c-2.93,0-5.16,2.67-5.16,5.95s2.23,5.95,5.16,5.95a4.23,4.23,0,0,0,2.42-.78v.5h2.58V9.91Zm-2.42,8.9c-1.45,0-2.51-1.43-2.51-3.22s1.06-3.22,2.51-3.22,2.46,1.42,2.46,3.22S23.8,18.81,22.36,18.81Z"/><path class="cls-2" d="M45.41,9.91v6.67a2.12,2.12,0,1,1-4.22,0V9.91H38.62v6.67a4.68,4.68,0,0,0,4.6,5,4,4,0,0,0,2.19-.7v.42H48V9.91Z"/><path class="cls-2" d="M69.4,21.26V14.59a2.12,2.12,0,1,1,4.22,0v6.67H76.2V14.59a4.67,4.67,0,0,0-4.61-4.95,4,4,0,0,0-2.19.7V9.91H66.83V21.26Z"/><path class="cls-2" d="M9.78,21.26v-4.4h1.9l3.3,4.4h3.37l-4-5.3a4.88,4.88,0,0,0-2.83-8.87H7.09V21.26Zm0-11.48h1.76a2.2,2.2,0,1,1,0,4.39H9.78Z"/><path class="cls-2" d="M54.93,18.58a1.63,1.63,0,0,1-.87.27,1.27,1.27,0,0,1-1.21-1.39V12.61h2.2V9.91h-2.2V7.09H50.27V9.91H48.91v2.7h1.37V17.5a3.87,3.87,0,0,0,3.82,4.05,5.3,5.3,0,0,0,2.52-.72Z"/><polygon class="cls-2" points="33.76 15.23 38.18 9.91 34.57 9.91 31.48 13.87 31.48 6.15 28.82 6.15 28.82 21.26 31.48 21.26 31.48 16.6 35.27 21.26 38.88 21.26 33.76 15.23"/><path class="cls-2" d="M60.87,9.63c-3,0-5.12,2.62-5.12,6a5.74,5.74,0,0,0,5.38,6A5.38,5.38,0,0,0,65.69,19L63.41,17.7c-1.75,2.59-4.69,1.27-5-1.32H65.8C66.44,12.31,63.8,9.63,60.87,9.63Zm2.25,4.49H58.48A2.34,2.34,0,0,1,63.12,14.12Z"/><path class="cls-2" d="M80.45,7.09V22h28.71V7.09ZM88.29,9l.41,1.12H87.31v0L86.91,9ZM85.22,9l.49,1.12H84.26L83.76,9Zm8,8H88.42v3.2H86.21V19.09H87.3V17H82.52V15.88H87.3v-1.3h.83l.48-.76H85V12.65h5.73l.07,0-2,3.2h4.5Zm0-4H92.1V11.88H83.68V13H82.52V10.76h7.26L90.71,9h1.42l0,0-1,1.69h2.1Zm14.84,7.87H95.33V8.14H108.1Z"/><rect class="cls-2" x="103.38" y="9.93" width="1.2" height="7.22"/><rect class="cls-2" x="105.67" y="9.02" width="1.19" height="11.01"/><polygon class="cls-2" points="102.61 14.98 100.14 14.98 100.14 14.46 101.67 14.46 101.67 13.38 100.14 13.38 100.14 12.86 101.81 12.86 101.81 11.76 100.14 11.76 100.14 11.27 99.07 11.27 99.07 11.76 97.41 11.76 97.41 12.86 99.07 12.86 99.07 13.38 97.53 13.38 97.53 14.46 99.07 14.46 99.07 14.98 96.58 14.98 96.58 16.06 102.61 16.06 102.61 14.98"/><path class="cls-2" d="M97.25,20H102V16.59H97.25Zm1.07-2.3h2.57v1.22H98.32Z"/><polygon class="cls-2" points="97.7 10.9 101.51 10.9 101.51 11.47 102.61 11.47 102.61 9.79 100.15 9.79 100.15 9.04 99.04 9.04 99.04 9.79 96.58 9.79 96.58 11.47 97.7 11.47 97.7 10.9"/></g></svg>