<svg width="32" height="33" viewBox="0 0 32 33" fill="none" xmlns="http://www.w3.org/2000/svg">
<path fill-rule="evenodd" clip-rule="evenodd" d="M13 22.4346C8.037 22.4346 4 18.3966 4 13.4346C4 8.47157 8.037 4.43457 13 4.43457C17.962 4.43457 22 8.47157 22 13.4346C22 18.3966 17.962 22.4346 13 22.4346M13 2.43457C6.925 2.43457 2 7.35957 2 13.4346C2 19.5096 6.925 24.4346 13 24.4346C19.075 24.4346 24 19.5096 24 13.4346C24 7.35957 19.075 2.43457 13 2.43457" fill="white"/>
<path fill-rule="evenodd" clip-rule="evenodd" d="M22.8613 21.8818C22.4263 22.3888 21.9543 22.8608 21.4473 23.2958L28.5863 30.4348L30.0003 29.0198L22.8613 21.8818Z" fill="white"/>
</svg>
