<svg width="188" height="189" viewBox="0 0 188 189" fill="none" xmlns="http://www.w3.org/2000/svg">
<g clip-path="url(#clip0_5602_48276)">
<rect x="16" y="16.0444" width="156" height="156" fill="white"/>
<g clip-path="url(#clip1_5602_48276)">
<path d="M172 16.0444H16V172.044H172V16.0444Z" fill="white"/>
<path d="M29.4392 25.7944H25.75V29.4836H29.4392V25.7944Z" fill="black"/>
<path d="M33.1284 25.7944H29.4392V29.4836H33.1284V25.7944Z" fill="black"/>
<path d="M36.8176 25.7944H33.1284V29.4836H36.8176V25.7944Z" fill="black"/>
<path d="M40.5068 25.7944H36.8176V29.4836H40.5068V25.7944Z" fill="black"/>
<path d="M44.1959 25.7944H40.5068V29.4836H44.1959V25.7944Z" fill="black"/>
<path d="M47.8851 25.7944H44.1959V29.4836H47.8851V25.7944Z" fill="black"/>
<path d="M51.5743 25.7944H47.8851V29.4836H51.5743V25.7944Z" fill="black"/>
<path d="M58.9527 25.7944H55.2635V29.4836H58.9527V25.7944Z" fill="black"/>
<path d="M66.3311 25.7944H62.6419V29.4836H66.3311V25.7944Z" fill="black"/>
<path d="M70.0203 25.7944H66.3311V29.4836H70.0203V25.7944Z" fill="black"/>
<path d="M81.0878 25.7944H77.3986V29.4836H81.0878V25.7944Z" fill="black"/>
<path d="M88.4662 25.7944H84.777V29.4836H88.4662V25.7944Z" fill="black"/>
<path d="M99.5338 25.7944H95.8446V29.4836H99.5338V25.7944Z" fill="black"/>
<path d="M103.223 25.7944H99.5338V29.4836H103.223V25.7944Z" fill="black"/>
<path d="M106.912 25.7944H103.223V29.4836H106.912V25.7944Z" fill="black"/>
<path d="M117.98 25.7944H114.291V29.4836H117.98V25.7944Z" fill="black"/>
<path d="M125.358 25.7944H121.669V29.4836H125.358V25.7944Z" fill="black"/>
<path d="M132.736 25.7944H129.047V29.4836H132.736V25.7944Z" fill="black"/>
<path d="M140.115 25.7944H136.426V29.4836H140.115V25.7944Z" fill="black"/>
<path d="M143.804 25.7944H140.115V29.4836H143.804V25.7944Z" fill="black"/>
<path d="M147.493 25.7944H143.804V29.4836H147.493V25.7944Z" fill="black"/>
<path d="M151.182 25.7944H147.493V29.4836H151.182V25.7944Z" fill="black"/>
<path d="M154.872 25.7944H151.182V29.4836H154.872V25.7944Z" fill="black"/>
<path d="M158.561 25.7944H154.872V29.4836H158.561V25.7944Z" fill="black"/>
<path d="M162.25 25.7944H158.561V29.4836H162.25V25.7944Z" fill="black"/>
<path d="M29.4392 29.4836H25.75V33.1728H29.4392V29.4836Z" fill="black"/>
<path d="M51.5743 29.4836H47.8851V33.1728H51.5743V29.4836Z" fill="black"/>
<path d="M62.6419 29.4836H58.9527V33.1728H62.6419V29.4836Z" fill="black"/>
<path d="M70.0203 29.4836H66.3311V33.1728H70.0203V29.4836Z" fill="black"/>
<path d="M73.7095 29.4836H70.0203V33.1728H73.7095V29.4836Z" fill="black"/>
<path d="M77.3986 29.4836H73.7095V33.1728H77.3986V29.4836Z" fill="black"/>
<path d="M81.0878 29.4836H77.3986V33.1728H81.0878V29.4836Z" fill="black"/>
<path d="M84.777 29.4836H81.0878V33.1728H84.777L84.777 29.4836Z" fill="black"/>
<path d="M88.4662 29.4836H84.777L84.777 33.1728H88.4662V29.4836Z" fill="black"/>
<path d="M92.1554 29.4836H88.4662V33.1728H92.1554V29.4836Z" fill="black"/>
<path d="M106.912 29.4836H103.223V33.1728H106.912V29.4836Z" fill="black"/>
<path d="M114.291 29.4836H110.601V33.1728H114.291V29.4836Z" fill="black"/>
<path d="M117.98 29.4836H114.291V33.1728H117.98V29.4836Z" fill="black"/>
<path d="M125.358 29.4836H121.669V33.1728H125.358V29.4836Z" fill="black"/>
<path d="M132.736 29.4836H129.047V33.1728H132.736V29.4836Z" fill="black"/>
<path d="M140.115 29.4836H136.426V33.1728H140.115V29.4836Z" fill="black"/>
<path d="M162.25 29.4836H158.561V33.1728H162.25V29.4836Z" fill="black"/>
<path d="M29.4392 33.1728H25.75V36.862H29.4392V33.1728Z" fill="black"/>
<path d="M36.8176 33.1728H33.1284V36.862H36.8176V33.1728Z" fill="black"/>
<path d="M40.5068 33.1728H36.8176V36.862H40.5068V33.1728Z" fill="black"/>
<path d="M44.1959 33.1728H40.5068V36.862H44.1959V33.1728Z" fill="black"/>
<path d="M51.5743 33.1728H47.8851V36.862H51.5743V33.1728Z" fill="black"/>
<path d="M58.9527 33.1728H55.2635V36.862H58.9527V33.1728Z" fill="black"/>
<path d="M62.6419 33.1728H58.9527V36.862H62.6419V33.1728Z" fill="black"/>
<path d="M66.3311 33.1728H62.6419V36.862H66.3311V33.1728Z" fill="black"/>
<path d="M88.4662 33.1728H84.777L84.777 36.862H88.4662V33.1728Z" fill="black"/>
<path d="M92.1554 33.1728H88.4662V36.862H92.1554V33.1728Z" fill="black"/>
<path d="M103.223 33.1728H99.5338V36.862H103.223V33.1728Z" fill="black"/>
<path d="M110.601 33.1728H106.912V36.862H110.601V33.1728Z" fill="black"/>
<path d="M114.291 33.1728H110.601V36.862H114.291V33.1728Z" fill="black"/>
<path d="M117.98 33.1728H114.291V36.862H117.98V33.1728Z" fill="black"/>
<path d="M121.669 33.1728H117.98V36.862H121.669V33.1728Z" fill="black"/>
<path d="M132.736 33.1728H129.047V36.862H132.736V33.1728Z" fill="black"/>
<path d="M140.115 33.1728H136.426V36.862H140.115V33.1728Z" fill="black"/>
<path d="M147.493 33.1728H143.804V36.862H147.493V33.1728Z" fill="black"/>
<path d="M151.182 33.1728H147.493V36.862H151.182V33.1728Z" fill="black"/>
<path d="M154.872 33.1728H151.182V36.862H154.872V33.1728Z" fill="black"/>
<path d="M162.25 33.1728H158.561V36.862H162.25V33.1728Z" fill="black"/>
<path d="M29.4392 36.862H25.75V40.5512H29.4392V36.862Z" fill="black"/>
<path d="M36.8176 36.862H33.1284V40.5512H36.8176V36.862Z" fill="black"/>
<path d="M40.5068 36.862H36.8176V40.5512H40.5068V36.862Z" fill="black"/>
<path d="M44.1959 36.862H40.5068V40.5512H44.1959V36.862Z" fill="black"/>
<path d="M51.5743 36.862H47.8851V40.5512H51.5743V36.862Z" fill="black"/>
<path d="M66.3311 36.862H62.6419V40.5512H66.3311V36.862Z" fill="black"/>
<path d="M81.0878 36.862H77.3986V40.5512H81.0878V36.862Z" fill="black"/>
<path d="M95.8446 36.862H92.1554L92.1554 40.5512H95.8446V36.862Z" fill="black"/>
<path d="M99.5338 36.862H95.8446V40.5512H99.5338V36.862Z" fill="black"/>
<path d="M110.601 36.862H106.912V40.5512H110.601V36.862Z" fill="black"/>
<path d="M125.358 36.862H121.669V40.5512H125.358V36.862Z" fill="black"/>
<path d="M129.047 36.862H125.358V40.5512H129.047V36.862Z" fill="black"/>
<path d="M140.115 36.862H136.426V40.5512H140.115V36.862Z" fill="black"/>
<path d="M147.493 36.862H143.804V40.5512H147.493V36.862Z" fill="black"/>
<path d="M151.182 36.862H147.493V40.5512H151.182V36.862Z" fill="black"/>
<path d="M154.872 36.862H151.182V40.5512H154.872V36.862Z" fill="black"/>
<path d="M162.25 36.862H158.561V40.5512H162.25V36.862Z" fill="black"/>
<path d="M29.4392 40.5512H25.75V44.2404H29.4392V40.5512Z" fill="black"/>
<path d="M36.8176 40.5512H33.1284V44.2404H36.8176V40.5512Z" fill="black"/>
<path d="M40.5068 40.5512H36.8176V44.2404H40.5068V40.5512Z" fill="black"/>
<path d="M44.1959 40.5512H40.5068V44.2404H44.1959V40.5512Z" fill="black"/>
<path d="M51.5743 40.5512H47.8851V44.2404H51.5743V40.5512Z" fill="black"/>
<path d="M62.6419 40.5512H58.9527V44.2404H62.6419V40.5512Z" fill="black"/>
<path d="M70.0203 40.5512H66.3311V44.2404H70.0203V40.5512Z" fill="black"/>
<path d="M73.7095 40.5512H70.0203V44.2404H73.7095V40.5512Z" fill="black"/>
<path d="M84.777 40.5512H81.0878L81.0878 44.2404H84.777V40.5512Z" fill="black"/>
<path d="M88.4662 40.5512H84.777V44.2404H88.4662V40.5512Z" fill="black"/>
<path d="M92.1554 40.5512H88.4662V44.2404H92.1554L92.1554 40.5512Z" fill="black"/>
<path d="M103.223 40.5512H99.5338V44.2404H103.223V40.5512Z" fill="black"/>
<path d="M125.358 40.5512H121.669V44.2404H125.358V40.5512Z" fill="black"/>
<path d="M129.047 40.5512H125.358V44.2404H129.047V40.5512Z" fill="black"/>
<path d="M132.736 40.5512H129.047V44.2404H132.736V40.5512Z" fill="black"/>
<path d="M140.115 40.5512H136.426V44.2404H140.115V40.5512Z" fill="black"/>
<path d="M147.493 40.5512H143.804V44.2404H147.493V40.5512Z" fill="black"/>
<path d="M151.182 40.5512H147.493V44.2404H151.182V40.5512Z" fill="black"/>
<path d="M154.872 40.5512H151.182V44.2404H154.872V40.5512Z" fill="black"/>
<path d="M162.25 40.5512H158.561V44.2404H162.25V40.5512Z" fill="black"/>
<path d="M29.4392 44.2404H25.75V47.9296H29.4392V44.2404Z" fill="black"/>
<path d="M51.5743 44.2404H47.8851V47.9296H51.5743V44.2404Z" fill="black"/>
<path d="M62.6419 44.2404H58.9527V47.9296H62.6419V44.2404Z" fill="black"/>
<path d="M66.3311 44.2404H62.6419V47.9296H66.3311V44.2404Z" fill="black"/>
<path d="M92.1554 44.2404H88.4662L88.4662 47.9296H92.1554V44.2404Z" fill="black"/>
<path d="M99.5338 44.2404H95.8446V47.9296H99.5338V44.2404Z" fill="black"/>
<path d="M103.223 44.2404H99.5338V47.9296H103.223V44.2404Z" fill="black"/>
<path d="M117.98 44.2404H114.291V47.9296H117.98V44.2404Z" fill="black"/>
<path d="M121.669 44.2404H117.98V47.9296H121.669V44.2404Z" fill="black"/>
<path d="M140.115 44.2404H136.426V47.9296H140.115V44.2404Z" fill="black"/>
<path d="M162.25 44.2404H158.561V47.9296H162.25V44.2404Z" fill="black"/>
<path d="M29.4392 47.9296H25.75V51.6188H29.4392V47.9296Z" fill="black"/>
<path d="M33.1284 47.9296H29.4392V51.6188H33.1284V47.9296Z" fill="black"/>
<path d="M36.8176 47.9296H33.1284V51.6188H36.8176V47.9296Z" fill="black"/>
<path d="M40.5068 47.9296H36.8176V51.6188H40.5068V47.9296Z" fill="black"/>
<path d="M44.1959 47.9296H40.5068V51.6188H44.1959V47.9296Z" fill="black"/>
<path d="M47.8851 47.9296H44.1959V51.6188H47.8851V47.9296Z" fill="black"/>
<path d="M51.5743 47.9296H47.8851V51.6188H51.5743V47.9296Z" fill="black"/>
<path d="M58.9527 47.9296H55.2635V51.6188H58.9527V47.9296Z" fill="black"/>
<path d="M66.3311 47.9296H62.6419V51.6188H66.3311V47.9296Z" fill="black"/>
<path d="M73.7095 47.9296H70.0203V51.6188H73.7095V47.9296Z" fill="black"/>
<path d="M81.0878 47.9296H77.3986V51.6188H81.0878V47.9296Z" fill="black"/>
<path d="M88.4662 47.9296H84.777V51.6188H88.4662L88.4662 47.9296Z" fill="black"/>
<path d="M95.8446 47.9296H92.1554L92.1554 51.6188H95.8446V47.9296Z" fill="black"/>
<path d="M103.223 47.9296H99.5338V51.6188H103.223V47.9296Z" fill="black"/>
<path d="M110.601 47.9296H106.912V51.6188H110.601V47.9296Z" fill="black"/>
<path d="M117.98 47.9296H114.291V51.6188H117.98V47.9296Z" fill="black"/>
<path d="M125.358 47.9296H121.669V51.6188H125.358V47.9296Z" fill="black"/>
<path d="M132.736 47.9296H129.047V51.6188H132.736V47.9296Z" fill="black"/>
<path d="M140.115 47.9296H136.426V51.6188H140.115V47.9296Z" fill="black"/>
<path d="M143.804 47.9296H140.115V51.6188H143.804V47.9296Z" fill="black"/>
<path d="M147.493 47.9296H143.804V51.6188H147.493V47.9296Z" fill="black"/>
<path d="M151.182 47.9296H147.493V51.6188H151.182V47.9296Z" fill="black"/>
<path d="M154.872 47.9296H151.182V51.6188H154.872V47.9296Z" fill="black"/>
<path d="M158.561 47.9296H154.872V51.6188H158.561V47.9296Z" fill="black"/>
<path d="M162.25 47.9296H158.561V51.6188H162.25V47.9296Z" fill="black"/>
<path d="M58.9527 51.6188H55.2635V55.3079H58.9527V51.6188Z" fill="black"/>
<path d="M62.6419 51.6188H58.9527V55.3079H62.6419V51.6188Z" fill="black"/>
<path d="M66.3311 51.6188H62.6419V55.3079H66.3311V51.6188Z" fill="black"/>
<path d="M73.7095 51.6188H70.0203V55.3079H73.7095V51.6188Z" fill="black"/>
<path d="M81.0878 51.6188H77.3986V55.3079H81.0878V51.6188Z" fill="black"/>
<path d="M84.777 51.6188H81.0878V55.3079H84.777L84.777 51.6188Z" fill="black"/>
<path d="M88.4662 51.6188H84.777L84.777 55.3079H88.4662V51.6188Z" fill="black"/>
<path d="M92.1554 51.6188H88.4662V55.3079H92.1554L92.1554 51.6188Z" fill="black"/>
<path d="M110.601 51.6188H106.912V55.3079H110.601V51.6188Z" fill="black"/>
<path d="M114.291 51.6188H110.601V55.3079H114.291V51.6188Z" fill="black"/>
<path d="M117.98 51.6188H114.291V55.3079H117.98V51.6188Z" fill="black"/>
<path d="M125.358 51.6188H121.669V55.3079H125.358V51.6188Z" fill="black"/>
<path d="M129.047 51.6188H125.358V55.3079H129.047V51.6188Z" fill="black"/>
<path d="M132.736 51.6188H129.047V55.3079H132.736V51.6188Z" fill="black"/>
<path d="M29.4392 55.3079H25.75V58.9971H29.4392V55.3079Z" fill="black"/>
<path d="M36.8176 55.3079H33.1284V58.9971H36.8176V55.3079Z" fill="black"/>
<path d="M47.8851 55.3079H44.1959V58.9971H47.8851V55.3079Z" fill="black"/>
<path d="M51.5743 55.3079H47.8851V58.9971H51.5743V55.3079Z" fill="black"/>
<path d="M62.6419 55.3079H58.9527V58.9971H62.6419V55.3079Z" fill="black"/>
<path d="M66.3311 55.3079H62.6419V58.9971H66.3311V55.3079Z" fill="black"/>
<path d="M70.0203 55.3079H66.3311V58.9971H70.0203L70.0203 55.3079Z" fill="black"/>
<path d="M81.0878 55.3079H77.3986V58.9971H81.0878V55.3079Z" fill="black"/>
<path d="M88.4662 55.3079H84.777L84.777 58.9971H88.4662V55.3079Z" fill="black"/>
<path d="M99.5338 55.3079H95.8446V58.9971H99.5338V55.3079Z" fill="black"/>
<path d="M110.601 55.3079H106.912V58.9971H110.601V55.3079Z" fill="black"/>
<path d="M125.358 55.3079H121.669V58.9971H125.358V55.3079Z" fill="black"/>
<path d="M129.047 55.3079H125.358V58.9971H129.047V55.3079Z" fill="black"/>
<path d="M136.426 55.3079H132.736V58.9971H136.426V55.3079Z" fill="black"/>
<path d="M140.115 55.3079H136.426V58.9971H140.115V55.3079Z" fill="black"/>
<path d="M154.872 55.3079H151.182V58.9971H154.872V55.3079Z" fill="black"/>
<path d="M162.25 55.3079H158.561V58.9971H162.25V55.3079Z" fill="black"/>
<path d="M40.5068 58.9971H36.8176V62.6863H40.5068V58.9971Z" fill="black"/>
<path d="M47.8851 58.9971H44.1959V62.6863H47.8851V58.9971Z" fill="black"/>
<path d="M55.2635 58.9971H51.5743V62.6863H55.2635V58.9971Z" fill="black"/>
<path d="M58.9527 58.9971H55.2635V62.6863H58.9527V58.9971Z" fill="black"/>
<path d="M66.3311 58.9971H62.6419V62.6863H66.3311V58.9971Z" fill="black"/>
<path d="M73.7095 58.9971H70.0203L70.0203 62.6863H73.7095V58.9971Z" fill="black"/>
<path d="M77.3986 58.9971H73.7095V62.6863H77.3986V58.9971Z" fill="black"/>
<path d="M84.777 58.9971H81.0878L81.0878 62.6863H84.777L84.777 58.9971Z" fill="black"/>
<path d="M92.1554 58.9971H88.4662L88.4662 62.6863H92.1554V58.9971Z" fill="black"/>
<path d="M95.8446 58.9971H92.1554V62.6863H95.8446V58.9971Z" fill="black"/>
<path d="M117.98 58.9971H114.291V62.6863H117.98V58.9971Z" fill="black"/>
<path d="M125.358 58.9971H121.669V62.6863H125.358V58.9971Z" fill="black"/>
<path d="M129.047 58.9971H125.358V62.6863H129.047V58.9971Z" fill="black"/>
<path d="M151.182 58.9971H147.493V62.6863H151.182V58.9971Z" fill="black"/>
<path d="M154.872 58.9971H151.182V62.6863H154.872V58.9971Z" fill="black"/>
<path d="M158.561 58.9971H154.872V62.6863H158.561V58.9971Z" fill="black"/>
<path d="M162.25 58.9971H158.561V62.6863H162.25V58.9971Z" fill="black"/>
<path d="M33.1284 62.6863H29.4392V66.3755H33.1284V62.6863Z" fill="black"/>
<path d="M36.8176 62.6863H33.1284V66.3755H36.8176V62.6863Z" fill="black"/>
<path d="M40.5068 62.6863H36.8176V66.3755H40.5068V62.6863Z" fill="black"/>
<path d="M51.5743 62.6863H47.8851V66.3755H51.5743V62.6863Z" fill="black"/>
<path d="M55.2635 62.6863H51.5743V66.3755H55.2635V62.6863Z" fill="black"/>
<path d="M77.3986 62.6863H73.7095L73.7095 66.3755H77.3986V62.6863Z" fill="black"/>
<path d="M81.0878 62.6863H77.3986V66.3755H81.0878L81.0878 62.6863Z" fill="black"/>
<path d="M88.4662 62.6863H84.777L84.777 66.3755H88.4662L88.4662 62.6863Z" fill="black"/>
<path d="M103.223 62.6863H99.5338V66.3755H103.223V62.6863Z" fill="black"/>
<path d="M106.912 62.6863H103.223V66.3755H106.912V62.6863Z" fill="black"/>
<path d="M110.601 62.6863H106.912V66.3755H110.601V62.6863Z" fill="black"/>
<path d="M125.358 62.6863H121.669V66.3755H125.358V62.6863Z" fill="black"/>
<path d="M132.736 62.6863H129.047V66.3755H132.736V62.6863Z" fill="black"/>
<path d="M140.115 62.6863H136.426V66.3755H140.115V62.6863Z" fill="black"/>
<path d="M143.804 62.6863H140.115V66.3755H143.804V62.6863Z" fill="black"/>
<path d="M147.493 62.6863H143.804V66.3755H147.493V62.6863Z" fill="black"/>
<path d="M151.182 62.6863H147.493V66.3755H151.182V62.6863Z" fill="black"/>
<path d="M158.561 62.6863H154.872V66.3755H158.561V62.6863Z" fill="black"/>
<path d="M40.5068 66.3755H36.8176V70.0647H40.5068V66.3755Z" fill="black"/>
<path d="M47.8851 66.3755H44.1959V70.0647H47.8851V66.3755Z" fill="black"/>
<path d="M84.777 66.3755H81.0878L81.0878 70.0647H84.777L84.777 66.3755Z" fill="black"/>
<path d="M88.4662 66.3755H84.777L84.777 70.0647H88.4662V66.3755Z" fill="black"/>
<path d="M132.736 66.3755H129.047V70.0647H132.736V66.3755Z" fill="black"/>
<path d="M136.426 66.3755H132.736V70.0647H136.426V66.3755Z" fill="black"/>
<path d="M162.25 66.3755H158.561V70.0647H162.25V66.3755Z" fill="black"/>
<path d="M33.1284 70.0647H29.4392V73.7539H33.1284V70.0647Z" fill="black"/>
<path d="M40.5068 70.0647H36.8176V73.7539H40.5068V70.0647Z" fill="black"/>
<path d="M44.1959 70.0647H40.5068V73.7539H44.1959V70.0647Z" fill="black"/>
<path d="M51.5743 70.0647L47.8851 70.0647V73.7539H51.5743V70.0647Z" fill="black"/>
<path d="M58.9527 70.0647H55.2635V73.7539H58.9527V70.0647Z" fill="black"/>
<path d="M62.6419 70.0647H58.9527V73.7539H62.6419V70.0647Z" fill="black"/>
<path d="M70.0203 70.0647H66.3311V73.7539H70.0203V70.0647Z" fill="black"/>
<path d="M73.7095 70.0647H70.0203V73.7539H73.7095V70.0647Z" fill="black"/>
<path d="M84.777 70.0647H81.0878V73.7539H84.777V70.0647Z" fill="black"/>
<path d="M88.4662 70.0647H84.777V73.7539H88.4662V70.0647Z" fill="black"/>
<path d="M92.1554 70.0647L88.4662 70.0647V73.7539H92.1554V70.0647Z" fill="black"/>
<path d="M95.8446 70.0647H92.1554V73.7539H95.8446V70.0647Z" fill="black"/>
<path d="M106.912 70.0647H103.223V73.7539H106.912V70.0647Z" fill="black"/>
<path d="M110.601 70.0647H106.912V73.7539H110.601V70.0647Z" fill="black"/>
<path d="M114.291 70.0647H110.601V73.7539H114.291V70.0647Z" fill="black"/>
<path d="M121.669 70.0647H117.98V73.7539H121.669V70.0647Z" fill="black"/>
<path d="M129.047 70.0647L125.358 70.0647V73.7539H129.047V70.0647Z" fill="black"/>
<path d="M136.426 70.0647H132.736V73.7539H136.426V70.0647Z" fill="black"/>
<path d="M151.182 70.0647H147.493V73.7539H151.182V70.0647Z" fill="black"/>
<path d="M154.872 70.0647H151.182V73.7539H154.872V70.0647Z" fill="black"/>
<path d="M158.561 70.0647L154.872 70.0647V73.7539H158.561V70.0647Z" fill="black"/>
<path d="M29.4392 73.7539L25.75 73.7539V77.4431H29.4392V73.7539Z" fill="black"/>
<path d="M40.5068 73.7539H36.8176V77.4431H40.5068V73.7539Z" fill="black"/>
<path d="M55.2635 73.7539H51.5743V77.4431H55.2635V73.7539Z" fill="black"/>
<path d="M66.3311 73.7539H62.6419V77.4431H66.3311V73.7539Z" fill="black"/>
<path d="M95.8446 73.7539H92.1554L92.1554 77.4431H95.8446V73.7539Z" fill="black"/>
<path d="M103.223 73.7539L99.5338 73.7539V77.4431H103.223V73.7539Z" fill="black"/>
<path d="M114.291 73.7539H110.601V77.4431H114.291V73.7539Z" fill="black"/>
<path d="M117.98 73.7539H114.291V77.4431H117.98V73.7539Z" fill="black"/>
<path d="M125.358 73.7539H121.669V77.4431H125.358V73.7539Z" fill="black"/>
<path d="M129.047 73.7539H125.358V77.4431H129.047V73.7539Z" fill="black"/>
<path d="M132.736 73.7539H129.047V77.4431H132.736V73.7539Z" fill="black"/>
<path d="M147.493 73.7539L143.804 73.7539V77.4431H147.493V73.7539Z" fill="black"/>
<path d="M151.182 73.7539H147.493V77.4431H151.182V73.7539Z" fill="black"/>
<path d="M154.872 73.7539H151.182V77.4431H154.872V73.7539Z" fill="black"/>
<path d="M162.25 73.7539L158.561 73.7539V77.4431H162.25V73.7539Z" fill="black"/>
<path d="M29.4392 77.4431H25.75V81.1323H29.4392V77.4431Z" fill="black"/>
<path d="M36.8176 77.4431H33.1284V81.1323H36.8176V77.4431Z" fill="black"/>
<path d="M40.5068 77.4431H36.8176V81.1323H40.5068V77.4431Z" fill="black"/>
<path d="M47.8851 77.4431H44.1959V81.1323H47.8851V77.4431Z" fill="black"/>
<path d="M51.5743 77.4431H47.8851V81.1323H51.5743V77.4431Z" fill="black"/>
<path d="M58.9527 77.4431H55.2635V81.1323H58.9527V77.4431Z" fill="black"/>
<path d="M73.7095 77.4431H70.0203V81.1323H73.7095V77.4431Z" fill="black"/>
<path d="M77.3986 77.4431H73.7095V81.1323H77.3986V77.4431Z" fill="black"/>
<path d="M84.777 77.4431H81.0878V81.1323H84.777V77.4431Z" fill="black"/>
<path d="M88.4662 77.4431H84.777V81.1323H88.4662V77.4431Z" fill="black"/>
<path d="M92.1554 77.4431H88.4662V81.1323H92.1554L92.1554 77.4431Z" fill="black"/>
<path d="M95.8446 77.4431H92.1554L92.1554 81.1323H95.8446V77.4431Z" fill="black"/>
<path d="M99.5338 77.4431H95.8446V81.1323H99.5338V77.4431Z" fill="black"/>
<path d="M103.223 77.4431H99.5338V81.1323H103.223V77.4431Z" fill="black"/>
<path d="M106.912 77.4431H103.223V81.1323H106.912V77.4431Z" fill="black"/>
<path d="M110.601 77.4431H106.912V81.1323H110.601V77.4431Z" fill="black"/>
<path d="M114.291 77.4431H110.601V81.1323H114.291V77.4431Z" fill="black"/>
<path d="M121.669 77.4431H117.98V81.1323H121.669V77.4431Z" fill="black"/>
<path d="M125.358 77.4431H121.669V81.1323H125.358V77.4431Z" fill="black"/>
<path d="M129.047 77.4431H125.358V81.1323H129.047V77.4431Z" fill="black"/>
<path d="M147.493 77.4431H143.804V81.1323H147.493V77.4431Z" fill="black"/>
<path d="M151.182 77.4431H147.493V81.1323H151.182V77.4431Z" fill="black"/>
<path d="M158.561 77.4431H154.872V81.1323H158.561V77.4431Z" fill="black"/>
<path d="M33.1284 81.1323H29.4392V84.8215H33.1284V81.1323Z" fill="black"/>
<path d="M36.8176 81.1323H33.1284V84.8215H36.8176V81.1323Z" fill="black"/>
<path d="M55.2635 81.1323H51.5743V84.8215H55.2635V81.1323Z" fill="black"/>
<path d="M58.9527 81.1323H55.2635V84.8215H58.9527V81.1323Z" fill="black"/>
<path d="M66.3311 81.1323H62.6419V84.8215H66.3311V81.1323Z" fill="black"/>
<path d="M73.7095 81.1323H70.0203V84.8215H73.7095V81.1323Z" fill="black"/>
<path d="M77.3986 81.1323H73.7095V84.8215H77.3986V81.1323Z" fill="black"/>
<path d="M81.0878 81.1323H77.3986V84.8215H81.0878L81.0878 81.1323Z" fill="black"/>
<path d="M84.777 81.1323H81.0878L81.0878 84.8215H84.777V81.1323Z" fill="black"/>
<path d="M99.5338 81.1323H95.8446V84.8215H99.5338V81.1323Z" fill="black"/>
<path d="M106.912 81.1323H103.223V84.8215H106.912V81.1323Z" fill="black"/>
<path d="M110.601 81.1323H106.912V84.8215H110.601V81.1323Z" fill="black"/>
<path d="M117.98 81.1323H114.291V84.8215H117.98V81.1323Z" fill="black"/>
<path d="M125.358 81.1323H121.669V84.8215H125.358V81.1323Z" fill="black"/>
<path d="M132.736 81.1323L129.047 81.1323V84.8215H132.736V81.1323Z" fill="black"/>
<path d="M136.426 81.1323H132.736V84.8215H136.426V81.1323Z" fill="black"/>
<path d="M140.115 81.1323H136.426V84.8215H140.115V81.1323Z" fill="black"/>
<path d="M158.561 81.1323H154.872V84.8215H158.561V81.1323Z" fill="black"/>
<path d="M29.4392 84.8215L25.75 84.8215V88.5107H29.4392V84.8215Z" fill="black"/>
<path d="M36.8176 84.8215H33.1284V88.5107H36.8176V84.8215Z" fill="black"/>
<path d="M51.5743 84.8215L47.8851 84.8215V88.5107H51.5743V84.8215Z" fill="black"/>
<path d="M77.3986 84.8215H73.7095L73.7095 88.5107H77.3986V84.8215Z" fill="black"/>
<path d="M81.0878 84.8215H77.3986V88.5107H81.0878V84.8215Z" fill="black"/>
<path d="M84.777 84.8215H81.0878V88.5107H84.777V84.8215Z" fill="black"/>
<path d="M88.4662 84.8215L84.777 84.8215V88.5107H88.4662V84.8215Z" fill="black"/>
<path d="M92.1554 84.8215H88.4662V88.5107H92.1554V84.8215Z" fill="black"/>
<path d="M95.8446 84.8215L92.1554 84.8215V88.5107H95.8446V84.8215Z" fill="black"/>
<path d="M99.5338 84.8215H95.8446V88.5107H99.5338V84.8215Z" fill="black"/>
<path d="M103.223 84.8215H99.5338V88.5107H103.223V84.8215Z" fill="black"/>
<path d="M106.912 84.8215H103.223V88.5107H106.912V84.8215Z" fill="black"/>
<path d="M114.291 84.8215H110.601V88.5107H114.291V84.8215Z" fill="black"/>
<path d="M132.736 84.8215H129.047V88.5107H132.736V84.8215Z" fill="black"/>
<path d="M136.426 84.8215H132.736V88.5107H136.426V84.8215Z" fill="black"/>
<path d="M143.804 84.8215L140.115 84.8215V88.5107H143.804V84.8215Z" fill="black"/>
<path d="M147.493 84.8215H143.804V88.5107H147.493V84.8215Z" fill="black"/>
<path d="M151.182 84.8215H147.493V88.5107H151.182V84.8215Z" fill="black"/>
<path d="M154.872 84.8215L151.182 84.8215V88.5107H154.872V84.8215Z" fill="black"/>
<path d="M158.561 84.8215H154.872V88.5107H158.561V84.8215Z" fill="black"/>
<path d="M162.25 84.8215L158.561 84.8215V88.5107H162.25V84.8215Z" fill="black"/>
<path d="M33.1284 88.5107H29.4392V92.1998H33.1284V88.5107Z" fill="black"/>
<path d="M36.8176 88.5107H33.1284V92.1998H36.8176V88.5107Z" fill="black"/>
<path d="M40.5068 88.5107L36.8176 88.5107V92.1998H40.5068V88.5107Z" fill="black"/>
<path d="M47.8851 88.5107L44.1959 88.5107V92.1998H47.8851V88.5107Z" fill="black"/>
<path d="M55.2635 88.5107L51.5743 88.5107V92.1998H55.2635V88.5107Z" fill="black"/>
<path d="M58.9527 88.5107H55.2635V92.1998H58.9527V88.5107Z" fill="black"/>
<path d="M81.0878 88.5107H77.3986V92.1998H81.0878V88.5107Z" fill="black"/>
<path d="M88.4662 88.5107H84.777L84.777 92.1998H88.4662V88.5107Z" fill="black"/>
<path d="M95.8446 88.5107H92.1554L92.1554 92.1998H95.8446V88.5107Z" fill="black"/>
<path d="M106.912 88.5107H103.223V92.1998H106.912V88.5107Z" fill="black"/>
<path d="M114.291 88.5107H110.601V92.1998H114.291V88.5107Z" fill="black"/>
<path d="M117.98 88.5107L114.291 88.5107V92.1998H117.98V88.5107Z" fill="black"/>
<path d="M140.115 88.5107H136.426V92.1998H140.115V88.5107Z" fill="black"/>
<path d="M147.493 88.5107H143.804V92.1998H147.493V88.5107Z" fill="black"/>
<path d="M154.872 88.5107H151.182V92.1998H154.872V88.5107Z" fill="black"/>
<path d="M33.1284 92.1998H29.4392V95.889H33.1284V92.1998Z" fill="black"/>
<path d="M36.8176 92.1998H33.1284V95.889H36.8176V92.1998Z" fill="black"/>
<path d="M40.5068 92.1998H36.8176V95.889H40.5068V92.1998Z" fill="black"/>
<path d="M44.1959 92.1998H40.5068V95.889H44.1959V92.1998Z" fill="black"/>
<path d="M47.8851 92.1998H44.1959V95.889H47.8851V92.1998Z" fill="black"/>
<path d="M51.5743 92.1998H47.8851V95.889H51.5743V92.1998Z" fill="black"/>
<path d="M70.0203 92.1998H66.3311V95.889H70.0203V92.1998Z" fill="black"/>
<path d="M81.0878 92.1998H77.3986V95.889H81.0878V92.1998Z" fill="black"/>
<path d="M84.777 92.1998H81.0878V95.889H84.777L84.777 92.1998Z" fill="black"/>
<path d="M88.4662 92.1998H84.777L84.777 95.889H88.4662V92.1998Z" fill="black"/>
<path d="M92.1554 92.1998H88.4662V95.889H92.1554L92.1554 92.1998Z" fill="black"/>
<path d="M95.8446 92.1998H92.1554L92.1554 95.889H95.8446V92.1998Z" fill="black"/>
<path d="M99.5338 92.1998L95.8446 92.1998V95.889H99.5338V92.1998Z" fill="black"/>
<path d="M129.047 92.1998H125.358V95.889H129.047V92.1998Z" fill="black"/>
<path d="M140.115 92.1998H136.426V95.889H140.115V92.1998Z" fill="black"/>
<path d="M143.804 92.1998H140.115V95.889H143.804V92.1998Z" fill="black"/>
<path d="M147.493 92.1998H143.804V95.889H147.493V92.1998Z" fill="black"/>
<path d="M151.182 92.1998H147.493V95.889H151.182V92.1998Z" fill="black"/>
<path d="M158.561 92.1998L154.872 92.1998V95.889H158.561V92.1998Z" fill="black"/>
<path d="M29.4392 95.889H25.75V99.5782H29.4392V95.889Z" fill="black"/>
<path d="M36.8176 95.889H33.1284V99.5782H36.8176V95.889Z" fill="black"/>
<path d="M58.9527 95.889H55.2635V99.5782H58.9527V95.889Z" fill="black"/>
<path d="M70.0203 95.889H66.3311V99.5782H70.0203V95.889Z" fill="black"/>
<path d="M77.3986 95.889H73.7095V99.5782H77.3986V95.889Z" fill="black"/>
<path d="M81.0878 95.889H77.3986V99.5782H81.0878V95.889Z" fill="black"/>
<path d="M84.777 95.889H81.0878V99.5782H84.777V95.889Z" fill="black"/>
<path d="M95.8446 95.889H92.1554L92.1554 99.5782H95.8446V95.889Z" fill="black"/>
<path d="M103.223 95.889H99.5338V99.5782H103.223V95.889Z" fill="black"/>
<path d="M106.912 95.889H103.223V99.5782H106.912V95.889Z" fill="black"/>
<path d="M110.601 95.889H106.912V99.5782H110.601V95.889Z" fill="black"/>
<path d="M129.047 95.889H125.358V99.5782H129.047V95.889Z" fill="black"/>
<path d="M136.426 95.889H132.736V99.5782H136.426V95.889Z" fill="black"/>
<path d="M140.115 95.889H136.426V99.5782H140.115V95.889Z" fill="black"/>
<path d="M143.804 95.889H140.115V99.5782H143.804V95.889Z" fill="black"/>
<path d="M154.872 95.889H151.182V99.5782H154.872V95.889Z" fill="black"/>
<path d="M162.25 95.889H158.561V99.5782H162.25V95.889Z" fill="black"/>
<path d="M29.4392 99.5782H25.75V103.267H29.4392V99.5782Z" fill="black"/>
<path d="M33.1284 99.5782H29.4392V103.267H33.1284V99.5782Z" fill="black"/>
<path d="M36.8176 99.5782H33.1284V103.267H36.8176V99.5782Z" fill="black"/>
<path d="M47.8851 99.5782H44.1959V103.267H47.8851V99.5782Z" fill="black"/>
<path d="M51.5743 99.5782H47.8851V103.267H51.5743V99.5782Z" fill="black"/>
<path d="M55.2635 99.5782H51.5743V103.267H55.2635V99.5782Z" fill="black"/>
<path d="M58.9527 99.5782H55.2635V103.267H58.9527V99.5782Z" fill="black"/>
<path d="M62.6419 99.5782H58.9527V103.267H62.6419V99.5782Z" fill="black"/>
<path d="M66.3311 99.5782H62.6419V103.267H66.3311V99.5782Z" fill="black"/>
<path d="M70.0203 99.5782H66.3311V103.267H70.0203V99.5782Z" fill="black"/>
<path d="M73.7095 99.5782H70.0203V103.267H73.7095L73.7095 99.5782Z" fill="black"/>
<path d="M77.3986 99.5782H73.7095L73.7095 103.267H77.3986V99.5782Z" fill="black"/>
<path d="M84.777 99.5782H81.0878L81.0878 103.267H84.777V99.5782Z" fill="black"/>
<path d="M110.601 99.5782H106.912V103.267H110.601V99.5782Z" fill="black"/>
<path d="M117.98 99.5782H114.291V103.267H117.98V99.5782Z" fill="black"/>
<path d="M121.669 99.5782H117.98V103.267H121.669V99.5782Z" fill="black"/>
<path d="M125.358 99.5782H121.669V103.267H125.358V99.5782Z" fill="black"/>
<path d="M129.047 99.5782H125.358V103.267H129.047V99.5782Z" fill="black"/>
<path d="M136.426 99.5782H132.736V103.267H136.426V99.5782Z" fill="black"/>
<path d="M143.804 99.5782H140.115V103.267H143.804V99.5782Z" fill="black"/>
<path d="M162.25 99.5782H158.561V103.267H162.25V99.5782Z" fill="black"/>
<path d="M33.1284 103.267H29.4392V106.957H33.1284V103.267Z" fill="black"/>
<path d="M36.8176 103.267H33.1284V106.957H36.8176V103.267Z" fill="black"/>
<path d="M40.5068 103.267H36.8176V106.957H40.5068V103.267Z" fill="black"/>
<path d="M44.1959 103.267H40.5068V106.957H44.1959V103.267Z" fill="black"/>
<path d="M58.9527 103.267H55.2635V106.957H58.9527V103.267Z" fill="black"/>
<path d="M77.3986 103.267H73.7095L73.7095 106.957H77.3986V103.267Z" fill="black"/>
<path d="M84.777 103.267H81.0878V106.957H84.777V103.267Z" fill="black"/>
<path d="M88.4662 103.267H84.777V106.957H88.4662V103.267Z" fill="black"/>
<path d="M110.601 103.267H106.912V106.957H110.601V103.267Z" fill="black"/>
<path d="M117.98 103.267H114.291V106.957H117.98V103.267Z" fill="black"/>
<path d="M121.669 103.267H117.98V106.957H121.669V103.267Z" fill="black"/>
<path d="M136.426 103.267H132.736V106.957H136.426V103.267Z" fill="black"/>
<path d="M143.804 103.267H140.115V106.957H143.804V103.267Z" fill="black"/>
<path d="M147.493 103.267H143.804V106.957H147.493V103.267Z" fill="black"/>
<path d="M154.872 103.267H151.182V106.957H154.872V103.267Z" fill="black"/>
<path d="M29.4392 106.957H25.75V110.646H29.4392V106.957Z" fill="black"/>
<path d="M40.5068 106.957H36.8176V110.646H40.5068V106.957Z" fill="black"/>
<path d="M51.5743 106.957H47.8851V110.646H51.5743V106.957Z" fill="black"/>
<path d="M55.2635 106.957H51.5743V110.646H55.2635V106.957Z" fill="black"/>
<path d="M58.9527 106.957H55.2635V110.646H58.9527V106.957Z" fill="black"/>
<path d="M62.6419 106.957H58.9527V110.646H62.6419V106.957Z" fill="black"/>
<path d="M66.3311 106.957H62.6419V110.646H66.3311V106.957Z" fill="black"/>
<path d="M70.0203 106.957H66.3311V110.646H70.0203V106.957Z" fill="black"/>
<path d="M73.7095 106.957H70.0203V110.646H73.7095L73.7095 106.957Z" fill="black"/>
<path d="M77.3986 106.957H73.7095L73.7095 110.646H77.3986V106.957Z" fill="black"/>
<path d="M95.8446 106.957H92.1554V110.646H95.8446V106.957Z" fill="black"/>
<path d="M110.601 106.957H106.912V110.646H110.601V106.957Z" fill="black"/>
<path d="M114.291 106.957H110.601V110.646H114.291V106.957Z" fill="black"/>
<path d="M117.98 106.957H114.291V110.646H117.98V106.957Z" fill="black"/>
<path d="M121.669 106.957H117.98V110.646H121.669V106.957Z" fill="black"/>
<path d="M125.358 106.957H121.669V110.646H125.358V106.957Z" fill="black"/>
<path d="M132.736 106.957H129.047V110.646H132.736V106.957Z" fill="black"/>
<path d="M136.426 106.957H132.736V110.646H136.426V106.957Z" fill="black"/>
<path d="M154.872 106.957H151.182V110.646H154.872V106.957Z" fill="black"/>
<path d="M158.561 106.957H154.872V110.646H158.561V106.957Z" fill="black"/>
<path d="M29.4392 110.646H25.75V114.335H29.4392V110.646Z" fill="black"/>
<path d="M33.1284 110.646H29.4392V114.335H33.1284V110.646Z" fill="black"/>
<path d="M40.5068 110.646H36.8176V114.335H40.5068V110.646Z" fill="black"/>
<path d="M58.9527 110.646H55.2635V114.335H58.9527V110.646Z" fill="black"/>
<path d="M66.3311 110.646H62.6419V114.335H66.3311V110.646Z" fill="black"/>
<path d="M73.7095 110.646H70.0203L70.0203 114.335H73.7095V110.646Z" fill="black"/>
<path d="M77.3986 110.646H73.7095V114.335H77.3986V110.646Z" fill="black"/>
<path d="M81.0878 110.646H77.3986V114.335H81.0878V110.646Z" fill="black"/>
<path d="M84.777 110.646H81.0878V114.335H84.777V110.646Z" fill="black"/>
<path d="M99.5338 110.646H95.8446V114.335H99.5338V110.646Z" fill="black"/>
<path d="M106.912 110.646H103.223V114.335H106.912V110.646Z" fill="black"/>
<path d="M110.601 110.646H106.912V114.335H110.601V110.646Z" fill="black"/>
<path d="M125.358 110.646H121.669V114.335H125.358V110.646Z" fill="black"/>
<path d="M132.736 110.646H129.047V114.335H132.736V110.646Z" fill="black"/>
<path d="M136.426 110.646H132.736V114.335H136.426V110.646Z" fill="black"/>
<path d="M140.115 110.646H136.426V114.335H140.115V110.646Z" fill="black"/>
<path d="M143.804 110.646H140.115V114.335H143.804V110.646Z" fill="black"/>
<path d="M158.561 110.646H154.872V114.335H158.561V110.646Z" fill="black"/>
<path d="M47.8851 114.335H44.1959V118.024H47.8851V114.335Z" fill="black"/>
<path d="M51.5743 114.335H47.8851V118.024H51.5743V114.335Z" fill="black"/>
<path d="M84.777 114.335H81.0878L81.0878 118.024H84.777V114.335Z" fill="black"/>
<path d="M88.4662 114.335H84.777V118.024H88.4662V114.335Z" fill="black"/>
<path d="M92.1554 114.335H88.4662V118.024H92.1554V114.335Z" fill="black"/>
<path d="M95.8446 114.335H92.1554V118.024H95.8446V114.335Z" fill="black"/>
<path d="M99.5338 114.335H95.8446V118.024H99.5338V114.335Z" fill="black"/>
<path d="M103.223 114.335H99.5338V118.024H103.223V114.335Z" fill="black"/>
<path d="M114.291 114.335H110.601V118.024H114.291V114.335Z" fill="black"/>
<path d="M132.736 114.335H129.047V118.024H132.736V114.335Z" fill="black"/>
<path d="M136.426 114.335H132.736V118.024H136.426V114.335Z" fill="black"/>
<path d="M143.804 114.335H140.115V118.024H143.804V114.335Z" fill="black"/>
<path d="M147.493 114.335H143.804V118.024H147.493V114.335Z" fill="black"/>
<path d="M151.182 114.335H147.493V118.024H151.182V114.335Z" fill="black"/>
<path d="M154.872 114.335H151.182V118.024H154.872V114.335Z" fill="black"/>
<path d="M158.561 114.335H154.872V118.024H158.561V114.335Z" fill="black"/>
<path d="M162.25 114.335H158.561V118.024H162.25V114.335Z" fill="black"/>
<path d="M29.4392 118.024H25.75V121.713H29.4392V118.024Z" fill="black"/>
<path d="M36.8176 118.024H33.1284V121.713H36.8176V118.024Z" fill="black"/>
<path d="M40.5068 118.024H36.8176V121.713H40.5068V118.024Z" fill="black"/>
<path d="M77.3986 118.024H73.7095V121.713H77.3986V118.024Z" fill="black"/>
<path d="M81.0878 118.024H77.3986V121.713H81.0878L81.0878 118.024Z" fill="black"/>
<path d="M95.8446 118.024H92.1554L92.1554 121.713H95.8446V118.024Z" fill="black"/>
<path d="M121.669 118.024H117.98V121.713H121.669V118.024Z" fill="black"/>
<path d="M136.426 118.024H132.736V121.713H136.426V118.024Z" fill="black"/>
<path d="M147.493 118.024H143.804V121.713H147.493V118.024Z" fill="black"/>
<path d="M29.4392 121.713H25.75V125.403H29.4392V121.713Z" fill="black"/>
<path d="M33.1284 121.713H29.4392V125.403H33.1284V121.713Z" fill="black"/>
<path d="M40.5068 121.713H36.8176V125.403H40.5068V121.713Z" fill="black"/>
<path d="M47.8851 121.713H44.1959V125.403H47.8851V121.713Z" fill="black"/>
<path d="M51.5743 121.713H47.8851V125.403H51.5743V121.713Z" fill="black"/>
<path d="M66.3311 121.713H62.6419V125.403H66.3311V121.713Z" fill="black"/>
<path d="M70.0203 121.713H66.3311V125.403H70.0203V121.713Z" fill="black"/>
<path d="M77.3986 121.713H73.7095V125.403H77.3986V121.713Z" fill="black"/>
<path d="M81.0878 121.713H77.3986V125.403H81.0878V121.713Z" fill="black"/>
<path d="M84.777 121.713H81.0878V125.403H84.777V121.713Z" fill="black"/>
<path d="M103.223 121.713H99.5338V125.403H103.223V121.713Z" fill="black"/>
<path d="M110.601 121.713H106.912V125.403H110.601V121.713Z" fill="black"/>
<path d="M114.291 121.713H110.601V125.403H114.291V121.713Z" fill="black"/>
<path d="M140.115 121.713H136.426V125.403H140.115V121.713Z" fill="black"/>
<path d="M143.804 121.713H140.115V125.403H143.804V121.713Z" fill="black"/>
<path d="M147.493 121.713H143.804V125.403H147.493V121.713Z" fill="black"/>
<path d="M154.872 121.713H151.182V125.403H154.872V121.713Z" fill="black"/>
<path d="M158.561 121.713H154.872V125.403H158.561V121.713Z" fill="black"/>
<path d="M55.2635 125.403H51.5743V129.092H55.2635V125.403Z" fill="black"/>
<path d="M62.6419 125.403H58.9527V129.092H62.6419V125.403Z" fill="black"/>
<path d="M66.3311 125.403H62.6419V129.092H66.3311V125.403Z" fill="black"/>
<path d="M70.0203 125.403H66.3311V129.092H70.0203V125.403Z" fill="black"/>
<path d="M77.3986 125.403H73.7095V129.092H77.3986V125.403Z" fill="black"/>
<path d="M81.0878 125.403H77.3986V129.092H81.0878V125.403Z" fill="black"/>
<path d="M88.4662 125.403H84.777L84.777 129.092H88.4662V125.403Z" fill="black"/>
<path d="M95.8446 125.403H92.1554V129.092H95.8446V125.403Z" fill="black"/>
<path d="M99.5338 125.403H95.8446V129.092H99.5338V125.403Z" fill="black"/>
<path d="M106.912 125.403H103.223V129.092H106.912V125.403Z" fill="black"/>
<path d="M110.601 125.403H106.912V129.092H110.601V125.403Z" fill="black"/>
<path d="M117.98 125.403H114.291V129.092H117.98V125.403Z" fill="black"/>
<path d="M121.669 125.403H117.98V129.092H121.669V125.403Z" fill="black"/>
<path d="M125.358 125.403H121.669V129.092H125.358V125.403Z" fill="black"/>
<path d="M129.047 125.403H125.358V129.092H129.047V125.403Z" fill="black"/>
<path d="M132.736 125.403H129.047V129.092H132.736V125.403Z" fill="black"/>
<path d="M143.804 125.403H140.115V129.092H143.804V125.403Z" fill="black"/>
<path d="M147.493 125.403H143.804V129.092H147.493V125.403Z" fill="black"/>
<path d="M33.1284 129.092H29.4392V132.781H33.1284V129.092Z" fill="black"/>
<path d="M36.8176 129.092H33.1284V132.781H36.8176V129.092Z" fill="black"/>
<path d="M40.5068 129.092H36.8176V132.781H40.5068V129.092Z" fill="black"/>
<path d="M51.5743 129.092H47.8851V132.781H51.5743V129.092Z" fill="black"/>
<path d="M58.9527 129.092H55.2635V132.781H58.9527V129.092Z" fill="black"/>
<path d="M62.6419 129.092H58.9527V132.781H62.6419V129.092Z" fill="black"/>
<path d="M70.0203 129.092H66.3311V132.781H70.0203V129.092Z" fill="black"/>
<path d="M73.7095 129.092H70.0203V132.781H73.7095L73.7095 129.092Z" fill="black"/>
<path d="M77.3986 129.092H73.7095L73.7095 132.781H77.3986V129.092Z" fill="black"/>
<path d="M81.0878 129.092H77.3986V132.781H81.0878V129.092Z" fill="black"/>
<path d="M84.777 129.092H81.0878V132.781H84.777L84.777 129.092Z" fill="black"/>
<path d="M92.1554 129.092H88.4662L88.4662 132.781H92.1554L92.1554 129.092Z" fill="black"/>
<path d="M103.223 129.092H99.5338V132.781H103.223V129.092Z" fill="black"/>
<path d="M106.912 129.092H103.223V132.781H106.912V129.092Z" fill="black"/>
<path d="M117.98 129.092H114.291V132.781H117.98V129.092Z" fill="black"/>
<path d="M121.669 129.092H117.98V132.781H121.669V129.092Z" fill="black"/>
<path d="M132.736 129.092H129.047V132.781H132.736V129.092Z" fill="black"/>
<path d="M136.426 129.092H132.736V132.781H136.426V129.092Z" fill="black"/>
<path d="M140.115 129.092H136.426V132.781H140.115V129.092Z" fill="black"/>
<path d="M143.804 129.092H140.115V132.781H143.804V129.092Z" fill="black"/>
<path d="M147.493 129.092H143.804V132.781H147.493V129.092Z" fill="black"/>
<path d="M151.182 129.092H147.493V132.781H151.182V129.092Z" fill="black"/>
<path d="M158.561 129.092H154.872V132.781H158.561V129.092Z" fill="black"/>
<path d="M162.25 129.092H158.561V132.781H162.25V129.092Z" fill="black"/>
<path d="M66.3311 132.781H62.6419V136.47H66.3311V132.781Z" fill="black"/>
<path d="M70.0203 132.781H66.3311V136.47H70.0203V132.781Z" fill="black"/>
<path d="M77.3986 132.781H73.7095L73.7095 136.47H77.3986V132.781Z" fill="black"/>
<path d="M95.8446 132.781H92.1554L92.1554 136.47H95.8446V132.781Z" fill="black"/>
<path d="M106.912 132.781H103.223V136.47H106.912V132.781Z" fill="black"/>
<path d="M110.601 132.781H106.912V136.47H110.601V132.781Z" fill="black"/>
<path d="M125.358 132.781H121.669V136.47H125.358V132.781Z" fill="black"/>
<path d="M132.736 132.781H129.047V136.47H132.736V132.781Z" fill="black"/>
<path d="M147.493 132.781H143.804V136.47H147.493V132.781Z" fill="black"/>
<path d="M154.872 132.781H151.182V136.47H154.872V132.781Z" fill="black"/>
<path d="M29.4392 136.47H25.75V140.159H29.4392V136.47Z" fill="black"/>
<path d="M33.1284 136.47H29.4392V140.159H33.1284V136.47Z" fill="black"/>
<path d="M36.8176 136.47H33.1284V140.159H36.8176V136.47Z" fill="black"/>
<path d="M40.5068 136.47H36.8176V140.159H40.5068V136.47Z" fill="black"/>
<path d="M44.1959 136.47H40.5068V140.159H44.1959V136.47Z" fill="black"/>
<path d="M47.8851 136.47H44.1959V140.159H47.8851V136.47Z" fill="black"/>
<path d="M51.5743 136.47H47.8851V140.159H51.5743V136.47Z" fill="black"/>
<path d="M62.6419 136.47H58.9527V140.159H62.6419V136.47Z" fill="black"/>
<path d="M66.3311 136.47H62.6419V140.159H66.3311V136.47Z" fill="black"/>
<path d="M73.7095 136.47H70.0203L70.0203 140.159H73.7095L73.7095 136.47Z" fill="black"/>
<path d="M77.3986 136.47H73.7095L73.7095 140.159H77.3986V136.47Z" fill="black"/>
<path d="M88.4662 136.47H84.777V140.159H88.4662V136.47Z" fill="black"/>
<path d="M92.1554 136.47H88.4662V140.159H92.1554L92.1554 136.47Z" fill="black"/>
<path d="M95.8446 136.47H92.1554L92.1554 140.159H95.8446V136.47Z" fill="black"/>
<path d="M103.223 136.47H99.5338V140.159H103.223V136.47Z" fill="black"/>
<path d="M106.912 136.47H103.223V140.159H106.912V136.47Z" fill="black"/>
<path d="M110.601 136.47H106.912V140.159H110.601V136.47Z" fill="black"/>
<path d="M114.291 136.47H110.601V140.159H114.291V136.47Z" fill="black"/>
<path d="M117.98 136.47H114.291V140.159H117.98V136.47Z" fill="black"/>
<path d="M121.669 136.47H117.98V140.159H121.669V136.47Z" fill="black"/>
<path d="M125.358 136.47H121.669V140.159H125.358V136.47Z" fill="black"/>
<path d="M132.736 136.47H129.047V140.159H132.736V136.47Z" fill="black"/>
<path d="M140.115 136.47H136.426V140.159H140.115V136.47Z" fill="black"/>
<path d="M147.493 136.47H143.804V140.159H147.493V136.47Z" fill="black"/>
<path d="M162.25 136.47H158.561V140.159H162.25V136.47Z" fill="black"/>
<path d="M29.4392 140.159H25.75V143.848H29.4392V140.159Z" fill="black"/>
<path d="M51.5743 140.159H47.8851V143.848H51.5743V140.159Z" fill="black"/>
<path d="M58.9527 140.159H55.2635V143.848H58.9527V140.159Z" fill="black"/>
<path d="M62.6419 140.159H58.9527V143.848H62.6419V140.159Z" fill="black"/>
<path d="M66.3311 140.159H62.6419V143.848H66.3311V140.159Z" fill="black"/>
<path d="M70.0203 140.159H66.3311V143.848H70.0203L70.0203 140.159Z" fill="black"/>
<path d="M73.7095 140.159H70.0203L70.0203 143.848H73.7095V140.159Z" fill="black"/>
<path d="M77.3986 140.159H73.7095V143.848H77.3986V140.159Z" fill="black"/>
<path d="M84.777 140.159H81.0878V143.848H84.777L84.777 140.159Z" fill="black"/>
<path d="M88.4662 140.159H84.777L84.777 143.848H88.4662V140.159Z" fill="black"/>
<path d="M92.1554 140.159H88.4662V143.848H92.1554V140.159Z" fill="black"/>
<path d="M103.223 140.159H99.5338V143.848H103.223V140.159Z" fill="black"/>
<path d="M114.291 140.159H110.601V143.848H114.291V140.159Z" fill="black"/>
<path d="M117.98 140.159H114.291V143.848H117.98V140.159Z" fill="black"/>
<path d="M121.669 140.159H117.98V143.848H121.669V140.159Z" fill="black"/>
<path d="M125.358 140.159H121.669V143.848H125.358V140.159Z" fill="black"/>
<path d="M129.047 140.159H125.358V143.848H129.047V140.159Z" fill="black"/>
<path d="M132.736 140.159H129.047V143.848H132.736V140.159Z" fill="black"/>
<path d="M147.493 140.159H143.804V143.848H147.493V140.159Z" fill="black"/>
<path d="M154.872 140.159H151.182V143.848H154.872V140.159Z" fill="black"/>
<path d="M162.25 140.159H158.561V143.848H162.25V140.159Z" fill="black"/>
<path d="M29.4392 143.848H25.75V147.538H29.4392V143.848Z" fill="black"/>
<path d="M36.8176 143.848H33.1284V147.538H36.8176V143.848Z" fill="black"/>
<path d="M40.5068 143.848H36.8176V147.538H40.5068V143.848Z" fill="black"/>
<path d="M44.1959 143.848H40.5068V147.538H44.1959V143.848Z" fill="black"/>
<path d="M51.5743 143.848H47.8851V147.538H51.5743V143.848Z" fill="black"/>
<path d="M66.3311 143.848H62.6419V147.538H66.3311V143.848Z" fill="black"/>
<path d="M70.0203 143.848H66.3311V147.538H70.0203V143.848Z" fill="black"/>
<path d="M84.777 143.848H81.0878V147.538H84.777V143.848Z" fill="black"/>
<path d="M95.8446 143.848H92.1554L92.1554 147.538H95.8446V143.848Z" fill="black"/>
<path d="M114.291 143.848H110.601V147.538H114.291V143.848Z" fill="black"/>
<path d="M132.736 143.848H129.047V147.538H132.736V143.848Z" fill="black"/>
<path d="M136.426 143.848H132.736V147.538H136.426V143.848Z" fill="black"/>
<path d="M140.115 143.848H136.426V147.538H140.115V143.848Z" fill="black"/>
<path d="M143.804 143.848H140.115V147.538H143.804V143.848Z" fill="black"/>
<path d="M147.493 143.848H143.804V147.538H147.493V143.848Z" fill="black"/>
<path d="M151.182 143.848H147.493V147.538H151.182V143.848Z" fill="black"/>
<path d="M154.872 143.848H151.182V147.538H154.872V143.848Z" fill="black"/>
<path d="M158.561 143.848H154.872V147.538H158.561V143.848Z" fill="black"/>
<path d="M29.4392 147.538H25.75V151.227H29.4392V147.538Z" fill="black"/>
<path d="M36.8176 147.538H33.1284V151.227H36.8176V147.538Z" fill="black"/>
<path d="M40.5068 147.538H36.8176V151.227H40.5068V147.538Z" fill="black"/>
<path d="M44.1959 147.538H40.5068V151.227H44.1959V147.538Z" fill="black"/>
<path d="M51.5743 147.538H47.8851V151.227H51.5743V147.538Z" fill="black"/>
<path d="M70.0203 147.538H66.3311V151.227H70.0203V147.538Z" fill="black"/>
<path d="M77.3986 147.538H73.7095V151.227H77.3986V147.538Z" fill="black"/>
<path d="M81.0878 147.538H77.3986V151.227H81.0878L81.0878 147.538Z" fill="black"/>
<path d="M84.777 147.538H81.0878L81.0878 151.227H84.777V147.538Z" fill="black"/>
<path d="M95.8446 147.538H92.1554V151.227H95.8446V147.538Z" fill="black"/>
<path d="M99.5338 147.538H95.8446V151.227H99.5338V147.538Z" fill="black"/>
<path d="M103.223 147.538H99.5338V151.227H103.223V147.538Z" fill="black"/>
<path d="M110.601 147.538H106.912V151.227H110.601V147.538Z" fill="black"/>
<path d="M114.291 147.538H110.601V151.227H114.291V147.538Z" fill="black"/>
<path d="M121.669 147.538H117.98V151.227H121.669V147.538Z" fill="black"/>
<path d="M151.182 147.538H147.493V151.227H151.182V147.538Z" fill="black"/>
<path d="M158.561 147.538H154.872V151.227H158.561V147.538Z" fill="black"/>
<path d="M162.25 147.538H158.561V151.227H162.25V147.538Z" fill="black"/>
<path d="M29.4392 151.227H25.75V154.916H29.4392V151.227Z" fill="black"/>
<path d="M36.8176 151.227H33.1284V154.916H36.8176V151.227Z" fill="black"/>
<path d="M40.5068 151.227H36.8176V154.916H40.5068V151.227Z" fill="black"/>
<path d="M44.1959 151.227H40.5068V154.916H44.1959V151.227Z" fill="black"/>
<path d="M51.5743 151.227H47.8851V154.916H51.5743V151.227Z" fill="black"/>
<path d="M58.9527 151.227H55.2635V154.916H58.9527V151.227Z" fill="black"/>
<path d="M62.6419 151.227H58.9527V154.916H62.6419V151.227Z" fill="black"/>
<path d="M66.3311 151.227H62.6419V154.916H66.3311V151.227Z" fill="black"/>
<path d="M81.0878 151.227H77.3986V154.916H81.0878V151.227Z" fill="black"/>
<path d="M95.8446 151.227H92.1554V154.916H95.8446V151.227Z" fill="black"/>
<path d="M110.601 151.227H106.912V154.916H110.601V151.227Z" fill="black"/>
<path d="M125.358 151.227H121.669V154.916H125.358V151.227Z" fill="black"/>
<path d="M151.182 151.227H147.493V154.916H151.182V151.227Z" fill="black"/>
<path d="M154.872 151.227H151.182V154.916H154.872V151.227Z" fill="black"/>
<path d="M29.4392 154.916H25.75V158.605H29.4392V154.916Z" fill="black"/>
<path d="M51.5743 154.916H47.8851V158.605H51.5743V154.916Z" fill="black"/>
<path d="M62.6419 154.916H58.9527V158.605H62.6419V154.916Z" fill="black"/>
<path d="M77.3986 154.916H73.7095V158.605H77.3986V154.916Z" fill="black"/>
<path d="M92.1554 154.916H88.4662V158.605H92.1554L92.1554 154.916Z" fill="black"/>
<path d="M103.223 154.916H99.5338V158.605H103.223V154.916Z" fill="black"/>
<path d="M106.912 154.916H103.223V158.605H106.912V154.916Z" fill="black"/>
<path d="M114.291 154.916H110.601V158.605H114.291V154.916Z" fill="black"/>
<path d="M136.426 154.916H132.736V158.605H136.426V154.916Z" fill="black"/>
<path d="M151.182 154.916H147.493V158.605H151.182V154.916Z" fill="black"/>
<path d="M154.872 154.916H151.182V158.605H154.872V154.916Z" fill="black"/>
<path d="M29.4392 158.605H25.75V162.294H29.4392V158.605Z" fill="black"/>
<path d="M33.1284 158.605H29.4392V162.294H33.1284V158.605Z" fill="black"/>
<path d="M36.8176 158.605H33.1284V162.294H36.8176V158.605Z" fill="black"/>
<path d="M40.5068 158.605H36.8176V162.294H40.5068V158.605Z" fill="black"/>
<path d="M44.1959 158.605H40.5068V162.294H44.1959V158.605Z" fill="black"/>
<path d="M47.8851 158.605H44.1959V162.294H47.8851V158.605Z" fill="black"/>
<path d="M51.5743 158.605H47.8851V162.294H51.5743V158.605Z" fill="black"/>
<path d="M58.9527 158.605H55.2635V162.294H58.9527V158.605Z" fill="black"/>
<path d="M62.6419 158.605H58.9527V162.294H62.6419V158.605Z" fill="black"/>
<path d="M66.3311 158.605H62.6419V162.294H66.3311V158.605Z" fill="black"/>
<path d="M73.7095 158.605H70.0203V162.294H73.7095L73.7095 158.605Z" fill="black"/>
<path d="M77.3986 158.605H73.7095L73.7095 162.294H77.3986V158.605Z" fill="black"/>
<path d="M81.0878 158.605H77.3986V162.294H81.0878V158.605Z" fill="black"/>
<path d="M88.4662 158.605H84.777V162.294H88.4662L88.4662 158.605Z" fill="black"/>
<path d="M92.1554 158.605H88.4662L88.4662 162.294H92.1554V158.605Z" fill="black"/>
<path d="M95.8446 158.605H92.1554V162.294H95.8446V158.605Z" fill="black"/>
<path d="M106.912 158.605H103.223V162.294H106.912V158.605Z" fill="black"/>
<path d="M110.601 158.605H106.912V162.294H110.601V158.605Z" fill="black"/>
<path d="M114.291 158.605H110.601V162.294H114.291V158.605Z" fill="black"/>
<path d="M121.669 158.605H117.98V162.294H121.669V158.605Z" fill="black"/>
<path d="M125.358 158.605H121.669V162.294H125.358V158.605Z" fill="black"/>
<path d="M129.047 158.605H125.358V162.294H129.047V158.605Z" fill="black"/>
<path d="M140.115 158.605H136.426V162.294H140.115V158.605Z" fill="black"/>
<path d="M147.493 158.605H143.804V162.294H147.493V158.605Z" fill="black"/>
<path d="M151.182 158.605H147.493V162.294H151.182V158.605Z" fill="black"/>
<path d="M154.872 158.605H151.182V162.294H154.872V158.605Z" fill="black"/>
<path d="M162.25 158.605H158.561V162.294H162.25V158.605Z" fill="black"/>
</g>
</g>
<rect x="8" y="8.04443" width="172" height="172" stroke="#EBEBEB" stroke-width="16"/>
<defs>
<clipPath id="clip0_5602_48276">
<rect x="16" y="16.0444" width="156" height="156" fill="white"/>
</clipPath>
<clipPath id="clip1_5602_48276">
<rect width="156" height="156" fill="white" transform="translate(16 16.0444)"/>
</clipPath>
</defs>
</svg>
