<svg width="334" height="100" viewBox="0 0 334 100" fill="none" xmlns="http://www.w3.org/2000/svg">
<g clip-path="url(#clip0_3604_17066)">
<path d="M9.82728 53.1814C10.7582 55.81 9.38136 58.7046 6.74497 59.6355C4.11641 60.5665 1.22186 59.1896 0.290905 56.5532C-0.640045 53.9246 0.736824 51.0301 3.37321 50.0991C6.00178 49.1682 8.89633 50.5451 9.82728 53.1814Z" fill="#F5CD1E"/>
<path d="M9.27677 60.6107L6.21867 61.9353L43.8553 148.825L46.9134 147.501L9.27677 60.6107Z" fill="#F5CD1E"/>
<path d="M323.878 55.0198C322.971 57.6562 324.371 60.5351 327.008 61.4504C329.644 62.3579 332.523 60.9575 333.438 58.3211C334.346 55.6847 332.945 52.8058 330.309 51.8983C327.673 50.9909 324.794 52.3912 323.878 55.0276V55.0198Z" fill="#F5CD1E"/>
<path d="M324.482 62.4465L287.545 149.636L290.613 150.936L327.551 63.7465L324.482 62.4465Z" fill="#F5CD1E"/>
<path d="M279.842 67.4194C280.108 66.0269 279.897 64.6031 279.208 63.3592C277.205 59.7528 272.66 58.5637 269.109 57.1868C264.094 55.2467 259.048 53.3613 253.9 51.781C245.365 49.1603 236.666 47.0793 227.904 45.4208C218.251 43.5902 208.503 42.2681 198.724 41.3763C188.249 40.4219 177.727 39.9681 167.205 39.9603C156.683 39.9603 146.161 40.4219 135.685 41.3763C125.899 42.2681 116.151 43.5902 106.505 45.4208C97.7355 47.0793 89.0362 49.1603 80.509 51.781C75.3614 53.3613 70.3155 55.2467 65.3009 57.1868C61.7492 58.5637 57.1962 59.7449 55.2013 63.3592C54.5128 64.6031 54.3016 66.0269 54.5676 67.4194L41.1744 30.729C41.0962 30.2988 41.0493 29.8685 41.0493 29.4382C41.0493 28.3039 42.7938 23.8134 53.1829 19.2838C58.6982 16.8743 64.4404 15.0046 70.1982 13.2366C79.7502 10.3029 89.4743 7.97943 99.2923 6.11753C110.096 4.06788 121.001 2.58931 131.946 1.59577C143.673 0.531832 155.447 0.0155029 167.213 0.0155029C178.979 0.0155029 190.76 0.531832 202.479 1.59577C213.424 2.58931 224.329 4.06788 235.133 6.11753C244.943 7.97943 254.675 10.3029 264.227 13.2366C269.985 15.0046 275.782 16.757 281.242 19.2838C290.27 23.4614 293.399 28.3899 293.376 29.5634C293.368 29.9546 293.329 30.3457 293.251 30.7369L279.858 67.4272H279.842V67.4194Z" fill="#E84388" stroke="white" stroke-width="0.782311" stroke-linecap="round" stroke-linejoin="round"/>
<path d="M70.5346 70.6191C70.0183 68.7494 68.5866 67.0987 66.4509 66.3321C64.7611 65.7219 63.4781 65.8079 62.336 66.0974L53.7618 65.2368L45.7197 43.207C45.6649 43.1678 42.3323 44.1379 41.3857 44.4274C30.4411 47.7444 18.9099 51.4212 11.3058 59.9641C12.1038 62.2406 25.9663 94.6126 25.9663 94.6126C25.9663 94.6126 31.3486 89.7467 32.749 88.6358C35.2211 86.6722 37.8418 84.8572 40.7129 83.5194C49.3652 79.4905 61.1938 83.2535 68.704 76.5412C70.5737 74.8671 71.0822 72.6219 70.5268 70.6191H70.5346Z" fill="#E84388" stroke="white" stroke-width="0.782311" stroke-linecap="round" stroke-linejoin="round"/>
<path d="M263.273 72.7157C263.789 70.846 265.221 69.1953 267.356 68.4287C269.046 67.8185 270.329 67.9045 271.471 68.194L280.225 66.3868L288.056 44.9437C288.111 44.9046 289.355 45.3661 292.429 46.5318C303.124 50.5763 314.905 53.5256 322.509 62.0685C321.516 64.3606 307.849 96.717 307.849 96.717C307.849 96.717 302.466 91.851 301.066 90.7402C298.594 88.7766 295.973 86.9616 293.102 85.6239C284.45 81.595 272.621 85.3579 265.111 78.6456C263.241 76.9715 262.733 74.7263 263.288 72.7235H263.273V72.7157Z" fill="#E84388" stroke="white" stroke-width="0.782311" stroke-linecap="round" stroke-linejoin="round"/>
<path d="M279.044 62.663C277.346 60.23 274.413 59.0331 271.62 58.0239L269.093 57.1007C268.123 56.7252 267.153 56.3576 266.183 55.9899L263.054 72.7157C263.57 70.846 265.001 69.1953 267.137 68.4286C272.152 66.6293 273.599 70.846 278.238 68.8276C279.67 68.2017 280.28 67.2082 280.296 66.0426C280.311 64.9943 279.842 63.8208 279.044 62.663Z" fill="#CB0085" stroke="#E84388" stroke-width="0.782311" stroke-miterlimit="10"/>
<path d="M55.4751 62.9289C57.1258 60.5351 59.989 59.3616 62.7115 58.3681L65.1758 57.4606C66.1224 57.0929 67.069 56.733 68.0155 56.3654L70.7536 71.6282C70.253 69.7898 69.1655 69.3282 67.0846 68.5772C62.1952 66.8092 60.787 70.9554 56.2652 68.9684C54.8727 68.3582 54.2782 67.3725 54.2625 66.2303C54.2469 65.2055 54.7006 64.0476 55.4829 62.9133V62.9289H55.4751Z" fill="#CB0085" stroke="#E84388" stroke-width="0.782311" stroke-miterlimit="10"/>
<g opacity="0.1">
<mask id="mask0_3604_17066" style="mask-type:luminance" maskUnits="userSpaceOnUse" x="11" y="-1" width="312" height="98">
<path d="M292.422 46.5317C289.347 45.3661 288.103 44.9124 288.048 44.9437L293.243 30.7212C293.313 30.3301 293.36 29.9389 293.368 29.5478C293.392 28.3743 290.262 23.4536 281.234 19.2682C275.774 16.7335 269.977 14.989 264.219 13.2209C254.667 10.2873 244.943 7.96381 235.125 6.10191C224.321 4.05225 213.416 2.57368 202.471 1.58015C190.745 0.516207 178.971 -0.00012207 167.205 -0.00012207C155.439 -0.00012207 143.657 0.516207 131.938 1.58015C120.994 2.57368 110.088 4.05225 99.2846 6.10191C89.4744 7.96381 79.7424 10.2873 70.1904 13.2209C64.4326 14.989 58.6904 16.8665 53.1751 19.2682C42.786 23.7978 41.0337 28.2961 41.0415 29.4226C41.0415 29.8529 41.0806 30.2831 41.1667 30.7134L45.7275 43.2069C45.5789 43.2069 42.3401 44.1457 41.4014 44.4273C30.4568 47.7443 18.9256 51.4212 11.3215 59.964C12.1194 62.2405 25.982 94.6126 25.982 94.6126C25.982 94.6126 31.3643 89.7466 32.7646 88.6357C35.2367 86.6721 37.8575 84.8572 40.7286 83.5194C49.3809 79.4905 61.2095 83.2534 68.7197 76.5412C70.5894 74.867 71.0979 72.6218 70.5424 70.6191C70.0261 68.7494 68.5945 67.0987 66.4588 66.332C64.769 65.7297 63.486 65.8079 62.3438 66.0973L54.5129 65.315C54.6146 64.6344 54.8415 63.9695 55.1857 63.3514C57.1884 59.745 61.7336 58.5559 65.2853 57.179C70.2999 55.2389 75.3458 53.3535 80.4934 51.7732C89.0284 49.1525 97.7278 47.0715 106.49 45.4131C116.143 43.5824 125.891 42.2603 135.67 41.3685C146.145 40.4141 156.667 39.9603 167.189 39.9525C177.711 39.9525 188.233 40.4141 198.708 41.3685C208.495 42.2603 218.243 43.5824 227.889 45.4131C236.658 47.0715 245.358 49.1525 253.885 51.7732C259.032 53.3535 264.078 55.2389 269.093 57.179C272.645 58.5559 277.198 59.7372 279.193 63.3514C279.725 64.3059 279.959 65.3698 279.928 66.4416L271.448 68.1939C270.306 67.9045 269.03 67.8184 267.333 68.4286C265.197 69.1953 263.765 70.846 263.249 72.7157C262.694 74.7184 263.202 76.9715 265.072 78.6378C272.59 85.35 284.411 81.5793 293.063 85.616C295.934 86.9538 298.555 88.7687 301.027 90.7323C302.427 91.8432 307.81 96.7092 307.81 96.7092C307.81 96.7092 321.477 64.345 322.47 62.0606C314.866 53.5178 303.084 50.5763 292.39 46.5239H292.422V46.5317Z" fill="white"/>
</mask>
<g mask="url(#mask0_3604_17066)">
<rect x="81.6714" y="-172.525" width="7.82311" height="471.38" transform="rotate(45 81.6714 -172.525)" fill="white"/>
<rect x="92.735" y="-161.461" width="7.82311" height="471.38" transform="rotate(45 92.735 -161.461)" fill="white"/>
<rect x="103.799" y="-150.398" width="7.82311" height="471.38" transform="rotate(45 103.799 -150.398)" fill="white"/>
<rect x="114.862" y="-139.334" width="7.82311" height="471.38" transform="rotate(45 114.862 -139.334)" fill="white"/>
<rect x="125.926" y="-128.271" width="7.82311" height="471.38" transform="rotate(45 125.926 -128.271)" fill="white"/>
<rect x="136.989" y="-117.207" width="7.82311" height="471.38" transform="rotate(45 136.989 -117.207)" fill="white"/>
<rect x="148.053" y="-106.143" width="7.82311" height="471.38" transform="rotate(45 148.053 -106.143)" fill="white"/>
<rect x="159.116" y="-95.08" width="7.82311" height="471.38" transform="rotate(45 159.116 -95.08)" fill="white"/>
<rect x="170.18" y="-84.0164" width="7.82311" height="471.38" transform="rotate(45 170.18 -84.0164)" fill="white"/>
<rect x="181.243" y="-72.9529" width="7.82311" height="471.38" transform="rotate(45 181.243 -72.9529)" fill="white"/>
<rect x="192.307" y="-61.8893" width="7.82311" height="471.38" transform="rotate(45 192.307 -61.8893)" fill="white"/>
<rect x="203.37" y="-50.8257" width="7.82311" height="471.38" transform="rotate(45 203.37 -50.8257)" fill="white"/>
<rect x="214.434" y="-39.7622" width="7.82311" height="471.38" transform="rotate(45 214.434 -39.7622)" fill="white"/>
<rect x="225.498" y="-28.6986" width="7.82311" height="471.38" transform="rotate(45 225.498 -28.6986)" fill="white"/>
<rect x="236.561" y="-17.6351" width="7.82311" height="471.38" transform="rotate(45 236.561 -17.6351)" fill="white"/>
<rect x="247.625" y="-6.57153" width="7.82311" height="471.38" transform="rotate(45 247.625 -6.57153)" fill="white"/>
<rect x="413.894" y="-172.525" width="7.82311" height="471.38" transform="rotate(45 413.894 -172.525)" fill="white"/>
<rect x="424.957" y="-161.461" width="7.82311" height="471.38" transform="rotate(45 424.957 -161.461)" fill="white"/>
<rect x="436.021" y="-150.398" width="7.82311" height="471.38" transform="rotate(45 436.021 -150.398)" fill="white"/>
<rect x="447.084" y="-139.334" width="7.82311" height="471.38" transform="rotate(45 447.084 -139.334)" fill="white"/>
<rect x="458.148" y="-128.271" width="7.82311" height="471.38" transform="rotate(45 458.148 -128.271)" fill="white"/>
<rect x="469.211" y="-117.207" width="7.82311" height="471.38" transform="rotate(45 469.211 -117.207)" fill="white"/>
<rect x="480.275" y="-106.143" width="7.82311" height="471.38" transform="rotate(45 480.275 -106.143)" fill="white"/>
<rect x="491.339" y="-95.08" width="7.82311" height="471.38" transform="rotate(45 491.339 -95.08)" fill="white"/>
<rect x="502.402" y="-84.0164" width="7.82311" height="471.38" transform="rotate(45 502.402 -84.0164)" fill="white"/>
<rect x="513.466" y="-72.9529" width="7.82311" height="471.38" transform="rotate(45 513.466 -72.9529)" fill="white"/>
<rect x="524.529" y="-61.8893" width="7.82311" height="471.38" transform="rotate(45 524.529 -61.8893)" fill="white"/>
<rect x="535.593" y="-50.8257" width="7.82311" height="471.38" transform="rotate(45 535.593 -50.8257)" fill="white"/>
<rect x="546.656" y="-39.7622" width="7.82311" height="471.38" transform="rotate(45 546.656 -39.7622)" fill="white"/>
<rect x="557.72" y="-28.6986" width="7.82311" height="471.38" transform="rotate(45 557.72 -28.6986)" fill="white"/>
<rect x="568.783" y="-17.6351" width="7.82311" height="471.38" transform="rotate(45 568.783 -17.6351)" fill="white"/>
<rect x="579.847" y="-6.57153" width="7.82311" height="471.38" transform="rotate(45 579.847 -6.57153)" fill="white"/>
</g>
</g>
<path d="M57.5423 45.7693L53.402 35.4542L55.685 34.5379L59.3778 38.6643C59.8576 39.2152 60.3262 39.8191 60.7977 40.3895L60.8673 40.3616C60.8274 39.6179 60.7346 38.8632 60.7003 38.1335L60.4736 32.6158L62.7566 31.6994L66.8969 42.0145L65.0176 42.7688L63.2911 38.4674C62.9 37.493 62.4776 35.9977 62.1978 34.9786L62.1282 35.0065L62.2652 37.7639L62.416 42.7302L61.2328 43.2051L57.8942 39.5184L56.1007 37.4259L56.045 37.4482C56.5336 38.3836 57.2761 39.7503 57.6672 40.7247L59.3938 45.0262L57.5423 45.7693Z" fill="white"/>
<path d="M71.9786 40.677C69.7354 41.3943 67.4944 40.3943 66.6492 37.7512C65.8223 35.1652 67.1349 32.9659 69.0351 32.3583C71.2354 31.6548 72.8946 32.9037 73.5981 35.104C73.7261 35.504 73.8065 35.9035 73.8088 36.1075L68.8796 37.6837C69.4714 38.9433 70.5479 39.355 71.7338 38.9758C72.391 38.7656 72.8985 38.3828 73.3558 37.8429L74.4813 38.9004C73.8691 39.6945 72.9644 40.3618 71.9786 40.677ZM68.4034 36.2926L71.6609 35.251C71.3182 34.1795 70.6132 33.649 69.5845 33.9779C68.7415 34.2475 68.1905 35.0851 68.4034 36.2926Z" fill="white"/>
<path d="M76.539 39.0169L74.2559 30.9332L75.9881 30.4439L76.4486 31.4673L76.4919 31.4551C77.0035 30.5624 77.6633 29.7526 78.7604 29.4427C80.507 28.9494 81.6001 29.95 82.175 31.9853L83.5979 37.0232L81.4759 37.6226L80.1264 32.8445C79.7717 31.5886 79.3029 31.2534 78.509 31.4777C77.845 31.6652 77.516 32.101 77.0914 32.86L78.661 38.4176L76.539 39.0169Z" fill="white"/>
<path d="M84.6097 30.188L83.4023 27.166L82.8217 25.1621L85.0039 24.6141L85.439 26.6545L85.8027 29.8883L84.6097 30.188Z" fill="white"/>
<path d="M92.6084 35.0552C91.5111 35.3034 90.2022 35.0919 89.2307 34.6041L89.9065 33.0364C90.7671 33.4416 91.5422 33.6047 92.3029 33.4326C93.1223 33.2474 93.4086 32.8135 93.2928 32.3014C93.1539 31.687 92.2424 31.6009 91.3031 31.4596C90.175 31.2994 88.8769 30.9317 88.5659 29.5564C88.2351 28.0934 89.1853 26.7866 91.058 26.3631C92.243 26.0951 93.2773 26.3841 94.0661 26.744L93.3949 28.2645C92.7137 27.9726 92.0803 27.8236 91.4804 27.9593C90.7343 28.128 90.4559 28.5293 90.5618 28.9974C90.6974 29.5973 91.5079 29.6447 92.4439 29.7714C93.6192 29.9362 94.9413 30.2062 95.2854 31.7278C95.6096 33.1616 94.7444 34.5722 92.6084 35.0552Z" fill="white"/>
<path d="M103.739 32.7689C102.633 32.973 101.333 32.7095 100.382 32.1834L101.12 30.6439C101.964 31.0831 102.732 31.2769 103.499 31.1354C104.325 30.983 104.628 30.5609 104.533 30.0446C104.419 29.4251 103.511 29.3027 102.578 29.124C101.458 28.919 100.175 28.4998 99.9194 27.1132C99.6472 25.6381 100.649 24.3703 102.537 24.0218C103.732 23.8013 104.754 24.1314 105.527 24.5224L104.796 26.0149C104.127 25.696 103.5 25.5219 102.895 25.6335C102.143 25.7724 101.849 26.1622 101.936 26.6343C102.048 27.239 102.855 27.3188 103.786 27.4827C104.953 27.6943 106.264 28.0168 106.547 29.5509C106.814 30.9965 105.893 32.3715 103.739 32.7689Z" fill="white"/>
<path d="M110.598 31.5781C109.117 31.8114 107.973 30.9133 107.752 29.5056C107.472 27.7275 108.762 26.5678 112.055 25.685C111.882 24.877 111.428 24.3107 110.406 24.4716C109.636 24.5929 108.948 25.0503 108.248 25.6162L107.236 24.3025C108.118 23.541 109.227 22.8654 110.531 22.6602C112.635 22.3289 113.915 23.4181 114.293 25.8186L115.056 30.6639L113.277 30.9438L112.989 30.0781L112.93 30.0874C112.302 30.8241 111.547 31.4288 110.598 31.5781ZM111.041 29.7622C111.664 29.6642 112.076 29.2955 112.528 28.6929L112.265 27.0186C110.274 27.59 109.681 28.2604 109.798 29.0013C109.901 29.6532 110.404 29.8625 111.041 29.7622Z" fill="white"/>
<path d="M119.189 30.3136C117.673 30.5199 117.002 29.5969 116.792 28.0512L115.495 18.524L117.68 18.2266L118.989 27.843C119.058 28.3483 119.303 28.4815 119.511 28.4531C119.6 28.441 119.66 28.4329 119.804 28.383L120.292 29.9666C120.054 30.105 119.709 30.2428 119.189 30.3136Z" fill="white"/>
<path d="M125.454 29.5388C123.367 29.7769 121.261 28.3867 120.945 25.6147C120.628 22.8427 122.367 21.0138 124.454 20.7757C126.54 20.5376 128.646 21.9277 128.963 24.6997C129.279 27.4717 127.54 29.3007 125.454 29.5388ZM125.25 27.7504C126.382 27.6211 126.907 26.5346 126.727 24.9548C126.549 23.39 125.79 22.4348 124.658 22.5641C123.525 22.6933 123.002 23.7948 123.18 25.3596C123.36 26.9394 124.117 27.8797 125.25 27.7504Z" fill="white"/>
<path d="M131.392 28.6831L130.67 20.3142L132.463 20.1595L132.723 21.2512L132.768 21.2474C133.438 20.4669 134.239 19.7956 135.374 19.6976C137.183 19.5417 138.068 20.73 138.25 22.8372L138.7 28.0528L136.503 28.2423L136.076 23.2956C135.964 21.9955 135.567 21.5781 134.745 21.649C134.057 21.7083 133.652 22.0744 133.092 22.74L133.589 28.4936L131.392 28.6831Z" fill="white"/>
<path d="M145.013 27.6263L144.475 16.5243L148.34 16.337C150.663 16.2245 152.545 16.9592 152.669 19.5062C152.749 21.1693 151.96 22.2437 150.711 22.7999L153.523 27.2139L151.051 27.3337L148.57 23.249L147.027 23.3238L147.23 27.5189L145.013 27.6263ZM146.942 21.5708L148.38 21.5011C149.804 21.4322 150.569 20.7944 150.511 19.6108C150.453 18.4122 149.639 18.0461 148.216 18.1151L146.778 18.1848L146.942 21.5708Z" fill="white"/>
<path d="M155.269 27.1831L154.957 16.0725L157.176 16.0102L157.488 27.1208L155.269 27.1831Z" fill="white"/>
<path d="M163.687 27.2256C162.202 27.239 160.711 26.6674 159.622 25.6422L160.883 24.1008C161.685 24.8286 162.739 25.3141 163.714 25.3053C164.869 25.2949 165.48 24.7944 165.473 24.0144C165.465 23.1894 164.788 22.9405 163.794 22.5295L162.304 21.9129C161.175 21.458 160.041 20.5682 160.027 18.9483C160.011 17.1334 161.588 15.7241 163.838 15.7038C165.128 15.6922 166.422 16.1905 167.331 17.0974L166.218 18.5025C165.508 17.9239 164.77 17.6005 163.855 17.6087C162.88 17.6175 162.269 18.058 162.276 18.793C162.283 19.588 163.065 19.8659 164.014 20.2324L165.474 20.8343C166.829 21.3771 167.722 22.2241 167.736 23.829C167.753 25.6439 166.252 27.2025 163.687 27.2256Z" fill="white"/>
<path d="M170.097 26.9972L170.277 15.8836L177.086 15.9938L177.056 17.8535L172.466 17.7793L172.425 20.3439L176.324 20.407L176.294 22.2668L172.395 22.2037L172.347 25.1733L177.101 25.2502L177.071 27.11L170.097 26.9972Z" fill="white"/>
<path d="M185.537 27.4412L186.015 18.1986L182.899 18.0375L182.995 16.1799L191.474 16.6183L191.378 18.4759L188.232 18.3132L187.754 27.5559L185.537 27.4412Z" fill="white"/>
<path d="M197.16 28.4018C194.229 28.1659 192.388 25.8056 192.677 22.2172C192.967 18.6138 195.154 16.6831 198.084 16.919C201.015 17.1549 202.863 19.4255 202.575 23.0139C202.286 26.6023 200.09 28.6377 197.16 28.4018ZM197.314 26.488C198.959 26.6204 200.127 25.1946 200.317 22.8322C200.508 20.4549 199.576 18.9502 197.931 18.8178C196.287 18.6854 195.126 20.0216 194.934 22.3989C194.744 24.7613 195.669 26.3556 197.314 26.488Z" fill="white"/>
<path d="M204.373 28.8223L205.612 17.7765L207.818 18.0238L207.28 22.8237L207.324 22.8287L211.515 18.4382L213.944 18.7106L210.088 22.6857L213.302 29.8233L210.888 29.5526L208.582 24.2678L206.927 25.969L206.58 29.0696L204.373 28.8223Z" fill="white"/>
<path d="M216.551 30.2924L217.12 26.2675L214.811 18.8204L217.143 19.1504L217.861 21.9942C218.058 22.8552 218.245 23.6695 218.467 24.5645L218.527 24.5729C218.988 23.7746 219.424 23.0486 219.852 22.2759L221.331 19.7432L223.618 20.0669L219.318 26.5786L218.749 30.6035L216.551 30.2924Z" fill="white"/>
<path d="M227.354 32.1885C224.457 31.6843 222.84 29.1647 223.458 25.618C224.078 22.0565 226.433 20.3349 229.329 20.8391C232.226 21.3433 233.858 23.7743 233.241 27.321C232.623 30.8676 230.25 32.6927 227.354 32.1885ZM227.683 30.2969C229.309 30.5799 230.603 29.2674 231.009 26.9325C231.418 24.5829 230.628 22.9989 229.003 22.7159C227.377 22.4329 226.098 23.6568 225.689 26.0064C225.283 28.3413 226.057 30.0139 227.683 30.2969Z" fill="white"/>
<path d="M242.728 26.9645L244.159 27.3007L244.976 23.8254L246.611 24.2096L245.794 27.685L247.036 27.9766L248.137 23.2893L249.845 23.6907L249.434 25.443L252.486 26.16L252.115 27.7371L249.063 27.02L248.744 28.3781L252.366 29.2289L251.981 30.8644L250.141 30.4321L251.44 31.7235C250.347 32.3757 249.112 33.0409 248.172 33.4363L247.111 32.2471C248.011 31.8268 249.226 31.0491 249.995 30.3978L242.344 28.6L242.728 26.9645ZM242.801 29.8014L244.317 29.1868C244.958 30 245.72 31.1498 246 31.9245L244.384 32.6387C244.148 31.8744 243.443 30.6764 242.801 29.8014ZM243.87 23.8738L242.526 25.0681C242.121 24.4335 241.14 23.4942 240.312 22.8838L241.563 21.8218C242.375 22.3669 243.399 23.2547 243.87 23.8738ZM242.154 27.5694L240.822 28.7817C240.384 28.1548 239.381 27.2413 238.554 26.6309L239.779 25.5474C240.609 26.0814 241.687 26.9356 242.154 27.5694ZM241.014 29.7359L242.074 31.1252C240.98 32.5015 239.724 33.9784 238.57 35.2173L237.305 33.7799C238.296 32.8417 239.78 31.2488 241.014 29.7359ZM241.536 36.0374L240.921 34.2597C242.013 34.0077 243.705 33.4961 245.335 32.9854L245.533 34.6344C244.212 35.1407 242.735 35.6566 241.536 36.0374ZM246.262 34.4822L247.708 33.5739C248.711 34.4874 250.056 35.9127 250.64 36.8359L249.062 37.9134C248.554 36.9929 247.285 35.5082 246.262 34.4822Z" fill="white"/>
<path d="M266.002 32.0994L264.246 32.6885C263.794 31.4742 262.595 29.5059 261.547 28.0833L263.158 27.5606C264.18 28.9129 265.472 30.8306 266.002 32.0994ZM258.032 26.1151L259.549 27.2233C258.112 28.4237 256.115 29.4574 254.494 29.9614C254.291 29.5409 253.784 28.7175 253.482 28.3145C255.07 27.9729 256.855 27.1266 258.032 26.1151ZM255.672 33.3161L261.668 35.0986C260.732 33.7719 259.95 32.3501 259.53 31.1299C258.541 31.9312 257.185 32.7018 255.672 33.3161ZM255.095 37.4166L259.839 38.8272L260.566 36.3829L255.821 34.9723L255.095 37.4166ZM259.097 29.2172L260.808 29.7259C261.672 32.3458 263.417 34.8989 265.378 36.5146C264.833 36.822 264.282 37.253 263.826 37.6808C263.404 37.258 262.991 36.8065 262.59 36.3118L261.086 41.3729L259.245 40.8257L259.399 40.3081L254.654 38.8975L254.496 39.4295L252.756 38.9123L254.27 33.8225C253.678 34.0222 253.085 34.1745 252.482 34.3082C252.386 33.8415 252.091 33.0966 251.853 32.6345C254.595 32.1507 257.507 30.6694 259.097 29.2172Z" fill="white"/>
<path d="M274.374 43.8186L275.103 41.9134L270.13 40.0099L269.401 41.9151L274.374 43.8186ZM275.483 35.4253L274.979 36.7421L279.349 38.415L278.786 39.886L274.416 38.2131L273.831 39.74L277.375 41.0966L275.332 46.434L273.623 45.7799L273.816 45.2755L268.843 43.3721L268.645 43.8904L267.02 43.2684L269.068 37.917L272.136 39.0913L273.787 34.7765L275.483 35.4253ZM275.623 33.423L280.722 35.3748L280.116 36.9578L269.959 33.0704L269.214 35.0176C268.351 37.2731 266.816 40.6529 264.719 42.3557C264.518 41.9576 263.958 41.1971 263.635 40.8648C265.551 39.3012 266.775 36.3969 267.547 34.3796L268.898 30.8493L273.885 32.7582L274.502 31.1471L276.239 31.812L275.623 33.423Z" fill="white"/>
</g>
<defs>
<clipPath id="clip0_3604_17066">
<rect width="334" height="100" fill="white"/>
</clipPath>
</defs>
</svg>
