<svg width="334" height="100" viewBox="0 0 334 100" fill="none" xmlns="http://www.w3.org/2000/svg">
<g clip-path="url(#clip0_1303_7968)">
<path d="M9.82728 53.1815C10.7582 55.8101 9.38136 58.7046 6.74497 59.6356C4.11641 60.5665 1.22186 59.1896 0.290905 56.5533C-0.640045 53.9247 0.736824 51.0301 3.37321 50.0992C6.00178 49.1682 8.89633 50.5451 9.82728 53.1815Z" fill="#F5CD1E"/>
<path d="M9.27678 60.6108L6.21869 61.9354L43.8553 148.825L46.9134 147.501L9.27678 60.6108Z" fill="#F5CD1E"/>
<path d="M323.878 55.02C322.971 57.6563 324.371 60.5353 327.008 61.4506C329.644 62.358 332.523 60.9577 333.438 58.3213C334.346 55.6849 332.945 52.806 330.309 51.8985C327.673 50.991 324.794 52.3914 323.878 55.0278V55.02Z" fill="#F5CD1E"/>
<path d="M324.482 62.4465L287.545 149.636L290.613 150.936L327.551 63.7466L324.482 62.4465Z" fill="#F5CD1E"/>
<path d="M279.842 67.4196C280.108 66.0271 279.897 64.6033 279.208 63.3594C277.206 59.7529 272.66 58.5638 269.109 57.187C264.094 55.2468 259.048 53.3615 253.901 51.7812C245.366 49.1605 236.666 47.0795 227.904 45.421C218.251 43.5904 208.503 42.2683 198.724 41.3765C188.249 40.4221 177.727 39.9683 167.205 39.9605C156.683 39.9605 146.161 40.4221 135.686 41.3765C125.899 42.2683 116.151 43.5904 106.505 45.421C97.7356 47.0795 89.0363 49.1605 80.5091 51.7812C75.3615 53.3615 70.3156 55.2468 65.301 57.187C61.7493 58.5638 57.1962 59.7451 55.2013 63.3594C54.5129 64.6033 54.3017 66.0271 54.5677 67.4196L41.1745 30.7292C41.0963 30.2989 41.0493 29.8687 41.0493 29.4384C41.0493 28.3041 42.7939 23.8136 53.183 19.284C58.6983 16.8745 64.4404 15.0048 70.1982 13.2367C79.7502 10.3031 89.4744 7.97962 99.2924 6.11771C110.096 4.06806 121.002 2.58949 131.946 1.59596C143.673 0.532015 155.447 0.015686 167.213 0.015686C178.979 0.015686 190.76 0.532015 202.479 1.59596C213.424 2.58949 224.329 4.06806 235.133 6.11771C244.943 7.97962 254.675 10.3031 264.227 13.2367C269.985 15.0048 275.782 16.7571 281.242 19.284C290.27 23.4616 293.399 28.3901 293.376 29.5636C293.368 29.9547 293.329 30.3459 293.251 30.737L279.858 67.4274H279.842V67.4196Z" fill="#E84388" stroke="white" stroke-width="0.782311" stroke-linecap="round" stroke-linejoin="round"/>
<path d="M70.5346 70.6192C70.0183 68.7495 68.5867 67.0988 66.451 66.3321C64.7612 65.7219 63.4782 65.808 62.336 66.0974L53.7619 65.2369L45.7197 43.207C45.6649 43.1679 42.3323 44.138 41.3857 44.4274C30.4412 47.7444 18.9099 51.4213 11.3058 59.9641C12.1038 62.2406 25.9663 94.6127 25.9663 94.6127C25.9663 94.6127 31.3486 89.7467 32.749 88.6358C35.2211 86.6722 37.8418 84.8573 40.7129 83.5195C49.3653 79.4906 61.1938 83.2535 68.704 76.5413C70.5737 74.8671 71.0822 72.6219 70.5268 70.6192H70.5346Z" fill="#E84388" stroke="white" stroke-width="0.782311" stroke-linecap="round" stroke-linejoin="round"/>
<path d="M263.273 72.7159C263.789 70.8461 265.22 69.1954 267.356 68.4288C269.046 67.8186 270.329 67.9046 271.471 68.1941L280.225 66.387L288.056 44.9438C288.111 44.9047 289.355 45.3663 292.429 46.5319C303.123 50.5764 314.905 53.5257 322.509 62.0686C321.516 64.3608 307.849 96.7171 307.849 96.7171C307.849 96.7171 302.466 91.8512 301.066 90.7403C298.594 88.7767 295.973 86.9617 293.102 85.624C284.45 81.5951 272.621 85.358 265.111 78.6458C263.241 76.9716 262.733 74.7264 263.288 72.7237H263.273V72.7159Z" fill="#E84388" stroke="white" stroke-width="0.782311" stroke-linecap="round" stroke-linejoin="round"/>
<path d="M279.044 62.6631C277.346 60.2301 274.413 59.0332 271.62 58.024L269.093 57.1009C268.123 56.7253 267.153 56.3577 266.183 55.99L263.054 72.7158C263.57 70.8461 265.002 69.1954 267.137 68.4287C272.152 66.6294 273.599 70.8461 278.238 68.8277C279.67 68.2019 280.28 67.2083 280.296 66.0427C280.311 64.9944 279.842 63.8209 279.044 62.6631Z" fill="#CB0085" stroke="#E84388" stroke-width="0.782311" stroke-miterlimit="10"/>
<path d="M55.4751 62.9291C57.1258 60.5352 59.9891 59.3618 62.7115 58.3683L65.1758 57.4608C66.1224 57.0931 67.069 56.7332 68.0156 56.3655L70.7537 71.6284C70.253 69.79 69.1656 69.3284 67.0846 68.5774C62.1952 66.8094 60.787 70.9556 56.2653 68.9686C54.8728 68.3584 54.2782 67.3726 54.2625 66.2305C54.2469 65.2056 54.7006 64.0478 55.483 62.9135V62.9291H55.4751Z" fill="#CB0085" stroke="#E84388" stroke-width="0.782311" stroke-miterlimit="10"/>
<g opacity="0.1">
<mask id="mask0_1303_7968" style="mask-type:luminance" maskUnits="userSpaceOnUse" x="11" y="0" width="312" height="97">
<path d="M292.421 46.5319C289.347 45.3662 288.103 44.9125 288.048 44.9438L293.243 30.7214C293.313 30.3302 293.36 29.9391 293.368 29.5479C293.392 28.3744 290.262 23.4537 281.234 19.2683C275.774 16.7336 269.977 14.9891 264.219 13.2211C254.667 10.2874 244.943 7.96393 235.125 6.10203C224.321 4.05237 213.416 2.57381 202.471 1.58027C190.745 0.516329 178.971 0 167.205 0C155.439 0 143.657 0.516329 131.938 1.58027C120.994 2.57381 110.088 4.05237 99.2845 6.10203C89.4744 7.96393 79.7424 10.2874 70.1904 13.2211C64.4326 14.9891 58.6904 16.8666 53.1751 19.2683C42.786 23.7979 41.0337 28.2962 41.0415 29.4227C41.0415 29.853 41.0806 30.2833 41.1666 30.7135L45.7275 43.207C45.5789 43.207 42.3401 44.1458 41.4013 44.4275C30.4568 47.7445 18.9255 51.4213 11.3215 59.9641C12.1194 62.2407 25.982 94.6127 25.982 94.6127C25.982 94.6127 31.3643 89.7467 32.7646 88.6359C35.2367 86.6723 37.8575 84.8573 40.7286 83.5195C49.3809 79.4906 61.2095 83.2535 68.7196 76.5413C70.5894 74.8672 71.0979 72.622 70.5424 70.6192C70.0261 68.7495 68.5945 67.0988 66.4588 66.3322C64.769 65.7298 63.486 65.808 62.3438 66.0975L54.5129 65.3151C54.6146 64.6345 54.8414 63.9696 55.1857 63.3516C57.1884 59.7451 61.7336 58.556 65.2853 57.1791C70.2999 55.239 75.3458 53.3536 80.4934 51.7733C89.0284 49.1526 97.7277 47.0717 106.49 45.4132C116.143 43.5826 125.891 42.2604 135.67 41.3686C146.145 40.4142 156.667 39.9605 167.189 39.9526C177.711 39.9526 188.233 40.4142 198.708 41.3686C208.495 42.2604 218.243 43.5826 227.889 45.4132C236.658 47.0717 245.358 49.1526 253.885 51.7733C259.032 53.3536 264.078 55.239 269.093 57.1791C272.645 58.556 277.198 59.7373 279.193 63.3516C279.725 64.306 279.959 65.3699 279.928 66.4417L271.448 68.1941C270.306 67.9046 269.03 67.8185 267.333 68.4288C265.197 69.1954 263.765 70.8461 263.249 72.7158C262.694 74.7185 263.202 76.9716 265.072 78.6379C272.59 85.3502 284.411 81.5794 293.063 85.6161C295.934 86.9539 298.555 88.7688 301.027 90.7324C302.427 91.8433 307.81 96.7093 307.81 96.7093C307.81 96.7093 321.477 64.3451 322.47 62.0608C314.866 53.5179 303.084 50.5764 292.39 46.524H292.421V46.5319Z" fill="white"/>
</mask>
<g mask="url(#mask0_1303_7968)">
<rect x="81.6714" y="-172.525" width="7.82311" height="471.38" transform="rotate(45 81.6714 -172.525)" fill="white"/>
<rect x="92.735" y="-161.461" width="7.82311" height="471.38" transform="rotate(45 92.735 -161.461)" fill="white"/>
<rect x="103.799" y="-150.398" width="7.82311" height="471.38" transform="rotate(45 103.799 -150.398)" fill="white"/>
<rect x="114.862" y="-139.334" width="7.82311" height="471.38" transform="rotate(45 114.862 -139.334)" fill="white"/>
<rect x="125.926" y="-128.271" width="7.82311" height="471.38" transform="rotate(45 125.926 -128.271)" fill="white"/>
<rect x="136.989" y="-117.207" width="7.82311" height="471.38" transform="rotate(45 136.989 -117.207)" fill="white"/>
<rect x="148.053" y="-106.143" width="7.82311" height="471.38" transform="rotate(45 148.053 -106.143)" fill="white"/>
<rect x="159.116" y="-95.0798" width="7.82311" height="471.38" transform="rotate(45 159.116 -95.0798)" fill="white"/>
<rect x="170.18" y="-84.0163" width="7.82311" height="471.38" transform="rotate(45 170.18 -84.0163)" fill="white"/>
<rect x="181.243" y="-72.9528" width="7.82311" height="471.38" transform="rotate(45 181.243 -72.9528)" fill="white"/>
<rect x="192.307" y="-61.8892" width="7.82311" height="471.38" transform="rotate(45 192.307 -61.8892)" fill="white"/>
<rect x="203.37" y="-50.8256" width="7.82311" height="471.38" transform="rotate(45 203.37 -50.8256)" fill="white"/>
<rect x="214.434" y="-39.7621" width="7.82311" height="471.38" transform="rotate(45 214.434 -39.7621)" fill="white"/>
<rect x="225.498" y="-28.6985" width="7.82311" height="471.38" transform="rotate(45 225.498 -28.6985)" fill="white"/>
<rect x="236.561" y="-17.635" width="7.82311" height="471.38" transform="rotate(45 236.561 -17.635)" fill="white"/>
<rect x="247.625" y="-6.57141" width="7.82311" height="471.38" transform="rotate(45 247.625 -6.57141)" fill="white"/>
<rect x="413.894" y="-172.525" width="7.82311" height="471.38" transform="rotate(45 413.894 -172.525)" fill="white"/>
<rect x="424.957" y="-161.461" width="7.82311" height="471.38" transform="rotate(45 424.957 -161.461)" fill="white"/>
<rect x="436.021" y="-150.398" width="7.82311" height="471.38" transform="rotate(45 436.021 -150.398)" fill="white"/>
<rect x="447.084" y="-139.334" width="7.82311" height="471.38" transform="rotate(45 447.084 -139.334)" fill="white"/>
<rect x="458.148" y="-128.271" width="7.82311" height="471.38" transform="rotate(45 458.148 -128.271)" fill="white"/>
<rect x="469.211" y="-117.207" width="7.82311" height="471.38" transform="rotate(45 469.211 -117.207)" fill="white"/>
<rect x="480.275" y="-106.143" width="7.82311" height="471.38" transform="rotate(45 480.275 -106.143)" fill="white"/>
<rect x="491.338" y="-95.0798" width="7.82311" height="471.38" transform="rotate(45 491.338 -95.0798)" fill="white"/>
<rect x="502.402" y="-84.0163" width="7.82311" height="471.38" transform="rotate(45 502.402 -84.0163)" fill="white"/>
<rect x="513.465" y="-72.9528" width="7.82311" height="471.38" transform="rotate(45 513.465 -72.9528)" fill="white"/>
<rect x="524.529" y="-61.8892" width="7.82311" height="471.38" transform="rotate(45 524.529 -61.8892)" fill="white"/>
<rect x="535.593" y="-50.8256" width="7.82311" height="471.38" transform="rotate(45 535.593 -50.8256)" fill="white"/>
<rect x="546.656" y="-39.7621" width="7.82311" height="471.38" transform="rotate(45 546.656 -39.7621)" fill="white"/>
<rect x="557.72" y="-28.6985" width="7.82311" height="471.38" transform="rotate(45 557.72 -28.6985)" fill="white"/>
<rect x="568.783" y="-17.635" width="7.82311" height="471.38" transform="rotate(45 568.783 -17.635)" fill="white"/>
<rect x="579.847" y="-6.57141" width="7.82311" height="471.38" transform="rotate(45 579.847 -6.57141)" fill="white"/>
</g>
</g>
<path d="M112.705 26.1507L115.83 25.6287L115.199 24.2559C114.562 22.957 113.955 21.5072 113.327 20.1522L113.256 20.164C113.159 21.6585 113.018 23.215 112.856 24.6473L112.705 26.1507ZM118.226 30.7946L116.739 27.5755L112.478 28.2873L112.118 31.8148L109.455 32.2596L111.468 18.4188L114.558 17.9027L120.978 30.3349L118.226 30.7946Z" fill="white"/>
<path d="M128.74 29.4424C125.4 29.8565 122.388 27.7993 121.841 23.3871C121.301 19.0284 123.789 16.1264 127.129 15.7123C128.808 15.5042 130.248 16.142 131.216 16.9289L130.031 18.7807C129.29 18.2196 128.464 17.8503 127.464 17.9743C125.463 18.2223 124.175 20.1232 124.527 22.9634C124.884 25.8394 126.456 27.4039 128.546 27.1448C129.672 27.0054 130.498 26.3588 131.118 25.5021L132.715 26.9728C131.782 28.3762 130.455 29.2299 128.74 29.4424Z" fill="white"/>
<path d="M138.511 28.2556L137.57 17.1895L133.84 17.5068L133.652 15.3008L143.803 14.4374L143.991 16.6434L140.224 16.9637L141.166 28.0298L138.511 28.2556Z" fill="white"/>
<path d="M165.917 20.4144L167.725 21.7117C166.607 22.5435 165.309 23.3967 164.205 24.0301C165.289 25.1794 166.692 26.0345 168.483 26.504C168.024 26.9629 167.429 27.8386 167.134 28.4384C163.312 27.2159 161.28 24.5186 160.015 20.5463C159.343 21.2074 158.545 21.8349 157.692 22.4095L157.757 25.7569C159.029 25.4622 160.374 25.1482 161.664 24.8353L161.899 26.7751C159.087 27.4955 156.075 28.1838 153.853 28.7127L153.185 26.7453C153.885 26.6057 154.727 26.4274 155.624 26.2301L155.574 23.6566C154.594 24.1616 153.593 24.577 152.609 24.902C152.294 24.422 151.667 23.624 151.208 23.2008C153.339 22.6015 155.623 21.5312 157.292 20.3288L151.821 20.4344L151.786 18.6168L158.643 18.4844L158.623 17.4766L153.278 17.5798L153.245 15.8701L158.59 15.7669L158.573 14.8491L152.382 14.9686L152.347 13.1509L158.537 13.0314L158.515 11.8436L160.656 11.8023L160.679 12.9901L167.014 12.8678L167.049 14.6855L160.714 14.8077L160.732 15.7256L166.365 15.6168L166.398 17.3265L160.765 17.4353L160.784 18.4431L167.695 18.3097L167.73 20.1273L162.007 20.2378C162.312 21.1141 162.669 21.8993 163.134 22.6285C164.129 21.9432 165.193 21.1125 165.917 20.4144Z" fill="white"/>
<path d="M182.982 24.1853L184.834 25.1107C182.396 27.3853 178.376 28.2775 173.803 28.6417C173.628 28.0938 173.263 27.3397 172.888 26.8553C177.075 26.6728 180.997 25.9566 182.982 24.1853ZM180.922 22.2061L182.578 23.0871C180.756 24.415 177.928 25.2497 175.279 25.6957C175.065 25.2182 174.625 24.5509 174.21 24.137C176.601 23.8421 179.458 23.1708 180.922 22.2061ZM187.27 19.9354L183.368 19.7696C184.468 21.0234 185.968 22.1682 187.525 22.8468C187.041 23.2226 186.414 23.9707 186.068 24.4785C184.078 23.4211 182.208 21.6301 180.958 19.6673L177.307 19.5122C176.792 20.193 176.242 20.8362 175.623 21.4045C177.006 21.1028 178.484 20.6612 179.352 20.1576L180.973 21.0191C179.528 21.9487 177.393 22.5786 175.614 22.8994C175.426 22.6572 175.17 22.3221 174.912 22.0408C173.942 22.8284 172.869 23.4854 171.711 24.0128C171.425 23.5502 170.668 22.6893 170.217 22.2918C171.974 21.6458 173.493 20.6654 174.7 19.4015L170.995 19.2441L171.071 17.4457L176.053 17.6573C176.266 17.306 176.463 16.918 176.659 16.53C174.894 16.5271 173.291 16.5131 171.941 16.4917L171.788 14.5755C172.688 14.5957 173.732 14.6221 174.865 14.6522C175.514 13.797 176.172 12.7439 176.586 11.8967L178.916 12.5903C178.382 13.2882 177.792 14.0379 177.224 14.6983C178.826 14.7124 180.518 14.7482 182.211 14.7661C181.796 14.3701 181.378 14.01 180.978 13.6867L182.71 12.7694C184.139 13.9111 185.995 15.5934 186.882 16.7661L185.002 17.7852C184.747 17.4141 184.404 17.0031 183.991 16.5532C182.333 16.5548 180.622 16.5542 179.001 16.5394C178.821 16.9642 178.623 17.3701 178.409 17.7574L187.347 18.137L187.27 19.9354Z" fill="white"/>
<path d="M202.427 20.8199L202.521 19.8886L197.918 19.4256L197.824 20.3569L202.427 20.8199ZM202.193 23.1481L202.286 22.2168L197.684 21.7539L197.59 22.6852L202.193 23.1481ZM201.955 25.5122L202.05 24.563L197.448 24.1L197.352 25.0492L201.955 25.5122ZM196.067 17.6836L198.843 17.9628C198.947 17.6477 199.033 17.3307 199.119 17.0137L194.785 16.5778L194.958 14.8585L197.448 15.1089C197.276 14.6574 197.02 14.1432 196.753 13.7365L198.5 13.279C198.929 13.8649 199.353 14.6855 199.48 15.2229L199.256 15.2908L201.495 15.516C201.893 14.9771 202.368 14.2108 202.639 13.6772L204.707 14.3375C204.331 14.8424 203.956 15.3293 203.608 15.7286L206.367 16.006L206.194 17.7253L201.412 17.2443C201.234 17.5702 201.041 17.8763 200.867 18.1664L204.789 18.5609L203.913 27.265L195.191 26.3877L196.067 17.6836ZM194.66 16.0225L192.834 17.268C192.366 16.3525 191.213 15.0426 190.235 14.1483L191.941 13.0173C192.94 13.8776 194.136 15.1195 194.66 16.0225ZM193.827 19.8101L193.261 25.4337C193.875 26.7075 195.169 27.3262 197.025 27.5852C199.111 27.8855 203.146 28.2371 205.546 28.2976C205.263 28.7756 204.836 29.782 204.667 30.3801C202.507 30.2714 198.904 29.9451 196.782 29.6412C194.588 29.3301 193.17 28.6809 192.146 27.1668C191.288 27.7861 190.43 28.4053 189.369 29.0584L188.554 26.7331C189.369 26.3628 190.324 25.8619 191.173 25.3322L191.553 21.5533L189.493 21.3461L189.69 19.394L193.827 19.8101Z" fill="white"/>
<path d="M219.825 30.6956L220.219 28.2795L213.912 27.2508L213.518 29.6669L219.825 30.6956ZM219.088 20.5629L218.816 22.2328L224.359 23.1369L224.054 25.0022L218.512 24.0982L218.196 26.0346L222.69 26.7677L221.586 33.5362L219.419 33.1827L219.523 32.5432L213.217 31.5145L213.109 32.1718L211.049 31.8357L212.156 25.0494L216.046 25.6839L216.939 20.2123L219.088 20.5629ZM218.766 18.1759L225.233 19.2307L224.905 21.2381L212.026 19.1373L211.623 21.6067C211.156 24.4669 210.174 28.8114 208.123 31.322C207.79 30.903 206.947 30.1454 206.488 29.8333C208.359 27.5305 209.092 23.8201 209.509 21.2619L210.239 16.785L216.563 17.8166L216.897 15.7736L219.1 16.1329L218.766 18.1759Z" fill="white"/>
</g>
<defs>
<clipPath id="clip0_1303_7968">
<rect width="334" height="100" fill="white"/>
</clipPath>
</defs>
</svg>
