<svg width="334" height="101" viewBox="0 0 334 101" fill="none" xmlns="http://www.w3.org/2000/svg">
<g clip-path="url(#clip0_3604_16326)">
<path d="M9.82728 53.8482C10.7582 56.4768 9.38136 59.3713 6.74497 60.3023C4.11641 61.2332 1.22186 59.8563 0.290905 57.2199C-0.640045 54.5914 0.736824 51.6968 3.37321 50.7659C6.00178 49.8349 8.89633 51.2118 9.82728 53.8482Z" fill="#F5CD1E"/>
<path d="M9.27675 61.2774L6.21866 62.6021L43.8553 149.492L46.9134 148.167L9.27675 61.2774Z" fill="#F5CD1E"/>
<path d="M323.878 55.6865C322.971 58.3229 324.371 61.2018 327.008 62.1171C329.644 63.0246 332.523 61.6243 333.438 58.9879C334.346 56.3515 332.945 53.4726 330.309 52.5651C327.672 51.6576 324.794 53.0579 323.878 55.6943V55.6865Z" fill="#F5CD1E"/>
<path d="M324.482 63.1131L287.545 150.302L290.613 151.602L327.551 64.4131L324.482 63.1131Z" fill="#F5CD1E"/>
<path d="M279.842 68.0862C280.108 66.6936 279.897 65.2698 279.208 64.026C277.206 60.4195 272.66 59.2304 269.109 57.8535C264.094 55.9134 259.048 54.028 253.901 52.4478C245.366 49.827 236.666 47.7461 227.904 46.0876C218.251 44.257 208.503 42.9349 198.724 42.043C188.249 41.0886 177.727 40.6349 167.205 40.6271C156.683 40.6271 146.161 41.0886 135.686 42.043C125.899 42.9349 116.151 44.257 106.505 46.0876C97.7356 47.7461 89.0363 49.827 80.5091 52.4478C75.3615 54.028 70.3156 55.9134 65.301 57.8535C61.7493 59.2304 57.1962 60.4117 55.2013 64.026C54.5129 65.2698 54.3017 66.6936 54.5677 68.0862L41.1745 31.3958C41.0963 30.9655 41.0493 30.5352 41.0493 30.105C41.0493 28.9706 42.7939 24.4802 53.183 19.9506C58.6983 17.5411 64.4404 15.6713 70.1982 13.9033C79.7502 10.9696 89.4744 8.64618 99.2924 6.78428C110.096 4.73462 121.002 3.25606 131.946 2.26252C143.673 1.19858 155.447 0.682251 167.213 0.682251C178.979 0.682251 190.76 1.19858 202.479 2.26252C213.424 3.25606 224.329 4.73462 235.133 6.78428C244.943 8.64618 254.675 10.9696 264.227 13.9033C269.985 15.6713 275.782 17.4237 281.242 19.9506C290.27 24.1281 293.399 29.0567 293.376 30.2301C293.368 30.6213 293.329 31.0125 293.251 31.4036L279.858 68.094H279.842V68.0862Z" fill="#E84388" stroke="white" stroke-width="0.782311" stroke-linecap="round" stroke-linejoin="round"/>
<path d="M70.5346 71.2859C70.0183 69.4162 68.5867 67.7655 66.451 66.9988C64.7612 66.3886 63.4782 66.4747 62.336 66.7641L53.7619 65.9036L45.7197 43.8737C45.6649 43.8346 42.3323 44.8047 41.3857 45.0941C30.4412 48.4111 18.9099 52.088 11.3058 60.6308C12.1038 62.9073 25.9663 95.2794 25.9663 95.2794C25.9663 95.2794 31.3486 90.4134 32.749 89.3025C35.2211 87.3389 37.8418 85.5239 40.7129 84.1862C49.3653 80.1573 61.1938 83.9202 68.704 77.208C70.5737 75.5338 71.0822 73.2886 70.5268 71.2859H70.5346Z" fill="#E84388" stroke="white" stroke-width="0.782311" stroke-linecap="round" stroke-linejoin="round"/>
<path d="M263.273 73.3825C263.789 71.5128 265.221 69.8621 267.356 69.0954C269.046 68.4852 270.329 68.5713 271.471 68.8607L280.225 67.0536L288.056 45.6104C288.111 45.5713 289.355 46.0329 292.429 47.1985C303.124 51.2431 314.905 54.1924 322.509 62.7352C321.516 65.0274 307.849 97.3838 307.849 97.3838C307.849 97.3838 302.466 92.5178 301.066 91.4069C298.594 89.4433 295.973 87.6284 293.102 86.2906C284.45 82.2617 272.621 86.0246 265.111 79.3124C263.241 77.6382 262.733 75.393 263.288 73.3903H263.273V73.3825Z" fill="#E84388" stroke="white" stroke-width="0.782311" stroke-linecap="round" stroke-linejoin="round"/>
<path d="M279.044 63.3297C277.346 60.8967 274.413 59.6998 271.62 58.6906L269.093 57.7675C268.123 57.392 267.153 57.0243 266.183 56.6566L263.054 73.3824C263.57 71.5127 265.001 69.862 267.137 69.0954C272.152 67.296 273.599 71.5127 278.238 69.4943C279.67 68.8685 280.28 67.875 280.296 66.7093C280.311 65.661 279.842 64.4875 279.044 63.3297Z" fill="#CB0085" stroke="#E84388" stroke-width="0.782311" stroke-miterlimit="10"/>
<path d="M55.4751 63.5957C57.1258 61.2018 59.9891 60.0284 62.7115 59.0348L65.1758 58.1273C66.1224 57.7596 67.069 57.3998 68.0156 57.0321L70.7537 72.295C70.253 70.4565 69.1656 69.995 67.0846 69.244C62.1952 67.4759 60.787 71.6222 56.2653 69.6351C54.8728 69.0249 54.2782 68.0392 54.2625 66.897C54.2469 65.8722 54.7006 64.7144 55.483 63.58V63.5957H55.4751Z" fill="#CB0085" stroke="#E84388" stroke-width="0.782311" stroke-miterlimit="10"/>
<g opacity="0.1">
<mask id="mask0_3604_16326" style="mask-type:luminance" maskUnits="userSpaceOnUse" x="11" y="0" width="312" height="98">
<path d="M292.422 47.1985C289.347 46.0329 288.103 45.5791 288.048 45.6104L293.243 31.388C293.313 30.9968 293.36 30.6057 293.368 30.2145C293.392 29.0411 290.262 24.1203 281.234 19.935C275.774 17.4003 269.977 15.6557 264.219 13.8877C254.667 10.954 244.943 8.63056 235.125 6.76865C224.321 4.719 213.416 3.24043 202.471 2.2469C190.745 1.18295 178.971 0.666626 167.205 0.666626C155.439 0.666626 143.657 1.18295 131.938 2.2469C120.994 3.24043 110.088 4.719 99.2846 6.76865C89.4744 8.63056 79.7424 10.954 70.1904 13.8877C64.4326 15.6557 58.6904 17.5333 53.1751 19.935C42.7861 24.4645 41.0337 28.9628 41.0415 30.0894C41.0415 30.5196 41.0806 30.9499 41.1667 31.3802L45.7276 43.8737C45.5789 43.8737 42.3401 44.8124 41.4014 45.0941C30.4568 48.4111 18.9256 52.0879 11.3215 60.6308C12.1195 62.9073 25.982 95.2793 25.982 95.2793C25.982 95.2793 31.3643 90.4134 32.7647 89.3025C35.2368 87.3389 37.8575 85.5239 40.7286 84.1862C49.3809 80.1573 61.2095 83.9202 68.7197 77.2079C70.5894 75.5338 71.0979 73.2886 70.5424 71.2859C70.0261 69.4161 68.5945 67.7655 66.4588 66.9988C64.769 66.3964 63.486 66.4746 62.3438 66.7641L54.5129 65.9818C54.6146 65.3012 54.8415 64.6362 55.1857 64.0182C57.1884 60.4117 61.7336 59.2226 65.2853 57.8457C70.2999 55.9056 75.3458 54.0202 80.4934 52.44C89.0285 49.8192 97.7278 47.7383 106.49 46.0798C116.143 44.2492 125.891 42.9271 135.67 42.0352C146.145 41.0808 156.667 40.6271 167.189 40.6193C177.711 40.6193 188.233 41.0808 198.708 42.0352C208.495 42.9271 218.243 44.2492 227.889 46.0798C236.658 47.7383 245.358 49.8192 253.885 52.44C259.032 54.0202 264.078 55.9056 269.093 57.8457C272.645 59.2226 277.198 60.4039 279.193 64.0182C279.725 64.9726 279.959 66.0365 279.928 67.1083L271.448 68.8607C270.306 68.5712 269.03 68.4852 267.333 69.0954C265.197 69.862 263.765 71.5127 263.249 73.3825C262.694 75.3852 263.202 77.6382 265.072 79.3046C272.59 86.0168 284.411 82.246 293.063 86.2828C295.934 87.6205 298.555 89.4355 301.027 91.3991C302.427 92.51 307.81 97.3759 307.81 97.3759C307.81 97.3759 321.477 65.0117 322.47 62.7274C314.866 54.1845 303.084 51.243 292.39 47.1907H292.422V47.1985Z" fill="white"/>
</mask>
<g mask="url(#mask0_3604_16326)">
<rect x="81.6714" y="-171.858" width="7.82311" height="471.38" transform="rotate(45 81.6714 -171.858)" fill="white"/>
<rect x="92.735" y="-160.794" width="7.82311" height="471.38" transform="rotate(45 92.735 -160.794)" fill="white"/>
<rect x="103.799" y="-149.731" width="7.82311" height="471.38" transform="rotate(45 103.799 -149.731)" fill="white"/>
<rect x="114.862" y="-138.667" width="7.82311" height="471.38" transform="rotate(45 114.862 -138.667)" fill="white"/>
<rect x="125.926" y="-127.604" width="7.82311" height="471.38" transform="rotate(45 125.926 -127.604)" fill="white"/>
<rect x="136.989" y="-116.54" width="7.82311" height="471.38" transform="rotate(45 136.989 -116.54)" fill="white"/>
<rect x="148.053" y="-105.477" width="7.82311" height="471.38" transform="rotate(45 148.053 -105.477)" fill="white"/>
<rect x="159.116" y="-94.4132" width="7.82311" height="471.38" transform="rotate(45 159.116 -94.4132)" fill="white"/>
<rect x="170.18" y="-83.3496" width="7.82311" height="471.38" transform="rotate(45 170.18 -83.3496)" fill="white"/>
<rect x="181.243" y="-72.2861" width="7.82311" height="471.38" transform="rotate(45 181.243 -72.2861)" fill="white"/>
<rect x="192.307" y="-61.2225" width="7.82311" height="471.38" transform="rotate(45 192.307 -61.2225)" fill="white"/>
<rect x="203.37" y="-50.1589" width="7.82311" height="471.38" transform="rotate(45 203.37 -50.1589)" fill="white"/>
<rect x="214.434" y="-39.0955" width="7.82311" height="471.38" transform="rotate(45 214.434 -39.0955)" fill="white"/>
<rect x="225.498" y="-28.0319" width="7.82311" height="471.38" transform="rotate(45 225.498 -28.0319)" fill="white"/>
<rect x="236.561" y="-16.9684" width="7.82311" height="471.38" transform="rotate(45 236.561 -16.9684)" fill="white"/>
<rect x="247.625" y="-5.90479" width="7.82311" height="471.38" transform="rotate(45 247.625 -5.90479)" fill="white"/>
<rect x="413.894" y="-171.858" width="7.82311" height="471.38" transform="rotate(45 413.894 -171.858)" fill="white"/>
<rect x="424.957" y="-160.794" width="7.82311" height="471.38" transform="rotate(45 424.957 -160.794)" fill="white"/>
<rect x="436.021" y="-149.731" width="7.82311" height="471.38" transform="rotate(45 436.021 -149.731)" fill="white"/>
<rect x="447.084" y="-138.667" width="7.82311" height="471.38" transform="rotate(45 447.084 -138.667)" fill="white"/>
<rect x="458.148" y="-127.604" width="7.82311" height="471.38" transform="rotate(45 458.148 -127.604)" fill="white"/>
<rect x="469.211" y="-116.54" width="7.82311" height="471.38" transform="rotate(45 469.211 -116.54)" fill="white"/>
<rect x="480.275" y="-105.477" width="7.82311" height="471.38" transform="rotate(45 480.275 -105.477)" fill="white"/>
<rect x="491.339" y="-94.4132" width="7.82311" height="471.38" transform="rotate(45 491.339 -94.4132)" fill="white"/>
<rect x="502.402" y="-83.3496" width="7.82311" height="471.38" transform="rotate(45 502.402 -83.3496)" fill="white"/>
<rect x="513.466" y="-72.2861" width="7.82311" height="471.38" transform="rotate(45 513.466 -72.2861)" fill="white"/>
<rect x="524.529" y="-61.2225" width="7.82311" height="471.38" transform="rotate(45 524.529 -61.2225)" fill="white"/>
<rect x="535.593" y="-50.1589" width="7.82311" height="471.38" transform="rotate(45 535.593 -50.1589)" fill="white"/>
<rect x="546.656" y="-39.0955" width="7.82311" height="471.38" transform="rotate(45 546.656 -39.0955)" fill="white"/>
<rect x="557.72" y="-28.0319" width="7.82311" height="471.38" transform="rotate(45 557.72 -28.0319)" fill="white"/>
<rect x="568.783" y="-16.9684" width="7.82311" height="471.38" transform="rotate(45 568.783 -16.9684)" fill="white"/>
<rect x="579.847" y="-5.90479" width="7.82311" height="471.38" transform="rotate(45 579.847 -5.90479)" fill="white"/>
</g>
</g>
<path d="M81.4768 36.6319L79.2284 27.9586L81.087 27.4768L81.5545 28.5788L81.6009 28.5667C82.1671 27.6266 82.8894 26.7782 84.0664 26.473C85.9405 25.9872 87.0831 27.0795 87.6493 29.2633L89.0505 34.6686L86.7737 35.2588L85.4448 30.1323C85.0955 28.7848 84.6033 28.4165 83.7515 28.6373C83.039 28.822 82.6782 29.2792 82.2078 30.0788L83.7536 36.0417L81.4768 36.6319Z" fill="white"/>
<path d="M91.3157 34.16L89.324 25.4242L91.6171 24.9014L93.6089 33.6372L91.3157 34.16ZM90.1583 23.757C89.3627 23.9384 88.7029 23.5637 88.5286 22.7993C88.3579 22.0505 88.7901 21.4269 89.5856 21.2455C90.3656 21.0677 91.0254 21.4424 91.1961 22.1911C91.3704 22.9555 90.9382 23.5792 90.1583 23.757Z" fill="white"/>
<path d="M95.9954 33.0904L94.2416 24.3037L96.1245 23.9279L96.5288 25.0546L96.5759 25.0452C97.1944 24.1386 97.9635 23.3325 99.156 23.0944C101.055 22.7155 102.133 23.8707 102.575 26.083L103.668 31.559L101.362 32.0194L100.325 26.8258C100.052 25.4607 99.582 25.0652 98.719 25.2374C97.9972 25.3815 97.6111 25.8175 97.0962 26.5892L98.3019 32.6301L95.9954 33.0904Z" fill="white"/>
<path d="M108.325 30.982C106.747 31.243 105.52 30.2944 105.272 28.7948C104.958 26.9005 106.325 25.6529 109.83 24.6843C109.639 23.8239 109.151 23.2235 108.062 23.4036C107.241 23.5392 106.512 24.0328 105.769 24.6421L104.679 23.2491C105.614 22.4297 106.791 21.7 108.18 21.4704C110.422 21.0998 111.796 22.2511 112.218 24.8084L113.072 29.9704L111.177 30.2835L110.863 29.3625L110.8 29.3729C110.136 30.1638 109.336 30.815 108.325 30.982ZM108.783 29.0414C109.446 28.9318 109.883 28.5352 110.36 27.8888L110.065 26.105C107.947 26.7308 107.32 27.4507 107.45 28.24C107.565 28.9346 108.104 29.1536 108.783 29.0414Z" fill="white"/>
<path d="M131.51 14.0029C129.947 15.6949 128.837 18.5271 129.209 21.7859C129.581 25.0447 131.301 27.554 133.204 28.8505L133.213 28.93L128.253 29.496L126.541 14.4894L131.501 13.9234L131.51 14.0029Z" fill="white"/>
<path d="M134.696 16.4597C135.275 16.4831 136.028 16.4621 136.57 16.4238L143.178 15.9579C143.816 15.9129 144.499 15.8166 144.943 15.7372L145.106 18.0515C144.642 18.0682 143.889 18.0732 143.33 18.1126L136.738 18.5773C136.132 18.6201 135.4 18.7038 134.859 18.774L134.696 16.4597ZM133.906 24.3589C134.532 24.3629 135.285 24.3579 135.908 24.314L145.069 23.668C145.612 23.6298 146.28 23.5506 146.818 23.4485L146.99 25.8904C146.427 25.8659 145.706 25.8847 145.228 25.9184L136.066 26.5644C135.444 26.6083 134.665 26.7113 134.078 26.8008L133.906 24.3589Z" fill="white"/>
<path d="M149.344 18.946C149.921 18.9772 151.09 18.9912 151.922 18.967L160.51 18.7168C161.262 18.6949 161.964 18.6105 162.379 18.5664L162.452 21.0773C162.068 21.0725 161.25 21.0323 160.578 21.0518L151.99 21.302C151.078 21.3285 150.008 21.3917 149.417 21.457L149.344 18.946Z" fill="white"/>
<path d="M170.833 15.2324C170.839 14.6885 170.785 13.8558 170.646 13.3582L173.19 13.3865C173.088 13.8814 173.047 14.761 173.041 15.273L173.022 17.0169L176.621 17.0569C177.357 17.065 178.03 17.0085 178.366 16.9803L178.342 19.1561C178.006 19.1364 177.223 19.0797 176.583 19.0726L172.983 19.0326C172.851 22.2473 171.814 24.8599 168.336 26.8854L166.368 25.3914C169.52 24.0024 170.617 21.7104 170.775 19.008L166.696 18.9627C165.992 18.9548 165.351 18.9957 164.855 19.0222L164.879 16.8143C165.359 16.8677 166.014 16.939 166.654 16.9461L170.814 16.9923L170.833 15.2324Z" fill="white"/>
<path d="M183.969 27.8356L178.983 27.5778L178.987 27.4979C180.807 26.086 182.368 23.4751 182.537 20.1995C182.706 16.9238 181.423 14.1659 179.759 12.5738L179.763 12.4939L184.748 12.7517L183.969 27.8356Z" fill="white"/>
<path d="M197.08 15.0847L209.155 16.2221L208.975 18.1336L196.9 16.9963L197.08 15.0847ZM197.701 20.2698L207.418 21.1851L207.236 23.1125L197.519 22.1972L197.701 20.2698ZM195.204 25.4505L209.031 26.7529L208.848 28.6963L195.021 27.3939L195.204 25.4505Z" fill="white"/>
<path d="M212.304 22.6351L212.173 23.57L213.298 23.7273L213.429 22.7924L212.304 22.6351ZM212.608 20.4642L212.475 21.415L213.6 21.5723L213.733 20.6216L212.608 20.4642ZM216.087 21.9203L216.22 20.9695L215.095 20.8122L214.962 21.7629L216.087 21.9203ZM215.786 24.0753L215.917 23.1404L214.792 22.9831L214.661 23.918L215.786 24.0753ZM214.667 25.2597L214.541 26.163L217.377 26.5597L217.147 28.2076L214.31 27.8109L213.958 30.3304L212.199 30.0844L212.551 27.5649L209.763 27.1748L209.993 25.5268L212.782 25.9169L212.908 25.0137L210.547 24.6835L211.347 18.9632L213.708 19.2934L213.83 18.4219L211.247 18.0606L211.476 16.4285L214.059 16.7898L214.267 15.3003L216.042 15.5485L215.833 17.038L218.337 17.3882L218.109 19.0203L215.605 18.6701L215.483 19.5416L217.892 19.8785L217.092 25.5989L214.667 25.2597ZM225.414 23.2733L225.172 25.0005L222.304 24.5993L221.356 31.3813L219.502 31.122L220.45 24.34L217.582 23.9388L217.824 22.2116L220.692 22.6128L221.204 18.9524L218.669 18.5978L218.912 16.8548L225.853 17.8256L225.609 19.5686L223.058 19.2117L222.546 22.8721L225.414 23.2733Z" fill="white"/>
<path d="M229.916 22.074L230.18 20.691L227.099 20.1028L227.427 18.3898L230.507 18.978L230.729 17.815L232.584 18.1691L232.361 19.3321L236.228 20.0704L236.45 18.9074L238.32 19.2645L238.098 20.4275L241.351 21.0487L241.024 22.7617L237.771 22.1405L237.507 23.5235L235.636 23.1664L235.9 21.7834L232.034 21.0452L231.77 22.4282L229.916 22.074ZM228.523 28.2586L230.367 29.1808C229.373 30.3756 227.857 31.4055 226.544 31.9692C226.255 31.523 225.548 30.7855 225.147 30.4156C226.43 30.009 227.74 29.2005 228.523 28.2586ZM228.463 26.0155L231.983 26.6877L232.28 25.1318L234.166 25.4919L233.869 27.0478L237.704 27.78C236.021 26.6117 234.389 25.0946 233.585 23.6707C232.436 24.6566 230.501 25.4925 228.463 26.0155ZM237.641 29.5598L233.539 28.7766L232.66 33.3814L230.774 33.0212L231.653 28.4164L227.724 27.6662L228.018 26.126C227.457 26.247 226.9 26.3523 226.348 26.4261C226.253 25.9029 225.963 25.1147 225.711 24.643C228.53 24.3831 231.288 23.2482 232.854 21.8696L234.772 22.2357C236.107 24.543 238.381 26.2805 240.772 27.3234C240.257 27.7139 239.745 28.3491 239.395 28.8197C238.922 28.5665 238.439 28.2789 237.95 27.9411L237.641 29.5598ZM234.447 30.3345L236.154 29.6669C237.073 30.6568 238.259 32.1213 238.811 33.0736L236.969 33.8459C236.506 32.943 235.379 31.4247 234.447 30.3345Z" fill="white"/>
<path d="M251.169 29.4025L248.964 28.8545C248.623 29.1654 248.267 29.4725 247.933 29.7523C248.919 29.9644 249.967 30.1919 251.015 30.4194C250.821 30.1403 250.607 29.8728 250.401 29.6403L251.169 29.4025ZM253.736 25.1769L245.662 23.1702L245.423 24.1329L253.497 26.1396L253.736 25.1769ZM248.915 35.0907L253.744 36.2908L253.381 37.7504L242.061 34.9372L242.424 33.4776L247.129 34.6469L247.395 33.5755L243.731 32.6647L244.094 31.2051L247.758 32.1159L247.978 31.2308C246.503 30.9301 245.156 30.6448 244.042 30.4174L244.323 28.9541L245.961 29.3282C246.268 29.0251 246.601 28.6793 246.915 28.3451L244.492 27.7431C243.77 30.2509 242.595 33.2561 240.742 35.005C240.462 34.6056 239.739 33.9314 239.332 33.6487C241.463 31.6395 242.456 28.1767 243.069 25.7078L244.185 21.2203L255.97 24.1493L254.99 28.0933L245.052 25.6235L244.917 26.167L244.882 26.3067L255.239 28.8807L254.88 30.3248L252.551 29.746C253.301 30.6413 254.091 31.7113 254.48 32.4674L252.707 33.0326C252.579 32.7534 252.396 32.4276 252.182 32.0942C251.382 31.9285 250.583 31.7627 249.783 31.5969L249.544 32.5597L253.27 33.4858L252.908 34.9454L249.181 34.0193L248.915 35.0907Z" fill="white"/>
</g>
<defs>
<clipPath id="clip0_3604_16326">
<rect width="334" height="100" fill="white" transform="translate(0 0.666626)"/>
</clipPath>
</defs>
</svg>
