<svg width="334" height="100" viewBox="0 0 334 100" fill="none" xmlns="http://www.w3.org/2000/svg">
<g clip-path="url(#clip0_1303_7969)">
<path d="M9.82728 53.1815C10.7582 55.8101 9.38136 58.7046 6.74497 59.6356C4.11641 60.5665 1.22186 59.1896 0.290905 56.5533C-0.640045 53.9247 0.736824 51.0301 3.37321 50.0992C6.00178 49.1682 8.89633 50.5451 9.82728 53.1815Z" fill="#F5CD1E"/>
<path d="M9.27672 60.6108L6.21863 61.9354L43.8553 148.825L46.9134 147.501L9.27672 60.6108Z" fill="#F5CD1E"/>
<path d="M323.878 55.02C322.971 57.6563 324.371 60.5353 327.008 61.4506C329.644 62.358 332.523 60.9577 333.438 58.3213C334.346 55.6849 332.945 52.806 330.309 51.8985C327.673 50.991 324.794 52.3914 323.878 55.0278V55.02Z" fill="#F5CD1E"/>
<path d="M324.482 62.4465L287.545 149.636L290.613 150.936L327.551 63.7466L324.482 62.4465Z" fill="#F5CD1E"/>
<path d="M279.842 67.4196C280.108 66.0271 279.897 64.6033 279.208 63.3594C277.206 59.7529 272.66 58.5638 269.109 57.187C264.094 55.2468 259.048 53.3615 253.901 51.7812C245.366 49.1605 236.666 47.0795 227.904 45.421C218.251 43.5904 208.503 42.2683 198.724 41.3765C188.249 40.4221 177.727 39.9683 167.205 39.9605C156.683 39.9605 146.161 40.4221 135.686 41.3765C125.899 42.2683 116.151 43.5904 106.505 45.421C97.7356 47.0795 89.0363 49.1605 80.5091 51.7812C75.3615 53.3615 70.3156 55.2468 65.301 57.187C61.7493 58.5638 57.1962 59.7451 55.2013 63.3594C54.5129 64.6033 54.3017 66.0271 54.5677 67.4196L41.1745 30.7292C41.0963 30.2989 41.0493 29.8687 41.0493 29.4384C41.0493 28.3041 42.7939 23.8136 53.183 19.284C58.6983 16.8745 64.4404 15.0048 70.1982 13.2367C79.7502 10.3031 89.4744 7.97962 99.2924 6.11771C110.096 4.06806 121.002 2.58949 131.946 1.59596C143.673 0.532015 155.447 0.015686 167.213 0.015686C178.979 0.015686 190.76 0.532015 202.479 1.59596C213.424 2.58949 224.329 4.06806 235.133 6.11771C244.943 7.97962 254.675 10.3031 264.227 13.2367C269.985 15.0048 275.782 16.7571 281.242 19.284C290.27 23.4616 293.399 28.3901 293.376 29.5636C293.368 29.9547 293.329 30.3459 293.251 30.737L279.858 67.4274H279.842V67.4196Z" fill="#E84388" stroke="white" stroke-width="0.782311" stroke-linecap="round" stroke-linejoin="round"/>
<path d="M70.5347 70.6192C70.0184 68.7495 68.5867 67.0988 66.451 66.3321C64.7612 65.7219 63.4782 65.808 62.3361 66.0974L53.7619 65.2369L45.7198 43.207C45.665 43.1679 42.3324 44.138 41.3858 44.4274C30.4412 47.7444 18.91 51.4213 11.3059 59.9641C12.1039 62.2406 25.9664 94.6127 25.9664 94.6127C25.9664 94.6127 31.3487 89.7467 32.749 88.6358C35.2211 86.6722 37.8419 84.8573 40.713 83.5195C49.3653 79.4906 61.1939 83.2535 68.7041 76.5413C70.5738 74.8671 71.0823 72.6219 70.5269 70.6192H70.5347Z" fill="#E84388" stroke="white" stroke-width="0.782311" stroke-linecap="round" stroke-linejoin="round"/>
<path d="M263.273 72.7159C263.789 70.8461 265.221 69.1954 267.356 68.4288C269.046 67.8186 270.329 67.9046 271.471 68.1941L280.225 66.387L288.056 44.9438C288.111 44.9047 289.355 45.3663 292.429 46.5319C303.124 50.5764 314.905 53.5257 322.509 62.0686C321.516 64.3608 307.849 96.7171 307.849 96.7171C307.849 96.7171 302.466 91.8512 301.066 90.7403C298.594 88.7767 295.973 86.9617 293.102 85.624C284.45 81.5951 272.621 85.358 265.111 78.6458C263.241 76.9716 262.733 74.7264 263.288 72.7237H263.273V72.7159Z" fill="#E84388" stroke="white" stroke-width="0.782311" stroke-linecap="round" stroke-linejoin="round"/>
<path d="M279.044 62.6631C277.346 60.2301 274.413 59.0332 271.62 58.024L269.093 57.1009C268.123 56.7253 267.153 56.3577 266.183 55.99L263.054 72.7158C263.57 70.8461 265.002 69.1954 267.137 68.4287C272.152 66.6294 273.599 70.8461 278.238 68.8277C279.67 68.2019 280.28 67.2083 280.296 66.0427C280.311 64.9944 279.842 63.8209 279.044 62.6631Z" fill="#CB0085" stroke="#E84388" stroke-width="0.782311" stroke-miterlimit="10"/>
<path d="M55.4751 62.9291C57.1257 60.5352 59.989 59.3618 62.7114 58.3683L65.1757 57.4608C66.1223 57.0931 67.0689 56.7332 68.0155 56.3655L70.7536 71.6284C70.2529 69.79 69.1655 69.3284 67.0846 68.5774C62.1951 66.8094 60.787 70.9556 56.2652 68.9686C54.8727 68.3584 54.2781 67.3726 54.2625 66.2305C54.2468 65.2056 54.7006 64.0478 55.4829 62.9135V62.9291H55.4751Z" fill="#CB0085" stroke="#E84388" stroke-width="0.782311" stroke-miterlimit="10"/>
<g opacity="0.1">
<mask id="mask0_1303_7969" style="mask-type:luminance" maskUnits="userSpaceOnUse" x="11" y="0" width="312" height="97">
<path d="M292.422 46.5319C289.347 45.3662 288.103 44.9125 288.048 44.9438L293.243 30.7214C293.313 30.3302 293.36 29.9391 293.368 29.5479C293.392 28.3744 290.262 23.4537 281.235 19.2683C275.774 16.7336 269.977 14.9891 264.219 13.2211C254.667 10.2874 244.943 7.96393 235.125 6.10203C224.321 4.05237 213.416 2.57381 202.471 1.58027C190.745 0.516329 178.971 0 167.205 0C155.439 0 143.657 0.516329 131.938 1.58027C120.994 2.57381 110.088 4.05237 99.2846 6.10203C89.4744 7.96393 79.7425 10.2874 70.1905 13.2211C64.4326 14.9891 58.6905 16.8666 53.1752 19.2683C42.7861 23.7979 41.0337 28.2962 41.0415 29.4227C41.0415 29.853 41.0807 30.2833 41.1667 30.7135L45.7276 43.207C45.5789 43.207 42.3402 44.1458 41.4014 44.4275C30.4569 47.7445 18.9256 51.4213 11.3215 59.9641C12.1195 62.2407 25.982 94.6127 25.982 94.6127C25.982 94.6127 31.3643 89.7467 32.7647 88.6359C35.2368 86.6723 37.8575 84.8573 40.7286 83.5195C49.381 79.4906 61.2095 83.2535 68.7197 76.5413C70.5894 74.8672 71.0979 72.622 70.5425 70.6192C70.0262 68.7495 68.5945 67.0988 66.4588 66.3322C64.769 65.7298 63.486 65.808 62.3439 66.0975L54.5129 65.3151C54.6146 64.6345 54.8415 63.9696 55.1857 63.3516C57.1884 59.7451 61.7337 58.556 65.2853 57.1791C70.3 55.239 75.3459 53.3536 80.4935 51.7733C89.0285 49.1526 97.7278 47.0717 106.49 45.4132C116.143 43.5826 125.891 42.2604 135.67 41.3686C146.145 40.4142 156.667 39.9605 167.189 39.9526C177.711 39.9526 188.233 40.4142 198.709 41.3686C208.495 42.2604 218.243 43.5826 227.889 45.4132C236.658 47.0717 245.358 49.1526 253.885 51.7733C259.033 53.3536 264.078 55.239 269.093 57.1791C272.645 58.556 277.198 59.7373 279.193 63.3516C279.725 64.306 279.959 65.3699 279.928 66.4417L271.448 68.1941C270.306 67.9046 269.03 67.8185 267.333 68.4288C265.197 69.1954 263.766 70.8461 263.249 72.7158C262.694 74.7185 263.202 76.9716 265.072 78.6379C272.59 85.3502 284.411 81.5794 293.063 85.6161C295.934 86.9539 298.555 88.7688 301.027 90.7324C302.427 91.8433 307.81 96.7093 307.81 96.7093C307.81 96.7093 321.477 64.3451 322.47 62.0608C314.866 53.5179 303.084 50.5764 292.39 46.524H292.422V46.5319Z" fill="white"/>
</mask>
<g mask="url(#mask0_1303_7969)">
<rect x="81.6715" y="-172.525" width="7.82311" height="471.38" transform="rotate(45 81.6715 -172.525)" fill="white"/>
<rect x="92.735" y="-161.461" width="7.82311" height="471.38" transform="rotate(45 92.735 -161.461)" fill="white"/>
<rect x="103.799" y="-150.398" width="7.82311" height="471.38" transform="rotate(45 103.799 -150.398)" fill="white"/>
<rect x="114.862" y="-139.334" width="7.82311" height="471.38" transform="rotate(45 114.862 -139.334)" fill="white"/>
<rect x="125.926" y="-128.271" width="7.82311" height="471.38" transform="rotate(45 125.926 -128.271)" fill="white"/>
<rect x="136.989" y="-117.207" width="7.82311" height="471.38" transform="rotate(45 136.989 -117.207)" fill="white"/>
<rect x="148.053" y="-106.143" width="7.82311" height="471.38" transform="rotate(45 148.053 -106.143)" fill="white"/>
<rect x="159.116" y="-95.0798" width="7.82311" height="471.38" transform="rotate(45 159.116 -95.0798)" fill="white"/>
<rect x="170.18" y="-84.0163" width="7.82311" height="471.38" transform="rotate(45 170.18 -84.0163)" fill="white"/>
<rect x="181.243" y="-72.9528" width="7.82311" height="471.38" transform="rotate(45 181.243 -72.9528)" fill="white"/>
<rect x="192.307" y="-61.8892" width="7.82311" height="471.38" transform="rotate(45 192.307 -61.8892)" fill="white"/>
<rect x="203.37" y="-50.8256" width="7.82311" height="471.38" transform="rotate(45 203.37 -50.8256)" fill="white"/>
<rect x="214.434" y="-39.7621" width="7.82311" height="471.38" transform="rotate(45 214.434 -39.7621)" fill="white"/>
<rect x="225.498" y="-28.6985" width="7.82311" height="471.38" transform="rotate(45 225.498 -28.6985)" fill="white"/>
<rect x="236.561" y="-17.635" width="7.82311" height="471.38" transform="rotate(45 236.561 -17.635)" fill="white"/>
<rect x="247.625" y="-6.57141" width="7.82311" height="471.38" transform="rotate(45 247.625 -6.57141)" fill="white"/>
<rect x="413.894" y="-172.525" width="7.82311" height="471.38" transform="rotate(45 413.894 -172.525)" fill="white"/>
<rect x="424.957" y="-161.461" width="7.82311" height="471.38" transform="rotate(45 424.957 -161.461)" fill="white"/>
<rect x="436.021" y="-150.398" width="7.82311" height="471.38" transform="rotate(45 436.021 -150.398)" fill="white"/>
<rect x="447.084" y="-139.334" width="7.82311" height="471.38" transform="rotate(45 447.084 -139.334)" fill="white"/>
<rect x="458.148" y="-128.271" width="7.82311" height="471.38" transform="rotate(45 458.148 -128.271)" fill="white"/>
<rect x="469.211" y="-117.207" width="7.82311" height="471.38" transform="rotate(45 469.211 -117.207)" fill="white"/>
<rect x="480.275" y="-106.143" width="7.82311" height="471.38" transform="rotate(45 480.275 -106.143)" fill="white"/>
<rect x="491.339" y="-95.0798" width="7.82311" height="471.38" transform="rotate(45 491.339 -95.0798)" fill="white"/>
<rect x="502.402" y="-84.0163" width="7.82311" height="471.38" transform="rotate(45 502.402 -84.0163)" fill="white"/>
<rect x="513.466" y="-72.9528" width="7.82311" height="471.38" transform="rotate(45 513.466 -72.9528)" fill="white"/>
<rect x="524.529" y="-61.8892" width="7.82311" height="471.38" transform="rotate(45 524.529 -61.8892)" fill="white"/>
<rect x="535.593" y="-50.8256" width="7.82311" height="471.38" transform="rotate(45 535.593 -50.8256)" fill="white"/>
<rect x="546.656" y="-39.7621" width="7.82311" height="471.38" transform="rotate(45 546.656 -39.7621)" fill="white"/>
<rect x="557.72" y="-28.6985" width="7.82311" height="471.38" transform="rotate(45 557.72 -28.6985)" fill="white"/>
<rect x="568.783" y="-17.635" width="7.82311" height="471.38" transform="rotate(45 568.783 -17.635)" fill="white"/>
<rect x="579.847" y="-6.57141" width="7.82311" height="471.38" transform="rotate(45 579.847 -6.57141)" fill="white"/>
</g>
</g>
<path d="M122.303 32.3333L122.799 35.0461C123.205 34.8725 123.63 34.6954 124.045 34.5201C123.572 33.8908 123.182 33.1171 122.842 32.2348L122.303 32.3333ZM123.828 28.6048L121.693 28.9952L121.814 29.659L123.95 29.2686L123.828 28.6048ZM122.118 31.3232L124.254 30.9328L124.126 30.2305L121.99 30.621L122.118 31.3232ZM117.789 30.7528L119.886 30.3694C119.524 30.0181 118.996 29.5778 118.521 29.2668C118.337 29.728 118.112 30.2364 117.789 30.7528ZM125.175 32.0568L126.087 32.6953C125.743 33.0962 125.306 33.534 124.94 33.8693C125.418 34.4182 125.997 34.8095 126.696 34.9899C126.486 35.2568 126.238 35.7495 126.139 36.0759C125.284 35.8047 124.621 35.2796 124.062 34.5568L124.373 35.5537C123.418 35.9867 122.396 36.432 121.585 36.7792L121.266 36.1217C120.133 36.5576 118.95 36.9926 118.045 37.3171L117.637 36.3378C118.04 36.2045 118.538 36.0439 119.08 35.8553L118.616 33.3157L117.269 33.5619L117.091 32.5903L118.438 32.3441L118.309 31.6418L117.386 31.8107L117.319 31.4451L117.19 31.6079C116.994 31.4052 116.608 31.0881 116.349 30.9763C117.08 30.1368 117.501 29.1253 117.703 28.323L118.636 28.1524C119.311 28.5261 120.201 29.099 120.652 29.5534L120.191 30.3533L120.359 31.2672L119.3 31.4607L119.429 32.1629L120.699 31.9308L120.876 32.9024L119.606 33.1345L120.043 35.5203C120.471 35.3624 120.911 35.2124 121.339 35.0545L121.463 35.5687L121.77 35.453L120.44 28.1804L124.731 27.396L125.526 31.7441L123.862 32.0484C124.018 32.4174 124.181 32.7653 124.378 33.0774C124.677 32.7544 124.982 32.3605 125.175 32.0568ZM117.457 34.104L118.172 33.7745C118.431 34.264 118.71 34.9189 118.839 35.3526L118.09 35.7181C117.977 35.2616 117.708 34.605 117.457 34.104ZM120.759 35.091L120.049 35.0121C120.103 34.5449 120.138 33.8128 120.109 33.3309L121.014 33.3842C120.925 33.987 120.847 34.6474 120.759 35.091Z" fill="white"/>
<path d="M133.213 32.2577L133.347 33.2165L136.447 32.784L136.585 33.7719L129.33 34.7844L129.192 33.7965L132.233 33.372L132.1 32.4131L129.669 32.7525L129.529 31.7549L131.96 31.4155L131.804 30.292L131.343 31.0277C131.156 30.8169 130.822 30.5475 130.49 30.2878C130.314 30.727 130.072 31.1163 129.763 31.4458C129.563 31.2861 129.089 31.0066 128.835 30.8841C128.94 32.2716 128.917 33.8744 128.47 35.0624C128.24 34.897 127.69 34.638 127.403 34.5597C127.965 33.0692 127.741 31.0368 127.543 29.6228L127.177 26.998L130.712 26.5046L130.59 25.6329L131.791 25.4653L131.913 26.337L135.41 25.849L135.557 26.9047L128.458 27.8956L128.678 29.4743C128.736 29.8908 128.793 30.3667 128.835 30.8841C129.555 30.2405 129.8 29.3078 129.759 28.1681L130.816 28.0995C130.826 28.5228 130.804 28.9307 130.746 29.2942C131.117 29.5485 131.512 29.8292 131.771 30.0596L131.456 27.8029L132.57 27.6474L132.9 30.0107C133.418 29.4052 133.639 28.5844 133.634 27.6273L134.676 27.6003C134.674 28.0055 134.639 28.3954 134.57 28.7506C135.12 29.0787 135.726 29.4583 136.069 29.7263L135.512 30.6138C135.23 30.3667 134.75 30.0388 134.273 29.7302C134.094 30.15 133.851 30.5296 133.54 30.8494C133.416 30.7384 133.187 30.5828 132.961 30.4465L133.074 31.2601L135.651 30.9005L135.79 31.8981L133.213 32.2577Z" fill="white"/>
<path d="M137.534 29.1529L146.486 28.2525L146.612 29.5077L137.661 30.4081L137.534 29.1529Z" fill="white"/>
<path d="M155.445 24.5649L155.52 25.7752L152.162 25.9828L152.503 31.4976C152.553 32.2979 152.379 32.6614 151.865 32.8989C151.331 33.1377 150.542 33.2158 149.488 33.281C149.386 32.8954 149.074 32.2974 148.837 31.9495C149.63 31.9397 150.539 31.8933 150.792 31.8679C151.035 31.843 151.129 31.7784 151.116 31.5637L150.776 26.0684L146.843 26.3116L146.768 25.1012L155.445 24.5649Z" fill="white"/>
<path d="M158.523 30.9916L163.049 30.8868L163.023 29.7331L158.496 29.838L158.523 30.9916ZM162.971 27.4845L158.444 27.5894L158.471 28.743L162.997 28.6382L162.971 27.4845ZM162.919 25.2652L158.393 25.37L158.419 26.4944L162.945 26.3895L162.919 25.2652ZM157.193 24.2631L164.125 24.1026L164.322 32.5985L163.09 32.627L163.076 32.0209L158.549 32.1257L158.563 32.7319L157.39 32.7591L157.193 24.2631Z" fill="white"/>
<path d="M173.846 28.5897L176.055 28.6409L176.104 26.5389L173.894 26.4877L173.846 28.5897ZM170.414 28.5102L172.614 28.5612L172.662 26.4592L170.463 26.4082L170.414 28.5102ZM173.921 25.3438L177.352 25.4233L177.239 30.3019L176.017 30.2736L176.029 29.7848L173.819 29.7336L173.748 32.7839L172.517 32.7554L172.587 29.705L170.387 29.6541L170.375 30.1918L169.202 30.1646L169.316 25.2372L172.689 25.3153L172.728 23.6239L173.96 23.6525L173.921 25.3438Z" fill="white"/>
<path d="M181.285 28.0895L182.779 28.1818C182.883 27.7572 182.929 27.3289 182.955 26.9092L183.004 26.1186L181.413 26.0202L181.285 28.0895ZM185.883 26.2965L184.185 26.1916L184.136 26.9919C184.11 27.4117 184.064 27.8302 183.989 28.2566L185.756 28.3658L185.883 26.2965ZM187.881 29.6436L184.504 29.4348C185.121 30.7075 186.232 31.5992 188.007 32.0518C187.729 32.2698 187.365 32.7568 187.189 33.0693C185.256 32.4795 184.146 31.4213 183.461 29.8211C182.846 31.047 181.645 32.0897 179.33 32.6129C179.23 32.3324 178.949 31.8055 178.749 31.558C180.744 31.1326 181.796 30.2864 182.347 29.3015L179.028 29.0964L179.099 27.9544L180.114 28.0171L180.312 24.8058L183.075 24.9766L183.153 23.7077L184.334 23.7807L184.256 25.0496L187.184 25.2306L186.985 28.4418L187.952 28.5016L187.881 29.6436Z" fill="white"/>
<path d="M195.342 28.1607L194.223 28.0482L194.17 28.5736L195.289 28.6861L195.342 28.1607ZM197.468 28.9054L197.521 28.3799L196.373 28.2644L196.32 28.7899L197.468 28.9054ZM196.184 30.1424L197.332 30.2579L197.387 29.713L196.239 29.5975L196.184 30.1424ZM194.034 29.9261L195.153 30.0386L195.208 29.4937L194.089 29.3812L194.034 29.9261ZM193.95 30.7629L193.803 32.2224L192.713 32.1128L193.217 27.1017L195.397 27.321C194.979 27.0726 194.532 26.831 194.149 26.6352L194.961 26.0878C195.288 26.2486 195.681 26.4454 196.063 26.6606C196.351 26.5324 196.632 26.3739 196.893 26.2232L193.429 25.8748L193.517 24.9991L197.983 25.4483L198.213 25.4124L198.848 26.0366C198.315 26.4449 197.656 26.8503 196.984 27.1759C197.187 27.3045 197.382 27.4223 197.537 27.5363L198.715 27.6547L198.312 31.6636C198.265 32.1306 198.152 32.3651 197.825 32.4894C197.497 32.6235 197.079 32.5814 196.495 32.5227C196.485 32.2366 196.406 31.8454 196.304 31.5894C196.605 31.6295 196.945 31.6637 197.043 31.6735C197.16 31.6755 197.193 31.6396 197.203 31.5423L197.248 31.0947L196.1 30.9792L195.957 32.3998L194.926 32.296L195.069 30.8754L193.95 30.7629ZM192.755 26.3181L191.806 27.0581C191.552 26.5607 190.889 25.8159 190.341 25.3086L191.213 24.6494C191.766 25.1178 192.452 25.8159 192.755 26.3181ZM192.255 28.3613L191.943 31.4653C192.257 32.1553 192.901 32.4953 193.889 32.6341C195.042 32.7992 197.351 33.002 198.695 33.029C198.531 33.2877 198.302 33.8053 198.222 34.1215C197.019 34.0595 194.954 33.8715 193.772 33.7034C192.609 33.5373 191.869 33.1778 191.36 32.3699C190.875 32.7043 190.379 33.0378 189.793 33.3917L189.374 32.18C189.816 31.9885 190.345 31.7173 190.826 31.4315L191.039 29.3103L189.803 29.186L189.91 28.1255L192.255 28.3613Z" fill="white"/>
<path d="M201.448 25.9289L202.757 26.1709C202.555 26.6265 202.225 27.5777 202.092 28.1023C202.65 27.4297 203.597 26.7324 204.682 26.8838C206.018 27.0704 206.872 28.5226 206.577 30.634C206.199 33.3459 204.352 34.4112 201.749 34.522L201.178 33.3067C203.355 33.2748 204.944 32.7857 205.269 30.4612C205.475 28.9793 205.096 28.0871 204.302 27.9762C203.169 27.8181 201.943 29.3848 201.719 30.6372C201.673 30.8973 201.629 31.2073 201.625 31.6609L200.423 31.5721C200.426 31.1973 200.441 30.597 200.53 29.9578C200.654 29.0667 200.947 27.893 201.23 26.9254C201.327 26.5835 201.4 26.1987 201.448 25.9289Z" fill="white"/>
<path d="M214.61 35.7459L214.849 34.4376L211.434 33.8132L211.195 35.1215L214.61 35.7459ZM214.315 30.2342L214.15 31.1384L217.152 31.6872L216.967 32.6972L213.965 32.1485L213.774 33.1971L216.208 33.642L215.538 37.3072L214.364 37.0927L214.427 36.7463L211.012 36.122L210.947 36.4779L209.831 36.2739L210.503 32.5991L212.61 32.9843L213.151 30.0214L214.315 30.2342ZM214.165 28.9342L217.667 29.5744L217.468 30.6615L210.494 29.3864L210.249 30.7235C209.966 32.2723 209.388 34.6221 208.247 35.9645C208.071 35.7334 207.621 35.3131 207.374 35.1388C208.415 33.9074 208.851 31.8995 209.105 30.5143L209.548 28.09L212.973 28.7162L213.175 27.6099L214.368 27.828L214.165 28.9342Z" fill="white"/>
<path d="M101.891 20.059L102.425 22.5934C102.549 23.1824 102.855 23.2754 103.484 23.2718C103.906 23.24 104.473 23.1491 105.09 23.0193C106.528 22.7164 108.697 22.0738 109.756 21.5358L110.178 23.5359C108.93 23.9989 106.868 24.5333 105.361 24.8507C104.471 25.0382 103.637 25.1566 103.028 25.1847C101.79 25.2165 100.969 24.7169 100.718 23.5251L99.146 16.0588C99.0825 15.7574 98.8942 15.0674 98.7363 14.6572L100.764 14.2302C100.785 14.6693 100.887 15.2915 100.968 15.6751L101.513 18.2643C103.057 17.51 104.859 16.4867 105.971 15.7231C106.421 15.4137 106.841 15.0964 107.309 14.6688L108.412 16.2392C107.924 16.5709 107.376 16.9581 106.948 17.2343C105.677 18.06 103.577 19.2318 101.891 20.059Z" fill="white"/>
<path d="M120.375 13.5272L113.701 14.6158L114.636 20.35L121.31 19.2614L120.375 13.5272ZM122.154 12.783L123.259 19.5536C123.346 20.0925 123.59 21.4144 123.599 21.4697L121.693 21.7807L121.582 21.0185L114.922 22.1048L115.06 22.8625L113.153 23.1735C113.156 23.1022 112.988 21.8956 112.879 21.2323L111.777 14.4756C111.714 14.0887 111.622 13.5222 111.531 13.1398C112.1 13.0612 112.627 12.9894 113 12.9286L120.6 11.689C120.945 11.6327 121.47 11.547 121.963 11.4382C122.003 11.8573 122.087 12.3685 122.154 12.783Z" fill="white"/>
<path d="M133.41 15.0562L133.865 18.9778C134.461 18.7677 135.084 18.5543 135.694 18.3425C135.077 17.3994 134.592 16.2577 134.188 14.9657L133.41 15.0562ZM135.936 9.87202L132.849 10.2306L132.961 11.1901L136.048 10.8316L135.936 9.87202ZM133.24 13.596L136.327 13.2374L136.209 12.2222L133.122 12.5808L133.24 13.596ZM127.108 12.3772L130.14 12.0251C129.655 11.4895 128.942 10.8112 128.293 10.3228C127.987 10.9644 127.618 11.6697 127.108 12.3772ZM137.538 14.9289L138.782 15.9262C138.253 16.4668 137.588 17.0514 137.033 17.4964C137.665 18.325 138.455 18.938 139.437 19.2608C139.113 19.6227 138.712 20.3034 138.54 20.7603C137.344 20.2932 136.446 19.4813 135.714 18.3966L136.066 19.8496C134.662 20.3792 133.16 20.9201 131.969 21.3403L131.575 20.3714C129.915 20.8883 128.185 21.3993 126.861 21.7785L126.37 20.3416C126.959 20.1887 127.684 20.0057 128.476 19.7869L128.05 16.1156L126.103 16.3417L125.94 14.9372L127.887 14.711L127.769 13.6958L126.434 13.8509L126.373 13.3225L126.173 13.543C125.911 13.2351 125.389 12.746 125.03 12.5623C126.153 11.4312 126.849 10.0254 127.212 8.8981L128.561 8.74142C129.49 9.33822 130.708 10.2397 131.31 10.9309L130.578 12.0307L130.731 13.3518L129.201 13.5295L129.319 14.5447L131.155 14.3314L131.318 15.736L129.482 15.9492L129.883 19.398C130.51 19.2125 131.152 19.0392 131.779 18.8537L131.908 19.5998L132.357 19.463L131.136 8.9497L137.338 8.22931L138.068 14.5151L135.662 14.7945C135.852 15.3362 136.053 15.8485 136.304 16.3126C136.761 15.879 137.234 15.3448 137.538 14.9289ZM126.322 17.1337L127.374 16.7296C127.698 17.4531 128.035 18.4146 128.179 19.0463L127.076 19.4986C126.957 18.8359 126.633 17.8728 126.322 17.1337ZM130.947 18.8516L129.94 18.6726C130.06 18.0103 130.179 16.9677 130.183 16.2766L131.47 16.4372C131.287 17.2899 131.114 18.2262 130.947 18.8516Z" fill="white"/>
<path d="M149.347 16.7988L149.443 18.1815L153.913 17.8706L154.012 19.2952L143.551 20.0228L143.452 18.5982L147.837 18.2932L147.741 16.9105L144.236 17.1544L144.135 15.7158L147.641 15.472L147.528 13.8519L146.798 14.857C146.552 14.5374 146.101 14.1196 145.652 13.7158C145.358 14.3257 144.974 14.8576 144.499 15.2976C144.229 15.0497 143.581 14.6036 143.23 14.4035C143.242 16.3954 143.051 18.6822 142.296 20.3346C141.983 20.0757 141.224 19.6514 140.821 19.511C141.771 17.438 141.652 14.5132 141.51 12.4742L141.247 8.68931L146.345 8.33476L146.257 7.0778L147.989 6.95734L148.076 8.21431L153.118 7.86364L153.224 9.38596L142.987 10.098L143.145 12.3745C143.187 12.975 143.221 13.6604 143.23 14.4035C144.322 13.5557 144.764 12.2478 144.819 10.6161L146.335 10.6229C146.307 11.2283 146.235 11.8087 146.117 12.3222C146.622 12.7221 147.158 13.162 147.505 13.5167L147.279 10.2626L148.885 10.1509L149.122 13.5587C149.921 12.7452 150.318 11.5949 150.406 10.2275L151.898 10.2922C151.854 10.8706 151.766 11.424 151.632 11.9245C152.385 12.4476 153.212 13.0496 153.676 13.4664L152.792 14.6787C152.415 14.2979 151.762 13.782 151.11 13.2941C150.814 13.876 150.429 14.394 149.953 14.82C149.787 14.6491 149.475 14.4042 149.166 14.1871L149.247 15.3603L152.962 15.1019L153.062 16.5404L149.347 16.7988Z" fill="white"/>
<path d="M156.811 15.7961L155.091 14.0995C155.503 13.7539 155.804 13.4388 156.214 13.0092C156.829 12.3508 157.903 10.9535 158.828 9.78381C159.645 8.78462 160.398 8.66914 161.568 9.6083C162.524 10.3704 163.6 11.4658 164.49 12.3834C165.451 13.3694 166.985 14.9303 168.02 16.0686L166.56 17.7409C165.637 16.5999 164.329 15.1319 163.481 14.1852C162.59 13.1836 161.383 11.8952 160.855 11.4733C160.356 11.0648 160.104 11.0706 159.724 11.5835C159.18 12.2963 158.232 13.7046 157.676 14.4737L156.811 15.7961Z" fill="white"/>
<path d="M173.885 10.561L175.914 10.6158C175.82 14.0865 175.673 16.9396 171.797 18.8796L170.21 17.5062C170.662 17.3644 171.172 17.1401 171.7 16.7762C173.511 15.5927 173.887 14.1183 173.949 11.8232C173.96 11.3893 173.943 11.0107 173.885 10.561ZM180.583 7.81493L181.675 8.88081C181.516 9.05858 181.241 9.38727 181.11 9.59379C180.422 10.6676 179.045 12.395 177.633 13.3372L176.223 12.1367C177.361 11.4812 178.486 10.2792 178.868 9.60325L171.577 9.40621C170.989 9.39032 170.526 9.41983 169.867 9.45803L169.92 7.51274C170.449 7.61108 171.035 7.68295 171.623 7.69883L179.167 7.90268C179.558 7.91327 180.329 7.89209 180.583 7.81493Z" fill="white"/>
<path d="M183.72 14.1845L183.881 11.9924C184.381 12.0712 185.397 12.1879 186.123 12.2412L193.621 12.7918C194.263 12.8389 194.895 12.8292 195.26 12.8279L195.099 15.02C194.765 14.9815 194.057 14.8733 193.471 14.8303L185.973 14.2797C185.177 14.2213 184.24 14.1805 183.72 14.1845Z" fill="white"/>
<path d="M207.293 12.2968L208.322 12.4202C209.058 12.5087 209.479 12.5309 209.862 12.5065L209.64 14.3552C209.338 14.2907 208.853 14.2184 208.116 14.13L207.088 14.0065L207.033 14.4652C206.619 17.9124 205.533 19.9112 202.006 20.9825L200.687 19.4001C203.482 18.7908 204.809 17.7233 205.217 14.3178L205.281 13.7896L201.986 13.3941L201.76 15.2845C201.686 15.8961 201.659 16.471 201.64 16.7507L199.694 16.5171C199.769 16.2441 199.877 15.6931 199.953 15.0676L200.179 13.1772L198.998 13.0353C198.303 12.9519 197.799 12.9196 197.49 12.9107L197.717 11.0203C197.962 11.092 198.508 11.2422 199.203 11.3256L200.385 11.4674L200.55 10.0913C200.613 9.5631 200.613 9.09772 200.617 8.83028L202.591 9.06723C202.517 9.32633 202.422 9.76613 202.355 10.3221L202.192 11.6844L205.486 12.0798L205.661 10.6203C205.728 10.0643 205.741 9.60059 205.733 9.31758L207.707 9.55453C207.646 9.82919 207.535 10.2812 207.468 10.8372L207.293 12.2968Z" fill="white"/>
<path d="M221.01 14.6695L214.341 13.5554L213.383 19.286L220.053 20.4001L221.01 14.6695ZM222.934 14.5367L221.804 21.3029C221.714 21.8415 221.52 23.1717 221.511 23.227L219.605 22.9086L219.746 22.1515L213.09 21.0397L212.977 21.8014L211.072 21.4831C211.097 21.4164 211.325 20.2196 211.436 19.5568L212.564 12.8044C212.629 12.4178 212.723 11.8516 212.76 11.4603C213.324 11.5687 213.846 11.6702 214.219 11.7325L221.814 13.0011C222.159 13.0588 222.684 13.1464 223.186 13.2019C223.089 13.6115 223.004 14.1224 222.934 14.5367Z" fill="white"/>
<path d="M228.118 13.4391C228.938 14.2881 230.412 16.0935 231.03 17.0852L229.325 18.2228C228.778 17.3035 227.387 15.4443 226.538 14.5318L228.118 13.4391ZM224.451 22.1884C226.651 22.3455 228.58 22.0292 230.078 21.5202C232.702 20.637 234.945 18.9275 236.203 17.2646L236.857 19.4238C235.42 21.0485 233.194 22.5468 230.705 23.4017C229.144 23.94 227.213 24.3276 225.213 24.242L224.451 22.1884Z" fill="white"/>
</g>
<defs>
<clipPath id="clip0_1303_7969">
<rect width="334" height="100" fill="white"/>
</clipPath>
</defs>
</svg>
