<svg width="334" height="101" viewBox="0 0 334 101" fill="none" xmlns="http://www.w3.org/2000/svg">
<g clip-path="url(#clip0_3604_16871)">
<path d="M9.82728 53.8482C10.7582 56.4768 9.38136 59.3713 6.74497 60.3023C4.11641 61.2332 1.22186 59.8563 0.290905 57.2199C-0.640045 54.5914 0.736824 51.6968 3.37321 50.7659C6.00178 49.8349 8.89633 51.2118 9.82728 53.8482Z" fill="#F5CD1E"/>
<path d="M9.27678 61.2774L6.21869 62.6021L43.8553 149.492L46.9134 148.167L9.27678 61.2774Z" fill="#F5CD1E"/>
<path d="M323.878 55.6865C322.971 58.3229 324.371 61.2018 327.008 62.1171C329.644 63.0246 332.523 61.6243 333.438 58.9879C334.346 56.3515 332.945 53.4726 330.309 52.5651C327.673 51.6576 324.794 53.0579 323.878 55.6943V55.6865Z" fill="#F5CD1E"/>
<path d="M324.482 63.1131L287.545 150.302L290.613 151.602L327.551 64.4131L324.482 63.1131Z" fill="#F5CD1E"/>
<path d="M279.842 68.0862C280.108 66.6936 279.897 65.2698 279.208 64.026C277.206 60.4195 272.66 59.2304 269.109 57.8535C264.094 55.9134 259.048 54.028 253.901 52.4478C245.366 49.827 236.666 47.7461 227.904 46.0876C218.251 44.257 208.503 42.9349 198.724 42.043C188.249 41.0886 177.727 40.6349 167.205 40.6271C156.683 40.6271 146.161 41.0886 135.686 42.043C125.899 42.9349 116.151 44.257 106.505 46.0876C97.7356 47.7461 89.0363 49.827 80.5091 52.4478C75.3615 54.028 70.3156 55.9134 65.301 57.8535C61.7493 59.2304 57.1962 60.4117 55.2013 64.026C54.5129 65.2698 54.3017 66.6936 54.5677 68.0862L41.1745 31.3958C41.0963 30.9655 41.0493 30.5352 41.0493 30.105C41.0493 28.9706 42.7939 24.4802 53.183 19.9506C58.6983 17.5411 64.4404 15.6713 70.1982 13.9033C79.7502 10.9696 89.4744 8.64618 99.2924 6.78428C110.096 4.73462 121.002 3.25606 131.946 2.26252C143.673 1.19858 155.447 0.682251 167.213 0.682251C178.979 0.682251 190.76 1.19858 202.479 2.26252C213.424 3.25606 224.329 4.73462 235.133 6.78428C244.943 8.64618 254.675 10.9696 264.227 13.9033C269.985 15.6713 275.782 17.4237 281.242 19.9506C290.27 24.1281 293.399 29.0567 293.376 30.2301C293.368 30.6213 293.329 31.0125 293.251 31.4036L279.858 68.094H279.842V68.0862Z" fill="#E84388" stroke="white" stroke-width="0.782311" stroke-linecap="round" stroke-linejoin="round"/>
<path d="M70.5346 71.2859C70.0183 69.4162 68.5867 67.7655 66.451 66.9988C64.7612 66.3886 63.4782 66.4747 62.336 66.7641L53.7619 65.9036L45.7197 43.8737C45.6649 43.8346 42.3323 44.8047 41.3857 45.0941C30.4412 48.4111 18.9099 52.088 11.3058 60.6308C12.1038 62.9073 25.9663 95.2794 25.9663 95.2794C25.9663 95.2794 31.3486 90.4134 32.749 89.3025C35.2211 87.3389 37.8418 85.5239 40.7129 84.1862C49.3653 80.1573 61.1938 83.9202 68.704 77.208C70.5737 75.5338 71.0822 73.2886 70.5268 71.2859H70.5346Z" fill="#E84388" stroke="white" stroke-width="0.782311" stroke-linecap="round" stroke-linejoin="round"/>
<path d="M263.273 73.3825C263.789 71.5128 265.221 69.8621 267.356 69.0954C269.046 68.4852 270.329 68.5713 271.471 68.8607L280.225 67.0536L288.056 45.6104C288.111 45.5713 289.355 46.0329 292.429 47.1985C303.124 51.2431 314.905 54.1924 322.509 62.7352C321.516 65.0274 307.849 97.3838 307.849 97.3838C307.849 97.3838 302.466 92.5178 301.066 91.4069C298.594 89.4433 295.973 87.6284 293.102 86.2906C284.45 82.2617 272.621 86.0246 265.111 79.3124C263.241 77.6382 262.733 75.393 263.288 73.3903H263.273V73.3825Z" fill="#E84388" stroke="white" stroke-width="0.782311" stroke-linecap="round" stroke-linejoin="round"/>
<path d="M279.044 63.3297C277.346 60.8967 274.413 59.6998 271.62 58.6906L269.093 57.7675C268.123 57.392 267.153 57.0243 266.183 56.6566L263.053 73.3824C263.57 71.5127 265.001 69.862 267.137 69.0954C272.152 67.296 273.599 71.5127 278.238 69.4943C279.67 68.8685 280.28 67.875 280.296 66.7093C280.311 65.661 279.842 64.4875 279.044 63.3297Z" fill="#CB0085" stroke="#E84388" stroke-width="0.782311" stroke-miterlimit="10"/>
<path d="M55.4751 63.5957C57.1258 61.2018 59.9891 60.0284 62.7115 59.0348L65.1758 58.1273C66.1224 57.7596 67.069 57.3998 68.0156 57.0321L70.7537 72.295C70.253 70.4565 69.1656 69.995 67.0846 69.244C62.1952 67.4759 60.787 71.6222 56.2653 69.6351C54.8728 69.0249 54.2782 68.0392 54.2625 66.897C54.2469 65.8722 54.7006 64.7144 55.483 63.58V63.5957H55.4751Z" fill="#CB0085" stroke="#E84388" stroke-width="0.782311" stroke-miterlimit="10"/>
<g opacity="0.1">
<mask id="mask0_3604_16871" style="mask-type:luminance" maskUnits="userSpaceOnUse" x="11" y="0" width="312" height="98">
<path d="M292.422 47.1985C289.347 46.0329 288.103 45.5791 288.048 45.6104L293.243 31.388C293.313 30.9968 293.36 30.6057 293.368 30.2145C293.392 29.0411 290.262 24.1203 281.234 19.935C275.774 17.4003 269.977 15.6557 264.219 13.8877C254.667 10.954 244.943 8.63056 235.125 6.76865C224.321 4.719 213.416 3.24043 202.471 2.2469C190.745 1.18295 178.971 0.666626 167.205 0.666626C155.439 0.666626 143.657 1.18295 131.938 2.2469C120.994 3.24043 110.088 4.719 99.2845 6.76865C89.4744 8.63056 79.7424 10.954 70.1904 13.8877C64.4326 15.6557 58.6904 17.5333 53.1751 19.935C42.786 24.4645 41.0337 28.9628 41.0415 30.0894C41.0415 30.5196 41.0806 30.9499 41.1666 31.3802L45.7275 43.8737C45.5789 43.8737 42.3401 44.8124 41.4013 45.0941C30.4568 48.4111 18.9255 52.0879 11.3215 60.6308C12.1194 62.9073 25.982 95.2793 25.982 95.2793C25.982 95.2793 31.3643 90.4134 32.7646 89.3025C35.2367 87.3389 37.8575 85.5239 40.7286 84.1862C49.3809 80.1573 61.2095 83.9202 68.7196 77.2079C70.5894 75.5338 71.0979 73.2886 70.5424 71.2859C70.0261 69.4161 68.5945 67.7655 66.4588 66.9988C64.769 66.3964 63.486 66.4746 62.3438 66.7641L54.5129 65.9818C54.6146 65.3012 54.8414 64.6362 55.1857 64.0182C57.1884 60.4117 61.7336 59.2226 65.2853 57.8457C70.2999 55.9056 75.3458 54.0202 80.4934 52.44C89.0284 49.8192 97.7277 47.7383 106.49 46.0798C116.143 44.2492 125.891 42.9271 135.67 42.0352C146.145 41.0808 156.667 40.6271 167.189 40.6193C177.711 40.6193 188.233 41.0808 198.708 42.0352C208.495 42.9271 218.243 44.2492 227.889 46.0798C236.658 47.7383 245.358 49.8192 253.885 52.44C259.032 54.0202 264.078 55.9056 269.093 57.8457C272.645 59.2226 277.198 60.4039 279.193 64.0182C279.725 64.9726 279.959 66.0365 279.928 67.1083L271.448 68.8607C270.306 68.5712 269.03 68.4852 267.333 69.0954C265.197 69.862 263.765 71.5127 263.249 73.3825C262.694 75.3852 263.202 77.6382 265.072 79.3046C272.59 86.0168 284.411 82.246 293.063 86.2828C295.934 87.6205 298.555 89.4355 301.027 91.3991C302.427 92.51 307.81 97.3759 307.81 97.3759C307.81 97.3759 321.477 65.0117 322.47 62.7274C314.866 54.1845 303.084 51.243 292.39 47.1907H292.422V47.1985Z" fill="white"/>
</mask>
<g mask="url(#mask0_3604_16871)">
<rect x="81.6714" y="-171.858" width="7.82311" height="471.38" transform="rotate(45 81.6714 -171.858)" fill="white"/>
<rect x="92.7349" y="-160.794" width="7.82311" height="471.38" transform="rotate(45 92.7349 -160.794)" fill="white"/>
<rect x="103.798" y="-149.731" width="7.82311" height="471.38" transform="rotate(45 103.798 -149.731)" fill="white"/>
<rect x="114.862" y="-138.667" width="7.82311" height="471.38" transform="rotate(45 114.862 -138.667)" fill="white"/>
<rect x="125.926" y="-127.604" width="7.82311" height="471.38" transform="rotate(45 125.926 -127.604)" fill="white"/>
<rect x="136.989" y="-116.54" width="7.82311" height="471.38" transform="rotate(45 136.989 -116.54)" fill="white"/>
<rect x="148.053" y="-105.477" width="7.82311" height="471.38" transform="rotate(45 148.053 -105.477)" fill="white"/>
<rect x="159.116" y="-94.4132" width="7.82311" height="471.38" transform="rotate(45 159.116 -94.4132)" fill="white"/>
<rect x="170.18" y="-83.3496" width="7.82311" height="471.38" transform="rotate(45 170.18 -83.3496)" fill="white"/>
<rect x="181.243" y="-72.2861" width="7.82311" height="471.38" transform="rotate(45 181.243 -72.2861)" fill="white"/>
<rect x="192.307" y="-61.2225" width="7.82311" height="471.38" transform="rotate(45 192.307 -61.2225)" fill="white"/>
<rect x="203.37" y="-50.1589" width="7.82311" height="471.38" transform="rotate(45 203.37 -50.1589)" fill="white"/>
<rect x="214.434" y="-39.0955" width="7.82311" height="471.38" transform="rotate(45 214.434 -39.0955)" fill="white"/>
<rect x="225.497" y="-28.0319" width="7.82311" height="471.38" transform="rotate(45 225.497 -28.0319)" fill="white"/>
<rect x="236.561" y="-16.9684" width="7.82311" height="471.38" transform="rotate(45 236.561 -16.9684)" fill="white"/>
<rect x="247.625" y="-5.90479" width="7.82311" height="471.38" transform="rotate(45 247.625 -5.90479)" fill="white"/>
<rect x="413.894" y="-171.858" width="7.82311" height="471.38" transform="rotate(45 413.894 -171.858)" fill="white"/>
<rect x="424.957" y="-160.794" width="7.82311" height="471.38" transform="rotate(45 424.957 -160.794)" fill="white"/>
<rect x="436.021" y="-149.731" width="7.82311" height="471.38" transform="rotate(45 436.021 -149.731)" fill="white"/>
<rect x="447.084" y="-138.667" width="7.82311" height="471.38" transform="rotate(45 447.084 -138.667)" fill="white"/>
<rect x="458.148" y="-127.604" width="7.82311" height="471.38" transform="rotate(45 458.148 -127.604)" fill="white"/>
<rect x="469.211" y="-116.54" width="7.82311" height="471.38" transform="rotate(45 469.211 -116.54)" fill="white"/>
<rect x="480.275" y="-105.477" width="7.82311" height="471.38" transform="rotate(45 480.275 -105.477)" fill="white"/>
<rect x="491.338" y="-94.4132" width="7.82311" height="471.38" transform="rotate(45 491.338 -94.4132)" fill="white"/>
<rect x="502.402" y="-83.3496" width="7.82311" height="471.38" transform="rotate(45 502.402 -83.3496)" fill="white"/>
<rect x="513.465" y="-72.2861" width="7.82311" height="471.38" transform="rotate(45 513.465 -72.2861)" fill="white"/>
<rect x="524.529" y="-61.2225" width="7.82311" height="471.38" transform="rotate(45 524.529 -61.2225)" fill="white"/>
<rect x="535.593" y="-50.1589" width="7.82311" height="471.38" transform="rotate(45 535.593 -50.1589)" fill="white"/>
<rect x="546.656" y="-39.0955" width="7.82311" height="471.38" transform="rotate(45 546.656 -39.0955)" fill="white"/>
<rect x="557.72" y="-28.0319" width="7.82311" height="471.38" transform="rotate(45 557.72 -28.0319)" fill="white"/>
<rect x="568.783" y="-16.9684" width="7.82311" height="471.38" transform="rotate(45 568.783 -16.9684)" fill="white"/>
<rect x="579.847" y="-5.90479" width="7.82311" height="471.38" transform="rotate(45 579.847 -5.90479)" fill="white"/>
</g>
</g>
<path d="M116.158 24.2209L115.964 25.7192L119.102 25.2876L118.511 23.8972C117.912 22.5805 117.347 21.1138 116.777 19.7387L116.688 19.751C116.547 21.242 116.361 22.7938 116.158 24.2209ZM112.539 31.7318L114.948 17.937L118.051 17.5103L124.112 30.1404L121.348 30.5204L119.955 27.2598L115.675 27.8484L115.214 31.364L112.539 31.7318Z" fill="white"/>
<path d="M128.062 29.998C126.72 30.1416 125.189 29.708 124.099 28.992L125.122 27.2171C126.091 27.8193 126.993 28.1211 127.923 28.0215C128.926 27.9143 129.327 27.4368 129.26 26.8104C129.18 26.0587 128.105 25.8297 127.005 25.5311C125.683 25.1838 124.186 24.5655 124.006 22.8832C123.815 21.0934 125.128 19.6675 127.419 19.4223C128.869 19.2672 130.062 19.755 130.952 20.2934L129.941 22.0127C129.17 21.5703 128.435 21.3049 127.702 21.3834C126.789 21.4811 126.401 21.9208 126.463 22.4936C126.541 23.2274 127.501 23.3962 128.599 23.677C129.977 24.0364 131.515 24.5416 131.715 26.4029C131.902 28.1569 130.675 29.7183 128.062 29.998Z" fill="white"/>
<path d="M133.87 29.1439L132.75 14.8236L135.387 14.6172L135.67 18.2242L135.691 20.1183C136.44 19.3014 137.371 18.5064 138.735 18.3997C140.906 18.2298 141.957 19.6641 142.155 22.1944L142.645 28.4573L140.007 28.6637L139.542 22.7238C139.42 21.1626 138.948 20.6579 137.961 20.7352C137.135 20.7998 136.646 21.2353 135.967 22.0286L136.508 28.9375L133.87 29.1439Z" fill="white"/>
<path d="M150.157 15.2183L163.149 14.8704L163.212 17.2275L150.221 17.5755L150.157 15.2183ZM148.942 25.6406L164.92 25.2126L164.986 27.6777L149.008 28.1057L148.942 25.6406Z" fill="white"/>
<path d="M182.713 20.5064L182.672 22.648L175.546 22.5146L175.465 26.8339C175.442 28.0757 175.161 28.6465 174.291 28.9723C173.438 29.2984 172.178 29.3288 170.54 29.2802C170.408 28.6476 170.013 27.65 169.682 27.0497C170.923 27.1269 172.308 27.1529 172.722 27.1606C173.1 27.1677 173.228 27.0801 173.234 26.7561L173.314 22.4729L166.169 22.3392L166.209 20.1976L173.354 20.3313L173.407 17.4878L174.469 17.5076C175.361 17.0022 176.291 16.3715 177.076 15.7561L168.168 15.5894L168.207 13.4838L179.347 13.6922L179.835 13.5933L181.45 14.8478C179.891 16.4029 177.663 18.0895 175.607 19.2212L175.586 20.373L182.713 20.5064Z" fill="white"/>
<path d="M192.484 27.3936L199.615 27.8557L199.48 29.9393L183.207 28.8848L183.342 26.8012L190.131 27.2411L190.448 22.3554L185.311 22.0225L185.446 19.9389L190.583 20.2718L190.839 16.32L184.84 15.9313L184.976 13.8297L199.633 14.7795L199.497 16.8811L193.192 16.4725L192.936 20.4242L198.45 20.7816L198.315 22.8652L192.801 22.5079L192.484 27.3936ZM193.837 24.0541L195.462 22.9148C196.373 23.8937 197.707 25.2969 198.354 26.1686L196.644 27.5008C196.052 26.6147 194.76 25.124 193.837 24.0541Z" fill="white"/>
<path d="M203.802 15.0086L206.002 15.2587L205.301 21.429C204.906 24.8986 204.225 28.4987 201.54 30.9289C201.183 30.3993 200.406 29.5863 199.89 29.1835C202.193 27.0902 202.767 24.112 203.103 21.161L203.802 15.0086ZM209.17 16.3977L211.352 16.6458L209.839 29.9521L207.657 29.7041L209.17 16.3977ZM214.698 16.211L216.952 16.4671L215.157 32.2594L212.903 32.0033L214.698 16.211Z" fill="white"/>
</g>
<defs>
<clipPath id="clip0_3604_16871">
<rect width="334" height="100" fill="white" transform="translate(0 0.666626)"/>
</clipPath>
</defs>
</svg>
