<svg width="300" height="90" viewBox="0 0 300 90" fill="none" xmlns="http://www.w3.org/2000/svg">
<g clip-path="url(#clip0_1702_14520)">
<path d="M9.76811 47.4494C10.5987 49.7946 9.37026 52.3772 7.01803 53.2078C4.67278 54.0384 2.09022 52.8099 1.25961 50.4577C0.429003 48.1124 1.65747 45.5299 4.00969 44.6993C6.35494 43.8687 8.9375 45.0971 9.76811 47.4494Z" fill="#F5CD1E"/>
<path d="M9.27694 54.0779L6.54846 55.2598L40.1285 132.784L42.8569 131.602L9.27694 54.0779Z" fill="#F5CD1E"/>
<path d="M289.969 49.0897C289.16 51.4419 290.409 54.0105 292.761 54.8271C295.113 55.6368 297.682 54.3874 298.499 52.0352C299.308 49.683 298.059 47.1143 295.707 46.3047C293.354 45.495 290.786 46.7444 289.969 49.0966V49.0897Z" fill="#F5CD1E"/>
<path d="M290.508 55.7157L257.552 133.507L260.29 134.667L293.246 56.8757L290.508 55.7157Z" fill="#F5CD1E"/>
<path d="M250.679 60.1528C250.917 58.9104 250.728 57.64 250.114 56.5302C248.327 53.3125 244.272 52.2516 241.103 51.0231C236.629 49.2921 232.127 47.6099 227.534 46.2C219.919 43.8617 212.157 42.0051 204.34 40.5253C195.727 38.892 187.03 37.7124 178.305 36.9167C168.959 36.0652 159.571 35.6603 150.183 35.6534C140.795 35.6534 131.407 36.0652 122.061 36.9167C113.329 37.7124 104.632 38.892 96.0257 40.5253C88.2012 42.0051 80.4396 43.8617 72.8315 46.2C68.2387 47.6099 63.7367 49.2921 59.2626 51.0231C56.0937 52.2516 52.0314 53.3055 50.2515 56.5302C49.6373 57.64 49.4488 58.9104 49.6862 60.1528L37.7366 27.4171C37.6668 27.0332 37.6249 26.6493 37.6249 26.2654C37.6249 25.2533 39.1814 21.2468 48.4507 17.2055C53.3715 15.0557 58.4948 13.3875 63.632 11.81C72.1544 9.19254 80.8305 7.11952 89.5902 5.4583C99.2295 3.62957 108.959 2.31037 118.724 1.42392C129.187 0.474654 139.692 0.0139771 150.19 0.0139771C160.688 0.0139771 171.199 0.474654 181.655 1.42392C191.42 2.31037 201.15 3.62957 210.789 5.4583C219.542 7.11952 228.225 9.19254 236.748 11.81C241.885 13.3875 247.057 14.951 251.929 17.2055C259.984 20.9327 262.776 25.3301 262.755 26.3771C262.748 26.7261 262.713 27.0751 262.643 27.4241L250.693 60.1598H250.679V60.1528Z" fill="#E84388" stroke="white" stroke-width="0.69799" stroke-linecap="round" stroke-linejoin="round"/>
<path d="M63.9321 63.0076C63.4714 61.3394 62.1941 59.8666 60.2886 59.1826C58.781 58.6381 57.6362 58.7149 56.6172 58.9732L48.9672 58.2054L41.7919 38.55C41.743 38.5151 38.7696 39.3806 37.925 39.6388C28.1601 42.5983 17.8717 45.8789 11.0873 53.5009C11.7992 55.5321 24.1676 84.4149 24.1676 84.4149C24.1676 84.4149 28.9698 80.0734 30.2192 79.0823C32.4248 77.3303 34.7631 75.711 37.3247 74.5174C45.0445 70.9228 55.5981 74.2801 62.2988 68.2913C63.967 66.7976 64.4207 64.7944 63.9251 63.0076H63.9321Z" fill="#E84388" stroke="white" stroke-width="0.69799" stroke-linecap="round" stroke-linejoin="round"/>
<path d="M235.896 64.8782C236.357 63.21 237.634 61.7373 239.54 61.0532C241.047 60.5088 242.192 60.5856 243.211 60.8438L251.021 59.2315L258.008 40.0996C258.057 40.0647 259.167 40.4765 261.91 41.5165C271.452 45.1251 281.963 47.7565 288.748 55.3786C287.861 57.4237 275.667 86.2926 275.667 86.2926C275.667 86.2926 270.865 81.951 269.616 80.9599C267.41 79.2079 265.072 77.5886 262.51 76.3951C254.791 72.8004 244.237 76.1577 237.536 70.169C235.868 68.6753 235.414 66.672 235.91 64.8852H235.896V64.8782Z" fill="#E84388" stroke="white" stroke-width="0.69799" stroke-linecap="round" stroke-linejoin="round"/>
<path d="M249.967 55.909C248.453 53.7383 245.835 52.6704 243.344 51.7699L241.089 50.9463C240.223 50.6113 239.358 50.2832 238.492 49.9552L235.701 64.8782C236.161 63.21 237.438 61.7372 239.344 61.0532C243.818 59.4478 245.109 63.21 249.248 61.4092C250.526 60.8508 251.07 59.9644 251.084 58.9243C251.098 57.989 250.679 56.942 249.967 55.909Z" fill="#CB0085" stroke="#E84388" stroke-width="0.69799" stroke-miterlimit="10"/>
<path d="M50.4958 56.1463C51.9686 54.0105 54.5232 52.9635 56.9522 52.0771L59.1509 51.2674C59.9955 50.9393 60.84 50.6183 61.6846 50.2902L64.1276 63.908C63.6809 62.2677 62.7106 61.8559 60.854 61.1858C56.4916 59.6084 55.2352 63.3077 51.2008 61.5348C49.9584 60.9904 49.4279 60.1109 49.4139 59.0919C49.4 58.1775 49.8048 57.1445 50.5028 56.1324V56.1463H50.4958Z" fill="#CB0085" stroke="#E84388" stroke-width="0.69799" stroke-miterlimit="10"/>
<g opacity="0.1">
<mask id="mask0_1702_14520" style="mask-type:luminance" maskUnits="userSpaceOnUse" x="11" y="0" width="278" height="87">
<path d="M261.903 41.5165C259.16 40.4765 258.05 40.0716 258.001 40.0995L262.636 27.4101C262.699 27.0611 262.741 26.7121 262.748 26.3631C262.769 25.3161 259.977 20.9257 251.922 17.1915C247.05 14.93 241.878 13.3735 236.741 11.796C228.218 9.17858 219.542 7.10554 210.782 5.44432C201.143 3.61559 191.413 2.29639 181.648 1.40994C171.185 0.460676 160.681 0 150.183 0C139.685 0 129.173 0.460676 118.717 1.40994C108.953 2.29639 99.2225 3.61559 89.5833 5.44432C80.8305 7.10554 72.1475 9.17858 63.625 11.796C58.4878 13.3735 53.3646 15.0487 48.4437 17.1915C39.1744 21.2329 37.6109 25.2463 37.6179 26.2514C37.6179 26.6353 37.6528 27.0192 37.7296 27.4031L41.7989 38.55C41.6663 38.55 38.7766 39.3876 37.939 39.6389C28.1741 42.5983 17.8857 45.8789 11.1013 53.5009C11.8132 55.5321 24.1816 84.4149 24.1816 84.4149C24.1816 84.4149 28.9838 80.0734 30.2332 79.0823C32.4388 77.3303 34.7771 75.711 37.3387 74.5174C45.0585 70.9228 55.6121 74.2801 62.3128 68.2914C63.981 66.7977 64.4347 64.7944 63.9391 63.0076C63.4784 61.3394 62.2011 59.8666 60.2956 59.1826C58.7879 58.6451 57.6432 58.7149 56.6242 58.9732L49.6373 58.2752C49.728 57.6679 49.9305 57.0747 50.2376 56.5232C52.0244 53.3055 56.0797 52.2446 59.2486 51.0161C63.7227 49.2851 68.2248 47.6029 72.8175 46.193C80.4326 43.8547 88.1943 41.9981 96.0118 40.5183C104.625 38.885 113.322 37.7054 122.047 36.9097C131.393 36.0582 140.781 35.6533 150.169 35.6464C159.557 35.6464 168.945 36.0582 178.291 36.9097C187.023 37.7054 195.72 38.885 204.326 40.5183C212.15 41.9981 219.912 43.8547 227.52 46.193C232.113 47.6029 236.615 49.2851 241.089 51.0161C244.258 52.2446 248.32 53.2985 250.1 56.5232C250.575 57.3748 250.784 58.3241 250.756 59.2803L243.19 60.8438C242.171 60.5856 241.033 60.5088 239.519 61.0532C237.613 61.7372 236.336 63.21 235.875 64.8782C235.379 66.665 235.833 68.6753 237.501 70.162C244.209 76.1507 254.756 72.7864 262.475 76.388C265.037 77.5816 267.375 79.2009 269.581 80.9529C270.83 81.944 275.633 86.2855 275.633 86.2855C275.633 86.2855 287.826 57.4097 288.713 55.3716C281.928 47.7495 271.417 45.1251 261.875 41.5095H261.903V41.5165Z" fill="white"/>
</mask>
<g mask="url(#mask0_1702_14520)">
<rect x="73.8685" y="-153.929" width="6.9799" height="420.573" transform="rotate(45 73.8685 -153.929)" fill="white"/>
<rect x="83.7396" y="-144.058" width="6.9799" height="420.573" transform="rotate(45 83.7396 -144.058)" fill="white"/>
<rect x="93.6107" y="-134.187" width="6.9799" height="420.573" transform="rotate(45 93.6107 -134.187)" fill="white"/>
<rect x="103.482" y="-124.316" width="6.9799" height="420.573" transform="rotate(45 103.482 -124.316)" fill="white"/>
<rect x="113.353" y="-114.445" width="6.9799" height="420.573" transform="rotate(45 113.353 -114.445)" fill="white"/>
<rect x="123.224" y="-104.574" width="6.9799" height="420.573" transform="rotate(45 123.224 -104.574)" fill="white"/>
<rect x="133.095" y="-94.7028" width="6.9799" height="420.573" transform="rotate(45 133.095 -94.7028)" fill="white"/>
<rect x="142.966" y="-84.8317" width="6.9799" height="420.573" transform="rotate(45 142.966 -84.8317)" fill="white"/>
<rect x="152.837" y="-74.9606" width="6.9799" height="420.573" transform="rotate(45 152.837 -74.9606)" fill="white"/>
<rect x="162.708" y="-65.0896" width="6.9799" height="420.573" transform="rotate(45 162.708 -65.0896)" fill="white"/>
<rect x="172.579" y="-55.2185" width="6.9799" height="420.573" transform="rotate(45 172.579 -55.2185)" fill="white"/>
<rect x="182.45" y="-45.3474" width="6.9799" height="420.573" transform="rotate(45 182.45 -45.3474)" fill="white"/>
<rect x="192.321" y="-35.4763" width="6.9799" height="420.573" transform="rotate(45 192.321 -35.4763)" fill="white"/>
<rect x="202.192" y="-25.6053" width="6.9799" height="420.573" transform="rotate(45 202.192 -25.6053)" fill="white"/>
<rect x="212.063" y="-15.7343" width="6.9799" height="420.573" transform="rotate(45 212.063 -15.7343)" fill="white"/>
<rect x="221.935" y="-5.86316" width="6.9799" height="420.573" transform="rotate(45 221.935 -5.86316)" fill="white"/>
<rect x="370.282" y="-153.929" width="6.9799" height="420.573" transform="rotate(45 370.282 -153.929)" fill="white"/>
<rect x="380.153" y="-144.058" width="6.9799" height="420.573" transform="rotate(45 380.153 -144.058)" fill="white"/>
<rect x="390.024" y="-134.187" width="6.9799" height="420.573" transform="rotate(45 390.024 -134.187)" fill="white"/>
<rect x="399.896" y="-124.316" width="6.9799" height="420.573" transform="rotate(45 399.896 -124.316)" fill="white"/>
<rect x="409.767" y="-114.445" width="6.9799" height="420.573" transform="rotate(45 409.767 -114.445)" fill="white"/>
<rect x="419.638" y="-104.574" width="6.9799" height="420.573" transform="rotate(45 419.638 -104.574)" fill="white"/>
<rect x="429.509" y="-94.7028" width="6.9799" height="420.573" transform="rotate(45 429.509 -94.7028)" fill="white"/>
<rect x="439.38" y="-84.8317" width="6.9799" height="420.573" transform="rotate(45 439.38 -84.8317)" fill="white"/>
<rect x="449.251" y="-74.9606" width="6.9799" height="420.573" transform="rotate(45 449.251 -74.9606)" fill="white"/>
<rect x="459.122" y="-65.0896" width="6.9799" height="420.573" transform="rotate(45 459.122 -65.0896)" fill="white"/>
<rect x="468.993" y="-55.2185" width="6.9799" height="420.573" transform="rotate(45 468.993 -55.2185)" fill="white"/>
<rect x="478.864" y="-45.3474" width="6.9799" height="420.573" transform="rotate(45 478.864 -45.3474)" fill="white"/>
<rect x="488.735" y="-35.4764" width="6.9799" height="420.573" transform="rotate(45 488.735 -35.4764)" fill="white"/>
<rect x="498.606" y="-25.6053" width="6.9799" height="420.573" transform="rotate(45 498.606 -25.6053)" fill="white"/>
<rect x="508.477" y="-15.7343" width="6.9799" height="420.573" transform="rotate(45 508.477 -15.7343)" fill="white"/>
<rect x="518.348" y="-5.86313" width="6.9799" height="420.573" transform="rotate(45 518.348 -5.86313)" fill="white"/>
</g>
</g>
<path d="M92.382 21.193L90.5945 19.9886C90.8989 19.6176 91.1108 19.2918 91.3997 18.8475C91.8305 18.1689 92.542 16.7668 93.1606 15.5886C93.7125 14.5779 94.3542 14.3525 95.5349 14.9833C96.4986 15.4941 97.6223 16.2774 98.5534 16.9355C99.5586 17.6418 101.161 18.7578 102.256 19.5855L101.252 21.2923C100.255 20.4439 98.8655 19.372 97.9659 18.6817C97.0192 17.9502 95.7493 17.0191 95.2169 16.7361C94.7115 16.4602 94.4916 16.5068 94.2426 17.0192C93.8833 17.7338 93.2844 19.1248 92.9232 19.8908L92.382 21.193Z" fill="white"/>
<path d="M92.382 21.193L90.5945 19.9886C90.8989 19.6176 91.1108 19.2918 91.3997 18.8475C91.8305 18.1689 92.542 16.7668 93.1606 15.5886C93.7125 14.5779 94.3542 14.3525 95.5349 14.9833C96.4986 15.4941 97.6223 16.2774 98.5534 16.9355C99.5586 17.6418 101.161 18.7578 102.256 19.5855L101.252 21.2923C100.255 20.4439 98.8655 19.372 97.9659 18.6817C97.0192 17.9502 95.7493 17.0191 95.2169 16.7361C94.7115 16.4602 94.4916 16.5068 94.2426 17.0192C93.8833 17.7338 93.2844 19.1248 92.9232 19.8908L92.382 21.193Z" fill="white"/>
<path d="M92.382 21.193L90.5945 19.9886C90.8989 19.6176 91.1108 19.2918 91.3997 18.8475C91.8305 18.1689 92.542 16.7668 93.1606 15.5886C93.7125 14.5779 94.3542 14.3525 95.5349 14.9833C96.4986 15.4941 97.6223 16.2774 98.5534 16.9355C99.5586 17.6418 101.161 18.7578 102.256 19.5855L101.252 21.2923C100.255 20.4439 98.8655 19.372 97.9659 18.6817C97.0192 17.9502 95.7493 17.0191 95.2169 16.7361C94.7115 16.4602 94.4916 16.5068 94.2426 17.0192C93.8833 17.7338 93.2844 19.1248 92.9232 19.8908L92.382 21.193Z" fill="white"/>
<path d="M107.369 13.7785L109.162 13.5231C109.599 16.5899 109.897 19.1214 106.778 21.4078L105.176 20.4373C105.552 20.2449 105.968 19.9713 106.378 19.5722C107.793 18.2603 107.903 16.9072 107.614 14.8791C107.56 14.4958 107.487 14.1654 107.369 13.7785ZM112.85 10.3607L113.97 11.1349C113.857 11.315 113.664 11.6453 113.579 11.8466C113.135 12.894 112.183 14.6195 111.082 15.6595L109.662 14.8146C110.565 14.0677 111.374 12.8421 111.609 12.1903L105.167 13.1081C104.647 13.1821 104.244 13.2773 103.67 13.4096L103.425 11.6907C103.906 11.698 104.432 11.6734 104.952 11.5994L111.617 10.6499C111.963 10.6006 112.638 10.4666 112.85 10.3607Z" fill="white"/>
<path d="M107.369 13.7785L109.162 13.5231C109.599 16.5899 109.897 19.1214 106.778 21.4078L105.176 20.4373C105.552 20.2449 105.968 19.9713 106.378 19.5722C107.793 18.2603 107.903 16.9072 107.614 14.8791C107.56 14.4958 107.487 14.1654 107.369 13.7785ZM112.85 10.3607L113.97 11.1349C113.857 11.315 113.664 11.6453 113.579 11.8466C113.135 12.894 112.183 14.6195 111.082 15.6595L109.662 14.8146C110.565 14.0677 111.374 12.8421 111.609 12.1903L105.167 13.1081C104.647 13.1821 104.244 13.2773 103.67 13.4096L103.425 11.6907C103.906 11.698 104.432 11.6734 104.952 11.5994L111.617 10.6499C111.963 10.6006 112.638 10.4666 112.85 10.3607Z" fill="white"/>
<path d="M107.369 13.7785L109.162 13.5231C109.599 16.5899 109.897 19.1214 106.778 21.4078L105.176 20.4373C105.552 20.2449 105.968 19.9713 106.378 19.5722C107.793 18.2603 107.903 16.9072 107.614 14.8791C107.56 14.4958 107.487 14.1654 107.369 13.7785ZM112.85 10.3607L113.97 11.1349C113.857 11.315 113.664 11.6453 113.579 11.8466C113.135 12.894 112.183 14.6195 111.082 15.6595L109.662 14.8146C110.565 14.0677 111.374 12.8421 111.609 12.1903L105.167 13.1081C104.647 13.1821 104.244 13.2773 103.67 13.4096L103.425 11.6907C103.906 11.698 104.432 11.6734 104.952 11.5994L111.617 10.6499C111.963 10.6006 112.638 10.4666 112.85 10.3607Z" fill="white"/>
<path d="M116.599 15.5291L116.422 13.5759C116.874 13.5728 117.785 13.5281 118.432 13.4697L125.112 12.8664C125.685 12.8147 126.24 12.7144 126.561 12.6603L126.738 14.6134C126.438 14.6279 125.799 14.6355 125.276 14.6827L118.596 15.286C117.887 15.35 117.056 15.4502 116.599 15.5291Z" fill="white"/>
<path d="M116.599 15.5291L116.422 13.5759C116.874 13.5728 117.785 13.5281 118.432 13.4697L125.112 12.8664C125.685 12.8147 126.24 12.7144 126.561 12.6603L126.738 14.6134C126.438 14.6279 125.799 14.6355 125.276 14.6827L118.596 15.286C117.887 15.35 117.056 15.4502 116.599 15.5291Z" fill="white"/>
<path d="M116.599 15.5291L116.422 13.5759C116.874 13.5728 117.785 13.5281 118.432 13.4697L125.112 12.8664C125.685 12.8147 126.24 12.7144 126.561 12.6603L126.738 14.6134C126.438 14.6279 125.799 14.6355 125.276 14.6827L118.596 15.286C117.887 15.35 117.056 15.4502 116.599 15.5291Z" fill="white"/>
<path d="M137.31 10.4291L138.234 10.3865C138.895 10.3559 139.268 10.3137 139.602 10.2357L139.679 11.8953C139.403 11.883 138.966 11.8907 138.305 11.9212L137.381 11.9639L137.4 12.3756C137.543 15.4701 136.882 17.3888 133.936 18.8504L132.542 17.6518C134.912 16.7046 135.922 15.57 135.781 12.513L135.759 12.0388L132.802 12.1754L132.88 13.8724C132.906 14.4214 132.967 14.9313 132.991 15.1802L131.244 15.2609C131.27 15.0096 131.284 14.5088 131.258 13.9473L131.18 12.2503L130.119 12.2993C129.495 12.3281 129.047 12.3739 128.774 12.4115L128.696 10.7145C128.922 10.7416 129.424 10.7934 130.048 10.7646L131.109 10.7156L131.052 9.48028C131.03 9.00613 130.961 8.59667 130.925 8.36075L132.697 8.2789C132.67 8.51771 132.651 8.91872 132.675 9.41783L132.731 10.6406L135.688 10.504L135.628 9.19389C135.605 8.69478 135.548 8.28474 135.499 8.03692L137.271 7.95507C137.258 8.20578 137.227 8.61985 137.25 9.11896L137.31 10.4291Z" fill="white"/>
<path d="M137.31 10.4291L138.234 10.3865C138.895 10.3559 139.268 10.3137 139.602 10.2357L139.679 11.8953C139.403 11.883 138.966 11.8907 138.305 11.9212L137.381 11.9639L137.4 12.3756C137.543 15.4701 136.882 17.3888 133.936 18.8504L132.542 17.6518C134.912 16.7046 135.922 15.57 135.781 12.513L135.759 12.0388L132.802 12.1754L132.88 13.8724C132.906 14.4214 132.967 14.9313 132.991 15.1802L131.244 15.2609C131.27 15.0096 131.284 14.5088 131.258 13.9473L131.18 12.2503L130.119 12.2993C129.495 12.3281 129.047 12.3739 128.774 12.4115L128.696 10.7145C128.922 10.7416 129.424 10.7934 130.048 10.7646L131.109 10.7156L131.052 9.48028C131.03 9.00613 130.961 8.59667 130.925 8.36075L132.697 8.2789C132.67 8.51771 132.651 8.91872 132.675 9.41783L132.731 10.6406L135.688 10.504L135.628 9.19389C135.605 8.69478 135.548 8.28474 135.499 8.03692L137.271 7.95507C137.258 8.20578 137.227 8.61985 137.25 9.11896L137.31 10.4291Z" fill="white"/>
<path d="M137.31 10.4291L138.234 10.3865C138.895 10.3559 139.268 10.3137 139.602 10.2357L139.679 11.8953C139.403 11.883 138.966 11.8907 138.305 11.9212L137.381 11.9639L137.4 12.3756C137.543 15.4701 136.882 17.3888 133.936 18.8504L132.542 17.6518C134.912 16.7046 135.922 15.57 135.781 12.513L135.759 12.0388L132.802 12.1754L132.88 13.8724C132.906 14.4214 132.967 14.9313 132.991 15.1802L131.244 15.2609C131.27 15.0096 131.284 14.5088 131.258 13.9473L131.18 12.2503L130.119 12.2993C129.495 12.3281 129.047 12.3739 128.774 12.4115L128.696 10.7145C128.922 10.7416 129.424 10.7934 130.048 10.7646L131.109 10.7156L131.052 9.48028C131.03 9.00613 130.961 8.59667 130.925 8.36075L132.697 8.2789C132.67 8.51771 132.651 8.91872 132.675 9.41783L132.731 10.6406L135.688 10.504L135.628 9.19389C135.605 8.69478 135.548 8.28474 135.499 8.03692L137.271 7.95507C137.258 8.20578 137.227 8.61985 137.25 9.11896L137.31 10.4291Z" fill="white"/>
<path d="M150.191 10.4493L144.158 10.4853L144.189 15.669L150.222 15.6329L150.191 10.4493ZM151.863 10.0395L151.899 16.16C151.902 16.6472 151.934 17.8461 151.935 17.8961L150.211 17.9064L150.219 17.2193L144.199 17.2554L144.215 17.9423L142.491 17.9526C142.504 17.8901 142.522 16.8032 142.518 16.2037L142.482 10.0957C142.48 9.74591 142.477 9.23379 142.45 8.88419C142.962 8.89362 143.437 8.90327 143.774 8.90126L150.644 8.86016C150.956 8.85829 151.431 8.85546 151.88 8.82778C151.858 9.20266 151.86 9.66482 151.863 10.0395Z" fill="white"/>
<path d="M150.191 10.4493L144.158 10.4853L144.189 15.669L150.222 15.6329L150.191 10.4493ZM151.863 10.0395L151.899 16.16C151.902 16.6472 151.934 17.8461 151.935 17.8961L150.211 17.9064L150.219 17.2193L144.199 17.2554L144.215 17.9423L142.491 17.9526C142.504 17.8901 142.522 16.8032 142.518 16.2037L142.482 10.0957C142.48 9.74591 142.477 9.23379 142.45 8.88419C142.962 8.89362 143.437 8.90327 143.774 8.90126L150.644 8.86016C150.956 8.85829 151.431 8.85546 151.88 8.82778C151.858 9.20266 151.86 9.66482 151.863 10.0395Z" fill="white"/>
<path d="M150.191 10.4493L144.158 10.4853L144.189 15.669L150.222 15.6329L150.191 10.4493ZM151.863 10.0395L151.899 16.16C151.902 16.6472 151.934 17.8461 151.935 17.8961L150.211 17.9064L150.219 17.2193L144.199 17.2554L144.215 17.9423L142.491 17.9526C142.504 17.8901 142.522 16.8032 142.518 16.2037L142.482 10.0957C142.48 9.74591 142.477 9.23379 142.45 8.88419C142.962 8.89362 143.437 8.90327 143.774 8.90126L150.644 8.86016C150.956 8.85829 151.431 8.85546 151.88 8.82778C151.858 9.20266 151.86 9.66482 151.863 10.0395Z" fill="white"/>
<path d="M157.485 8.30858C158.338 8.92592 159.916 10.281 160.613 11.0554L159.294 12.3216C158.67 11.5997 157.157 10.1844 156.268 9.51581L157.485 8.30858ZM155.633 16.5678C157.59 16.3614 159.235 15.7816 160.472 15.1C162.638 13.9135 164.34 12.0609 165.186 10.4032L166.098 12.1974C165.09 13.8495 163.369 15.514 161.317 16.6545C160.03 17.3718 158.395 18.0144 156.624 18.2524L155.633 16.5678Z" fill="white"/>
<path d="M157.485 8.30858C158.338 8.92592 159.916 10.281 160.613 11.0554L159.294 12.3216C158.67 11.5997 157.157 10.1844 156.268 9.51581L157.485 8.30858ZM155.633 16.5678C157.59 16.3614 159.235 15.7816 160.472 15.1C162.638 13.9135 164.34 12.0609 165.186 10.4032L166.098 12.1974C165.09 13.8495 163.369 15.514 161.317 16.6545C160.03 17.3718 158.395 18.0144 156.624 18.2524L155.633 16.5678Z" fill="white"/>
<path d="M157.485 8.30858C158.338 8.92592 159.916 10.281 160.613 11.0554L159.294 12.3216C158.67 11.5997 157.157 10.1844 156.268 9.51581L157.485 8.30858ZM155.633 16.5678C157.59 16.3614 159.235 15.7816 160.472 15.1C162.638 13.9135 164.34 12.0609 165.186 10.4032L166.098 12.1974C165.09 13.8495 163.369 15.514 161.317 16.6545C160.03 17.3718 158.395 18.0144 156.624 18.2524L155.633 16.5678Z" fill="white"/>
<path d="M169.593 17.6234C171.675 16.9452 173.103 15.8154 174.114 14.5781C175.138 13.3168 175.596 11.9365 175.874 10.9307C176.043 10.3675 176.141 9.74868 176.153 9.43637L178.148 9.87894C177.962 10.3406 177.778 10.9402 177.663 11.2947C177.226 12.7267 176.61 14.2075 175.593 15.532C174.505 16.9637 173.018 18.2142 170.976 19.0209L169.593 17.6234ZM168.338 9.72113L169.996 9.02254C170.551 9.94249 171.474 11.9308 171.868 12.8382L170.152 13.645C169.727 12.4971 168.937 10.7197 168.338 9.72113Z" fill="white"/>
<path d="M169.593 17.6234C171.675 16.9452 173.103 15.8154 174.114 14.5781C175.138 13.3168 175.596 11.9365 175.874 10.9307C176.043 10.3675 176.141 9.74868 176.153 9.43637L178.148 9.87894C177.962 10.3406 177.778 10.9402 177.663 11.2947C177.226 12.7267 176.61 14.2075 175.593 15.532C174.505 16.9637 173.018 18.2142 170.976 19.0209L169.593 17.6234ZM168.338 9.72113L169.996 9.02254C170.551 9.94249 171.474 11.9308 171.868 12.8382L170.152 13.645C169.727 12.4971 168.937 10.7197 168.338 9.72113Z" fill="white"/>
<path d="M169.593 17.6234C171.675 16.9452 173.103 15.8154 174.114 14.5781C175.138 13.3168 175.596 11.9365 175.874 10.9307C176.043 10.3675 176.141 9.74868 176.153 9.43637L178.148 9.87894C177.962 10.3406 177.778 10.9402 177.663 11.2947C177.226 12.7267 176.61 14.2075 175.593 15.532C174.505 16.9637 173.018 18.2142 170.976 19.0209L169.593 17.6234ZM168.338 9.72113L169.996 9.02254C170.551 9.94249 171.474 11.9308 171.868 12.8382L170.152 13.645C169.727 12.4971 168.937 10.7197 168.338 9.72113Z" fill="white"/>
<path d="M184.082 9.75739C184.842 10.3195 186.095 11.3596 186.683 11.8873L185.58 13.1451C184.947 12.5739 183.765 11.568 183.005 11.0059L184.082 9.75739ZM180.663 18.2638C182.081 18.2041 183.621 17.9711 185.065 17.4111C187.32 16.5007 189.258 15.0211 190.474 13.3746L191.214 15.1808C189.845 16.7449 187.899 18.0974 185.719 19.0049C184.364 19.5635 182.513 19.9587 181.385 20.0173L180.663 18.2638ZM181.816 12.3411C182.59 12.8923 183.845 13.92 184.42 14.4462L183.34 15.7195C182.695 15.1468 181.525 14.1425 180.737 13.602L181.816 12.3411Z" fill="white"/>
<path d="M184.082 9.75739C184.842 10.3195 186.095 11.3596 186.683 11.8873L185.58 13.1451C184.947 12.5739 183.765 11.568 183.005 11.0059L184.082 9.75739ZM180.663 18.2638C182.081 18.2041 183.621 17.9711 185.065 17.4111C187.32 16.5007 189.258 15.0211 190.474 13.3746L191.214 15.1808C189.845 16.7449 187.899 18.0974 185.719 19.0049C184.364 19.5635 182.513 19.9587 181.385 20.0173L180.663 18.2638ZM181.816 12.3411C182.59 12.8923 183.845 13.92 184.42 14.4462L183.34 15.7195C182.695 15.1468 181.525 14.1425 180.737 13.602L181.816 12.3411Z" fill="white"/>
<path d="M184.082 9.75739C184.842 10.3195 186.095 11.3596 186.683 11.8873L185.58 13.1451C184.947 12.5739 183.765 11.568 183.005 11.0059L184.082 9.75739ZM180.663 18.2638C182.081 18.2041 183.621 17.9711 185.065 17.4111C187.32 16.5007 189.258 15.0211 190.474 13.3746L191.214 15.1808C189.845 16.7449 187.899 18.0974 185.719 19.0049C184.364 19.5635 182.513 19.9587 181.385 20.0173L180.663 18.2638ZM181.816 12.3411C182.59 12.8923 183.845 13.92 184.42 14.4462L183.34 15.7195C182.695 15.1468 181.525 14.1425 180.737 13.602L181.816 12.3411Z" fill="white"/>
<path d="M199.256 20.1282L202.507 20.7484C202.949 20.8327 203.351 20.8585 203.667 20.8679L203.327 22.647C202.993 22.5324 202.48 22.4219 202.198 22.368L194.112 20.8257C193.744 20.7555 193.312 20.6858 192.898 20.6577L193.238 18.8785C193.604 19.0247 194.041 19.1335 194.421 19.2061L197.538 19.8005L198.493 14.7945L196.125 14.3428C195.793 14.2796 195.261 14.2035 194.95 14.1695L195.27 12.4885C195.58 12.5985 196.078 12.719 196.422 12.7845L203.097 14.0577C203.465 14.1279 203.901 14.173 204.264 14.2041L203.943 15.885C203.58 15.7903 203.155 15.6838 202.799 15.616L200.21 15.1221L199.256 20.1282Z" fill="white"/>
<path d="M199.256 20.1282L202.507 20.7484C202.949 20.8327 203.351 20.8585 203.667 20.8679L203.327 22.647C202.993 22.5324 202.48 22.4219 202.198 22.368L194.112 20.8257C193.744 20.7555 193.312 20.6858 192.898 20.6577L193.238 18.8785C193.604 19.0247 194.041 19.1335 194.421 19.2061L197.538 19.8005L198.493 14.7945L196.125 14.3428C195.793 14.2796 195.261 14.2035 194.95 14.1695L195.27 12.4885C195.58 12.5985 196.078 12.719 196.422 12.7845L203.097 14.0577C203.465 14.1279 203.901 14.173 204.264 14.2041L203.943 15.885C203.58 15.7903 203.155 15.6838 202.799 15.616L200.21 15.1221L199.256 20.1282Z" fill="white"/>
<path d="M199.256 20.1282L202.507 20.7484C202.949 20.8327 203.351 20.8585 203.667 20.8679L203.327 22.647C202.993 22.5324 202.48 22.4219 202.198 22.368L194.112 20.8257C193.744 20.7555 193.312 20.6858 192.898 20.6577L193.238 18.8785C193.604 19.0247 194.041 19.1335 194.421 19.2061L197.538 19.8005L198.493 14.7945L196.125 14.3428C195.793 14.2796 195.261 14.2035 194.95 14.1695L195.27 12.4885C195.58 12.5985 196.078 12.719 196.422 12.7845L203.097 14.0577C203.465 14.1279 203.901 14.173 204.264 14.2041L203.943 15.885C203.58 15.7903 203.155 15.6838 202.799 15.616L200.21 15.1221L199.256 20.1282Z" fill="white"/>
<path d="M125.545 23.1597L131.838 22.8642L131.892 24.006L125.599 24.3015L125.545 23.1597ZM125.058 28.223L132.798 27.8595L132.854 29.0536L125.114 29.4171L125.058 28.223Z" fill="white"/>
<path d="M142.192 25.1876L142.217 26.2257L138.763 26.3089L138.813 28.4025C138.828 29.0044 138.704 29.2867 138.289 29.4625C137.883 29.6381 137.273 29.679 136.479 29.6894C136.402 29.3857 136.189 28.9108 136.017 28.6269C136.619 28.6386 137.291 28.6224 137.492 28.6176C137.675 28.6132 137.735 28.5681 137.731 28.4111L137.681 26.3349L134.218 26.4183L134.193 25.3802L137.656 25.2968L137.623 23.9185L138.138 23.9061C138.559 23.6429 138.996 23.3181 139.364 23.0038L135.046 23.1077L135.021 22.0871L140.421 21.9571L140.655 21.8991L141.464 22.4732C140.741 23.2587 139.696 24.1217 138.724 24.7125L138.738 25.2708L142.192 25.1876Z" fill="white"/>
<path d="M147.298 28.1993L150.762 28.1882L150.765 29.2004L142.86 29.2257L142.856 28.2135L146.155 28.2029L146.147 25.8295L143.652 25.8375L143.648 24.8253L146.144 24.8173L146.138 22.8976L143.223 22.907L143.22 21.886L150.34 21.8633L150.344 22.8842L147.281 22.894L147.287 24.8137L149.966 24.8051L149.969 25.8173L147.29 25.8259L147.298 28.1993ZM147.842 26.5396L148.591 25.9351C149.063 26.3786 149.755 27.0134 150.096 27.4137L149.313 28.1143C148.998 27.7052 148.324 27.0267 147.842 26.5396Z" fill="white"/>
<path d="M153.534 21.8117L154.607 21.8323L154.549 24.8422C154.517 26.5347 154.352 28.3032 153.166 29.5982C152.97 29.3588 152.558 29.0018 152.291 28.8308C153.307 27.7158 153.449 26.2523 153.476 24.8128L153.534 21.8117ZM156.188 22.238L157.252 22.2585L157.127 28.7493L156.063 28.7289L156.188 22.238ZM158.848 21.8964L159.947 21.9176L159.799 29.6211L158.699 29.6L158.848 21.8964Z" fill="white"/>
<path d="M167.531 28.7077L167.58 27.522L164.485 27.3946L164.436 28.5803L167.531 28.7077ZM166.586 23.8742L166.553 24.6938L169.273 24.8058L169.235 25.7212L166.515 25.6092L166.476 26.5595L168.682 26.6504L168.545 29.9721L167.481 29.9283L167.494 29.6144L164.399 29.487L164.386 29.8096L163.374 29.7679L163.512 26.4375L165.421 26.5161L165.531 23.8308L166.586 23.8742ZM166.292 22.7443L169.466 22.8749L169.425 23.8601L163.104 23.5999L163.054 24.8117C162.997 26.2154 162.777 28.3635 161.937 29.6913C161.752 29.509 161.302 29.1936 161.063 29.0702C161.829 27.8529 161.965 26.0245 162.017 24.769L162.107 22.572L165.211 22.6998L165.252 21.6971L166.334 21.7417L166.292 22.7443Z" fill="white"/>
</g>
<defs>
<clipPath id="clip0_1702_14520">
<rect width="300" height="90" fill="white"/>
</clipPath>
</defs>
</svg>
