<svg width="334" height="100" viewBox="0 0 334 100" fill="none" xmlns="http://www.w3.org/2000/svg">
<g clip-path="url(#clip0_1303_7967)">
<path d="M9.82728 53.1815C10.7582 55.8101 9.38136 58.7046 6.74497 59.6356C4.11641 60.5665 1.22186 59.1896 0.290905 56.5533C-0.640045 53.9247 0.736824 51.0301 3.37321 50.0992C6.00178 49.1682 8.89633 50.5451 9.82728 53.1815Z" fill="#F5CD1E"/>
<path d="M9.27675 60.6108L6.21866 61.9354L43.8553 148.825L46.9134 147.501L9.27675 60.6108Z" fill="#F5CD1E"/>
<path d="M323.878 55.02C322.971 57.6563 324.371 60.5353 327.008 61.4506C329.644 62.358 332.523 60.9577 333.438 58.3213C334.346 55.6849 332.945 52.806 330.309 51.8985C327.673 50.991 324.794 52.3914 323.878 55.0278V55.02Z" fill="#F5CD1E"/>
<path d="M324.482 62.4465L287.545 149.636L290.613 150.936L327.551 63.7466L324.482 62.4465Z" fill="#F5CD1E"/>
<path d="M279.842 67.4196C280.108 66.0271 279.897 64.6033 279.208 63.3594C277.206 59.7529 272.66 58.5638 269.109 57.187C264.094 55.2468 259.048 53.3615 253.9 51.7812C245.365 49.1605 236.666 47.0795 227.904 45.421C218.251 43.5904 208.503 42.2683 198.724 41.3765C188.249 40.4221 177.727 39.9683 167.205 39.9605C156.683 39.9605 146.161 40.4221 135.685 41.3765C125.899 42.2683 116.151 43.5904 106.505 45.421C97.7355 47.0795 89.0363 49.1605 80.5091 51.7812C75.3615 53.3615 70.3156 55.2468 65.3009 57.187C61.7492 58.5638 57.1962 59.7451 55.2013 63.3594C54.5129 64.6033 54.3016 66.0271 54.5676 67.4196L41.1745 30.7292C41.0962 30.2989 41.0493 29.8687 41.0493 29.4384C41.0493 28.3041 42.7938 23.8136 53.1829 19.284C58.6982 16.8745 64.4404 15.0048 70.1982 13.2367C79.7502 10.3031 89.4743 7.97962 99.2923 6.11771C110.096 4.06806 121.001 2.58949 131.946 1.59596C143.673 0.532015 155.447 0.015686 167.213 0.015686C178.979 0.015686 190.76 0.532015 202.479 1.59596C213.424 2.58949 224.329 4.06806 235.133 6.11771C244.943 7.97962 254.675 10.3031 264.227 13.2367C269.985 15.0048 275.782 16.7571 281.242 19.284C290.27 23.4616 293.399 28.3901 293.376 29.5636C293.368 29.9547 293.329 30.3459 293.251 30.737L279.858 67.4274H279.842V67.4196Z" fill="#E84388" stroke="white" stroke-width="0.782311" stroke-linecap="round" stroke-linejoin="round"/>
<path d="M70.5346 70.6192C70.0183 68.7495 68.5867 67.0988 66.451 66.3321C64.7612 65.7219 63.4782 65.808 62.336 66.0974L53.7619 65.2369L45.7197 43.207C45.6649 43.1679 42.3323 44.138 41.3857 44.4274C30.4412 47.7444 18.9099 51.4213 11.3058 59.9641C12.1038 62.2406 25.9663 94.6127 25.9663 94.6127C25.9663 94.6127 31.3486 89.7467 32.749 88.6358C35.2211 86.6722 37.8418 84.8573 40.7129 83.5195C49.3653 79.4906 61.1938 83.2535 68.704 76.5413C70.5737 74.8671 71.0822 72.6219 70.5268 70.6192H70.5346Z" fill="#E84388" stroke="white" stroke-width="0.782311" stroke-linecap="round" stroke-linejoin="round"/>
<path d="M263.273 72.7159C263.789 70.8461 265.221 69.1954 267.356 68.4288C269.046 67.8186 270.329 67.9046 271.471 68.1941L280.225 66.387L288.056 44.9438C288.111 44.9047 289.355 45.3663 292.429 46.5319C303.124 50.5764 314.905 53.5257 322.509 62.0686C321.516 64.3608 307.849 96.7171 307.849 96.7171C307.849 96.7171 302.466 91.8512 301.066 90.7403C298.594 88.7767 295.973 86.9617 293.102 85.624C284.45 81.5951 272.621 85.358 265.111 78.6458C263.241 76.9716 262.733 74.7264 263.288 72.7237H263.273V72.7159Z" fill="#E84388" stroke="white" stroke-width="0.782311" stroke-linecap="round" stroke-linejoin="round"/>
<path d="M279.044 62.6631C277.346 60.2301 274.413 59.0332 271.62 58.024L269.093 57.1009C268.123 56.7253 267.153 56.3577 266.183 55.99L263.054 72.7158C263.57 70.8461 265.001 69.1954 267.137 68.4287C272.152 66.6294 273.599 70.8461 278.238 68.8277C279.67 68.2019 280.28 67.2083 280.296 66.0427C280.311 64.9944 279.842 63.8209 279.044 62.6631Z" fill="#CB0085" stroke="#E84388" stroke-width="0.782311" stroke-miterlimit="10"/>
<path d="M55.4751 62.9291C57.1258 60.5352 59.9891 59.3618 62.7115 58.3683L65.1758 57.4608C66.1224 57.0931 67.069 56.7332 68.0156 56.3655L70.7537 71.6284C70.253 69.79 69.1656 69.3284 67.0846 68.5774C62.1952 66.8094 60.787 70.9556 56.2653 68.9686C54.8728 68.3584 54.2782 67.3726 54.2625 66.2305C54.2469 65.2056 54.7006 64.0478 55.483 62.9135V62.9291H55.4751Z" fill="#CB0085" stroke="#E84388" stroke-width="0.782311" stroke-miterlimit="10"/>
<g opacity="0.1">
<mask id="mask0_1303_7967" style="mask-type:luminance" maskUnits="userSpaceOnUse" x="11" y="0" width="312" height="97">
<path d="M292.422 46.5319C289.347 45.3662 288.103 44.9125 288.048 44.9438L293.243 30.7214C293.313 30.3302 293.36 29.9391 293.368 29.5479C293.392 28.3744 290.262 23.4537 281.234 19.2683C275.774 16.7336 269.977 14.9891 264.219 13.2211C254.667 10.2874 244.943 7.96393 235.125 6.10203C224.321 4.05237 213.416 2.57381 202.471 1.58027C190.745 0.516329 178.971 0 167.205 0C155.439 0 143.657 0.516329 131.938 1.58027C120.994 2.57381 110.088 4.05237 99.2846 6.10203C89.4744 7.96393 79.7424 10.2874 70.1904 13.2211C64.4326 14.9891 58.6904 16.8666 53.1751 19.2683C42.7861 23.7979 41.0337 28.2962 41.0415 29.4227C41.0415 29.853 41.0806 30.2833 41.1667 30.7135L45.7276 43.207C45.5789 43.207 42.3401 44.1458 41.4014 44.4275C30.4568 47.7445 18.9256 51.4213 11.3215 59.9641C12.1195 62.2407 25.982 94.6127 25.982 94.6127C25.982 94.6127 31.3643 89.7467 32.7647 88.6359C35.2368 86.6723 37.8575 84.8573 40.7286 83.5195C49.3809 79.4906 61.2095 83.2535 68.7197 76.5413C70.5894 74.8672 71.0979 72.622 70.5424 70.6192C70.0261 68.7495 68.5945 67.0988 66.4588 66.3322C64.769 65.7298 63.486 65.808 62.3438 66.0975L54.5129 65.3151C54.6146 64.6345 54.8415 63.9696 55.1857 63.3516C57.1884 59.7451 61.7336 58.556 65.2853 57.1791C70.2999 55.239 75.3458 53.3536 80.4934 51.7733C89.0285 49.1526 97.7278 47.0717 106.49 45.4132C116.143 43.5826 125.891 42.2604 135.67 41.3686C146.145 40.4142 156.667 39.9605 167.189 39.9526C177.711 39.9526 188.233 40.4142 198.708 41.3686C208.495 42.2604 218.243 43.5826 227.889 45.4132C236.658 47.0717 245.358 49.1526 253.885 51.7733C259.032 53.3536 264.078 55.239 269.093 57.1791C272.645 58.556 277.198 59.7373 279.193 63.3516C279.725 64.306 279.959 65.3699 279.928 66.4417L271.448 68.1941C270.306 67.9046 269.03 67.8185 267.333 68.4288C265.197 69.1954 263.765 70.8461 263.249 72.7158C262.694 74.7185 263.202 76.9716 265.072 78.6379C272.59 85.3502 284.411 81.5794 293.063 85.6161C295.934 86.9539 298.555 88.7688 301.027 90.7324C302.427 91.8433 307.81 96.7093 307.81 96.7093C307.81 96.7093 321.477 64.3451 322.47 62.0608C314.866 53.5179 303.084 50.5764 292.39 46.524H292.422V46.5319Z" fill="white"/>
</mask>
<g mask="url(#mask0_1303_7967)">
<rect x="81.6714" y="-172.525" width="7.82311" height="471.38" transform="rotate(45 81.6714 -172.525)" fill="white"/>
<rect x="92.735" y="-161.461" width="7.82311" height="471.38" transform="rotate(45 92.735 -161.461)" fill="white"/>
<rect x="103.799" y="-150.398" width="7.82311" height="471.38" transform="rotate(45 103.799 -150.398)" fill="white"/>
<rect x="114.862" y="-139.334" width="7.82311" height="471.38" transform="rotate(45 114.862 -139.334)" fill="white"/>
<rect x="125.926" y="-128.271" width="7.82311" height="471.38" transform="rotate(45 125.926 -128.271)" fill="white"/>
<rect x="136.989" y="-117.207" width="7.82311" height="471.38" transform="rotate(45 136.989 -117.207)" fill="white"/>
<rect x="148.053" y="-106.143" width="7.82311" height="471.38" transform="rotate(45 148.053 -106.143)" fill="white"/>
<rect x="159.116" y="-95.0798" width="7.82311" height="471.38" transform="rotate(45 159.116 -95.0798)" fill="white"/>
<rect x="170.18" y="-84.0163" width="7.82311" height="471.38" transform="rotate(45 170.18 -84.0163)" fill="white"/>
<rect x="181.243" y="-72.9528" width="7.82311" height="471.38" transform="rotate(45 181.243 -72.9528)" fill="white"/>
<rect x="192.307" y="-61.8892" width="7.82311" height="471.38" transform="rotate(45 192.307 -61.8892)" fill="white"/>
<rect x="203.37" y="-50.8256" width="7.82311" height="471.38" transform="rotate(45 203.37 -50.8256)" fill="white"/>
<rect x="214.434" y="-39.7621" width="7.82311" height="471.38" transform="rotate(45 214.434 -39.7621)" fill="white"/>
<rect x="225.498" y="-28.6985" width="7.82311" height="471.38" transform="rotate(45 225.498 -28.6985)" fill="white"/>
<rect x="236.561" y="-17.635" width="7.82311" height="471.38" transform="rotate(45 236.561 -17.635)" fill="white"/>
<rect x="247.625" y="-6.57141" width="7.82311" height="471.38" transform="rotate(45 247.625 -6.57141)" fill="white"/>
<rect x="413.894" y="-172.525" width="7.82311" height="471.38" transform="rotate(45 413.894 -172.525)" fill="white"/>
<rect x="424.957" y="-161.461" width="7.82311" height="471.38" transform="rotate(45 424.957 -161.461)" fill="white"/>
<rect x="436.021" y="-150.398" width="7.82311" height="471.38" transform="rotate(45 436.021 -150.398)" fill="white"/>
<rect x="447.084" y="-139.334" width="7.82311" height="471.38" transform="rotate(45 447.084 -139.334)" fill="white"/>
<rect x="458.148" y="-128.271" width="7.82311" height="471.38" transform="rotate(45 458.148 -128.271)" fill="white"/>
<rect x="469.211" y="-117.207" width="7.82311" height="471.38" transform="rotate(45 469.211 -117.207)" fill="white"/>
<rect x="480.275" y="-106.143" width="7.82311" height="471.38" transform="rotate(45 480.275 -106.143)" fill="white"/>
<rect x="491.338" y="-95.0798" width="7.82311" height="471.38" transform="rotate(45 491.338 -95.0798)" fill="white"/>
<rect x="502.402" y="-84.0163" width="7.82311" height="471.38" transform="rotate(45 502.402 -84.0163)" fill="white"/>
<rect x="513.466" y="-72.9528" width="7.82311" height="471.38" transform="rotate(45 513.466 -72.9528)" fill="white"/>
<rect x="524.529" y="-61.8892" width="7.82311" height="471.38" transform="rotate(45 524.529 -61.8892)" fill="white"/>
<rect x="535.593" y="-50.8256" width="7.82311" height="471.38" transform="rotate(45 535.593 -50.8256)" fill="white"/>
<rect x="546.656" y="-39.7621" width="7.82311" height="471.38" transform="rotate(45 546.656 -39.7621)" fill="white"/>
<rect x="557.72" y="-28.6985" width="7.82311" height="471.38" transform="rotate(45 557.72 -28.6985)" fill="white"/>
<rect x="568.783" y="-17.635" width="7.82311" height="471.38" transform="rotate(45 568.783 -17.635)" fill="white"/>
<rect x="579.847" y="-6.57141" width="7.82311" height="471.38" transform="rotate(45 579.847 -6.57141)" fill="white"/>
</g>
</g>
<path d="M66.1368 43.0027L62.3548 31.783L64.6442 31.0112L69.9177 35.8861L71.8574 37.9338L71.9332 37.9083C71.4184 36.7817 70.7507 35.3521 70.3214 34.0785L68.8137 29.6057L70.9364 28.8902L74.7184 40.1099L72.4441 40.8766L67.1756 35.9662L65.2259 33.9388L65.15 33.9644C65.665 35.1415 66.3071 36.4954 66.7416 37.7841L68.2595 42.2872L66.1368 43.0027Z" fill="white"/>
<path d="M77.9589 39.0981L74.6031 27.7436L81.5693 25.6848L82.127 27.5721L77.4318 28.9598L78.2073 31.5836L82.1967 30.4045L82.759 32.3071L78.7696 33.4862L79.6675 36.5243L84.5315 35.0867L85.0939 36.9894L77.9589 39.0981Z" fill="white"/>
<path d="M86.6031 26.2634L87.5091 29.7641L88.9961 29.3792C90.4676 28.9984 91.1127 28.1703 90.796 26.9466C90.4753 25.7075 89.5616 25.4977 88.0901 25.8786L86.6031 26.2634ZM95.6063 34.2297L93.0505 34.8912L89.5736 31.1634L87.9781 31.5764L89.1006 35.9135L86.8081 36.5068L83.8416 25.0444L87.8379 24.0101C90.2388 23.3888 92.3605 23.7321 93.042 26.3654C93.487 28.0847 92.8962 29.378 91.7119 30.2299L95.6063 34.2297Z" fill="white"/>
<path d="M102.044 33.2381C98.98 33.9077 96.3675 32.0712 95.5475 28.3198C94.7241 24.5528 96.356 21.9032 99.4196 21.2335C102.483 20.5639 105.075 22.3066 105.895 26.058C106.715 29.8094 105.107 32.5684 102.044 33.2381ZM101.606 31.2373C103.326 30.8615 104.075 29.0436 103.535 26.5739C102.992 24.0886 101.573 22.8428 99.8536 23.2186C98.1342 23.5945 97.3646 25.3186 97.9078 27.8039C98.4476 30.2736 99.8869 31.6132 101.606 31.2373Z" fill="white"/>
<path d="M113.849 30.4506L111.943 18.765L119.144 17.5905L119.461 19.5328L114.597 20.3261L115.094 23.3739L119.247 22.6965L119.567 24.6546L115.413 25.332L116.186 30.0694L113.849 30.4506Z" fill="white"/>
<path d="M127.597 28.7465C124.741 29.1117 122.822 27.7279 122.323 23.8237L121.497 17.3643L123.846 17.064L124.698 23.7297C125.01 26.1738 125.957 26.8915 127.338 26.715C128.734 26.5365 129.518 25.5976 129.205 23.1534L128.353 16.4877L130.607 16.1996L131.432 22.659C131.932 26.5632 130.47 28.3792 127.597 28.7465Z" fill="white"/>
<path d="M137.353 27.3149L136.478 17.4817L133.163 17.7765L132.989 15.8163L142.009 15.0141L142.184 16.9743L138.837 17.272L139.711 27.1052L137.353 27.3149Z" fill="white"/>
<path d="M147.213 21.668L150.025 21.5159L149.603 20.2408C149.17 19.0305 148.777 17.6898 148.356 16.4306L148.292 16.4341C148.058 17.7446 147.78 19.1057 147.495 20.3549L147.213 21.668ZM151.63 26.3162L150.636 23.3256L146.801 23.5329L146.135 26.6134L143.738 26.743L146.885 14.7155L149.665 14.5652L154.107 26.1823L151.63 26.3162Z" fill="white"/>
<path d="M154.945 26.1618L154.717 14.324L157.084 14.2783L157.183 19.4133L157.231 19.4124L161.052 14.2017L163.659 14.1514L160.134 18.8763L164.527 25.9768L161.92 26.0272L158.762 20.7751L157.249 22.7887L157.313 26.1161L154.945 26.1618Z" fill="white"/>
<path d="M170.669 26.3111C167.534 26.2384 165.429 23.8371 165.518 19.9981C165.607 16.1431 167.818 13.9537 170.954 14.0264C174.089 14.099 176.196 16.4044 176.107 20.2434C176.018 24.0823 173.804 26.3837 170.669 26.3111ZM170.717 24.2636C172.476 24.3044 173.633 22.7147 173.692 20.1874C173.751 17.6441 172.666 16.0986 170.907 16.0578C169.147 16.0171 167.992 17.5107 167.933 20.054C167.875 22.5814 168.957 24.2229 170.717 24.2636Z" fill="white"/>
<path d="M182.342 26.2006L182.951 16.3474L179.63 16.1421L179.751 14.1779L188.79 14.7366L188.668 16.7008L185.315 16.4935L184.706 26.3467L182.342 26.2006Z" fill="white"/>
<path d="M192.906 22.0903L195.709 22.3613L195.483 21.0375C195.236 19.7758 195.048 18.3913 194.821 17.0834L194.757 17.0772C194.33 18.3379 193.85 19.6418 193.381 20.8342L192.906 22.0903ZM196.577 27.348L196.042 24.2421L192.219 23.8725L191.099 26.8183L188.71 26.5873L193.624 15.1672L196.395 15.4352L199.046 27.5867L196.577 27.348Z" fill="white"/>
<path d="M200.024 27.5562L201.616 15.8237L204.216 16.1765L205.47 21.9332C205.624 22.697 205.741 23.504 205.876 24.2972L205.955 24.308C206.312 23.5814 206.623 22.8325 206.976 22.1376L209.67 16.9164L212.27 17.2691L210.679 29.0016L208.538 28.7113L209.203 23.8121C209.354 22.7023 209.75 21.0929 210.011 19.9982L209.948 19.9895L208.622 22.6192L206.146 27.3049L204.798 27.122L203.644 21.9438L203.083 19.0582L203.019 19.0496C202.98 20.1745 202.948 21.8334 202.798 22.9432L202.133 27.8423L200.024 27.5562Z" fill="white"/>
<path d="M217.297 25.1491L220.069 25.6449L219.95 24.3072C219.805 23.0296 219.729 21.6345 219.608 20.3126L219.545 20.3013C219.018 21.5235 218.435 22.7845 217.871 23.9353L217.297 25.1491ZM220.532 30.6853L220.249 27.5463L216.469 26.8702L215.114 29.7162L212.752 29.2936L218.569 18.3063L221.31 18.7965L222.974 31.122L220.532 30.6853Z" fill="white"/>
<path d="M229.623 32.7578C226.466 32.0676 224.532 29.4503 225.376 25.5895C226.209 21.7755 229.168 20.0801 232.247 20.7532C233.92 21.1188 234.919 22.0906 235.502 23.0206L233.946 24.22C233.503 23.5499 232.939 22.9843 231.891 22.7554C229.969 22.3352 228.296 23.5419 227.753 26.0272C227.203 28.5438 228.028 30.3129 230.295 30.8083C230.858 30.9313 231.454 30.898 231.844 30.6883L232.343 28.4062L230.295 27.9586L230.709 26.0673L234.82 26.9659L233.679 32.1866C232.73 32.7817 231.233 33.1097 229.623 32.7578Z" fill="white"/>
<path d="M239.516 30.1297L242.242 30.8352L242.226 29.4924C242.178 28.2075 242.209 26.8107 242.189 25.4833L242.127 25.4673C241.508 26.6458 240.831 27.8587 240.181 28.9632L239.516 30.1297ZM242.32 35.8963L242.277 32.7448L238.559 31.7827L236.992 34.5173L234.669 33.9159L241.306 23.4037L244.001 24.1012L244.721 36.5177L242.32 35.8963Z" fill="white"/>
<path d="M247.59 37.6005L248.888 25.6115L251.197 26.3225L250.399 32.1205C250.2 33.3651 250.012 34.6296 249.808 35.8894L249.869 35.9083C250.471 34.7709 251.092 33.6229 251.699 32.5208L254.714 27.4055L256.641 27.9988L256.256 33.924C256.143 35.1615 255.996 36.4554 255.864 37.7541L255.94 37.7776C256.485 36.6061 257.025 35.4498 257.556 34.3242L260.143 29.0771L262.299 29.741L256.719 40.4116L253.906 39.5452L254.36 33.5577C254.449 32.6143 254.55 31.6909 254.676 30.7922L254.615 30.7734C254.198 31.5826 253.777 32.4071 253.32 33.2375L250.358 38.4528L247.59 37.6005Z" fill="white"/>
<path d="M263.444 37.549L266.099 38.4886L266.199 37.1494C266.263 35.8652 266.416 34.4764 266.511 33.1523L266.45 33.1309C265.731 34.2512 264.951 35.4008 264.208 36.4447L263.444 37.549ZM265.737 43.5374L265.967 40.394L262.347 39.1127L260.549 41.7009L258.286 40.9001L265.812 31.0039L268.436 31.9328L268.075 44.3649L265.737 43.5374Z" fill="white"/>
</g>
<defs>
<clipPath id="clip0_1303_7967">
<rect width="334" height="100" fill="white"/>
</clipPath>
</defs>
</svg>
