<svg width="334" height="100" viewBox="0 0 334 100" fill="none" xmlns="http://www.w3.org/2000/svg">
<g clip-path="url(#clip0_3604_17149)">
<path d="M9.82728 53.1814C10.7582 55.81 9.38136 58.7046 6.74497 59.6355C4.11641 60.5665 1.22186 59.1896 0.290905 56.5532C-0.640045 53.9246 0.736824 51.0301 3.37321 50.0991C6.00178 49.1682 8.89633 50.5451 9.82728 53.1814Z" fill="#F5CD1E"/>
<path d="M9.27678 60.6107L6.21869 61.9353L43.8553 148.825L46.9134 147.501L9.27678 60.6107Z" fill="#F5CD1E"/>
<path d="M323.878 55.0198C322.971 57.6562 324.371 60.5351 327.008 61.4504C329.644 62.3579 332.523 60.9575 333.438 58.3211C334.346 55.6847 332.945 52.8058 330.309 51.8983C327.673 50.9909 324.794 52.3912 323.878 55.0276V55.0198Z" fill="#F5CD1E"/>
<path d="M324.482 62.4465L287.545 149.636L290.613 150.936L327.551 63.7465L324.482 62.4465Z" fill="#F5CD1E"/>
<path d="M279.842 67.4194C280.108 66.0269 279.897 64.6031 279.208 63.3592C277.206 59.7528 272.66 58.5637 269.109 57.1868C264.094 55.2467 259.048 53.3613 253.901 51.781C245.366 49.1603 236.666 47.0793 227.904 45.4208C218.251 43.5902 208.503 42.2681 198.724 41.3763C188.249 40.4219 177.727 39.9681 167.205 39.9603C156.683 39.9603 146.161 40.4219 135.686 41.3763C125.899 42.2681 116.151 43.5902 106.505 45.4208C97.7356 47.0793 89.0364 49.1603 80.5092 51.781C75.3616 53.3613 70.3156 55.2467 65.301 57.1868C61.7493 58.5637 57.1963 59.7449 55.2014 63.3592C54.513 64.6031 54.3017 66.0269 54.5677 67.4194L41.1746 30.729C41.0963 30.2988 41.0494 29.8685 41.0494 29.4382C41.0494 28.3039 42.7939 23.8134 53.183 19.2838C58.6983 16.8743 64.4405 15.0046 70.1983 13.2366C79.7503 10.3029 89.4744 7.97943 99.2924 6.11753C110.096 4.06788 121.002 2.58931 131.946 1.59577C143.673 0.531832 155.447 0.0155029 167.213 0.0155029C178.979 0.0155029 190.76 0.531832 202.479 1.59577C213.424 2.58931 224.329 4.06788 235.133 6.11753C244.943 7.97943 254.675 10.3029 264.227 13.2366C269.985 15.0046 275.782 16.757 281.242 19.2838C290.27 23.4614 293.399 28.3899 293.376 29.5634C293.368 29.9546 293.329 30.3457 293.251 30.7369L279.858 67.4272H279.842V67.4194Z" fill="#E84388" stroke="white" stroke-width="0.782311" stroke-linecap="round" stroke-linejoin="round"/>
<path d="M70.5347 70.6191C70.0184 68.7494 68.5867 67.0987 66.451 66.3321C64.7612 65.7219 63.4782 65.8079 62.3361 66.0974L53.7619 65.2368L45.7198 43.207C45.665 43.1678 42.3324 44.1379 41.3858 44.4274C30.4412 47.7444 18.91 51.4212 11.3059 59.9641C12.1039 62.2406 25.9664 94.6126 25.9664 94.6126C25.9664 94.6126 31.3487 89.7467 32.749 88.6358C35.2211 86.6722 37.8419 84.8572 40.713 83.5194C49.3653 79.4905 61.1939 83.2535 68.7041 76.5412C70.5738 74.8671 71.0823 72.6219 70.5269 70.6191H70.5347Z" fill="#E84388" stroke="white" stroke-width="0.782311" stroke-linecap="round" stroke-linejoin="round"/>
<path d="M263.273 72.7157C263.789 70.846 265.221 69.1953 267.356 68.4287C269.046 67.8185 270.329 67.9045 271.471 68.194L280.225 66.3868L288.056 44.9437C288.111 44.9046 289.355 45.3661 292.429 46.5318C303.124 50.5763 314.905 53.5256 322.509 62.0685C321.516 64.3606 307.849 96.717 307.849 96.717C307.849 96.717 302.466 91.851 301.066 90.7402C298.594 88.7766 295.973 86.9616 293.102 85.6239C284.45 81.595 272.621 85.3579 265.111 78.6456C263.241 76.9715 262.733 74.7263 263.288 72.7235H263.273V72.7157Z" fill="#E84388" stroke="white" stroke-width="0.782311" stroke-linecap="round" stroke-linejoin="round"/>
<path d="M279.044 62.663C277.346 60.23 274.413 59.0331 271.62 58.0239L269.093 57.1007C268.123 56.7252 267.153 56.3576 266.183 55.9899L263.054 72.7157C263.57 70.846 265.002 69.1953 267.137 68.4286C272.152 66.6293 273.599 70.846 278.238 68.8276C279.67 68.2017 280.28 67.2082 280.296 66.0426C280.311 64.9943 279.842 63.8208 279.044 62.663Z" fill="#CB0085" stroke="#E84388" stroke-width="0.782311" stroke-miterlimit="10"/>
<path d="M55.4751 62.9289C57.1258 60.5351 59.9891 59.3616 62.7115 58.3681L65.1758 57.4606C66.1224 57.0929 67.069 56.733 68.0156 56.3654L70.7537 71.6282C70.253 69.7898 69.1656 69.3282 67.0846 68.5772C62.1952 66.8092 60.787 70.9554 56.2653 68.9684C54.8728 68.3582 54.2782 67.3725 54.2625 66.2303C54.2469 65.2055 54.7006 64.0476 55.483 62.9133V62.9289H55.4751Z" fill="#CB0085" stroke="#E84388" stroke-width="0.782311" stroke-miterlimit="10"/>
<g opacity="0.1">
<mask id="mask0_3604_17149" style="mask-type:luminance" maskUnits="userSpaceOnUse" x="11" y="-1" width="312" height="98">
<path d="M292.422 46.5317C289.347 45.3661 288.103 44.9124 288.048 44.9437L293.243 30.7212C293.313 30.3301 293.36 29.9389 293.368 29.5478C293.392 28.3743 290.262 23.4536 281.235 19.2682C275.774 16.7335 269.977 14.989 264.219 13.2209C254.667 10.2873 244.943 7.96381 235.125 6.10191C224.321 4.05225 213.416 2.57368 202.471 1.58015C190.745 0.516207 178.971 -0.00012207 167.205 -0.00012207C155.439 -0.00012207 143.657 0.516207 131.938 1.58015C120.994 2.57368 110.088 4.05225 99.2846 6.10191C89.4744 7.96381 79.7425 10.2873 70.1905 13.2209C64.4326 14.989 58.6905 16.8665 53.1752 19.2682C42.7861 23.7978 41.0337 28.2961 41.0415 29.4226C41.0415 29.8529 41.0807 30.2831 41.1667 30.7134L45.7276 43.2069C45.5789 43.2069 42.3402 44.1457 41.4014 44.4273C30.4569 47.7443 18.9256 51.4212 11.3215 59.964C12.1195 62.2405 25.982 94.6126 25.982 94.6126C25.982 94.6126 31.3643 89.7466 32.7647 88.6357C35.2368 86.6721 37.8575 84.8572 40.7286 83.5194C49.381 79.4905 61.2095 83.2534 68.7197 76.5412C70.5894 74.867 71.0979 72.6218 70.5425 70.6191C70.0262 68.7494 68.5945 67.0987 66.4588 66.332C64.769 65.7297 63.486 65.8079 62.3439 66.0973L54.5129 65.315C54.6146 64.6344 54.8415 63.9695 55.1857 63.3514C57.1884 59.745 61.7337 58.5559 65.2853 57.179C70.3 55.2389 75.3459 53.3535 80.4935 51.7732C89.0285 49.1525 97.7278 47.0715 106.49 45.4131C116.143 43.5824 125.891 42.2603 135.67 41.3685C146.145 40.4141 156.667 39.9603 167.189 39.9525C177.711 39.9525 188.233 40.4141 198.709 41.3685C208.495 42.2603 218.243 43.5824 227.889 45.4131C236.658 47.0715 245.358 49.1525 253.885 51.7732C259.033 53.3535 264.078 55.2389 269.093 57.179C272.645 58.5559 277.198 59.7372 279.193 63.3514C279.725 64.3059 279.959 65.3698 279.928 66.4416L271.448 68.1939C270.306 67.9045 269.03 67.8184 267.333 68.4286C265.197 69.1953 263.766 70.846 263.249 72.7157C262.694 74.7184 263.202 76.9715 265.072 78.6378C272.59 85.35 284.411 81.5793 293.063 85.616C295.934 86.9538 298.555 88.7687 301.027 90.7323C302.427 91.8432 307.81 96.7092 307.81 96.7092C307.81 96.7092 321.477 64.345 322.47 62.0606C314.866 53.5178 303.084 50.5763 292.39 46.5239H292.422V46.5317Z" fill="white"/>
</mask>
<g mask="url(#mask0_3604_17149)">
<rect x="81.6715" y="-172.525" width="7.82311" height="471.38" transform="rotate(45 81.6715 -172.525)" fill="white"/>
<rect x="92.735" y="-161.461" width="7.82311" height="471.38" transform="rotate(45 92.735 -161.461)" fill="white"/>
<rect x="103.799" y="-150.398" width="7.82311" height="471.38" transform="rotate(45 103.799 -150.398)" fill="white"/>
<rect x="114.862" y="-139.334" width="7.82311" height="471.38" transform="rotate(45 114.862 -139.334)" fill="white"/>
<rect x="125.926" y="-128.271" width="7.82311" height="471.38" transform="rotate(45 125.926 -128.271)" fill="white"/>
<rect x="136.989" y="-117.207" width="7.82311" height="471.38" transform="rotate(45 136.989 -117.207)" fill="white"/>
<rect x="148.053" y="-106.143" width="7.82311" height="471.38" transform="rotate(45 148.053 -106.143)" fill="white"/>
<rect x="159.116" y="-95.08" width="7.82311" height="471.38" transform="rotate(45 159.116 -95.08)" fill="white"/>
<rect x="170.18" y="-84.0164" width="7.82311" height="471.38" transform="rotate(45 170.18 -84.0164)" fill="white"/>
<rect x="181.243" y="-72.9529" width="7.82311" height="471.38" transform="rotate(45 181.243 -72.9529)" fill="white"/>
<rect x="192.307" y="-61.8893" width="7.82311" height="471.38" transform="rotate(45 192.307 -61.8893)" fill="white"/>
<rect x="203.37" y="-50.8257" width="7.82311" height="471.38" transform="rotate(45 203.37 -50.8257)" fill="white"/>
<rect x="214.434" y="-39.7622" width="7.82311" height="471.38" transform="rotate(45 214.434 -39.7622)" fill="white"/>
<rect x="225.498" y="-28.6986" width="7.82311" height="471.38" transform="rotate(45 225.498 -28.6986)" fill="white"/>
<rect x="236.561" y="-17.6351" width="7.82311" height="471.38" transform="rotate(45 236.561 -17.6351)" fill="white"/>
<rect x="247.625" y="-6.57153" width="7.82311" height="471.38" transform="rotate(45 247.625 -6.57153)" fill="white"/>
<rect x="413.894" y="-172.525" width="7.82311" height="471.38" transform="rotate(45 413.894 -172.525)" fill="white"/>
<rect x="424.957" y="-161.461" width="7.82311" height="471.38" transform="rotate(45 424.957 -161.461)" fill="white"/>
<rect x="436.021" y="-150.398" width="7.82311" height="471.38" transform="rotate(45 436.021 -150.398)" fill="white"/>
<rect x="447.084" y="-139.334" width="7.82311" height="471.38" transform="rotate(45 447.084 -139.334)" fill="white"/>
<rect x="458.148" y="-128.271" width="7.82311" height="471.38" transform="rotate(45 458.148 -128.271)" fill="white"/>
<rect x="469.211" y="-117.207" width="7.82311" height="471.38" transform="rotate(45 469.211 -117.207)" fill="white"/>
<rect x="480.275" y="-106.143" width="7.82311" height="471.38" transform="rotate(45 480.275 -106.143)" fill="white"/>
<rect x="491.339" y="-95.08" width="7.82311" height="471.38" transform="rotate(45 491.339 -95.08)" fill="white"/>
<rect x="502.402" y="-84.0164" width="7.82311" height="471.38" transform="rotate(45 502.402 -84.0164)" fill="white"/>
<rect x="513.466" y="-72.9529" width="7.82311" height="471.38" transform="rotate(45 513.466 -72.9529)" fill="white"/>
<rect x="524.529" y="-61.8893" width="7.82311" height="471.38" transform="rotate(45 524.529 -61.8893)" fill="white"/>
<rect x="535.593" y="-50.8257" width="7.82311" height="471.38" transform="rotate(45 535.593 -50.8257)" fill="white"/>
<rect x="546.656" y="-39.7622" width="7.82311" height="471.38" transform="rotate(45 546.656 -39.7622)" fill="white"/>
<rect x="557.72" y="-28.6986" width="7.82311" height="471.38" transform="rotate(45 557.72 -28.6986)" fill="white"/>
<rect x="568.783" y="-17.6351" width="7.82311" height="471.38" transform="rotate(45 568.783 -17.6351)" fill="white"/>
<rect x="579.847" y="-6.57153" width="7.82311" height="471.38" transform="rotate(45 579.847 -6.57153)" fill="white"/>
</g>
</g>
<path d="M60.7605 44.5175L56.4921 33.4565L63.2989 30.8298L64.0132 32.6808L59.4156 34.455L60.5274 37.3359L64.4532 35.8209L65.1675 37.6719L61.2417 39.1869L62.9697 43.665L60.7605 44.5175Z" fill="white"/>
<path d="M72.715 40.5074C70.321 41.2683 67.9325 40.1974 67.0359 37.3765C66.1588 34.6165 67.563 32.2731 69.591 31.6286C71.9393 30.8823 73.7068 32.2177 74.4531 34.5659C74.5888 34.9929 74.6739 35.4191 74.6759 35.6367L69.4152 37.3087C70.044 38.6534 71.1915 39.0945 72.4571 38.6923C73.1586 38.4694 73.7006 38.062 74.1894 37.487L75.388 38.617C74.7335 39.463 73.7672 40.1731 72.715 40.5074ZM68.9097 35.824L72.3864 34.7191C72.0229 33.5755 71.2718 33.0083 70.174 33.3572C69.2743 33.6431 68.6849 34.5356 68.9097 35.824Z" fill="white"/>
<path d="M77.7137 38.7295L75.261 30.1117L77.1076 29.5861L77.7105 31.0614L77.7567 31.0483C78.0679 29.7453 78.816 28.867 79.7086 28.613C80.1856 28.4772 80.4845 28.4753 80.7768 28.5085L80.9483 30.5724C80.6143 30.5677 80.3549 30.5916 80.001 30.6923C79.3239 30.8851 78.6353 31.5635 78.513 32.9458L79.9759 38.0856L77.7137 38.7295Z" fill="white"/>
<path d="M84.0861 36.9557L81.8377 28.2824L84.1144 27.6922L86.3628 36.3655L84.0861 36.9557ZM82.6224 26.5913C81.8325 26.7961 81.162 26.441 80.9653 25.6821C80.7725 24.9387 81.1861 24.3025 81.976 24.0978C82.7504 23.897 83.421 24.2521 83.6137 24.9955C83.8104 25.7545 83.3968 26.3906 82.6224 26.5913Z" fill="white"/>
<path d="M90.8247 35.5045C89.2654 35.863 87.9817 34.9924 87.6412 33.511C87.2111 31.6398 88.4978 30.3098 91.9359 29.1255C91.692 28.2786 91.1672 27.7097 90.0913 27.957C89.2804 28.1434 88.5832 28.6813 87.8799 29.3355L86.7057 28.0129C87.5879 27.137 88.7171 26.3356 90.0893 26.0202C92.3036 25.5113 93.7466 26.575 94.3272 29.1012L95.4993 34.2002L93.6281 34.6303L93.2571 33.7305L93.1947 33.7449C92.5812 34.5754 91.8227 35.2751 90.8247 35.5045ZM91.161 33.5393C91.8159 33.3887 92.2276 32.9657 92.6635 32.2909L92.2585 30.5289C90.1831 31.285 89.6021 32.0424 89.7813 32.8221C89.939 33.5082 90.4905 33.6934 91.161 33.5393Z" fill="white"/>
<path d="M103.268 24.086L104.813 23.8209L104.169 20.0677L105.935 19.7647L106.579 23.5179L107.92 23.288L107.051 18.2259L108.896 17.9094L109.221 19.8017L112.517 19.2363L112.809 20.9394L109.513 21.5048L109.765 22.9714L113.676 22.3005L113.979 24.0667L111.992 24.4076L113.805 25.1355C113.003 26.2309 112.066 27.398 111.307 28.1776L109.77 27.451C110.479 26.6638 111.349 25.3944 111.834 24.4346L103.571 25.8522L103.268 24.086ZM104.52 26.842L105.753 25.6078C106.721 26.1398 107.948 26.952 108.545 27.5962L107.255 28.9702C106.705 28.3178 105.514 27.4344 104.52 26.842ZM103.104 20.5752L102.281 22.3073C101.618 21.8528 100.264 21.3384 99.1973 21.083L99.9843 19.5195C101.008 19.7171 102.384 20.163 103.104 20.5752ZM102.956 24.9187L102.152 26.6639C101.46 26.2305 100.095 25.7504 99.0289 25.495L99.7816 23.9211C100.819 24.1003 102.233 24.4908 102.956 24.9187ZM102.737 27.5212L104.356 28.4447C103.855 30.2516 103.235 32.2247 102.617 33.9216L100.777 33.036C101.36 31.7023 102.155 29.5205 102.737 27.5212ZM105.872 33.4932L104.528 32.0028C105.496 31.3012 106.945 30.0948 108.333 28.9151L109.214 30.4523C108.127 31.4991 106.891 32.6203 105.872 33.4932ZM109.867 29.9994L110.909 28.5056C112.274 28.9858 114.188 29.8263 115.146 30.4899L114.044 32.2049C113.162 31.512 111.298 30.5818 109.867 29.9994Z" fill="white"/>
<path d="M128.408 19.2886L126.942 20.6129C125.982 19.6185 123.971 18.2049 122.339 17.2605L123.692 16.0629C125.267 16.9496 127.348 18.274 128.408 19.2886ZM118.064 16.8341L120.019 17.2711C119.126 19.0572 117.614 20.9193 116.244 22.1029C115.866 21.7786 115.019 21.1892 114.552 20.9242C115.959 19.9133 117.344 18.3248 118.064 16.8341ZM118.825 24.8812L125.448 24.0686C123.967 23.1702 122.596 22.1133 121.666 21.0991C121.04 22.3043 120.043 23.6357 118.825 24.8812ZM120.009 29.1368L125.249 28.4937L124.918 25.794L119.677 26.437L120.009 29.1368ZM120.427 19.4134L122.317 19.1815C124.279 21.3749 127.073 23.1276 129.679 23.8718C129.277 24.4047 128.922 25.0608 128.659 25.6735C128.066 25.4399 127.469 25.1746 126.867 24.8617L127.553 30.4518L125.52 30.7012L125.45 30.1295L120.209 30.7725L120.281 31.3601L118.36 31.5959L117.67 25.9741C117.177 26.4215 116.662 26.8232 116.129 27.2109C115.836 26.7955 115.23 26.1928 114.801 25.8425C117.275 24.2009 119.492 21.5109 120.427 19.4134Z" fill="white"/>
<path d="M138.477 31.3325C136.781 28.9796 135.698 26.4656 135.443 23.2597C135.191 20.0858 135.86 17.4002 137.164 14.8247L138.68 15.3299C137.526 17.7652 137.134 20.5089 137.341 23.1087C137.551 25.7404 138.37 28.3717 139.895 30.5937L138.477 31.3325Z" fill="white"/>
<path d="M142.324 27.8136L141.88 20.7235L140.683 20.7985L140.574 19.0579L141.765 18.8871L141.719 18.1525C141.602 16.2842 142.375 14.793 144.626 14.6521C145.313 14.6091 145.93 14.7308 146.338 14.8495L146.016 16.6171C145.704 16.5083 145.349 16.4664 145.062 16.4844C144.359 16.5284 144.002 16.9676 144.064 17.9577L144.112 18.7242L145.788 18.6192L145.904 20.4716L144.228 20.5765L144.672 27.6667L142.324 27.8136Z" fill="white"/>
<path d="M147.64 27.5003L147.206 18.5508L149.555 18.4369L149.989 27.3864L147.64 27.5003ZM148.319 17.0551C147.504 17.0946 146.92 16.6103 146.882 15.8273C146.845 15.0602 147.379 14.5217 148.194 14.4822C148.993 14.4434 149.577 14.9277 149.615 15.6948C149.653 16.4779 149.118 17.0164 148.319 17.0551Z" fill="white"/>
<path d="M155.099 27.4138C153.468 27.4697 152.855 26.4181 152.798 24.755L152.447 14.505L154.798 14.4245L155.152 24.7705C155.171 25.3141 155.417 25.4818 155.64 25.4741C155.736 25.4709 155.8 25.4687 155.959 25.4312L156.307 27.1643C156.039 27.2856 155.658 27.3947 155.099 27.4138Z" fill="white"/>
<path d="M162.239 27.2557C159.999 27.2844 157.913 25.583 157.875 22.6072C157.837 19.6315 159.879 17.8772 162.119 17.8485C164.359 17.8198 166.445 19.5213 166.483 22.497C166.521 25.4728 164.479 27.2271 162.239 27.2557ZM162.215 25.3359C163.431 25.3203 164.105 24.2236 164.083 22.5278C164.061 20.8479 163.359 19.7528 162.143 19.7684C160.927 19.7839 160.254 20.8966 160.275 22.5765C160.297 24.2724 160.999 25.3515 162.215 25.3359Z" fill="white"/>
<path d="M177.173 27.3549C176.373 27.335 175.52 26.8977 174.819 26.128L174.755 26.1264L174.524 27.0649L172.684 27.0192L173.002 14.2552L175.353 14.3136L175.273 17.5286L175.173 18.9666C175.893 18.3443 176.799 17.9347 177.679 17.9566C179.886 18.0114 181.169 19.8519 181.101 22.587C181.024 25.6741 179.141 27.4038 177.173 27.3549ZM176.693 25.4064C177.781 25.4334 178.636 24.5264 178.684 22.575C178.727 20.8635 178.207 19.9063 176.975 19.8757C176.367 19.8605 175.816 20.1509 175.193 20.7596L175.095 24.6944C175.642 25.2042 176.214 25.3944 176.693 25.4064Z" fill="white"/>
<path d="M183.873 30.9615C183.346 30.9342 182.997 30.8521 182.652 30.7221L183.177 28.9388C183.334 28.995 183.586 29.0721 183.794 29.0829C184.705 29.13 185.246 28.5812 185.542 27.8114L185.729 27.2924L182.7 18.324L185.065 18.4463L186.272 22.6743C186.502 23.4873 186.682 24.3617 186.893 25.2377L186.972 25.2419C187.223 24.4217 187.491 23.5704 187.742 22.7503L189.187 18.6595L191.44 18.776L187.784 27.8312C186.892 29.8999 185.87 31.0647 183.873 30.9615Z" fill="white"/>
<path d="M196.78 28.1495L197.826 16.3397L205.093 16.9832L204.918 18.9595L200.01 18.5248L199.737 21.6008L203.929 21.9719L203.754 23.9482L199.562 23.5771L199.139 28.3584L196.78 28.1495Z" fill="white"/>
<path d="M209.904 29.6789C207.409 29.3886 205.672 27.4306 206.014 24.4905C206.348 21.6139 208.592 20.0547 210.705 20.3007C213.153 20.5855 214.215 22.5293 213.931 24.9768C213.879 25.4218 213.781 25.8454 213.694 26.0446L208.211 25.4065C208.231 26.8909 209.096 27.7647 210.415 27.9182C211.146 28.0032 211.808 27.8547 212.49 27.5314L213.118 29.0542C212.173 29.5564 211.001 29.8065 209.904 29.6789ZM208.36 23.8453L211.984 24.267C212.122 23.075 211.671 22.2493 210.526 22.1162C209.589 22.007 208.685 22.5784 208.36 23.8453Z" fill="white"/>
<path d="M215.319 30.1282L216.574 21.2566L218.475 21.5256L218.428 23.1187L218.475 23.1254C219.289 22.0608 220.329 21.5617 221.248 21.6917C221.739 21.7612 222.013 21.8808 222.266 22.0298L221.585 23.9857C221.282 23.8458 221.035 23.7624 220.671 23.7108C219.974 23.6122 219.069 23.9528 218.397 25.1665L217.648 30.4578L215.319 30.1282Z" fill="white"/>
<path d="M221.917 31.0908L223.331 22.2431L225.654 22.6144L224.239 31.4621L221.917 31.0908ZM224.728 21.0081C223.922 20.8793 223.45 20.2853 223.574 19.5111C223.695 18.7527 224.329 18.3356 225.134 18.4644C225.924 18.5907 226.397 19.1847 226.275 19.943C226.152 20.7172 225.518 21.1344 224.728 21.0081Z" fill="white"/>
<path d="M228.846 32.4793C227.272 32.1898 226.439 30.8814 226.714 29.3865C227.062 27.4982 228.771 26.7877 232.396 27.0645C232.508 26.1904 232.252 25.46 231.167 25.2602C230.348 25.1096 229.495 25.3267 228.59 25.6482L228.037 23.9684C229.194 23.5143 230.548 23.2267 231.933 23.4815C234.168 23.8927 235.07 25.4416 234.601 27.9908L233.654 33.1364L231.766 32.789L231.782 31.8158L231.719 31.8043C230.827 32.3233 229.853 32.6647 228.846 32.4793ZM229.934 30.8087C230.595 30.9303 231.141 30.7054 231.809 30.2589L232.136 28.4807C229.931 28.3515 229.097 28.8163 228.952 29.6031C228.825 30.2954 229.257 30.6842 229.934 30.8087Z" fill="white"/>
<path d="M244.779 26.9157L246.303 27.2882L247.207 23.5893L248.948 24.015L248.043 27.714L249.364 28.0371L250.585 23.0482L252.403 23.493L251.947 25.358L255.195 26.1525L254.784 27.831L251.536 27.0365L251.183 28.4819L255.037 29.4246L254.611 31.1653L252.653 30.6863L254.026 32.0764C252.854 32.7615 251.53 33.459 250.523 33.8715L249.403 32.5928C250.367 32.1532 251.671 31.3355 252.498 30.6483L244.354 28.6564L244.779 26.9157ZM244.83 29.9423L246.453 29.3015C247.128 30.1751 247.93 31.4089 248.222 32.2379L246.491 32.984C246.246 32.1665 245.506 30.8819 244.83 29.9423ZM246.028 23.6302L244.583 24.891C244.156 24.2102 243.119 23.1988 242.243 22.5396L243.587 21.419C244.448 22.0084 245.532 22.9653 246.028 23.6302ZM244.162 27.5553L242.729 28.8354C242.267 28.1625 241.207 27.1784 240.33 26.5193L241.648 25.3755C242.528 25.9531 243.669 26.8748 244.162 27.5553ZM242.924 29.855L244.041 31.3472C242.861 32.8046 241.507 34.3676 240.264 35.6779L238.929 34.1324C239.995 33.1413 241.593 31.4567 242.924 29.855ZM243.42 36.5815L242.782 34.6794C243.948 34.4212 245.758 33.8919 247.502 33.3631L247.697 35.1239C246.283 35.6511 244.702 36.1869 243.42 36.5815ZM248.476 34.9686L250.027 34.0138C251.088 34.9979 252.508 36.5313 253.122 37.5216L251.429 38.6556C250.896 37.6688 249.557 36.0729 248.476 34.9686Z" fill="white"/>
<path d="M269.607 32.6766L267.729 33.2878C267.257 31.9882 265.998 29.8771 264.894 28.3494L266.617 27.8077C267.694 29.2601 269.054 31.3181 269.607 32.6766ZM261.164 26.2158L262.772 27.4127C261.227 28.679 259.087 29.7621 257.353 30.2838C257.14 29.8334 256.608 28.9501 256.289 28.5174C257.986 28.1685 259.899 27.2832 261.164 26.2158ZM258.577 33.8736L264.954 35.8333C263.969 34.4091 263.149 32.8849 262.713 31.5793C261.65 32.4243 260.196 33.233 258.577 33.8736ZM257.921 38.2416L262.968 39.7925L263.767 37.1924L258.72 35.6416L257.921 38.2416ZM262.27 29.535L264.09 30.0943C264.986 32.8972 266.822 35.6373 268.898 37.3799C268.314 37.7024 267.722 38.1567 267.232 38.6086C266.786 38.1536 266.349 37.6679 265.927 37.1363L264.272 42.5199L262.315 41.9184L262.484 41.3678L257.437 39.8169L257.263 40.3828L255.412 39.8141L257.076 34.4C256.443 34.6072 255.809 34.7639 255.165 34.9006C255.067 34.4019 254.759 33.6044 254.51 33.1093C257.439 32.62 260.56 31.0684 262.27 29.535Z" fill="white"/>
<path d="M268.201 45.8545L267.064 44.7513C269.154 43.05 270.683 40.757 271.626 38.2914C272.559 35.8557 272.957 33.113 272.537 30.451L274.12 30.3886C274.659 33.2332 274.543 35.9984 273.405 38.972C272.255 41.9755 270.507 44.0817 268.201 45.8545Z" fill="white"/>
</g>
<defs>
<clipPath id="clip0_3604_17149">
<rect width="334" height="100" fill="white"/>
</clipPath>
</defs>
</svg>
