<svg width="334" height="101" viewBox="0 0 334 101" fill="none" xmlns="http://www.w3.org/2000/svg">
<g clip-path="url(#clip0_2034_23248)">
<path d="M9.82728 53.3211C10.7582 55.9497 9.38136 58.8442 6.74497 59.7752C4.11641 60.7061 1.22186 59.3292 0.290905 56.6928C-0.640045 54.0643 0.736824 51.1697 3.37321 50.2388C6.00178 49.3078 8.89633 50.6847 9.82728 53.3211Z" fill="#F5CD1E"/>
<path d="M9.27672 60.7504L6.21863 62.0751L43.8553 148.965L46.9134 147.64L9.27672 60.7504Z" fill="#F5CD1E"/>
<path d="M323.878 55.1595C322.971 57.7959 324.371 60.6748 327.007 61.5901C329.644 62.4976 332.523 61.0973 333.438 58.4609C334.345 55.8245 332.945 52.9456 330.309 52.0381C327.672 51.1306 324.794 52.531 323.878 55.1674V55.1595Z" fill="#F5CD1E"/>
<path d="M324.482 62.5862L287.544 149.775L290.613 151.075L327.551 63.8862L324.482 62.5862Z" fill="#F5CD1E"/>
<path d="M279.842 67.5592C280.108 66.1667 279.897 64.7429 279.208 63.499C277.206 59.8925 272.66 58.7034 269.109 57.3266C264.094 55.3864 259.048 53.5011 253.901 51.9208C245.366 49.3001 236.666 47.2191 227.904 45.5606C218.251 43.73 208.503 42.4079 198.724 41.5161C188.249 40.5616 177.727 40.1079 167.205 40.1001C156.683 40.1001 146.161 40.5616 135.686 41.5161C125.899 42.4079 116.151 43.73 106.505 45.5606C97.7356 47.2191 89.0363 49.3001 80.5091 51.9208C75.3615 53.5011 70.3156 55.3864 65.301 57.3266C61.7493 58.7034 57.1962 59.8847 55.2013 63.499C54.5129 64.7429 54.3017 66.1667 54.5677 67.5592L41.1745 30.8688C41.0963 30.4385 41.0493 30.0083 41.0493 29.578C41.0493 28.4436 42.7939 23.9532 53.183 19.4236C58.6983 17.0141 64.4404 15.1443 70.1982 13.3763C79.7502 10.4427 89.4744 8.1192 99.2924 6.2573C110.096 4.20765 121.002 2.72908 131.946 1.73555C143.673 0.671602 155.447 0.155273 167.213 0.155273C178.979 0.155273 190.76 0.671602 202.479 1.73555C213.424 2.72908 224.329 4.20765 235.133 6.2573C244.943 8.1192 254.675 10.4427 264.227 13.3763C269.985 15.1443 275.782 16.8967 281.242 19.4236C290.27 23.6011 293.399 28.5297 293.376 29.7032C293.368 30.0943 293.329 30.4855 293.251 30.8766L279.858 67.567H279.842V67.5592Z" fill="#E84388" stroke="white" stroke-width="0.782311" stroke-linecap="round" stroke-linejoin="round"/>
<path d="M70.5347 70.7589C70.0184 68.8891 68.5867 67.2384 66.451 66.4718C64.7612 65.8616 63.4782 65.9476 62.3361 66.2371L53.7619 65.3766L45.7198 43.3467C45.665 43.3076 42.3324 44.2776 41.3858 44.5671C30.4412 47.8841 18.91 51.5609 11.3059 60.1038C12.1039 62.3803 25.9664 94.7523 25.9664 94.7523C25.9664 94.7523 31.3487 89.8864 32.749 88.7755C35.2211 86.8119 37.8419 84.9969 40.713 83.6592C49.3653 79.6303 61.1939 83.3932 68.7041 76.6809C70.5738 75.0068 71.0823 72.7616 70.5269 70.7589H70.5347Z" fill="#E84388" stroke="white" stroke-width="0.782311" stroke-linecap="round" stroke-linejoin="round"/>
<path d="M263.273 72.8554C263.789 70.9857 265.221 69.335 267.356 68.5683C269.046 67.9581 270.329 68.0442 271.471 68.3336L280.225 66.5265L288.056 45.0833C288.111 45.0442 289.355 45.5058 292.429 46.6714C303.124 50.716 314.905 53.6653 322.509 62.2081C321.516 64.5003 307.849 96.8567 307.849 96.8567C307.849 96.8567 302.466 91.9907 301.066 90.8798C298.594 88.9162 295.973 87.1013 293.102 85.7635C284.45 81.7346 272.621 85.4975 265.111 78.7853C263.241 77.1111 262.733 74.8659 263.288 72.8632H263.273V72.8554Z" fill="#E84388" stroke="white" stroke-width="0.782311" stroke-linecap="round" stroke-linejoin="round"/>
<path d="M279.044 62.8027C277.346 60.3697 274.413 59.1728 271.62 58.1636L269.093 57.2404C268.123 56.8649 267.153 56.4973 266.183 56.1296L263.054 72.8554C263.57 70.9857 265.002 69.335 267.137 68.5683C272.152 66.769 273.599 70.9857 278.238 68.9673C279.67 68.3415 280.28 67.3479 280.296 66.1823C280.311 65.134 279.842 63.9605 279.044 62.8027Z" fill="#CB0085" stroke="#E84388" stroke-width="0.782311" stroke-miterlimit="10"/>
<path d="M55.4751 63.0686C57.1257 60.6748 59.989 59.5013 62.7114 58.5078L65.1757 57.6003C66.1223 57.2326 67.0689 56.8728 68.0155 56.5051L70.7536 71.7679C70.2529 69.9295 69.1655 69.4679 67.0846 68.7169C62.1951 66.9489 60.787 71.0952 56.2652 69.1081C54.8727 68.4979 54.2781 67.5122 54.2625 66.37C54.2468 65.3452 54.7006 64.1874 55.4829 63.053V63.0686H55.4751Z" fill="#CB0085" stroke="#E84388" stroke-width="0.782311" stroke-miterlimit="10"/>
<g opacity="0.1">
<mask id="mask0_2034_23248" style="mask-type:luminance" maskUnits="userSpaceOnUse" x="11" y="0" width="312" height="97">
<path d="M292.422 46.6715C289.347 45.5058 288.103 45.0521 288.048 45.0834L293.243 30.861C293.313 30.4698 293.36 30.0786 293.368 29.6875C293.392 28.514 290.262 23.5933 281.235 19.4079C275.774 16.8732 269.977 15.1287 264.219 13.3607C254.667 10.427 244.943 8.10352 235.125 6.24162C224.321 4.19196 213.416 2.71339 202.471 1.71986C190.745 0.655916 178.971 0.139587 167.205 0.139587C155.439 0.139587 143.657 0.655916 131.938 1.71986C120.994 2.71339 110.088 4.19196 99.2846 6.24162C89.4744 8.10352 79.7425 10.427 70.1905 13.3607C64.4326 15.1287 58.6905 17.0062 53.1752 19.4079C42.7861 23.9375 41.0337 28.4358 41.0415 29.5623C41.0415 29.9926 41.0807 30.4229 41.1667 30.8531L45.7276 43.3466C45.5789 43.3466 42.3402 44.2854 41.4014 44.567C30.4569 47.884 18.9256 51.5609 11.3215 60.1037C12.1195 62.3803 25.982 94.7523 25.982 94.7523C25.982 94.7523 31.3643 89.8863 32.7647 88.7754C35.2368 86.8118 37.8575 84.9969 40.7286 83.6591C49.381 79.6302 61.2095 83.3931 68.7197 76.6809C70.5894 75.0068 71.0979 72.7615 70.5425 70.7588C70.0262 68.8891 68.5945 67.2384 66.4588 66.4717C64.769 65.8694 63.486 65.9476 62.3439 66.237L54.5129 65.4547C54.6146 64.7741 54.8415 64.1092 55.1857 63.4911C57.1884 59.8847 61.7337 58.6956 65.2853 57.3187C70.3 55.3786 75.3459 53.4932 80.4935 51.9129C89.0285 49.2922 97.7278 47.2113 106.49 45.5528C116.143 43.7222 125.891 42.4 135.67 41.5082C146.145 40.5538 156.667 40.1 167.189 40.0922C177.711 40.0922 188.233 40.5538 198.709 41.5082C208.495 42.4 218.243 43.7222 227.889 45.5528C236.658 47.2113 245.358 49.2922 253.885 51.9129C259.033 53.4932 264.078 55.3786 269.093 57.3187C272.645 58.6956 277.198 59.8769 279.193 63.4911C279.725 64.4456 279.959 65.5095 279.928 66.5813L271.448 68.3337C270.306 68.0442 269.03 67.9581 267.333 68.5683C265.197 69.335 263.766 70.9857 263.249 72.8554C262.694 74.8581 263.202 77.1112 265.072 78.7775C272.59 85.4897 284.411 81.719 293.063 85.7557C295.934 87.0935 298.555 88.9084 301.027 90.872C302.427 91.9829 307.81 96.8489 307.81 96.8489C307.81 96.8489 321.477 64.4847 322.47 62.2003C314.866 53.6575 303.084 50.716 292.39 46.6636H292.422V46.6715Z" fill="white"/>
</mask>
<g mask="url(#mask0_2034_23248)">
<rect x="81.6715" y="-172.385" width="7.82311" height="471.38" transform="rotate(45 81.6715 -172.385)" fill="white"/>
<rect x="92.7351" y="-161.322" width="7.82311" height="471.38" transform="rotate(45 92.7351 -161.322)" fill="white"/>
<rect x="103.799" y="-150.258" width="7.82311" height="471.38" transform="rotate(45 103.799 -150.258)" fill="white"/>
<rect x="114.862" y="-139.194" width="7.82311" height="471.38" transform="rotate(45 114.862 -139.194)" fill="white"/>
<rect x="125.926" y="-128.131" width="7.82311" height="471.38" transform="rotate(45 125.926 -128.131)" fill="white"/>
<rect x="136.989" y="-117.067" width="7.82311" height="471.38" transform="rotate(45 136.989 -117.067)" fill="white"/>
<rect x="148.053" y="-106.004" width="7.82311" height="471.38" transform="rotate(45 148.053 -106.004)" fill="white"/>
<rect x="159.116" y="-94.9402" width="7.82311" height="471.38" transform="rotate(45 159.116 -94.9402)" fill="white"/>
<rect x="170.18" y="-83.8767" width="7.82311" height="471.38" transform="rotate(45 170.18 -83.8767)" fill="white"/>
<rect x="181.244" y="-72.8132" width="7.82311" height="471.38" transform="rotate(45 181.244 -72.8132)" fill="white"/>
<rect x="192.307" y="-61.7496" width="7.82311" height="471.38" transform="rotate(45 192.307 -61.7496)" fill="white"/>
<rect x="203.371" y="-50.686" width="7.82311" height="471.38" transform="rotate(45 203.371 -50.686)" fill="white"/>
<rect x="214.434" y="-39.6225" width="7.82311" height="471.38" transform="rotate(45 214.434 -39.6225)" fill="white"/>
<rect x="225.498" y="-28.559" width="7.82311" height="471.38" transform="rotate(45 225.498 -28.559)" fill="white"/>
<rect x="236.561" y="-17.4954" width="7.82311" height="471.38" transform="rotate(45 236.561 -17.4954)" fill="white"/>
<rect x="247.625" y="-6.43182" width="7.82311" height="471.38" transform="rotate(45 247.625 -6.43182)" fill="white"/>
<rect x="413.894" y="-172.385" width="7.82311" height="471.38" transform="rotate(45 413.894 -172.385)" fill="white"/>
<rect x="424.957" y="-161.322" width="7.82311" height="471.38" transform="rotate(45 424.957 -161.322)" fill="white"/>
<rect x="436.021" y="-150.258" width="7.82311" height="471.38" transform="rotate(45 436.021 -150.258)" fill="white"/>
<rect x="447.084" y="-139.194" width="7.82311" height="471.38" transform="rotate(45 447.084 -139.194)" fill="white"/>
<rect x="458.148" y="-128.131" width="7.82311" height="471.38" transform="rotate(45 458.148 -128.131)" fill="white"/>
<rect x="469.212" y="-117.067" width="7.82311" height="471.38" transform="rotate(45 469.212 -117.067)" fill="white"/>
<rect x="480.275" y="-106.004" width="7.82311" height="471.38" transform="rotate(45 480.275 -106.004)" fill="white"/>
<rect x="491.339" y="-94.9402" width="7.82311" height="471.38" transform="rotate(45 491.339 -94.9402)" fill="white"/>
<rect x="502.402" y="-83.8767" width="7.82311" height="471.38" transform="rotate(45 502.402 -83.8767)" fill="white"/>
<rect x="513.466" y="-72.8132" width="7.82311" height="471.38" transform="rotate(45 513.466 -72.8132)" fill="white"/>
<rect x="524.529" y="-61.7496" width="7.82311" height="471.38" transform="rotate(45 524.529 -61.7496)" fill="white"/>
<rect x="535.593" y="-50.686" width="7.82311" height="471.38" transform="rotate(45 535.593 -50.686)" fill="white"/>
<rect x="546.656" y="-39.6226" width="7.82311" height="471.38" transform="rotate(45 546.656 -39.6226)" fill="white"/>
<rect x="557.72" y="-28.559" width="7.82311" height="471.38" transform="rotate(45 557.72 -28.559)" fill="white"/>
<rect x="568.784" y="-17.4954" width="7.82311" height="471.38" transform="rotate(45 568.784 -17.4954)" fill="white"/>
<rect x="579.847" y="-6.43182" width="7.82311" height="471.38" transform="rotate(45 579.847 -6.43182)" fill="white"/>
</g>
</g>
<path d="M64.2125 45.927L57.9109 35.6455L60.1729 34.7967L63.0859 39.8729C63.6891 40.9795 64.3129 42.0955 64.9217 43.2171L64.9816 43.1946C64.7623 41.9269 64.5523 40.6385 64.3592 39.3951L63.6183 33.5039L65.5058 32.7957L68.8233 37.7201C69.4901 38.7687 70.1645 39.8828 70.8539 40.9912L70.9288 40.9631C70.6439 39.7029 70.3646 38.4576 70.0966 37.2423L68.9363 31.5085L71.0485 30.7159L73.1557 42.5713L70.3993 43.6056L67.0987 38.5894C66.5929 37.788 66.1078 36.9959 65.6582 36.2076L65.5983 36.2301C65.7632 37.1252 65.9338 38.0353 66.0801 38.9716L66.9239 44.9096L64.2125 45.927Z" fill="white"/>
<path d="M76.6772 36.2186L79.3524 35.3393L78.6133 34.218C77.8789 33.1625 77.1503 31.9705 76.4161 30.8644L76.3553 30.8844C76.4713 32.2105 76.5566 33.5972 76.6069 34.8775L76.6772 36.2186ZM82.1531 39.5555L80.4134 36.9274L76.7654 38.1265L76.9243 41.2743L74.6443 42.0238L74.5494 29.5917L77.1941 28.7223L84.5091 38.7811L82.1531 39.5555Z" fill="white"/>
<path d="M88.2815 37.6323L82.8943 26.8435L85.2213 26.1939L87.6835 31.5034C88.1886 32.6581 88.7134 33.8239 89.2228 34.9941L89.2844 34.9768C89.1757 33.6949 89.0781 32.3932 88.9935 31.1377L88.7658 25.2044L90.7075 24.6624L93.5859 29.8557C94.1594 30.9581 94.7347 32.1264 95.3254 33.2905L95.4025 33.269C95.2279 31.9888 95.0575 30.724 94.8958 29.4901L94.2366 23.6772L96.4095 23.0707L97.4817 35.064L94.6461 35.8556L91.7925 30.5723C91.3581 29.7301 90.9433 28.899 90.5637 28.0747L90.5021 28.0919C90.5889 28.9979 90.68 29.9194 90.7446 30.8648L91.0708 36.8536L88.2815 37.6323Z" fill="white"/>
<path d="M101.77 28.9873L104.511 28.3441L103.873 27.1628C103.233 26.0474 102.611 24.7964 101.976 23.6306L101.913 23.6453C101.913 24.9764 101.878 26.3653 101.816 27.6451L101.77 28.9873ZM106.934 32.7881L105.43 30.0185L101.691 30.8956L101.576 34.0453L99.2392 34.5934L100.227 22.2003L102.937 21.5644L109.349 32.2217L106.934 32.7881Z" fill="white"/>
<path d="M115.204 31.0056L113.119 19.3506L115.45 18.9336L116.27 23.5169L120.68 22.728L119.86 18.1448L122.176 17.7307L124.26 29.3857L121.945 29.7998L121.044 24.7598L116.634 25.5486L117.535 30.5886L115.204 31.0056Z" fill="white"/>
<path d="M128.35 23.8311L131.139 23.4419L130.612 22.207C130.077 21.0377 129.572 19.735 129.046 18.5159L128.983 18.5248C128.861 19.8503 128.698 21.2301 128.52 22.4989L128.35 23.8311ZM133.145 28.0892L131.901 25.1934L128.098 25.7242L127.694 28.8501L125.317 29.1818L127.436 16.9313L130.193 16.5465L135.601 27.7464L133.145 28.0892Z" fill="white"/>
<path d="M138.094 27.3643L136.818 15.5932L139.172 15.3381L140.448 27.1092L138.094 27.3643Z" fill="white"/>
<path d="M145.494 16.7026L145.787 20.3068L147.318 20.1825C148.833 20.0595 149.61 19.3543 149.508 18.0944C149.404 16.8186 148.54 16.4554 147.025 16.5783L145.494 16.7026ZM152.999 26.0942L150.367 26.3078L147.581 22.0393L145.938 22.1726L146.301 26.6379L143.94 26.8295L142.982 15.0284L147.097 14.6944C149.569 14.4937 151.6 15.1956 151.82 17.9067C151.964 19.6769 151.16 20.8498 149.847 21.4861L152.999 26.0942Z" fill="white"/>
<path d="M161.361 25.928C159.778 25.983 158.173 25.4144 156.984 24.3511L158.286 22.6728C159.161 23.4269 160.298 23.9157 161.338 23.8796C162.569 23.8368 163.206 23.2863 163.177 22.4548C163.147 21.5753 162.418 21.3285 161.347 20.9175L159.741 20.3009C158.524 19.8468 157.291 18.9291 157.231 17.2021C157.164 15.2673 158.807 13.7213 161.206 13.638C162.581 13.5902 163.975 14.0861 164.969 15.0281L163.821 16.5569C163.048 15.9594 162.252 15.6348 161.277 15.6687C160.237 15.7048 159.582 16.1919 159.609 16.9754C159.638 17.8229 160.496 18.0973 161.518 18.462L163.092 19.0637C164.551 19.6054 165.526 20.484 165.586 22.195C165.653 24.1298 164.095 25.833 161.361 25.928Z" fill="white"/>
<path d="M170.742 20.6138L173.558 20.6247L173.211 19.3273C172.848 18.0939 172.533 16.7327 172.186 15.4514L172.122 15.4511C171.813 16.7459 171.456 18.0886 171.099 19.3192L170.742 20.6138ZM174.883 25.5098L174.063 22.4667L170.223 22.4518L169.379 25.4886L166.979 25.4793L170.817 13.6541L173.601 13.6648L177.363 25.5194L174.883 25.5098Z" fill="white"/>
<path d="M179.64 25.5892L180.097 13.758L182.463 13.8494L182.083 23.6981L186.879 23.8833L186.803 25.8658L179.64 25.5892Z" fill="white"/>
<path d="M192.56 26.6108C189.434 26.3691 187.461 23.8576 187.757 20.0291C188.055 16.1845 190.381 14.1177 193.507 14.3594C196.634 14.6011 198.614 17.0168 198.318 20.8454C198.022 24.674 195.687 26.8525 192.56 26.6108ZM192.718 24.5689C194.473 24.7045 195.714 23.1797 195.909 20.6592C196.105 18.1228 195.106 16.521 193.351 16.3853C191.596 16.2497 190.362 17.6788 190.166 20.2153C189.971 22.7358 190.964 24.4333 192.718 24.5689Z" fill="white"/>
<path d="M199.641 26.8678L201.007 15.1069L203.407 15.3856L206.097 22.0444L206.978 24.7239L207.057 24.7331C207.072 23.4946 207.078 21.9168 207.233 20.5817L207.778 15.8933L210.003 16.1517L208.637 27.9126L206.253 27.6357L203.583 20.947L202.684 18.2815L202.605 18.2723C202.569 19.5567 202.572 21.0551 202.415 22.406L201.867 27.1262L199.641 26.8678Z" fill="white"/>
<path d="M218.598 29.0439L220.593 17.3733L222.927 17.7724L222.062 22.8349L222.109 22.843L226.839 18.4411L229.409 18.8807L225.06 22.8607L228.045 30.6592L225.474 30.2196L223.357 24.4686L221.493 26.1626L220.932 29.443L218.598 29.0439Z" fill="white"/>
<path d="M233.1 31.9453C230.031 31.299 228.402 28.5524 229.194 24.7948C229.988 21.0216 232.563 19.2748 235.632 19.9211C238.701 20.5673 240.35 23.22 239.558 26.9776C238.767 30.7352 236.169 32.5916 233.1 31.9453ZM233.522 29.9413C235.244 30.304 236.673 28.9535 237.194 26.4797C237.718 23.9903 236.936 22.2721 235.213 21.9094C233.491 21.5467 232.082 22.8033 231.558 25.2927C231.037 27.7664 231.8 29.5786 233.522 29.9413Z" fill="white"/>
<path d="M240.631 33.3605L243.51 21.876L250.556 23.6425L250.078 25.5514L245.329 24.3608L244.663 27.0146L248.698 28.0263L248.216 29.9507L244.181 28.9391L243.41 32.012L248.33 33.2454L247.848 35.1699L240.631 33.3605Z" fill="white"/>
<path d="M250.741 35.9264L254.054 24.5593L256.374 25.2353L257.912 32.2501L258.333 35.0391L258.41 35.0615C258.631 33.8429 258.901 32.2883 259.277 30.9979L260.598 26.4665L262.748 27.0932L259.436 38.4603L257.131 37.7888L255.617 30.7478L255.177 27.9697L255.1 27.9473C254.849 29.2075 254.602 30.6853 254.221 31.991L252.892 36.5532L250.741 35.9264Z" fill="white"/>
<path d="M264.707 40.0656C263.068 39.5198 262.197 38.488 261.873 36.9297L263.8 36.3066C263.968 37.273 264.443 37.8192 265.081 38.0315C266.068 38.36 266.761 38.0004 267.276 36.452L269.747 29.0285L271.994 29.7765L269.462 37.3821C268.76 39.4923 267.121 40.8691 264.707 40.0656Z" fill="white"/>
<path d="M272.339 42.7802L276.415 31.6639L278.638 32.4792L274.562 43.5954L272.339 42.7802Z" fill="white"/>
</g>
<defs>
<clipPath id="clip0_2034_23248">
<rect width="334" height="100" fill="white" transform="translate(0 0.139587)"/>
</clipPath>
</defs>
</svg>
