<svg width="334" height="100" viewBox="0 0 334 100" fill="none" xmlns="http://www.w3.org/2000/svg">
<g clip-path="url(#clip0_2301_27785)">
<path d="M9.82728 53.1815C10.7582 55.8101 9.38136 58.7046 6.74497 59.6356C4.11641 60.5665 1.22186 59.1897 0.290905 56.5533C-0.640045 53.9247 0.736824 51.0302 3.37321 50.0992C6.00178 49.1683 8.89633 50.5451 9.82728 53.1815Z" fill="#F5CD1E"/>
<path d="M9.27675 60.6108L6.21866 61.9354L43.8553 148.825L46.9134 147.501L9.27675 60.6108Z" fill="#F5CD1E"/>
<path d="M323.878 55.0199C322.971 57.6563 324.371 60.5352 327.008 61.4505C329.644 62.358 332.523 60.9577 333.438 58.3213C334.346 55.6849 332.945 52.806 330.309 51.8985C327.672 50.991 324.794 52.3914 323.878 55.0278V55.0199Z" fill="#F5CD1E"/>
<path d="M324.482 62.4466L287.545 149.636L290.613 150.936L327.551 63.7466L324.482 62.4466Z" fill="#F5CD1E"/>
<path d="M279.842 67.4196C280.108 66.027 279.897 64.6032 279.208 63.3594C277.206 59.7529 272.66 58.5638 269.109 57.1869C264.094 55.2468 259.048 53.3614 253.901 51.7812C245.366 49.1604 236.666 47.0795 227.904 45.421C218.251 43.5904 208.503 42.2683 198.724 41.3764C188.249 40.422 177.727 39.9683 167.205 39.9605C156.683 39.9605 146.161 40.422 135.685 41.3764C125.899 42.2683 116.151 43.5904 106.505 45.421C97.7356 47.0795 89.0363 49.1604 80.5091 51.7812C75.3615 53.3614 70.3156 55.2468 65.301 57.1869C61.7493 58.5638 57.1962 59.7451 55.2013 63.3594C54.5129 64.6032 54.3017 66.027 54.5677 67.4196L41.1745 30.7292C41.0963 30.2989 41.0493 29.8686 41.0493 29.4384C41.0493 28.304 42.7939 23.8136 53.183 19.284C58.6983 16.8745 64.4404 15.0047 70.1982 13.2367C79.7502 10.303 89.4744 7.97958 99.2924 6.11768C110.096 4.06802 121.002 2.58945 131.946 1.59592C143.673 0.531977 155.447 0.0156479 167.213 0.0156479C178.979 0.0156479 190.76 0.531977 202.479 1.59592C213.424 2.58945 224.329 4.06802 235.133 6.11768C244.943 7.97958 254.675 10.303 264.227 13.2367C269.985 15.0047 275.782 16.7571 281.242 19.284C290.27 23.4615 293.399 28.3901 293.376 29.5635C293.368 29.9547 293.329 30.3459 293.251 30.737L279.858 67.4274H279.842V67.4196Z" fill="#E84388" stroke="white" stroke-width="0.782311" stroke-linecap="round" stroke-linejoin="round"/>
<path d="M70.5346 70.6192C70.0183 68.7495 68.5867 67.0988 66.451 66.3322C64.7612 65.722 63.4782 65.808 62.336 66.0975L53.7619 65.2369L45.7197 43.2071C45.6649 43.1679 42.3323 44.138 41.3857 44.4275C30.4412 47.7445 18.9099 51.4213 11.3058 59.9641C12.1038 62.2407 25.9663 94.6127 25.9663 94.6127C25.9663 94.6127 31.3486 89.7467 32.749 88.6359C35.2211 86.6723 37.8418 84.8573 40.7129 83.5195C49.3653 79.4906 61.1938 83.2535 68.704 76.5413C70.5737 74.8672 71.0822 72.622 70.5268 70.6192H70.5346Z" fill="#E84388" stroke="white" stroke-width="0.782311" stroke-linecap="round" stroke-linejoin="round"/>
<path d="M263.273 72.7158C263.789 70.8461 265.221 69.1954 267.356 68.4288C269.046 67.8186 270.329 67.9046 271.471 68.1941L280.225 66.3869L288.056 44.9438C288.111 44.9047 289.355 45.3662 292.429 46.5319C303.124 50.5764 314.905 53.5257 322.509 62.0686C321.516 64.3607 307.849 96.7171 307.849 96.7171C307.849 96.7171 302.466 91.8511 301.066 90.7403C298.594 88.7767 295.973 86.9617 293.102 85.624C284.45 81.5951 272.621 85.358 265.111 78.6457C263.241 76.9716 262.733 74.7264 263.288 72.7236H263.273V72.7158Z" fill="#E84388" stroke="white" stroke-width="0.782311" stroke-linecap="round" stroke-linejoin="round"/>
<path d="M279.044 62.6631C277.346 60.2301 274.413 59.0332 271.62 58.024L269.093 57.1009C268.123 56.7254 267.153 56.3577 266.183 55.99L263.054 72.7158C263.57 70.8461 265.001 69.1954 267.137 68.4287C272.152 66.6294 273.599 70.8461 278.238 68.8277C279.67 68.2019 280.28 67.2084 280.296 66.0427C280.311 64.9944 279.842 63.8209 279.044 62.6631Z" fill="#CB0085" stroke="#E84388" stroke-width="0.782311" stroke-miterlimit="10"/>
<path d="M55.4751 62.9291C57.1258 60.5352 59.9891 59.3618 62.7115 58.3682L65.1758 57.4608C66.1224 57.0931 67.069 56.7332 68.0156 56.3655L70.7537 71.6284C70.253 69.79 69.1656 69.3284 67.0846 68.5774C62.1952 66.8094 60.787 70.9556 56.2653 68.9685C54.8728 68.3583 54.2782 67.3726 54.2625 66.2305C54.2469 65.2056 54.7006 64.0478 55.483 62.9135V62.9291H55.4751Z" fill="#CB0085" stroke="#E84388" stroke-width="0.782311" stroke-miterlimit="10"/>
<g opacity="0.1">
<mask id="mask0_2301_27785" style="mask-type:luminance" maskUnits="userSpaceOnUse" x="11" y="0" width="312" height="97">
<path d="M292.422 46.5319C289.347 45.3662 288.103 44.9125 288.048 44.9438L293.243 30.7214C293.313 30.3302 293.36 29.9391 293.368 29.5479C293.392 28.3744 290.262 23.4537 281.235 19.2683C275.774 16.7336 269.977 14.9891 264.219 13.2211C254.667 10.2874 244.943 7.96393 235.125 6.10203C224.321 4.05237 213.416 2.57381 202.471 1.58027C190.745 0.516329 178.971 0 167.205 0C155.439 0 143.657 0.516329 131.938 1.58027C120.994 2.57381 110.088 4.05237 99.2846 6.10203C89.4744 7.96393 79.7425 10.2874 70.1904 13.2211C64.4326 14.9891 58.6905 16.8666 53.1752 19.2683C42.7861 23.7979 41.0337 28.2962 41.0415 29.4227C41.0415 29.853 41.0806 30.2833 41.1667 30.7135L45.7276 43.207C45.5789 43.207 42.3402 44.1458 41.4014 44.4275C30.4569 47.7445 18.9256 51.4213 11.3215 59.9641C12.1195 62.2407 25.982 94.6127 25.982 94.6127C25.982 94.6127 31.3643 89.7467 32.7647 88.6359C35.2368 86.6723 37.8575 84.8573 40.7286 83.5195C49.381 79.4906 61.2095 83.2535 68.7197 76.5413C70.5894 74.8672 71.0979 72.622 70.5425 70.6192C70.0261 68.7495 68.5945 67.0988 66.4588 66.3322C64.769 65.7298 63.486 65.808 62.3438 66.0975L54.5129 65.3151C54.6146 64.6345 54.8415 63.9696 55.1857 63.3516C57.1884 59.7451 61.7336 58.556 65.2853 57.1791C70.2999 55.239 75.3459 53.3536 80.4935 51.7733C89.0285 49.1526 97.7278 47.0717 106.49 45.4132C116.143 43.5826 125.891 42.2604 135.67 41.3686C146.145 40.4142 156.667 39.9605 167.189 39.9526C177.711 39.9526 188.233 40.4142 198.709 41.3686C208.495 42.2604 218.243 43.5826 227.889 45.4132C236.658 47.0717 245.358 49.1526 253.885 51.7733C259.032 53.3536 264.078 55.239 269.093 57.1791C272.645 58.556 277.198 59.7373 279.193 63.3516C279.725 64.306 279.959 65.3699 279.928 66.4417L271.448 68.1941C270.306 67.9046 269.03 67.8185 267.333 68.4288C265.197 69.1954 263.766 70.8461 263.249 72.7158C262.694 74.7185 263.202 76.9716 265.072 78.6379C272.59 85.3502 284.411 81.5794 293.063 85.6161C295.934 86.9539 298.555 88.7688 301.027 90.7324C302.427 91.8433 307.81 96.7093 307.81 96.7093C307.81 96.7093 321.477 64.3451 322.47 62.0608C314.866 53.5179 303.084 50.5764 292.39 46.524H292.422V46.5319Z" fill="white"/>
</mask>
<g mask="url(#mask0_2301_27785)">
<rect x="81.6714" y="-172.525" width="7.82311" height="471.38" transform="rotate(45 81.6714 -172.525)" fill="white"/>
<rect x="92.735" y="-161.461" width="7.82311" height="471.38" transform="rotate(45 92.735 -161.461)" fill="white"/>
<rect x="103.799" y="-150.398" width="7.82311" height="471.38" transform="rotate(45 103.799 -150.398)" fill="white"/>
<rect x="114.862" y="-139.334" width="7.82311" height="471.38" transform="rotate(45 114.862 -139.334)" fill="white"/>
<rect x="125.926" y="-128.27" width="7.82311" height="471.38" transform="rotate(45 125.926 -128.27)" fill="white"/>
<rect x="136.989" y="-117.207" width="7.82311" height="471.38" transform="rotate(45 136.989 -117.207)" fill="white"/>
<rect x="148.053" y="-106.143" width="7.82311" height="471.38" transform="rotate(45 148.053 -106.143)" fill="white"/>
<rect x="159.116" y="-95.0798" width="7.82311" height="471.38" transform="rotate(45 159.116 -95.0798)" fill="white"/>
<rect x="170.18" y="-84.0163" width="7.82311" height="471.38" transform="rotate(45 170.18 -84.0163)" fill="white"/>
<rect x="181.243" y="-72.9527" width="7.82311" height="471.38" transform="rotate(45 181.243 -72.9527)" fill="white"/>
<rect x="192.307" y="-61.8892" width="7.82311" height="471.38" transform="rotate(45 192.307 -61.8892)" fill="white"/>
<rect x="203.37" y="-50.8256" width="7.82311" height="471.38" transform="rotate(45 203.37 -50.8256)" fill="white"/>
<rect x="214.434" y="-39.7621" width="7.82311" height="471.38" transform="rotate(45 214.434 -39.7621)" fill="white"/>
<rect x="225.498" y="-28.6985" width="7.82311" height="471.38" transform="rotate(45 225.498 -28.6985)" fill="white"/>
<rect x="236.561" y="-17.635" width="7.82311" height="471.38" transform="rotate(45 236.561 -17.635)" fill="white"/>
<rect x="247.625" y="-6.57145" width="7.82311" height="471.38" transform="rotate(45 247.625 -6.57145)" fill="white"/>
<rect x="413.894" y="-172.525" width="7.82311" height="471.38" transform="rotate(45 413.894 -172.525)" fill="white"/>
<rect x="424.957" y="-161.461" width="7.82311" height="471.38" transform="rotate(45 424.957 -161.461)" fill="white"/>
<rect x="436.021" y="-150.398" width="7.82311" height="471.38" transform="rotate(45 436.021 -150.398)" fill="white"/>
<rect x="447.084" y="-139.334" width="7.82311" height="471.38" transform="rotate(45 447.084 -139.334)" fill="white"/>
<rect x="458.148" y="-128.27" width="7.82311" height="471.38" transform="rotate(45 458.148 -128.27)" fill="white"/>
<rect x="469.211" y="-117.207" width="7.82311" height="471.38" transform="rotate(45 469.211 -117.207)" fill="white"/>
<rect x="480.275" y="-106.143" width="7.82311" height="471.38" transform="rotate(45 480.275 -106.143)" fill="white"/>
<rect x="491.339" y="-95.0798" width="7.82311" height="471.38" transform="rotate(45 491.339 -95.0798)" fill="white"/>
<rect x="502.402" y="-84.0163" width="7.82311" height="471.38" transform="rotate(45 502.402 -84.0163)" fill="white"/>
<rect x="513.466" y="-72.9527" width="7.82311" height="471.38" transform="rotate(45 513.466 -72.9527)" fill="white"/>
<rect x="524.529" y="-61.8892" width="7.82311" height="471.38" transform="rotate(45 524.529 -61.8892)" fill="white"/>
<rect x="535.593" y="-50.8256" width="7.82311" height="471.38" transform="rotate(45 535.593 -50.8256)" fill="white"/>
<rect x="546.656" y="-39.7621" width="7.82311" height="471.38" transform="rotate(45 546.656 -39.7621)" fill="white"/>
<rect x="557.72" y="-28.6985" width="7.82311" height="471.38" transform="rotate(45 557.72 -28.6985)" fill="white"/>
<rect x="568.783" y="-17.635" width="7.82311" height="471.38" transform="rotate(45 568.783 -17.635)" fill="white"/>
<rect x="579.847" y="-6.57145" width="7.82311" height="471.38" transform="rotate(45 579.847 -6.57145)" fill="white"/>
</g>
</g>
<path d="M82.2595 33.8806L79.7244 23.8356L81.7334 23.3285L82.7303 27.2787L86.5311 26.3194L85.5342 22.3693L87.5296 21.8657L90.0648 31.9107L88.0693 32.4143L86.9731 28.0705L83.1722 29.0298L84.2685 33.3736L82.2595 33.8806Z" fill="white"/>
<path d="M95.0876 31.0135C93.7175 31.3011 92.609 30.5182 92.3357 29.2166C91.9905 27.5724 93.1383 26.4302 96.1521 25.4542C95.9665 24.7064 95.5168 24.1999 94.5714 24.3984C93.859 24.548 93.24 25.0069 92.6139 25.5676L91.6087 24.391C92.395 23.6394 93.3962 22.9571 94.6019 22.704C96.5475 22.2955 97.7922 23.2502 98.2582 25.4698L99.1988 29.9501L97.5547 30.2953L97.2314 29.5048L97.1903 29.5135C96.6397 30.2299 95.9645 30.8294 95.0876 31.0135ZM95.4145 29.2998C95.9899 29.179 96.3571 28.8158 96.736 28.2355L96.411 26.6873C94.5994 27.3251 94.0755 27.9644 94.2194 28.6494C94.3459 29.2523 94.8253 29.4235 95.4145 29.2998Z" fill="white"/>
<path d="M103.539 32.3362C103.084 32.4165 102.77 32.4149 102.45 32.3719L102.548 30.7482C102.693 30.7653 102.923 30.7815 103.102 30.7499C103.888 30.6113 104.242 30.0371 104.343 29.3226L104.401 28.8433L100.058 21.7906L102.098 21.4307L103.957 24.7989C104.313 25.4469 104.638 26.1573 104.99 26.8629L105.059 26.8507C105.111 26.1022 105.173 25.3236 105.226 24.5751L105.655 20.8032L107.599 20.4602L106.259 28.8994C105.904 30.8385 105.262 32.0322 103.539 32.3362Z" fill="white"/>
<path d="M113.123 27.7531C111.738 27.954 110.681 27.1028 110.49 25.7865C110.249 24.1239 111.466 23.0562 114.536 22.2718C114.397 21.5138 113.981 20.9801 113.025 21.1187C112.304 21.2231 111.657 21.6422 110.997 22.1623L110.068 20.9248C110.9 20.2241 111.942 19.6063 113.162 19.4295C115.129 19.1444 116.311 20.1755 116.637 22.42L117.293 26.9507L115.631 27.1916L115.358 26.3824L115.316 26.3884C114.722 27.0688 114.01 27.6246 113.123 27.7531ZM113.557 26.0634C114.139 25.979 114.529 25.6397 114.943 25.0845L114.716 23.5188C112.868 24.0413 112.305 24.6464 112.406 25.3391C112.494 25.9487 112.962 26.1497 113.557 26.0634Z" fill="white"/>
<path d="M122.807 26.4684C120.958 26.6905 120.109 25.6081 119.898 23.8567L119.484 20.4095L118.386 20.5414L118.204 19.0263L119.388 18.7854L119.374 16.672L121.083 16.4666L121.334 18.5516L123.252 18.3211L123.446 19.9335L121.527 20.164L121.942 23.6112C122.049 24.5008 122.46 24.8744 123.155 24.7909C123.405 24.7608 123.701 24.6407 123.9 24.5322L124.412 25.9794C124.012 26.1685 123.488 26.3866 122.807 26.4684Z" fill="white"/>
<path d="M129.365 25.7693C127.414 25.9578 125.471 24.6266 125.222 22.0486C124.97 19.4427 126.622 17.764 128.573 17.5754C130.524 17.3869 132.467 18.7181 132.719 21.324C132.968 23.902 131.316 25.5807 129.365 25.7693ZM129.204 24.0971C130.263 23.9947 130.77 22.9892 130.629 21.526C130.486 20.0489 129.794 19.1453 128.735 19.2477C127.676 19.35 127.17 20.3694 127.312 21.8466C127.454 23.3097 128.145 24.1994 129.204 24.0971Z" fill="white"/>
<path d="M141.579 24.6104L141.081 15.9867L138.174 16.1546L138.075 14.4354L145.986 13.9787L146.085 15.6978L143.15 15.8673L143.648 24.4909L141.579 24.6104Z" fill="white"/>
<path d="M151.632 24.3417C149.673 24.4042 147.819 22.9507 147.737 20.362C147.653 17.7453 149.41 16.1764 151.369 16.1139C153.328 16.0513 155.181 17.5049 155.265 20.1215C155.347 22.7102 153.591 24.2791 151.632 24.3417ZM151.578 22.6625C152.641 22.6286 153.213 21.6578 153.166 20.1886C153.118 18.7053 152.486 17.759 151.422 17.793C150.359 17.827 149.788 18.8117 149.836 20.295C149.882 21.7642 150.515 22.6965 151.578 22.6625Z" fill="white"/>
<path d="M157.656 23.9888L157.583 12.817L159.585 12.804L159.629 19.5239L159.685 19.5235L162.379 16.118L164.619 16.1034L161.923 19.327L164.921 23.9416L162.695 23.9561L160.77 20.7205L159.645 22.0158L159.658 23.9758L157.656 23.9888Z" fill="white"/>
<path d="M167.741 27.1345C167.279 27.1256 166.972 27.0637 166.666 26.9598L167.074 25.3854C167.214 25.43 167.436 25.4903 167.618 25.4938C168.416 25.5091 168.874 25.0138 169.111 24.3322L169.26 23.8729L166.356 16.1159L168.427 16.1556L169.603 19.8188C169.828 20.5232 170.009 21.2828 170.219 22.043L170.289 22.0443C170.485 21.3199 170.695 20.5678 170.891 19.8434L172.039 16.2247L174.012 16.2625L171.072 24.2857C170.351 26.1202 169.491 27.168 167.741 27.1345Z" fill="white"/>
<path d="M179.178 24.5134C177.22 24.4264 175.483 22.8356 175.598 20.2482C175.714 17.6328 177.586 16.2025 179.544 16.2896C181.502 16.3767 183.239 17.9674 183.123 20.5828C183.008 23.1703 181.136 24.6005 179.178 24.5134ZM179.253 22.8351C180.316 22.8824 180.959 21.9581 181.025 20.4895C181.091 19.007 180.532 18.0152 179.469 17.9679C178.406 17.9206 177.762 18.8589 177.696 20.3415C177.631 21.81 178.19 22.7878 179.253 22.8351Z" fill="white"/>
<path d="M192.066 16.3745L191.801 19.5274L193.14 19.6399C194.465 19.7513 195.238 19.2542 195.33 18.1521C195.424 17.036 194.73 16.5984 193.405 16.487L192.066 16.3745ZM197.195 25.5582L194.893 25.3648L193.1 21.2803L191.664 21.1596L191.335 25.0658L189.271 24.8923L190.138 14.5687L193.737 14.8712C195.9 15.0529 197.552 15.9504 197.353 18.3221C197.223 19.8706 196.361 20.7676 195.136 21.1283L197.195 25.5582Z" fill="white"/>
<path d="M202.507 26.3441C200.56 26.1226 198.936 24.4163 199.229 21.8429C199.525 19.2416 201.49 17.9434 203.437 18.1648C205.385 18.3862 207.008 20.0926 206.713 22.6938C206.42 25.2672 204.455 26.5655 202.507 26.3441ZM202.697 24.6748C203.754 24.795 204.46 23.9172 204.626 22.4566C204.794 20.9821 204.305 19.9542 203.247 19.834C202.19 19.7138 201.483 20.6056 201.315 22.0801C201.149 23.5407 201.64 24.5546 202.697 24.6748Z" fill="white"/>
<path d="M208.253 29.8687L209.807 19.1306L211.47 19.3711L211.492 20.1948L211.547 20.2028C212.279 19.7428 213.147 19.4157 213.978 19.536C215.89 19.8127 216.8 21.5428 216.455 23.926C216.07 26.5863 214.254 27.8937 212.55 27.6471C211.871 27.5489 211.264 27.1498 210.746 26.5232L210.617 27.806L210.276 30.1614L208.253 29.8687ZM212.335 25.9044C213.277 26.0407 214.114 25.3413 214.359 23.6509C214.573 22.1684 214.22 21.2827 213.153 21.1284C212.627 21.0522 212.118 21.2473 211.499 21.7095L211.006 25.118C211.443 25.6197 211.919 25.8442 212.335 25.9044Z" fill="white"/>
<path d="M218.28 31.3746L220.2 20.696L221.854 20.9934L221.848 21.8173L221.903 21.8272C222.649 21.3925 223.528 21.0954 224.355 21.244C226.256 21.586 227.106 23.3463 226.68 25.7162C226.204 28.3618 224.344 29.6063 222.65 29.3014C221.974 29.18 221.381 28.7604 220.885 28.1165L220.713 29.394L220.291 31.7364L218.28 31.3746ZM222.495 27.5524C223.432 27.7209 224.292 27.0506 224.594 25.3696C224.859 23.8952 224.537 22.998 223.476 22.8072C222.953 22.713 222.437 22.8906 221.803 23.3313L221.193 26.7209C221.613 27.2373 222.081 27.4781 222.495 27.5524Z" fill="white"/>
<path d="M231.634 31.0841C229.718 30.6704 228.272 28.8113 228.819 26.2796C229.371 23.7206 231.456 22.6238 233.371 23.0375C235.287 23.4512 236.733 25.3103 236.181 27.8693C235.634 30.401 233.55 31.4978 231.634 31.0841ZM231.989 29.4419C233.029 29.6665 233.818 28.863 234.128 27.4261C234.441 25.9755 234.057 24.9042 233.017 24.6797C231.977 24.4551 231.184 25.2723 230.871 26.7229C230.561 28.1597 230.948 29.2174 231.989 29.4419Z" fill="white"/>
<path d="M237.321 32.1523L239.253 24.5543L240.881 24.9684L240.762 26.0069L240.816 26.0208C241.646 25.5386 242.558 25.1926 243.589 25.4549C245.231 25.8724 245.646 27.1916 245.16 29.1047L243.955 33.8399L241.961 33.3326L243.103 28.8416C243.4 27.6748 243.181 27.1713 242.435 26.9815C241.811 26.8228 241.342 27.0212 240.63 27.4325L239.302 32.6562L237.321 32.1523Z" fill="white"/>
<path d="M248.179 38.5934C246.408 38.0668 245.219 37.056 245.614 35.7275C245.801 35.0968 246.35 34.6757 247.15 34.49L247.17 34.4229C246.857 34.0522 246.677 33.5753 246.861 32.958C247.028 32.3944 247.573 31.9867 248.111 31.7963L248.127 31.7426C247.729 31.2153 247.457 30.3604 247.717 29.4881C248.243 27.7167 249.963 27.1908 251.56 27.6656C251.976 27.7893 252.354 27.9895 252.631 28.1886L255.342 28.9945L254.911 30.4438L253.622 30.0608C253.748 30.3756 253.772 30.8355 253.632 31.3052C253.13 32.996 251.586 33.4719 249.976 32.9931C249.68 32.9054 249.351 32.7346 249.061 32.5314C248.795 32.6421 248.636 32.7846 248.548 33.0798C248.428 33.4824 248.659 33.7849 249.545 34.0482L250.82 34.4272C252.632 34.9658 253.444 35.8207 253.053 37.1358C252.602 38.6522 250.689 39.3395 248.179 38.5934ZM250.339 31.772C250.996 31.9675 251.654 31.6225 251.917 30.7368C252.18 29.8512 251.832 29.207 251.161 29.0075C250.49 28.8081 249.832 29.153 249.569 30.0387C249.305 30.9244 249.681 31.5765 250.339 31.772ZM248.846 37.4332C249.973 37.7683 250.899 37.5032 251.074 36.9127C251.234 36.3759 250.831 36.1101 250.026 35.8707L249.113 35.5994C248.657 35.4638 248.347 35.3278 248.098 35.1809C247.683 35.3495 247.434 35.5969 247.343 35.9056C247.155 36.5363 247.745 37.1061 248.846 37.4332Z" fill="white"/>
<path d="M255.489 37.3286L258.039 29.9148L259.971 30.5796L257.422 37.9934L255.489 37.3286ZM259.428 29.0603C258.753 28.8281 258.418 28.2095 258.627 27.6005C258.846 26.965 259.481 26.7099 260.157 26.9421C260.819 27.1698 261.163 27.7619 260.944 28.3974C260.735 29.0063 260.09 29.288 259.428 29.0603Z" fill="white"/>
</g>
<defs>
<clipPath id="clip0_2301_27785">
<rect width="334" height="100" fill="white"/>
</clipPath>
</defs>
</svg>
