<svg width="334" height="101" viewBox="0 0 334 101" fill="none" xmlns="http://www.w3.org/2000/svg">
<g clip-path="url(#clip0_2003_9017)">
<path d="M9.82728 53.3211C10.7582 55.9497 9.38136 58.8442 6.74497 59.7752C4.11641 60.7061 1.22186 59.3292 0.290905 56.6928C-0.640045 54.0643 0.736824 51.1697 3.37321 50.2388C6.00178 49.3078 8.89633 50.6847 9.82728 53.3211Z" fill="#F5CD1E"/>
<path d="M9.27672 60.7504L6.21863 62.0751L43.8553 148.965L46.9134 147.64L9.27672 60.7504Z" fill="#F5CD1E"/>
<path d="M323.878 55.1595C322.971 57.7959 324.371 60.6748 327.008 61.5901C329.644 62.4976 332.523 61.0973 333.438 58.4609C334.346 55.8245 332.945 52.9456 330.309 52.0381C327.673 51.1306 324.794 52.531 323.878 55.1674V55.1595Z" fill="#F5CD1E"/>
<path d="M324.482 62.5862L287.545 149.775L290.613 151.075L327.551 63.8862L324.482 62.5862Z" fill="#F5CD1E"/>
<path d="M279.842 67.5592C280.108 66.1667 279.897 64.7429 279.208 63.499C277.206 59.8925 272.66 58.7034 269.109 57.3266C264.094 55.3864 259.048 53.5011 253.901 51.9208C245.366 49.3001 236.666 47.2191 227.904 45.5606C218.251 43.73 208.503 42.4079 198.724 41.5161C188.249 40.5616 177.727 40.1079 167.205 40.1001C156.683 40.1001 146.161 40.5616 135.686 41.5161C125.899 42.4079 116.151 43.73 106.505 45.5606C97.7356 47.2191 89.0363 49.3001 80.5091 51.9208C75.3615 53.5011 70.3156 55.3864 65.301 57.3266C61.7493 58.7034 57.1962 59.8847 55.2013 63.499C54.5129 64.7429 54.3017 66.1667 54.5677 67.5592L41.1745 30.8688C41.0963 30.4385 41.0493 30.0083 41.0493 29.578C41.0493 28.4436 42.7939 23.9532 53.183 19.4236C58.6983 17.0141 64.4404 15.1443 70.1982 13.3763C79.7502 10.4427 89.4744 8.1192 99.2924 6.2573C110.096 4.20765 121.002 2.72908 131.946 1.73555C143.673 0.671602 155.447 0.155273 167.213 0.155273C178.979 0.155273 190.76 0.671602 202.479 1.73555C213.424 2.72908 224.329 4.20765 235.133 6.2573C244.943 8.1192 254.675 10.4427 264.227 13.3763C269.985 15.1443 275.782 16.8967 281.242 19.4236C290.27 23.6011 293.399 28.5297 293.376 29.7032C293.368 30.0943 293.329 30.4855 293.251 30.8766L279.858 67.567H279.842V67.5592Z" fill="#E84388" stroke="white" stroke-width="0.782311" stroke-linecap="round" stroke-linejoin="round"/>
<path d="M70.5347 70.7589C70.0184 68.8891 68.5867 67.2384 66.451 66.4718C64.7612 65.8616 63.4782 65.9476 62.3361 66.2371L53.7619 65.3766L45.7198 43.3467C45.665 43.3076 42.3324 44.2776 41.3858 44.5671C30.4412 47.8841 18.91 51.5609 11.3059 60.1038C12.1039 62.3803 25.9664 94.7523 25.9664 94.7523C25.9664 94.7523 31.3487 89.8864 32.749 88.7755C35.2211 86.8119 37.8419 84.9969 40.713 83.6592C49.3653 79.6303 61.1939 83.3932 68.7041 76.6809C70.5738 75.0068 71.0823 72.7616 70.5269 70.7589H70.5347Z" fill="#E84388" stroke="white" stroke-width="0.782311" stroke-linecap="round" stroke-linejoin="round"/>
<path d="M263.273 72.8554C263.789 70.9857 265.221 69.335 267.356 68.5683C269.046 67.9581 270.329 68.0442 271.471 68.3336L280.225 66.5265L288.056 45.0833C288.111 45.0442 289.355 45.5058 292.429 46.6714C303.124 50.716 314.905 53.6653 322.509 62.2081C321.516 64.5003 307.849 96.8567 307.849 96.8567C307.849 96.8567 302.466 91.9907 301.066 90.8798C298.594 88.9162 295.973 87.1013 293.102 85.7635C284.45 81.7346 272.621 85.4975 265.111 78.7853C263.241 77.1111 262.733 74.8659 263.288 72.8632H263.273V72.8554Z" fill="#E84388" stroke="white" stroke-width="0.782311" stroke-linecap="round" stroke-linejoin="round"/>
<path d="M279.044 62.8027C277.346 60.3697 274.413 59.1728 271.62 58.1636L269.093 57.2404C268.123 56.8649 267.153 56.4973 266.183 56.1296L263.054 72.8554C263.57 70.9857 265.002 69.335 267.137 68.5683C272.152 66.769 273.599 70.9857 278.238 68.9673C279.67 68.3415 280.28 67.3479 280.296 66.1823C280.311 65.134 279.842 63.9605 279.044 62.8027Z" fill="#CB0085" stroke="#E84388" stroke-width="0.782311" stroke-miterlimit="10"/>
<path d="M55.4751 63.0686C57.1257 60.6748 59.989 59.5013 62.7114 58.5078L65.1757 57.6003C66.1223 57.2326 67.0689 56.8728 68.0155 56.5051L70.7536 71.7679C70.2529 69.9295 69.1655 69.4679 67.0846 68.7169C62.1951 66.9489 60.787 71.0952 56.2652 69.1081C54.8727 68.4979 54.2781 67.5122 54.2625 66.37C54.2468 65.3452 54.7006 64.1874 55.4829 63.053V63.0686H55.4751Z" fill="#CB0085" stroke="#E84388" stroke-width="0.782311" stroke-miterlimit="10"/>
<g opacity="0.1">
<mask id="mask0_2003_9017" style="mask-type:luminance" maskUnits="userSpaceOnUse" x="11" y="0" width="312" height="97">
<path d="M292.422 46.6715C289.347 45.5058 288.103 45.0521 288.048 45.0834L293.243 30.861C293.313 30.4698 293.36 30.0786 293.368 29.6875C293.392 28.514 290.262 23.5933 281.235 19.4079C275.774 16.8732 269.977 15.1287 264.219 13.3607C254.667 10.427 244.943 8.10352 235.125 6.24162C224.321 4.19196 213.416 2.71339 202.471 1.71986C190.745 0.655916 178.971 0.139587 167.205 0.139587C155.439 0.139587 143.657 0.655916 131.938 1.71986C120.994 2.71339 110.088 4.19196 99.2846 6.24162C89.4744 8.10352 79.7425 10.427 70.1905 13.3607C64.4326 15.1287 58.6905 17.0062 53.1752 19.4079C42.7861 23.9375 41.0337 28.4358 41.0415 29.5623C41.0415 29.9926 41.0807 30.4229 41.1667 30.8531L45.7276 43.3466C45.5789 43.3466 42.3402 44.2854 41.4014 44.567C30.4569 47.884 18.9256 51.5609 11.3215 60.1037C12.1195 62.3803 25.982 94.7523 25.982 94.7523C25.982 94.7523 31.3643 89.8863 32.7647 88.7754C35.2368 86.8118 37.8575 84.9969 40.7286 83.6591C49.381 79.6302 61.2095 83.3931 68.7197 76.6809C70.5894 75.0068 71.0979 72.7615 70.5425 70.7588C70.0262 68.8891 68.5945 67.2384 66.4588 66.4717C64.769 65.8694 63.486 65.9476 62.3439 66.237L54.5129 65.4547C54.6146 64.7741 54.8415 64.1092 55.1857 63.4911C57.1884 59.8847 61.7337 58.6956 65.2853 57.3187C70.3 55.3786 75.3459 53.4932 80.4935 51.9129C89.0285 49.2922 97.7278 47.2113 106.49 45.5528C116.143 43.7222 125.891 42.4 135.67 41.5082C146.145 40.5538 156.667 40.1 167.189 40.0922C177.711 40.0922 188.233 40.5538 198.709 41.5082C208.495 42.4 218.243 43.7222 227.889 45.5528C236.658 47.2113 245.358 49.2922 253.885 51.9129C259.033 53.4932 264.078 55.3786 269.093 57.3187C272.645 58.6956 277.198 59.8769 279.193 63.4911C279.725 64.4456 279.959 65.5095 279.928 66.5813L271.448 68.3337C270.306 68.0442 269.03 67.9581 267.333 68.5683C265.197 69.335 263.766 70.9857 263.249 72.8554C262.694 74.8581 263.202 77.1112 265.072 78.7775C272.59 85.4897 284.411 81.719 293.063 85.7557C295.934 87.0935 298.555 88.9084 301.027 90.872C302.427 91.9829 307.81 96.8489 307.81 96.8489C307.81 96.8489 321.477 64.4847 322.47 62.2003C314.866 53.6575 303.084 50.716 292.39 46.6636H292.422V46.6715Z" fill="white"/>
</mask>
<g mask="url(#mask0_2003_9017)">
<rect x="81.6715" y="-172.385" width="7.82311" height="471.38" transform="rotate(45 81.6715 -172.385)" fill="white"/>
<rect x="92.735" y="-161.322" width="7.82311" height="471.38" transform="rotate(45 92.735 -161.322)" fill="white"/>
<rect x="103.799" y="-150.258" width="7.82311" height="471.38" transform="rotate(45 103.799 -150.258)" fill="white"/>
<rect x="114.862" y="-139.194" width="7.82311" height="471.38" transform="rotate(45 114.862 -139.194)" fill="white"/>
<rect x="125.926" y="-128.131" width="7.82311" height="471.38" transform="rotate(45 125.926 -128.131)" fill="white"/>
<rect x="136.989" y="-117.067" width="7.82311" height="471.38" transform="rotate(45 136.989 -117.067)" fill="white"/>
<rect x="148.053" y="-106.004" width="7.82311" height="471.38" transform="rotate(45 148.053 -106.004)" fill="white"/>
<rect x="159.116" y="-94.9402" width="7.82311" height="471.38" transform="rotate(45 159.116 -94.9402)" fill="white"/>
<rect x="170.18" y="-83.8767" width="7.82311" height="471.38" transform="rotate(45 170.18 -83.8767)" fill="white"/>
<rect x="181.243" y="-72.8132" width="7.82311" height="471.38" transform="rotate(45 181.243 -72.8132)" fill="white"/>
<rect x="192.307" y="-61.7496" width="7.82311" height="471.38" transform="rotate(45 192.307 -61.7496)" fill="white"/>
<rect x="203.37" y="-50.686" width="7.82311" height="471.38" transform="rotate(45 203.37 -50.686)" fill="white"/>
<rect x="214.434" y="-39.6226" width="7.82311" height="471.38" transform="rotate(45 214.434 -39.6226)" fill="white"/>
<rect x="225.498" y="-28.559" width="7.82311" height="471.38" transform="rotate(45 225.498 -28.559)" fill="white"/>
<rect x="236.561" y="-17.4954" width="7.82311" height="471.38" transform="rotate(45 236.561 -17.4954)" fill="white"/>
<rect x="247.625" y="-6.43182" width="7.82311" height="471.38" transform="rotate(45 247.625 -6.43182)" fill="white"/>
<rect x="413.894" y="-172.385" width="7.82311" height="471.38" transform="rotate(45 413.894 -172.385)" fill="white"/>
<rect x="424.957" y="-161.322" width="7.82311" height="471.38" transform="rotate(45 424.957 -161.322)" fill="white"/>
<rect x="436.021" y="-150.258" width="7.82311" height="471.38" transform="rotate(45 436.021 -150.258)" fill="white"/>
<rect x="447.084" y="-139.194" width="7.82311" height="471.38" transform="rotate(45 447.084 -139.194)" fill="white"/>
<rect x="458.148" y="-128.131" width="7.82311" height="471.38" transform="rotate(45 458.148 -128.131)" fill="white"/>
<rect x="469.211" y="-117.067" width="7.82311" height="471.38" transform="rotate(45 469.211 -117.067)" fill="white"/>
<rect x="480.275" y="-106.004" width="7.82311" height="471.38" transform="rotate(45 480.275 -106.004)" fill="white"/>
<rect x="491.339" y="-94.9402" width="7.82311" height="471.38" transform="rotate(45 491.339 -94.9402)" fill="white"/>
<rect x="502.402" y="-83.8767" width="7.82311" height="471.38" transform="rotate(45 502.402 -83.8767)" fill="white"/>
<rect x="513.466" y="-72.8132" width="7.82311" height="471.38" transform="rotate(45 513.466 -72.8132)" fill="white"/>
<rect x="524.529" y="-61.7496" width="7.82311" height="471.38" transform="rotate(45 524.529 -61.7496)" fill="white"/>
<rect x="535.593" y="-50.686" width="7.82311" height="471.38" transform="rotate(45 535.593 -50.686)" fill="white"/>
<rect x="546.656" y="-39.6225" width="7.82311" height="471.38" transform="rotate(45 546.656 -39.6225)" fill="white"/>
<rect x="557.72" y="-28.559" width="7.82311" height="471.38" transform="rotate(45 557.72 -28.559)" fill="white"/>
<rect x="568.783" y="-17.4954" width="7.82311" height="471.38" transform="rotate(45 568.783 -17.4954)" fill="white"/>
<rect x="579.847" y="-6.43182" width="7.82311" height="471.38" transform="rotate(45 579.847 -6.43182)" fill="white"/>
</g>
</g>
<path d="M74.5666 41.4902L71.2943 31.6606L73.2602 31.0061L74.547 34.8716L78.2664 33.6334L76.9796 29.768L78.9322 29.118L82.2045 38.9476L80.2518 39.5976L78.8368 35.347L75.1175 36.5851L76.5325 40.8358L74.5666 41.4902Z" fill="white"/>
<path d="M85.6931 33.4207L88.056 32.7223L87.4393 31.7221C86.8249 30.7796 86.2191 29.7177 85.6063 28.7309L85.5526 28.7468C85.6189 29.9097 85.6569 31.1248 85.667 32.2459L85.6931 33.4207ZM90.3941 36.4839L88.942 34.1393L85.7198 35.0916L85.7756 37.8489L83.7617 38.4441L84.0073 27.5685L86.3434 26.878L92.4751 35.8688L90.3941 36.4839Z" fill="white"/>
<path d="M93.3935 35.6463L90.6837 25.6469L92.6836 25.105L95.3934 35.1043L93.3935 35.6463Z" fill="white"/>
<path d="M96.8007 25.7124L97.5585 28.7843L98.8634 28.4624C100.155 28.1439 100.727 27.4258 100.462 26.352C100.194 25.2646 99.3969 25.072 98.1056 25.3905L96.8007 25.7124ZM104.599 32.7723L102.356 33.3256L99.3508 30.0293L97.9508 30.3747L98.8896 34.1806L96.8779 34.6768L94.3967 24.6183L97.9036 23.7533C100.01 23.2335 101.863 23.5551 102.433 25.8659C102.806 27.3746 102.276 28.5003 101.231 29.2338L104.599 32.7723Z" fill="white"/>
<path d="M111.629 28.292C111.798 29.1577 112.586 29.6175 113.562 29.4275C114.057 29.3312 114.528 29.0398 114.947 28.6301C113.942 28.0841 113.001 27.4258 112.189 26.6996C111.778 27.2219 111.522 27.7423 111.629 28.292ZM111.68 23.1331C111.763 23.5591 111.989 23.9858 112.316 24.4213C113.02 23.7852 113.542 23.1701 113.397 22.428C113.298 21.9196 112.992 21.594 112.456 21.6983C111.866 21.8134 111.533 22.3773 111.68 23.1331ZM119.439 28.1835L119.265 29.9289C118.433 29.9054 117.484 29.7194 116.528 29.3493C115.818 30.1721 114.868 30.7851 113.617 31.0285C111.487 31.4432 110.037 30.3705 109.73 28.7902C109.454 27.3748 110.187 26.3764 111.078 25.5325C110.516 24.8432 110.135 24.1329 110.004 23.4595C109.728 22.0441 110.532 20.6754 112.167 20.357C113.61 20.0761 114.702 20.7763 114.961 22.1092C115.223 23.456 114.287 24.5083 113.349 25.4754C114.101 26.1135 115.028 26.7031 115.96 27.1636C116.356 26.3447 116.628 25.3933 116.707 24.3366L118.535 23.9808C118.407 25.3036 118.074 26.5951 117.497 27.8057C118.228 28.0483 118.898 28.189 119.439 28.1835Z" fill="white"/>
<path d="M124.313 28.8314L122.841 18.5764L125.114 18.2503L127.548 22.7947C127.861 23.4003 128.153 24.0515 128.456 24.6869L128.525 24.6769C128.651 23.9799 128.734 23.275 128.864 22.6058L129.881 17.5663L132.154 17.2402L133.625 27.4952L131.754 27.7636L131.14 23.4815C131.001 22.5114 130.948 21.0621 130.906 20.0782L130.851 20.0861L130.365 22.6167L129.404 27.1533L128.226 27.3223L126.014 23.2411L124.85 20.9471L124.795 20.9551C125.031 21.9112 125.402 23.3147 125.541 24.2848L126.156 28.5669L124.313 28.8314Z" fill="white"/>
<path d="M137.404 22.7416L139.854 22.4762L139.426 21.382C138.989 20.3449 138.583 19.192 138.156 18.1117L138.1 18.1177C137.958 19.2738 137.778 20.4761 137.588 21.581L137.404 22.7416ZM141.483 26.5946L140.473 24.0285L137.132 24.3905L136.695 27.1135L134.607 27.3397L136.79 16.6825L139.212 16.4201L143.641 26.3609L141.483 26.5946Z" fill="white"/>
<path d="M144.615 26.2524L143.816 15.9232L145.882 15.7635L146.229 20.2442L146.27 20.2409L149.344 15.496L151.619 15.3201L148.778 19.6258L152.976 25.6061L150.701 25.782L147.676 21.3539L146.456 23.1894L146.681 26.0927L144.615 26.2524Z" fill="white"/>
<path d="M154.583 25.403L154.143 15.0524L160.493 14.7826L160.566 16.5031L156.286 16.6849L156.388 19.0767L160.025 18.9223L160.098 20.6567L156.461 20.8112L156.579 23.5807L161.013 23.3923L161.087 25.1268L154.583 25.403Z" fill="white"/>
<path d="M168.277 24.9977V14.6377H174.633V16.3597H170.349V18.7537H173.989V20.4897H170.349V23.2617H174.787V24.9977H168.277Z" fill="white"/>
<path d="M179.033 20.8148L181.496 20.8909L181.223 19.7479C180.934 18.6605 180.691 17.4624 180.418 16.3335L180.362 16.3317C180.061 17.457 179.717 18.6229 179.376 19.6909L179.033 20.8148ZM182.539 25.1952L181.894 22.514L178.535 22.4102L177.726 25.0465L175.627 24.9817L179.263 14.729L181.698 14.8042L184.708 25.2622L182.539 25.1952Z" fill="white"/>
<path d="M188.5 16.7338L188.305 19.8918L189.646 19.9747C190.974 20.0567 191.735 19.5427 191.803 18.4388C191.872 17.321 191.169 16.8988 189.841 16.8167L188.5 16.7338ZM193.831 25.8019L191.525 25.6594L189.643 21.6156L188.204 21.5267L187.962 25.4392L185.894 25.3114L186.533 14.9711L190.138 15.1939C192.304 15.3278 193.976 16.1886 193.829 18.5641C193.733 20.1151 192.891 21.0309 191.675 21.4186L193.831 25.8019Z" fill="white"/>
<path d="M197.432 26.1085L198.23 17.5075L195.33 17.2383L195.49 15.5237L203.38 16.256L203.221 17.9707L200.293 17.699L199.495 26.3L197.432 26.1085Z" fill="white"/>
<path d="M204.218 26.8595L205.531 16.5831L207.587 16.8459L207.07 20.887L210.958 21.3841L211.475 17.343L213.516 17.604L212.203 27.8803L210.161 27.6194L210.729 23.1755L206.841 22.6784L206.273 27.1222L204.218 26.8595Z" fill="white"/>
<path d="M225.529 29.9178C222.745 29.4199 220.967 27.196 221.576 23.7921C222.178 20.4294 224.707 18.8482 227.422 19.3338C228.897 19.5976 229.803 20.4139 230.344 21.2075L229.024 22.3082C228.614 21.7372 228.102 21.2615 227.178 21.0964C225.483 20.7932 224.061 21.9042 223.669 24.0954C223.272 26.3142 224.053 27.8334 226.051 28.1908C226.548 28.2796 227.068 28.2305 227.402 28.0342L227.762 26.0221L225.957 25.6992L226.255 24.0317L229.879 24.68L229.056 29.2829C228.246 29.835 226.949 30.1717 225.529 29.9178Z" fill="white"/>
<path d="M231.67 30.8901L233.766 20.7444L235.795 21.1636L233.699 31.3093L231.67 30.8901Z" fill="white"/>
<path d="M236.535 31.8888L238.901 21.8026L240.959 22.2854L242.63 28.3431L243.127 30.7605L243.195 30.7765C243.332 29.7014 243.496 28.3305 243.764 27.1856L244.708 23.1648L246.616 23.6125L244.249 33.6986L242.205 33.219L240.554 27.1372L240.041 24.7302L239.972 24.7142C239.812 25.827 239.665 27.1298 239.393 28.2883L238.443 32.3364L236.535 31.8888Z" fill="white"/>
<path d="M244.722 33.7999L245.044 32.596L251.617 26.6997L247.396 25.5732L247.84 23.9095L254.509 25.6895L254.191 26.8798L247.632 32.7797L252.339 34.0362L251.891 35.7134L244.722 33.7999Z" fill="white"/>
<path d="M257.001 32.7309L259.362 33.4382L259.392 32.2635C259.393 31.1385 259.466 29.9182 259.493 28.7569L259.439 28.7408C258.859 29.7508 258.226 30.7889 257.622 31.7331L257.001 32.7309ZM259.262 37.8661L259.328 35.1091L256.11 34.1446L254.649 36.4836L252.637 35.8808L258.79 26.9093L261.123 27.6086L261.341 38.489L259.262 37.8661Z" fill="white"/>
</g>
<defs>
<clipPath id="clip0_2003_9017">
<rect width="334" height="100" fill="white" transform="translate(0 0.139587)"/>
</clipPath>
</defs>
</svg>
