<svg fill="none" height="101" viewBox="0 0 334 101" width="334" xmlns="http://www.w3.org/2000/svg" xmlns:xlink="http://www.w3.org/1999/xlink"><clipPath id="a"><path d="m0 .139587h334v100h-334z"/></clipPath><mask id="b" height="97" maskUnits="userSpaceOnUse" width="312" x="11" y="0"><path d="m292.422 46.6715c-3.075-1.1657-4.319-1.6194-4.374-1.5881l5.195-14.2224c.07-.3912.117-.7824.125-1.1735.024-1.1735-3.106-6.0942-12.133-10.2796-5.461-2.5347-11.258-4.2792-17.016-6.0472-9.552-2.9337-19.276-5.25718-29.094-7.11908-10.804-2.04966-21.709-3.52823-32.654-4.52176-11.726-1.063944-23.5-1.580273-35.266-1.580273s-23.548.516329-35.267 1.580273c-10.944.99353-21.85 2.4721-32.6534 4.52176-9.8102 1.8619-19.5421 4.18538-29.0941 7.11908-5.7579 1.768-11.5 3.6455-17.0153 6.0472-10.3891 4.5296-12.1415 9.0279-12.1337 10.1544 0 .4303.0392.8606.1252 1.2908l4.5609 12.4935c-.1487 0-3.3874.9388-4.3262 1.2204-10.9445 3.317-22.4758 6.9939-30.0799 15.5367.798 2.2766 14.6605 34.6486 14.6605 34.6486s5.3823-4.866 6.7827-5.9769c2.4721-1.9636 5.0928-3.7785 7.9639-5.1163 8.6524-4.0289 20.4809-.266 27.9911-6.9782 1.8697-1.6741 2.3782-3.9194 1.8228-5.9221-.5163-1.8697-1.948-3.5204-4.0837-4.2871-1.6898-.6023-2.9728-.5241-4.1149-.2347l-7.831-.7823c.1017-.6806.3286-1.3455.6728-1.9636 2.0027-3.6064 6.548-4.7955 10.0996-6.1724 5.0147-1.9401 10.0606-3.8255 15.2082-5.4058 8.535-2.6207 17.2343-4.7016 25.9965-6.3601 9.653-1.8306 19.401-3.1528 29.18-4.0446 10.475-.9544 20.997-1.4082 31.519-1.416 10.522 0 21.044.4616 31.52 1.416 9.786.8918 19.534 2.214 29.18 4.0446 8.769 1.6585 17.469 3.7394 25.996 6.3601 5.148 1.5803 10.193 3.4657 15.208 5.4058 3.552 1.3769 8.105 2.5582 10.1 6.1724.532.9545.766 2.0184.735 3.0902l-8.48 1.7524c-1.142-.2895-2.418-.3756-4.115.2346-2.136.7667-3.567 2.4174-4.084 4.2871-.555 2.0027-.047 4.2558 1.823 5.9221 7.518 6.7122 19.339 2.9415 27.991 6.9782 2.871 1.3378 5.492 3.1527 7.964 5.1163 1.4 1.1109 6.783 5.9769 6.783 5.9769s13.667-32.3642 14.66-34.6486c-7.604-8.5428-19.386-11.4843-30.08-15.5367h.032z" fill="#fff"/></mask><g clip-path="url(#a)"><path d="m9.82728 53.3211c.93092 2.6286-.44592 5.5231-3.08231 6.4541-2.62856.9309-5.52311-.446-6.454065-3.0824-.93095-2.6285.445919-5.5231 3.082305-6.454 2.62857-.931 5.52312.4459 6.45407 3.0823z" fill="#f5cd1e"/><path d="m9.27672 60.7504-3.05809 1.3247 37.63667 86.8899 3.0581-1.325z" fill="#f5cd1e"/><path d="m323.878 55.1595c-.907 2.6364.493 5.5153 3.129 6.4306 2.637.9075 5.516-.4928 6.431-3.1292.907-2.6364-.493-5.5153-3.129-6.4228-2.637-.9075-5.515.4929-6.431 3.1293z" fill="#f5cd1e"/><path d="m324.482 62.5862-36.938 87.1888 3.069 1.3 36.938-87.1888z" fill="#f5cd1e"/><path d="m279.842 67.5592c.266-1.3925.055-2.8163-.634-4.0602-2.002-3.6065-6.548-4.7956-10.099-6.1724-5.015-1.9402-10.061-3.8255-15.208-5.4058-8.535-2.6207-17.235-4.7017-25.997-6.3602-9.653-1.8306-19.401-3.1527-29.18-4.0445-10.475-.9545-20.997-1.4082-31.519-1.416-10.522 0-21.044.4615-31.519 1.416-9.787.8918-19.535 2.2139-29.181 4.0445-8.7694 1.6585-17.4687 3.7395-25.9959 6.3602-5.1476 1.5803-10.1935 3.4656-15.2081 5.4058-3.5517 1.3768-8.1048 2.5581-10.0997 6.1724-.6884 1.2439-.8996 2.6677-.6336 4.0602l-13.3932-36.6904c-.0782-.4303-.1252-.8605-.1252-1.2908 0-1.1344 1.7446-5.6248 12.1337-10.1544 5.5153-2.4095 11.2574-4.2793 17.0152-6.0473 9.552-2.9336 19.2762-5.2571 29.0942-7.119 10.8036-2.04965 21.7096-3.52822 32.6536-4.52175 11.727-1.063948 23.501-1.580277 35.267-1.580277s23.547.516329 35.266 1.580277c10.945.99353 21.85 2.4721 32.654 4.52175 9.81 1.8619 19.542 4.1854 29.094 7.119 5.758 1.768 11.555 3.5204 17.015 6.0473 9.028 4.1775 12.157 9.1061 12.134 10.2796-.008.3911-.047.7823-.125 1.1734l-13.393 36.6904h-.016z" fill="#e84388" stroke="#fff" stroke-linecap="round" stroke-linejoin="round" stroke-width=".782311"/><path d="m70.5347 70.7589c-.5163-1.8698-1.948-3.5205-4.0837-4.2871-1.6898-.6102-2.9728-.5242-4.1149-.2347l-8.5742-.8605-8.0421-22.0299c-.0548-.0391-3.3874.9309-4.334 1.2204-10.9446 3.317-22.4758 6.9938-30.0799 15.5367.798 2.2765 14.6605 34.6485 14.6605 34.6485s5.3823-4.8659 6.7826-5.9768c2.4721-1.9636 5.0929-3.7786 7.964-5.1163 8.6523-4.0289 20.4809-.266 27.9911-6.9783 1.8697-1.6741 2.3782-3.9193 1.8228-5.922z" fill="#e84388" stroke="#fff" stroke-linecap="round" stroke-linejoin="round" stroke-width=".782311"/><path d="m263.273 72.8554c.516-1.8697 1.948-3.5204 4.083-4.2871 1.69-.6102 2.973-.5241 4.115-.2347l8.754-1.8071 7.831-21.4432c.055-.0391 1.299.4225 4.373 1.5881 10.695 4.0446 22.476 6.9939 30.08 15.5367-.993 2.2922-14.66 34.6486-14.66 34.6486s-5.383-4.866-6.783-5.9769c-2.472-1.9636-5.093-3.7785-7.964-5.1163-8.652-4.0289-20.481-.266-27.991-6.9782-1.87-1.6742-2.378-3.9194-1.823-5.9221h-.015z" fill="#e84388" stroke="#fff" stroke-linecap="round" stroke-linejoin="round" stroke-width=".782311"/><path d="m279.044 62.8027c-1.698-2.433-4.631-3.6299-7.424-4.6391l-2.527-.9232c-.97-.3755-1.94-.7431-2.91-1.1108l-3.129 16.7258c.516-1.8697 1.948-3.5204 4.083-4.2871 5.015-1.7993 6.462 2.4174 11.101.399 1.432-.6258 2.042-1.6194 2.058-2.785.015-1.0483-.454-2.2218-1.252-3.3796z" fill="#cb0085" stroke="#e84388" stroke-miterlimit="10" stroke-width=".782311"/><path d="m55.4751 63.0686c1.6506-2.3938 4.5139-3.5673 7.2363-4.5608l2.4643-.9075c.9466-.3677 1.8932-.7275 2.8398-1.0952l2.7381 15.2628c-.5007-1.8384-1.5881-2.3-3.669-3.051-4.8895-1.768-6.2976 2.3783-10.8194.3912-1.3925-.6102-1.9871-1.5959-2.0027-2.7381-.0157-1.0248.4381-2.1826 1.2204-3.317v.0156z" fill="#cb0085" stroke="#e84388" stroke-miterlimit="10" stroke-width=".782311"/><g fill="#fff" mask="url(#b)" opacity=".1"><path d="m81.6715-172.385h7.82311v471.38h-7.82311z" transform="matrix(.70710678 .70710678 -.70710678 .70710678 -97.973574 -108.240869)"/><path d="m92.735-161.322h7.82311v471.38h-7.82311z" transform="matrix(.70710678 .70710678 -.70710678 .70710678 -86.910428 -112.823667)"/><path d="m103.799-150.258h7.82311v471.38h-7.82311z" transform="matrix(.70710678 .70710678 -.70710678 .70710678 -75.846428 -117.406526)"/><path d="m114.862-139.194h7.82311v471.38h-7.82311z" transform="matrix(.70710678 .70710678 -.70710678 .70710678 -64.78272 -121.988678)"/><path d="m125.926-128.131h7.82311v471.38h-7.82311z" transform="matrix(.70710678 .70710678 -.70710678 .70710678 -53.719428 -126.57183)"/><path d="m136.989-117.067h7.82311v471.38h-7.82311z" transform="matrix(.70710678 .70710678 -.70710678 .70710678 -42.65572 -131.153981)"/><path d="m148.053-106.004h7.82311v471.38h-7.82311z" transform="matrix(.70710678 .70710678 -.70710678 .70710678 -31.592428 -135.737133)"/><path d="m159.116-94.9402h7.82311v471.38h-7.82311z" transform="matrix(.70710678 .70710678 -.70710678 .70710678 -20.528862 -140.319343)"/><path d="m170.18-83.8767h7.82311v471.38h-7.82311z" transform="matrix(.70710678 .70710678 -.70710678 .70710678 -9.465215 -144.902349)"/><path d="m181.243-72.8132h7.82311v471.38h-7.82311z" transform="matrix(.70710678 .70710678 -.70710678 .70710678 1.598138 -149.484647)"/><path d="m192.307-61.7496h7.82311v471.38h-7.82311z" transform="matrix(.70710678 .70710678 -.70710678 .70710678 12.661855 -154.067623)"/><path d="m203.37-50.686h7.82311v471.38h-7.82311z" transform="matrix(.70710678 .70710678 -.70710678 .70710678 23.72528 -158.649892)"/><path d="m214.434-39.6226h7.82311v471.38h-7.82311z" transform="matrix(.70710678 .70710678 -.70710678 .70710678 34.788855 -163.232926)"/><path d="m225.498-28.559h7.82311v471.38h-7.82311z" transform="matrix(.70710678 .70710678 -.70710678 .70710678 45.852572 -167.815902)"/><path d="m236.561-17.4954h7.82311v471.38h-7.82311z" transform="matrix(.70710678 .70710678 -.70710678 .70710678 56.915997 -172.398171)"/><path d="m247.625-6.43182h7.82311v471.38h-7.82311z" transform="matrix(.70710678 .70710678 -.70710678 .70710678 67.9797 -176.981153)"/><path d="m413.894-172.385h7.82311v471.38h-7.82311z" transform="matrix(.70710678 .70710678 -.70710678 .70710678 -.667857 -343.157652)"/><path d="m424.957-161.322h7.82311v471.38h-7.82311z" transform="matrix(.70710678 .70710678 -.70710678 .70710678 10.395143 -347.740096)"/><path d="m436.021-150.258h7.82311v471.38h-7.82311z" transform="matrix(.70710678 .70710678 -.70710678 .70710678 21.459143 -352.322955)"/><path d="m447.084-139.194h7.82311v471.38h-7.82311z" transform="matrix(.70710678 .70710678 -.70710678 .70710678 32.522851 -356.905107)"/><path d="m458.148-128.131h7.82311v471.38h-7.82311z" transform="matrix(.70710678 .70710678 -.70710678 .70710678 43.586143 -361.488259)"/><path d="m469.212-117.067h7.82311v471.38h-7.82311z" transform="matrix(.70710678 .70710678 -.70710678 .70710678 54.650143 -366.071117)"/><path d="m480.275-106.004h7.82311v471.38h-7.82311z" transform="matrix(.70710678 .70710678 -.70710678 .70710678 65.713143 -370.653562)"/><path d="m491.339-94.9402h7.82311v471.38h-7.82311z" transform="matrix(.70710678 .70710678 -.70710678 .70710678 76.777002 -375.23648)"/><path d="m502.402-83.8767h7.82311v471.38h-7.82311z" transform="matrix(.70710678 .70710678 -.70710678 .70710678 87.840356 -379.818778)"/><path d="m513.466-72.8132h7.82311v471.38h-7.82311z" transform="matrix(.70710678 .70710678 -.70710678 .70710678 98.904002 -384.401783)"/><path d="m524.529-61.7496h7.82311v471.38h-7.82311z" transform="matrix(.70710678 .70710678 -.70710678 .70710678 109.967426 -388.984052)"/><path d="m535.593-50.686h7.82311v471.38h-7.82311z" transform="matrix(.70710678 .70710678 -.70710678 .70710678 121.031143 -393.567028)"/><path d="m546.656-39.6226h7.82311v471.38h-7.82311z" transform="matrix(.70710678 .70710678 -.70710678 .70710678 132.094426 -398.149355)"/><path d="m557.72-28.559h7.82311v471.38h-7.82311z" transform="matrix(.70710678 .70710678 -.70710678 .70710678 143.158143 -402.732331)"/><path d="m568.784-17.4954h7.82311v471.38h-7.82311z" transform="matrix(.70710678 .70710678 -.70710678 .70710678 154.221861 -407.315307)"/><path d="m579.847-6.43182h7.82311v471.38h-7.82311z" transform="matrix(.70710678 .70710678 -.70710678 .70710678 165.285271 -411.897582)"/></g><path d="m163.377 520.723c-64.5059-154.111 8.133-331.335 162.244-395.84 154.111-64.506 331.334 8.133 395.84 162.244" stroke="#000"/><path d="m53.8516 46.3437-3.8207-9.6298 1.926-.7641 1.5024 3.7868 3.6437-1.4456-1.5024-3.7869 1.9129-.7589 3.8207 9.6297-1.9129.759-1.6522-4.1642-3.6437 1.4456 1.6522 4.1642z" fill="#fff"/><path d="m163.377 520.723c-64.5059-154.111 8.133-331.335 162.244-395.84 154.111-64.506 331.334 8.133 395.84 162.244" stroke="#000"/><g fill="#fff"><path d="m63.707 42.5036-2.699-7.3607 1.919-.7037 2.6991 7.3608zm-2.1601-8.9004c-.6704.2458-1.3206-.0227-1.5423-.6274-.2313-.6309.1008-1.2298.7711-1.4756.6572-.241 1.2978.0013 1.5291.6322.2217.6046-.1007 1.2299-.7579 1.4708z"/><path d="m71.0149 40.1048c-1.7599.6081-2.8188-.2703-3.3948-1.9376l-1.1338-3.2817-1.0454.3612-.4983-1.4423 1.106-.4858-.4608-2.0626 1.6275-.5624.6858 1.9849 1.8261-.6309.5303 1.535-1.8261.6309 1.1338 3.2816c.2926.8469.7738 1.125 1.4355.8964.2382-.0823.5018-.2622.6729-.4102l.8068 1.3062c-.3513.2694-.8171.5933-1.4655.8173z"/><path d="m75.6581 38.5574c-1.8665.598-4.0477-.2909-4.8379-2.7574-.7988-2.4932.4598-4.4841 2.3264-5.0821 1.8665-.598 4.0477.2909 4.8465 2.7841.7902 2.4665-.4684 4.4574-2.335 5.0554zm-.5125-1.5999c1.0132-.3246 1.2961-1.4149.8476-2.8148-.4528-1.4133-1.3208-2.1496-2.3341-1.8249-1.0132.3246-1.2918 1.4282-.839 2.8415.4485 1.3999 1.3122 2.1228 2.3255 1.7982z"/><path d="m80.6044 36.7214-2.108-7.5513 1.6181-.4517.4172.9737.0539-.0151c.4494-.8376 1-1.5727 1.9844-1.8475 1.0787-.3012 1.848.0074 2.4455.7418.4844-.9202 1.0469-1.7168 2.0313-1.9915 1.6047-.448 2.6625.4777 3.1932 2.379l1.3138 4.7061-1.9823.5533-1.2459-4.4634c-.3237-1.1596-.7775-1.4835-1.4922-1.284-.4315.1204-.8379.5391-1.2192 1.256l1.4492 5.1915-1.9822.5534-1.2459-4.4634c-.3238-1.1596-.7776-1.4835-1.4922-1.284-.4315.1204-.8379.5391-1.2192 1.256l1.4492 5.1915z"/><path d="m95.425 32.7162-1.8487-7.6189 1.9864-.482 1.8487 7.6189zm-1.139-9.0877c-.6939.1684-1.3095-.172-1.4614-.7979-.1584-.653.2393-1.2105.9332-1.3789.6803-.165 1.2893.1482 1.4477.8012.1519.6259-.2392 1.2106-.9195 1.3756z"/><path d="m99.3412 31.7727-2.2893-10.1039 2.0208-.4579 2.2893 10.1039z"/><path d="m103.479 30.8147-1.557-7.6838 1.647-.3337.343.9876.055-.0111c.538-.7949 1.209-1.5022 2.252-1.7135 1.66-.3365 2.607.6715 2.999 2.6062l.971 4.7887-2.017.4087-.92-4.5417c-.24-1.18-.655-1.5386-1.41-1.3857-.631.1279-.968.5104-1.43 1.1897l1.071 5.2827z"/><path d="m116.098 28.5863c-1.834.3209-2.74-.7145-3.044-2.4521l-.598-3.4201-1.09.1906-.263-1.5032 1.169-.304-.127-2.1096 1.696-.2967.362 2.0686 1.903-.3329.28 1.5997-1.903.3329.598 3.4201c.155.8826.586 1.2336 1.275 1.113.248-.0435.537-.1793.73-.2982l.589 1.4177c-.39.2103-.901.456-1.577.5742z"/><path d="m121.625 27.6877c-2.159.3268-4.076-.9265-4.462-3.4735-.381-2.5193 1.14-4.3495 2.995-4.6302 2.132-.3226 3.476 1.074 3.801 3.2196.056.3738.071.7538.043.9421l-4.775.7227c.358 1.2484 1.29 1.7871 2.438 1.6132.637-.0963 1.162-.3739 1.663-.8037l.881 1.141c-.682.6413-1.615 1.1222-2.584 1.2688zm-2.629-4.5578 3.156-.4776c-.159-1.0521-.731-1.6453-1.727-1.4945-.817.1236-1.449.8139-1.429 1.9721z"/><path d="m127.195 26.682-.964-7.7805 1.667-.2067.31 1.3583.055-.0069c.444-1.0848 1.209-1.7439 2.015-1.8438.431-.0534.689-.0149.937.0531l-.142 1.8093c-.274-.0507-.502-.0648-.821-.0252-.612.0758-1.298.5699-1.603 1.7504l.575 4.6405z"/><path d="m133.83 25.8609-.754-7.8036 1.672-.1617.239 1.0177.056-.0054c.618-.7349 1.358-1.3691 2.417-1.4715 1.687-.163 2.524.9374 2.714 2.9023l.471 4.8633-2.049.1981-.446-4.6125c-.116-1.1984-.492-1.5981-1.258-1.524-.641.062-1.016.4077-1.546 1.0356l.519 5.365z"/><path d="m145.606 25.0218c-1.397.0917-2.384-.8396-2.472-2.1667-.11-1.6764 1.188-2.6455 4.309-3.1873-.079-.7665-.452-1.3312-1.416-1.2679-.727.0477-1.404.4149-2.103.8817l-.83-1.3064c.885-.6333 1.972-1.1677 3.202-1.2485 1.983-.1303 3.081.9902 3.23 3.2533l.3 4.5682-1.677.1101-.208-.8281-.042.0027c-.646.6317-1.399 1.1301-2.293 1.1889zm.565-1.6506c.586-.0386 1.001-.3464 1.458-.8675l-.104-1.5786c-1.883.3763-2.492.9354-2.446 1.6339.041.6146.491.8516 1.092.8122z"/><path d="m154.197 24.5465c-1.861.0791-2.624-1.0656-2.699-2.828l-.147-3.4689-1.105.047-.065-1.5246 1.199-.1491.148-2.1082 1.721-.073.089 2.0981 1.93-.082.069 1.6225-1.93.082.147 3.4689c.038.8952.42 1.2993 1.119 1.2696.252-.0107.556-.1077.762-.2005l.4 1.4824c-.414.1577-.953.3347-1.638.3638z"/><path d="m158.327 24.2082-.181-7.8379 2.043-.0473.182 7.8379zm.825-9.1215c-.713.0165-1.242-.4474-1.257-1.0912-.016-.6718.492-1.1317 1.206-1.1482.699-.0163 1.228.4196 1.243 1.0914.015.6439-.492 1.1317-1.192 1.148z"/><path d="m167.615 24.298c-1.96-.0076-3.76-1.5266-3.75-4.1165.01-2.618 1.822-4.123 3.782-4.1155 1.96.0076 3.76 1.5266 3.75 4.1445-.01 2.59-1.822 4.095-3.782 4.0875zm.007-1.68c1.064.0041 1.669-.9456 1.675-2.4156.006-1.484-.593-2.4523-1.657-2.4564s-1.669.9596-1.675 2.4436c-.006 1.47.593 2.4243 1.657 2.4284z"/><path d="m171.673 24.1149.242-7.8363 1.68.0519.107 1.0398.056.0017c.707-.6505 1.522-1.1855 2.585-1.1527 1.693.0523 2.385 1.2502 2.324 3.2233l-.151 4.8836-2.057-.0635.143-4.6318c.037-1.2034-.285-1.6476-1.055-1.6713-.644-.0199-1.059.2754-1.664.831l-.167 5.3874z"/><path d="m183.596 24.7796c-1.398-.0863-2.259-1.1354-2.177-2.4629.104-1.6768 1.514-2.4733 4.679-2.6144.019-.7702-.28-1.3778-1.244-1.4374-.727-.0449-1.445.2333-2.198.6075l-.657-1.4011c.958-.5159 2.104-.908 3.334-.832 1.984.1227 2.931 1.3735 2.791 3.6371l-.282 4.5693-1.677-.1036-.102-.8479-.042-.0026c-.721.5445-1.531.9433-2.425.888zm.77-1.5654c.587.0362 1.037-.2164 1.556-.6753l.098-1.579c-1.916.1341-2.591.6114-2.634 1.31-.038.6149.379.9071.98.9443z"/><path d="m192.414 25.4182c-1.422-.121-1.845-1.0984-1.722-2.5491l.761-8.9418 2.036.1733-.768 9.0393c-.04.4604.171.6328.366.6494.084.0071.139.0119.281-.0042l.122 1.5419c-.245.0775-.601.1315-1.076.0912z"/><path d="m195.624 25.5034 1.116-10.2997 6.347.6877-.185 1.712-4.287-.4645-.291 2.6862 3.66.3967-.187 1.7259-3.66-.3967-.453 4.1756z"/><path d="m205.45 26.8423c-1.942-.2635-3.529-2.0045-3.18-4.571.352-2.5943 2.344-3.8498 4.287-3.5863 1.942.2635 3.528 2.0046 3.176 4.5988-.348 2.5665-2.341 3.822-4.283 3.5585zm.226-1.6647c1.054.143 1.779-.7194 1.976-2.1761.2-1.4705-.267-2.5087-1.321-2.6517-1.055-.1431-1.781.7332-1.98 2.2038-.198 1.4566.271 2.4809 1.325 2.624z"/><path d="m211.491 27.493 1.262-7.7378 1.658.2705-.085 1.3904.055.0091c.731-.9163 1.651-1.3338 2.452-1.2031.428.0699.666.1796.885.3146l-.645 1.6962c-.249-.1257-.464-.2032-.782-.2551-.608-.0991-1.405.1821-2.03 1.2292l-.753 4.615z"/><path d="m221.633 29.441c-2.145-.4092-3.537-2.2282-3.054-4.7586.477-2.5028 2.52-3.7237 4.363-3.3722 2.117.4039 2.921 2.1678 2.515 4.2993-.071.3713-.183.7348-.272.9031l-4.745-.905c-.076 1.2967.623 2.1142 1.765 2.3319.632.1206 1.219.033 1.835-.2059l.451 1.3689c-.856.3783-1.895.5221-2.858.3385zm-.966-5.1726 3.136.5981c.199-1.0452-.143-1.7945-1.133-1.9833-.811-.1548-1.637.2864-2.003 1.3852z"/><path d="m229.058 30.7397-.907-8.2336 2.023.4501.272 4.0621c.024.7942.066 1.6355.098 2.4601l.068.0152c.365-.7364.76-1.4803 1.132-2.1863l1.969-3.5633 1.927.4289-4.259 7.0839z"/><path d="m239.391 33.3765c-2.117-.5392-3.395-2.4396-2.759-4.9359.629-2.4691 2.742-3.5632 4.56-3.1001 2.09.5323 2.784 2.3418 2.249 4.4447-.094.3663-.228.7222-.327.8847l-4.68-1.1924c-.156 1.2897.493 2.1482 1.619 2.4351.624.159 1.215.1073 1.844-.0936l.367 1.3938c-.877.3254-1.924.4056-2.873.1637zm-.649-5.2218 3.093.788c.263-1.0311-.033-1.7998-1.01-2.0486-.8-.204-1.651.1861-2.083 1.2606z"/><path d="m244.629 34.5467 2.137-7.5432 1.616.4578-.243 1.3717.054.0153c.831-.8269 1.792-1.1368 2.573-.9155.418.1182.641.2543.843.4134l-.834 1.6115c-.233-.1533-.437-.2547-.747-.3425-.593-.1679-1.417.0206-2.158.9895l-1.274 4.4991z"/><path d="m250.988 36.3542 3.086-9.8897 6.068 1.8935-.513 1.6438-4.09-1.2762-.713 2.2853 3.475 1.0844-.517 1.6572-3.475-1.0844-.826 2.6461 4.237 1.3221-.517 1.6572z"/><path d="m259.191 42.2641c-.437-.1509-.71-.3044-.969-.4976l.874-1.3719c.119.0855.312.2115.484.271.754.2606 1.342-.0695 1.778-.6448l.283-.3909-.37-8.2745 1.958.6766-.01 3.8473c-.004.7394-.066 1.5179-.101 2.3056l.066.0229c.41-.6287.842-1.2792 1.252-1.9079l2.207-3.0884 1.866.6446-5.271 6.7254c-1.252 1.5227-2.393 2.254-4.047 1.6826z"/><path d="m270.97 43.3459c-2.042-.775-3.097-2.8077-2.183-5.2161.904-2.3822 3.128-3.2304 4.882-2.5648 2.015.765 2.501 2.6415 1.731 4.6703-.134.3534-.307.6919-.424.8422l-4.516-1.7138c-.3 1.2638.247 2.1901 1.333 2.6024.602.2285 1.196.244 1.843.1155l.208 1.4264c-.909.2241-1.958.1856-2.874-.1621zm-.054-5.2618 2.984 1.1326c.377-.9948.171-1.7919-.772-2.1496-.772-.2931-1.661-.0016-2.212 1.017z"/><path d="m277.487 45.9053c-.972-.3982-1.872-1.2663-2.34-2.1542l1.356-.8361c.441.7707.946 1.3105 1.62 1.5866.725.2972 1.176.1191 1.362-.3343.223-.5441-.427-1.0982-1.07-1.7093-.776-.7267-1.61-1.7191-1.116-2.9239.536-1.3084 1.975-1.7928 3.607-1.1239 1.063.4353 1.685 1.2049 2.108 1.9079l-1.327.8025c-.37-.5751-.769-1.0412-1.313-1.2642-.647-.2654-1.075-.1078-1.245.3067-.218.5312.415 1.0175 1.063 1.6157.81.7555 1.676 1.6702 1.123 3.0174-.52 1.2696-1.937 1.8842-3.828 1.1091z"/></g></g></svg>