<svg width="188" height="188" viewBox="0 0 188 188" fill="none" xmlns="http://www.w3.org/2000/svg">
<rect x="8.71429" y="8.71423" width="170.571" height="170.571" fill="white"/>
<rect x="8.71429" y="8.71423" width="170.571" height="170.571" stroke="#EBEBEB" stroke-width="16"/>
<rect x="4.64286" y="-4.64286" width="145.286" height="145.286" transform="matrix(1 0 0 -1 16.7143 162)" fill="white"/>
<rect x="4.64286" y="-4.64286" width="145.286" height="145.286" transform="matrix(1 0 0 -1 16.7143 162)" stroke="white" stroke-width="9.28571"/>
<g clip-path="url(#clip0_5183_13961)">
<path d="M26 25.9999H162V162H26V25.9999Z" fill="white"/>
<path d="M26 28.3447H58.8276H26ZM68.2069 28.3447H82.2759H68.2069ZM96.3448 28.3447H119.793H96.3448ZM129.172 28.3447H162H129.172ZM26 33.0344H30.6897H26ZM54.1379 33.0344H58.8276H54.1379ZM68.2069 33.0344H72.8966H68.2069ZM77.5862 33.0344H86.9655H77.5862ZM105.724 33.0344H110.414H105.724ZM119.793 33.0344H124.483H119.793ZM129.172 33.0344H133.862H129.172ZM157.31 33.0344H162H157.31ZM26 37.724H30.6897H26ZM35.3793 37.724H49.4483H35.3793ZM54.1379 37.724H58.8276H54.1379ZM63.5172 37.724H72.8966H63.5172ZM82.2759 37.724H86.9655H82.2759ZM91.6552 37.724H96.3448H91.6552ZM101.034 37.724H105.724H101.034ZM119.793 37.724H124.483H119.793ZM129.172 37.724H133.862H129.172ZM138.552 37.724H152.621H138.552ZM157.31 37.724H162H157.31ZM26 42.4137H30.6897H26ZM35.3793 42.4137H49.4483H35.3793ZM54.1379 42.4137H58.8276H54.1379ZM63.5172 42.4137H68.2069H63.5172ZM77.5862 42.4137H86.9655H77.5862ZM101.034 42.4137H119.793H101.034ZM129.172 42.4137H133.862H129.172ZM138.552 42.4137H152.621H138.552ZM157.31 42.4137H162H157.31ZM26 47.1033H30.6897H26ZM35.3793 47.1033H49.4483H35.3793ZM54.1379 47.1033H58.8276H54.1379ZM63.5172 47.1033H77.5862H63.5172ZM86.9655 47.1033H101.034H86.9655ZM115.103 47.1033H124.483H115.103ZM129.172 47.1033H133.862H129.172ZM138.552 47.1033H152.621H138.552ZM157.31 47.1033H162H157.31ZM26 51.793H30.6897H26ZM54.1379 51.793H58.8276H54.1379ZM63.5172 51.793H72.8966H63.5172ZM77.5862 51.793H105.724H77.5862ZM110.414 51.793H115.103H110.414ZM119.793 51.793H124.483H119.793ZM129.172 51.793H133.862H129.172ZM157.31 51.793H162H157.31ZM26 56.4827H58.8276H26ZM63.5172 56.4827H68.2069H63.5172ZM72.8966 56.4827H77.5862H72.8966ZM82.2759 56.4827H86.9655H82.2759ZM91.6552 56.4827H96.3448H91.6552ZM101.034 56.4827H105.724H101.034ZM110.414 56.4827H115.103H110.414ZM119.793 56.4827H124.483H119.793ZM129.172 56.4827H162H129.172ZM63.5172 61.1723H68.2069H63.5172ZM77.5862 61.1723H91.6552H77.5862ZM96.3448 61.1723H101.034H96.3448ZM115.103 61.1723H124.483H115.103ZM26 65.862H30.6897H26ZM35.3793 65.862H58.8276H35.3793ZM68.2069 65.862H77.5862H68.2069ZM91.6552 65.862H101.034H91.6552ZM105.724 65.862H119.793H105.724ZM129.172 65.862H152.621H129.172ZM26 70.5516H35.3793H26ZM58.8276 70.5516H63.5172H58.8276ZM72.8966 70.5516H82.2759H72.8966ZM96.3448 70.5516H105.724H96.3448ZM115.103 70.5516H143.241H115.103ZM157.31 70.5516H162H157.31ZM30.6897 75.2413H35.3793H30.6897ZM40.069 75.2413H44.7586H40.069ZM49.4483 75.2413H58.8276H49.4483ZM68.2069 75.2413H72.8966H68.2069ZM77.5862 75.2413H86.9655H77.5862ZM105.724 75.2413H115.103H105.724ZM119.793 75.2413H129.172H119.793ZM26 79.9309H30.6897H26ZM35.3793 79.9309H44.7586H35.3793ZM49.4483 79.9309H54.1379H49.4483ZM58.8276 79.9309H68.2069H58.8276ZM72.8966 79.9309H77.5862H72.8966ZM91.6552 79.9309H96.3448H91.6552ZM101.034 79.9309H105.724H101.034ZM115.103 79.9309H119.793H115.103ZM133.862 79.9309H138.552H133.862ZM143.241 79.9309H147.931H143.241ZM152.621 79.9309H157.31H152.621ZM26 84.6206H35.3793H26ZM44.7586 84.6206H58.8276H44.7586ZM63.5172 84.6206H72.8966H63.5172ZM77.5862 84.6206H82.2759H77.5862ZM101.034 84.6206H110.414H101.034ZM143.241 84.6206H152.621H143.241ZM26 89.3103H30.6897H26ZM44.7586 89.3103H54.1379H44.7586ZM68.2069 89.3103H72.8966H68.2069ZM86.9655 89.3103H101.034H86.9655ZM115.103 89.3103H133.862H115.103ZM138.552 89.3103H143.241H138.552ZM157.31 89.3103H162H157.31ZM30.6897 93.9999H35.3793H30.6897ZM49.4483 93.9999H77.5862H49.4483ZM82.2759 93.9999H110.414H82.2759ZM138.552 93.9999H152.621H138.552ZM26 98.6896H30.6897H26ZM35.3793 98.6896H40.069H35.3793ZM72.8966 98.6896H91.6552H72.8966ZM96.3448 98.6896H101.034H96.3448ZM110.414 98.6896H129.172H110.414ZM138.552 98.6896H143.241H138.552ZM152.621 98.6896H157.31H152.621ZM35.3793 103.379H40.069H35.3793ZM49.4483 103.379H58.8276H49.4483ZM82.2759 103.379H86.9655H82.2759ZM91.6552 103.379H101.034H91.6552ZM105.724 103.379H119.793H105.724ZM133.862 103.379H138.552H133.862ZM143.241 103.379H152.621H143.241ZM26 108.069H35.3793H26ZM49.4483 108.069H54.1379H49.4483ZM63.5172 108.069H68.2069H63.5172ZM72.8966 108.069H77.5862H72.8966ZM82.2759 108.069H86.9655H82.2759ZM96.3448 108.069H105.724H96.3448ZM115.103 108.069H119.793H115.103ZM124.483 108.069H143.241H124.483ZM147.931 108.069H152.621H147.931ZM157.31 108.069H162H157.31ZM26 112.759H30.6897H26ZM49.4483 112.759H58.8276H49.4483ZM63.5172 112.759H72.8966H63.5172ZM105.724 112.759H110.414H105.724ZM124.483 112.759H133.862H124.483ZM138.552 112.759H143.241H138.552ZM147.931 112.759H152.621H147.931ZM26 117.448H30.6897H26ZM40.069 117.448H49.4483H40.069ZM58.8276 117.448H68.2069H58.8276ZM72.8966 117.448H82.2759H72.8966ZM91.6552 117.448H96.3448H91.6552ZM101.034 117.448H105.724H101.034ZM110.414 117.448H115.103H110.414ZM119.793 117.448H133.862H119.793ZM138.552 117.448H143.241H138.552ZM152.621 117.448H157.31H152.621ZM26 122.138H30.6897H26ZM35.3793 122.138H40.069H35.3793ZM49.4483 122.138H68.2069H49.4483ZM72.8966 122.138H86.9655H72.8966ZM105.724 122.138H110.414H105.724ZM119.793 122.138H143.241H119.793ZM147.931 122.138H162H147.931ZM63.5172 126.827H68.2069H63.5172ZM72.8966 126.827H77.5862H72.8966ZM82.2759 126.827H101.034H82.2759ZM105.724 126.827H124.483H105.724ZM138.552 126.827H162H138.552ZM26 131.517H58.8276H26ZM68.2069 131.517H72.8966H68.2069ZM77.5862 131.517H101.034H77.5862ZM115.103 131.517H124.483H115.103ZM129.172 131.517H133.862H129.172ZM138.552 131.517H152.621H138.552ZM26 136.207H30.6897H26ZM54.1379 136.207H58.8276H54.1379ZM63.5172 136.207H68.2069H63.5172ZM72.8966 136.207H91.6552H72.8966ZM96.3448 136.207H101.034H96.3448ZM110.414 136.207H124.483H110.414ZM138.552 136.207H143.241H138.552ZM157.31 136.207H162H157.31ZM26 140.896H30.6897H26ZM35.3793 140.896H49.4483H35.3793ZM54.1379 140.896H58.8276H54.1379ZM63.5172 140.896H68.2069H63.5172ZM72.8966 140.896H77.5862H72.8966ZM82.2759 140.896H86.9655H82.2759ZM91.6552 140.896H96.3448H91.6552ZM101.034 140.896H110.414H101.034ZM119.793 140.896H143.241H119.793ZM147.931 140.896H152.621H147.931ZM157.31 140.896H162H157.31ZM26 145.586H30.6897H26ZM35.3793 145.586H49.4483H35.3793ZM54.1379 145.586H58.8276H54.1379ZM63.5172 145.586H72.8966H63.5172ZM105.724 145.586H124.483H105.724ZM133.862 145.586H138.552H133.862ZM143.241 145.586H152.621H143.241ZM26 150.276H30.6897H26ZM35.3793 150.276H49.4483H35.3793ZM54.1379 150.276H58.8276H54.1379ZM63.5172 150.276H68.2069H63.5172ZM72.8966 150.276H77.5862H72.8966ZM82.2759 150.276H101.034H82.2759ZM110.414 150.276H115.103H110.414ZM129.172 150.276H157.31H129.172ZM26 154.965H30.6897H26ZM54.1379 154.965H58.8276H54.1379ZM68.2069 154.965H101.034H68.2069ZM115.103 154.965H124.483H115.103ZM133.862 154.965H147.931H133.862ZM152.621 154.965H157.31H152.621ZM26 159.655H58.8276H26ZM63.5172 159.655H77.5862H63.5172ZM82.2759 159.655H86.9655H82.2759ZM91.6552 159.655H119.793H91.6552ZM138.552 159.655H143.241H138.552ZM147.931 159.655H152.621H147.931Z" fill="black"/>
<path d="M26 28.3447H58.8276M68.2069 28.3447H82.2759M96.3448 28.3447H119.793M129.172 28.3447H162M26 33.0344H30.6897M54.1379 33.0344H58.8276M68.2069 33.0344H72.8966M77.5862 33.0344H86.9655M105.724 33.0344H110.414M119.793 33.0344H124.483M129.172 33.0344H133.862M157.31 33.0344H162M26 37.724H30.6897M35.3793 37.724H49.4483M54.1379 37.724H58.8276M63.5172 37.724H72.8966M82.2759 37.724H86.9655M91.6552 37.724H96.3448M101.034 37.724H105.724M119.793 37.724H124.483M129.172 37.724H133.862M138.552 37.724H152.621M157.31 37.724H162M26 42.4137H30.6897M35.3793 42.4137H49.4483M54.1379 42.4137H58.8276M63.5172 42.4137H68.2069M77.5862 42.4137H86.9655M101.034 42.4137H119.793M129.172 42.4137H133.862M138.552 42.4137H152.621M157.31 42.4137H162M26 47.1033H30.6897M35.3793 47.1033H49.4483M54.1379 47.1033H58.8276M63.5172 47.1033H77.5862M86.9655 47.1033H101.034M115.103 47.1033H124.483M129.172 47.1033H133.862M138.552 47.1033H152.621M157.31 47.1033H162M26 51.793H30.6897M54.1379 51.793H58.8276M63.5172 51.793H72.8966M77.5862 51.793H105.724M110.414 51.793H115.103M119.793 51.793H124.483M129.172 51.793H133.862M157.31 51.793H162M26 56.4827H58.8276M63.5172 56.4827H68.2069M72.8966 56.4827H77.5862M82.2759 56.4827H86.9655M91.6552 56.4827H96.3448M101.034 56.4827H105.724M110.414 56.4827H115.103M119.793 56.4827H124.483M129.172 56.4827H162M63.5172 61.1723H68.2069M77.5862 61.1723H91.6552M96.3448 61.1723H101.034M115.103 61.1723H124.483M26 65.862H30.6897M35.3793 65.862H58.8276M68.2069 65.862H77.5862M91.6552 65.862H101.034M105.724 65.862H119.793M129.172 65.862H152.621M26 70.5516H35.3793M58.8276 70.5516H63.5172M72.8966 70.5516H82.2759M96.3448 70.5516H105.724M115.103 70.5516H143.241M157.31 70.5516H162M30.6897 75.2413H35.3793M40.069 75.2413H44.7586M49.4483 75.2413H58.8276M68.2069 75.2413H72.8966M77.5862 75.2413H86.9655M105.724 75.2413H115.103M119.793 75.2413H129.172M26 79.9309H30.6897M35.3793 79.9309H44.7586M49.4483 79.9309H54.1379M58.8276 79.9309H68.2069M72.8966 79.9309H77.5862M91.6552 79.9309H96.3448M101.034 79.9309H105.724M115.103 79.9309H119.793M133.862 79.9309H138.552M143.241 79.9309H147.931M152.621 79.9309H157.31M26 84.6206H35.3793M44.7586 84.6206H58.8276M63.5172 84.6206H72.8966M77.5862 84.6206H82.2759M101.034 84.6206H110.414M143.241 84.6206H152.621M26 89.3103H30.6897M44.7586 89.3103H54.1379M68.2069 89.3103H72.8966M86.9655 89.3103H101.034M115.103 89.3103H133.862M138.552 89.3103H143.241M157.31 89.3103H162M30.6897 93.9999H35.3793M49.4483 93.9999H77.5862M82.2759 93.9999H110.414M138.552 93.9999H152.621M26 98.6896H30.6897M35.3793 98.6896H40.069M72.8966 98.6896H91.6552M96.3448 98.6896H101.034M110.414 98.6896H129.172M138.552 98.6896H143.241M152.621 98.6896H157.31M35.3793 103.379H40.069M49.4483 103.379H58.8276M82.2759 103.379H86.9655M91.6552 103.379H101.034M105.724 103.379H119.793M133.862 103.379H138.552M143.241 103.379H152.621M26 108.069H35.3793M49.4483 108.069H54.1379M63.5172 108.069H68.2069M72.8966 108.069H77.5862M82.2759 108.069H86.9655M96.3448 108.069H105.724M115.103 108.069H119.793M124.483 108.069H143.241M147.931 108.069H152.621M157.31 108.069H162M26 112.759H30.6897M49.4483 112.759H58.8276M63.5172 112.759H72.8966M105.724 112.759H110.414M124.483 112.759H133.862M138.552 112.759H143.241M147.931 112.759H152.621M26 117.448H30.6897M40.069 117.448H49.4483M58.8276 117.448H68.2069M72.8966 117.448H82.2759M91.6552 117.448H96.3448M101.034 117.448H105.724M110.414 117.448H115.103M119.793 117.448H133.862M138.552 117.448H143.241M152.621 117.448H157.31M26 122.138H30.6897M35.3793 122.138H40.069M49.4483 122.138H68.2069M72.8966 122.138H86.9655M105.724 122.138H110.414M119.793 122.138H143.241M147.931 122.138H162M63.5172 126.827H68.2069M72.8966 126.827H77.5862M82.2759 126.827H101.034M105.724 126.827H124.483M138.552 126.827H162M26 131.517H58.8276M68.2069 131.517H72.8966M77.5862 131.517H101.034M115.103 131.517H124.483M129.172 131.517H133.862M138.552 131.517H152.621M26 136.207H30.6897M54.1379 136.207H58.8276M63.5172 136.207H68.2069M72.8966 136.207H91.6552M96.3448 136.207H101.034M110.414 136.207H124.483M138.552 136.207H143.241M157.31 136.207H162M26 140.896H30.6897M35.3793 140.896H49.4483M54.1379 140.896H58.8276M63.5172 140.896H68.2069M72.8966 140.896H77.5862M82.2759 140.896H86.9655M91.6552 140.896H96.3448M101.034 140.896H110.414M119.793 140.896H143.241M147.931 140.896H152.621M157.31 140.896H162M26 145.586H30.6897M35.3793 145.586H49.4483M54.1379 145.586H58.8276M63.5172 145.586H72.8966M105.724 145.586H124.483M133.862 145.586H138.552M143.241 145.586H152.621M26 150.276H30.6897M35.3793 150.276H49.4483M54.1379 150.276H58.8276M63.5172 150.276H68.2069M72.8966 150.276H77.5862M82.2759 150.276H101.034M110.414 150.276H115.103M129.172 150.276H157.31M26 154.965H30.6897M54.1379 154.965H58.8276M68.2069 154.965H101.034M115.103 154.965H124.483M133.862 154.965H147.931M152.621 154.965H157.31M26 159.655H58.8276M63.5172 159.655H77.5862M82.2759 159.655H86.9655M91.6552 159.655H119.793M138.552 159.655H143.241M147.931 159.655H152.621" stroke="black" stroke-width="4.68966"/>
</g>
<defs>
<clipPath id="clip0_5183_13961">
<rect width="136" height="136" fill="white" transform="translate(26 25.9999)"/>
</clipPath>
</defs>
</svg>
