<svg width="638" height="3" viewBox="0 0 638 3" fill="none" xmlns="http://www.w3.org/2000/svg">
<path d="M636.432 2.92101C637.227 2.92101 637.872 2.27662 637.872 1.48102C637.872 0.685416 637.227 0.0410156 636.432 0.0410156C635.636 0.0410156 634.992 0.685416 634.992 1.48102C634.992 2.27662 635.637 2.92101 636.432 2.92101ZM614.54 2.92101C615.336 2.92101 615.98 2.27662 615.98 1.48102C615.98 0.685416 615.336 0.0410156 614.54 0.0410156C613.745 0.0410156 613.1 0.685416 613.1 1.48102C613.1 2.27662 613.746 2.92101 614.54 2.92101ZM592.649 2.92101C593.444 2.92101 594.089 2.27662 594.089 1.48102C594.089 0.685416 593.444 0.0410156 592.649 0.0410156C591.853 0.0410156 591.209 0.685416 591.209 1.48102C591.209 2.27662 591.853 2.92101 592.649 2.92101ZM570.757 2.92101C571.552 2.92101 572.197 2.27662 572.197 1.48102C572.197 0.685416 571.552 0.0410156 570.757 0.0410156C569.961 0.0410156 569.317 0.685416 569.317 1.48102C569.317 2.27662 569.961 2.92101 570.757 2.92101ZM548.864 2.92101C549.66 2.92101 550.304 2.27662 550.304 1.48102C550.304 0.685416 549.66 0.0410156 548.864 0.0410156C548.069 0.0410156 547.424 0.685416 547.424 1.48102C547.424 2.27662 548.07 2.92101 548.864 2.92101ZM526.973 2.92101C527.768 2.92101 528.413 2.27662 528.413 1.48102C528.413 0.685416 527.768 0.0410156 526.973 0.0410156C526.177 0.0410156 525.533 0.685416 525.533 1.48102C525.533 2.27662 526.178 2.92101 526.973 2.92101ZM505.081 2.92101C505.877 2.92101 506.521 2.27662 506.521 1.48102C506.521 0.685416 505.877 0.0410156 505.081 0.0410156C504.285 0.0410156 503.641 0.685416 503.641 1.48102C503.641 2.27662 504.285 2.92101 505.081 2.92101ZM483.189 2.92101C483.985 2.92101 484.629 2.27662 484.629 1.48102C484.629 0.685416 483.985 0.0410156 483.189 0.0410156C482.394 0.0410156 481.749 0.685416 481.749 1.48102C481.749 2.27662 482.394 2.92101 483.189 2.92101ZM461.298 2.92101C462.093 2.92101 462.738 2.27662 462.738 1.48102C462.738 0.685416 462.093 0.0410156 461.298 0.0410156C460.502 0.0410156 459.858 0.685416 459.858 1.48102C459.858 2.27662 460.502 2.92101 461.298 2.92101ZM439.405 2.92101C440.201 2.92101 440.845 2.27662 440.845 1.48102C440.845 0.685416 440.201 0.0410156 439.405 0.0410156C438.609 0.0410156 437.965 0.685416 437.965 1.48102C437.965 2.27662 438.611 2.92101 439.405 2.92101ZM417.513 2.92101C418.309 2.92101 418.953 2.27662 418.953 1.48102C418.953 0.685416 418.309 0.0410156 417.513 0.0410156C416.718 0.0410156 416.073 0.685416 416.073 1.48102C416.073 2.27662 416.718 2.92101 417.513 2.92101ZM395.622 2.92101C396.417 2.92101 397.062 2.27662 397.062 1.48102C397.062 0.685416 396.417 0.0410156 395.622 0.0410156C394.826 0.0410156 394.182 0.685416 394.182 1.48102C394.182 2.27662 394.826 2.92101 395.622 2.92101ZM373.73 2.92101C374.526 2.92101 375.17 2.27662 375.17 1.48102C375.17 0.685416 374.526 0.0410156 373.73 0.0410156C372.935 0.0410156 372.29 0.685416 372.29 1.48102C372.29 2.27662 372.935 2.92101 373.73 2.92101ZM351.839 2.92101C352.634 2.92101 353.279 2.27662 353.279 1.48102C353.279 0.685416 352.634 0.0410156 351.839 0.0410156C351.043 0.0410156 350.399 0.685416 350.399 1.48102C350.399 2.27662 351.043 2.92101 351.839 2.92101ZM329.946 2.92101C330.741 2.92101 331.386 2.27662 331.386 1.48102C331.386 0.685416 330.741 0.0410156 329.946 0.0410156C329.15 0.0410156 328.506 0.685416 328.506 1.48102C328.506 2.27662 329.15 2.92101 329.946 2.92101ZM308.054 2.92101C308.85 2.92101 309.494 2.27662 309.494 1.48102C309.494 0.685416 308.85 0.0410156 308.054 0.0410156C307.259 0.0410156 306.614 0.685416 306.614 1.48102C306.614 2.27662 307.259 2.92101 308.054 2.92101ZM286.163 2.92101C286.958 2.92101 287.603 2.27662 287.603 1.48102C287.603 0.685416 286.958 0.0410156 286.163 0.0410156C285.367 0.0410156 284.723 0.685416 284.723 1.48102C284.723 2.27662 285.367 2.92101 286.163 2.92101ZM264.271 2.92101C265.067 2.92101 265.711 2.27662 265.711 1.48102C265.711 0.685416 265.067 0.0410156 264.271 0.0410156C263.475 0.0410156 262.831 0.685416 262.831 1.48102C262.831 2.27662 263.475 2.92101 264.271 2.92101ZM242.379 2.92101C243.175 2.92101 243.819 2.27662 243.819 1.48102C243.819 0.685416 243.175 0.0410156 242.379 0.0410156C241.584 0.0410156 240.939 0.685416 240.939 1.48102C240.939 2.27662 241.584 2.92101 242.379 2.92101ZM220.487 2.92101C221.282 2.92101 221.927 2.27662 221.927 1.48102C221.927 0.685416 221.282 0.0410156 220.487 0.0410156C219.691 0.0410156 219.047 0.685416 219.047 1.48102C219.047 2.27662 219.691 2.92101 220.487 2.92101ZM198.595 2.92101C199.391 2.92101 200.035 2.27662 200.035 1.48102C200.035 0.685416 199.391 0.0410156 198.595 0.0410156C197.799 0.0410156 197.155 0.685416 197.155 1.48102C197.155 2.27662 197.799 2.92101 198.595 2.92101ZM176.703 2.92101C177.499 2.92101 178.143 2.27662 178.143 1.48102C178.143 0.685416 177.499 0.0410156 176.703 0.0410156C175.908 0.0410156 175.263 0.685416 175.263 1.48102C175.263 2.27662 175.908 2.92101 176.703 2.92101ZM154.812 2.92101C155.607 2.92101 156.252 2.27662 156.252 1.48102C156.252 0.685416 155.607 0.0410156 154.812 0.0410156C154.016 0.0410156 153.372 0.685416 153.372 1.48102C153.372 2.27662 154.016 2.92101 154.812 2.92101ZM132.919 2.92101C133.715 2.92101 134.359 2.27662 134.359 1.48102C134.359 0.685416 133.715 0.0410156 132.919 0.0410156C132.123 0.0410156 131.479 0.685416 131.479 1.48102C131.479 2.27662 132.125 2.92101 132.919 2.92101ZM111.027 2.92101C111.823 2.92101 112.467 2.27662 112.467 1.48102C112.467 0.685416 111.823 0.0410156 111.027 0.0410156C110.232 0.0410156 109.587 0.685416 109.587 1.48102C109.587 2.27662 110.232 2.92101 111.027 2.92101ZM89.1358 2.92101C89.9314 2.92101 90.5758 2.27662 90.5758 1.48102C90.5758 0.685416 89.9314 0.0410156 89.1358 0.0410156C88.3402 0.0410156 87.6958 0.685416 87.6958 1.48102C87.6958 2.27662 88.3402 2.92101 89.1358 2.92101ZM67.2442 2.92101C68.0398 2.92101 68.6842 2.27662 68.6842 1.48102C68.6842 0.685416 68.0398 0.0410156 67.2442 0.0410156C66.4486 0.0410156 65.8042 0.685416 65.8042 1.48102C65.8042 2.27662 66.4486 2.92101 67.2442 2.92101ZM45.3514 2.92101C46.147 2.92101 46.7914 2.27662 46.7914 1.48102C46.7914 0.685416 46.147 0.0410156 45.3514 0.0410156C44.5558 0.0410156 43.9114 0.685416 43.9114 1.48102C43.9114 2.27662 44.557 2.92101 45.3514 2.92101ZM23.4598 2.92101C24.2554 2.92101 24.8998 2.27662 24.8998 1.48102C24.8998 0.685416 24.2554 0.0410156 23.4598 0.0410156C22.6642 0.0410156 22.0198 0.685416 22.0198 1.48102C22.0198 2.27662 22.6654 2.92101 23.4598 2.92101ZM1.56817 2.92101C2.36377 2.92101 3.00818 2.27662 3.00818 1.48102C3.00818 0.685416 2.36377 0.0410156 1.56817 0.0410156C0.77257 0.0410156 0.128174 0.685416 0.128174 1.48102C0.128174 2.27662 0.77257 2.92101 1.56817 2.92101Z" fill="#0E3A3B"/>
</svg>
