<svg width="319" height="3" viewBox="0 0 319 3" fill="none" xmlns="http://www.w3.org/2000/svg">
<path d="M318.216 2.24664C318.614 2.24664 318.936 1.92444 318.936 1.52664C318.936 1.12884 318.614 0.806641 318.216 0.806641C317.818 0.806641 317.496 1.12884 317.496 1.52664C317.496 1.92444 317.819 2.24664 318.216 2.24664ZM307.27 2.24664C307.668 2.24664 307.99 1.92444 307.99 1.52664C307.99 1.12884 307.668 0.806641 307.27 0.806641C306.872 0.806641 306.55 1.12884 306.55 1.52664C306.55 1.92444 306.873 2.24664 307.27 2.24664ZM296.324 2.24664C296.722 2.24664 297.044 1.92444 297.044 1.52664C297.044 1.12884 296.722 0.806641 296.324 0.806641C295.926 0.806641 295.604 1.12884 295.604 1.52664C295.604 1.92444 295.926 2.24664 296.324 2.24664ZM285.378 2.24664C285.776 2.24664 286.098 1.92444 286.098 1.52664C286.098 1.12884 285.776 0.806641 285.378 0.806641C284.981 0.806641 284.658 1.12884 284.658 1.52664C284.658 1.92444 284.981 2.24664 285.378 2.24664ZM274.432 2.24664C274.83 2.24664 275.152 1.92444 275.152 1.52664C275.152 1.12884 274.83 0.806641 274.432 0.806641C274.034 0.806641 273.712 1.12884 273.712 1.52664C273.712 1.92444 274.035 2.24664 274.432 2.24664ZM263.486 2.24664C263.884 2.24664 264.206 1.92444 264.206 1.52664C264.206 1.12884 263.884 0.806641 263.486 0.806641C263.088 0.806641 262.766 1.12884 262.766 1.52664C262.766 1.92444 263.089 2.24664 263.486 2.24664ZM252.54 2.24664C252.938 2.24664 253.26 1.92444 253.26 1.52664C253.26 1.12884 252.938 0.806641 252.54 0.806641C252.143 0.806641 251.82 1.12884 251.82 1.52664C251.82 1.92444 252.143 2.24664 252.54 2.24664ZM241.595 2.24664C241.992 2.24664 242.315 1.92444 242.315 1.52664C242.315 1.12884 241.992 0.806641 241.595 0.806641C241.197 0.806641 240.875 1.12884 240.875 1.52664C240.875 1.92444 241.197 2.24664 241.595 2.24664ZM230.649 2.24664C231.047 2.24664 231.369 1.92444 231.369 1.52664C231.369 1.12884 231.047 0.806641 230.649 0.806641C230.251 0.806641 229.929 1.12884 229.929 1.52664C229.929 1.92444 230.251 2.24664 230.649 2.24664ZM219.702 2.24664C220.1 2.24664 220.422 1.92444 220.422 1.52664C220.422 1.12884 220.1 0.806641 219.702 0.806641C219.305 0.806641 218.982 1.12884 218.982 1.52664C218.982 1.92444 219.305 2.24664 219.702 2.24664ZM208.757 2.24664C209.154 2.24664 209.477 1.92444 209.477 1.52664C209.477 1.12884 209.154 0.806641 208.757 0.806641C208.359 0.806641 208.037 1.12884 208.037 1.52664C208.037 1.92444 208.359 2.24664 208.757 2.24664ZM197.811 2.24664C198.209 2.24664 198.531 1.92444 198.531 1.52664C198.531 1.12884 198.209 0.806641 197.811 0.806641C197.413 0.806641 197.091 1.12884 197.091 1.52664C197.091 1.92444 197.413 2.24664 197.811 2.24664ZM186.865 2.24664C187.263 2.24664 187.585 1.92444 187.585 1.52664C187.585 1.12884 187.263 0.806641 186.865 0.806641C186.467 0.806641 186.145 1.12884 186.145 1.52664C186.145 1.92444 186.467 2.24664 186.865 2.24664ZM175.919 2.24664C176.317 2.24664 176.639 1.92444 176.639 1.52664C176.639 1.12884 176.317 0.806641 175.919 0.806641C175.521 0.806641 175.199 1.12884 175.199 1.52664C175.199 1.92444 175.521 2.24664 175.919 2.24664ZM164.973 2.24664C165.371 2.24664 165.693 1.92444 165.693 1.52664C165.693 1.12884 165.371 0.806641 164.973 0.806641C164.575 0.806641 164.253 1.12884 164.253 1.52664C164.253 1.92444 164.575 2.24664 164.973 2.24664ZM154.027 2.24664C154.425 2.24664 154.747 1.92444 154.747 1.52664C154.747 1.12884 154.425 0.806641 154.027 0.806641C153.629 0.806641 153.307 1.12884 153.307 1.52664C153.307 1.92444 153.629 2.24664 154.027 2.24664ZM143.081 2.24664C143.479 2.24664 143.801 1.92444 143.801 1.52664C143.801 1.12884 143.479 0.806641 143.081 0.806641C142.683 0.806641 142.361 1.12884 142.361 1.52664C142.361 1.92444 142.683 2.24664 143.081 2.24664ZM132.135 2.24664C132.533 2.24664 132.855 1.92444 132.855 1.52664C132.855 1.12884 132.533 0.806641 132.135 0.806641C131.738 0.806641 131.415 1.12884 131.415 1.52664C131.415 1.92444 131.738 2.24664 132.135 2.24664ZM121.19 2.24664C121.587 2.24664 121.91 1.92444 121.91 1.52664C121.91 1.12884 121.587 0.806641 121.19 0.806641C120.792 0.806641 120.47 1.12884 120.47 1.52664C120.47 1.92444 120.792 2.24664 121.19 2.24664ZM110.243 2.24664C110.641 2.24664 110.963 1.92444 110.963 1.52664C110.963 1.12884 110.641 0.806641 110.243 0.806641C109.845 0.806641 109.523 1.12884 109.523 1.52664C109.523 1.92444 109.845 2.24664 110.243 2.24664ZM99.2975 2.24664C99.6953 2.24664 100.017 1.92444 100.017 1.52664C100.017 1.12884 99.6953 0.806641 99.2975 0.806641C98.8997 0.806641 98.5775 1.12884 98.5775 1.52664C98.5775 1.92444 98.8997 2.24664 99.2975 2.24664ZM88.3517 2.24664C88.7495 2.24664 89.0717 1.92444 89.0717 1.52664C89.0717 1.12884 88.7495 0.806641 88.3517 0.806641C87.9539 0.806641 87.6317 1.12884 87.6317 1.52664C87.6317 1.92444 87.9539 2.24664 88.3517 2.24664ZM77.4059 2.24664C77.8037 2.24664 78.1259 1.92444 78.1259 1.52664C78.1259 1.12884 77.8037 0.806641 77.4059 0.806641C77.0081 0.806641 76.6859 1.12884 76.6859 1.52664C76.6859 1.92444 77.0081 2.24664 77.4059 2.24664ZM66.4595 2.24664C66.8573 2.24664 67.1795 1.92444 67.1795 1.52664C67.1795 1.12884 66.8573 0.806641 66.4595 0.806641C66.0617 0.806641 65.7395 1.12884 65.7395 1.52664C65.7395 1.92444 66.0623 2.24664 66.4595 2.24664ZM55.5137 2.24664C55.9115 2.24664 56.2337 1.92444 56.2337 1.52664C56.2337 1.12884 55.9115 0.806641 55.5137 0.806641C55.1159 0.806641 54.7937 1.12884 54.7937 1.52664C54.7937 1.92444 55.1159 2.24664 55.5137 2.24664ZM44.5679 2.24664C44.9657 2.24664 45.2879 1.92444 45.2879 1.52664C45.2879 1.12884 44.9657 0.806641 44.5679 0.806641C44.1701 0.806641 43.8479 1.12884 43.8479 1.52664C43.8479 1.92444 44.1701 2.24664 44.5679 2.24664ZM33.6221 2.24664C34.0199 2.24664 34.3421 1.92444 34.3421 1.52664C34.3421 1.12884 34.0199 0.806641 33.6221 0.806641C33.2243 0.806641 32.9021 1.12884 32.9021 1.52664C32.9021 1.92444 33.2243 2.24664 33.6221 2.24664ZM22.6757 2.24664C23.0735 2.24664 23.3957 1.92444 23.3957 1.52664C23.3957 1.12884 23.0735 0.806641 22.6757 0.806641C22.2779 0.806641 21.9557 1.12884 21.9557 1.52664C21.9557 1.92444 22.2785 2.24664 22.6757 2.24664ZM11.7299 2.24664C12.1277 2.24664 12.4499 1.92444 12.4499 1.52664C12.4499 1.12884 12.1277 0.806641 11.7299 0.806641C11.3321 0.806641 11.0099 1.12884 11.0099 1.52664C11.0099 1.92444 11.3327 2.24664 11.7299 2.24664ZM0.784085 2.24664C1.18189 2.24664 1.50409 1.92444 1.50409 1.52664C1.50409 1.12884 1.18189 0.806641 0.784085 0.806641C0.386285 0.806641 0.0640869 1.12884 0.0640869 1.52664C0.0640869 1.92444 0.386285 2.24664 0.784085 2.24664Z" fill="#4D4D4D"/>
</svg>
