<svg width="180" height="42" viewBox="0 0 180 42" fill="none" xmlns="http://www.w3.org/2000/svg">
<rect width="158" height="36" transform="translate(22 3)" fill="url(#paint0_radial_971_11727)"/>
<mask id="path-1-inside-1_971_11727" fill="white">
<path d="M22 5H180V37H22V5Z"/>
</mask>
<path d="M22 6H180V4H22V6ZM180 36H22V38H180V36Z" fill="#45A9BC" mask="url(#path-1-inside-1_971_11727)"/>
<path d="M44.666 11.79H46.808C47.318 11.79 47.759 11.877 48.131 12.051C48.509 12.219 48.8 12.462 49.004 12.78C49.214 13.098 49.319 13.482 49.319 13.932C49.319 14.724 49.004 15.306 48.374 15.678L50.111 18H48.266L46.907 16.065C46.835 16.071 46.763 16.074 46.691 16.074H46.241V18H44.666V11.79ZM46.241 14.742H46.763C47.051 14.742 47.279 14.676 47.447 14.544C47.615 14.406 47.699 14.205 47.699 13.941C47.699 13.677 47.615 13.476 47.447 13.338C47.279 13.2 47.051 13.131 46.763 13.131H46.241V14.742ZM50.1501 15.678C50.1501 15.18 50.2431 14.748 50.4291 14.382C50.6151 14.01 50.8641 13.725 51.1761 13.527C51.4941 13.323 51.8451 13.221 52.2291 13.221C52.5411 13.221 52.8141 13.293 53.0481 13.437C53.2821 13.581 53.4561 13.773 53.5701 14.013L53.6691 13.338H54.9831V18H53.6691L53.5701 17.352C53.4561 17.586 53.2821 17.772 53.0481 17.91C52.8141 18.048 52.5441 18.117 52.2381 18.117C51.8541 18.117 51.5031 18.015 51.1851 17.811C50.8671 17.607 50.6151 17.322 50.4291 16.956C50.2431 16.59 50.1501 16.164 50.1501 15.678ZM51.7251 15.669C51.7251 15.987 51.8061 16.248 51.9681 16.452C52.1301 16.65 52.3401 16.749 52.5981 16.749C52.8621 16.749 53.0721 16.65 53.2281 16.452C53.3901 16.248 53.4711 15.987 53.4711 15.669C53.4711 15.351 53.3901 15.093 53.2281 14.895C53.0721 14.691 52.8621 14.589 52.5981 14.589C52.3401 14.589 52.1301 14.691 51.9681 14.895C51.8061 15.093 51.7251 15.351 51.7251 15.669ZM56.0269 11.61H57.5569V15.093L58.7359 13.338H60.5089L58.8529 15.489L60.7699 18H58.8889L57.5569 16.128V18H56.0269V11.61ZM61.0611 15.93V13.338H62.5911V15.804C62.5911 16.416 62.8011 16.722 63.2211 16.722C63.4311 16.722 63.6021 16.632 63.7341 16.452C63.8721 16.266 63.9411 16.026 63.9411 15.732V13.338H65.4711V18H64.1571L64.0581 17.334C63.9201 17.574 63.7311 17.766 63.4911 17.91C63.2511 18.048 62.9871 18.117 62.6991 18.117C62.1771 18.117 61.7721 17.928 61.4841 17.55C61.2021 17.166 61.0611 16.626 61.0611 15.93ZM66.7462 16.227V14.706H66.0802V13.428H66.7462V12.222H68.2762V13.428H69.6442V14.706H68.2762V16.137C68.2762 16.329 68.3062 16.476 68.3662 16.578C68.4322 16.68 68.5492 16.731 68.7172 16.731C68.9812 16.731 69.2362 16.635 69.4822 16.443L69.7162 17.802C69.5482 17.898 69.3472 17.973 69.1132 18.027C68.8792 18.087 68.6392 18.117 68.3932 18.117C67.2952 18.117 66.7462 17.487 66.7462 16.227ZM70.1276 15.66C70.1276 15.186 70.2266 14.766 70.4246 14.4C70.6286 14.028 70.9046 13.737 71.2526 13.527C71.6006 13.311 71.9966 13.203 72.4406 13.203C72.8786 13.203 73.2626 13.305 73.5926 13.509C73.9226 13.707 74.1776 13.989 74.3576 14.355C74.5436 14.715 74.6366 15.138 74.6366 15.624V16.092H71.6846C71.7926 16.632 72.1526 16.902 72.7646 16.902C73.2386 16.902 73.6826 16.719 74.0966 16.353L74.6006 17.505C74.3246 17.709 74.0156 17.865 73.6736 17.973C73.3376 18.081 72.9896 18.135 72.6296 18.135C72.1136 18.135 71.6666 18.036 71.2886 17.838C70.9166 17.634 70.6286 17.346 70.4246 16.974C70.2266 16.602 70.1276 16.164 70.1276 15.66ZM71.6756 15.165H73.1516C73.1276 14.901 73.0526 14.7 72.9266 14.562C72.8006 14.418 72.6326 14.346 72.4226 14.346C72.0206 14.346 71.7716 14.619 71.6756 15.165ZM75.4068 13.338H76.7208L76.8198 14.013C76.9578 13.767 77.1528 13.575 77.4048 13.437C77.6568 13.293 77.9388 13.221 78.2508 13.221C78.7548 13.221 79.1478 13.413 79.4298 13.797C79.7118 14.181 79.8528 14.718 79.8528 15.408V18H78.3228V15.525C78.3228 14.919 78.1098 14.616 77.6838 14.616C77.4618 14.616 77.2818 14.709 77.1438 14.895C77.0058 15.081 76.9368 15.318 76.9368 15.606V18H75.4068V13.338ZM82.7051 11.79H84.9551C85.7051 11.79 86.2841 11.934 86.6921 12.222C87.1061 12.504 87.3131 12.903 87.3131 13.419C87.3131 14.055 87.0131 14.502 86.4131 14.76C87.1811 15.024 87.5651 15.51 87.5651 16.218C87.5651 16.782 87.3551 17.22 86.9351 17.532C86.5211 17.844 85.9331 18 85.1711 18H82.7051V11.79ZM84.2621 14.229H84.9281C85.4621 14.229 85.7291 14.028 85.7291 13.626C85.7291 13.236 85.4621 13.041 84.9281 13.041H84.2621V14.229ZM84.2621 16.749H85.1351C85.3991 16.749 85.6031 16.689 85.7471 16.569C85.8911 16.449 85.9631 16.278 85.9631 16.056C85.9631 15.846 85.8911 15.684 85.7471 15.57C85.6031 15.456 85.3991 15.399 85.1351 15.399H84.2621V16.749ZM88.5322 11.79H92.7712V13.14H90.0982V14.193H92.4742V15.543H90.0982V16.65H92.8432V18H88.5322V11.79ZM97.3491 16.929H95.1801L94.8651 18H93.2991L95.3781 11.79H97.2501L99.3291 18H97.6641L97.3491 16.929ZM96.2691 13.248L95.5671 15.615H96.9621L96.2691 13.248ZM99.77 15.39V11.79H101.363V15.426C101.363 15.888 101.453 16.215 101.633 16.407C101.819 16.599 102.053 16.695 102.335 16.695C102.617 16.695 102.845 16.599 103.019 16.407C103.199 16.215 103.289 15.888 103.289 15.426V11.79H104.882V15.39C104.882 15.99 104.774 16.494 104.558 16.902C104.348 17.31 104.051 17.619 103.667 17.829C103.289 18.033 102.845 18.135 102.335 18.135C101.819 18.135 101.369 18.033 100.985 17.829C100.601 17.619 100.301 17.31 100.085 16.902C99.875 16.494 99.77 15.99 99.77 15.39ZM107.245 13.23H105.571V11.79H110.512V13.23H108.838V18H107.245V13.23ZM113.009 15.453L110.912 11.79H112.73L113.873 14.103L115.007 11.79H116.699L114.602 15.453V18H113.009V15.453ZM122.609 16.929H120.44L120.125 18H118.559L120.638 11.79H122.51L124.589 18H122.924L122.609 16.929ZM121.529 13.248L120.827 15.615H122.222L121.529 13.248ZM131.025 11.79H132.555L130.998 18H129.252L128.379 13.824L127.506 18H125.751L124.194 11.79H125.805L126.705 16.38L127.605 11.826H129.225L130.125 16.425L131.025 11.79ZM136.214 16.929H134.045L133.73 18H132.164L134.243 11.79H136.115L138.194 18H136.529L136.214 16.929ZM135.134 13.248L134.432 15.615H135.827L135.134 13.248ZM138.911 11.79H141.053C141.563 11.79 142.004 11.877 142.376 12.051C142.754 12.219 143.045 12.462 143.249 12.78C143.459 13.098 143.564 13.482 143.564 13.932C143.564 14.724 143.249 15.306 142.619 15.678L144.356 18H142.511L141.152 16.065C141.08 16.071 141.008 16.074 140.936 16.074H140.486V18H138.911V11.79ZM140.486 14.742H141.008C141.296 14.742 141.524 14.676 141.692 14.544C141.86 14.406 141.944 14.205 141.944 13.941C141.944 13.677 141.86 13.476 141.692 13.338C141.524 13.2 141.296 13.131 141.008 13.131H140.486V14.742ZM144.958 11.79H147.244C147.868 11.79 148.417 11.916 148.891 12.168C149.371 12.42 149.746 12.777 150.016 13.239C150.286 13.701 150.421 14.25 150.421 14.886C150.421 15.516 150.286 16.065 150.016 16.533C149.746 17.001 149.371 17.364 148.891 17.622C148.417 17.874 147.868 18 147.244 18H144.958V11.79ZM146.551 16.587H147.145C147.643 16.587 148.039 16.434 148.333 16.128C148.633 15.816 148.783 15.402 148.783 14.886C148.783 14.37 148.636 13.962 148.342 13.662C148.048 13.356 147.649 13.203 147.145 13.203H146.551V16.587ZM152.87 16.947C152.87 16.575 152.93 16.248 153.05 15.966C153.176 15.678 153.38 15.411 153.662 15.165C153.95 14.913 154.331 14.661 154.805 14.409C155.081 14.259 155.276 14.121 155.39 13.995C155.504 13.869 155.561 13.728 155.561 13.572C155.561 13.398 155.495 13.263 155.363 13.167C155.231 13.071 155.042 13.023 154.796 13.023C154.526 13.023 154.253 13.104 153.977 13.266C153.707 13.422 153.485 13.629 153.311 13.887L152.744 12.636C152.99 12.336 153.305 12.099 153.689 11.925C154.079 11.745 154.475 11.655 154.877 11.655C155.573 11.655 156.119 11.829 156.515 12.177C156.917 12.519 157.118 12.984 157.118 13.572C157.118 13.974 156.986 14.334 156.722 14.652C156.464 14.964 156.035 15.279 155.435 15.597C155.069 15.789 154.811 15.963 154.661 16.119C154.517 16.269 154.436 16.446 154.418 16.65H157.145V18H152.87V16.947ZM157.844 14.895C157.844 14.217 157.946 13.638 158.15 13.158C158.36 12.672 158.657 12.3 159.041 12.042C159.425 11.784 159.881 11.655 160.409 11.655C160.937 11.655 161.393 11.784 161.777 12.042C162.161 12.3 162.458 12.672 162.668 13.158C162.878 13.638 162.983 14.217 162.983 14.895C162.983 15.579 162.878 16.164 162.668 16.65C162.458 17.13 162.161 17.499 161.777 17.757C161.393 18.009 160.937 18.135 160.409 18.135C159.881 18.135 159.425 18.006 159.041 17.748C158.657 17.49 158.36 17.121 158.15 16.641C157.946 16.155 157.844 15.573 157.844 14.895ZM159.446 14.895C159.446 15.477 159.527 15.924 159.689 16.236C159.857 16.548 160.097 16.704 160.409 16.704C160.721 16.704 160.961 16.548 161.129 16.236C161.297 15.918 161.381 15.474 161.381 14.904C161.381 14.322 161.294 13.875 161.12 13.563C160.952 13.245 160.715 13.086 160.409 13.086C160.097 13.086 159.857 13.242 159.689 13.554C159.527 13.866 159.446 14.313 159.446 14.895ZM163.69 16.947C163.69 16.575 163.75 16.248 163.87 15.966C163.996 15.678 164.2 15.411 164.482 15.165C164.77 14.913 165.151 14.661 165.625 14.409C165.901 14.259 166.096 14.121 166.21 13.995C166.324 13.869 166.381 13.728 166.381 13.572C166.381 13.398 166.315 13.263 166.183 13.167C166.051 13.071 165.862 13.023 165.616 13.023C165.346 13.023 165.073 13.104 164.797 13.266C164.527 13.422 164.305 13.629 164.131 13.887L163.564 12.636C163.81 12.336 164.125 12.099 164.509 11.925C164.899 11.745 165.295 11.655 165.697 11.655C166.393 11.655 166.939 11.829 167.335 12.177C167.737 12.519 167.938 12.984 167.938 13.572C167.938 13.974 167.806 14.334 167.542 14.652C167.284 14.964 166.855 15.279 166.255 15.597C165.889 15.789 165.631 15.963 165.481 16.119C165.337 16.269 165.256 16.446 165.238 16.65H167.965V18H163.69V16.947ZM172.839 15.606H173.577V16.812H172.839V18H171.381V16.812H168.591V15.786L171.129 11.79H172.839V15.606ZM171.381 13.5L170.058 15.606H171.381V13.5Z" fill="#265B66"/>
<path d="M51.09 24.07C51.37 24.48 51.81 25.21 52.03 25.67L51.13 26.06C50.84 25.43 50.59 24.94 50.22 24.43L51.09 24.07ZM52.43 23.52C52.72 23.92 53.17 24.63 53.4 25.08L52.53 25.5C52.21 24.87 51.94 24.41 51.57 23.91L52.43 23.52ZM44.35 28.15C44.65 27.91 44.87 27.69 45.18 27.39C45.63 26.93 46.41 25.95 47.1 25.13C47.69 24.43 48.28 24.32 49.06 25.05C49.73 25.68 50.5 26.48 51.1 27.13C51.77 27.84 52.79 28.95 53.56 29.77L52.46 30.95C51.79 30.12 50.94 29.09 50.35 28.4C49.77 27.71 48.88 26.74 48.52 26.37C48.2 26.05 47.99 26.07 47.7 26.43C47.31 26.93 46.6 27.92 46.2 28.46C45.97 28.78 45.73 29.13 45.55 29.39L44.35 28.15ZM62.9353 24.22C62.8553 24.33 62.6753 24.64 62.5853 24.84C62.2453 25.62 61.6853 26.69 61.0153 27.59C62.0053 28.45 63.2153 29.73 63.8053 30.45L62.6653 31.44C62.0153 30.54 61.0853 29.52 60.1453 28.61C59.0853 29.73 57.7553 30.77 56.3853 31.42L55.3553 30.34C56.9653 29.74 58.5153 28.52 59.4553 27.47C60.1153 26.72 60.7253 25.73 60.9453 25.02H57.5553C57.1353 25.02 56.5853 25.08 56.3753 25.09V23.67C56.6453 23.71 57.2553 23.74 57.5553 23.74H61.0853C61.5153 23.74 61.9153 23.68 62.1153 23.61L62.9353 24.22ZM66.9353 30.04V24.29C66.9353 23.94 66.9053 23.44 66.8353 23.09H68.3953C68.3553 23.44 68.3053 23.88 68.3053 24.29V25.77C69.6453 26.16 71.5653 26.87 72.4853 27.32L71.9153 28.7C70.8853 28.16 69.3853 27.58 68.3053 27.21V30.04C68.3053 30.33 68.3553 31.03 68.3953 31.44H66.8353C66.8953 31.04 66.9353 30.44 66.9353 30.04ZM81.8353 24.22C81.7553 24.33 81.5753 24.64 81.4853 24.84C81.1453 25.62 80.5853 26.69 79.9153 27.59C80.9053 28.45 82.1153 29.73 82.7053 30.45L81.5653 31.44C80.9153 30.54 79.9853 29.52 79.0453 28.61C77.9853 29.73 76.6553 30.77 75.2853 31.42L74.2553 30.34C75.8653 29.74 77.4153 28.52 78.3553 27.47C79.0153 26.72 79.6253 25.73 79.8453 25.02H76.4553C76.0353 25.02 75.4853 25.08 75.2753 25.09V23.67C75.5453 23.71 76.1553 23.74 76.4553 23.74H79.9853C80.4153 23.74 80.8153 23.68 81.0153 23.61L81.8353 24.22ZM89.3853 23.08C89.1353 23.43 88.8853 23.88 88.7653 24.1H90.7953C91.1053 24.1 91.4453 24.06 91.6653 23.99L92.6853 24.62C92.5753 24.81 92.4453 25.08 92.3553 25.33C92.0853 26.14 91.5853 27.21 90.8753 28.21C91.3053 28.52 91.6953 28.81 91.9853 29.05L91.0353 30.18C90.7653 29.93 90.3953 29.62 89.9853 29.29C89.1053 30.22 87.9653 31.07 86.4053 31.66L85.2453 30.65C86.9753 30.12 88.0853 29.31 88.9153 28.48C88.2653 28 87.6053 27.55 87.0953 27.23L87.9853 26.32C88.5153 26.62 89.1453 27.03 89.7753 27.45C90.2953 26.73 90.7253 25.86 90.8753 25.24H88.0153C87.3153 26.17 86.3853 27.13 85.3753 27.83L84.2953 27C86.0453 25.91 86.9753 24.54 87.4753 23.67C87.6353 23.43 87.8453 22.97 87.9353 22.63L89.3853 23.08ZM94.3153 27.11C96.1053 26.65 97.5753 26 98.6853 25.32C99.7153 24.68 100.855 23.68 101.505 22.89L102.585 23.92C101.825 24.67 100.865 25.45 99.8953 26.09V30.13C99.8953 30.57 99.9153 31.19 99.9853 31.44H98.4053C98.4453 31.2 98.4753 30.57 98.4753 30.13V26.93C97.4453 27.47 96.1753 28.01 94.9453 28.37L94.3153 27.11ZM111.425 23.24C111.405 23.52 111.385 23.84 111.385 24.24V26.22C111.385 28.37 110.965 29.3 110.225 30.12C109.565 30.84 108.525 31.33 107.795 31.56L106.755 30.46C107.745 30.23 108.555 29.85 109.155 29.2C109.845 28.45 109.975 27.7 109.975 26.14V24.24C109.975 23.84 109.955 23.52 109.915 23.24H111.425ZM106.785 23.32C106.765 23.55 106.755 23.77 106.755 24.09V27.47C106.755 27.72 106.765 28.11 106.785 28.34H105.335C105.345 28.15 105.385 27.76 105.385 27.46V24.09C105.385 23.9 105.375 23.55 105.345 23.32H106.785ZM121.535 24.22C121.455 24.33 121.275 24.64 121.185 24.84C120.845 25.62 120.285 26.69 119.615 27.59C120.605 28.45 121.815 29.73 122.405 30.45L121.265 31.44C120.615 30.54 119.685 29.52 118.745 28.61C117.685 29.73 116.355 30.77 114.985 31.42L113.955 30.34C115.565 29.74 117.115 28.52 118.055 27.47C118.715 26.72 119.325 25.73 119.545 25.02H116.155C115.735 25.02 115.185 25.08 114.975 25.09V23.67C115.245 23.71 115.855 23.74 116.155 23.74H119.685C120.115 23.74 120.515 23.68 120.715 23.61L121.535 24.22ZM126.035 30.04V24.29C126.035 23.94 126.005 23.44 125.935 23.09H127.495C127.455 23.44 127.405 23.88 127.405 24.29V25.77C128.745 26.16 130.665 26.87 131.585 27.32L131.015 28.7C129.985 28.16 128.485 27.58 127.405 27.21V30.04C127.405 30.33 127.455 31.03 127.495 31.44H125.935C125.995 31.04 126.035 30.44 126.035 30.04Z" fill="#265B66"/>
<circle cx="21" cy="21" r="21" fill="white"/>
<path d="M9.51992 29.3477C9.49504 29.3348 9.46909 29.3238 9.43921 29.3114L9.41146 29.2998C9.3851 29.2884 9.353 29.2931 9.33173 29.3104C9.30874 29.3284 9.29733 29.3576 9.30201 29.387L9.33403 29.5879C9.36244 29.7656 9.39027 29.9396 9.41696 30.1137L9.42369 30.1593C9.49882 30.6541 9.57649 31.1658 9.72781 31.6573C9.86436 32.1009 10.075 32.4508 10.3681 32.719C9.749 32.3493 9.17211 31.905 8.64819 31.3941C8.63719 31.3834 8.62413 31.3549 8.62225 31.3315L8.6082 30.9809C8.60812 30.9684 8.60796 30.9353 8.61494 30.9189C8.873 30.3101 8.9391 29.6248 8.81717 28.824C8.69959 28.0516 8.37395 27.3414 7.84921 26.7129C7.78779 26.6393 7.7336 26.602 7.68812 26.602C7.67703 26.602 7.66701 26.6043 7.65913 26.6084C7.63499 26.6206 7.61865 26.6441 7.61545 26.6713L7.60141 26.7936C7.59057 26.8844 7.58015 26.9735 7.57079 27.0628C7.55461 27.2201 7.53687 27.3772 7.51906 27.5344L7.51651 27.5571C7.47217 27.9494 7.4262 28.3552 7.40189 28.7615C7.37365 29.2354 7.38202 29.7889 7.65864 30.301C7.66012 30.3035 7.66143 30.3063 7.66291 30.3088C7.2784 29.8219 6.9274 29.2979 6.61424 28.7427C6.58657 28.6933 6.58419 28.65 6.58936 28.5871C6.61161 28.3213 6.73362 28.1053 6.86212 27.9115C7.11033 27.5364 7.26059 27.0929 7.34934 26.4736C7.47341 25.6076 7.34811 24.7387 6.97715 23.8911C6.96697 23.8678 6.95507 23.8452 6.94234 23.821L6.91336 23.7657C6.89948 23.7386 6.86984 23.7208 6.83856 23.7223C6.80736 23.7239 6.77985 23.744 6.76852 23.7731C6.67853 24.0029 6.5915 24.2243 6.50504 24.4441L6.44978 24.5845C6.26537 25.0535 6.05854 25.6012 5.93834 26.1662C5.8536 26.5648 5.84843 26.9497 5.92274 27.316C5.63438 26.621 5.39734 25.8865 5.2158 25.125C5.21374 25.1165 5.21309 25.0945 5.23107 25.0439C5.31597 24.8086 5.47058 24.5952 5.66648 24.4432C6.09533 24.1101 6.33861 23.6471 6.51998 23.2382C6.89135 22.4019 6.9921 21.5134 6.82788 20.5219C6.82616 20.5115 6.82304 20.5012 6.81934 20.4899L6.81639 20.481C6.80924 20.4588 6.79299 20.4408 6.77148 20.4314C6.75046 20.4225 6.72402 20.4242 6.70768 20.4323C6.69126 20.4384 6.66638 20.4476 6.6502 20.4717C6.55726 20.5974 6.46292 20.7243 6.3685 20.8511L6.35265 20.8724C6.11454 21.1926 5.8683 21.5236 5.63167 21.8532C5.35751 22.2342 5.16391 22.6044 5.03968 22.9852C4.97974 23.1692 4.94058 23.3462 4.9221 23.5181C4.8432 22.9003 4.79845 22.2694 4.78868 21.6333C4.78638 21.4815 4.80543 21.3608 4.90781 21.2287C5.0162 21.0879 5.11743 21.0092 5.25702 20.9573C5.83053 20.7451 6.19845 20.2967 6.45487 19.9298C6.8691 19.3362 7.11205 18.6455 7.19761 17.8181C7.20672 17.733 7.2119 17.6469 7.21723 17.5557L7.21855 17.535C7.22109 17.4907 7.2238 17.4446 7.22725 17.3957C7.22938 17.3632 7.21222 17.3328 7.18357 17.3181C7.15582 17.304 7.12027 17.3081 7.09613 17.3288L7.02806 17.3879C7.00244 17.41 6.98052 17.4289 6.95778 17.4474C6.84849 17.5363 6.7388 17.6242 6.62886 17.7125L6.61736 17.7216C6.37605 17.9152 6.12644 18.1153 5.88809 18.322C5.42558 18.7215 5.12778 19.1191 4.95084 19.5735C4.92161 19.6484 4.89599 19.7225 4.87399 19.7958C4.94673 19.0738 5.06489 18.3627 5.22713 17.6728C5.24683 17.5884 5.25784 17.5636 5.29831 17.5502C5.32377 17.5414 5.3475 17.5246 5.36482 17.5038C5.48248 17.3684 5.63742 17.3469 5.78751 17.3439C6.28836 17.332 6.68559 17.079 7.00803 16.833C7.79863 16.23 8.343 14.7001 8.343 14.6482C8.343 14.6212 8.3297 14.596 8.30712 14.5808C8.28487 14.5659 8.25482 14.5638 8.23216 14.574C8.06745 14.6448 7.90274 14.7137 7.73221 14.7851C7.35698 14.9427 6.96902 15.1055 6.59642 15.2835C6.22144 15.4632 5.92512 15.7035 5.71328 15.9992C5.91518 15.4182 6.14927 14.8487 6.41135 14.3013C6.44149 14.2423 6.58304 14.1796 6.78601 14.1796C6.85202 14.1796 6.91598 14.1867 6.97124 14.2002C7.44812 14.3159 7.92097 14.2458 8.44432 13.9809C8.97974 13.7099 9.42394 13.2667 9.80228 12.6257C9.80951 12.6133 9.82371 12.5755 9.83135 12.5543C9.84096 12.5283 9.8371 12.4997 9.82117 12.478C9.80639 12.4574 9.78274 12.4451 9.75261 12.4451H9.75195L9.56294 12.4572C9.44709 12.4646 9.3346 12.4718 9.22212 12.4776L9.10199 12.4838C8.74335 12.5021 8.37239 12.5208 8.00948 12.6084C7.59558 12.7092 7.2917 12.8639 7.05868 13.0934C7.33448 12.6285 7.62982 12.1862 7.94092 11.7718C7.9493 11.7609 7.98945 11.7441 8.02237 11.7385C8.03879 11.7346 8.09857 11.7219 8.17805 11.7219C8.28347 11.7219 8.37576 11.7436 8.45401 11.7871C8.95116 12.0334 9.50949 12.0516 10.1157 11.8408C10.6129 11.6687 11.034 11.3492 11.4032 10.8642C11.4152 10.8486 11.426 10.8315 11.4359 10.8136C11.4471 10.7929 11.4479 10.7701 11.438 10.7493C11.4094 10.6886 11.2858 10.6601 11.2337 10.6506C11.106 10.628 10.9612 10.6022 10.8177 10.5825C10.7519 10.5732 10.6861 10.5635 10.6201 10.5536L10.6116 10.5522C10.388 10.5188 10.1567 10.4842 9.9238 10.4723C9.49816 10.4503 9.12022 10.5383 8.81093 10.733C9.0189 10.5088 9.2314 10.2961 9.44717 10.0963C9.5154 10.0333 9.59258 9.96978 9.69776 9.89004C9.70589 9.88372 9.72658 9.87632 9.75195 9.87482C10.4974 9.8453 11.1177 9.51204 11.6481 8.85617C11.9371 8.49913 12.1586 8.0488 12.3255 7.4794L12.3313 7.45986C12.3491 7.39999 12.3589 7.36707 12.318 7.32849C12.2863 7.29872 12.2307 7.30753 12.086 7.36557C11.9546 7.41671 11.8224 7.46635 11.6867 7.51732C11.414 7.61967 11.132 7.72552 10.8598 7.84509C10.4049 8.04531 10.0417 8.3488 9.78036 8.747C9.58133 9.04999 9.50268 9.3544 9.53971 9.67601C9.53946 9.67959 9.53634 9.68815 9.53585 9.68915C9.06102 10.1043 8.60714 10.5717 8.1411 11.1279C8.45187 10.6468 8.65443 10.0928 8.75608 9.45051C8.85855 8.80304 8.86504 8.22674 8.77603 7.68877C8.77037 7.65509 8.76273 7.62142 8.75296 7.57926L8.73843 7.51432C8.73186 7.48647 8.71117 7.46394 8.68399 7.45529C8.65681 7.44714 8.62635 7.45437 8.60607 7.47391C8.57356 7.50493 8.5417 7.5342 8.51058 7.56263L8.48866 7.58267C8.40901 7.65534 8.3338 7.72394 8.26574 7.80152C7.60437 8.55709 7.21863 9.35514 7.08652 10.2413C7.02633 10.6419 7.0513 10.9829 7.16288 11.2835C7.19983 11.3831 7.25747 11.4721 7.31486 11.5604C7.34113 11.6007 7.36741 11.6412 7.39146 11.6828C7.4092 11.7126 7.41068 11.7204 7.41059 11.719C7.39967 11.8375 7.38399 11.9695 7.36281 12.128C7.36191 12.13 7.35895 12.1346 7.34951 12.1473L7.34187 12.158C6.98019 12.6671 6.64651 13.2038 6.34624 13.7593C6.46431 13.3444 6.55833 12.8193 6.55168 12.209C6.54363 11.4771 6.3772 10.8243 6.0427 10.2131C6.02948 10.1893 6.0055 10.1738 5.97192 10.1715C5.94753 10.1715 5.92405 10.1837 5.9087 10.2046C5.89868 10.2187 5.8885 10.232 5.87881 10.2447C5.85722 10.2729 5.83702 10.2997 5.81895 10.3283C5.5526 10.7513 5.40973 11.2177 5.3149 11.5768C5.14157 12.2354 5.06193 12.7853 5.06423 13.3076C5.06554 13.7515 5.14543 14.0928 5.31572 14.3815C5.36868 14.4714 5.43535 14.5501 5.50235 14.6292C5.5379 14.6712 5.57444 14.7144 5.60753 14.7586C5.63068 14.7894 5.64185 14.8207 5.64251 14.8382C5.64686 14.9435 5.64456 15.0505 5.64234 15.1539L5.64078 15.2254C5.64054 15.2377 5.63774 15.2519 5.63356 15.2627C5.41975 15.7872 5.23181 16.3325 5.07154 16.8924C5.0951 16.7017 5.1084 16.5171 5.11177 16.337C5.13115 15.3148 4.82152 14.4019 4.19127 13.6234L4.0599 13.4613C4.04471 13.4423 4.02221 13.4315 3.99824 13.4315L3.9851 13.4327C3.95702 13.4374 3.93337 13.4571 3.9236 13.484C3.91161 13.5163 3.89987 13.5468 3.88846 13.5763C3.86645 13.6334 3.84568 13.6874 3.82811 13.7424C3.69288 14.1713 3.62654 14.64 3.61307 15.2616L3.61283 15.2737C3.60273 15.726 3.58885 16.3455 3.77228 16.9384C3.95283 17.522 4.27124 17.8169 4.33299 17.8699L4.33955 17.8758C4.50763 18.0278 4.61707 18.1667 4.63974 18.2569C4.64885 18.2933 4.65813 18.3298 4.66897 18.3659C4.71692 18.5265 4.68695 18.6795 4.6546 18.8447C4.6385 18.9281 4.62175 19.0142 4.61593 19.1026C4.59277 19.4563 4.56436 19.816 4.53686 20.1638L4.53439 20.196C4.52733 20.2847 4.52027 20.3735 4.51329 20.4622C4.44317 19.6663 4.18289 18.9428 3.73508 18.303C3.46085 17.9115 3.1339 17.5766 2.7631 17.3073C2.74709 17.2956 2.73026 17.2852 2.70776 17.2717C2.69684 17.2653 2.6842 17.2576 2.66884 17.2479C2.64569 17.2339 2.61597 17.2326 2.59207 17.2444C2.56761 17.2565 2.55077 17.281 2.54798 17.3088C2.54297 17.3591 2.53714 17.4078 2.53099 17.4584C2.51859 17.5619 2.50685 17.6597 2.50635 17.7601C2.50085 18.8013 2.71835 19.777 3.15303 20.6597C3.27414 20.9059 3.43416 21.119 3.62884 21.2931C3.82187 21.4648 4.03018 21.5661 4.26525 21.6025C4.27042 21.6034 4.28274 21.611 4.28462 21.6125C4.29735 21.6383 4.31057 21.6643 4.32379 21.6903C4.37075 21.7822 4.41928 21.8772 4.44342 21.9725C4.46353 22.0531 4.46353 22.1411 4.46353 22.2344C4.46353 22.2686 4.46353 22.303 4.4646 22.3368C4.48718 23.1433 4.51682 23.4242 4.64425 24.1448C4.5665 23.9305 4.46887 23.7157 4.34284 23.509C3.83246 22.6724 3.18406 22.1046 2.36062 21.7733C2.30823 21.7519 2.25568 21.7365 2.19476 21.7185L2.18261 21.7149C2.15789 21.7076 2.1317 21.6998 2.1037 21.6911C2.07841 21.6827 2.04959 21.6884 2.02899 21.7057C2.00846 21.723 1.9977 21.7493 2.00041 21.7768C2.00649 21.834 2.01068 21.8896 2.01454 21.9439C2.02299 22.0629 2.03096 22.1754 2.05945 22.2866C2.32515 23.3259 2.76491 24.1536 3.40378 24.8172C3.67695 25.1009 3.96482 25.2636 4.2838 25.3145C4.36427 25.3273 4.46263 25.3288 4.62914 25.3184L4.6771 25.3155C4.6844 25.315 4.69081 25.3146 4.69664 25.3146C4.70977 25.3146 4.71084 25.3146 4.71995 25.3283L4.94304 25.6385C4.94591 25.6426 4.9501 25.6573 4.95297 25.6674L4.95626 25.6786C5.1878 26.4735 5.47509 27.2391 5.81386 27.9657C5.66139 27.7526 5.4943 27.5581 5.30809 27.375C4.45171 26.5336 2.98758 26.5092 2.82345 26.5092L2.80301 26.5094L2.79012 26.5118C2.74988 26.5263 2.72813 26.5698 2.74052 26.6108C2.75194 26.6495 2.76261 26.6886 2.77484 26.7345C2.79824 26.8207 2.82255 26.9097 2.85662 26.9959C3.01887 27.4065 3.28185 27.8014 3.68442 28.2393C3.96104 28.5395 4.27288 28.8439 4.67841 29.0363C5.12252 29.2475 5.52353 29.2991 5.92233 29.1957C5.99015 29.1776 6.06815 29.1547 6.13523 29.1107C6.18302 29.0797 6.19607 29.0807 6.24304 29.1161C6.2987 29.158 6.3579 29.1932 6.41538 29.2273C6.44715 29.2461 6.47917 29.2652 6.50906 29.2843C6.51382 29.2884 6.52401 29.3052 6.52778 29.3115C6.8856 29.9025 7.2798 30.4518 7.70544 30.9528C7.47521 30.7832 7.23883 30.6605 6.98774 30.5787C6.22046 30.3284 5.41622 30.3602 4.6197 30.6721C4.50081 30.7188 4.37051 30.7894 4.3618 30.7944C4.34358 30.8066 4.33101 30.8262 4.32707 30.8487C4.32362 30.8708 4.32929 30.8935 4.34259 30.9108C4.36747 30.9435 4.39153 30.9764 4.41534 31.0091L4.42059 31.0163C4.47437 31.0904 4.5353 31.1743 4.60361 31.2487C4.91126 31.5827 5.29068 31.8066 5.6549 31.9988C6.15576 32.262 6.66794 32.4038 7.17733 32.4204C7.2013 32.4212 7.22528 32.4217 7.24917 32.4217C7.71776 32.4217 8.08354 32.2653 8.3655 31.9455C8.36895 31.943 8.38118 31.9382 8.38791 31.9381C8.49564 31.946 8.59802 31.9618 8.67455 31.9747C8.68662 31.9769 8.70148 31.9842 8.71076 31.9927C9.1818 32.415 9.68068 32.7857 10.2018 33.1011C10.1228 33.0774 10.0415 33.0568 9.9582 33.0403C9.40127 32.9318 8.83293 32.9999 8.20884 33.251C7.78779 33.4209 7.39623 33.6706 7.01172 34.0143C6.98003 34.0425 6.97559 34.0909 7.0017 34.1245C7.13775 34.2999 7.31478 34.3981 7.47004 34.4709C7.84872 34.6491 8.27616 34.7632 8.77726 34.8199C8.77874 34.82 8.93975 34.8341 9.16555 34.8341C9.32853 34.8341 9.48018 34.8267 9.61607 34.8122C9.74596 34.7984 9.87552 34.7758 10.0012 34.7452C10.5786 34.6029 11.4796 33.9369 11.6121 33.7125C11.7599 33.4624 11.3978 29.7849 9.51992 29.3477Z" fill="#FF41BE"/>
<path d="M32.4801 29.3477C32.505 29.3348 32.5309 29.3238 32.5608 29.3114L32.5885 29.2998C32.6149 29.2884 32.647 29.2931 32.6683 29.3104C32.6913 29.3284 32.7027 29.3576 32.698 29.387L32.666 29.5879C32.6376 29.7656 32.6097 29.9396 32.583 30.1137L32.5763 30.1593C32.5012 30.6541 32.4235 31.1658 32.2722 31.6573C32.1356 32.1009 31.925 32.4508 31.6319 32.719C32.251 32.3493 32.8279 31.905 33.3518 31.3941C33.3628 31.3834 33.3759 31.3549 33.3778 31.3315L33.3918 30.9809C33.3919 30.9684 33.392 30.9353 33.3851 30.9189C33.127 30.3101 33.0609 29.6248 33.1828 28.824C33.3004 28.0516 33.626 27.3414 34.1508 26.7129C34.2122 26.6393 34.2664 26.602 34.3119 26.602C34.323 26.602 34.333 26.6043 34.3409 26.6084C34.365 26.6206 34.3813 26.6441 34.3845 26.6713L34.3986 26.7936C34.4094 26.8844 34.4199 26.9735 34.4292 27.0628C34.4454 27.2201 34.4631 27.3772 34.4809 27.5344L34.4835 27.5571C34.5278 27.9494 34.5738 28.3552 34.5981 28.7615C34.6264 29.2354 34.618 29.7889 34.3414 30.301C34.3399 30.3035 34.3386 30.3063 34.3371 30.3088C34.7216 29.8219 35.0726 29.2979 35.3858 28.7427C35.4134 28.6933 35.4158 28.65 35.4106 28.5871C35.3884 28.3213 35.2664 28.1053 35.1379 27.9115C34.8897 27.5364 34.7394 27.0929 34.6507 26.4736C34.5266 25.6076 34.6519 24.7387 35.0228 23.8911C35.033 23.8678 35.0449 23.8452 35.0577 23.821L35.0866 23.7657C35.1005 23.7386 35.1302 23.7208 35.1614 23.7223C35.1926 23.7239 35.2201 23.744 35.2315 23.7731C35.3215 24.0029 35.4085 24.2243 35.495 24.4441L35.5502 24.5845C35.7346 25.0535 35.9415 25.6012 36.0617 26.1662C36.1464 26.5648 36.1516 26.9497 36.0773 27.316C36.3656 26.621 36.6027 25.8865 36.7842 25.125C36.7863 25.1165 36.7869 25.0945 36.7689 25.0439C36.684 24.8086 36.5294 24.5952 36.3335 24.4432C35.9047 24.1101 35.6614 23.6471 35.48 23.2382C35.1086 22.4019 35.0079 21.5134 35.1721 20.5219C35.1738 20.5115 35.177 20.5012 35.1807 20.4899L35.1836 20.481C35.1908 20.4588 35.207 20.4408 35.2285 20.4314C35.2495 20.4225 35.276 20.4242 35.2923 20.4323C35.3087 20.4384 35.3336 20.4476 35.3498 20.4717C35.4427 20.5974 35.5371 20.7243 35.6315 20.8511L35.6474 20.8724C35.8855 21.1926 36.1317 21.5236 36.3683 21.8532C36.6425 22.2342 36.8361 22.6044 36.9603 22.9852C37.0203 23.1692 37.0594 23.3462 37.0779 23.5181C37.1568 22.9003 37.2016 22.2694 37.2113 21.6333C37.2136 21.4815 37.1946 21.3608 37.0922 21.2287C36.9838 21.0879 36.8826 21.0092 36.743 20.9573C36.1695 20.7451 35.8015 20.2967 35.5451 19.9298C35.1309 19.3362 34.8879 18.6455 34.8024 17.8181C34.7933 17.733 34.7881 17.6469 34.7828 17.5557L34.7815 17.535C34.7789 17.4907 34.7762 17.4446 34.7727 17.3957C34.7706 17.3632 34.7878 17.3328 34.8164 17.3181C34.8442 17.304 34.8797 17.3081 34.9039 17.3288L34.9719 17.3879C34.9976 17.41 35.0195 17.4289 35.0422 17.4474C35.1515 17.5363 35.2612 17.6242 35.3711 17.7125L35.3826 17.7216C35.624 17.9152 35.8736 18.1153 36.1119 18.322C36.5744 18.7215 36.8722 19.1191 37.0492 19.5735C37.0784 19.6484 37.104 19.7225 37.126 19.7958C37.0533 19.0738 36.9351 18.3627 36.7729 17.6728C36.7532 17.5884 36.7422 17.5636 36.7017 17.5502C36.6762 17.5414 36.6525 17.5246 36.6352 17.5038C36.5175 17.3684 36.3626 17.3469 36.2125 17.3439C35.7116 17.332 35.3144 17.079 34.992 16.833C34.2014 16.23 33.657 14.7001 33.657 14.6482C33.657 14.6212 33.6703 14.596 33.6929 14.5808C33.7151 14.5659 33.7452 14.5638 33.7678 14.574C33.9326 14.6448 34.0973 14.7137 34.2678 14.7851C34.643 14.9427 35.031 15.1055 35.4036 15.2835C35.7786 15.4632 36.0749 15.7035 36.2867 15.9992C36.0848 15.4182 35.8507 14.8487 35.5886 14.3013C35.5585 14.2423 35.417 14.1796 35.214 14.1796C35.148 14.1796 35.084 14.1867 35.0288 14.2002C34.5519 14.3159 34.079 14.2458 33.5557 13.9809C33.0203 13.7099 32.5761 13.2667 32.1977 12.6257C32.1905 12.6133 32.1763 12.5755 32.1686 12.5543C32.159 12.5283 32.1629 12.4997 32.1788 12.478C32.1936 12.4574 32.2173 12.4451 32.2474 12.4451H32.248L32.4371 12.4572C32.5529 12.4646 32.6654 12.4718 32.7779 12.4776L32.898 12.4838C33.2566 12.5021 33.6276 12.5208 33.9905 12.6084C34.4044 12.7092 34.7083 12.8639 34.9413 13.0934C34.6655 12.6285 34.3702 12.1862 34.0591 11.7718C34.0507 11.7609 34.0106 11.7441 33.9776 11.7385C33.9612 11.7346 33.9014 11.7219 33.822 11.7219C33.7165 11.7219 33.6242 11.7436 33.546 11.7871C33.0488 12.0334 32.4905 12.0516 31.8843 11.8408C31.3871 11.6687 30.966 11.3492 30.5968 10.8642C30.5848 10.8486 30.574 10.8315 30.5641 10.8136C30.5529 10.7929 30.5521 10.7701 30.562 10.7493C30.5906 10.6886 30.7142 10.6601 30.7663 10.6506C30.894 10.628 31.0388 10.6022 31.1823 10.5825C31.2481 10.5732 31.3139 10.5635 31.3799 10.5536L31.3884 10.5522C31.612 10.5188 31.8433 10.4842 32.0762 10.4723C32.5018 10.4503 32.8798 10.5383 33.1891 10.733C32.9811 10.5088 32.7686 10.2961 32.5528 10.0963C32.4846 10.0333 32.4074 9.96978 32.3022 9.89004C32.2941 9.88372 32.2734 9.87632 32.248 9.87482C31.5026 9.8453 30.8823 9.51204 30.3519 8.85617C30.0629 8.49913 29.8414 8.0488 29.6745 7.4794L29.6687 7.45986C29.6509 7.39999 29.6411 7.36707 29.682 7.32849C29.7137 7.29872 29.7693 7.30753 29.914 7.36557C30.0454 7.41671 30.1776 7.46635 30.3133 7.51732C30.586 7.61967 30.868 7.72552 31.1402 7.84509C31.5951 8.04531 31.9583 8.3488 32.2196 8.747C32.4187 9.04999 32.4973 9.3544 32.4603 9.67601C32.4605 9.67959 32.4637 9.68815 32.4642 9.68915C32.939 10.1043 33.3929 10.5717 33.8589 11.1279C33.5481 10.6468 33.3456 10.0928 33.2439 9.45051C33.1415 8.80304 33.135 8.22674 33.224 7.68877C33.2296 7.65509 33.2373 7.62142 33.247 7.57926L33.2616 7.51432C33.2681 7.48647 33.2888 7.46394 33.316 7.45529C33.3432 7.44714 33.3736 7.45437 33.3939 7.47391C33.4264 7.50493 33.4583 7.5342 33.4894 7.56263L33.5113 7.58267C33.591 7.65534 33.6662 7.72394 33.7343 7.80152C34.3956 8.55709 34.7814 9.35514 34.9135 10.2413C34.9737 10.6419 34.9487 10.9829 34.8371 11.2835C34.8002 11.3831 34.7425 11.4721 34.6851 11.5604C34.6589 11.6007 34.6326 11.6412 34.6085 11.6828C34.5908 11.7126 34.5893 11.7204 34.5894 11.719C34.6003 11.8375 34.616 11.9695 34.6372 12.128C34.6381 12.13 34.6411 12.1346 34.6505 12.1473L34.6581 12.158C35.0198 12.6671 35.3535 13.2038 35.6538 13.7593C35.5357 13.3444 35.4417 12.8193 35.4483 12.209C35.4564 11.4771 35.6228 10.8243 35.9573 10.2131C35.9705 10.1893 35.9945 10.1738 36.0281 10.1715C36.0525 10.1715 36.0759 10.1837 36.0913 10.2046C36.1013 10.2187 36.1115 10.232 36.1212 10.2447C36.1428 10.2729 36.163 10.2997 36.181 10.3283C36.4474 10.7513 36.5903 11.2177 36.6851 11.5768C36.8584 12.2354 36.9381 12.7853 36.9358 13.3076C36.9345 13.7515 36.8546 14.0928 36.6843 14.3815C36.6313 14.4714 36.5646 14.5501 36.4976 14.6292C36.4621 14.6712 36.4256 14.7144 36.3925 14.7586C36.3693 14.7894 36.3582 14.8207 36.3575 14.8382C36.3531 14.9435 36.3554 15.0505 36.3577 15.1539L36.3592 15.2254C36.3595 15.2377 36.3623 15.2519 36.3664 15.2627C36.5802 15.7872 36.7682 16.3325 36.9285 16.8924C36.9049 16.7017 36.8916 16.5171 36.8882 16.337C36.8689 15.3148 37.1785 14.4019 37.8087 13.6234L37.9401 13.4613C37.9553 13.4423 37.9778 13.4315 38.0018 13.4315L38.0149 13.4327C38.043 13.4374 38.0666 13.4571 38.0764 13.484C38.0884 13.5163 38.1001 13.5468 38.1115 13.5763C38.1335 13.6334 38.1543 13.6874 38.1719 13.7424C38.3071 14.1713 38.3735 14.64 38.3869 15.2616L38.3872 15.2737C38.3973 15.726 38.4111 16.3455 38.2277 16.9384C38.0472 17.522 37.7288 17.8169 37.667 17.8699L37.6604 17.8758C37.4924 18.0278 37.3829 18.1667 37.3603 18.2569C37.3511 18.2933 37.3419 18.3298 37.331 18.3659C37.2831 18.5265 37.3131 18.6795 37.3454 18.8447C37.3615 18.9281 37.3782 19.0142 37.3841 19.1026C37.4072 19.4563 37.4356 19.816 37.4631 20.1638L37.4656 20.196C37.4727 20.2847 37.4797 20.3735 37.4867 20.4622C37.5568 19.6663 37.8171 18.9428 38.2649 18.303C38.5392 17.9115 38.8661 17.5766 39.2369 17.3073C39.2529 17.2956 39.2697 17.2852 39.2922 17.2717C39.3032 17.2653 39.3158 17.2576 39.3312 17.2479C39.3543 17.2339 39.384 17.2326 39.4079 17.2444C39.4324 17.2565 39.4492 17.281 39.452 17.3088C39.457 17.3591 39.4629 17.4078 39.469 17.4584C39.4814 17.5619 39.4932 17.6597 39.4936 17.7601C39.4991 18.8013 39.2816 19.777 38.847 20.6597C38.7259 20.9059 38.5658 21.119 38.3712 21.2931C38.1781 21.4648 37.9698 21.5661 37.7348 21.6025C37.7296 21.6034 37.7173 21.611 37.7154 21.6125C37.7026 21.6383 37.6894 21.6643 37.6762 21.6903C37.6292 21.7822 37.5807 21.8772 37.5566 21.9725C37.5365 22.0531 37.5365 22.1411 37.5365 22.2344C37.5365 22.2686 37.5365 22.303 37.5354 22.3368C37.5128 23.1433 37.4832 23.4242 37.3557 24.1448C37.4335 23.9305 37.5311 23.7157 37.6572 23.509C38.1675 22.6724 38.8159 22.1046 39.6394 21.7733C39.6918 21.7519 39.7443 21.7365 39.8052 21.7185L39.8174 21.7149C39.8421 21.7076 39.8683 21.6998 39.8963 21.6911C39.9216 21.6827 39.9504 21.6884 39.971 21.7057C39.9915 21.723 40.0023 21.7493 39.9996 21.7768C39.9935 21.834 39.9893 21.8896 39.9855 21.9439C39.977 22.0629 39.969 22.1754 39.9406 22.2866C39.6749 23.3259 39.2351 24.1536 38.5962 24.8172C38.323 25.1009 38.0352 25.2636 37.7162 25.3145C37.6357 25.3273 37.5374 25.3288 37.3709 25.3184L37.3229 25.3155C37.3156 25.315 37.3092 25.3146 37.3034 25.3146C37.2902 25.3146 37.2892 25.3146 37.28 25.3283L37.057 25.6385C37.0541 25.6426 37.0499 25.6573 37.047 25.6674L37.0437 25.6786C36.8122 26.4735 36.5249 27.2391 36.1861 27.9657C36.3386 27.7526 36.5057 27.5581 36.6919 27.375C37.5483 26.5336 39.0124 26.5092 39.1765 26.5092L39.197 26.5094L39.2099 26.5118C39.2501 26.5263 39.2719 26.5698 39.2595 26.6108C39.2481 26.6495 39.2374 26.6886 39.2252 26.7345C39.2018 26.8207 39.1775 26.9097 39.1434 26.9959C38.9811 27.4065 38.7181 27.8014 38.3156 28.2393C38.039 28.5395 37.7271 28.8439 37.3216 29.0363C36.8775 29.2475 36.4765 29.2991 36.0777 29.1957C36.0099 29.1776 35.9319 29.1547 35.8648 29.1107C35.817 29.0797 35.8039 29.0807 35.757 29.1161C35.7013 29.158 35.6421 29.1932 35.5846 29.2273C35.5528 29.2461 35.5208 29.2652 35.4909 29.2843C35.4862 29.2884 35.476 29.3052 35.4722 29.3115C35.1144 29.9025 34.7202 30.4518 34.2946 30.9528C34.5248 30.7832 34.7612 30.6605 35.0123 30.5787C35.7795 30.3284 36.5838 30.3602 37.3803 30.6721C37.4992 30.7188 37.6295 30.7894 37.6382 30.7944C37.6564 30.8066 37.669 30.8262 37.6729 30.8487C37.6764 30.8708 37.6707 30.8935 37.6574 30.9108C37.6325 30.9435 37.6085 30.9764 37.5847 31.0091L37.5794 31.0163C37.5256 31.0904 37.4647 31.1743 37.3964 31.2487C37.0887 31.5827 36.7093 31.8066 36.3451 31.9988C35.8442 32.262 35.3321 32.4038 34.8227 32.4204C34.7987 32.4212 34.7747 32.4217 34.7508 32.4217C34.2822 32.4217 33.9165 32.2653 33.6345 31.9455C33.6311 31.943 33.6188 31.9382 33.6121 31.9381C33.5044 31.946 33.402 31.9618 33.3255 31.9747C33.3134 31.9769 33.2985 31.9842 33.2892 31.9927C32.8182 32.415 32.3193 32.7857 31.7982 33.1011C31.8772 33.0774 31.9585 33.0568 32.0418 33.0403C32.5987 32.9318 33.1671 32.9999 33.7912 33.251C34.2122 33.4209 34.6038 33.6706 34.9883 34.0143C35.02 34.0425 35.0244 34.0909 34.9983 34.1245C34.8622 34.2999 34.6852 34.3981 34.53 34.4709C34.1513 34.6491 33.7238 34.7632 33.2227 34.8199C33.2213 34.82 33.0602 34.8341 32.8345 34.8341C32.6715 34.8341 32.5198 34.8267 32.3839 34.8122C32.254 34.7984 32.1245 34.7758 31.9988 34.7452C31.4214 34.6029 30.5204 33.9369 30.3879 33.7125C30.2401 33.4624 30.6022 29.7849 32.4801 29.3477Z" fill="#FF41BE"/>
<path d="M16.9352 28.2662L14.9873 26.6313H28.6475L16.9352 28.2662Z" fill="#FF41BE"/>
<path d="M19.155 25.4082V21.7882H20.7241L23.4421 25.4082H26.2178L22.9356 21.0387C23.9569 20.3056 24.6282 19.1113 24.6282 17.7564C24.6282 15.5367 22.8203 13.7329 20.6005 13.7329H16.9353V25.4082H19.155ZM19.155 15.9526H20.6005C21.5972 15.9526 22.4126 16.7639 22.4126 17.7606C22.4126 18.7572 21.5972 19.5726 20.6005 19.5726H19.155V15.9526Z" fill="#FF41BE"/>
<path d="M17.4198 5.0919L15.8741 4.89246L15.216 3.43259C15.1815 3.35312 15.1032 3.3017 15.0166 3.3017C14.9299 3.3017 14.8516 3.35312 14.8171 3.43259L14.159 4.89845L12.6133 5.09788C12.5309 5.1096 12.4622 5.16699 12.436 5.24604C12.4097 5.3251 12.4306 5.41217 12.4897 5.47083L13.6205 6.61759L13.3433 8.21907C13.3287 8.30245 13.3634 8.38679 13.4324 8.43579C13.5014 8.48479 13.5925 8.48971 13.6664 8.44842L15.0166 7.67859L16.3667 8.4544C16.4406 8.49569 16.5317 8.49077 16.6007 8.44177C16.6697 8.39277 16.7044 8.30843 16.6898 8.22505L16.4126 6.60563L17.5514 5.46884C17.6176 5.41004 17.6419 5.31724 17.6131 5.23353C17.5844 5.14982 17.5081 5.0916 17.4198 5.08592V5.0919Z" fill="#FF41BE"/>
<path d="M29.3861 5.0919L27.8404 4.89246L27.1823 3.43259C27.1478 3.35312 27.0695 3.3017 26.9829 3.3017C26.8962 3.3017 26.8179 3.35312 26.7834 3.43259L26.1253 4.89845L24.5796 5.09788C24.4972 5.1096 24.4285 5.16699 24.4023 5.24604C24.3761 5.3251 24.3969 5.41217 24.456 5.47083L25.5868 6.61759L25.3096 8.21907C25.295 8.30245 25.3297 8.38679 25.3987 8.43579C25.4677 8.48479 25.5588 8.48971 25.6327 8.44842L26.9829 7.67859L28.333 8.4544C28.4069 8.49569 28.498 8.49077 28.567 8.44177C28.6361 8.39277 28.6707 8.30843 28.6561 8.22505L28.3789 6.60563L29.5177 5.46884C29.5839 5.41004 29.6082 5.31724 29.5794 5.23353C29.5507 5.14982 29.4744 5.0916 29.3861 5.08592V5.0919Z" fill="#FF41BE"/>
<path d="M23.4029 3.89524L21.8573 3.69581L21.1991 2.23593C21.1647 2.15646 21.0863 2.10504 20.9997 2.10504C20.9131 2.10504 20.8347 2.15646 20.8003 2.23593L20.1421 3.70179L18.5965 3.90123C18.514 3.91294 18.4453 3.97033 18.4191 4.04939C18.3929 4.12844 18.4137 4.21552 18.4728 4.27417L19.6037 5.42094L19.3264 7.02241C19.3118 7.10579 19.3465 7.19013 19.4155 7.23913C19.4846 7.28813 19.5756 7.29305 19.6495 7.25177L20.9997 6.48194L22.3499 7.25775C22.4238 7.29903 22.5149 7.29412 22.5839 7.24512C22.6529 7.19612 22.6876 7.11178 22.673 7.0284L22.3958 5.40897L23.5345 4.27218C23.6007 4.21338 23.6251 4.12058 23.5963 4.03687C23.5675 3.95316 23.4913 3.89495 23.4029 3.88926V3.89524Z" fill="#FF41BE"/>
<defs>
<radialGradient id="paint0_radial_971_11727" cx="0" cy="0" r="1" gradientUnits="userSpaceOnUse" gradientTransform="translate(126.894 11.4318) rotate(71.9009) scale(25.4297 112.523)">
<stop stop-color="#7DD6E8"/>
<stop offset="1" stop-color="#BEEBF4"/>
</radialGradient>
</defs>
</svg>
