<svg xmlns="http://www.w3.org/2000/svg" width="259.39" height="259.39" viewBox="0 0 259.39 259.39"><defs><style>.cls-1{fill:#fff;}.cls-2{fill:#231f20;}.cls-3{fill:#e85892;}</style></defs><g id="レイヤー_2" data-name="レイヤー 2"><g id="レイヤー_1-2" data-name="レイヤー 1"><circle class="cls-1" cx="129.69" cy="129.69" r="128.47"/><path class="cls-2" d="M129.69,259.39C58.18,259.39,0,201.21,0,129.69A129.84,129.84,0,0,1,129.69,0c71.52,0,129.7,58.18,129.7,129.69A129.84,129.84,0,0,1,129.69,259.39Zm0-256.95A127.26,127.26,0,1,0,257,129.69,127.4,127.4,0,0,0,129.69,2.44Z"/><path class="cls-2" d="M57.08,210.22c-.67-.61-1.34-1.22-2-1.84l.46-.49,2,1.83Zm-3.94-3.73c-.64-.64-1.28-1.29-1.9-1.94l.49-.47c.62.65,1.25,1.29,1.89,1.93Zm154.06-1-.49-.47c.63-.64,1.25-1.3,1.87-2l.49.46C208.46,204.22,207.83,204.88,207.2,205.52Zm-157.81-3c-.61-.67-1.21-1.34-1.8-2l.51-.44c.59.68,1.19,1.35,1.79,2Zm161.5-1-.5-.45c.59-.68,1.18-1.36,1.76-2l.52.44C212.09,200.18,211.49,200.87,210.89,201.55Zm-165-3.09c-.57-.7-1.14-1.41-1.69-2.12l.53-.42c.56.71,1.12,1.41,1.69,2.11Zm168.55-1.08-.53-.42q.84-1.05,1.65-2.13l.55.41C215.51,196,215,196.68,214.39,197.38Zm-171.88-3.2c-.54-.73-1.07-1.46-1.59-2.2l.56-.39c.52.74,1,1.46,1.57,2.19Zm175.16-1.13-.55-.39c.53-.73,1-1.47,1.55-2.21l.56.38Q218.47,192,217.67,193.05ZM39.39,189.73c-.5-.75-1-1.51-1.48-2.28l.58-.36c.48.76,1,1.52,1.47,2.27Zm181.34-1.17-.57-.36c.49-.76,1-1.52,1.44-2.29l.58.35C221.71,187,221.22,187.8,220.73,188.56ZM36.5,185.13c-.47-.78-.92-1.57-1.36-2.36l.59-.33q.66,1.19,1.35,2.34Zm187.07-1.21-.59-.34c.45-.78.89-1.56,1.32-2.35l.6.32C224.46,182.35,224,183.14,223.57,183.92ZM33.84,180.38c-.42-.8-.84-1.61-1.24-2.42l.61-.3c.4.81.81,1.61,1.23,2.41Zm192.33-1.23-.61-.31c.41-.8.81-1.61,1.21-2.42l.61.29C227,177.53,226.58,178.34,226.17,179.15ZM31.42,175.51c-.38-.82-.75-1.65-1.11-2.48l.62-.27q.54,1.25,1.11,2.46Zm197.1-1.26-.61-.28c.37-.82.73-1.65,1.08-2.48l.62.26C229.26,172.59,228.9,173.42,228.52,174.25ZM29.26,170.52c-.34-.84-.67-1.68-1-2.53l.63-.24c.32.84.65,1.68,1,2.52Zm201.38-1.29L230,169c.33-.84.65-1.69,1-2.53l.64.23C231.29,167.54,231,168.39,230.64,169.23Zm-203.3-3.8c-.3-.85-.59-1.71-.86-2.58l.64-.2c.28.86.56,1.71.86,2.56Zm205.16-1.31-.64-.22c.28-.85.56-1.71.83-2.57l.64.2C233.07,162.4,232.79,163.26,232.5,164.12ZM25.68,160.25c-.26-.87-.5-1.74-.74-2.62l.66-.17c.23.87.47,1.74.73,2.6Zm208.42-1.33-.65-.19c.24-.86.48-1.73.7-2.61l.66.17C234.58,157.17,234.35,158,234.1,158.92ZM24.27,155c-.21-.89-.42-1.77-.6-2.65l.66-.15q.29,1.32.6,2.64Zm211.17-1.36-.66-.15c.2-.88.39-1.76.57-2.65l.66.14C235.83,151.87,235.64,152.75,235.44,153.64Zm-212.31-4c-.17-.89-.33-1.79-.47-2.68l.67-.11c.14.89.3,1.78.46,2.66Zm213.39-1.38-.67-.12c.16-.89.3-1.78.43-2.67l.67.1C236.82,146.51,236.67,147.41,236.52,148.3Zm-214.27-4q-.18-1.35-.33-2.7l.67-.08c.1.9.21,1.79.33,2.69Zm215.07-1.4-.67-.08c.11-.9.21-1.79.3-2.69l.67.06C237.53,141.11,237.43,142,237.32,142.91Zm-215.67-4c-.08-.9-.15-1.81-.2-2.71l.68,0c.05.89.12,1.79.19,2.69Zm216.2-1.41-.67-.05c.06-.9.11-1.8.16-2.71l.67,0C238,135.68,237.92,136.58,237.85,137.49Zm-216.53-4c0-.91-.05-1.81-.06-2.72h.68c0,.9,0,1.8.06,2.71ZM238.11,132h-.68c0-.77,0-1.54,0-2.3v-.41h.68v.42C238.13,130.5,238.12,131.27,238.11,132ZM21.94,128h-.68c0-.91,0-1.82.08-2.73l.68,0C22,126.23,22,127.13,21.94,128Zm215.47-1.43q0-1.35-.12-2.7l.68,0c.05.9.09,1.81.12,2.71Zm-215.25-4-.68,0c.06-.91.14-1.82.22-2.72l.67.06Q22.25,121.27,22.16,122.62Zm215-1.4q-.11-1.35-.24-2.7l.67-.07c.1.91.18,1.81.25,2.71Zm-214.46-4-.67-.08c.11-.9.22-1.8.35-2.7l.67.09C22.88,115.44,22.76,116.33,22.65,117.23Zm213.9-1.39c-.12-.89-.25-1.79-.39-2.68l.67-.1c.14.9.27,1.79.39,2.69Zm-213.13-4-.67-.11c.15-.9.31-1.79.49-2.69l.66.13Q23.65,110.54,23.42,111.87Zm212.29-1.37c-.16-.89-.33-1.77-.52-2.66l.67-.13c.18.88.36,1.77.52,2.67ZM24.45,106.56l-.66-.15c.2-.89.4-1.77.62-2.65l.66.16C24.85,104.8,24.65,105.67,24.45,106.56Zm210.16-1.36c-.21-.87-.42-1.75-.65-2.62l.66-.17c.23.88.44,1.76.65,2.64ZM25.75,101.3l-.65-.18q.36-1.31.75-2.61l.65.19C26.24,99.57,26,100.43,25.75,101.3ZM233.24,100c-.25-.86-.51-1.73-.78-2.59-.13-.42-.27-.85-.41-1.27l.65-.21c.14.42.28.85.41,1.28.27.87.54,1.73.79,2.6Z"/><path d="M110.16,205.46a.42.42,0,0,1-.3-.12,12.77,12.77,0,0,0-18.06,0,.42.42,0,1,1-.59-.59,13.59,13.59,0,0,1,19.24,0,.42.42,0,0,1,0,.59A.42.42,0,0,1,110.16,205.46Z"/><path d="M86.48,200.44a.37.37,0,0,1-.29-.13.4.4,0,0,1,0-.59,20.71,20.71,0,0,1,29.28,0,.42.42,0,0,1-.59.59,19.87,19.87,0,0,0-28.1,0A.39.39,0,0,1,86.48,200.44Z"/><path d="M81.61,196a.84.84,0,0,1-.59-.24.83.83,0,0,1,0-1.18,28,28,0,0,1,39.62,0,.83.83,0,0,1,0,1.18.85.85,0,0,1-1.18,0,26.34,26.34,0,0,0-37.26,0A.84.84,0,0,1,81.61,196Z"/><path d="M138.92,195.85a.44.44,0,0,1-.3-.12,12.77,12.77,0,0,0-18.06,0,.42.42,0,1,1-.59-.59,13.59,13.59,0,0,1,19.24,0,.41.41,0,0,1,0,.59A.4.4,0,0,1,138.92,195.85Z"/><path d="M115.25,190.83a.42.42,0,0,1-.3-.71,20.7,20.7,0,0,1,29.29,0,.42.42,0,0,1-.59.59,19.88,19.88,0,0,0-28.11,0A.42.42,0,0,1,115.25,190.83Z"/><path d="M110.38,186.38a.87.87,0,0,1-.6-.25.85.85,0,0,1,0-1.18,28,28,0,0,1,39.62,0,.83.83,0,0,1-1.18,1.18,26.34,26.34,0,0,0-37.26,0A.83.83,0,0,1,110.38,186.38Z"/><path d="M167.88,205.46a.42.42,0,0,1-.29-.12,12.77,12.77,0,0,0-18.06,0,.42.42,0,0,1-.59,0,.4.4,0,0,1,0-.59,13.59,13.59,0,0,1,19.24,0,.42.42,0,0,1-.3.71Z"/><path d="M144.21,200.44a.41.41,0,0,1-.3-.13.42.42,0,0,1,0-.59,20.73,20.73,0,0,1,29.29,0,.42.42,0,0,1,0,.59.41.41,0,0,1-.59,0,19.88,19.88,0,0,0-28.11,0A.37.37,0,0,1,144.21,200.44Z"/><path d="M139.34,196a.83.83,0,0,1-.59-1.42,28,28,0,0,1,39.62,0,.83.83,0,0,1,0,1.18.85.85,0,0,1-1.18,0,26.34,26.34,0,0,0-37.26,0A.84.84,0,0,1,139.34,196Z"/><path d="M26.51,86l-2.36-1.26,1-1.79-2.19-1.17,1.26-2.37,2.19,1.17.76-1.43,1.46.78a14.72,14.72,0,0,1,2.35,2.68c.66-.27.81-.31,1.66-.6l3.26,1.75c-1.4.27-1.65.31-2.69.59l5.16,2.76L37,89.47l-4-2.12a7.69,7.69,0,0,1,.37,2.38L30.4,88.1a9,9,0,0,0-2.38-5ZM25.4,77.74l4.38-8.19,2,1.08-4.38,8.19Zm2.86.93,3.82-7.15,4.06,2.17-3.82,7.15Zm5-3.41-.8-.42-1.23,2.32.79.42ZM37,73.38l3.78,2c2,1,2.35,2.07,1.25,4l-3,5.6L32.63,81.6Zm-.46,6.4L36,79.47l-.48.9.59.31ZM38,77l-.59-.31-.48.9.59.31Zm.59,3.89L38,80.53l-.48.9.66.36Zm1.48-2.79-.67-.35-.48.9.67.36Z"/><path d="M42.75,52.38l10.32,8.26c1.29,1,1.39,2.1.32,3.48l-1.55,1.94-1-.79-4.27,5.34-5.5-4.4,1.32-1.65,3.69,3,.46-.58-4.21-3.37-2.25,2.81,7,5.62-1.81,2.27L33.08,64.48ZM39.19,63.75c-.61-.28-.73-.33-1.79-.78l-.61.76,1.47,1.18Zm2.42-3a18.9,18.9,0,0,0-1.12-1.62l-1.41,1.77a11.44,11.44,0,0,1,1.8.76Zm2.64-3.3-1.47-1.18-.5.62.28.47.5.81.27.42Zm4.26,7.06-3.69-3,1.36-1.71,4.5,3.6.42-.52-5-4-2.27,2.84L48,65.08Z"/><path d="M61.37,52.18C62.62,51,63,50.33,63,49.32a6.32,6.32,0,0,0-1.71-3.55,6,6,0,0,0-2.83-2,2.2,2.2,0,0,0-2,.45,51,51,0,0,1,3.78,6.64,6.23,6.23,0,0,1,.81,3.37,3.06,3.06,0,0,1-1,1.95,4.49,4.49,0,0,1-3.64.81,8.24,8.24,0,0,1-4.13-2.74A8.85,8.85,0,0,1,50.23,50c-.44-2.55.58-4.88,3.07-7,3.64-3.15,7.12-2.87,10.31.83,1.82,2.11,2.67,4.47,2.33,6.42a6.82,6.82,0,0,1-2.6,4l-.12.1ZM53,48.52a6,6,0,0,0,1.63,3.86c1.16,1.33,2.38,1.88,3,1.34.32-.27.36-.75.11-1.36a58,58,0,0,0-3.62-6.29A3.59,3.59,0,0,0,53,48.52Z"/><path d="M65.78,38.72l1-.57-2.66-4.56,2.53-1.48.72,1.23,3.49-2,1.11,1.9-3.5,2,.71,1.2c1.32-.94,1.91-1.4,3.19-2.46l1.13,1.94A72.12,72.12,0,0,1,67,40.87Zm6.93-.8-.13-.9,2.26-1.33c-.62-.08-.93-.35-1.42-1.14l-2.79-4.78L73,28.4l.85,1.44,3.54-3,1.21,2.08-3.63,2.88.64,1.08,2.48-1.45a2.11,2.11,0,0,0,1.23-1.8l1.36,2.33c-.18.63-.62,1.07-1.72,1.74l-2.57,1.5a4,4,0,0,1-1,.49l.14.63,4.75-2.77L83,38.26c.94,1.66.72,2.3-1.11,3.35l-9.52,5.56-3.94-6.75Zm6.21-.52-.34-.58-6.66,3.89.33.58Zm1.41,2.42L79.86,39,73.19,42.9l.48.81Z"/><path d="M84.44,29l-.9-2.51L85,26l-1-2.92,2.58-.93,1.05,2.92,1.25-.45.89,2.51-1.24.45.35,1,1.59.54-.56-1.58,3.62-1.29-.19-.53-3.09,1.1L89.51,25l3.09-1.1-.17-.48-3.51,1.25-.65-1.84,1.27-.46-.94-1,2.76-1,1,.94,1.46-.53.12-1.33,3-1.07-.27,1.39,1.23-.44.66,1.85L95,22.48l.17.48,3.17-1.14L99,23.63l-3.17,1.14.19.53,3.8-1.36.67,1.86-3.81,1.36a4.38,4.38,0,0,0,1,1.06l2.58-2.07.8,2.23-1.35,1a4.65,4.65,0,0,0,2.1.22l1.11,3.09a6.87,6.87,0,0,1-4.78-1.62l.57,1.59c.49,1.1,0,2-1.27,2.53l-2,.73-.76-2.11a10.56,10.56,0,0,1-1.9,2.36l-1-2.8a6.24,6.24,0,0,0,1.5-2,12.67,12.67,0,0,0-1.36.11l-.74-2.08a21.52,21.52,0,0,1,2.68-.24l.2.56a11.41,11.41,0,0,0,.29-1.19l-.17-.46-3.55,1.27,1.22,3.4-1.9-1.16,2,5.58-2.59.93-1.55-4.34a4.84,4.84,0,0,1-.8,2.84l-1.38-3.85a12.24,12.24,0,0,0,.22-4.22Zm11.47,4.13-.47-1.33a7.3,7.3,0,0,1-.67,1.74Z"/><path d="M107.71,16.73a44.13,44.13,0,0,0,.73,9.47c.06.42.06.42.68,3.6l.33,1.79-2.89.47c-.72-3.41-.91-4.35-1.18-6a58.83,58.83,0,0,1-.66-8.88ZM118.05,16l.46,2.81-8.67,1.44-.46-2.82Zm-4.32,7.5a5.19,5.19,0,0,0-.4,2.55,1.49,1.49,0,0,0,1.09,1.3,3.87,3.87,0,0,0,1.76,0c1.62-.27,2.61-.45,3.82-.72l.46,2.81c-1,.2-3.17.6-4,.74a6.41,6.41,0,0,1-4-.21,3.69,3.69,0,0,1-1.94-2.63,8.49,8.49,0,0,1,.26-3.31Z"/><path d="M123.94,22.75l5.94,0L129.75,20H125l0-2.73h4.53l-.15-2.93,3.16.05.15,2.89h5.41l0,2.73H132.9l.14,2.77,6,0,0,2.89-5.81,0,.22,4-3.16,0-.22-4-6.13,0Z"/><path d="M148.57,16l-2.26,11.52,1.68.33c4.7.78,6.22-.58,7.63-6.73l3.15.61c-.9,3.66-2,5.94-3.48,7.5-2.13,2-4.13,2.35-9.14,1.42L142.74,30l2.86-14.56Z"/><path d="M162.88,26.29l10.72-.72c1.42-.11,1.8-.35,2.22-1.44l.18-.44,3,1.17-.25.64a3.81,3.81,0,0,1-3.45,2.74l-3,.28-3.48,9-3-1.18,2.89-7.41-7,.65Z"/><path d="M183.05,30.83l1.29-2.13,4,2.45,1.24-.79,2.7,1.64-1.14.85,4.73,2.87-1.29,2.13-6-3.67-1.29.73a4.74,4.74,0,0,1,2.51.59,2.14,2.14,0,0,1,1.09,2,3.76,3.76,0,0,1-.74,1.71l3.62,1.71-1.46,2.41-3.56-1.81-1.17,1.91L185,41.88l.9-1.48c-1.95-.59-2.7-.55-3.13.16s-.13,1.1,1.38,2,3.58,2.08,5.61,3.12l-1.45,2.39c-1.09-.61-1.51-.85-2.23-1.29-4.07-2.46-5.12-3.18-5.81-4a3.22,3.22,0,0,1-.67-2.74,3.15,3.15,0,0,1,.4-1.1,3.83,3.83,0,0,1,3.48-1.51,11.79,11.79,0,0,1,3.78.72,2.1,2.1,0,0,0,.41-.94.8.8,0,0,0-.41-.71c-.9-.54-2.22-.52-3.9.09l-2.9-1.76a37.28,37.28,0,0,0,5.28-2.36Z"/><path d="M200,42.62l1.88-2.11,2.9,2.58,1.09-1.22,2.25,2-1.09,1.22,2.26,2-1.86,2.09-2.26-2-.61.68c.34.28.63.51.77.64,3,2.69,3.58,5.87,1.48,8.23A4.7,4.7,0,0,1,203,58.45a7.44,7.44,0,0,1-4.27-1.86l-.41-.38,2-2.19c1.15,1,1.65,1.25,2.31,1.27a2.43,2.43,0,0,0,1.79-.81,2,2,0,0,0,.47-1,4.15,4.15,0,0,0-1.46-3.07,8.1,8.1,0,0,0-.77-.57L199.84,53a5.17,5.17,0,0,1-1.94,1.57,2.29,2.29,0,0,1-2.24-.77c-2.31-2-2.59-4.7-.72-6.8a5.21,5.21,0,0,1,4.31-1.66,8.12,8.12,0,0,1,2.95.81l.75-.89Zm0,5.72a2.22,2.22,0,0,0-1.33-.26,2.75,2.75,0,0,0-1.55.81,1.48,1.48,0,0,0-.07,2c.29.26.53.15,1.08-.46Zm12.06.36a14.34,14.34,0,0,1-1.38,3.54l-2.21-2a24.45,24.45,0,0,0,1.41-3.51Z"/><path d="M227.56,65.73l-3.44,2.66c-.94.64-1.75.42-2.52-.65l-1.44-1.86-.9.71L222,70.1,217,74c-1.25,1-2.25.79-3.4-.73l-5.52-7.12,6.74-5.22,2.57,3.31.91-.7-2.77-3.57c-.27.23-.56.46-.64.52-2.41,1.87-4,2.75-5.31,3a5.58,5.58,0,0,1-4.09-.82l2.86-2.21c.93.23,1.64-.07,3.53-1.49l6.49-5Zm-14.87,2.11.7-.54-.89-1.14-.69.54ZM215,66l.67-.52-.89-1.14-.67.52Zm.43,5.35.69-.54-.89-1.15-.7.54Zm2.32-1.8.67-.52-.9-1.15-.66.51Zm5.09-3.94.89-.69-5.52-7.12-.89.69Z"/><path d="M232.64,74.59a61.88,61.88,0,0,0-8.21,3.23c-.25.13-3.43,2-4.21,2.42a11.2,11.2,0,0,0-1.32.88l-1.41-2.7a45.79,45.79,0,0,1,4.27-2.5,61.8,61.8,0,0,1,9.48-4Zm-5.29,3.7L229.9,77l1.87,3.54,3.14-1.77,1.56,3-3.08,1.6L235,86.43,232.4,87.8l-1.66-3.13c-1.49.79-1.62.86-2.06,1.08-2.23,1.17-3.36,1.37-5,.94a6.67,6.67,0,0,1-4.16-3.76c-.11-.22-.2-.4-.35-.73l2.59-1.35a9.28,9.28,0,0,0,1.37,2,2.42,2.42,0,0,0,2.51.62,9.21,9.21,0,0,0,1.94-.74c.22-.11.22-.11,1.63-.91Z"/><path d="M73.18,208.61l11.76,7.3a3.11,3.11,0,0,0,.91,4.62l-2.23,3.59c-3.53,5.62-7.8,6.54-13.71,2.9l-5.16-3.2,1.88-3,4.65,2.88c4.31,2.67,6.83,2,9.61-2.58l1.54-2.47-11.15-6.92Zm16.39,10.52a2.55,2.55,0,1,1-.8-3.48A2.56,2.56,0,0,1,89.57,219.13Zm-3-1.87a1,1,0,0,0,.31,1.36,1,1,0,0,0,1.37-.32,1,1,0,0,0-.34-1.36A1,1,0,0,0,86.55,217.26Z"/><path d="M109.78,224.65l-3.45,10.86c-1.07,3.71-3.91,5.06-7.82,3.68l-10.89-3.46,5.23-16.46ZM99.23,235.57c2.09.67,3,.17,3.63-2L105,226.9l-9.55-3-3,9.53Z"/><path d="M112.5,239.4l7.49.52c5.17.34,6.55-.78,7-5.68l.37-5.35,3.88.27-.39,5.46c-.24,3.74-1.08,5.77-3.06,7.39-1.82,1.46-3.89,1.84-8.55,1.53l-7-.49ZM122,237c-3.74-1-4.68-1.28-9.09-2.27l.26-3.7,1.58.4c4.39,1.07,4.66,1.15,7.5,2Zm.42-6.06c-4.39-1.2-6.34-1.68-9.09-2.2l.26-3.6c3.08.68,5.45,1.26,9.08,2.25Zm7-5.92-.23,3.24-2-.14.23-3.24Zm.67,0,2,.15-.23,3.24-2-.14Z"/><path d="M143.77,238.88l-1.22-7.41-6.08,1-.55-3.38,16-2.64.56,3.39-6.08,1,1.21,7.41,7-1.14.54,3.27-17.85,2.94-.54-3.28Z"/><path d="M158,228.6c2.06-1.39,2.23-3.55.6-7.55L172,215.39l3.35,8c1.18,2.92,1.44,4.65,1,6.54-.62,2.45-2.12,4-5.06,5.33l-8.2,3.45-1.37-3.28,6.87-2.9c4-1.67,4.82-3.5,3.24-7.52l-2-4.66-6.8,2.86c1.1,4,0,6.79-3.63,8.87Z"/><path d="M179.06,209.88l3.39,4.69a90.85,90.85,0,0,1,9.84-3.6l2.35,3.25a87.45,87.45,0,0,0-9.9,3.52l5.58,7.71-3.22,2.33-11.26-15.57Z"/><path d="M67.75,134.41c.37,6.7.46,15.33.46,22.12,0,7.07-.09,11.75-.46,15.42H58.39c-.28-3.12-.55-7.25-.55-16.34,0-2.39,0-5.51.18-12.67a158,158,0,0,1-10.65,15.33l-7.07-4.4c5.42-10.65,15.52-26.9,21.21-37.46-3.12.28-11.57.83-16.25.83V107.6a261.67,261.67,0,0,1,32.68-2.11c-4.41,11.75-12.76,25.89-14.59,28.92ZM69.5,95.67a6.72,6.72,0,0,1-6.71,7.07c-4.31,0-7.8-4-7.8-8.17,0-3.4,2.85-6.43,7.07-6.43C64.54,88.14,69.5,90.16,69.5,95.67Zm17.44,40.85c.18,2,.27,11.65.36,13.86,1.29-.09,10.19-.64,10.47-.64.09-.56.18-3.58.18-4.23-.92,0-5.69.28-6.7.28h-2v-8.17a359.15,359.15,0,0,1,37-1.65c.27,5.41.36,10.74.36,16.15,0,9.73-.18,13.86-.36,17.17-13.13.92-44.16,1.28-48.93,1.28-.37-5.5-.37-12.48-.37-18.17,0-3.67,0-8.54.28-12.21a6.46,6.46,0,0,1-3.49,1.1c-3.77,0-5.78-3.58-5.78-6.24a5.62,5.62,0,0,1,5.69-5.79,6.09,6.09,0,0,1,6.06,7.26Zm38.92-37c-10.37.92-38.28,1.93-47.92,1.93V92.73C93.82,91.44,113,91,125.86,91Zm-35,6.7c.46,4.69.46,11.66.46,16.62,6.61-.46,14.78-1,21.39-1.19a18.5,18.5,0,0,1-.09-2.94V116c-9.36.55-14.14.74-18.73.74v-8.54a255.07,255.07,0,0,1,28-1.56c.19,2.3.46,6.06.46,12.39,0,5.79-.18,8.91-.37,10.74-10.74.92-28.09,1.93-40,2.11-.37-4.49-.37-9.91-.37-12.66,0-5.88.09-9.27.37-12.76Zm6.89,50.95c-5,.18-5.6.18-10.37.37,0,.55.09,3.49.09,4.13,1.47-.09,8.72-.37,10.37-.46C97.86,160.29,97.86,159.56,97.77,157.17Zm18.82-12.48c-1.56.09-8.26.36-9.64.46,0,1,.09,3.12.18,4.22,3.86-.09,4.22-.09,6.43-.09v7.06c-1,.1-5.42.28-6.34.37,0,2.3,0,3-.09,4.13,1.56,0,8.17-.27,9.55-.27,0-1,0-1.65-.09-7.53Z"/><path d="M149.38,90.89a24.75,24.75,0,0,1,.18,2.48c.09,16.89.46,18.91.28,37l-.19,20.47c-.09,8.81-.09,15.14-.46,19.73h-10c-.64-8.9-.74-30.47-.74-40.3,0-8.9.1-31.39.65-39.28Zm37.54,72c-.27-5.05-.36-11.66-.36-16.89,0-2.75,0-3.49.18-5.87l9.09-.46c.36,6.06.46,12.21.36,18.36.55,0,2.94,0,5.79.27,0-4.4-.19-23.77-.19-27.63,0-7,.1-20.93.1-29.1-3.86.37-38.47,2.11-49.3,2.11V94.11c10.56-1.2,43.6-2.67,59.85-2.67.37,12.67.64,25.16.64,37.82,0,13.5-.27,27-.64,40.4-4.68-.19-11.38-.46-18.91-1.47l.19-5.42Zm10.65-30.29c-6.42.73-33.87,2.57-43.24,2.57V126.6c10.74-1.19,14.6-1.37,25.52-1.83l-4.13-2A106.48,106.48,0,0,1,185,106l7.72,4a77.06,77.06,0,0,1-7.26,14.68c1.93-.09,10.28-.46,12-.46Zm-16.8,3.49c.37,5.69.46,13.4.46,16.06,1.84-.09,2.48-.09,3.76-.09l.1,9.36A264,264,0,0,1,157.27,163c-.27-4.31-.37-9.08-.37-13.4a79.32,79.32,0,0,1,.28-8.72l9.27-.18c.09,1.65.28,2.84.28,12.3,1.1-.09,1.47-.09,4.31-.28-.18-7.34-.18-9.91,0-16.15Zm-7.62-20.38a6.45,6.45,0,0,1-6.51,6.42,7.46,7.46,0,0,1-7.26-7.34c0-4,3.58-6.06,6.61-6.06A7.06,7.06,0,0,1,173.15,115.68Z"/><path class="cls-3" d="M146.3,61.83a7.49,7.49,0,0,0-7.49-7.49,7.61,7.61,0,0,0-1.66.18,7.49,7.49,0,0,0-14.92,0,7.49,7.49,0,0,0-4.61,14.19,7.49,7.49,0,0,0,12.07,8.77,7.5,7.5,0,0,0,12.08-8.77A7.47,7.47,0,0,0,146.3,61.83Zm-10.73,4.1a1.29,1.29,0,0,1-1.19-.78H131l2.42,2.43a1.29,1.29,0,0,1,1.4.29,1.3,1.3,0,1,1-1.84,1.83,1.29,1.29,0,0,1-.29-1.39l-2.43-2.43v3.43a1.3,1.3,0,0,1-.52,2.49,1.3,1.3,0,0,1-1.29-1.3,1.31,1.31,0,0,1,.78-1.19V65.88l-2.43,2.43a1.3,1.3,0,0,1-2.13,1.39,1.3,1.3,0,0,1,0-1.83,1.28,1.28,0,0,1,1.39-.29l2.43-2.43H125a1.3,1.3,0,1,1,0-1h3.43L126,61.69a1.3,1.3,0,0,1-1.39-2.13A1.3,1.3,0,0,1,126.75,61l2.43,2.43V60a1.3,1.3,0,1,1,1,0v3.43L132.64,61a1.3,1.3,0,0,1,2.13-1.39,1.3,1.3,0,0,1-1.4,2.13L131,64.11h3.43a1.29,1.29,0,0,1,1.19-.78,1.3,1.3,0,1,1,0,2.6Z"/></g></g></svg>