<svg xmlns="http://www.w3.org/2000/svg" width="259.39" height="259.39" viewBox="0 0 259.39 259.39"><defs><style>.cls-1{fill:#fff;}.cls-2{fill:#231f20;}.cls-3{fill:#d87d39;}</style></defs><g id="レイヤー_2" data-name="レイヤー 2"><g id="レイヤー_1-2" data-name="レイヤー 1"><circle class="cls-1" cx="129.69" cy="129.69" r="128.47"/><path class="cls-2" d="M129.69,259.39C58.18,259.39,0,201.21,0,129.69A129.84,129.84,0,0,1,129.69,0c71.52,0,129.7,58.18,129.7,129.69A129.84,129.84,0,0,1,129.69,259.39Zm0-256.95A127.26,127.26,0,1,0,257,129.69,127.4,127.4,0,0,0,129.69,2.44Z"/><path class="cls-2" d="M57.4,210.22c-.67-.61-1.34-1.22-2-1.84l.47-.49,2,1.83Zm-3.94-3.73c-.65-.64-1.28-1.29-1.9-1.94l.49-.47c.62.65,1.25,1.29,1.88,1.93Zm154-1-.48-.47c.63-.64,1.25-1.3,1.86-2l.5.46C208.77,204.22,208.15,204.88,207.51,205.52Zm-157.8-3c-.61-.67-1.21-1.34-1.8-2l.51-.44c.59.68,1.18,1.35,1.79,2Zm161.5-1-.51-.45c.6-.68,1.19-1.36,1.76-2l.52.44C212.4,200.18,211.81,200.87,211.21,201.55Zm-165-3.09c-.57-.7-1.14-1.41-1.7-2.12l.54-.42c.55.71,1.11,1.41,1.68,2.11Zm168.54-1.08-.53-.42c.57-.7,1.12-1.41,1.66-2.13l.54.41C215.83,196,215.27,196.68,214.7,197.38Zm-171.87-3.2c-.54-.73-1.07-1.46-1.59-2.2l.56-.39c.51.74,1,1.46,1.57,2.18ZM218,193.05l-.55-.39c.52-.73,1-1.47,1.54-2.21l.56.38C219,191.58,218.51,192.32,218,193.05ZM39.71,189.73c-.5-.75-1-1.51-1.48-2.28l.57-.36c.49.76,1,1.52,1.47,2.27ZM221,188.56l-.56-.37c.49-.75,1-1.51,1.43-2.28l.58.35C222,187,221.54,187.8,221,188.56ZM36.81,185.13c-.46-.78-.91-1.57-1.36-2.36l.6-.33q.66,1.19,1.35,2.34Zm187.07-1.21-.59-.34c.46-.78.9-1.56,1.33-2.35l.59.32C224.78,182.35,224.33,183.14,223.88,183.92ZM34.16,180.38c-.43-.8-.84-1.61-1.24-2.42l.61-.3c.4.81.81,1.61,1.23,2.41Zm192.32-1.23-.6-.31c.41-.8.81-1.61,1.2-2.42l.61.29C227.3,177.53,226.9,178.34,226.48,179.15ZM31.74,175.51c-.38-.82-.75-1.65-1.11-2.48l.62-.27q.54,1.25,1.11,2.46Zm197.1-1.26-.62-.28c.37-.82.74-1.65,1.09-2.48l.62.26C229.58,172.59,229.22,173.42,228.84,174.25ZM29.57,170.52c-.34-.84-.67-1.68-1-2.53l.64-.24c.32.84.64,1.68,1,2.52ZM231,169.23l-.63-.24c.32-.84.64-1.69.95-2.53l.64.23C231.61,167.54,231.29,168.39,231,169.23Zm-203.3-3.8q-.45-1.27-.87-2.58l.65-.2c.27.86.56,1.71.86,2.56Zm205.16-1.31-.65-.22c.29-.85.57-1.71.83-2.57l.65.2C233.38,162.4,233.1,163.26,232.82,164.12ZM26,160.25c-.25-.87-.5-1.74-.73-2.62l.65-.17c.24.87.48,1.74.73,2.6Zm208.43-1.33-.65-.19c.24-.86.47-1.73.7-2.61l.65.17C234.9,157.17,234.67,158,234.42,158.92ZM24.59,155c-.22-.89-.42-1.77-.61-2.65l.66-.15c.19.88.39,1.76.61,2.64Zm211.17-1.36-.66-.15c.2-.88.39-1.76.57-2.65l.66.14C236.15,151.87,236,152.75,235.76,153.64Zm-212.32-4c-.16-.9-.32-1.79-.47-2.68l.67-.11c.15.89.3,1.77.47,2.66Zm213.39-1.38-.66-.12c.15-.89.3-1.78.43-2.67l.67.1C237.14,146.51,237,147.41,236.83,148.3Zm-214.26-4c-.12-.9-.24-1.8-.34-2.7l.68-.08c.1.9.21,1.79.33,2.69Zm215.07-1.4-.68-.08c.12-.9.21-1.79.3-2.69l.68.06C237.85,141.11,237.75,142,237.64,142.91ZM22,138.9c-.07-.9-.14-1.81-.19-2.71l.67,0c.06.89.12,1.79.2,2.69Zm216.21-1.41-.68-.05c.07-.9.12-1.8.16-2.71l.68,0C238.29,135.67,238.23,136.58,238.17,137.49Zm-216.53-4c0-.91-.06-1.81-.07-2.72h.68c0,.9,0,1.8.06,2.71ZM238.42,132h-.67c0-.77,0-1.54,0-2.31v-.4h.68v.42Q238.45,130.89,238.42,132ZM22.26,128h-.68c0-.91,0-1.82.08-2.73l.67,0C22.3,126.23,22.27,127.13,22.26,128Zm215.47-1.43q0-1.35-.12-2.7l.68,0c.05.9.09,1.81.11,2.71Zm-215.25-4-.68,0c.06-.91.13-1.82.21-2.72l.68.06Q22.57,121.27,22.48,122.62Zm215-1.41c-.07-.89-.15-1.79-.25-2.69l.68-.07c.09.91.18,1.81.25,2.71ZM23,117.23l-.67-.08c.1-.9.22-1.81.35-2.7l.67.09C23.19,115.44,23.08,116.33,23,117.23Zm213.89-1.39c-.11-.89-.24-1.79-.38-2.68l.67-.1c.14.9.27,1.79.39,2.69Zm-213.12-4-.67-.12c.15-.89.31-1.78.48-2.68l.67.13Q24,110.54,23.74,111.87ZM236,110.5c-.16-.89-.33-1.77-.52-2.66l.66-.13c.19.88.36,1.77.53,2.67Zm-211.26-4-.66-.14c.2-.89.4-1.77.62-2.65l.66.16C25.17,104.79,25,105.67,24.77,106.55Zm210.16-1.35c-.21-.87-.43-1.75-.65-2.62l.65-.17q.34,1.32.66,2.64ZM26.07,101.3l-.65-.18q.36-1.31.75-2.61l.65.19C26.56,99.57,26.31,100.43,26.07,101.3ZM233.56,100c-.25-.86-.51-1.73-.78-2.59-.13-.42-.27-.85-.41-1.27l.65-.21c.14.42.27.85.41,1.28.27.87.53,1.73.78,2.6Z"/><path d="M110.47,205.46a.42.42,0,0,1-.3-.12,12.77,12.77,0,0,0-18.06,0,.42.42,0,1,1-.59-.59,13.59,13.59,0,0,1,19.24,0,.4.4,0,0,1,0,.59A.4.4,0,0,1,110.47,205.46Z"/><path d="M86.79,200.44a.39.39,0,0,1-.29-.13.42.42,0,0,1,0-.59,20.73,20.73,0,0,1,29.29,0,.42.42,0,0,1,0,.59.4.4,0,0,1-.59,0,19.88,19.88,0,0,0-28.11,0A.39.39,0,0,1,86.79,200.44Z"/><path d="M81.92,196a.86.86,0,0,1-.59-.24.85.85,0,0,1,0-1.18,28,28,0,0,1,39.62,0,.83.83,0,0,1,0,1.18.85.85,0,0,1-1.18,0,26.34,26.34,0,0,0-37.26,0A.82.82,0,0,1,81.92,196Z"/><path d="M139.23,195.85a.42.42,0,0,1-.29-.12,12.77,12.77,0,0,0-18.06,0,.42.42,0,0,1-.59,0,.41.41,0,0,1,0-.59,13.59,13.59,0,0,1,19.24,0,.42.42,0,0,1-.3.71Z"/><path d="M115.56,190.83a.4.4,0,0,1-.29-.12.4.4,0,0,1,0-.59,20.69,20.69,0,0,1,29.28,0,.42.42,0,0,1-.59.59,19.87,19.87,0,0,0-28.1,0A.44.44,0,0,1,115.56,190.83Z"/><path d="M110.69,186.38a.84.84,0,0,1-.59-1.43,28,28,0,0,1,39.62,0,.85.85,0,0,1,0,1.18.83.83,0,0,1-1.18,0,26.36,26.36,0,0,0-37.26,0A.85.85,0,0,1,110.69,186.38Z"/><path d="M168.2,205.46a.42.42,0,0,1-.3-.12,12.77,12.77,0,0,0-18.06,0,.42.42,0,0,1-.59-.59,13.59,13.59,0,0,1,19.24,0,.4.4,0,0,1,0,.59A.42.42,0,0,1,168.2,205.46Z"/><path d="M144.52,200.44a.39.39,0,0,1-.29-.13.4.4,0,0,1,0-.59,20.71,20.71,0,0,1,29.28,0,.42.42,0,0,1-.59.59,19.87,19.87,0,0,0-28.1,0A.39.39,0,0,1,144.52,200.44Z"/><path d="M139.65,196a.84.84,0,0,1-.59-.24.83.83,0,0,1,0-1.18,28,28,0,0,1,39.62,0,.83.83,0,0,1,0,1.18.85.85,0,0,1-1.18,0,26.34,26.34,0,0,0-37.26,0A.82.82,0,0,1,139.65,196Z"/><path d="M32.72,89.34c-.11-1-.62-1.53-2.3-2.47l-6.7-3.57L26.56,78l-1.32-.71,1.45-2.72,1.32.71,2.78-5.21,2.32,1.24L27.38,82l4.88,2.61c3.38,1.76,4.23,3.28,3.58,6.39Zm2.55-2.9.56-1.21a67.33,67.33,0,0,0-6.06-5.74l1.52-2.84A77.13,77.13,0,0,1,37,82.37a20.92,20.92,0,0,0,1.13-3.65,28.74,28.74,0,0,0-3-.27l1.49-2.79a56.41,56.41,0,0,1,6.9,1L42,79.54l-1.17-.35a37.62,37.62,0,0,1-3.06,8.6Z"/><path d="M42.79,72.3,44.64,70l.93.75.81-1L45,68.61,43.15,70.9,34.58,64l2.53-3.16-.48-1.15L39,56.78l.4,1.24,3.49-4.36,3.29,2.64c1,.75,1.08,1.56.21,2.69L41.17,65.5l.4.32,7.33-9.15,1.56,1.26-7.32,9.15.49.39,7.11-8.87a16.07,16.07,0,0,1,2.8,2.59c.8,1,.6,2.46-.53,3.9l-.88,1.1-.5-.39a.73.73,0,0,1-.22.47L45.1,74.16Zm0-14.84-.5-.4-4.57,5.71.49.39Zm1.61,1.28-.54-.42L39.33,64l.53.43ZM49,66.45l-.91-.73L50,63.41l1,.77.11-.13a1,1,0,0,0,.26-.7c0-.24-.2-.43-1.12-1.23L46.8,66.33l1.41,1.13Z"/><path d="M61.71,52c1.25-1.14,1.66-1.85,1.63-2.86a6.31,6.31,0,0,0-1.71-3.56,5.94,5.94,0,0,0-2.82-2,2.16,2.16,0,0,0-2,.44,50.07,50.07,0,0,1,3.76,6.64,6.28,6.28,0,0,1,.81,3.38,3.12,3.12,0,0,1-1,1.95,4.49,4.49,0,0,1-3.64.8,8.26,8.26,0,0,1-4.13-2.75,8.94,8.94,0,0,1-2.11-4.27c-.44-2.56.59-4.88,3.07-7C57.3,39.66,60.78,40,64,43.65c1.81,2.11,2.66,4.48,2.31,6.43a6.77,6.77,0,0,1-2.6,4l-.12.1Zm-8.35-3.68A6,6,0,0,0,55,52.21c1.14,1.34,2.37,1.89,3,1.35.32-.27.36-.74.11-1.36a57.06,57.06,0,0,0-3.6-6.3A3.61,3.61,0,0,0,53.36,48.35Z"/><path d="M66.15,38.58l1-.56-2.66-4.58L67,32l.72,1.24,3.51-2,1.1,1.91-3.5,2,.69,1.21c1.34-.94,1.92-1.4,3.21-2.45l1.12,1.93a72.41,72.41,0,0,1-6.45,4.93Zm6.94-.79-.13-.9,2.27-1.31c-.62-.09-.94-.36-1.42-1.16L71,29.64l2.35-1.37.84,1.45,3.54-3L79,28.79l-3.64,2.87L76,32.74l2.48-1.44a2.11,2.11,0,0,0,1.24-1.8l1.36,2.33c-.18.64-.62,1.08-1.73,1.74l-2.57,1.49a3.44,3.44,0,0,1-1,.49l.14.63,4.75-2.76,2.76,4.74c.94,1.66.72,2.3-1.12,3.34l-9.55,5.55-3.92-6.76Zm6.21-.5L79,36.71l-6.68,3.88.33.58Zm1.41,2.42-.47-.8-6.68,3.87.47.81Z"/><path d="M84.83,28.92l-.89-2.51,1.41-.5-1-2.92,2.59-.92,1,2.92,1.24-.45.9,2.51-1.25.44.35,1,1.59.54-.56-1.58,3.62-1.28-.19-.54-3.09,1.1-.64-1.81L93,23.81l-.17-.49-3.51,1.25-.65-1.84L90,22.27,89,21.32l2.75-1,1,.93,1.46-.52.13-1.33,3-1.06L97,19.75l1.23-.44.66,1.85L95.4,22.41l.17.48,3.17-1.13.64,1.81L96.21,24.7l.19.53,3.8-1.35.67,1.86-3.81,1.35a4,4,0,0,0,1,1.06l2.58-2.06.79,2.23-1.35,1a4.83,4.83,0,0,0,2.1.22l1.1,3.09A6.8,6.8,0,0,1,98.47,31L99,32.63c.48,1.1,0,2-1.27,2.53l-2,.72L95,33.77a10.89,10.89,0,0,1-1.91,2.37l-1-2.81a6.27,6.27,0,0,0,1.51-2c-.63,0-.74,0-1.37.11l-.73-2.07a21.79,21.79,0,0,1,2.68-.25l.2.57c.15-.56.18-.65.29-1.19L94.49,28l-3.55,1.27,1.21,3.4-1.89-1.16,2,5.58L89.65,38l-1.54-4.33a4.81,4.81,0,0,1-.8,2.83l-1.38-3.85a12,12,0,0,0,.23-4.22Zm11.46,4.15-.47-1.33a7.3,7.3,0,0,1-.67,1.74Z"/><path d="M108.14,16.68a44.93,44.93,0,0,0,.7,9.48c.07.41.07.41.68,3.6l.32,1.79L107,32c-.72-3.42-.91-4.36-1.17-6a59.1,59.1,0,0,1-.65-8.88Zm10.34-.74.46,2.82-8.68,1.41-.46-2.82Zm-4.33,7.49a5.12,5.12,0,0,0-.41,2.55,1.49,1.49,0,0,0,1.09,1.31,3.86,3.86,0,0,0,1.76,0c1.62-.26,2.61-.44,3.82-.71l.45,2.82c-1,.19-3.17.59-4,.73-1.93.31-3,.24-4-.23a3.65,3.65,0,0,1-1.93-2.63,8.3,8.3,0,0,1,.26-3.31Z"/><path d="M124.35,22.75l5.94,0L130.16,20h-4.7l0-2.74H130l-.14-2.93,3.16.06.14,2.89h5.41l0,2.73-5.23,0,.13,2.77,6,0-.05,2.89-5.82,0,.21,4-3.15-.05-.21-4-6.14,0Z"/><path d="M149,16.05l-2.28,11.51,1.68.33c4.69.79,6.22-.56,7.64-6.71l3.14.63c-.9,3.64-2,5.93-3.5,7.48-2.13,2-4.13,2.34-9.13,1.4L143.14,30,146,15.46Z"/><path d="M163.27,26.37l10.72-.7c1.42-.11,1.8-.35,2.23-1.44l.17-.44,3,1.18-.25.64a3.79,3.79,0,0,1-3.45,2.73l-3,.28-3.5,8.94-3-1.19L169,29l-7,.63Z"/><path d="M183.46,31l1.29-2.13,4,2.46,1.25-.78,2.69,1.64-1.14.85,4.73,2.89L195,38l-6-3.68-1.29.72a4.73,4.73,0,0,1,2.51.6,2.16,2.16,0,0,1,1.09,2,3.83,3.83,0,0,1-.76,1.71l3.62,1.72-1.47,2.4-3.55-1.82L188,43.58,185.4,42l.9-1.47c-2-.59-2.7-.55-3.13.15s-.13,1.1,1.37,2,3.59,2.08,5.61,3.13l-1.46,2.39c-1.09-.62-1.5-.85-2.22-1.29-4.07-2.48-5.11-3.2-5.8-4a3.17,3.17,0,0,1-.67-2.73,2.85,2.85,0,0,1,.41-1.1,3.81,3.81,0,0,1,3.48-1.51,11.67,11.67,0,0,1,3.78.74,2.16,2.16,0,0,0,.41-.95.81.81,0,0,0-.41-.71c-.89-.54-2.22-.52-3.89.09L180.87,35a39.18,39.18,0,0,0,5.3-2.35Z"/><path d="M200.37,42.78l1.88-2.11,2.89,2.58L206.23,42l2.25,2-1.09,1.22,2.26,2-1.86,2.09-2.27-2-.6.68.77.65c3,2.68,3.56,5.87,1.46,8.23a4.74,4.74,0,0,1-3.83,1.7,7.52,7.52,0,0,1-4.27-1.87c-.11-.1-.23-.21-.4-.39l1.94-2.18c1.16,1,1.65,1.25,2.31,1.28a2.43,2.43,0,0,0,1.79-.81,1.94,1.94,0,0,0,.48-1,4.2,4.2,0,0,0-1.46-3.08c-.13-.11-.43-.33-.77-.56l-2.77,3.1a5.36,5.36,0,0,1-1.94,1.57,2.31,2.31,0,0,1-2.24-.77c-2.3-2.06-2.58-4.71-.71-6.8a5.21,5.21,0,0,1,4.31-1.66,8.14,8.14,0,0,1,2.95.82l.75-.89Zm0,5.71a2.3,2.3,0,0,0-1.33-.26,2.69,2.69,0,0,0-1.55.81,1.46,1.46,0,0,0-.07,2c.29.26.52.16,1.07-.46Zm12,.39a14.51,14.51,0,0,1-1.38,3.54l-2.21-2a25,25,0,0,0,1.42-3.5Z"/><path d="M227.86,66l-3.45,2.66c-.93.63-1.74.41-2.51-.67l-1.43-1.85-.91.7,2.71,3.51-5,3.84c-1.25,1-2.25.78-3.4-.74l-5.49-7.13,6.75-5.21,2.56,3.32.91-.69-2.75-3.58c-.27.23-.57.46-.65.52-2.41,1.86-4,2.74-5.31,3a5.59,5.59,0,0,1-4.09-.83l2.86-2.21c.94.24,1.64-.06,3.53-1.47l6.51-5ZM213,68l.7-.54-.88-1.14-.7.53Zm2.34-1.8.67-.51-.89-1.15-.67.52Zm.41,5.36.69-.54-.89-1.16-.7.54Zm2.33-1.8.67-.51-.9-1.16-.66.51Zm5.09-3.92.9-.69-5.5-7.13-.89.68Z"/><path d="M232.94,74.85a62.06,62.06,0,0,0-8.22,3.2c-.25.13-3.44,2-4.21,2.41a11,11,0,0,0-1.33.89l-1.4-2.71a41.46,41.46,0,0,1,4.27-2.48,60.54,60.54,0,0,1,9.49-4Zm-5.3,3.68,2.55-1.32,1.87,3.54L235.2,79l1.55,3-3.08,1.59,1.63,3.08-2.63,1.36L231,84.92,229,86c-2.23,1.16-3.36,1.36-5,.92a6.67,6.67,0,0,1-4.15-3.77c-.11-.22-.2-.39-.35-.73l2.6-1.34a9,9,0,0,0,1.36,2,2.42,2.42,0,0,0,2.51.63,8.63,8.63,0,0,0,1.93-.74c.22-.11.22-.11,1.64-.9Z"/><path d="M74.47,208.61l11.75,7.29a3.1,3.1,0,0,0,.92,4.62l-2.23,3.6c-3.54,5.61-7.81,6.54-13.72,2.9L66,223.82l1.89-3,4.64,2.88c4.31,2.67,6.83,2,9.62-2.59l1.53-2.47-11.15-6.91Zm16.39,10.52a2.56,2.56,0,1,1-.8-3.48A2.57,2.57,0,0,1,90.86,219.13Zm-3-1.87a1,1,0,0,0,.31,1.36,1,1,0,0,0,1.37-.32,1,1,0,0,0-.33-1.36A1,1,0,0,0,87.83,217.26Z"/><path d="M111.06,224.65l-3.45,10.85c-1.07,3.72-3.91,5.07-7.82,3.69L88.9,235.73l5.23-16.46Zm-10.55,10.92c2.09.66,3,.17,3.64-2.06l2.1-6.61-9.55-3-3,9.53Z"/><path d="M113.78,239.39l7.49.53c5.17.34,6.56-.78,7-5.69l.37-5.34,3.88.27-.39,5.45c-.24,3.75-1.08,5.78-3.06,7.4-1.82,1.46-3.89,1.84-8.55,1.53l-7-.49ZM123.3,237c-3.73-1-4.68-1.29-9.09-2.27l.26-3.7,1.59.39c4.38,1.07,4.66,1.16,7.49,2Zm.42-6.06c-4.39-1.2-6.34-1.69-9.09-2.21l.26-3.59c3.08.67,5.46,1.26,9.08,2.25Zm7-5.93-.23,3.25-2-.14.22-3.25Zm.67,0,2,.15-.22,3.24-2-.14Z"/><path d="M145.05,238.87l-1.22-7.4-6.08,1-.55-3.38,16-2.64.56,3.38-6.08,1,1.22,7.41,6.95-1.15.54,3.28-17.85,2.93L138,240Z"/><path d="M159.25,228.59c2.06-1.38,2.23-3.55.6-7.54l13.46-5.66,3.35,8c1.18,2.92,1.44,4.64,1,6.54-.62,2.45-2.12,4-5.06,5.32l-8.2,3.45L163,235.4l6.88-2.89c4-1.67,4.81-3.51,3.23-7.53l-1.95-4.66-6.81,2.86c1.1,4,0,6.79-3.63,8.87Z"/><path d="M180.34,209.88l3.39,4.69a89.16,89.16,0,0,1,9.84-3.61l2.35,3.25a91.6,91.6,0,0,0-9.9,3.52l5.58,7.72-3.22,2.32L177.12,212.2Z"/><path d="M43.69,170.13c3.76-21.66,7.07-40.94,13.22-72.42l9.27,1a379.45,379.45,0,0,1-13.31,73.16Zm64.9-8.35c-11.38,2.2-24.23,4.68-47.18,7.34l-1.29-9.36c1.47-.27,8.26-1.56,9.64-1.93,4-12.48,7.34-22.58,15.51-42.77l9.09,2.84c-4,12.76-8.35,25.43-13,38,8.63-1.2,17.16-2.21,25.79-3.13Zm14.32-52c-22.86,1.38-27.72,1.66-54.89,1.66v-9c21.66-1.56,28.91-2,54.89-2.3ZM100,91.1a7.4,7.4,0,0,1-7.34,7.25,8,8,0,0,1-8-8c0-2.29,1.1-6.79,7.53-6.79C95,83.57,100,86.14,100,91.1Zm18.45,79.68A231.78,231.78,0,0,1,106,141.22l9.09-3.4c5.41,11.38,10.46,25.34,11.84,29.38Z"/><path d="M191.48,159.94c3.22.19,3.68.19,7.62.46.28-1.37,1.93-8.17,2.3-9.73-2,.09-3.22.09-14,.65-6.7.27-8.35.36-19.73.82a50.68,50.68,0,0,1,0,5.23c5.23-.09,6.42,0,8.44,0l.1,9c-6.8.73-37,1.65-39.29,1.65-.1-2-.19-3.67-.19-8.17a55.49,55.49,0,0,1,.37-7.52h9.45c-.73-19-.73-37.92,0-56.83l10.29-.09c.27,6.06.36,7.71.45,14.23,11.48-.92,13.41-1.1,21.39-1.1l.1,5.78c-5.7.64-7,.74-21.49,1.47l.1,3.4c12.85-.83,14.59-.92,30.75-1.75V105c-4,.09-24,1-28.46,1.1V97.61c15.88-1.37,25.8-1.92,39.11-1.92.18,3.58.36,8.44.36,15.6,0,6.15-.18,10.65-.27,14.51-2.11.18-3.95.36-6.52.55-9.73.55-25.33,1.37-35,1.92v15.06c2.11-.09,12.76-.83,15.14-1q21.08-1,42.14-1.1a152.34,152.34,0,0,1-7.16,29.92c-6.89-.46-8-.55-17.81-1.74Zm-44.15-7.16c.18,1.93.09,3.22.09,5.79,3.4-.28,6.24-.55,9.64-.65V152.6C155.5,152.69,148.71,152.78,147.33,152.78Zm63.25-15.6c-15.24,1-45.72,1.83-49.85,1.83l.09-7c15.43-1.38,33.88-2.11,49.85-2.3ZM182.76,89.9c0,1.93-1.1,6.43-6.79,6.43-4,0-5.32-1-6-1.65a6.67,6.67,0,0,1-2.11-4.78c0-6.06,6.79-6.88,7.62-6.88A7,7,0,0,1,182.76,89.9Zm-4.5,78.58c-.09-2.84-.27-5.87-.27-8.54,0-3.39.18-5.69.27-7.16l9.28-.09a70.15,70.15,0,0,1,.36,8.63,61.25,61.25,0,0,1-.27,7Z"/><path class="cls-3" d="M120.23,66.64c-1-1-2-1.83-2.82-2.74a18,18,0,0,1-3.67-5.26,15.77,15.77,0,0,1-.6-2c-.11-.42.06-.67.48-.83a10.38,10.38,0,0,1,4.62-.56,25.4,25.4,0,0,1,6.28,1.34l.26,0c.07-.42.11-.83.21-1.23a19.75,19.75,0,0,1,4.11-7.93c.85-1,1.13-1,2.06,0a17.06,17.06,0,0,1,3.15,5,12.21,12.21,0,0,1,1.36,4.83,15.48,15.48,0,0,1,10.45-1c-1.35,3.88-3.08,7.36-6.54,9.56,1.23.15,2.55.23,3.82.49a6.06,6.06,0,0,1,3.31,2.17C144,71.8,140.38,73.06,136,72.86a13.78,13.78,0,0,1,3.83,4.6,17.71,17.71,0,0,1-9.51-3.53v.74c0,2.3,0,4.59,0,6.88A23.68,23.68,0,0,1,130,84.2c0,.37-.22.6-.64.56s-.68,0-1.09-.06a41.33,41.33,0,0,0,.87-10.45c-1.59.78-3.08,1.62-4.65,2.25s-3.24,1.11-5,.31a8.79,8.79,0,0,1,3.27-2.92c-3.63-.61-6.92-1.65-9.38-4.51A8.49,8.49,0,0,1,120.23,66.64Z"/></g></g></svg>