<svg xmlns="http://www.w3.org/2000/svg" width="259.39" height="259.39" viewBox="0 0 259.39 259.39"><defs><style>.cls-1{fill:#fff;}.cls-2{fill:#231f20;}.cls-3{fill:#4ab4c6;}</style></defs><g id="レイヤー_2" data-name="レイヤー 2"><g id="レイヤー_1-2" data-name="レイヤー 1"><circle class="cls-1" cx="129.69" cy="129.69" r="128.47"/><path class="cls-2" d="M129.69,259.39C58.18,259.39,0,201.21,0,129.69A129.84,129.84,0,0,1,129.69,0c71.52,0,129.7,58.18,129.7,129.69A129.84,129.84,0,0,1,129.69,259.39Zm0-256.95A127.26,127.26,0,1,0,257,129.69,127.4,127.4,0,0,0,129.69,2.44Z"/><path class="cls-2" d="M57.08,210.22l-2-1.84.46-.5c.66.62,1.32,1.23,2,1.83Zm-3.94-3.73c-.64-.64-1.28-1.29-1.9-1.94l.49-.47c.62.65,1.25,1.29,1.89,1.93Zm154.06-1-.49-.47c.63-.64,1.25-1.3,1.87-2l.49.46C208.46,204.22,207.83,204.88,207.2,205.52Zm-157.81-3c-.61-.67-1.21-1.34-1.8-2l.51-.44c.59.68,1.19,1.35,1.79,2Zm161.5-1-.51-.45c.6-.68,1.19-1.36,1.77-2l.52.44C212.08,200.18,211.49,200.87,210.89,201.55Zm-165-3.09c-.57-.7-1.13-1.41-1.69-2.12l.53-.42c.56.71,1.12,1.41,1.69,2.1Zm168.55-1.08-.53-.42q.84-1.05,1.65-2.13l.54.41C215.51,196,215,196.68,214.39,197.38Zm-171.88-3.2c-.54-.73-1.07-1.46-1.59-2.2l.56-.39c.52.73,1,1.46,1.57,2.18Zm175.16-1.13-.55-.39c.52-.73,1-1.47,1.55-2.21l.56.38Q218.47,192,217.67,193.05ZM39.39,189.73q-.75-1.12-1.47-2.28l.57-.36c.48.76,1,1.52,1.47,2.27Zm181.34-1.17-.57-.36c.49-.76,1-1.52,1.44-2.29l.58.35C221.71,187,221.22,187.8,220.73,188.56ZM36.5,185.13c-.47-.78-.92-1.57-1.36-2.36l.59-.33q.66,1.19,1.35,2.34Zm187.07-1.21-.59-.34c.45-.78.89-1.56,1.32-2.35l.59.32Q224.25,182.75,223.57,183.92ZM33.84,180.38c-.42-.8-.84-1.61-1.24-2.42l.61-.3q.6,1.22,1.23,2.4Zm192.33-1.23-.61-.31c.41-.8.81-1.61,1.2-2.42l.62.29C227,177.53,226.58,178.34,226.17,179.15ZM31.42,175.51c-.38-.82-.75-1.65-1.11-2.48l.62-.27c.36.82.73,1.65,1.11,2.46Zm197.1-1.26-.61-.28c.37-.82.73-1.65,1.08-2.48l.62.26C229.26,172.59,228.9,173.42,228.52,174.25ZM29.26,170.52c-.34-.84-.67-1.68-1-2.53l.63-.24c.32.84.65,1.68,1,2.52Zm201.38-1.29L230,169c.33-.84.65-1.69,1-2.53l.64.23C231.29,167.54,231,168.39,230.64,169.23Zm-203.3-3.8c-.3-.85-.59-1.71-.86-2.58l.64-.2c.28.86.56,1.71.86,2.56Zm205.16-1.31-.64-.22c.28-.85.56-1.71.83-2.57l.64.2C233.07,162.4,232.79,163.26,232.5,164.12ZM25.68,160.25c-.26-.87-.5-1.74-.74-2.62l.66-.17c.23.87.47,1.74.73,2.6Zm208.42-1.33-.65-.19c.24-.86.48-1.73.7-2.61l.65.17C234.58,157.17,234.35,158,234.1,158.92ZM24.27,155c-.21-.89-.42-1.77-.6-2.66l.66-.14q.29,1.32.6,2.64Zm211.17-1.36-.66-.15c.2-.88.39-1.76.57-2.65l.66.14C235.83,151.87,235.64,152.76,235.44,153.64Zm-212.31-4c-.17-.9-.33-1.79-.47-2.68l.67-.11c.14.89.3,1.77.46,2.66Zm213.39-1.38-.67-.12c.15-.88.3-1.78.43-2.67l.67.1C236.82,146.51,236.67,147.41,236.52,148.3Zm-214.27-4q-.18-1.35-.33-2.7l.67-.08c.1.9.21,1.79.33,2.68Zm215.07-1.4-.67-.08c.11-.9.21-1.79.3-2.69l.67.06C237.53,141.11,237.43,142,237.32,142.91Zm-215.67-4c-.08-.91-.15-1.81-.2-2.71l.67,0c.06.89.13,1.79.2,2.69Zm216.2-1.41-.68-.05c.07-.9.12-1.8.17-2.71l.67,0C238,135.68,237.92,136.58,237.85,137.49Zm-216.53-4c0-.91-.05-1.82-.06-2.72h.68q0,1.35.06,2.7ZM238.11,132h-.68c0-.77,0-1.54,0-2.3v-.41h.68v.42C238.13,130.5,238.12,131.27,238.11,132ZM21.94,128h-.68c0-.91,0-1.81.08-2.72l.68,0C22,126.23,22,127.13,21.94,128Zm215.47-1.42q0-1.35-.12-2.7l.68,0c.05.9.09,1.81.11,2.71Zm-215.25-4-.67,0c.05-.91.13-1.82.21-2.72l.68.06C22.29,120.82,22.22,121.72,22.16,122.62Zm215-1.4q-.11-1.35-.24-2.7l.67-.07c.1.91.18,1.81.25,2.71Zm-214.45-4-.68-.08c.11-.91.22-1.81.35-2.7l.67.09C22.88,115.43,22.76,116.33,22.66,117.23Zm213.89-1.39c-.12-.89-.25-1.79-.39-2.68l.67-.1c.14.9.27,1.79.39,2.69Zm-213.13-4-.67-.12c.15-.89.32-1.79.49-2.68l.66.13Q23.65,110.54,23.42,111.87Zm212.29-1.37c-.16-.89-.33-1.77-.52-2.66l.67-.13c.18.88.36,1.77.52,2.67Zm-211.25-4-.67-.14c.2-.89.41-1.77.62-2.65l.66.16C24.86,104.79,24.65,105.67,24.46,106.55Zm210.15-1.35c-.2-.87-.42-1.75-.65-2.62l.66-.17c.23.88.44,1.76.65,2.64ZM25.75,101.3l-.65-.18c.24-.87.49-1.75.75-2.62l.65.2C26.24,99.56,26,100.43,25.75,101.3ZM233.24,100c-.24-.86-.5-1.73-.78-2.59l-.4-1.27.64-.21c.14.42.28.85.41,1.28.27.87.54,1.73.79,2.6Z"/><path d="M110.16,205.46a.42.42,0,0,1-.3-.12,12.77,12.77,0,0,0-18.06,0,.42.42,0,1,1-.59-.59,13.59,13.59,0,0,1,19.24,0,.42.42,0,0,1,0,.59A.42.42,0,0,1,110.16,205.46Z"/><path d="M86.48,200.44a.37.37,0,0,1-.29-.13.4.4,0,0,1,0-.59,20.71,20.71,0,0,1,29.28,0,.42.42,0,0,1-.59.59,19.87,19.87,0,0,0-28.1,0A.39.39,0,0,1,86.48,200.44Z"/><path d="M81.61,196a.84.84,0,0,1-.59-.24.83.83,0,0,1,0-1.18,28,28,0,0,1,39.62,0,.83.83,0,0,1,0,1.18.85.85,0,0,1-1.18,0,26.34,26.34,0,0,0-37.26,0A.84.84,0,0,1,81.61,196Z"/><path d="M138.92,195.85a.44.44,0,0,1-.3-.12,12.77,12.77,0,0,0-18.06,0,.42.42,0,1,1-.59-.59,13.59,13.59,0,0,1,19.24,0,.41.41,0,0,1,0,.59A.4.4,0,0,1,138.92,195.85Z"/><path d="M115.25,190.83a.42.42,0,0,1-.3-.71,20.7,20.7,0,0,1,29.29,0,.42.42,0,0,1-.59.59,19.88,19.88,0,0,0-28.11,0A.42.42,0,0,1,115.25,190.83Z"/><path d="M110.38,186.38a.87.87,0,0,1-.6-.25.85.85,0,0,1,0-1.18,28,28,0,0,1,39.62,0,.83.83,0,0,1-1.18,1.18,26.34,26.34,0,0,0-37.26,0A.83.83,0,0,1,110.38,186.38Z"/><path d="M167.88,205.46a.42.42,0,0,1-.29-.12,12.77,12.77,0,0,0-18.06,0,.42.42,0,0,1-.59,0,.4.4,0,0,1,0-.59,13.59,13.59,0,0,1,19.24,0,.42.42,0,0,1-.3.71Z"/><path d="M144.21,200.44a.41.41,0,0,1-.3-.13.42.42,0,0,1,0-.59,20.73,20.73,0,0,1,29.29,0,.42.42,0,0,1,0,.59.41.41,0,0,1-.59,0,19.88,19.88,0,0,0-28.11,0A.37.37,0,0,1,144.21,200.44Z"/><path d="M139.34,196a.83.83,0,0,1-.59-1.42,28,28,0,0,1,39.62,0,.83.83,0,0,1,0,1.18.85.85,0,0,1-1.18,0,26.34,26.34,0,0,0-37.26,0A.84.84,0,0,1,139.34,196Z"/><path d="M30.25,87.92a9.1,9.1,0,0,0-2.14-5.09l-1.55,2.9-2.35-1.25.94-1.76L23,81.59l1.26-2.36,2.11,1.13.77-1.43,1.91,1a11,11,0,0,1,2,2.68,5.75,5.75,0,0,0,1.71-.81l3.45,1.85a15.69,15.69,0,0,1-2.47.73l4.62,2.47-1.28,2.39L33,87.06a6.46,6.46,0,0,1,.49,2.6Zm-2.82-9.47,1.41-2.63-2.15-1.15L28,72.22l2.15,1.14,1.62-3,6.67,3.56c1.63.83,2,1.66,1.2,3.1L39,78.11l3.11,1.66-1.31,2.46-3.11-1.66-1.4,2.62Zm4.94-.75L31.09,77l-.27.52,1.27.68Zm1.61-3L32.71,74l-.31.58,1.28.68Zm1.64,4.77-1.33-.71-.27.52,1.32.7Zm1.61-3-1.32-.71-.3.58,1.32.7Z"/><path d="M33.23,64.39l9.56-12,2,1.61L35.25,66ZM45,55.51l3,2.41c1.7,1.34,1.77,2,.39,3.77l-4.52,5.65c2.58,2.54,3,4.47,1.45,7.3l-2.49-2c.55-1.28.19-2.07-1.69-3.59l-4.26-3.41Zm1,4.9-1.14-.92-4.2,5.26,1.14.91Z"/><path d="M61.08,52.56c1.24-1.15,1.65-1.86,1.61-2.88A6.3,6.3,0,0,0,61,46.14a6.15,6.15,0,0,0-2.84-2,2.22,2.22,0,0,0-1.94.46A50.66,50.66,0,0,1,60,51.25a6.32,6.32,0,0,1,.84,3.37,3.11,3.11,0,0,1-1,2,4.5,4.5,0,0,1-3.63.83,8.28,8.28,0,0,1-4.15-2.72,8.82,8.82,0,0,1-2.15-4.26c-.45-2.55.55-4.88,3-7,3.63-3.17,7.11-2.91,10.32.77,1.83,2.1,2.7,4.46,2.37,6.41a6.75,6.75,0,0,1-2.57,4L63,54.7ZM52.7,49a6,6,0,0,0,1.66,3.84c1.15,1.33,2.38,1.88,3,1.33.32-.28.35-.75.1-1.37a58.71,58.71,0,0,0-3.65-6.27A3.63,3.63,0,0,0,52.7,49Z"/><path d="M65.44,39.06l1-.57-2.69-4.56,2.52-1.49L67,33.67l3.49-2.06,1.12,1.9-3.49,2.06.7,1.2c1.33-1,1.91-1.41,3.19-2.48l1.14,1.93a71.64,71.64,0,0,1-6.42,5Zm6.94-.84-.15-.9L74.49,36c-.62-.08-.94-.34-1.43-1.14l-2.81-4.76,2.34-1.38.85,1.44L77,27.09l1.23,2.08-3.61,2.9.63,1.07,2.48-1.46a2.09,2.09,0,0,0,1.22-1.81l1.37,2.33c-.17.63-.61,1.08-1.71,1.74L76,35.46a3.82,3.82,0,0,1-1,.5l.15.63,4.73-2.8,2.79,4.72c1,1.65.74,2.29-1.09,3.35l-9.51,5.61-4-6.72Zm6.2-.55-.34-.58L71.59,41l.34.57ZM80,40.08l-.47-.8L72.88,43.2l.48.81Z"/><path d="M84,29.27l-.92-2.5,1.41-.52-1.06-2.91L86,22.4l1.06,2.91,1.25-.45.91,2.5L88,27.81l.35,1,1.6.52-.57-1.57L93,26.42l-.2-.53L89.71,27l-.65-1.81,3.08-1.12L92,23.61l-3.49,1.27L87.8,23l1.27-.46-.95-.95,2.75-1,1,.93L93.33,21l.11-1.34,3-1.08L96.14,20l1.23-.45L98,21.39l-3.51,1.28.17.48L97.86,22l.66,1.8L95.36,25l.19.53,3.8-1.39L100,26l-3.79,1.38a4.06,4.06,0,0,0,1,1.06l2.56-2.08.81,2.22-1.34,1.05a4.81,4.81,0,0,0,2.1.21l1.12,3.08a6.83,6.83,0,0,1-4.78-1.6l.58,1.59c.49,1.1,0,2-1.25,2.54l-2,.74L94.21,34a10.7,10.7,0,0,1-1.89,2.38l-1-2.8a6.45,6.45,0,0,0,1.49-2c-.63,0-.74,0-1.37.12l-.75-2.07a22.23,22.23,0,0,1,2.68-.26l.2.56a9.26,9.26,0,0,0,.28-1.19l-.17-.46-3.54,1.29L91.36,33l-1.9-1.14,2,5.56-2.59.95L87.33,34a4.76,4.76,0,0,1-.79,2.84L85.14,33a12.22,12.22,0,0,0,.19-4.22Zm11.5,4.06L95,32a7,7,0,0,1-.66,1.75Z"/><path d="M107.21,16.85a44.71,44.71,0,0,0,.78,9.47c.07.42.07.42.71,3.6L109,31.7l-2.89.5c-.74-3.42-.94-4.35-1.21-6a58,58,0,0,1-.72-8.88ZM117.55,16l.48,2.81-8.67,1.49-.48-2.82Zm-4.27,7.53a5.15,5.15,0,0,0-.39,2.55A1.48,1.48,0,0,0,114,27.4a3.63,3.63,0,0,0,1.76,0c1.62-.27,2.61-.46,3.81-.74l.48,2.82c-1,.2-3.16.61-4,.76-1.93.33-3,.27-4-.19a3.68,3.68,0,0,1-2-2.62,8.31,8.31,0,0,1,.24-3.32Z"/><path d="M123.49,22.79h5.94L129.28,20l-4.7,0,0-2.74,4.53,0L129,14.36l3.15,0,.17,2.9,5.41,0,0,2.73-5.24,0,.15,2.77h6l0,2.89-5.82,0,.25,4-3.16,0-.24-4h-6.14Z"/><path d="M148.09,15.9,145.9,27.42l1.68.33c4.7.75,6.21-.62,7.58-6.78l3.15.6c-.87,3.66-1.94,5.95-3.44,7.51-2.11,2.06-4.11,2.37-9.12,1.47l-3.41-.64,2.77-14.58Z"/><path d="M162.43,26.1l10.72-.78c1.42-.12,1.8-.37,2.22-1.46l.17-.44,3,1.15-.25.65A3.81,3.81,0,0,1,174.87,28l-3,.3-3.44,9-3-1.17,2.84-7.42-7,.69Z"/><path d="M182.64,30.53l1.28-2.13L188,30.83l1.24-.8,2.71,1.63-1.14.86,4.75,2.84-1.28,2.14-6.06-3.64-1.28.73a4.84,4.84,0,0,1,2.51.58,2.12,2.12,0,0,1,1.1,2,3.64,3.64,0,0,1-.74,1.71l3.64,1.69L192,43,188.4,41.2l-1.15,1.92-2.57-1.54.88-1.49c-1.95-.57-2.7-.53-3.12.18s-.13,1.1,1.39,2,3.59,2,5.62,3.08L188,47.77c-1.09-.62-1.51-.85-2.23-1.28-4.08-2.45-5.13-3.16-5.83-4a3.21,3.21,0,0,1-.69-2.73,3.08,3.08,0,0,1,.4-1.1,3.83,3.83,0,0,1,3.47-1.54,12.1,12.1,0,0,1,3.79.71,2.23,2.23,0,0,0,.4-1,.79.79,0,0,0-.42-.7c-.89-.54-2.22-.51-3.89.11l-2.92-1.75a38.55,38.55,0,0,0,5.28-2.38Z"/><path d="M199.67,42.23l1.86-2.12,2.91,2.56,1.09-1.23,2.26,2-1.08,1.24,2.28,2-1.85,2.1-2.28-2-.6.69c.34.28.63.51.77.64,3,2.66,3.62,5.84,1.54,8.21A4.72,4.72,0,0,1,202.75,58a7.49,7.49,0,0,1-4.28-1.83c-.12-.11-.24-.21-.41-.39l1.93-2.2c1.16,1,1.65,1.24,2.31,1.26a2.38,2.38,0,0,0,1.78-.83,1.9,1.9,0,0,0,.48-1A4.17,4.17,0,0,0,203.07,50a8.45,8.45,0,0,0-.77-.56l-2.74,3.12a5.25,5.25,0,0,1-1.94,1.59,2.3,2.3,0,0,1-2.24-.75c-2.32-2-2.62-4.69-.77-6.8a5.2,5.2,0,0,1,4.3-1.69,8.3,8.3,0,0,1,3,.8l.74-.9Zm.07,5.71a2.34,2.34,0,0,0-1.32-.25,2.77,2.77,0,0,0-1.55.83,1.47,1.47,0,0,0-.06,2c.29.26.52.15,1.07-.47Zm12.06.29a14.1,14.1,0,0,1-1.36,3.55l-2.22-2a24.92,24.92,0,0,0,1.39-3.51Z"/><path d="M227.35,65.2l-3.43,2.69c-.93.64-1.75.43-2.52-.65L220,65.4l-.9.7,2.74,3.5-4.95,3.88c-1.24,1-2.25.8-3.41-.71l-5.55-7.09,6.71-5.27,2.59,3.31.9-.71-2.78-3.55c-.27.23-.56.46-.64.52-2.4,1.88-4,2.77-5.29,3a5.64,5.64,0,0,1-4.1-.8L208.12,60c.93.23,1.64-.08,3.52-1.51l6.47-5.06Zm-14.86,2.19.69-.54-.89-1.14-.69.54Zm2.32-1.81.66-.53-.89-1.13-.66.52Zm.45,5.35.7-.54-.91-1.15-.69.54Zm2.32-1.81.67-.53-.91-1.15-.66.52Zm5.07-4,.88-.7L218,57.36l-.89.69Z"/><path d="M232.48,74a61.7,61.7,0,0,0-8.2,3.27c-.25.13-3.42,2-4.19,2.45a10.21,10.21,0,0,0-1.32.89l-1.42-2.7a42.44,42.44,0,0,1,4.25-2.51,60.75,60.75,0,0,1,9.46-4.1Zm-5.27,3.72,2.54-1.33,1.89,3.52,3.13-1.78,1.58,3-3.07,1.62,1.65,3.07-2.62,1.38-1.68-3.12c-1.49.8-1.61.87-2,1.09-2.23,1.18-3.35,1.39-5,1a6.67,6.67,0,0,1-4.17-3.74c-.12-.22-.21-.39-.36-.73l2.58-1.36a9.69,9.69,0,0,0,1.38,2,2.43,2.43,0,0,0,2.52.61,9.21,9.21,0,0,0,1.93-.75l1.63-.92Z"/><path d="M73.18,208.61l11.76,7.3a3.11,3.11,0,0,0,.91,4.62l-2.23,3.59c-3.53,5.62-7.8,6.54-13.71,2.9l-5.16-3.2,1.89-3,4.64,2.88c4.31,2.67,6.83,2,9.62-2.58l1.53-2.47-11.15-6.92Zm16.39,10.52a2.55,2.55,0,1,1-.8-3.48A2.56,2.56,0,0,1,89.57,219.13Zm-3-1.87a1,1,0,0,0,.31,1.36,1,1,0,0,0,1.37-.32,1,1,0,0,0-.33-1.36A1,1,0,0,0,86.55,217.26Z"/><path d="M109.78,224.65l-3.45,10.86c-1.07,3.71-3.91,5.06-7.82,3.68l-10.89-3.46,5.23-16.46ZM99.23,235.57c2.09.67,3,.17,3.63-2L105,226.9l-9.56-3-3,9.53Z"/><path d="M112.5,239.4l7.49.52c5.17.34,6.55-.78,7-5.68l.37-5.35,3.88.28-.39,5.45c-.24,3.74-1.08,5.77-3.06,7.39-1.82,1.46-3.89,1.84-8.55,1.53l-7-.49ZM122,237c-3.74-1-4.68-1.28-9.09-2.27l.26-3.7,1.58.4c4.39,1.07,4.67,1.15,7.5,2Zm.42-6.06c-4.39-1.2-6.34-1.68-9.09-2.2l.26-3.59c3.08.67,5.45,1.25,9.08,2.24Zm7-5.92-.23,3.24-2-.14.23-3.24Zm.67,0,2,.15-.23,3.25-2-.15Z"/><path d="M143.77,238.88l-1.22-7.41-6.08,1-.55-3.38,16-2.64.56,3.39-6.08,1,1.22,7.41,6.95-1.14.54,3.27-17.85,2.94-.54-3.28Z"/><path d="M158,228.6c2.06-1.39,2.23-3.55.6-7.55L172,215.39l3.35,8c1.18,2.92,1.43,4.65,1,6.54-.62,2.45-2.12,4-5.06,5.33l-8.2,3.45-1.38-3.28,6.88-2.9c4-1.67,4.82-3.5,3.24-7.52l-2-4.66-6.8,2.85c1.1,4,0,6.8-3.63,8.88Z"/><path d="M179.06,209.88l3.39,4.69a90.85,90.85,0,0,1,9.84-3.6l2.35,3.25a87.45,87.45,0,0,0-9.9,3.52l5.58,7.71-3.22,2.33-11.26-15.57Z"/><path d="M113.72,84.21c.28,4.13.46,6.24.55,19.83,2.57-.09,15.15-.55,18.09-.55.09,3.67.27,8,.27,17,0,12.49-.36,21.94-.55,25.89-4,.55-11.93,1-17.9,1.38-.09,3.3-.46,19.36-.46,23H103.9c-.18-3.95-.28-5.24-.28-17.08v-5.51c-2.57.1-15.51.46-18.45.46-.09-5.05-.27-10.55-.27-14.5a5.57,5.57,0,0,1-5.42,3.21A5.8,5.8,0,0,1,74.62,135l.09,7.89c.18,9.27.18,10.37.18,12.85,0,7.25-.27,12.49-.37,15.42H64.34c-.19-10.19-.28-20.28-.28-30.47-6.24,9.73-6.88,10.74-11.47,16.52l-7.72-4.86c13-21.12,14.51-23.6,22.49-38.56A171.77,171.77,0,0,1,49.92,115l-.18-8.72c8.72-1.65,26.16-2.84,33.14-3A184.29,184.29,0,0,1,68.74,133h4.78a5.43,5.43,0,0,1-.37-1.93c0-2.85,2.29-6.34,6-6.34a6.57,6.57,0,0,1,5.7,3.68c0-8.17.09-16.34.18-24.42l9.64-.28c.09,3.86.27,12.76.46,18,2.11-.1,4.22-.28,8.53-.56v-7c-2.11.09-6.05.18-6.51.18L97,105.51c1.65-.28,3.3-.55,6.7-.83.09-13.4.27-16.15.64-20.47ZM74.16,93.3a7.08,7.08,0,0,1-7.07,6.88c-3,0-7.62-2.57-7.62-7.34,0-1.28.64-6.88,7.34-6.88A7.34,7.34,0,0,1,74.16,93.3Zm29.46,37.18c-2.38.09-6.15.27-8.44.36v7.53c.37,0,7.43-.27,8.44-.37Zm18.55-5.42c0-1.93.09-10.28.09-11.93-1.19.09-6.79.37-7.9.46l.1,7.07h5v8.72c-1.28.18-2.66.27-5,.45l-.09,7.72c1,0,7.53-.19,8-.19Z"/><path d="M164.21,108.63c23.32-1.93,25.89-2.2,44.25-2.2.18,3.39.55,9,.55,17.16,0,6.8-.19,10.93-.37,14.6-10.1,1-22.77,1.65-37.73,2.11-2.2.09-12,.18-14,.18-1.66,6.15-6.8,23.5-10.38,31.31l-9.09-2.85c1.66-6.43,8.91-34.61,10.29-40.3.09-.55,5-22.21,5.5-24.14l9.46,1.56c-.64,7.16-2.11,17.26-3.49,24.05,18.45-1.1,20.47-1.28,37.91-1.93v-11.1c-4.86.27-29.1,1.46-32.86,1.37Zm50.3-10.92c-7.16.73-60.77,2.38-63.43,2.47-3.12.1-5.05.1-7.52.1V90.73c4.4-.46,6.6-.64,32.31-1.93,13.12-.55,29.46-.55,38.64-.55Z"/><path class="cls-3" d="M129.7,58.51a5.91,5.91,0,1,1,5.91-5.91A5.92,5.92,0,0,1,129.7,58.51Zm0-7.86a1.95,1.95,0,1,0,1.94,2A2,2,0,0,0,129.7,50.65Z"/><path class="cls-3" d="M129.7,58.24a5.64,5.64,0,1,0-5.65-5.64A5.65,5.65,0,0,0,129.7,58.24Zm0-7.85a2.21,2.21,0,1,1-2.22,2.21A2.21,2.21,0,0,1,129.7,50.39Z"/><path class="cls-3" d="M128.93,82.28a1.41,1.41,0,0,1-1.41-1.41v-.81a15.8,15.8,0,0,1-2.56-.57,17,17,0,0,1-8.36-6,18.17,18.17,0,0,1-2.36-4.23,19.31,19.31,0,0,1-1.19-4.41l-.24-.88,0-.09a.26.26,0,0,1,0-.21.35.35,0,0,1,.19-.12l2.74-.42h0a.23.23,0,0,1,.16.06l3.76,3.06,2.5,2.05a.27.27,0,0,1,.09.28.27.27,0,0,1-.22.19l-2,.3-.3,0a13.81,13.81,0,0,0,1,1.61,11.81,11.81,0,0,0,5.81,4.23,8.94,8.94,0,0,0,.93.24V66.56H123.4a.27.27,0,0,1-.27-.26V62.82a.27.27,0,0,1,.27-.27h4.12V59.33a.25.25,0,0,1,.1-.21.27.27,0,0,1,.16-.06h.07a7.46,7.46,0,0,0,1.83.23,7.57,7.57,0,0,0,1.69-.2l.1,0h.12a.27.27,0,0,1,.17.06.27.27,0,0,1,.1.21v3.21H136a.27.27,0,0,1,.27.27V66.3a.27.27,0,0,1-.27.26h-4.12v8.6a10.4,10.4,0,0,0,1.77-.55,12.25,12.25,0,0,0,5.53-4.72c.15-.24.29-.5.43-.76l0-.06-1.24-.18-1.09-.17a.26.26,0,0,1-.22-.19.27.27,0,0,1,.09-.28l6.25-5.1a.27.27,0,0,1,.17-.06h0l2.52.39.23,0a.25.25,0,0,1,.22.33l-.26,1a19.73,19.73,0,0,1-1.17,4.35l0,.12v0l-.1.24a.22.22,0,0,1-.05.08,18.67,18.67,0,0,1-1.44,2.74A17.36,17.36,0,0,1,135.68,79a15.68,15.68,0,0,1-3.81,1v.81a1.41,1.41,0,0,1-1.41,1.41Z"/><path class="cls-3" d="M146.11,63.75l-2.52-.39-6.25,5.1,1.09.17,1.63.23v0h0l-.18.3c-.16.29-.31.59-.49.86a12.55,12.55,0,0,1-5.65,4.82,10.6,10.6,0,0,1-2.13.62h0V66.3H136V62.82H131.6V59.34l-.15,0a7.85,7.85,0,0,1-1.76.21,7.5,7.5,0,0,1-1.9-.24v3.49H123.4V66.3h4.39v9.18h0l-.13,0a9.47,9.47,0,0,1-1.14-.28,12.12,12.12,0,0,1-5.94-4.33,13.7,13.7,0,0,1-1.23-2h0l.66-.09,2-.29-2.5-2-3.75-3.06-2.75.43,0,.08.24.9a19,19,0,0,0,1.18,4.36,18.21,18.21,0,0,0,2.32,4.17A16.68,16.68,0,0,0,125,79.23a16.26,16.26,0,0,0,2.75.6v1A1.14,1.14,0,0,0,128.93,82h1.53a1.14,1.14,0,0,0,1.14-1.14V79.82a15.35,15.35,0,0,0,4-1,17.05,17.05,0,0,0,7.73-6.54,17.82,17.82,0,0,0,1.45-2.78h0l.1-.24,0-.14a19.86,19.86,0,0,0,1.16-4.32l.26-1Z"/></g></g></svg>