<svg xmlns="http://www.w3.org/2000/svg" width="259.92" height="259.92" viewBox="0 0 259.92 259.92"><defs><style>.cls-1{fill:#fff;}.cls-2{fill:#231f20;}.cls-3{fill:#e85892;}</style></defs><g id="レイヤー_2" data-name="レイヤー 2"><g id="レイヤー_1-2" data-name="レイヤー 1"><circle class="cls-1" cx="129.96" cy="129.96" r="128.74"/><path class="cls-2" d="M130,259.92a130,130,0,1,1,130-130A130.11,130.11,0,0,1,130,259.92ZM130,2.45A127.52,127.52,0,1,0,257.48,130,127.65,127.65,0,0,0,130,2.45Z"/><path class="cls-2" d="M57.28,210.65c-.68-.6-1.34-1.22-2-1.84l.47-.5c.65.63,1.31,1.24,2,1.84Zm-4-3.74c-.65-.64-1.28-1.28-1.91-1.94l.49-.47c.63.65,1.26,1.3,1.9,1.93Zm154.38-1-.49-.48c.63-.64,1.25-1.29,1.87-1.95l.49.46C209,204.64,208.34,205.3,207.71,206ZM49.57,203c-.61-.67-1.21-1.35-1.8-2l.51-.45c.59.68,1.19,1.36,1.79,2Zm161.84-1-.51-.45c.6-.67,1.19-1.36,1.77-2l.52.44C212.6,200.59,212,201.28,211.41,202ZM46,198.87c-.58-.7-1.14-1.41-1.7-2.13l.53-.41c.56.71,1.12,1.41,1.69,2.11Zm168.89-1.08-.53-.42c.56-.71,1.12-1.42,1.66-2.14l.54.41C216,196.37,215.48,197.08,214.91,197.79ZM42.67,194.58c-.53-.73-1.06-1.46-1.58-2.2l.55-.39,1.58,2.19Zm175.53-1.13-.55-.39,1.55-2.22.56.38C219.25,192,218.73,192.72,218.2,193.45ZM39.55,190.12c-.5-.75-1-1.51-1.48-2.28l.58-.37q.72,1.16,1.47,2.28ZM221.27,189l-.57-.37c.49-.75,1-1.52,1.44-2.29l.58.36C222.24,187.42,221.76,188.19,221.27,189ZM36.65,185.51c-.46-.78-.92-1.57-1.36-2.36l.59-.33c.44.79.9,1.57,1.36,2.34Zm187.46-1.21-.59-.33c.45-.79.89-1.57,1.32-2.37l.6.33C225,182.73,224.56,183.52,224.11,184.3ZM34,180.75c-.43-.8-.84-1.61-1.24-2.42l.61-.3c.4.81.81,1.61,1.23,2.41Zm192.72-1.23-.6-.31q.62-1.2,1.2-2.43l.62.3C227.53,177.9,227.13,178.71,226.71,179.52ZM31.57,175.87c-.38-.82-.76-1.65-1.12-2.48l.62-.28c.37.83.74,1.66,1.11,2.47Zm197.51-1.26-.62-.28c.37-.82.73-1.65,1.08-2.48l.63.26C229.82,173,229.45,173.78,229.08,174.61ZM29.4,170.87c-.34-.84-.67-1.68-1-2.54l.64-.23q.48,1.26,1,2.52Zm201.8-1.29-.64-.24c.33-.84.65-1.69,1-2.54l.64.23Q231.7,168.32,231.2,169.58ZM27.48,165.77q-.45-1.28-.87-2.58l.65-.21c.28.86.56,1.72.86,2.57Zm205.58-1.31-.64-.22c.28-.85.56-1.71.83-2.58l.65.2C233.63,162.73,233.35,163.6,233.06,164.46ZM25.81,160.59c-.26-.88-.5-1.75-.74-2.63l.66-.18c.23.88.48,1.74.73,2.61Zm208.86-1.34-.66-.19c.25-.87.48-1.74.7-2.62l.66.17C235.15,157.49,234.91,158.37,234.67,159.25ZM24.4,155.32c-.21-.89-.41-1.77-.61-2.66l.67-.14q.28,1.32.6,2.64ZM236,154l-.66-.15c.2-.88.39-1.77.57-2.65l.66.13Q236.31,152.63,236,154ZM23.26,150c-.17-.9-.33-1.79-.48-2.69l.67-.11c.15.89.3,1.78.47,2.67Zm213.83-1.38-.67-.12c.15-.89.3-1.78.43-2.68l.67.1C237.39,146.81,237.24,147.71,237.09,148.61Zm-214.71-4c-.13-.91-.24-1.81-.34-2.71l.68-.07c.1.89.21,1.79.33,2.68Zm215.51-1.4-.67-.09c.11-.89.21-1.79.3-2.69l.67.06C238.1,141.4,238,142.3,237.89,143.21Zm-216.12-4c-.07-.91-.14-1.82-.19-2.72l.67,0c.06.9.12,1.8.2,2.7Zm216.65-1.42-.67-.05c.06-.9.11-1.8.16-2.71l.67,0C238.54,136,238.49,136.86,238.42,137.77Zm-217-4q0-1.37-.06-2.73h.68c0,.91,0,1.81.06,2.71Zm217.24-1.44H238c0-.77,0-1.54,0-2.31v-.41h.68V130C238.7,130.77,238.7,131.54,238.68,132.31Zm-216.61-4h-.68c0-.91,0-1.82.07-2.73l.68,0C22.11,126.49,22.08,127.39,22.07,128.3ZM238,126.88c0-.9-.06-1.81-.11-2.71l.67,0q.08,1.37.12,2.73Zm-215.69-4-.68,0c.06-.91.13-1.82.22-2.72l.67.06Q22.38,121.52,22.29,122.87Zm215.39-1.4q-.1-1.35-.24-2.7l.67-.07c.1.9.18,1.81.25,2.71Zm-214.9-4-.67-.08c.1-.9.22-1.81.35-2.71l.67.1C23,115.67,22.89,116.57,22.78,117.47Zm214.34-1.39c-.12-.9-.25-1.79-.39-2.68l.67-.11q.21,1.35.39,2.7Zm-213.57-4-.67-.12c.15-.89.31-1.79.49-2.68l.66.13Q23.78,110.76,23.55,112.1Zm212.73-1.38c-.16-.88-.33-1.77-.52-2.65l.67-.14c.18.89.36,1.78.52,2.67Z"/><path d="M110.46,205.88a.44.44,0,0,1-.3-.12,12.78,12.78,0,0,0-18.09,0,.42.42,0,0,1-.59,0,.41.41,0,0,1,0-.59,13.64,13.64,0,0,1,19.28,0,.42.42,0,0,1,0,.59A.44.44,0,0,1,110.46,205.88Z"/><path d="M86.74,200.85a.42.42,0,0,1-.3-.71,20.75,20.75,0,0,1,29.35,0,.42.42,0,1,1-.59.59,19.93,19.93,0,0,0-28.17,0A.42.42,0,0,1,86.74,200.85Z"/><path d="M81.86,196.39a.83.83,0,0,1-.6-.25.85.85,0,0,1,0-1.18A28.09,28.09,0,0,1,121,195a.84.84,0,1,1-1.19,1.18,26.4,26.4,0,0,0-37.33,0A.83.83,0,0,1,81.86,196.39Z"/><path d="M139.29,196.26a.39.39,0,0,1-.3-.13,12.82,12.82,0,0,0-18.1,0,.41.41,0,0,1-.59,0,.42.42,0,0,1,0-.59,13.64,13.64,0,0,1,19.28,0,.42.42,0,0,1,0,.59A.39.39,0,0,1,139.29,196.26Z"/><path d="M115.56,191.23a.43.43,0,0,1-.29-.13.41.41,0,0,1,0-.59,20.74,20.74,0,0,1,29.34,0,.42.42,0,0,1-.59.59,19.92,19.92,0,0,0-28.16,0A.43.43,0,0,1,115.56,191.23Z"/><path d="M110.68,186.76a.84.84,0,0,1-.59-1.43,28.08,28.08,0,0,1,39.7,0,.84.84,0,0,1-1.18,1.19,26.39,26.39,0,0,0-37.34,0A.84.84,0,0,1,110.68,186.76Z"/><path d="M168.31,205.88a.42.42,0,0,1-.3-.12,12.8,12.8,0,0,0-18.1,0,.42.42,0,0,1-.59-.59,13.64,13.64,0,0,1,19.28,0,.41.41,0,0,1,0,.59A.4.4,0,0,1,168.31,205.88Z"/><path d="M144.59,200.85a.42.42,0,0,1-.3-.71,20.75,20.75,0,0,1,29.35,0,.42.42,0,0,1,0,.59.44.44,0,0,1-.6,0,19.92,19.92,0,0,0-28.16,0A.42.42,0,0,1,144.59,200.85Z"/><path d="M139.7,196.39a.84.84,0,0,1-.59-1.43,28.09,28.09,0,0,1,39.71,0,.84.84,0,1,1-1.19,1.18,26.4,26.4,0,0,0-37.33,0A.83.83,0,0,1,139.7,196.39Z"/><path d="M21.16,94.54l-2.87-.26,1.12-3.15,2.82.26,1.61-4.66,2.56.92-1.38,4,4.67.43-1.13,3.17L24,94.74l-2.19,6.42-2.6-.93ZM26,97.83c1.14,1.27,1.39,1.49,2.08,1.74,1.16.41,1.93-.53,3.12-3.88.46-1.28.76-2.33,1.46-5l2.78,1c-.68,2.48-1.15,4-1.76,5.72-.88,2.46-1.61,3.76-2.58,4.59a3.64,3.64,0,0,1-3.6.74,7,7,0,0,1-2.6-1.81Z"/><path d="M26.18,77.91l7.11,4c1.85,1,1.85,1,2.08,1a.65.65,0,0,0,.43-.34,9.57,9.57,0,0,0,.27-3.3l3.13,1.77c-.25,3-.38,3.64-.77,4.34a2.47,2.47,0,0,1-1.81,1.3,4.1,4.1,0,0,1-2.74-.84l-9.24-5.24Zm15.91-.28-5.47-3.1c-1.62-.9-2.29-1.11-2.84-.92a1.56,1.56,0,0,0-.79.73l-.6,1.06-.22.4L29.4,74.23c1.7-2.91,2.17-3.42,3.45-3.89,1.63-.49,2.4-.3,5.37,1.41l5.45,3.09Z"/><path d="M37.41,62.32,36,60.94l2-2.48,1.34,1.44,1.42-1.81,1.16,1,4.42-5.33,2.25,1.87L44,61.21l-1.17-1-1.4,1.69A81.31,81.31,0,0,1,48.22,70l-2,2.45a58,58,0,0,0-6.77-8.16L38,66.14l-2.27-1.88Zm10-1.27a4.37,4.37,0,0,0,1.18,2.06c.78.65,1.53.26,3-1.45.31-.37.93-1.26,1.89-2.66l2.24,1.86c-1.13,1.5-1.66,2.2-2.27,2.93-1.37,1.65-2.31,2.45-3.23,2.76a3.22,3.22,0,0,1-3-.79,5.28,5.28,0,0,1-1.62-2.45Z"/><path d="M51.57,51.32l4.34-3.7-1-1.14L51.28,49.6l-1.71-2,3.66-3.11-1-1.16,2.21-1.88,1,1.16,3.45-2.93,1.7,2L57.14,44.6l1,1.15,4.19-3.56,1.69,2-4.18,3.56,1,1.23c1.77-.73,2.1-.86,2.5-1s.72-.24,2.57-.82l2.18,2.55a22.24,22.24,0,0,0-5.22,1.39,3.22,3.22,0,0,1,.85,2.12A4.37,4.37,0,0,1,62.12,56a5.85,5.85,0,0,1-2.47,1.25,3.12,3.12,0,0,1-3.16-1c-1.27-1.49-.86-3.4,1.11-5.08a8.11,8.11,0,0,1,.78-.57l-.78-.92-4.34,3.7Zm7.11,3.13c.36.42.89.36,1.53-.19a1,1,0,0,0,.2-1.51c-.3-.35-.72-.27-1.3.22S58.32,54,58.68,54.45Z"/><path d="M77,41.25c1.43-.91,2-1.53,2.11-2.54a6.26,6.26,0,0,0-1-3.81,6,6,0,0,0-2.43-2.46,2.19,2.19,0,0,0-2,.09,50.55,50.55,0,0,1,2.53,7.22,6.35,6.35,0,0,1,.19,3.47A3.1,3.1,0,0,1,75,45a4.5,4.5,0,0,1-3.73.14,8.23,8.23,0,0,1-3.58-3.44,8.89,8.89,0,0,1-1.33-4.59c0-2.6,1.46-4.71,4.29-6.37,4.15-2.45,7.53-1.54,10,2.67,1.42,2.41,1.83,4.89,1.14,6.75a6.76,6.76,0,0,1-3.28,3.49l-.13.08ZM69.4,36.13a6.07,6.07,0,0,0,.91,4.1c.9,1.52,2,2.28,2.72,1.86.36-.21.48-.67.34-1.33a57.39,57.39,0,0,0-2.43-6.85A3.65,3.65,0,0,0,69.4,36.13Z"/><path d="M83.33,29l1.06-.39-1.83-5,2.76-1,.49,1.34,3.81-1.4.76,2.07L86.57,26l.48,1.31c1.48-.69,2.14-1,3.59-1.86l.77,2.1a69.27,69.27,0,0,1-7.22,3.75Zm7,.43,0-.91,2.47-.91c-.6-.2-.87-.51-1.2-1.38L89.69,21,92.24,20l.58,1.58,4-2.37.83,2.27-4.08,2.2L94,24.89l2.7-1a2.1,2.1,0,0,0,1.54-1.56l.93,2.54c-.29.6-.8.95-2,1.41l-2.81,1a3.48,3.48,0,0,1-1.09.31l0,.65,5.17-1.9,1.89,5.15c.64,1.8.32,2.39-1.68,3.1L88.34,38.44l-2.7-7.34Zm6.21.57-.23-.63L89,32l.23.63Zm1,2.64-.32-.88-7.26,2.67.32.88Z"/><path d="M103,22.75l-.46-2.62,1.48-.26-.53-3.06,2.72-.47.53,3.06,1.31-.23.45,2.63-1.3.23.17,1,1.49.8-.29-1.66,3.8-.65-.1-.56-3.24.56-.33-1.9,3.24-.56-.09-.5-3.67.63-.33-1.93,1.34-.23L108.38,16l2.89-.5.82,1.1,1.53-.27L114,15l3.12-.54-.51,1.32,1.29-.22.33,1.93-3.69.64.09.5,3.32-.57.33,1.9-3.32.57.1.56,4-.69.34,1.95-4,.69a4.08,4.08,0,0,0,.77,1.21l2.9-1.59.4,2.33-1.51.8a4.8,4.8,0,0,0,2,.58l.57,3.24a6.88,6.88,0,0,1-4.44-2.43l.29,1.67c.29,1.17-.31,2-1.69,2.29l-2.12.36-.38-2.21a11,11,0,0,1-2.29,2l-.51-2.94a6.44,6.44,0,0,0,1.83-1.75c-.62-.07-.73-.09-1.37-.12l-.37-2.18a20.24,20.24,0,0,1,2.69.22l.1.59a12.07,12.07,0,0,0,.49-1.13l-.09-.48-3.72.64.62,3.57-1.68-1.47,1,5.85-2.72.47L105.39,28a4.79,4.79,0,0,1-1.27,2.66l-.7-4a12.28,12.28,0,0,0,.93-4.13Zm10.62,6.06-.24-1.4a6.94,6.94,0,0,1-1,1.6Z"/><path d="M127.59,14.66a44.62,44.62,0,0,0-.9,9.48c0,.42,0,.42.07,3.67l0,1.82-2.93,0c-.14-3.5-.17-4.45-.16-6.09a59.51,59.51,0,0,1,.86-8.88Zm4.8,7.68a5.33,5.33,0,0,0-.83,2.45,1.5,1.5,0,0,0,.86,1.47,3.72,3.72,0,0,0,1.75.26c1.64,0,2.65,0,3.88-.06l0,2.86c-1,0-3.23.05-4.09,0a6.39,6.39,0,0,1-3.92-.89,3.63,3.63,0,0,1-1.46-2.92,8.24,8.24,0,0,1,.81-3.23Zm5.54-6.67,0,2.86-8.81-.06,0-2.86Z"/><path d="M142.16,23.32l5.87,1,.32-2.75-4.65-.78.49-2.69,4.48.75.34-2.92,3.11.57-.33,2.88,5.35.9-.5,2.69-5.17-.88-.33,2.76,5.94,1-.52,2.85-5.75-1-.45,4-3.11-.57.45-4-6.06-1Z"/><path d="M167.13,20.54l-4.06,11,1.6.59c4.53,1.52,6.25.42,8.62-5.45l3,1.11c-1.47,3.47-2.9,5.56-4.64,6.86-2.43,1.69-4.45,1.67-9.26,0l-3.27-1.2,5.14-14Z"/><path d="M179.25,32.78l10.72.95c1.43.11,1.84-.08,2.43-1.08l.24-.42,2.79,1.63-.34.59a3.8,3.8,0,0,1-3.84,2.18l-3-.18-4.84,8.32-2.82-1.64,4-6.89-7.07-.45Z"/><path d="M198.18,40.17l1.6-1.9,3.62,3,1.36-.59,2.41,2-1.26.67L210.16,47l-1.61,1.91-5.41-4.57-1.39.52a4.83,4.83,0,0,1,2.39,1,2.12,2.12,0,0,1,.77,2.15,3.72,3.72,0,0,1-1,1.58l3.32,2.24L205.41,54l-3.24-2.34-1.45,1.72-2.29-1.93,1.11-1.33c-1.84-.88-2.59-1-3.12-.32s-.3,1.07,1.05,2.2,3.23,2.61,5.08,4l-1.81,2.15c-1-.78-1.36-1.07-2-1.62-3.64-3.07-4.57-3.94-5.13-4.87a3.23,3.23,0,0,1-.24-2.81,3,3,0,0,1,.57-1,3.83,3.83,0,0,1,3.67-1,11.91,11.91,0,0,1,3.64,1.31,2.27,2.27,0,0,0,.55-.88.79.79,0,0,0-.31-.76c-.79-.67-2.11-.86-3.86-.51L195,43.74a39.55,39.55,0,0,0,5.6-1.52Z"/><path d="M212.81,54.1,215,52.29l2.49,3,1.26-1.05,1.94,2.32-1.26,1.05,1.94,2.34-2.16,1.79-1.94-2.33-.71.59.68.75c2.59,3.11,2.67,6.35.24,8.37a4.73,4.73,0,0,1-4.05,1.13,7.54,7.54,0,0,1-4-2.48,4.67,4.67,0,0,1-.34-.45l2.25-1.87c1,1.14,1.44,1.48,2.1,1.6a2.41,2.41,0,0,0,1.89-.54,1.86,1.86,0,0,0,.62-.91,4.16,4.16,0,0,0-1-3.26c-.12-.14-.38-.4-.68-.68l-3.2,2.67a5.23,5.23,0,0,1-2.16,1.27,2.31,2.31,0,0,1-2.11-1.09c-2-2.38-1.86-5,.29-6.85a5.23,5.23,0,0,1,4.52-1,8.1,8.1,0,0,1,2.81,1.24l.87-.77ZM212,59.77a2.27,2.27,0,0,0-1.28-.46,2.73,2.73,0,0,0-1.65.58,1.46,1.46,0,0,0-.37,2c.25.3.49.24,1.13-.29Zm11.89,2.15A14.43,14.43,0,0,1,222,65.23L220.1,63A27.22,27.22,0,0,0,222,59.69Z"/><path d="M236.46,80.64l-3.79,2.15c-1,.5-1.8.17-2.41-1l-1.15-2-1,.57,2.19,3.87-5.48,3.11c-1.38.8-2.35.46-3.27-1.21l-4.45-7.85L224.54,74l2.07,3.66,1-.57-2.23-3.93c-.3.19-.62.37-.72.42-2.65,1.51-4.34,2.16-5.69,2.21a5.57,5.57,0,0,1-3.94-1.4l3.15-1.78c.9.36,1.64.16,3.72-1l7.16-4.06Zm-15.05,0,.77-.43-.71-1.26-.77.43Zm2.23,3.92.76-.43-.72-1.28-.77.44Zm.34-5.37.74-.42L224,77.47l-.73.42Zm2.22,3.92.74-.42-.72-1.28-.74.42Zm5.61-3.18,1-.56-4.45-7.85-1,.55Z"/><path d="M240.05,89.67a62.15,62.15,0,0,0-8.59,2.07c-.27.09-3.68,1.47-4.51,1.82a10.32,10.32,0,0,0-1.44.69l-1-2.88a43.89,43.89,0,0,1,4.58-1.88,61.65,61.65,0,0,1,10-2.7Zm-5.76,2.94,2.72-1,1.37,3.77,3.35-1.32,1.14,3.21-3.28,1.16,1.2,3.29-2.8,1-1.22-3.33-2.19.79c-2.38.85-3.52.9-5.06.24a6.69,6.69,0,0,1-3.61-4.31c-.08-.23-.14-.41-.25-.77l2.76-1a9.13,9.13,0,0,0,1.08,2.21,2.44,2.44,0,0,0,2.4,1,9.4,9.4,0,0,0,2-.48l1.75-.67Z"/><path d="M74.38,209l11.79,7.3a3.11,3.11,0,0,0,.91,4.63l-2.23,3.61c-3.54,5.63-7.82,6.55-13.74,2.91l-5.18-3.2,1.89-3,4.66,2.88c4.32,2.68,6.84,2,9.63-2.59l1.54-2.48-11.18-6.92Zm16.43,10.54a2.56,2.56,0,1,1-.8-3.49A2.57,2.57,0,0,1,90.81,219.58Zm-3-1.88a1,1,0,0,0,.31,1.36,1,1,0,0,0,1.37-.32,1,1,0,0,0-.33-1.36A1,1,0,0,0,87.78,217.7Z"/><path d="M111.08,225.12,107.63,236c-1.06,3.73-3.91,5.08-7.83,3.7l-10.92-3.46,5.23-16.49Zm-10.56,10.95c2.09.66,3,.16,3.64-2.06l2.1-6.64-9.57-3-3,9.55Z"/><path d="M113.82,239.9l7.5.52c5.19.35,6.57-.78,7-5.69l.38-5.36,3.88.27-.38,5.47c-.24,3.75-1.08,5.78-3.07,7.41-1.82,1.46-3.9,1.84-8.56,1.53l-7-.49Zm9.54-2.36c-3.74-1-4.69-1.29-9.11-2.27l.26-3.71,1.59.39c4.39,1.07,4.67,1.16,7.51,2Zm.42-6.07c-4.4-1.21-6.35-1.69-9.1-2.21l.25-3.6c3.09.67,5.47,1.25,9.1,2.25Zm7-5.94-.23,3.25-2-.14.23-3.25Zm.67,0,2,.15-.23,3.25-2-.14Z"/><path d="M145.12,239.37l-1.22-7.43-6.1,1-.55-3.39,16.07-2.65.55,3.39-6.09,1,1.22,7.42,7-1.15.54,3.28-17.9,2.95-.54-3.28Z"/><path d="M159.35,229.07c2.05-1.39,2.23-3.56.59-7.56l13.49-5.68,3.36,8c1.18,2.92,1.44,4.65,1,6.55-.61,2.46-2.12,4-5.06,5.34l-8.22,3.46-1.38-3.29L170,233c4-1.67,4.82-3.51,3.25-7.54l-2-4.67-6.81,2.87c1.1,4,0,6.8-3.64,8.89Z"/><path d="M180.48,210.31l3.4,4.7a89.22,89.22,0,0,1,9.86-3.61l2.36,3.26a87.22,87.22,0,0,0-9.92,3.53l5.58,7.73-3.22,2.33-11.28-15.61Z"/><path d="M62.19,97.34c.79,2.16,2.33,7.28,3.43,10.88,8.82-1.58,11-1.87,15.5-2.52l1.28,8.72c-3.49,1-5.51,1.51-14.15,3.31,2.76,10.53,3.25,12.33,4.29,17.81-5.64,1.44-20.83,6.91-20.83,13,0,3.31,5.09,3.31,6.86,3.31,3.68,0,5.76-.29,16.54-2.52l1.78,8.5a49.65,49.65,0,0,1-19,4.26c-5.88,0-8.95-1.23-11.15-2.53a11.45,11.45,0,0,1-5.58-9.87c0-12.54,13.54-18.38,20.53-21.4-.37-1.16-2-6.42-2.33-7.5a11.59,11.59,0,0,0-.37-1.22c-1.1.21-6.13,1.15-7.1,1.29-7.6,1.37-11.22,1.88-14.59,2.38L36,114.71a118.85,118.85,0,0,1,11.88-2.88c1.35-.29,7.35-1.59,8.58-1.81-.74-2.88-1.47-5.83-2.15-8.72L53.92,100Z"/><path d="M92.28,103.39c0,3.82.31,16.94.86,23.35.55,7.21,2.27,16.22,2.94,19.82a101.94,101.94,0,0,1,9.32-5.26l3.12,8.07A206.61,206.61,0,0,1,91,161.48a128.14,128.14,0,0,1-7-43.17c0-7.71.12-11.46.43-14.92Zm35.23,8.08c.92,3.31,3.92,16.72,3.92,27.45a120.23,120.23,0,0,1-.73,13.19,17.59,17.59,0,0,1-.55,2.88l-7.6-.64c-.06-16-.12-16.94-.86-24.72-.12-.8-1.41-12.11-2.14-15.79Z"/><path d="M154.42,99.14c-.49,2.74-.67,3.68-2.45,12,9.13-.72,10.17-.8,12.81-.87l.79,8.94a157.08,157.08,0,0,1-16,2.3c-2.94,12.62-5.21,22.27-10.66,40.65l-7.72-2.67c.61-3.17,7.35-33,8.46-37-2.15.22-7.54.79-9.25.94l-.62-9.3a114.44,114.44,0,0,1,12.56-1.87c1.35-4.9,1.78-6.78,4.41-15.28ZM161,142.89a18,18,0,0,0-1.1,5.19,2.36,2.36,0,0,0,1.77,2.52,11.43,11.43,0,0,0,4.35.72c4.53,0,10.6-1.66,12.62-2.31l2.08,8.79a42.85,42.85,0,0,1-16,3.61c-2.2,0-14.21,0-14.21-11,0-3.89,2.14-8.64,2.94-9.94Zm17.58-9.16a208.58,208.58,0,0,1-27,2.45l-.18-8.57a222.75,222.75,0,0,1,27.2-2.6Z"/><path d="M180.5,122.85c4.6-.5,6.13-.58,20-1.44,0-.22-.06-2.67-.06-4-10.11.58-15.74.73-22.54.73v-8.58c13.66-1.37,16.6-1.66,22.18-1.87-.19-4.62-.37-7.07-.56-9.81l7.85-1.15a75.36,75.36,0,0,1,1.28,10.6c5.7-.29,8.7-.36,13.73-.36V116c-2.7.28-4.17.43-12.32.86a4.1,4.1,0,0,0-.79.07c.06.79.12,1.52.18,4,4-.22,8.27-.36,12.31-.36v9c-2.81.28-4.41.43-11.39.86a4.72,4.72,0,0,0-.86.07c-.18,4.47-.31,6.42-.55,8.79a50.4,50.4,0,0,1,17.28,10.89l-5,7.49A60.8,60.8,0,0,0,207,150a20.22,20.22,0,0,1-3,6.56,13.76,13.76,0,0,1-11.34,6c-6.68,0-10.35-4.9-10.35-10.3,0-8.58,7.1-14.85,17.95-14.63.12-1.81.18-4.11.24-6.49-11.33.58-12.68.65-20,.65Zm11.21,28.68c0,.87.86,1.23,1.6,1.23a4.89,4.89,0,0,0,3.24-1.44,7.27,7.27,0,0,0,1.78-3.1C194.78,148.22,191.71,149.37,191.71,151.53Z"/><path class="cls-3" d="M135.54,55.24a9.27,9.27,0,0,0-2.7-6.55.67.67,0,0,0-1.06.26c-.34.58-1.29,2-1.29,2a.62.62,0,0,1-.53.29.64.64,0,0,1-.53-.29s-.94-1.47-1.28-2a.68.68,0,0,0-1.07-.26A9.33,9.33,0,0,0,130,63.78,9.31,9.31,0,0,0,135.54,55.24Z"/><path class="cls-3" d="M126.11,66.58a9.32,9.32,0,0,0-13.46-7.4.67.67,0,0,0-.09,1.09c.45.5,1.56,1.85,1.56,1.85a.62.62,0,0,1,.11.6.61.61,0,0,1-.44.41s-1.69.45-2.35.59a.68.68,0,0,0-.57.93,9.31,9.31,0,0,0,15.24,1.93Z"/><path class="cls-3" d="M118.05,74.74a9.29,9.29,0,0,0-1.67,6.89.68.68,0,0,0,1,.41c.62-.27,2.25-.9,2.25-.9a.62.62,0,0,1,.86.62s-.1,1.74-.17,2.42A.68.68,0,0,0,121,85a9.32,9.32,0,0,0,6.54-13.9A9.32,9.32,0,0,0,118.05,74.74Z"/><path class="cls-3" d="M132.34,71.11A9.32,9.32,0,0,0,138.88,85a.68.68,0,0,0,.71-.83c-.06-.68-.16-2.42-.16-2.42a.63.63,0,0,1,.25-.55.66.66,0,0,1,.61-.07s1.62.63,2.24.9a.69.69,0,0,0,1-.41,9.33,9.33,0,0,0-11.21-10.52Z"/><path class="cls-3" d="M148.49,63.72c-.67-.14-2.35-.59-2.35-.59a.64.64,0,0,1-.45-.41.66.66,0,0,1,.12-.6s1.1-1.35,1.55-1.85a.69.69,0,0,0-.08-1.1,9.34,9.34,0,0,0-13.47,7.41,9.33,9.33,0,0,0,15.25-1.93A.68.68,0,0,0,148.49,63.72Z"/></g></g></svg>