<svg xmlns="http://www.w3.org/2000/svg" width="259.39" height="259.39" viewBox="0 0 259.39 259.39"><defs><style>.cls-1{fill:#fff;}.cls-2{fill:#231f20;}.cls-3{fill:#7ba362;}</style></defs><g id="レイヤー_2" data-name="レイヤー 2"><g id="レイヤー_1-2" data-name="レイヤー 1"><circle class="cls-1" cx="129.69" cy="129.69" r="128.47"/><path class="cls-2" d="M129.69,259.39C58.18,259.39,0,201.21,0,129.69A129.84,129.84,0,0,1,129.69,0c71.52,0,129.7,58.18,129.7,129.69A129.84,129.84,0,0,1,129.69,259.39Zm0-256.95A127.26,127.26,0,1,0,257,129.69,127.4,127.4,0,0,0,129.69,2.44Z"/><path class="cls-2" d="M57.4,210.22c-.67-.61-1.34-1.22-2-1.84l.47-.49,2,1.83Zm-3.94-3.73c-.65-.64-1.28-1.29-1.9-1.94l.49-.47c.62.65,1.25,1.29,1.88,1.93Zm154-1-.48-.47c.63-.64,1.25-1.3,1.86-2l.5.46C208.77,204.22,208.15,204.88,207.51,205.52Zm-157.8-3c-.61-.67-1.21-1.34-1.8-2l.51-.44c.59.68,1.18,1.35,1.79,2Zm161.5-1-.51-.45c.6-.68,1.19-1.36,1.76-2l.52.44C212.4,200.18,211.81,200.87,211.21,201.55Zm-165-3.09c-.57-.7-1.14-1.41-1.7-2.12l.54-.42c.55.71,1.11,1.41,1.68,2.11Zm168.54-1.08-.53-.42c.57-.7,1.12-1.41,1.66-2.13l.54.41C215.83,196,215.27,196.68,214.7,197.38Zm-171.87-3.2c-.54-.73-1.07-1.46-1.59-2.2l.56-.39c.51.74,1,1.46,1.57,2.18ZM218,193.05l-.55-.39c.52-.73,1-1.47,1.54-2.21l.56.38C219,191.58,218.51,192.32,218,193.05ZM39.71,189.73c-.5-.75-1-1.51-1.48-2.28l.57-.36c.49.76,1,1.52,1.47,2.27ZM221,188.56l-.56-.37c.49-.75,1-1.51,1.43-2.28l.58.35C222,187,221.54,187.8,221,188.56ZM36.81,185.13c-.46-.78-.91-1.57-1.36-2.36l.6-.33q.66,1.19,1.35,2.34Zm187.07-1.21-.59-.34c.46-.78.9-1.56,1.33-2.35l.59.32C224.78,182.35,224.33,183.14,223.88,183.92ZM34.16,180.38c-.43-.8-.84-1.61-1.24-2.42l.61-.3c.4.81.81,1.61,1.23,2.41Zm192.32-1.23-.6-.31c.41-.8.81-1.61,1.2-2.42l.61.29C227.3,177.53,226.9,178.34,226.48,179.15ZM31.74,175.51c-.38-.82-.75-1.65-1.11-2.48l.62-.27q.54,1.25,1.11,2.46Zm197.1-1.26-.62-.28c.37-.82.74-1.65,1.09-2.48l.62.26C229.58,172.59,229.22,173.42,228.84,174.25ZM29.57,170.52c-.34-.84-.67-1.68-1-2.53l.64-.24c.32.84.64,1.68,1,2.52ZM231,169.23l-.63-.24c.32-.84.64-1.69.95-2.53l.64.23C231.61,167.54,231.29,168.39,231,169.23Zm-203.3-3.8q-.45-1.27-.87-2.58l.65-.2c.27.86.56,1.71.86,2.56Zm205.16-1.31-.65-.22c.29-.85.57-1.71.83-2.57l.65.2C233.38,162.4,233.1,163.26,232.82,164.12ZM26,160.25c-.25-.87-.5-1.74-.73-2.62l.65-.17c.24.87.48,1.74.73,2.6Zm208.43-1.33-.65-.19c.24-.86.47-1.73.7-2.61l.65.17C234.9,157.17,234.67,158,234.42,158.92ZM24.59,155c-.22-.89-.42-1.77-.61-2.65l.66-.15c.19.88.39,1.76.61,2.64Zm211.17-1.36-.66-.15c.2-.88.39-1.76.57-2.65l.66.14C236.15,151.87,236,152.75,235.76,153.64Zm-212.32-4c-.16-.9-.32-1.79-.47-2.68l.67-.11c.15.89.3,1.77.47,2.66Zm213.39-1.38-.66-.12c.15-.89.3-1.78.43-2.67l.67.1C237.14,146.51,237,147.41,236.83,148.3Zm-214.26-4c-.12-.9-.24-1.8-.34-2.7l.68-.08c.1.9.21,1.79.33,2.69Zm215.07-1.4-.68-.08c.12-.9.21-1.79.3-2.69l.68.06C237.85,141.11,237.75,142,237.64,142.91ZM22,138.9c-.07-.9-.14-1.81-.19-2.71l.67,0c.06.89.12,1.79.2,2.69Zm216.21-1.41-.68-.05c.07-.9.12-1.8.16-2.71l.68,0C238.29,135.67,238.23,136.58,238.17,137.49Zm-216.53-4c0-.91-.06-1.81-.07-2.72h.68c0,.9,0,1.8.06,2.71ZM238.42,132h-.67c0-.77,0-1.54,0-2.31v-.4h.68v.42Q238.45,130.89,238.42,132ZM22.26,128h-.68c0-.91,0-1.82.08-2.73l.67,0C22.3,126.23,22.27,127.13,22.26,128Zm215.47-1.43q0-1.35-.12-2.7l.68,0c.05.9.09,1.81.11,2.71Zm-215.25-4-.68,0c.06-.91.13-1.82.21-2.72l.68.06Q22.57,121.27,22.48,122.62Zm215-1.41c-.07-.89-.15-1.79-.25-2.69l.68-.07c.09.91.18,1.81.25,2.71ZM23,117.23l-.67-.08c.1-.9.22-1.81.35-2.7l.67.09C23.19,115.44,23.08,116.33,23,117.23Zm213.89-1.39c-.11-.89-.24-1.79-.38-2.68l.67-.1c.14.9.27,1.79.39,2.69Zm-213.12-4-.67-.12c.15-.89.31-1.78.48-2.68l.67.13Q24,110.54,23.74,111.87ZM236,110.5c-.16-.89-.33-1.77-.52-2.66l.66-.13c.19.88.36,1.77.53,2.67Zm-211.26-4-.66-.14c.2-.89.4-1.77.62-2.65l.66.16C25.17,104.79,25,105.67,24.77,106.55Zm210.16-1.35c-.21-.87-.43-1.75-.65-2.62l.65-.17q.34,1.32.66,2.64ZM26.07,101.3l-.65-.18q.36-1.31.75-2.61l.65.19C26.56,99.57,26.31,100.43,26.07,101.3ZM233.56,100c-.25-.86-.51-1.73-.78-2.59-.13-.42-.27-.85-.41-1.27l.65-.21c.14.42.27.85.41,1.28.27.87.53,1.73.78,2.6ZM27.63,96.12,27,95.91c.28-.86.57-1.72.88-2.58l.64.23C28.2,94.41,27.91,95.26,27.63,96.12Z"/><path d="M110.47,205.46a.42.42,0,0,1-.3-.12,12.77,12.77,0,0,0-18.06,0,.42.42,0,1,1-.59-.59,13.59,13.59,0,0,1,19.24,0,.4.4,0,0,1,0,.59A.4.4,0,0,1,110.47,205.46Z"/><path d="M86.79,200.44a.39.39,0,0,1-.29-.13.42.42,0,0,1,0-.59,20.73,20.73,0,0,1,29.29,0,.42.42,0,0,1,0,.59.4.4,0,0,1-.59,0,19.88,19.88,0,0,0-28.11,0A.39.39,0,0,1,86.79,200.44Z"/><path d="M81.92,196a.86.86,0,0,1-.59-.24.85.85,0,0,1,0-1.18,28,28,0,0,1,39.62,0,.83.83,0,0,1,0,1.18.85.85,0,0,1-1.18,0,26.34,26.34,0,0,0-37.26,0A.82.82,0,0,1,81.92,196Z"/><path d="M139.23,195.85a.42.42,0,0,1-.29-.12,12.77,12.77,0,0,0-18.06,0,.42.42,0,0,1-.59,0,.41.41,0,0,1,0-.59,13.59,13.59,0,0,1,19.24,0,.42.42,0,0,1-.3.71Z"/><path d="M115.56,190.83a.4.4,0,0,1-.29-.12.4.4,0,0,1,0-.59,20.69,20.69,0,0,1,29.28,0,.42.42,0,0,1-.59.59,19.87,19.87,0,0,0-28.1,0A.44.44,0,0,1,115.56,190.83Z"/><path d="M110.69,186.38a.84.84,0,0,1-.59-1.43,28,28,0,0,1,39.62,0,.85.85,0,0,1,0,1.18.83.83,0,0,1-1.18,0,26.36,26.36,0,0,0-37.26,0A.85.85,0,0,1,110.69,186.38Z"/><path d="M168.2,205.46a.42.42,0,0,1-.3-.12,12.77,12.77,0,0,0-18.06,0,.42.42,0,0,1-.59-.59,13.59,13.59,0,0,1,19.24,0,.4.4,0,0,1,0,.59A.42.42,0,0,1,168.2,205.46Z"/><path d="M144.52,200.44a.39.39,0,0,1-.29-.13.4.4,0,0,1,0-.59,20.71,20.71,0,0,1,29.28,0,.42.42,0,0,1-.59.59,19.87,19.87,0,0,0-28.1,0A.39.39,0,0,1,144.52,200.44Z"/><path d="M139.65,196a.84.84,0,0,1-.59-.24.83.83,0,0,1,0-1.18,28,28,0,0,1,39.62,0,.83.83,0,0,1,0,1.18.85.85,0,0,1-1.18,0,26.34,26.34,0,0,0-37.26,0A.82.82,0,0,1,139.65,196Z"/><path d="M27.07,86.12,24.88,85l1.21-2.27L23.4,81.25l1.36-2.55,2.69,1.43,1.11-2.08,2.19,1.17L29.64,81.3l.39.21,3.32-.9,3.51,1.87-3.54.79,5.43,2.9-1.36,2.55L32.8,86.27a11.15,11.15,0,0,1,1.82,4.08l-3.69-2a10.5,10.5,0,0,0-2.81-4.24Zm.74-12.88,11.43,6.1.8-1.5c.78-1.5.84-2.06.39-3l2.68,1.43c.29.65.18,1.27-.5,2.55l-1,1.81c-1.13,2.16-1.88,2.37-4,1.2l-11.2-6Z"/><path d="M36.41,64l-2-1.62,1.44-1.79,2,1.63,1.63-2,4.46,3.59.41-.51-1.46-.63,1.41-1.76,1.45.64.22-.27-1.52-1.23-1.63,2-4.76-3.83,5-6.16,3.47,2.79c1,.75,1.05,1.25.4,2.15l-.83,1,1.52,1.23.12-.16-.78-1.38,1.47-1.84.76,1.43.43-.54,1.83,1.47-1,1.29,2.21,1.78.22-.28a2.06,2.06,0,0,0,.06-1.73l2.23,1.78a2.06,2.06,0,0,1-.54,1.6l-.73.91a1.4,1.4,0,0,1-2.18.29l-2.89-2.33-.58.71c1.39,1.32,1.77,1.9,2.05,3a5.37,5.37,0,0,1-.79,4l-2-1.61a2.62,2.62,0,0,0-.83-3.49l-.83,1c1,.92,1,1.45,0,2.67l-.23.29L43.9,66.9l.23-.28-4.21-3.39-.33.41,8.62,6.93-1.44,1.79-8.62-6.94-.37.47,5.85,4.7-1.2,1.49L34.84,66Zm6.79-8.44-.51-.41L41,57.28l.51.41ZM45,57l-.59-.48-1.68,2.09.59.48Z"/><path d="M61.92,51.85C63.18,50.71,63.59,50,63.56,49a6.32,6.32,0,0,0-1.7-3.56,6,6,0,0,0-2.82-2,2.22,2.22,0,0,0-1.95.44,50.63,50.63,0,0,1,3.75,6.66,6.33,6.33,0,0,1,.8,3.37,3.1,3.1,0,0,1-1,2,4.45,4.45,0,0,1-3.64.79,8.16,8.16,0,0,1-4.12-2.76,8.94,8.94,0,0,1-2.11-4.27c-.42-2.56.61-4.89,3.1-7,3.66-3.13,7.14-2.83,10.31.88C66,45.59,66.86,48,66.5,49.91a6.77,6.77,0,0,1-2.61,4l-.12.11Zm-8.34-3.7A6,6,0,0,0,55.2,52c1.14,1.34,2.36,1.9,3,1.36.32-.27.36-.75.11-1.37a57.56,57.56,0,0,0-3.59-6.3A3.65,3.65,0,0,0,53.58,48.15Z"/><path d="M66.4,38.42l1-.56-2.64-4.58,2.53-1.47L68,33.05l3.51-2,1.1,1.91-3.51,2,.7,1.21c1.33-.94,1.92-1.4,3.2-2.45l1.12,1.94a71.92,71.92,0,0,1-6.46,4.91Zm6.94-.77-.14-.9,2.28-1.31c-.62-.09-.94-.36-1.42-1.16l-2.77-4.79,2.35-1.36.84,1.45,3.55-3,1.21,2.09L75.6,31.52l.63,1.08,2.48-1.43A2.14,2.14,0,0,0,80,29.37l1.34,2.34c-.18.63-.62,1.07-1.72,1.73L77,34.93a3.62,3.62,0,0,1-1,.48l.14.63,4.76-2.74L83.62,38c.93,1.66.71,2.3-1.13,3.34L72.94,46.9,69,40.13Zm6.21-.49-.34-.58-6.68,3.86.33.58ZM81,39.58l-.47-.8-6.69,3.86.47.8Z"/><path d="M85.08,28.81l-.89-2.51,1.42-.5-1-2.93,2.6-.91,1,2.92,1.25-.44L90.33,27l-1.25.44.35,1,1.59.54-.55-1.57,3.62-1.28-.19-.54-3.09,1.1-.64-1.82,3.09-1.09-.17-.48-3.51,1.24-.65-1.85,1.28-.45-.93-1,2.76-1,1,.94,1.46-.51.13-1.34,3-1-.27,1.39,1.23-.44.65,1.85-3.52,1.24.17.48L99,21.68l.64,1.82-3.17,1.12.18.53,3.81-1.35.65,1.87L97.32,27a4,4,0,0,0,1,1.06L100.86,26l.78,2.23-1.35,1a5,5,0,0,0,2.1.23l1.09,3.09A6.83,6.83,0,0,1,98.72,31l.56,1.6c.48,1.1,0,2-1.28,2.52l-2,.72-.75-2.11a10.82,10.82,0,0,1-1.91,2.36l-1-2.81a6.39,6.39,0,0,0,1.5-2c-.62,0-.73,0-1.36.11l-.73-2.08A23.67,23.67,0,0,1,94.42,29l.2.57a11.41,11.41,0,0,0,.29-1.19l-.16-.46-3.56,1.25,1.2,3.41L90.5,31.41l2,5.59-2.59.91-1.53-4.33a4.8,4.8,0,0,1-.81,2.82l-1.36-3.85a12.44,12.44,0,0,0,.23-4.21ZM96.53,33l-.47-1.33a7.22,7.22,0,0,1-.67,1.73Z"/><path d="M108.39,16.63a44.23,44.23,0,0,0,.69,9.48c.06.42.06.42.67,3.61l.32,1.78-2.89.47c-.71-3.42-.89-4.36-1.16-6a58.16,58.16,0,0,1-.62-8.88Zm10.35-.71.45,2.81-8.68,1.4-.46-2.82Zm-4.35,7.48A5.11,5.11,0,0,0,114,26a1.46,1.46,0,0,0,1.08,1.3,3.73,3.73,0,0,0,1.77,0c1.61-.26,2.6-.44,3.81-.7l.45,2.82c-1,.19-3.17.58-4,.71-1.93.32-3,.25-4-.23a3.65,3.65,0,0,1-1.93-2.63,8.34,8.34,0,0,1,.28-3.31Z"/><path d="M124.6,22.74l5.94,0L130.42,20l-4.7,0,0-2.73,4.53,0-.13-2.93,3.15.06.13,2.9,5.42,0-.06,2.73-5.23,0,.12,2.77,6,.05-.06,2.89-5.82-.05.2,4-3.15-.07-.2-4-6.13-.06Z"/><path d="M149.28,16.09,147,27.6l1.68.34c4.69.8,6.22-.55,7.66-6.69l3.14.63c-.91,3.64-2,5.92-3.52,7.47-2.13,2-4.13,2.33-9.14,1.38l-3.4-.69,2.93-14.55Z"/><path d="M163.55,26.45l10.72-.68c1.42-.1,1.8-.34,2.23-1.43l.18-.44,3,1.18-.26.64A3.81,3.81,0,0,1,176,28.45l-3,.27-3.53,8.94-3-1.19,2.92-7.4-7,.61Z"/><path d="M183.71,31.09,185,29l4,2.47,1.24-.78L193,32.3l-1.14.85L196.54,36l-1.3,2.12-6-3.69-1.29.72a4.88,4.88,0,0,1,2.5.6,2.15,2.15,0,0,1,1.09,2,3.88,3.88,0,0,1-.76,1.71l3.62,1.72-1.48,2.4-3.55-1.82-1.17,1.9-2.55-1.56.9-1.47c-1.95-.6-2.7-.56-3.13.15s-.13,1.09,1.37,2,3.58,2.09,5.6,3.14l-1.47,2.39c-1.08-.62-1.5-.86-2.22-1.3-4.05-2.49-5.1-3.21-5.79-4a3.19,3.19,0,0,1-.65-2.74,2.86,2.86,0,0,1,.4-1.09,3.83,3.83,0,0,1,3.48-1.51,12,12,0,0,1,3.78.75,2.23,2.23,0,0,0,.42-.95.81.81,0,0,0-.42-.7c-.88-.55-2.21-.54-3.89.07l-2.9-1.78a38.54,38.54,0,0,0,5.3-2.33Z"/><path d="M200.61,43l1.89-2.09,2.88,2.59,1.1-1.22,2.24,2-1.1,1.22,2.26,2L208,49.58l-2.26-2-.61.69c.34.28.63.51.77.64,3,2.7,3.55,5.89,1.44,8.23a4.72,4.72,0,0,1-3.84,1.7,7.47,7.47,0,0,1-4.25-1.88l-.41-.39,2-2.18c1.15,1,1.64,1.26,2.31,1.29a2.43,2.43,0,0,0,1.79-.81,1.9,1.9,0,0,0,.48-1,4.19,4.19,0,0,0-1.45-3.08c-.13-.11-.43-.34-.77-.57l-2.78,3.1a5.14,5.14,0,0,1-1.95,1.56,2.29,2.29,0,0,1-2.23-.78c-2.3-2.06-2.57-4.71-.7-6.8a5.23,5.23,0,0,1,4.32-1.64,8,8,0,0,1,3,.83l.75-.89Zm0,5.72a2.21,2.21,0,0,0-1.32-.27,2.87,2.87,0,0,0-1.56.81,1.49,1.49,0,0,0-.08,2c.29.25.52.15,1.08-.46Zm12,.42a14.23,14.23,0,0,1-1.39,3.53l-2.2-2a24.33,24.33,0,0,0,1.43-3.5Z"/><path d="M228,66.2l-3.46,2.65c-.93.63-1.75.41-2.51-.67l-1.43-1.86-.91.7,2.71,3.52-5,3.83c-1.25,1-2.25.77-3.4-.75l-5.48-7.14,6.77-5.19,2.55,3.32.91-.69L216,60.34c-.27.23-.56.45-.64.52-2.42,1.85-4,2.72-5.32,3A5.64,5.64,0,0,1,206,63l2.87-2.2c.93.23,1.64-.06,3.53-1.47l6.52-5Zm-14.88,2,.7-.54L213,66.56l-.7.53Zm2.34-1.79.67-.52-.88-1.14-.67.51Zm.4,5.35.7-.53-.89-1.16-.7.53ZM218.22,70l.67-.51L218,68.34l-.67.51Zm5.11-3.91.89-.69-5.48-7.14-.9.68Z"/><path d="M233.07,75.07a62.77,62.77,0,0,0-8.23,3.19c-.25.13-3.44,1.95-4.21,2.41a9.87,9.87,0,0,0-1.34.88l-1.39-2.72a45.43,45.43,0,0,1,4.28-2.47,61,61,0,0,1,9.5-4Zm-5.31,3.68,2.56-1.32L232.18,81l3.14-1.75,1.55,3-3.08,1.59,1.62,3.09-2.63,1.35-1.65-3.14-2.07,1.08c-2.24,1.15-3.36,1.35-5,.91a6.67,6.67,0,0,1-4.14-3.78c-.11-.22-.2-.39-.35-.73l2.6-1.33a9.36,9.36,0,0,0,1.36,2,2.42,2.42,0,0,0,2.51.64,9.21,9.21,0,0,0,1.94-.74c.22-.11.22-.11,1.64-.9Z"/><path d="M74.47,208.61l11.75,7.29a3.1,3.1,0,0,0,.92,4.62l-2.23,3.6c-3.54,5.61-7.81,6.54-13.72,2.9L66,223.82l1.89-3,4.64,2.88c4.31,2.67,6.83,2,9.62-2.59l1.53-2.47-11.15-6.91Zm16.39,10.52a2.56,2.56,0,1,1-.8-3.48A2.57,2.57,0,0,1,90.86,219.13Zm-3-1.87a1,1,0,0,0,.31,1.36,1,1,0,0,0,1.37-.32,1,1,0,0,0-.33-1.36A1,1,0,0,0,87.83,217.26Z"/><path d="M111.06,224.65l-3.45,10.85c-1.07,3.72-3.91,5.07-7.82,3.69L88.9,235.73l5.23-16.46Zm-10.55,10.92c2.09.66,3,.17,3.64-2.06l2.1-6.61-9.55-3-3,9.53Z"/><path d="M113.78,239.39l7.49.53c5.17.34,6.56-.78,7-5.69l.37-5.34,3.88.27-.39,5.45c-.24,3.75-1.08,5.78-3.06,7.4-1.82,1.46-3.89,1.84-8.55,1.53l-7-.49ZM123.3,237c-3.73-1-4.68-1.29-9.09-2.27l.26-3.7,1.59.39c4.38,1.07,4.66,1.16,7.49,2Zm.42-6.06c-4.39-1.2-6.34-1.69-9.09-2.21l.26-3.59c3.08.67,5.46,1.26,9.08,2.25Zm7-5.93-.23,3.25-2-.14.22-3.25Zm.67,0,2,.15-.22,3.24-2-.14Z"/><path d="M145.05,238.87l-1.22-7.4-6.08,1-.55-3.38,16-2.64.56,3.38-6.08,1,1.22,7.41,6.95-1.15.54,3.28-17.85,2.93L138,240Z"/><path d="M159.25,228.59c2.06-1.38,2.23-3.55.6-7.54l13.46-5.66,3.35,8c1.18,2.92,1.44,4.64,1,6.54-.62,2.45-2.12,4-5.06,5.32l-8.2,3.45L163,235.4l6.88-2.89c4-1.67,4.81-3.51,3.23-7.53l-1.95-4.66-6.81,2.86c1.1,4,0,6.79-3.63,8.87Z"/><path d="M180.34,209.88l3.39,4.69a89.16,89.16,0,0,1,9.84-3.61l2.35,3.25a91.6,91.6,0,0,0-9.9,3.52l5.58,7.72-3.22,2.32L177.12,212.2Z"/><path d="M83.2,119.09c-1.93.19-10.65.83-12.39.92.18,19.56.09,22.58-.28,50.22H60.8c-.37-14.6-.46-16.53-.55-28.09A187.32,187.32,0,0,1,45.66,154.9l-5.88-7.26a195.07,195.07,0,0,1,20.38-19.46l.09-7.52c-4.5.27-9.55.36-14.59.45v-9.73c2.57-.27,6.05-.55,14.68-1.1.09-6.79.09-9.73.46-23.59h9.55c.27,11.93.37,16.25.46,23.13,2.57,0,10.37-.18,12.39-.18ZM86,136.72a6.18,6.18,0,0,1-6.15,6.52,7.45,7.45,0,0,1-7.52-7.44,6.27,6.27,0,0,1,6.51-6.42A7.33,7.33,0,0,1,86,136.72Zm14-49.11c.46,15,.73,27.08.73,42.22,0,9.55-.09,19.28-.37,28.83,7-.46,7.35-.46,15.61-.64a52.3,52.3,0,0,1,5.14-7.81l8.17,5.24a131.78,131.78,0,0,1-7.8,12.85c-9.18.09-27.08.37-31.4.46-.27-8.82-.64-23.23-.64-41q0-20.1.55-40.2Z"/><path d="M156.38,147c.18,0,2.2.09,2.57.09,0-4.77-.09-26-.09-30.29-1,0-1.29,0-3.58.09,0,18-.09,36.35-.83,54.07l-8.44-.09c0-18.82,0-20.84-.09-38.83-.1-6.7-.1-7.44-.1-14.87l-2.93.09c-.1,22-.1,22.12-.65,40l-7.62.09c0-2.93-.18-23.4-.18-29.19,0-13.22.18-17.07.37-20.74.09,0,10-.55,11-.65,0-3.94.19-17.07.19-20.19h9.18c.09,3.12.09,17.07.09,19.92,3.85-.09,9.55-.19,11.66-.19.09,4,.46,13.87.46,22.68,0,9.45-.37,18.27-.74,27.91-1-.1-5.32-.19-6.24-.28-1.29-.09-1.84-.09-4-.18ZM187,153.15c-3.3,4.87-10,13.4-15.51,18.36l-6.8-5.78a198.54,198.54,0,0,1,15.52-18.09Zm10.46-22.86A141.16,141.16,0,0,1,210.17,118l6.15,6.25A144,144,0,0,1,205,135.43c2.11,0,11.48-.09,13.4-.18v8.91c-8.26.82-25.24,1.46-25.33,1.46-7.07.28-11.11.28-24.42.37v-8.81c1.19-.09,2.2-.18,3.67-.28,3.4-.18,4.5-.27,14.6-.82-.09-5.33,0-8,.27-15.33l9.64-.28c.19,5.14.37,10.19.28,15.15,1.1,0,2.2-.09,6.15-.19Zm-2.29-24.41c-4,.36-8.9.55-13.31.73v3.49c7.43-.46,12.21-.74,20.19-.92a126.06,126.06,0,0,1,.28-13.13c-7.53.65-12.76.74-18.54.83V89.17c11-.83,15-1,28.36-1,.09,3.4.28,8,.28,15,0,6.43-.19,10.56-.28,14.05-18.72,1.1-30.93,1.47-40,1.83-.18-3.48-.37-9.63-.37-16.34,0-4.68.19-11.19.28-15.51h9.54c.1,4.32.28,8.81.28,12.94,1.65,0,10.92-.27,13.31-.36Zm-11.38,24.41a5.46,5.46,0,0,1-5.51,5.7c-4.13,0-6.52-4-6.52-7.07a5.14,5.14,0,0,1,5.23-5.14C180,123.78,183.83,125.89,183.83,130.29Zm36.9,28.92a102.43,102.43,0,0,1-7.07,10.19c-4.68.37-6.52.37-22.58.83-.09-2.12-.28-5.79-.28-10.65,0-4.59.19-8.63.28-11.48l9.73-.18c.27,3.85.37,6.7.37,12,3.85-.27,5-.27,8.44-.27a70.06,70.06,0,0,1,4.87-5.78Z"/><path class="cls-3" d="M120.57,66.08s-3.35-2.67,1.34-5.58c0,0,.51-10.14-.37-11.34s.88-5,4.06-2,10.7,11.27,10.7,11.27,5.16,2.68,7.32,1.76c0,0,3.58-3.26,4.17-2.17s-1.09,3-1.34,4.35-.63,3,1.46,3.86c0,0,5-.41,0,2.18l-5,2.59-3.09-.42s-.76-.34-1.64.75a13,13,0,0,1-2.94,2.26l-1.81,5.19s-.23,1-1.74,0-8.79-5.19-8.79-5.19-.92-1-1.59,0a6.93,6.93,0,0,1-1.92,1.76s-.93,1.34-2.35-.25-3.19-1.82-3.44-.83-1.09,1.92,0,2.75,3.53,1.09,4.53,2.77-.09,1.42-1.26,1.42-2.18-1.09-3.1.92-3.43,3.31-3.52,1.45a21.1,21.1,0,0,1,.84-5l-1.71-1.76s-.72-3.25,1.12-4.43,3.77-1.09,3.52-3.19-.12-2.91,2.07-1.58S120.06,71.09,120.57,66.08Z"/></g></g></svg>