<svg xmlns="http://www.w3.org/2000/svg" width="259.39" height="259.39" viewBox="0 0 259.39 259.39"><defs><style>.cls-1{fill:#fff;}.cls-2{fill:#231f20;}.cls-3{fill:#ddc010;}</style></defs><g id="レイヤー_2" data-name="レイヤー 2"><g id="レイヤー_1-2" data-name="レイヤー 1"><circle class="cls-1" cx="129.69" cy="129.69" r="128.47"/><path class="cls-2" d="M129.69,259.39C58.18,259.39,0,201.21,0,129.69A129.84,129.84,0,0,1,129.69,0c71.52,0,129.7,58.18,129.7,129.69A129.84,129.84,0,0,1,129.69,259.39Zm0-256.95A127.26,127.26,0,1,0,257,129.69,127.4,127.4,0,0,0,129.69,2.44Z"/><path class="cls-2" d="M57.08,210.22c-.67-.61-1.34-1.22-2-1.84l.46-.49,2,1.83Zm-3.94-3.73c-.64-.64-1.28-1.29-1.9-1.94l.49-.47c.62.65,1.25,1.29,1.89,1.93Zm154.06-1-.49-.47c.63-.64,1.25-1.3,1.86-2l.5.46C208.45,204.22,207.83,204.88,207.2,205.52Zm-157.81-3c-.61-.67-1.21-1.34-1.8-2l.51-.44c.59.68,1.19,1.35,1.79,2Zm161.5-1-.5-.44c.59-.68,1.18-1.36,1.76-2l.52.44C212.08,200.18,211.49,200.87,210.89,201.54Zm-165-3.08c-.57-.7-1.14-1.41-1.69-2.12l.53-.42c.55.71,1.12,1.41,1.69,2.11Zm168.55-1.08-.53-.42q.84-1.05,1.65-2.13l.54.41C215.51,196,215,196.68,214.39,197.38Zm-171.88-3.2c-.54-.73-1.07-1.46-1.59-2.2l.56-.39c.51.74,1,1.47,1.57,2.19Zm175.16-1.13-.55-.39c.52-.73,1-1.47,1.55-2.21l.56.38Q218.47,192,217.67,193.05ZM39.39,189.73c-.5-.75-1-1.51-1.48-2.28l.58-.36c.48.76,1,1.52,1.46,2.27Zm181.34-1.17-.57-.37q.74-1.12,1.44-2.28l.58.35C221.7,187,221.22,187.8,220.73,188.56ZM36.5,185.13c-.47-.78-.92-1.57-1.36-2.36l.59-.33q.66,1.19,1.35,2.34Zm187.06-1.21-.58-.34c.45-.78.89-1.56,1.32-2.35l.59.32C224.46,182.35,224,183.14,223.56,183.92ZM33.84,180.38c-.42-.8-.84-1.61-1.24-2.42l.61-.3c.4.81.81,1.61,1.23,2.41Zm192.33-1.23-.61-.31c.41-.8.81-1.61,1.2-2.42l.62.29C227,177.53,226.58,178.34,226.17,179.15ZM31.42,175.51c-.38-.82-.75-1.65-1.11-2.48l.62-.27q.54,1.25,1.11,2.46Zm197.11-1.26-.62-.28c.37-.82.73-1.65,1.08-2.48l.62.26C229.26,172.59,228.9,173.42,228.53,174.25ZM29.26,170.52c-.34-.84-.67-1.68-1-2.53l.63-.24c.32.84.65,1.68,1,2.52Zm201.38-1.29L230,169c.33-.84.65-1.69,1-2.53l.64.23C231.29,167.54,231,168.39,230.64,169.23Zm-203.3-3.8c-.3-.85-.59-1.71-.86-2.58l.64-.2c.28.86.56,1.71.86,2.56Zm205.16-1.31-.64-.22c.28-.85.56-1.71.83-2.57l.64.2C233.07,162.4,232.79,163.26,232.5,164.12ZM25.68,160.25c-.26-.87-.51-1.74-.74-2.62l.66-.17c.23.87.47,1.74.73,2.6Zm208.42-1.33-.65-.19c.24-.86.48-1.73.7-2.61l.65.17C234.58,157.17,234.35,158,234.1,158.92ZM24.27,155c-.21-.89-.41-1.77-.6-2.65l.66-.15q.29,1.32.6,2.64Zm211.17-1.36-.66-.15c.2-.88.39-1.76.57-2.65l.66.14C235.83,151.87,235.64,152.75,235.44,153.64Zm-212.31-4c-.17-.89-.33-1.79-.47-2.68l.67-.11c.14.89.3,1.78.46,2.66Zm213.39-1.38-.67-.11c.15-.89.3-1.78.43-2.68l.67.1C236.82,146.51,236.67,147.41,236.52,148.3Zm-214.27-4q-.18-1.35-.33-2.7l.67-.08c.1.9.21,1.79.33,2.69Zm215.07-1.4-.67-.08c.11-.9.21-1.79.29-2.69l.68.06C237.53,141.11,237.43,142,237.32,142.91Zm-215.67-4c-.08-.9-.15-1.81-.2-2.71l.68,0c.05.89.12,1.79.19,2.69Zm216.2-1.41-.68-.05c.07-.9.12-1.8.17-2.71l.67,0C238,135.67,237.92,136.58,237.85,137.49Zm-216.53-4c0-.91-.05-1.81-.06-2.72h.67c0,.9,0,1.8.07,2.71ZM238.11,132h-.68c0-.77,0-1.54,0-2.31v-.4h.68v.41C238.13,130.5,238.12,131.27,238.11,132ZM21.94,128h-.68c0-.91,0-1.82.08-2.73l.68,0C22,126.23,22,127.13,21.94,128Zm215.47-1.43q0-1.35-.12-2.7l.68,0c.05.9.09,1.81.11,2.71Zm-215.25-4-.68,0c.06-.91.14-1.82.22-2.72l.67.06Q22.25,121.27,22.16,122.62Zm215-1.4c-.07-.9-.15-1.8-.25-2.7l.68-.07c.09.91.18,1.81.25,2.71Zm-214.46-4-.67-.08c.11-.9.22-1.8.35-2.7l.67.09C22.88,115.44,22.76,116.33,22.65,117.23Zm213.9-1.39c-.12-.89-.25-1.79-.39-2.68l.67-.1c.14.9.27,1.79.39,2.69Zm-213.13-4-.67-.11c.15-.9.31-1.79.49-2.69l.66.13Q23.65,110.54,23.42,111.87Zm212.29-1.37c-.16-.89-.33-1.77-.52-2.66l.67-.14c.18.89.36,1.78.52,2.68ZM24.45,106.56l-.66-.15c.2-.89.4-1.77.62-2.65l.66.16C24.85,104.8,24.65,105.67,24.45,106.56Zm210.16-1.36c-.21-.87-.42-1.75-.65-2.62l.65-.17q.34,1.32.66,2.64ZM25.75,101.3l-.65-.18q.36-1.31.75-2.61l.65.19C26.24,99.57,26,100.43,25.75,101.3ZM233.24,100c-.25-.86-.5-1.73-.78-2.59-.13-.43-.27-.85-.41-1.27l.65-.21c.14.42.28.85.41,1.28.27.87.54,1.73.78,2.6Z"/><path d="M110.15,205.46a.42.42,0,0,1-.29-.12,12.77,12.77,0,0,0-18.06,0,.42.42,0,0,1-.59,0,.4.4,0,0,1,0-.59,13.59,13.59,0,0,1,19.24,0,.42.42,0,0,1-.3.71Z"/><path d="M86.48,200.44a.37.37,0,0,1-.29-.13.4.4,0,0,1,0-.59,20.71,20.71,0,0,1,29.28,0,.42.42,0,0,1,0,.59.41.41,0,0,1-.59,0,19.87,19.87,0,0,0-28.1,0A.41.41,0,0,1,86.48,200.44Z"/><path d="M81.61,196a.83.83,0,0,1-.59-1.42,28,28,0,0,1,39.62,0,.83.83,0,0,1,0,1.18.85.85,0,0,1-1.18,0,26.34,26.34,0,0,0-37.26,0A.84.84,0,0,1,81.61,196Z"/><path d="M138.92,195.85a.44.44,0,0,1-.3-.12,12.77,12.77,0,0,0-18.06,0,.42.42,0,1,1-.59-.59,13.59,13.59,0,0,1,19.24,0,.41.41,0,0,1,0,.59A.4.4,0,0,1,138.92,195.85Z"/><path d="M115.25,190.83a.42.42,0,0,1-.3-.71,20.7,20.7,0,0,1,29.29,0,.42.42,0,0,1-.59.59,19.88,19.88,0,0,0-28.11,0A.42.42,0,0,1,115.25,190.83Z"/><path d="M110.37,186.38a.87.87,0,0,1-.59-.25.85.85,0,0,1,0-1.18,28,28,0,0,1,39.62,0,.83.83,0,0,1-1.18,1.18,26.34,26.34,0,0,0-37.26,0A.83.83,0,0,1,110.37,186.38Z"/><path d="M167.88,205.46a.42.42,0,0,1-.29-.12,12.77,12.77,0,0,0-18.06,0,.42.42,0,0,1-.59,0,.4.4,0,0,1,0-.59,13.59,13.59,0,0,1,19.24,0,.42.42,0,0,1-.3.71Z"/><path d="M144.21,200.44a.41.41,0,0,1-.3-.13.42.42,0,0,1,0-.59,20.73,20.73,0,0,1,29.29,0,.42.42,0,0,1,0,.59.41.41,0,0,1-.59,0,19.88,19.88,0,0,0-28.11,0A.37.37,0,0,1,144.21,200.44Z"/><path d="M139.34,196a.83.83,0,0,1-.59-1.42,28,28,0,0,1,39.62,0,.83.83,0,0,1-1.18,1.18,26.34,26.34,0,0,0-37.26,0A.84.84,0,0,1,139.34,196Z"/><path d="M24.59,78.44A20.54,20.54,0,0,1,28.73,83l9,4.81L36.4,90.32l-6-3.21a12.54,12.54,0,0,1,.53,1.7L27.3,86.87a12.42,12.42,0,0,0-4.11-5.81Zm3.9.16,8.12,4.34.6-1.12-11-5.88,1.31-2.45,11,5.87.62-1.16L31,73.86,32.4,71.3l8.36,4.46c1.73.85,2,1.89.86,3.86l-3.76,7L27.22,81Z"/><path d="M36.75,59.14l2.31,4.24a57.63,57.63,0,0,0,3.25-5c-1.34-.3-1.53-.34-2.84-.59l2-2.54a49.16,49.16,0,0,1,6.74,1.48l-2.1,2.63c-.68-.2-.78-.24-1.45-.39a87.52,87.52,0,0,1-6.6,10L36,67.37c.53-.71.58-.78,1.15-1.52l-2.56-4Zm2.94,9.5,8.21-10.3,3.93,3.14c1.36,1.06,1.49,1.91.55,3.21l-6.86,8.6Zm10-4.88L48,62.4,43.53,68l1.7,1.37Z"/><path d="M61.11,52.16c1.25-1.15,1.66-1.86,1.63-2.87A6.35,6.35,0,0,0,61,45.74a6.06,6.06,0,0,0-2.83-2,2.18,2.18,0,0,0-1.94.45A49.33,49.33,0,0,1,60,50.84a6.35,6.35,0,0,1,.82,3.37,3.12,3.12,0,0,1-1,1.95,4.48,4.48,0,0,1-3.63.81,8.16,8.16,0,0,1-4.14-2.74A8.83,8.83,0,0,1,50,50c-.44-2.55.58-4.88,3.06-7,3.64-3.15,7.12-2.86,10.31.83,1.82,2.11,2.67,4.47,2.33,6.42a6.73,6.73,0,0,1-2.59,4l-.12.1Zm-8.35-3.67a6,6,0,0,0,1.63,3.86c1.15,1.33,2.37,1.89,3,1.34.32-.27.35-.74.1-1.36A58.52,58.52,0,0,0,53.88,46,3.59,3.59,0,0,0,52.76,48.49Z"/><path d="M65.53,38.7l1-.57-2.67-4.57,2.53-1.47.72,1.23,3.5-2,1.11,1.9-3.5,2,.7,1.2c1.33-.94,1.92-1.4,3.2-2.46l1.13,1.94a74.09,74.09,0,0,1-6.45,4.94Zm6.94-.8-.14-.9,2.27-1.32c-.62-.09-.94-.35-1.42-1.15l-2.79-4.78,2.34-1.37.85,1.45,3.54-3,1.21,2.09-3.62,2.87.63,1.08,2.48-1.45a2.08,2.08,0,0,0,1.23-1.8l1.36,2.33c-.18.64-.62,1.08-1.72,1.74l-2.57,1.5a4,4,0,0,1-1,.49l.14.63L80,33.51l2.76,4.74c1,1.65.73,2.29-1.11,3.34l-9.53,5.56L68.18,40.4Zm6.21-.52-.34-.58-6.67,3.89.34.58Zm1.41,2.42-.47-.8L73,42.88l.47.81Z"/><path d="M84.17,29l-.89-2.51,1.41-.5-1-2.92,2.59-.93,1,2.92,1.24-.44.9,2.5-1.25.45.35,1,1.6.53-.57-1.58,3.62-1.29L93,25.68l-3.08,1.1L89.25,25l3.09-1.1-.18-.48-3.5,1.25L88,22.8l1.28-.46-.94-.95,2.75-1,1,.94,1.46-.53.12-1.33,3-1.06-.27,1.39,1.23-.44.65,1.84-3.51,1.26.17.48,3.17-1.14.65,1.81-3.17,1.14.19.53,3.8-1.36.66,1.86-3.8,1.36a4.2,4.2,0,0,0,1,1.06L100,26.15l.79,2.22-1.35,1a4.72,4.72,0,0,0,2.11.23l1.1,3.08a6.84,6.84,0,0,1-4.78-1.62l.58,1.59c.48,1.1,0,2-1.27,2.53l-2,.73-.75-2.11a10.89,10.89,0,0,1-1.91,2.37l-1-2.81a6.39,6.39,0,0,0,1.5-2c-.62,0-.73,0-1.36.11l-.75-2.07a20.21,20.21,0,0,1,2.69-.25l.2.56A10.75,10.75,0,0,0,94,28.53l-.16-.46-3.55,1.27,1.21,3.4-1.89-1.16,2,5.58L89,38.09l-1.55-4.33a4.85,4.85,0,0,1-.81,2.83l-1.37-3.85a12.18,12.18,0,0,0,.21-4.21Zm11.48,4.13-.48-1.33a6.76,6.76,0,0,1-.67,1.74Z"/><path d="M107.43,16.73a44.78,44.78,0,0,0,.72,9.47c.07.42.07.42.69,3.6l.33,1.79-2.89.47c-.72-3.41-.91-4.35-1.18-6a58.83,58.83,0,0,1-.66-8.88ZM117.77,16l.46,2.81-8.67,1.44-.47-2.82Zm-4.32,7.5a5.19,5.19,0,0,0-.4,2.55,1.49,1.49,0,0,0,1.09,1.3,3.86,3.86,0,0,0,1.76,0c1.62-.27,2.61-.45,3.81-.72l.47,2.81c-1,.2-3.17.6-4,.74a6.41,6.41,0,0,1-4-.21,3.69,3.69,0,0,1-1.94-2.63,8.3,8.3,0,0,1,.26-3.31Z"/><path d="M123.68,22.75l5.94,0L129.48,20h-4.7l0-2.73h4.53l-.15-2.93,3.15.05.15,2.89h5.42l0,2.73h-5.23l.13,2.77,6,0,0,2.89-5.82,0,.22,4L130,29.65l-.22-4-6.14,0Z"/><path d="M148.34,16l-2.27,11.52,1.68.33c4.7.78,6.22-.57,7.63-6.72l3.15.62c-.9,3.65-2,5.93-3.49,7.48-2.13,2.05-4.13,2.35-9.13,1.42L142.5,30l2.87-14.56Z"/><path d="M162.62,26.3l10.71-.72c1.43-.11,1.81-.36,2.23-1.44l.17-.45,3,1.18-.25.64A3.81,3.81,0,0,1,175,28.25l-3,.28-3.48,8.95-3-1.19,2.88-7.4-7,.64Z"/><path d="M182.8,30.84l1.29-2.12,4,2.45,1.24-.79,2.7,1.63-1.14.86,4.73,2.87-1.29,2.12-6-3.66-1.28.72a4.78,4.78,0,0,1,2.5.6,2.14,2.14,0,0,1,1.1,2,3.94,3.94,0,0,1-.75,1.71l3.62,1.7-1.46,2.41-3.56-1.81-1.16,1.92-2.56-1.56.89-1.47c-1.95-.59-2.7-.55-3.13.16s-.12,1.1,1.38,2,3.59,2.07,5.61,3.12l-1.45,2.39c-1.09-.62-1.5-.85-2.23-1.29-4.06-2.47-5.11-3.18-5.8-4a3.17,3.17,0,0,1-.67-2.73,2.74,2.74,0,0,1,.4-1.1,3.82,3.82,0,0,1,3.47-1.52,12.11,12.11,0,0,1,3.78.73,2,2,0,0,0,.41-.94.79.79,0,0,0-.41-.71c-.89-.54-2.22-.52-3.89.09l-2.91-1.76a38.57,38.57,0,0,0,5.29-2.36Z"/><path d="M199.76,42.63l1.87-2.1,2.9,2.57,1.09-1.22,2.25,2-1.09,1.23,2.27,2-1.86,2.09-2.27-2-.61.68.78.65c3,2.68,3.57,5.87,1.48,8.22a4.73,4.73,0,0,1-3.84,1.71,7.44,7.44,0,0,1-4.26-1.86c-.12-.1-.24-.21-.41-.38L200,54c1.16,1,1.65,1.25,2.31,1.28a2.44,2.44,0,0,0,1.79-.82,1.9,1.9,0,0,0,.48-1,4.18,4.18,0,0,0-1.47-3.07,8.1,8.1,0,0,0-.77-.57L199.58,53a5.15,5.15,0,0,1-1.94,1.57,2.32,2.32,0,0,1-2.25-.76c-2.3-2.05-2.58-4.71-.72-6.8A5.19,5.19,0,0,1,199,45.31a8,8,0,0,1,3,.82l.74-.9Zm0,5.72a2.27,2.27,0,0,0-1.32-.26,2.75,2.75,0,0,0-1.55.81,1.47,1.47,0,0,0-.07,2c.29.26.52.16,1.07-.46Zm12.06.37a14,14,0,0,1-1.38,3.53l-2.21-2a25.17,25.17,0,0,0,1.42-3.51Z"/><path d="M227.3,65.76l-3.45,2.67c-.93.63-1.75.41-2.52-.66l-1.43-1.86-.91.7,2.72,3.52-5,3.85c-1.24,1-2.24.78-3.4-.73l-5.51-7.13,6.75-5.22,2.56,3.31.91-.7-2.76-3.57c-.27.23-.56.46-.65.52-2.41,1.87-4,2.75-5.31,3a5.63,5.63,0,0,1-4.09-.82l2.86-2.22c.94.24,1.64-.06,3.53-1.48l6.5-5Zm-14.88,2.1.7-.54-.89-1.14-.69.54Zm2.33-1.8.67-.52-.89-1.14-.66.52Zm.42,5.36.7-.54L215,69.72l-.7.54Zm2.33-1.8.67-.52-.89-1.16-.67.52Zm5.09-3.94.89-.69L218,57.86l-.89.69Z"/><path d="M232.37,74.61a60.7,60.7,0,0,0-8.22,3.22c-.25.13-3.43,2-4.2,2.42a11,11,0,0,0-1.33.89l-1.4-2.71a42.39,42.39,0,0,1,4.27-2.49,61.15,61.15,0,0,1,9.47-4Zm-5.29,3.69L229.63,77l1.87,3.53,3.13-1.76,1.57,3-3.08,1.6,1.64,3.08-2.63,1.36-1.66-3.13-2.06,1.09c-2.24,1.16-3.36,1.37-5,.93a6.65,6.65,0,0,1-4.15-3.76c-.11-.22-.2-.39-.36-.73l2.6-1.34a9.18,9.18,0,0,0,1.37,2,2.44,2.44,0,0,0,2.51.62,9.14,9.14,0,0,0,1.93-.74l1.64-.91Z"/><path d="M73.18,208.61l11.76,7.3a3.11,3.11,0,0,0,.91,4.62l-2.23,3.59c-3.53,5.62-7.8,6.54-13.71,2.9l-5.16-3.2,1.88-3,4.65,2.88c4.31,2.67,6.83,2,9.61-2.58l1.54-2.47-11.15-6.92Zm16.39,10.52a2.56,2.56,0,1,1-.8-3.48A2.56,2.56,0,0,1,89.57,219.13Zm-3-1.87a1,1,0,0,0,.31,1.36,1,1,0,0,0,1.37-.32,1,1,0,0,0-1.68-1Z"/><path d="M109.78,224.65l-3.45,10.86c-1.07,3.71-3.91,5.06-7.82,3.68l-10.9-3.46,5.23-16.46ZM99.23,235.57c2.09.67,3,.17,3.63-2L105,226.9l-9.56-3-3,9.53Z"/><path d="M112.5,239.4l7.49.52c5.17.34,6.55-.78,7-5.68l.38-5.35,3.87.28-.38,5.45c-.24,3.74-1.08,5.77-3.06,7.39-1.82,1.46-3.9,1.84-8.55,1.53l-7-.49ZM122,237c-3.73-1-4.67-1.28-9.08-2.27l.26-3.7,1.58.4c4.39,1.07,4.66,1.15,7.5,2Zm.43-6.06c-4.39-1.2-6.34-1.68-9.09-2.2l.26-3.59c3.08.67,5.45,1.25,9.08,2.24Zm7-5.92-.23,3.24-2-.14.23-3.24Zm.67,0,2,.15-.23,3.25-2-.15Z"/><path d="M143.77,238.88l-1.22-7.41-6.08,1-.55-3.38,16-2.64.56,3.39-6.08,1,1.21,7.41,7-1.14.54,3.27-17.85,2.94-.54-3.28Z"/><path d="M158,228.6c2.06-1.39,2.23-3.55.59-7.55L172,215.39l3.35,8c1.18,2.92,1.43,4.65,1,6.54-.62,2.45-2.12,4-5.06,5.33l-8.2,3.45-1.38-3.28,6.88-2.9c4-1.67,4.81-3.5,3.24-7.52l-2-4.66-6.8,2.85c1.1,4,0,6.8-3.63,8.88Z"/><path d="M179.06,209.88l3.39,4.69a90.85,90.85,0,0,1,9.84-3.6l2.35,3.25a87.45,87.45,0,0,0-9.9,3.52l5.58,7.71-3.22,2.33-11.26-15.57Z"/><path d="M63.94,121.49c.1,7.44.28,15.88.28,24.79,0,12.39-.28,20-.37,23.5H54.4c-.55-13.86-.55-21.76-.55-25.34,0-7.44.18-13.59.36-18.63-3.12,4.22-5.14,6.88-6.7,8.81l-7.43-5.42a411.94,411.94,0,0,1,30.84-44l7.71,5.6c-8.08,12.39-13.49,20.2-21.11,30.66Zm47.92,43.7c-16,.91-22.49,1.1-41,1.28-.18-5.05-.46-12-.46-20.65,0-6.52.09-11.84.28-19.19l9.82-.09c.18,8.26.27,12.85.27,16.71,0,5.69-.09,10.09-.18,13,1.84-.09,9.82-.55,11.47-.64-.64-20.38-.64-21.94-.64-33,0-11.56.19-23.13.64-34.7l10.38-.09c.18,10.83.46,21.94.46,38.74,0,8.63,0,10.65-.37,28.73,1.93-.09,7.16-.09,9.36-.09Zm12.76-38.83c.19,6.88.37,13.86.37,20.83,0,9.73-.18,15.24-.37,20.57H114.8c-.18-3.86-.55-12.12-.55-23.87,0-7.16.18-14.6.18-17.53Z"/><path d="M198.56,118.74c-6.61,1.56-41.58,7-64.35,9.18l-1.28-9.64c1.1-.19,1.93-.37,3-.55,1.83-.28,10-1.56,11.66-1.84,2.38-4.5,2.93-5.51,7.89-14.78.28-.46,8.45-14.5,12-19.37l9,4.87c-1.83,4.68-11.93,23.13-14.32,27,7.16-1.1,26.26-3.58,34.7-4.5Zm-40.85,11.47c.1,3.4.28,8.63.28,14.78,0,5.78-.09,9.64-.28,13.22,4.41-.09,23.87-.73,27.82-.83,2.84-.09,4.5-.09,7.71-.09-.18-5.23-.09-11.66.09-16.25-16.25.65-18.08.74-32.68,1.2l-.09-9.82c15.24-1.75,35.8-1.84,43.7-1.84.18,3.12.64,8.44.64,18.08,0,8.45-.28,13.59-.46,18.91-17.81,1-48.93,1.38-57.28,1.38-.28-3.49-.46-6.61-.46-16.16,0-6.42.09-14.22.64-22.21Zm53.34-2.2c-4.78-6.06-13.31-19.19-16.43-25.7l8.07-5c5,6.15,12.67,17.16,16.62,25.52Z"/><path class="cls-3" d="M128.44,84.84a19.33,19.33,0,0,1-16.68-9.43,1.92,1.92,0,0,1,.29-2.35,1.9,1.9,0,0,1,2.35-.29,15.62,15.62,0,0,0,21.43-21.43,1.91,1.91,0,0,1,1.64-2.91,1.94,1.94,0,0,1,1,.27,19.46,19.46,0,0,1-10,36.14Z"/></g></g></svg>