<?xml version="1.0" encoding="UTF-8"?>
<svg id="_レイヤー_1" data-name="レイヤー 1" xmlns="http://www.w3.org/2000/svg" width="259.39" height="259.39" viewBox="0 0 259.39 259.39">
  <defs>
    <style>
      .cls-1 {
        fill: #fff;
      }

      .cls-2 {
        fill: #bf0000;
      }

      .cls-3 {
        fill: #231f20;
      }
    </style>
  </defs>
  <g>
    <circle class="cls-1" cx="129.69" cy="129.69" r="128.47"/>
    <path class="cls-3" d="m129.69,259.39C58.18,259.39,0,201.21,0,129.69S58.18,0,129.69,0s129.69,58.18,129.69,129.69-58.18,129.69-129.69,129.69Zm0-256.95C59.53,2.44,2.44,59.53,2.44,129.69s57.08,127.25,127.25,127.25,127.25-57.09,127.25-127.25S199.86,2.44,129.69,2.44Z"/>
  </g>
  <g>
    <g>
      <path d="m110.15,205.46c-.11,0-.21-.04-.3-.12-2.41-2.41-5.62-3.74-9.03-3.74s-6.62,1.33-9.03,3.74c-.16.16-.43.16-.59,0-.16-.16-.16-.43,0-.59,2.57-2.57,5.99-3.98,9.62-3.98s7.05,1.42,9.62,3.98c.16.16.16.43,0,.59-.08.08-.19.12-.29.12Z"/>
      <path d="m86.48,200.44c-.11,0-.21-.04-.29-.12-.16-.16-.16-.43,0-.59,3.91-3.91,9.11-6.07,14.64-6.07s10.73,2.15,14.64,6.07c.16.16.16.43,0,.59s-.43.16-.59,0c-3.75-3.75-8.74-5.82-14.05-5.82s-10.3,2.07-14.05,5.82c-.08.08-.19.12-.3.12Z"/>
      <path d="m81.61,195.98c-.21,0-.43-.08-.59-.25-.33-.33-.33-.85,0-1.18,5.29-5.29,12.33-8.21,19.81-8.21s14.52,2.91,19.81,8.21c.33.33.33.85,0,1.18-.33.33-.85.33-1.18,0-4.98-4.98-11.59-7.72-18.63-7.72s-13.65,2.74-18.63,7.72c-.16.16-.38.25-.59.25Z"/>
    </g>
    <g>
      <path d="m138.92,195.85c-.11,0-.21-.04-.3-.12-2.41-2.41-5.62-3.74-9.03-3.74s-6.62,1.33-9.03,3.74c-.16.16-.43.16-.59,0-.16-.16-.16-.43,0-.59,2.57-2.57,5.99-3.98,9.62-3.98s7.05,1.42,9.62,3.98c.16.16.16.43,0,.59-.08.08-.19.12-.29.12Z"/>
      <path d="m115.25,190.83c-.11,0-.21-.04-.3-.12-.16-.16-.16-.43,0-.59,3.91-3.91,9.11-6.07,14.64-6.07s10.73,2.15,14.64,6.06c.16.16.16.43,0,.59-.16.16-.43.16-.59,0-3.75-3.75-8.74-5.82-14.05-5.82s-10.3,2.07-14.05,5.82c-.08.08-.19.12-.29.12Z"/>
      <path d="m110.38,186.38c-.21,0-.43-.08-.59-.25-.33-.33-.33-.85,0-1.18,5.29-5.29,12.33-8.21,19.81-8.21s14.52,2.91,19.81,8.2c.33.33.33.86,0,1.18-.33.33-.85.33-1.18,0-4.98-4.98-11.59-7.72-18.63-7.72s-13.65,2.74-18.63,7.72c-.16.16-.38.25-.59.25Z"/>
    </g>
    <g>
      <path d="m167.88,205.46c-.11,0-.21-.04-.29-.12-2.41-2.41-5.62-3.74-9.03-3.74s-6.62,1.33-9.03,3.74c-.16.16-.43.16-.59,0-.16-.16-.16-.43,0-.59,2.57-2.57,5.99-3.98,9.62-3.98s7.05,1.42,9.62,3.98c.16.16.16.43,0,.59-.08.08-.19.12-.3.12Z"/>
      <path d="m144.21,200.44c-.11,0-.21-.04-.3-.12-.16-.16-.16-.43,0-.59,3.91-3.91,9.11-6.07,14.64-6.07s10.73,2.15,14.64,6.07c.16.16.16.43,0,.59-.16.16-.43.16-.59,0-3.75-3.75-8.74-5.82-14.05-5.82s-10.3,2.07-14.05,5.82c-.08.08-.19.12-.29.12Z"/>
      <path d="m139.34,195.98c-.21,0-.43-.08-.59-.25-.33-.33-.33-.85,0-1.18,5.29-5.29,12.33-8.21,19.81-8.21s14.52,2.91,19.81,8.21c.33.33.33.85,0,1.18-.33.33-.85.33-1.18,0-4.98-4.98-11.59-7.72-18.63-7.72s-13.65,2.74-18.63,7.72c-.16.16-.38.25-.59.25Z"/>
    </g>
  </g>
  <g>
    <path class="cls-3" d="m57.54,209.72c-.67-.6-1.33-1.21-1.98-1.83l-.47.49c.66.62,1.32,1.24,2,1.84l.45-.5Z"/>
    <path class="cls-3" d="m22.13,136.15l-.68.04c.05.9.12,1.81.2,2.71l.68-.06c-.08-.9-.14-1.8-.2-2.7Z"/>
    <path class="cls-3" d="m22.59,141.53l-.67.08c.1.9.21,1.8.33,2.7l.67-.09c-.12-.89-.23-1.79-.33-2.68Z"/>
    <path class="cls-3" d="m206.72,205.05l.48.47c.63-.65,1.26-1.3,1.87-1.97l-.5-.46c-.61.66-1.23,1.31-1.86,1.95Z"/>
    <path class="cls-3" d="m21.94,130.74h-.68c0,.91.03,1.82.06,2.73l.68-.02c-.03-.9-.05-1.8-.06-2.7Z"/>
    <path class="cls-3" d="m28.27,167.99c.32.85.65,1.69.99,2.53l.63-.25c-.34-.83-.67-1.67-.98-2.52l-.63.24Z"/>
    <path class="cls-3" d="m25.07,103.92l-.66-.16c-.22.88-.42,1.76-.62,2.65l.66.15c.19-.88.4-1.76.62-2.63Z"/>
    <path class="cls-3" d="m23.33,146.89l-.67.11c.15.89.3,1.79.47,2.68l.67-.13c-.17-.89-.32-1.78-.47-2.66Z"/>
    <path class="cls-3" d="m26.48,162.85c.28.87.57,1.72.86,2.58l.64-.22c-.3-.85-.58-1.7-.86-2.56l-.65.21Z"/>
    <path class="cls-3" d="m24.94,157.64c.23.87.48,1.75.74,2.62l.65-.19c-.25-.87-.5-1.73-.73-2.6l-.65.18Z"/>
    <path class="cls-3" d="m23.67,152.35c.19.89.39,1.77.61,2.65l.66-.16c-.21-.88-.41-1.76-.6-2.64l-.66.14Z"/>
    <path class="cls-3" d="m30.31,173.03c.36.83.73,1.66,1.11,2.48l.62-.29c-.38-.82-.75-1.64-1.11-2.46l-.62.27Z"/>
    <path class="cls-3" d="m237.22,115.75c-.12-.9-.25-1.8-.39-2.69l-.67.1c.14.89.27,1.78.38,2.68l.67-.09Z"/>
    <path class="cls-3" d="m237.79,121.16c-.07-.9-.16-1.81-.25-2.71l-.67.07c.09.9.18,1.8.25,2.69l.68-.05Z"/>
    <path class="cls-3" d="m233.96,102.58c.23.87.45,1.75.65,2.62l.66-.16c-.21-.88-.42-1.76-.65-2.64l-.66.17Z"/>
    <path class="cls-3" d="m236.38,110.38c-.16-.89-.34-1.78-.52-2.67l-.66.14c.18.88.36,1.77.52,2.65l.67-.12Z"/>
    <path class="cls-3" d="m23.91,109.21l-.67-.13c-.17.89-.34,1.78-.49,2.68l.67.11c.15-.89.31-1.78.48-2.66Z"/>
    <path class="cls-3" d="m238.09,126.59c-.03-.91-.06-1.81-.11-2.72l-.68.04c.05.9.09,1.8.11,2.7l.68-.02Z"/>
    <path class="cls-3" d="m21.27,128.03h.68c.01-.89.04-1.8.08-2.7l-.68-.03c-.04.91-.06,1.82-.08,2.73Z"/>
    <path class="cls-3" d="m25.76,101.3c.24-.87.49-1.74.75-2.6l-.65-.2c-.26.87-.51,1.74-.75,2.62l.65.18Z"/>
    <path class="cls-3" d="m23.01,114.54l-.67-.1c-.13.9-.25,1.8-.35,2.7l.67.08c.1-.9.22-1.79.35-2.69Z"/>
    <path class="cls-3" d="m22.38,119.92l-.68-.06c-.08.9-.15,1.81-.21,2.72l.68.04c.06-.9.13-1.8.21-2.7Z"/>
    <path class="cls-3" d="m232.47,97.38c.27.86.53,1.72.78,2.59l.65-.19c-.25-.87-.51-1.74-.79-2.6-.06-.2-.13-.4-.19-.59l-.67.14c.07.22.14.44.21.66Z"/>
    <path class="cls-3" d="m230.01,168.99l.63.25c.33-.84.65-1.69.96-2.54l-.64-.23c-.31.85-.63,1.69-.96,2.53Z"/>
    <path class="cls-3" d="m231.86,163.9l.64.22c.29-.86.57-1.72.83-2.59l-.65-.2c-.27.86-.54,1.72-.83,2.58Z"/>
    <path class="cls-3" d="m233.45,158.73l.65.18c.25-.87.48-1.75.7-2.63l-.66-.17c-.22.87-.46,1.75-.7,2.61Z"/>
    <path class="cls-3" d="m227.91,173.97l.62.28c.37-.83.74-1.66,1.09-2.49l-.62-.26c-.35.83-.71,1.66-1.08,2.48Z"/>
    <path class="cls-3" d="m225.57,178.84l.6.31c.41-.81.82-1.62,1.21-2.44l-.61-.29c-.39.81-.79,1.62-1.2,2.42Z"/>
    <path class="cls-3" d="m237.18,137.44l.68.05c.07-.91.12-1.81.16-2.72l-.68-.03c-.04.9-.1,1.8-.16,2.7Z"/>
    <path class="cls-3" d="m237.46,129.72c0,.77,0,1.54-.03,2.3h.68c.02-.76.03-1.53.03-2.3v-.41h-.68v.41Z"/>
    <path class="cls-3" d="m222.98,183.58l.59.34c.45-.79.9-1.58,1.33-2.37l-.6-.32c-.43.79-.87,1.58-1.32,2.36Z"/>
    <path class="cls-3" d="m234.79,153.49l.66.15c.2-.89.39-1.77.57-2.66l-.66-.13c-.18.88-.37,1.77-.57,2.65Z"/>
    <path class="cls-3" d="m235.85,148.18l.67.12c.16-.89.3-1.79.44-2.69l-.67-.1c-.13.89-.28,1.78-.43,2.67Z"/>
    <path class="cls-3" d="m236.65,142.83l.67.08c.11-.9.21-1.8.3-2.71l-.67-.07c-.09.9-.19,1.8-.3,2.69Z"/>
    <path class="cls-3" d="m53.62,206.01c-.64-.63-1.27-1.28-1.89-1.93l-.49.47c.63.65,1.26,1.3,1.9,1.94l.48-.48Z"/>
    <path class="cls-3" d="m44.15,196.34c.56.71,1.12,1.42,1.69,2.12l.52-.43c-.57-.69-1.13-1.39-1.68-2.1l-.54.42Z"/>
    <path class="cls-3" d="m220.16,188.19l.57.37c.49-.76.98-1.53,1.45-2.3l-.58-.35c-.47.77-.95,1.53-1.44,2.29Z"/>
    <path class="cls-3" d="m47.59,200.53c.59.69,1.19,1.36,1.8,2.03l.5-.46c-.6-.66-1.2-1.34-1.79-2.02l-.51.44Z"/>
    <path class="cls-3" d="m35.14,182.77c.44.79.9,1.58,1.36,2.36l.58-.35c-.46-.77-.91-1.55-1.35-2.34l-.59.33Z"/>
    <path class="cls-3" d="m37.92,187.45c.48.77.98,1.53,1.48,2.28l.56-.38c-.5-.75-.99-1.51-1.47-2.27l-.57.36Z"/>
    <path class="cls-3" d="m40.93,191.98c.52.74,1.05,1.47,1.58,2.2l.54-.4c-.53-.72-1.06-1.45-1.57-2.19l-.55.39Z"/>
    <path class="cls-3" d="m217.12,192.66l.55.4c.53-.74,1.05-1.48,1.56-2.23l-.56-.38c-.51.74-1.02,1.48-1.55,2.21Z"/>
    <path class="cls-3" d="m213.86,196.96l.53.42c.57-.71,1.12-1.42,1.67-2.15l-.54-.41c-.54.72-1.09,1.43-1.66,2.13Z"/>
    <path class="cls-3" d="m32.6,177.96c.4.81.82,1.62,1.24,2.42l.6-.32c-.42-.8-.83-1.6-1.23-2.41l-.61.3Z"/>
    <path class="cls-3" d="m210.39,201.1l.51.45c.6-.68,1.19-1.37,1.77-2.06l-.52-.44c-.58.69-1.17,1.37-1.76,2.05Z"/>
  </g>
  <g>
    <path d="m33.35,89.6c.57-1.85.62-3.41.18-5.28l-1.65,3.09-5.71-3.05,2.55-4.77-.61-.32-3,5.61-1.99-1.06,3-5.61-1.03-.55,1.35-2.53,1.03.55,2.97-5.56,1.99,1.06-2.97,5.56.61.32,2.58-4.83,3.69,1.97c1.56.81,1.73,1.66.67,3.61l-.39.73c1.81-.47,2.98-1.31,4.34-3.08l2.61,1.39c-1.66,2.25-3.34,3.37-6.17,4.12l3.19,1.7-1.35,2.53-3.39-1.81c.95,2.86.96,4.59.06,7.56l-2.55-1.36Zm-2.42-8.82l-.61-.32-1.2,2.24.61.32,1.2-2.24Zm1.94,1.04l-.65-.35-1.2,2.24.65.35,1.2-2.24Zm.61-5.81l-.61-.32-1.2,2.24.61.32,1.2-2.24Zm1.94,1.04l-.65-.35-1.2,2.24.65.35,1.19-2.24Z"/>
    <path d="m33.62,64.95l3.84-4.8-1-.8,2.02-2.52,1,.8,3.82-4.77,2.05,1.64-9.68,12.09-2.05-1.64Zm3.11,1.5l8.67-10.83,2.13,1.71c1.78,1.36,1.83,2.05.31,3.93l-1.5,1.87,2.71,2.17c1.47,1.18,1.57,2.13.32,3.75l-1.42,1.77-2.12-1.7,1.15-1.43-2.61-2.09-3.39,4.24-4.24-3.39Zm9.08-6.37l-.81-.65-4.67,5.83.81.65,4.67-5.83Zm-1.49,6.68c1.6,2.14,1.85,5.25.58,7.45l-2.17-1.74c.5-.96.37-2.3-.27-3.38l1.86-2.32Zm4.99-6.23c.99.48,2.1.31,3.27-.5l2.16,1.73c-2.04,2.07-4.93,2.49-7.27,1.07l1.84-2.3Z"/>
    <path d="m61,52.37c1.24-1.15,1.66-1.86,1.61-2.87-.02-.99-.68-2.35-1.72-3.54-.9-1.04-1.89-1.72-2.83-1.97-.64-.17-1.13-.07-1.94.45,2.36,3.76,2.97,4.82,3.79,6.63.69,1.52.94,2.5.83,3.37-.09.78-.44,1.5-.96,1.96-.87.75-2.34,1.07-3.63.82-1.34-.28-2.91-1.3-4.14-2.73-1.13-1.3-1.9-2.81-2.14-4.26-.44-2.55.57-4.88,3.04-7.03,3.63-3.15,7.11-2.88,10.31.8,1.83,2.1,2.68,4.46,2.34,6.41-.25,1.46-1.04,2.67-2.58,4.01l-.12.1-1.86-2.14Zm-8.36-3.64c-.03,1.2.58,2.63,1.64,3.85,1.16,1.33,2.38,1.88,3,1.34.32-.28.35-.75.1-1.37-.48-1.12-2.12-3.97-3.63-6.28-.8.96-1.08,1.55-1.11,2.46Z"/>
    <path d="m65.38,38.9l.97-.57-2.68-4.56,2.52-1.48.72,1.23,3.5-2.05,1.12,1.9-3.5,2.05.71,1.2c1.33-.94,1.91-1.41,3.19-2.47l1.13,1.93c-1.3,1.19-3.65,3-6.43,4.96l-1.26-2.14Zm6.93-.82l-.14-.9,2.26-1.33c-.62-.08-.94-.35-1.43-1.14l-2.8-4.77,2.34-1.37.85,1.44,3.53-3.04,1.22,2.08-3.62,2.88.63,1.08,2.48-1.45c.86-.52,1.11-.92,1.23-1.81l1.36,2.33c-.18.64-.61,1.08-1.71,1.74l-2.57,1.51q-.61.36-1.02.49l.15.63,4.74-2.78,2.78,4.73c.95,1.65.73,2.29-1.1,3.34l-9.51,5.59-3.95-6.73,4.29-2.52Zm6.2-.54l-.34-.58-6.66,3.91.34.58,6.66-3.91Zm1.42,2.42l-.47-.81-6.66,3.91.47.81,6.65-3.91Z"/>
    <path d="m84,29.15l-.9-2.5,1.41-.51-1.05-2.92,2.59-.93,1.05,2.92,1.24-.45.9,2.5-1.24.45.35.98,1.59.53-.57-1.57,3.61-1.3-.19-.53-3.08,1.11-.65-1.81,3.08-1.11-.17-.48-3.5,1.26-.67-1.84,1.28-.46-.94-.95,2.75-.99.99.93,1.46-.53.12-1.33,2.97-1.07-.27,1.39,1.23-.44.67,1.84-3.51,1.27.17.48,3.17-1.14.65,1.81-3.16,1.14.19.53,3.79-1.37.67,1.86-3.79,1.37c.38.54.45.62.96,1.06l2.57-2.07.8,2.22-1.34,1.05c.84.24,1.23.29,2.1.22l1.11,3.08c-2.07-.02-3.52-.51-4.78-1.61l.57,1.59c.49,1.1.04,1.99-1.26,2.53l-2.02.73-.76-2.1c-.76,1.17-1.09,1.59-1.9,2.37l-1.01-2.8c.7-.66,1.01-1.1,1.49-2.04-.62.04-.74.04-1.36.12l-.75-2.07c1.47-.19,1.77-.23,2.68-.26l.2.56c.15-.56.18-.65.28-1.19l-.17-.46-3.54,1.28,1.23,3.4-1.9-1.15,2.01,5.57-2.58.93-1.56-4.32c-.03,1.23-.15,1.66-.79,2.83l-1.39-3.84c.31-1.46.38-2.74.2-4.21l-1.33.48Zm11.48,4.09l-.48-1.33c-.23.85-.29.97-.66,1.74l1.14-.41Z"/>
    <path d="m107.21,16.8c-.02,4.02.11,5.65.76,9.47q.07.42.7,3.6l.34,1.78-2.88.49c-.74-3.41-.93-4.35-1.2-5.96-.42-2.48-.63-5.22-.69-8.87l2.99-.5Zm10.34-.8l.47,2.81-8.67,1.46-.47-2.81,8.67-1.46Zm-4.29,7.51c-.41,1.28-.5,1.89-.39,2.55.12.7.47,1.12,1.09,1.3.43.12.82.11,1.76-.05,1.62-.27,2.6-.46,3.81-.73l.47,2.82c-.97.2-3.17.6-4.02.75-1.93.32-3.05.26-4-.2-.99-.48-1.75-1.51-1.94-2.62-.15-.9-.07-2.1.25-3.31l2.97-.5Z"/>
    <path d="m123.5,22.78h5.94s-.14-2.75-.14-2.75h-4.71s.03-2.72.03-2.72h4.53s-.16-2.94-.16-2.94l3.16.04.16,2.89,5.41-.02-.03,2.73h-5.24s.14,2.77.14,2.77h6.01s-.04,2.9-.04,2.9h-5.82s.23,4.02.23,4.02l-3.15-.04-.23-3.99h-6.13s.04-2.9.04-2.9Z"/>
    <path d="m148.1,15.95l-2.23,11.53,1.68.32c4.7.76,6.22-.59,7.61-6.75l3.15.61c-.88,3.65-1.96,5.94-3.46,7.5-2.12,2.05-4.12,2.36-9.13,1.45l-3.41-.66,2.82-14.57,2.98.57Z"/>
    <path d="m162.43,26.2l10.72-.76c1.42-.11,1.8-.36,2.22-1.45l.17-.44,3.01,1.16-.25.64c-.59,1.66-1.71,2.57-3.44,2.75l-3,.3-3.46,8.96-3.04-1.17,2.86-7.42-7.04.67,1.25-3.24Z"/>
    <path d="m182.64,30.69l1.28-2.13,4.05,2.44,1.24-.8,2.7,1.63-1.14.86,4.74,2.86-1.28,2.13-6.05-3.65-1.28.73c1.26.06,1.87.2,2.51.59.75.46,1.13,1.16,1.1,2-.04.43-.17.76-.75,1.71l3.63,1.7-1.46,2.42-3.57-1.8-1.16,1.92-2.57-1.55.89-1.48c-1.96-.58-2.7-.54-3.13.17-.41.68-.13,1.1,1.38,2.01,1.53.92,3.59,2.06,5.62,3.1l-1.45,2.4c-1.09-.62-1.51-.85-2.23-1.28-4.08-2.46-5.13-3.17-5.82-4-.63-.73-.86-1.67-.68-2.73.07-.41.2-.77.4-1.1.59-.98,1.86-1.55,3.47-1.53,1.09,0,1.89.15,3.79.72.3-.5.4-.73.41-.95,0-.28-.15-.54-.42-.71-.89-.54-2.22-.52-3.89.1l-2.91-1.76c2.13-.8,3.28-1.31,5.28-2.37l-2.72-1.64Z"/>
    <path d="m199.61,42.42l1.87-2.11,2.91,2.57,1.08-1.23,2.26,1.99-1.08,1.23,2.27,2.01-1.85,2.1-2.27-2.01-.61.69c.34.28.63.51.78.64,3.02,2.67,3.6,5.86,1.51,8.22-1.06,1.2-2.41,1.8-3.83,1.72-1.47-.1-3.07-.78-4.27-1.84-.12-.1-.24-.21-.41-.39l1.94-2.19c1.16.98,1.65,1.25,2.31,1.27.66,0,1.32-.29,1.78-.82.27-.3.44-.69.47-.99.06-.98-.55-2.25-1.48-3.07-.13-.12-.43-.33-.77-.56l-2.75,3.12c-.8.91-1.37,1.37-1.94,1.58-.63.24-1.42-.04-2.24-.76-2.31-2.04-2.6-4.7-.75-6.8,1.04-1.17,2.51-1.75,4.3-1.68.84.04,1.41.19,2.96.8l.74-.9-2.93-2.59Zm.05,5.71c-.6-.25-.92-.32-1.33-.25-.57.09-1.18.41-1.55.82-.55.62-.58,1.56-.06,2.01.29.26.52.16,1.07-.46l1.87-2.11Zm12.06.32c-.53,1.86-.71,2.29-1.37,3.54l-2.22-1.96c.71-1.53.81-1.77,1.4-3.51l2.18,1.92Z"/>
    <path d="m227.21,65.46l-3.43,2.68c-.93.64-1.75.42-2.52-.65l-1.44-1.85-.9.7,2.73,3.5-4.96,3.87c-1.24.99-2.24.79-3.4-.72l-5.54-7.1,6.73-5.24,2.58,3.31.9-.7-2.77-3.56c-.27.23-.56.46-.64.52-2.4,1.87-3.97,2.76-5.29,3.01-1.43.26-2.43.06-4.09-.81l2.85-2.22c.94.23,1.64-.07,3.52-1.5l6.48-5.05,9.21,11.81Zm-14.85,2.15l.69-.54-.89-1.14-.7.54.89,1.14Zm2.32-1.81l.67-.52-.89-1.14-.67.52.89,1.14Zm.44,5.35l.7-.54-.9-1.15-.7.54.9,1.15Zm2.32-1.81l.67-.52-.9-1.15-.67.52.9,1.15Zm5.07-3.96l.89-.69-5.54-7.1-.89.69,5.54,7.1Z"/>
    <path d="m232.33,74.31c-2.34.7-6.38,2.29-8.21,3.25-.25.13-3.43,1.97-4.2,2.43-.58.34-.71.43-1.33.89l-1.41-2.7c1.68-1.09,2.62-1.65,4.26-2.5,3.39-1.77,6.46-3.09,9.47-4.07l1.41,2.7Zm-5.28,3.71l2.55-1.33,1.88,3.53,3.13-1.77,1.57,3.02-3.08,1.61,1.65,3.08-2.63,1.37-1.67-3.12c-1.49.8-1.62.86-2.05,1.09-2.24,1.17-3.36,1.38-4.97.95-1.73-.45-3.08-1.67-4.17-3.75-.11-.22-.2-.39-.36-.73l2.59-1.35c.68,1.2,1,1.65,1.38,2.03.74.69,1.45.87,2.51.62.57-.14,1.31-.42,1.93-.75q.22-.11,1.63-.91l-1.9-3.56Z"/>
  </g>
  <g>
    <path d="m75.15,208.61l11.76,7.29c-1.11,1.84-.78,3.44.91,4.62l-2.23,3.59c-3.53,5.62-7.81,6.54-13.71,2.9l-5.16-3.2,1.89-3.04,4.64,2.88c4.31,2.67,6.83,1.99,9.62-2.59l1.53-2.47-11.15-6.92,1.91-3.08Zm16.39,10.52c-.74,1.2-2.32,1.57-3.52.83s-1.57-2.33-.83-3.52c.74-1.2,2.33-1.54,3.55-.79,1.16.72,1.52,2.32.8,3.48Zm-3.02-1.88c-.29.46-.14,1.09.3,1.36.48.3,1.08.16,1.37-.32.29-.46.13-1.07-.33-1.36-.44-.27-1.07-.13-1.34.32Z"/>
    <path d="m111.75,224.65l-3.45,10.85c-1.07,3.71-3.91,5.06-7.82,3.68l-10.9-3.46,5.23-16.46,16.93,5.38Zm-10.55,10.92c2.09.66,2.97.17,3.63-2.05l2.1-6.62-9.55-3.04-3.03,9.53,6.84,2.17Z"/>
    <path d="m114.47,239.39l7.49.53c5.17.34,6.56-.78,6.99-5.69l.38-5.34,3.87.27-.38,5.45c-.24,3.75-1.08,5.77-3.07,7.4-1.82,1.46-3.89,1.84-8.54,1.53l-6.99-.49.26-3.66Zm9.52-2.35c-3.73-1.04-4.67-1.29-9.08-2.27l.26-3.7,1.58.39c4.38,1.07,4.66,1.15,7.5,1.98l-.25,3.59Zm.43-6.06c-4.4-1.2-6.34-1.69-9.09-2.21l.25-3.59c3.08.67,5.46,1.25,9.08,2.25l-.25,3.55Zm6.98-5.92l-.23,3.25-2.04-.14.23-3.25,2.03.14Zm.67.05l2.04.14-.23,3.25-2.03-.14.23-3.25Z"/>
    <path d="m145.74,238.87l-1.22-7.41-6.08,1-.56-3.38,16.03-2.64.56,3.38-6.08,1,1.22,7.41,6.96-1.14.54,3.27-17.85,2.94-.54-3.27,7.02-1.16Z"/>
    <path d="m159.94,228.59c2.05-1.38,2.23-3.55.59-7.54l13.46-5.66,3.35,7.98c1.18,2.92,1.44,4.64.96,6.54-.62,2.45-2.12,4.02-5.06,5.33l-8.2,3.45-1.38-3.28,6.88-2.89c4.03-1.67,4.81-3.5,3.24-7.53l-1.96-4.66-6.8,2.86c1.1,4.01-.04,6.79-3.64,8.87l-1.45-3.46Z"/>
    <path d="m181.03,209.88l3.39,4.69c4.81-1.98,6.61-2.63,9.84-3.61l2.35,3.25c-2.98.84-5.66,1.79-9.9,3.52l5.58,7.71-3.22,2.33-11.26-15.57,3.22-2.32Z"/>
  </g>
  <g>
    <path d="m41.74,163.07c5.6-3.58,18.91-10.65,21.48-11.93,4.96-2.39,7.99-3.86,12.67-6.06-6.52.18-13.04.28-19.46.28-.18-3.12-.28-5.42-.28-15.33,0-6.06,0-12.3.37-18.27l10.19-.18c.18,2.66.46,6.33.46,13.68,1.47-.09,12.3-.73,12.67-.73v-3.58c-1.19,0-6.61.18-7.71.28h-2.85l-.28-8.26c2.85-.37,5.05-.64,10.83-1.01v-5.78c-20.47.46-22.77.55-32.4.64l-.09-9c13.95-.73,15.79-.83,32.68-1.47.09-5.88.28-9.18.46-11.75h10.28c.18,2.85.37,5.97.55,11.38,16.8-.28,18.63-.37,33.32-.37v8.81c-16.43.73-18.27.83-33.23,1.38v5.51c2.75-.09,15.15-.46,17.62-.55,1.47-.09,2.66-.09,5.23-.09.46,6.88.64,13.68.64,20.47s-.18,9.18-.37,12.39c-11.02.64-12.3.73-23.41,1.1-.09,8.9-.37,17.81-.83,26.71h-9.91c-.09-1.93-.18-2.85-.18-4.04,0-2.02-.18-10.92-.18-12.76-7.71,4.5-26.35,13.68-34.24,16.98l-4.04-8.45Zm25.43-30.75v4.04c1.74-.09,10.65-.64,12.67-.73v-3.86l-12.67.55Zm31.58-1.47c-1.56.09-2.11.09-7.44.37l-.09,3.86c6.88-.37,7.62-.37,12.85-.55,0-2.11.09-12.21.09-14.5-1.74.09-2.48.09-3.3.18-1.38,0-7.99.28-9.46.28v3.67h7.53l-.18,6.7Zm24.97,38.83c-9-3.76-22.03-10.92-29.74-16.34l5.05-8.08c5.05,2.39,22.4,11.29,29.56,16.25l-4.87,8.17Z"/>
    <path d="m216.3,106.98c-17.17,1.74-64.81,3.21-81.06,3.12v-9.27c34.24-2.02,66.19-2.75,81.06-2.75v8.9Zm-56.91,48.19c-4.87,6.33-11.57,12.94-16.89,17.17l-6.52-6.61c5.32-7.07,11.75-12.85,16.8-17.07l6.61,6.52Zm1.1-41.86c.37,5.23.37,9.09.28,19.74,1.74-.18,22.12-1.19,29.19-1.19,0-2.02-.18-7.16-.09-9-5.14.37-16.71.83-26.25.83v-9.09c15.15-1.1,22.95-1.38,37.18-1.38.18,3.21.46,8.63.46,16.8,0,5.14-.09,8.08-.18,11.2-16.89,1.1-33.87,1.56-50.76,1.56-.09-2.29-.28-6.43-.28-12.21,0-8.26.28-13.95.46-17.26h10.01Zm1.19,47.83c3.03-.09,4.87,0,9.55.09,0-10.46,0-10.56.18-16.62l10.65-.18c.09,2.85.37,7.89.37,14.41s-.28,10.19-.37,12.39c-5.6,0-13.68-.09-21.39-1.38l1.01-8.72Zm21.66-70.13c0,4.22-3.95,6.7-7.34,6.7-4.04,0-7.99-3.21-7.99-7.8,0-5.14,5.05-6.52,7.62-6.52,3.58,0,7.71,2.94,7.71,7.62Zm27.72,70.22c0,3.3-3.49,6.52-7.16,6.52-2.2,0-8.26-1.84-8.26-7.99,0-5.23,4.77-6.79,6.98-6.79,5.42,0,8.45,4.96,8.45,8.26Z"/>
  </g>
  <path class="cls-2" d="m135.68,68.12h.87v-3.92h-2.32c-.72-2.1-1.37-4.32-1.91-6.62h.56v-3.31h-1.25c-.39-2.18-.69-4.42-.84-6.71h-2.19c-.16,2.3-.46,4.53-.86,6.71h-1.22v3.31h.53c-.54,2.31-1.19,4.52-1.91,6.62h-2.3v3.92h.85c-2.39,5.9-5.15,10.6-7.16,13.46h6.61c0-3.39,3.07-5.5,6.56-5.5s6.61,2.11,6.61,5.5h6.56c-2.02-2.87-4.79-7.58-7.18-13.46Z"/>
</svg>