<svg width="160" height="161" viewBox="0 0 160 161" fill="none" xmlns="http://www.w3.org/2000/svg">
<path fill-rule="evenodd" clip-rule="evenodd" d="M41.1103 21.8158C52.6217 14.1241 66.1555 10.0187 80.0002 10.0187C98.5654 10.0187 116.37 17.3937 129.498 30.5212C142.625 43.6487 150 61.4535 150 80.0187C150 93.8634 145.895 107.397 138.203 118.909C130.511 130.42 119.579 139.392 106.788 144.69C93.9972 149.988 79.9226 151.375 66.3439 148.674C52.7652 145.973 40.2924 139.306 30.5027 129.516C20.7131 119.726 14.0462 107.254 11.3452 93.675C8.64428 80.0963 10.0305 66.0217 15.3286 53.2308C20.6268 40.44 29.5989 29.5075 41.1103 21.8158ZM46.666 129.907C56.5329 136.5 68.1333 140.019 80.0002 140.019C95.9132 140.019 111.174 133.697 122.427 122.445C133.679 111.193 140 95.9317 140 80.0187C140 68.1518 136.481 56.5514 129.888 46.6845C123.295 36.8175 113.925 29.1272 102.961 24.5859C91.9976 20.0446 79.9337 18.8564 68.2948 21.1716C56.6559 23.4867 45.965 29.2011 37.5738 37.5923C29.1827 45.9834 23.4682 56.6744 21.1531 68.3133C18.838 79.9521 20.0262 92.0161 24.5674 102.98C29.1087 113.943 36.799 123.314 46.666 129.907ZM63.9002 51.4188V110.469H76.4002V91.4688H83.9002C88.1579 91.5687 92.3872 90.7501 96.3002 89.0688C99.6615 87.6423 102.53 85.2605 104.55 82.2188C106.563 79.003 107.573 75.2606 107.45 71.4688C107.571 67.6457 106.563 63.8716 104.55 60.6188C102.546 57.5629 99.6725 55.1772 96.3002 53.7688C92.3759 52.1295 88.1522 51.3291 83.9002 51.4188H63.9002ZM76.4002 62.2688H83.1002C86.0255 62.1474 88.9191 62.9143 91.4002 64.4688C92.477 65.2716 93.3314 66.3357 93.8825 67.5605C94.4337 68.7853 94.6635 70.1305 94.5502 71.4688C94.6653 72.793 94.4357 74.1244 93.8837 75.3336C93.3317 76.5427 92.4762 77.5884 91.4002 78.3688C88.9135 79.9058 86.0203 80.6552 83.1002 80.5188H76.4002V62.2688Z" fill="white"/>
</svg>
